<svg width="316" height="104" viewBox="0 0 316 104" fill="none" xmlns="http://www.w3.org/2000/svg">
<path fill-rule="evenodd" clip-rule="evenodd" d="M124.539 37.6674C124.127 37.7046 123.571 37.8162 123.304 37.9146C123.037 38.0124 122.447 38.1835 121.992 38.2934C121.147 38.4985 118.55 39.5755 118.231 39.8532C118.134 39.9379 117.816 40.1364 117.525 40.2944C117.203 40.4693 116.91 40.7115 116.775 40.9155L116.555 41.249V52.6911V64.1332L116.79 64.4848C116.947 64.7199 117.198 64.9216 117.545 65.0922C117.83 65.2327 118.112 65.4065 118.169 65.4782C118.227 65.5498 118.443 65.6821 118.649 65.7723C118.856 65.8625 119.443 66.1353 119.954 66.3786C120.481 66.6284 121.227 66.8985 121.675 66.9996C122.11 67.0981 122.784 67.2834 123.172 67.4124C124.605 67.887 127.971 67.911 129.26 67.4551C129.551 67.3523 130.226 67.1642 130.76 67.0368C131.3 66.9078 132.043 66.6508 132.436 66.4568C132.824 66.2654 133.4 65.9866 133.716 65.8373C134.031 65.6881 134.368 65.4995 134.465 65.418C134.563 65.336 134.86 65.1572 135.127 65.02C136.048 64.5476 136.141 64.1617 136.079 61.1061C136.034 58.8334 135.954 58.5688 135.184 58.115C134.342 57.6192 132.838 57.8728 132.517 58.5655C132.445 58.7208 132.32 58.9712 132.24 59.1215C132.132 59.3233 132.081 59.7317 132.044 60.6753C131.99 62.0787 131.894 62.375 131.439 62.5439C131.308 62.5926 131.047 62.714 130.859 62.8146C128.369 64.1442 122.153 63.7795 120.746 62.2214L120.525 61.9776L120.497 53.2143C120.464 42.385 120.403 43.04 121.468 42.6529C121.677 42.5769 122.206 42.3856 122.642 42.2281C124.196 41.6683 127.816 41.5814 129.392 42.0657C131.748 42.7907 132.037 43.0389 132.043 44.351C132.052 46.2896 132.726 47.3218 133.984 47.3218C135.593 47.3218 136.025 46.6581 136.08 44.1039C136.141 41.2626 136.041 40.8695 135.125 40.3513C134.859 40.2009 134.483 39.9669 134.289 39.8308C134.095 39.6952 133.773 39.5246 133.573 39.4519C133.373 39.3792 132.857 39.1474 132.425 38.9369C131.995 38.7264 131.245 38.4591 130.76 38.3432C130.275 38.2267 129.639 38.0447 129.348 37.9381C128.473 37.6182 126.377 37.5002 124.539 37.6674ZM151.479 37.6658C151.131 37.7035 150.476 37.8583 150.023 38.0091C149.57 38.1606 149.014 38.329 148.786 38.3836C148.558 38.4383 147.923 38.7013 147.374 38.9686C146.826 39.2354 146.25 39.5055 146.096 39.5689C145.942 39.6323 145.794 39.7406 145.769 39.8095C145.744 39.8784 145.488 40.0566 145.201 40.2064C144.049 40.8072 144.082 40.6159 144.082 46.5373V51.3571L144.329 51.5468C144.464 51.6513 144.861 51.8273 145.211 51.9388C145.561 52.0498 146.423 52.3215 147.126 52.5429C147.83 52.7638 148.664 53.0552 148.979 53.1897C149.295 53.3242 149.921 53.5172 150.371 53.6183C150.821 53.7195 151.377 53.9015 151.606 54.0234C151.835 54.1454 152.361 54.3105 152.773 54.3903C153.186 54.4696 153.784 54.6527 154.103 54.797C154.422 54.9414 155.037 55.1415 155.471 55.2421C157.741 55.768 158.703 56.3043 158.82 57.1058C158.954 58.0308 158.829 61.8442 158.655 62.1181C157.784 63.4909 152.335 64.1223 149.466 63.1825C147.441 62.5188 147.266 62.3411 147.185 60.871C147.021 57.9024 144.67 56.9877 143.393 59.3949C143.21 59.741 143.2 59.8689 143.2 61.9092V64.0589L143.535 64.4809C143.728 64.7248 144.035 64.9779 144.261 65.0812C144.476 65.1796 144.801 65.3814 144.985 65.5301C145.168 65.6788 145.417 65.8297 145.538 65.8658C145.659 65.9019 146.176 66.1293 146.685 66.3715C147.21 66.6208 148.014 66.9105 148.538 67.039C149.048 67.1637 149.722 67.3523 150.038 67.4578C151.338 67.8919 154.788 67.8924 155.994 67.4583C156.285 67.3534 156.979 67.1527 157.538 67.0122C158.096 66.8717 158.769 66.6432 159.033 66.5049C159.297 66.3666 159.828 66.1162 160.213 65.9483C160.598 65.781 160.981 65.5804 161.063 65.5028C161.147 65.4257 161.449 65.2436 161.736 65.0993C162.023 64.9544 162.377 64.7056 162.522 64.5471L162.787 64.2579L162.814 59.0931C162.847 52.6982 163.117 53.4734 160.595 52.7026C159.923 52.497 159.251 52.2641 159.102 52.1843C158.953 52.1045 158.457 51.9601 158.001 51.8639C157.545 51.7677 156.924 51.5682 156.621 51.4205C156.319 51.2724 155.684 51.0696 155.211 50.969C154.738 50.8684 154.082 50.6644 153.753 50.5152C153.423 50.3659 152.86 50.197 152.501 50.1401C152.141 50.0827 151.628 49.9422 151.361 49.8274C151.095 49.7126 150.459 49.4885 149.95 49.3288C148.078 48.7422 148.151 48.8772 148.113 45.9551C148.075 43.0465 148.068 43.064 149.465 42.4255C150.866 41.7842 153.906 41.542 155.332 41.9575C156.208 42.2134 157.199 42.7092 157.583 43.0848L157.955 43.4495L158.001 44.4155C158.127 47.0993 160.274 47.9566 161.706 45.8955C161.962 45.5253 161.97 45.4854 162.015 44.1618C162.111 41.3698 161.979 40.9045 160.909 40.2518C160.604 40.0659 160.333 39.8773 160.306 39.833C160.222 39.6919 157.95 38.6029 157.403 38.441C157.113 38.3552 156.508 38.1622 156.057 38.0124C154.856 37.6122 153.154 37.4832 151.479 37.6658ZM170.54 37.6696C170.043 37.8216 169.22 38.8341 169.15 39.3803C169.072 39.9888 169.26 40.8526 169.471 40.8526C169.52 40.8526 169.71 40.9931 169.895 41.1653C170.357 41.5967 170.701 41.6716 172.228 41.6721C173.775 41.6732 174.044 41.7689 174.207 42.3741C174.365 42.9607 174.335 62.7342 174.176 63.1278C173.957 63.6685 173.736 63.7232 171.769 63.7232C169.767 63.7232 169.609 63.7544 169.017 64.2705C168.078 65.0883 168.108 66.3277 169.093 67.3222L169.544 67.7782H176.387H183.231L183.622 67.3222C184.583 66.2031 184.582 65.078 183.62 64.1737L183.189 63.7686L181.153 63.7385C178.877 63.7041 178.741 63.668 178.482 63.0294C178.301 62.58 178.3 42.8169 178.482 42.3681C178.746 41.7159 178.888 41.6727 180.784 41.6727C182.65 41.6727 183.169 41.5792 183.562 41.1741C183.685 41.0467 183.881 40.8674 183.998 40.7755C184.572 40.3256 184.344 38.9304 183.557 38.0829L183.125 37.6177L176.971 37.6013C173.392 37.592 170.7 37.6204 170.54 37.6696ZM216.025 37.6674C215.608 37.7057 214.893 37.8599 214.437 38.0097C213.981 38.1595 213.369 38.3317 213.078 38.3924C212.787 38.4536 212.331 38.6062 212.064 38.7319C211.797 38.8571 211.417 39.037 211.219 39.1305C211.022 39.2239 210.687 39.3633 210.475 39.4404C210.264 39.5175 209.959 39.6848 209.797 39.8122C209.635 39.9396 209.287 40.1451 209.024 40.2698C208.523 40.5071 208.041 40.9876 207.96 41.3326C207.934 41.4441 207.923 46.6204 207.936 52.8343L207.961 64.1332L208.219 64.4815C208.372 64.6882 208.696 64.944 209.013 65.1086C209.308 65.2622 209.708 65.4995 209.902 65.6356C210.096 65.7723 210.414 65.9363 210.608 66.0008C210.802 66.0648 211.239 66.261 211.579 66.4371C211.918 66.6126 212.653 66.8712 213.211 67.0122C213.769 67.1527 214.461 67.3523 214.749 67.4551C216.07 67.9291 219.385 67.8892 220.975 67.3807C221.436 67.2336 222.131 67.0407 222.519 66.9521C222.907 66.8635 223.484 66.6585 223.802 66.4961C224.119 66.3338 224.633 66.0938 224.944 65.9631C225.255 65.833 225.592 65.646 225.692 65.5487C225.793 65.4508 226.135 65.2491 226.453 65.1004C227.427 64.6444 227.516 64.4383 227.568 62.5182C227.617 60.7436 227.496 59.0494 227.303 58.8176C227.235 58.7339 227.152 58.5923 227.122 58.5021C226.976 58.0795 225.681 57.7094 224.967 57.8865C223.976 58.132 223.625 58.8165 223.541 60.6654C223.47 62.2088 223.448 62.2542 222.598 62.6713C219.912 63.9878 215.384 63.99 212.86 62.6763C211.822 62.1361 211.935 63.259 211.904 53.2121C211.874 43.6343 211.881 43.3943 212.21 43.0799C213.696 41.6574 218.981 41.2954 221.858 42.4189C223.42 43.0296 223.534 43.1603 223.534 44.3516C223.536 46.7106 224.53 47.7417 226.274 47.1939C227.317 46.8664 227.599 46.0513 227.584 43.4036C227.572 41.1478 227.454 40.8056 226.534 40.3392C226.267 40.2036 225.918 39.9943 225.758 39.8734C225.31 39.5334 222.891 38.4946 222.197 38.3437C221.857 38.2699 221.275 38.1043 220.906 37.9763C219.858 37.6133 217.937 37.4914 216.025 37.6674ZM279.485 37.7243C278.413 38.2792 278.296 41.782 279.326 42.4741C279.868 42.8383 282.976 42.9044 283.618 42.5654C284.686 42.0023 284.792 38.5996 283.767 37.8096C283.418 37.5406 279.972 37.4717 279.485 37.7243ZM303.635 38.0933C302.872 38.8309 302.903 38.6707 302.853 42.1778C302.797 46.13 302.82 46.0846 301.025 45.7998C299.448 45.5499 297.155 45.7238 295.53 46.2158C295.215 46.3115 294.639 46.4794 294.251 46.5892C293.862 46.6986 293.465 46.8637 293.368 46.9555C293.271 47.0474 292.932 47.248 292.615 47.4017C292.119 47.6417 292.008 47.7423 291.821 48.1168L291.604 48.5519L291.584 56.6613L291.563 64.7713L291.76 65.1802C291.976 65.6301 292.141 65.7564 293.645 66.6208C293.759 66.6858 294.616 66.9696 295.551 67.2506L297.25 67.7629L299.191 67.764L301.132 67.765L302.828 67.2533C304.724 66.6809 306.091 65.9904 306.545 65.3754L306.779 65.0588V52.1127V39.1665L306.442 38.692C305.874 37.89 305.496 37.6631 304.729 37.6631H304.081L303.635 38.0933ZM240.562 45.7839C240.199 45.8277 239.583 45.9501 239.195 46.0567C238.806 46.1634 238.151 46.3427 237.739 46.4548C236.658 46.7494 234.976 47.6821 234.815 48.0758C234.651 48.4776 234.635 65.1201 234.799 65.4136C235.197 66.1287 238.956 67.5726 240.871 67.7465C241.863 67.8367 244.022 67.7754 244.548 67.642C246.099 67.2506 247.725 66.6869 248.277 66.3502C248.62 66.1413 249.03 65.8909 249.19 65.7942C249.863 65.3847 249.826 65.9122 249.826 56.6832V48.4508L249.57 48.0337C249.376 47.7171 249.191 47.5564 248.8 47.3656C248.517 47.2273 248.146 47.0195 247.975 46.9042C247.805 46.7882 247.288 46.5931 246.826 46.4701C246.365 46.3465 245.691 46.1617 245.327 46.0595C244.109 45.7167 242.102 45.6008 240.562 45.7839ZM257.276 46.0819C256.222 46.815 255.976 47.7472 256.515 48.962C256.615 49.1872 256.779 49.7203 256.88 50.1467C257.188 51.4501 257.423 52.3472 257.641 53.0623C257.755 53.4385 257.929 54.1596 258.028 54.6653C258.126 55.1715 258.29 55.7806 258.392 56.0195C258.495 56.2584 258.654 56.8904 258.748 57.4234C258.944 58.5519 258.951 58.5808 259.23 59.3183C259.347 59.6272 259.508 60.2833 259.587 60.7764C259.666 61.2696 259.827 61.9125 259.944 62.2055C260.063 62.4986 260.312 63.3596 260.501 64.119C261.072 66.4251 261.516 67.3277 262.243 67.6595C262.653 67.8471 266.23 67.8777 266.608 67.6967C267.131 67.4474 267.933 65.6225 268.223 64.0234C268.302 63.5893 268.464 62.9851 268.584 62.6812C268.704 62.3772 268.884 61.6364 268.984 61.035C269.087 60.4096 269.262 59.7273 269.391 59.4408C269.515 59.1653 269.694 58.5087 269.789 57.9827C269.885 57.4568 270.096 56.6105 270.26 56.1031C270.424 55.5952 270.597 54.8982 270.644 54.5537C270.691 54.2099 270.874 53.4565 271.049 52.8803C271.4 51.7283 271.522 51.2817 271.781 50.1921C271.877 49.7913 272.063 49.1561 272.195 48.7805C272.57 47.7116 272.491 47.0764 271.915 46.5373C270.196 44.9251 268.834 45.7511 268.311 48.7231C268.232 49.1675 268.072 49.7979 267.953 50.1237C267.834 50.449 267.597 51.3025 267.426 52.0197C267.254 52.737 267.016 53.6025 266.897 53.9425C266.778 54.2826 266.616 54.9512 266.538 55.429C266.46 55.9063 266.263 56.6493 266.101 57.0801C265.938 57.5109 265.743 58.249 265.668 58.7202C265.593 59.1915 265.393 59.9875 265.223 60.4883C265.054 60.9896 264.915 61.4932 264.914 61.6074C264.913 62.1181 264.68 62.4494 264.367 62.3881C263.941 62.3045 263.875 62.2203 263.676 61.503C263.577 61.1455 263.415 60.6272 263.316 60.3516C263.217 60.0761 263.059 59.3637 262.965 58.7684C262.858 58.0992 262.694 57.453 262.533 57.0757C262.387 56.7302 262.194 56.0031 262.09 55.4028C261.988 54.8189 261.806 54.1169 261.685 53.8436C261.564 53.5697 261.402 52.9847 261.325 52.5435C261.248 52.1023 261.032 51.2489 260.845 50.6475C260.658 50.0461 260.403 49.0877 260.279 48.517C260.041 47.4219 259.953 47.1988 259.465 46.4394C258.968 45.6658 258.082 45.5215 257.276 46.0819ZM280.817 45.9698C280.111 46.3235 279.742 46.9107 279.642 47.8418C279.503 49.1282 279.573 65.8838 279.72 66.2261C280.362 67.7306 281.822 68.1986 282.85 67.2287C283.638 66.4857 283.574 67.4228 283.574 56.5853V46.9419L283.059 46.4504C282.321 45.7473 281.579 45.5882 280.817 45.9698ZM244.471 50.1068C245.941 50.4261 245.865 50.0559 245.836 56.7756C245.813 62.1498 245.807 62.3214 245.632 62.6659C244.995 63.9195 239.831 63.9392 238.938 62.6916C238.663 62.3072 238.601 51.397 238.871 50.8755C239.151 50.3359 239.583 50.1615 241.224 49.9258C241.732 49.8531 243.844 49.9707 244.471 50.1068ZM301.353 50.1013C301.995 50.2402 302.497 50.5425 302.703 50.9126C302.82 51.1231 302.914 61.0733 302.808 61.9743C302.687 62.9933 301.739 63.5029 299.775 63.604C297.659 63.7123 296.261 63.3334 295.86 62.5418L295.618 62.0623V56.693C295.618 50.7891 295.6 50.9875 296.161 50.4479C296.703 49.9258 299.643 49.7296 301.353 50.1013Z" fill="#FF7D62"/>
<path fill-rule="evenodd" clip-rule="evenodd" d="M123.614 37.4805C123.371 37.5182 122.776 37.6746 122.29 37.8282C121.805 37.9819 121.15 38.188 120.835 38.2864C120.037 38.5346 118.278 39.3694 118.011 39.6253C117.89 39.7417 117.535 39.9735 117.221 40.1403C116.731 40.4011 116.618 40.5115 116.404 40.9341L116.156 41.4251L116.179 52.7792L116.202 64.1333L116.394 64.498C116.593 64.8774 116.729 64.99 117.398 65.3262C117.619 65.4378 117.852 65.5941 117.917 65.6745C118.205 66.0337 120.391 67.0101 121.805 67.4119C122.266 67.5426 122.842 67.7121 123.084 67.7881C124.258 68.1566 128.83 68.0412 130.055 67.6126C130.395 67.4939 130.97 67.3228 131.334 67.2326C132.104 67.0424 134.182 66.0774 134.524 65.7516C134.652 65.6291 135.007 65.3995 135.31 65.2409C136.252 64.7511 136.36 64.3941 136.354 61.8098C136.347 58.8887 136.256 58.5169 135.4 57.9002C134.672 57.3759 133.915 57.3174 133.099 57.7226C132.073 58.2315 131.881 58.6563 131.804 60.5813C131.738 62.2417 131.862 62.064 130.391 62.597C128.592 63.2487 126.143 63.4767 124.188 63.1755C123.313 63.041 121.159 62.3024 120.952 62.0662C120.798 61.8901 120.791 61.4697 120.791 52.6906V43.4998L120.986 43.2981C121.16 43.1188 122.068 42.7793 123.526 42.3485C125.237 41.8433 127.799 41.9723 130.011 42.6748C131.729 43.221 131.775 43.2587 131.776 44.1198C131.779 46.6833 132.365 47.5231 134.157 47.534C135.864 47.5439 136.259 46.9266 136.333 44.1329C136.412 41.1747 136.262 40.5869 135.313 40.143C135.041 40.0156 134.718 39.8057 134.595 39.6761C134.471 39.5466 134.114 39.3229 133.801 39.1803C133.487 39.037 132.953 38.7822 132.613 38.6144C132.274 38.4466 131.639 38.2202 131.202 38.1114C130.765 38.0026 130.225 37.8403 130.002 37.7501C129.186 37.4198 125.118 37.2487 123.614 37.4805ZM150.612 37.4756C150.37 37.5155 149.751 37.6976 149.237 37.8791C148.723 38.0611 148.258 38.2098 148.203 38.2098C147.984 38.2098 145.745 39.3896 145.517 39.6247C145.384 39.7625 145.085 39.967 144.855 40.0785C143.793 40.5941 143.823 40.4115 143.793 46.2848L143.766 51.3069L143.998 51.5912C144.327 51.9957 145.215 52.3905 146.863 52.8656C147.372 53.0126 148.047 53.2412 148.362 53.374C148.678 53.5069 149.254 53.6731 149.643 53.743C150.381 53.8764 150.641 53.9584 151.23 54.2466C151.424 54.3411 151.94 54.4855 152.377 54.5669C152.85 54.6555 153.382 54.8277 153.694 54.9928C153.982 55.1454 154.558 55.3438 154.974 55.434C156.245 55.7101 158.255 56.5165 158.473 56.838C158.606 57.0342 158.656 60.5212 158.539 61.5211C158.484 61.9995 158.476 62.011 158.033 62.2247C155.425 63.4849 151.983 63.6724 149.201 62.7064C147.538 62.1291 147.618 62.2286 147.536 60.6469C147.479 59.5529 147.321 59.1074 146.772 58.4923C145.685 57.2737 143.27 57.927 143.008 59.5103C142.851 60.4578 142.921 64.0147 143.105 64.4351C143.262 64.7932 144.081 65.4547 144.368 65.4547C144.415 65.4547 144.526 65.5384 144.616 65.6411C144.993 66.0714 146.884 66.9347 148.426 67.3813C148.949 67.5328 149.576 67.7219 149.818 67.8017C150.182 67.9215 150.744 67.9477 153.039 67.9505L155.818 67.9532L156.656 67.6683C157.117 67.5114 157.799 67.2988 158.172 67.1954C158.544 67.0921 159.27 66.8018 159.784 66.5503C160.298 66.2983 160.748 66.0922 160.783 66.0922C160.818 66.0916 161.046 65.9375 161.288 65.7494C161.531 65.5608 161.896 65.3306 162.1 65.2371C163.027 64.8112 163.009 64.9348 163.009 59.0117C163.009 52.5862 163.118 53.0668 161.552 52.607C161.019 52.4501 160.245 52.2062 159.832 52.0652C159.42 51.9236 158.745 51.7371 158.332 51.6513C157.92 51.5649 157.344 51.3774 157.053 51.2347C156.762 51.092 156.123 50.8914 155.632 50.7897C155.142 50.6875 154.566 50.5065 154.353 50.3879C154.14 50.2687 153.628 50.0992 153.215 50.0106C152.803 49.9226 152.143 49.7138 151.749 49.5459C151.355 49.3781 150.601 49.12 150.073 48.9713C148.265 48.464 148.342 48.6182 148.38 45.5741C148.409 43.2161 148.428 43.133 148.965 42.9947C149.094 42.9613 149.32 42.8815 149.466 42.8175C150.075 42.5486 150.249 42.4879 150.916 42.3118C152.771 41.8225 154.845 42.039 156.832 42.9291C157.472 43.2155 157.554 43.3659 157.64 44.421C157.756 45.8277 157.823 46.0109 158.45 46.6254C159.478 47.633 160.389 47.6281 161.569 46.6095C162.153 46.1055 162.215 45.7906 162.215 43.3107C162.215 40.8674 162.158 40.6575 161.355 40.1693C161.108 40.0189 160.774 39.7882 160.612 39.6564C160.094 39.2355 158.404 38.3903 157.539 38.1191C157.078 37.9753 156.462 37.7659 156.171 37.6538C155.597 37.4341 151.631 37.3067 150.612 37.4756ZM170.279 37.4663C169.975 37.5647 169.192 38.3525 169.051 38.7008C168.866 39.1578 168.874 40.47 169.063 40.7493C169.756 41.7706 170.234 41.9707 172.101 42.0177L173.65 42.0565L173.844 42.3485L174.037 42.6404V52.7196V62.7982L173.816 63.0699L173.595 63.3417L171.584 63.3728C169.302 63.4084 169.389 63.3838 168.602 64.2246C167.584 65.3126 167.978 67.272 169.336 67.8788C169.762 68.0691 183.109 68.0674 183.46 67.8772C184.205 67.4743 184.57 66.7526 184.574 65.6783C184.577 64.7123 184.176 64.0185 183.277 63.4373C183.266 63.4308 182.306 63.4002 181.143 63.369L179.029 63.3132L178.827 63.0038L178.626 62.6938V52.7054V42.7169L178.843 42.3873L179.06 42.0571L180.982 42.0166C183.18 41.9701 183.195 41.9663 183.92 41.2375C184.88 40.2737 184.827 38.8878 183.79 37.8457L183.383 37.4357L176.924 37.4209C173.371 37.4127 170.381 37.4335 170.279 37.4663ZM215.04 37.4876C214.711 37.5341 214.296 37.6347 214.117 37.7118C213.939 37.7889 213.41 37.9523 212.94 38.0753C212.471 38.1978 211.755 38.4575 211.348 38.6521C210.942 38.8468 210.431 39.0835 210.213 39.1775C209.995 39.2721 209.643 39.4859 209.43 39.6532C209.217 39.8205 208.874 40.0326 208.667 40.1239C207.62 40.5875 207.659 40.0993 207.659 52.6977C207.659 65.3437 207.604 64.6445 208.635 65.2267C208.901 65.3771 209.245 65.5952 209.401 65.7111C209.861 66.0566 211.983 67.0648 212.506 67.1872C212.773 67.2501 213.428 67.4475 213.962 67.6263L214.932 67.9515L217.711 67.9494C220.026 67.9472 220.565 67.9226 220.932 67.7996C221.175 67.7186 221.85 67.5136 222.432 67.3441C223.593 67.0063 225.519 66.1408 226.005 65.7385C226.175 65.5979 226.493 65.4006 226.711 65.3C227.674 64.8561 227.77 64.534 227.77 61.754C227.77 58.5672 227.681 58.2764 226.529 57.7138C225.652 57.2852 225.017 57.3491 224.17 57.9522C223.462 58.4557 223.375 58.7001 223.28 60.4528C223.185 62.2231 223.294 62.0766 221.638 62.6626C219.299 63.4909 215.953 63.521 213.954 62.7326C213.57 62.5812 213.151 62.4314 213.024 62.3997C212.896 62.368 212.658 62.2269 212.494 62.0859L212.197 61.83L212.17 53.0952C212.155 48.2912 212.167 44.1553 212.196 43.9039C212.263 43.32 212.474 43.1647 213.785 42.7295C216.518 41.8231 218.939 41.8231 221.646 42.7295C223.277 43.2757 223.19 43.1456 223.314 45.2067C223.43 47.1251 224.671 47.9916 226.503 47.4318C227.531 47.1174 227.717 46.5866 227.755 43.853C227.79 41.2791 227.745 40.9789 227.249 40.4913C226.706 39.9577 224.149 38.5543 223.191 38.2645C222.968 38.1967 222.487 38.0513 222.123 37.9409C221.759 37.831 221.263 37.6773 221.02 37.5992C220.495 37.4302 216.034 37.3471 215.04 37.4876ZM279.19 37.5363C278.32 37.9168 278.05 41.5415 278.82 42.4873C279.546 43.3785 283.92 43.2653 284.422 42.3419C285.065 41.161 284.845 38.1399 284.078 37.6024C283.74 37.3652 279.706 37.3105 279.19 37.5363ZM303.868 37.5144C302.786 38.0387 302.663 38.4816 302.599 42.0685L302.545 45.0618L302.28 45.2827C302.03 45.4921 301.977 45.5003 301.31 45.4336C298.923 45.1946 296.464 45.421 294.913 46.0218C294.452 46.2006 293.917 46.3843 293.724 46.4297C293.53 46.475 293.243 46.6139 293.086 46.738C292.928 46.8621 292.551 47.0967 292.246 47.259C291.258 47.7871 291.34 46.9321 291.34 56.7527C291.34 66.8024 291.114 65.5045 293.07 66.7143C295.263 68.0713 300.44 68.4655 303.323 67.495C305.673 66.7045 306.765 66.0031 306.998 65.1354C307.159 64.5346 307.084 39.1475 306.92 38.8479C306.645 38.3454 306.105 37.6861 305.876 37.5729C305.516 37.3952 304.194 37.357 303.868 37.5144ZM127.849 37.6598C128.414 37.7091 129.04 37.8255 129.349 37.9381C129.64 38.0447 130.276 38.2268 130.76 38.3432C131.246 38.4591 131.995 38.7265 132.426 38.937C132.858 39.1475 133.374 39.3793 133.574 39.452C133.774 39.5247 134.096 39.6953 134.29 39.8308C134.484 39.967 134.86 40.201 135.126 40.3513C136.042 40.8696 136.142 41.2627 136.081 44.1039C136.026 46.6582 135.594 47.3219 133.985 47.3219C132.727 47.3219 132.053 46.2897 132.044 44.3511C132.038 43.039 131.749 42.7907 129.393 42.0658C127.817 41.5814 124.197 41.6683 122.643 42.2282C122.207 42.3856 121.678 42.577 121.469 42.653C120.404 43.04 120.464 42.3851 120.498 53.2144L120.526 61.9776L120.747 62.2215C122.154 63.7796 128.37 64.1442 130.86 62.8146C131.048 62.714 131.309 62.5927 131.44 62.544C131.895 62.3751 131.991 62.0788 132.045 60.6753C132.082 59.7317 132.133 59.3233 132.241 59.1216C132.321 58.9712 132.445 58.7209 132.518 58.5656C132.839 57.8729 134.343 57.6192 135.185 58.1151C135.955 58.5689 136.035 58.8335 136.08 61.1062C136.142 64.1617 136.048 64.5477 135.128 65.0201C134.861 65.1573 134.564 65.3361 134.466 65.4181C134.369 65.4995 134.031 65.6882 133.716 65.8374C133.401 65.9867 132.825 66.2655 132.437 66.4568C132.044 66.6509 131.301 66.9079 130.76 67.0369C130.227 67.1643 129.552 67.3523 129.261 67.4551C127.972 67.9111 124.606 67.887 123.173 67.4125C122.785 67.2835 122.111 67.0981 121.676 66.9997C121.228 66.8986 120.481 66.6285 119.955 66.3787C119.444 66.1354 118.857 65.8626 118.65 65.7723C118.444 65.6821 118.228 65.5498 118.17 65.4782C118.112 65.4066 117.831 65.2327 117.545 65.0922C117.199 64.9217 116.948 64.7199 116.791 64.4848L116.556 64.1333V52.6912V41.249L116.776 40.9155C116.911 40.7116 117.203 40.4694 117.526 40.2945C117.817 40.1365 118.135 39.938 118.232 39.8533C118.551 39.5755 121.148 38.4985 121.993 38.2935C122.448 38.1836 123.038 38.0125 123.305 37.9146C124.12 37.6139 126.072 37.5046 127.849 37.6598ZM154.426 37.6582C154.882 37.7041 155.599 37.8594 156.058 38.0125C156.508 38.1623 157.114 38.3553 157.404 38.4411C157.951 38.6029 160.223 39.692 160.307 39.833C160.334 39.8773 160.605 40.0659 160.91 40.2518C161.98 40.9046 162.112 41.3698 162.016 44.1619C161.888 47.9058 158.178 48.1403 158.002 44.4156L157.956 43.4495L157.584 43.0849C156.103 41.6355 151.932 41.2971 149.466 42.4255C148.069 43.0641 148.076 43.0466 148.114 45.9551C148.152 48.8773 148.079 48.7423 149.951 49.3289C150.46 49.4885 151.096 49.7127 151.362 49.8275C151.629 49.9423 152.142 50.0828 152.502 50.1402C152.861 50.1971 153.424 50.366 153.754 50.5152C154.083 50.6645 154.739 50.8684 155.211 50.969C155.685 51.0696 156.319 51.2724 156.622 51.4206C156.925 51.5682 157.546 51.7678 158.002 51.864C158.458 51.9602 158.954 52.1045 159.103 52.1844C159.252 52.2642 159.924 52.4971 160.596 52.7026C163.118 53.4735 162.848 52.6983 162.815 59.0932L162.788 64.258L162.523 64.5472C162.378 64.7057 162.024 64.9545 161.737 65.0993C161.45 65.2437 161.147 65.4257 161.064 65.5028C160.982 65.5805 160.599 65.7811 160.214 65.9484C159.829 66.1162 159.298 66.3666 159.034 66.5049C158.769 66.6433 158.097 66.8718 157.539 67.0123C156.98 67.1528 156.286 67.3534 155.994 67.4584C154.789 67.8925 151.339 67.892 150.039 67.4579C149.723 67.3523 149.048 67.1637 148.539 67.0391C148.015 66.9106 147.21 66.6208 146.686 66.3715C146.177 66.1294 145.66 65.9019 145.539 65.8658C145.418 65.8298 145.169 65.6789 144.985 65.5302C144.802 65.3814 144.477 65.1797 144.262 65.0813C144.036 64.978 143.729 64.7248 143.536 64.481L143.201 64.059V61.9093C143.201 59.4966 143.207 59.4709 143.923 58.6421C144.561 57.9046 145.751 57.8893 146.408 58.6099C146.976 59.2337 147.118 59.6448 147.186 60.8711C147.267 62.3412 147.442 62.5189 149.467 63.1826C152.336 64.1224 157.785 63.4909 158.656 62.1181C158.83 61.8442 158.955 58.0309 158.821 57.1059C158.704 56.3044 157.741 55.7681 155.471 55.2421C155.038 55.1415 154.423 54.9414 154.104 54.7971C153.785 54.6528 153.187 54.4696 152.774 54.3903C152.362 54.3105 151.836 54.1454 151.607 54.0235C151.378 53.9016 150.822 53.7195 150.372 53.6184C149.922 53.5172 149.296 53.3243 148.98 53.1898C148.665 53.0553 147.831 52.7639 147.127 52.543C146.424 52.3216 145.562 52.0499 145.212 51.9389C144.862 51.8274 144.465 51.6513 144.33 51.5469L144.083 51.3572V46.5374C144.083 40.6159 144.049 40.8073 145.202 40.2064C145.489 40.0566 145.745 39.8784 145.77 39.8095C145.795 39.7406 145.943 39.6324 146.097 39.569C146.251 39.5055 146.827 39.2355 147.375 38.9687C147.924 38.7013 148.559 38.4384 148.787 38.3837C149.015 38.329 149.571 38.1606 150.024 38.0092C151.235 37.6052 152.713 37.4871 154.426 37.6582ZM183.558 38.083C184.344 38.9304 184.573 40.3256 183.999 40.7756C183.882 40.8674 183.686 41.0467 183.563 41.1741C183.17 41.5792 182.651 41.6727 180.785 41.6727C178.889 41.6727 178.747 41.7159 178.483 42.3681C178.301 42.817 178.302 62.5801 178.483 63.0295C178.741 63.6681 178.878 63.7041 181.154 63.7386L183.19 63.7686L183.621 64.1738C184.583 65.078 184.584 66.2032 183.623 67.3223L183.232 67.7782H176.388H169.545L169.093 67.3223C168.109 66.3278 168.079 65.0884 169.018 64.2705C169.61 63.7544 169.768 63.7233 171.769 63.7233C173.737 63.7233 173.958 63.6686 174.177 63.1279C174.336 62.7343 174.366 42.9608 174.208 42.3742C174.045 41.7689 173.776 41.6733 172.229 41.6722C170.702 41.6716 170.358 41.5967 169.896 41.1654C169.711 40.9932 169.521 40.8526 169.471 40.8526C169.261 40.8526 169.073 39.9888 169.151 39.3804C169.221 38.8342 170.044 37.8217 170.541 37.6697C170.701 37.6205 173.393 37.5921 176.972 37.6013L183.126 37.6178L183.558 38.083ZM219.348 37.6609C219.866 37.7091 220.515 37.8408 220.907 37.9764C221.276 38.1043 221.857 38.27 222.198 38.3438C222.892 38.4947 225.311 39.5334 225.759 39.8735C225.919 39.9943 226.268 40.2037 226.535 40.3393C227.455 40.8056 227.573 41.1479 227.585 43.4036C227.6 46.0513 227.318 46.8665 226.275 47.194C224.531 47.7418 223.537 46.7107 223.535 44.3516C223.535 43.1603 223.421 43.0297 221.859 42.419C218.982 41.2955 213.697 41.6574 212.211 43.08C211.882 43.3943 211.875 43.6343 211.905 53.2122C211.936 63.2591 211.823 62.1362 212.861 62.6763C215.385 63.9901 219.913 63.9879 222.599 62.6714C223.449 62.2543 223.47 62.2089 223.541 60.6655C223.626 58.8165 223.977 58.132 224.968 57.8866C225.682 57.7094 226.977 58.0796 227.123 58.5022C227.153 58.5924 227.235 58.734 227.304 58.8176C227.496 59.0494 227.618 60.7437 227.569 62.5183C227.517 64.4384 227.428 64.6445 226.454 65.1004C226.136 65.2491 225.794 65.4509 225.693 65.5487C225.593 65.6461 225.256 65.833 224.945 65.9632C224.634 66.0938 224.12 66.3338 223.803 66.4962C223.485 66.6586 222.908 66.8636 222.52 66.9522C222.132 67.0407 221.437 67.2337 220.976 67.3808C219.386 67.8892 216.071 67.9291 214.75 67.4551C214.462 67.3523 213.77 67.1528 213.212 67.0123C212.654 66.8712 211.919 66.6126 211.58 66.4371C211.24 66.2611 210.803 66.0648 210.609 66.0009C210.415 65.9364 210.097 65.7723 209.903 65.6357C209.709 65.4995 209.309 65.2623 209.014 65.1086C208.697 64.9441 208.373 64.6882 208.22 64.4816L207.962 64.1333L207.937 52.8344C207.924 46.6205 207.935 41.4442 207.961 41.3327C208.042 40.9877 208.524 40.5071 209.025 40.2699C209.288 40.1452 209.636 39.9396 209.798 39.8123C209.96 39.6849 210.265 39.5176 210.476 39.4405C210.688 39.3634 211.023 39.224 211.22 39.1305C211.418 39.037 211.798 38.8571 212.065 38.732C212.332 38.6062 212.788 38.4537 213.079 38.3924C213.37 38.3318 213.982 38.1595 214.438 38.0097C215.641 37.6145 217.461 37.4849 219.348 37.6609ZM283.768 37.8096C284.293 38.2148 284.367 38.4794 284.396 40.078C284.443 42.5945 284.227 42.7902 281.458 42.7476C278.81 42.7071 278.63 42.525 278.691 39.9495C278.727 38.4362 278.867 38.0447 279.486 37.7244C279.973 37.4718 283.419 37.5407 283.768 37.8096ZM305.742 37.9403C305.942 38.0923 306.258 38.4307 306.443 38.692L306.78 39.1666V52.1127V65.0589L306.546 65.3754C306.092 65.9905 304.725 66.681 302.829 67.2534L301.133 67.7651L299.192 67.764L297.251 67.7629L295.552 67.2507C294.617 66.9697 293.76 66.6859 293.646 66.6208C292.142 65.7565 291.977 65.6302 291.761 65.1803L291.564 64.7713L291.584 56.6614L291.605 48.552L291.822 48.1168C292.008 47.7423 292.12 47.6417 292.616 47.4017C292.933 47.2481 293.272 47.0474 293.369 46.9556C293.466 46.8638 293.863 46.6986 294.251 46.5893C294.639 46.4794 295.215 46.3116 295.53 46.2159C297.156 45.7239 299.449 45.55 301.025 45.7998C302.821 46.0847 302.798 46.1301 302.854 42.1779C302.904 38.6707 302.873 38.8309 303.636 38.0934L304.081 37.6631H304.729C305.312 37.6631 305.414 37.691 305.742 37.9403ZM240.652 45.4051C239.505 45.503 238.909 45.6413 237.849 46.0563C237.351 46.2514 236.869 46.4105 236.778 46.4105C236.685 46.4105 236.398 46.5598 236.139 46.7418C235.879 46.9244 235.505 47.1486 235.308 47.2399C234.419 47.6532 234.462 47.1355 234.493 56.9391C234.518 64.879 234.529 65.4328 234.676 65.6641C234.951 66.0976 236.442 66.9609 237.431 67.2583C237.771 67.3605 238.27 67.5273 238.54 67.629C239.501 67.9898 242.876 68.1467 244.672 67.9144C246.708 67.6509 249.53 66.3147 249.918 65.4307C250.178 64.8391 250.184 48.587 249.924 47.9965C249.774 47.6565 249.343 47.2306 249.148 47.2306C249.105 47.2306 248.797 47.0464 248.465 46.8206C248.132 46.5953 247.792 46.4105 247.709 46.4105C247.626 46.4105 247.142 46.2498 246.635 46.053C245.097 45.4565 242.869 45.2154 240.652 45.4051ZM257.326 45.5855C256.013 46.3028 255.696 47.6117 256.353 49.5897C256.497 50.0227 256.675 50.6842 256.75 51.0592C256.824 51.4343 257.081 52.4588 257.322 53.3357C257.563 54.2127 257.82 55.2137 257.896 55.5598C257.971 55.9064 258.133 56.417 258.257 56.6947C258.381 56.9741 258.543 57.6094 258.619 58.1156C258.695 58.6219 258.867 59.2949 259.003 59.6229C259.141 59.9537 259.33 60.701 259.433 61.3145C259.534 61.9191 259.712 62.6774 259.83 63C259.947 63.3225 260.125 63.9759 260.225 64.452C260.651 66.4754 261.294 67.688 262.059 67.9067C262.594 68.0609 266.436 68.0368 266.805 67.8777C267.473 67.5896 268.065 66.4229 268.396 64.7445C268.513 64.1535 268.691 63.4209 268.793 63.1164C268.895 62.8124 269.052 62.1159 269.141 61.5692C269.237 60.9766 269.411 60.3183 269.573 59.9395C269.721 59.5901 269.906 58.9144 269.985 58.4382C270.063 57.962 270.224 57.3174 270.343 57.0053C270.462 56.6931 270.663 55.955 270.791 55.3651C270.918 54.7752 271.173 53.8004 271.356 53.1991C271.54 52.5977 271.756 51.7453 271.835 51.3047C271.915 50.864 272.093 50.1867 272.232 49.7991C273.156 47.2104 272.206 45.2373 270.13 45.4319C269.236 45.5156 268.487 46.4012 268.216 47.6937C268.138 48.0654 267.9 48.9276 267.688 49.6093C267.475 50.2911 267.199 51.3517 267.073 51.9668C266.948 52.5818 266.772 53.2745 266.684 53.5063C266.595 53.7381 266.477 54.2356 266.421 54.6112C266.288 55.4991 266.082 56.3164 265.93 56.5592C265.8 56.7658 265.606 57.5656 265.452 58.5295C265.4 58.8553 265.275 59.2938 265.174 59.5037C265.072 59.7137 264.934 60.1647 264.866 60.5059C264.64 61.6359 264.701 61.5424 264.297 61.3784C263.934 61.2314 263.912 61.1909 263.717 60.3063C263.684 60.156 263.546 59.7662 263.41 59.4409C263.275 59.115 263.137 58.582 263.104 58.2561C263.026 57.4765 262.917 57.0348 262.661 56.4684C262.545 56.2114 262.367 55.5237 262.266 54.9392C262.165 54.3554 261.987 53.6167 261.87 53.298C261.754 52.9793 261.556 52.2008 261.43 51.5671C261.303 50.934 261.14 50.243 261.066 50.0309C260.992 49.8187 260.775 49.0326 260.583 48.2841C260.21 46.8233 259.54 45.6457 258.993 45.4877C258.549 45.3592 257.643 45.4122 257.326 45.5855ZM280.752 45.5806C280.378 45.7594 279.621 46.6008 279.473 47.0026C279.35 47.3345 279.351 66.0823 279.474 66.4147C280.188 68.3545 282.806 68.5535 283.684 66.7346C283.921 66.2447 283.926 47.1655 283.69 46.72C283.108 45.6238 281.759 45.1001 280.752 45.5806ZM243.752 45.7774C244.255 45.8305 244.964 45.9573 245.328 46.0595C245.692 46.1618 246.366 46.3466 246.827 46.4701C247.288 46.5931 247.806 46.7883 247.976 46.9042C248.147 47.0196 248.518 47.2273 248.801 47.3656C249.192 47.5564 249.377 47.7172 249.571 48.0337L249.827 48.4509V56.6833C249.827 65.9123 249.864 65.3847 249.19 65.7942C249.031 65.891 248.621 66.1414 248.278 66.3502C247.726 66.687 246.1 67.2507 244.549 67.6421C244.023 67.7755 241.864 67.8367 240.872 67.7465C238.956 67.5727 235.198 66.1288 234.8 65.4137C234.636 65.1201 234.652 48.4776 234.816 48.0758C234.977 47.6822 236.659 46.7495 237.74 46.4548C238.152 46.3427 238.807 46.1634 239.196 46.0568C240.488 45.702 242.094 45.6036 243.752 45.7774ZM258.893 45.8698C259.064 45.9311 259.273 46.1394 259.466 46.4395C259.954 47.1989 260.042 47.4219 260.28 48.517C260.404 49.0878 260.659 50.0462 260.846 50.6475C261.033 51.2489 261.249 52.1024 261.326 52.5435C261.403 52.9847 261.565 53.5697 261.686 53.8436C261.807 54.117 261.989 54.819 262.09 55.4029C262.195 56.0031 262.387 56.7303 262.534 57.0758C262.694 57.453 262.859 58.0992 262.965 58.7684C263.06 59.3638 263.218 60.0762 263.316 60.3517C263.415 60.6272 263.577 61.1455 263.676 61.5031C263.876 62.2204 263.942 62.3046 264.368 62.3882C264.681 62.4494 264.914 62.1181 264.915 61.6075C264.916 61.4932 265.055 60.9897 265.224 60.4884C265.394 59.9876 265.594 59.1916 265.669 58.7203C265.744 58.249 265.939 57.511 266.102 57.0802C266.264 56.6494 266.46 55.9064 266.539 55.4291C266.617 54.9513 266.779 54.2826 266.898 53.9426C267.017 53.6025 267.255 52.7371 267.427 52.0198C267.598 51.3025 267.835 50.4491 267.954 50.1238C268.072 49.798 268.233 49.1676 268.312 48.7231C268.835 45.7512 270.197 44.9251 271.916 46.5374C272.492 47.0764 272.571 47.7117 272.196 48.7805C272.064 49.1561 271.878 49.7914 271.782 50.1921C271.523 51.2817 271.401 51.7284 271.05 52.8803C270.874 53.4566 270.692 54.2099 270.645 54.5538C270.598 54.8982 270.425 55.5953 270.261 56.1032C270.097 56.6105 269.886 57.4569 269.79 57.9828C269.695 58.5087 269.516 59.1653 269.392 59.4409C269.262 59.7273 269.088 60.4096 268.985 61.0351C268.885 61.6365 268.705 62.3773 268.585 62.6812C268.465 62.9852 268.303 63.5893 268.224 64.0234C267.934 65.6226 267.132 67.4475 266.609 67.6968C266.231 67.8777 262.654 67.8471 262.243 67.6596C261.517 67.3277 261.073 66.4251 260.502 64.1191C260.313 63.3597 260.063 62.4986 259.945 62.2056C259.828 61.9126 259.667 61.2696 259.588 60.7765C259.509 60.2834 259.348 59.6273 259.231 59.3184C258.952 58.5809 258.945 58.5519 258.748 57.4235C258.655 56.8905 258.495 56.2585 258.393 56.0195C258.291 55.7806 258.126 55.1716 258.029 54.6653C257.93 54.1596 257.756 53.4385 257.642 53.0624C257.423 52.3473 257.189 51.4501 256.881 50.1468C256.78 49.7203 256.616 49.1873 256.516 48.962C256.175 48.1934 256.186 47.1513 256.54 46.7353C257.259 45.889 258.094 45.5823 258.893 45.8698ZM282.222 45.8665C282.404 45.9185 282.769 46.1733 283.06 46.4504L283.575 46.9419V56.5854C283.575 67.4229 283.639 66.4858 282.851 67.2288C281.823 68.1987 280.363 67.7307 279.72 66.2261C279.574 65.8839 279.503 49.1282 279.643 47.8418C279.805 46.3389 280.913 45.491 282.222 45.8665ZM241.225 49.9259C239.584 50.1615 239.152 50.3359 238.872 50.8755C238.602 51.3971 238.664 62.3073 238.938 62.6916C239.832 63.9392 244.996 63.9195 245.632 62.6659C245.808 62.3215 245.814 62.1498 245.837 56.7756C245.866 50.056 245.942 50.4261 244.472 50.1069C243.845 49.9707 241.733 49.8532 241.225 49.9259ZM297.869 49.962C295.5 50.2561 295.619 49.9018 295.619 56.6931V62.0624L295.861 62.5418C296.262 63.3335 297.66 63.7123 299.776 63.6041C301.74 63.5029 302.688 62.9934 302.809 61.9743C302.915 61.0734 302.821 51.1232 302.704 50.9127C302.271 50.1342 300.03 49.6935 297.869 49.962ZM244.024 50.2796C244.681 50.4234 245.361 50.7902 245.528 51.0904C245.726 51.4479 245.726 61.8601 245.528 62.2652C244.868 63.6139 239.964 63.6161 239.085 62.2685L238.879 61.953L238.905 56.6193C238.934 50.7766 238.899 51.1303 239.485 50.7241C240.295 50.1632 242.503 49.9467 244.024 50.2796ZM301.319 50.36C301.567 50.4431 301.953 50.6771 302.179 50.8826L302.589 51.2555V56.6335V62.0115L302.314 62.3691C301.347 63.6314 296.785 63.5888 296.081 62.3111L295.881 61.9465L295.904 56.616L295.927 51.2856L296.126 50.9974C296.666 50.2162 299.751 49.8379 301.319 50.36ZM192.918 51.5983C191.742 51.9679 191.515 52.59 191.51 55.4592C191.504 59.3047 191.678 59.4862 195.389 59.4857C198.215 59.4857 198.301 59.4671 198.825 58.7438C199.361 58.003 199.36 58.0118 199.36 55.4772C199.36 53.0668 199.335 52.8759 198.96 52.3888C198.551 51.8591 198.365 51.7109 197.985 51.6119C197.554 51.4999 193.269 51.4884 192.918 51.5983Z" fill="#FF7D62"/>
<path fill-rule="evenodd" clip-rule="evenodd" d="M42.7265 9.01393C42.4683 9.05953 42.093 9.16584 41.8924 9.25036C41.6915 9.33489 41.2224 9.438 40.8498 9.47983C40.4768 9.52136 40.0546 9.61373 39.9114 9.68489C39.7679 9.75635 39.3369 9.84552 38.9538 9.88299C38.5703 9.92075 38.0602 10.0207 37.8198 10.1052C37.5796 10.19 37.2721 10.2591 37.1367 10.2591C36.8467 10.2591 36.4269 10.8395 36.3101 11.4018C36.2688 11.6011 36.1748 11.8587 36.1017 11.9737C35.7162 12.5805 35.704 14.1286 36.081 14.6027C36.1384 14.675 36.532 15.4212 36.9559 16.2615C37.3798 17.1018 37.7982 17.8677 37.8853 17.9639C38.347 18.4731 38.1598 19.4307 37.5068 19.9004C36.7154 20.4691 36.2621 20.8865 36.2621 21.0462C36.2621 21.1305 35.1447 22.3304 33.7786 23.7124C32.4125 25.0947 30.7844 26.752 30.1604 27.3954C28.838 28.7594 28.7053 28.8068 27.9972 28.1686C27.7547 27.9502 27.3922 27.6623 27.1913 27.5293C26.9907 27.396 26.2401 26.7111 25.5233 26.0067C23.7758 24.2901 23.3836 24.1989 20.7793 24.9024C20.5498 24.9643 20.0988 25.0668 19.7768 25.1304C18.9415 25.2951 18.6166 25.7166 18.4754 26.8191C18.4367 27.1218 18.3429 27.4924 18.2669 27.6423C18.0288 28.1129 17.8264 29.661 17.9685 29.9256C18.096 30.1638 18.9712 30.5693 19.7888 30.7694C20.0467 30.8324 20.3056 30.9207 20.3635 30.9655C20.4217 31.0102 20.7033 31.1037 20.9892 31.1734C21.2751 31.2434 21.6387 31.3654 21.7971 31.4447C21.9558 31.524 22.2842 31.6295 22.527 31.6791C23.6849 31.9156 24.3566 32.1436 24.6853 32.4111L25.0429 32.7021L24.5526 33.2462C24.283 33.5453 23.8599 33.9444 23.6122 34.1329C23.0555 34.557 22.2059 36.2216 21.9145 37.459C21.874 37.6307 21.7834 37.8645 21.7127 37.9789C21.6422 38.0934 21.5517 38.3742 21.5115 38.6031C21.4713 38.832 21.3974 39.0687 21.3473 39.1291C21.2972 39.1896 21.188 39.494 21.1045 39.8053C20.8989 40.5733 20.6919 41.1275 20.4275 41.6198C20.3056 41.8467 20.2042 42.1035 20.2022 42.19C20.2004 42.2766 20.1082 42.5348 19.9972 42.7637C19.8866 42.9926 19.7943 43.2917 19.7923 43.4282C19.7905 43.565 19.6991 43.8695 19.5899 44.1044C19.3567 44.6052 18.9549 45.833 18.954 46.0473C18.9537 46.1292 18.8874 46.3224 18.8067 46.4769C18.7258 46.6311 18.5843 47.0163 18.4923 47.3326C18.2524 48.1555 17.4269 48.3989 16.3698 47.9583C16.1718 47.8758 15.7694 47.8063 15.4754 47.8037C15.1813 47.8014 14.753 47.7259 14.5236 47.6364C14.2942 47.5467 13.8251 47.4273 13.481 47.371C13.1368 47.3143 12.5737 47.1839 12.2299 47.0805C10.5371 46.5728 9.36991 46.612 8.45279 47.2074C8.06439 47.4595 7.62912 47.7393 7.48587 47.8284C6.74344 48.2917 6.68346 48.4157 6.5868 49.69C6.53759 50.3426 6.50644 50.9703 6.51779 51.0848C6.52915 51.1992 6.5868 52.0886 6.6459 53.0611C6.74023 54.6144 6.90648 55.7856 7.15571 56.6497C7.23781 56.9349 8.28741 56.9779 9.67533 56.7525C10.8216 56.5663 13.0175 56.4475 15.662 56.4284L18.3644 56.4089L18.6014 56.7055C18.7319 56.8687 18.9878 57.4729 19.1701 58.048C19.3526 58.6234 19.5375 59.1407 19.5812 59.1979C19.6246 59.2551 19.7099 59.5369 19.7704 59.8241C19.831 60.1114 19.9536 60.4858 20.0426 60.6563C20.1317 60.8268 20.2051 61.0365 20.2057 61.1222C20.2063 61.2079 20.3018 61.4339 20.4182 61.6244C20.5344 61.8147 20.7254 62.2826 20.8427 62.6646C20.9598 63.0462 21.1432 63.5926 21.25 63.8787C21.3572 64.1645 21.499 64.6092 21.5654 64.8668C21.6317 65.1242 21.7235 65.3815 21.7692 65.4387C21.8149 65.496 21.9002 65.7065 21.9584 65.907C22.0169 66.1071 22.233 66.6671 22.4385 67.151C22.9914 68.4531 22.9361 69.1314 22.2769 69.1314C22.1203 69.1314 21.8597 69.1819 21.6984 69.2441C21.5368 69.3059 20.8087 69.423 20.0796 69.5043C16.9899 69.8482 17.13 69.7091 17.13 72.4374C17.13 75.1102 17.0214 74.9443 19.5634 76.146C19.8694 76.2906 20.2578 76.525 20.4267 76.6668C21.2987 77.3987 22.7431 76.9688 24.8373 75.3536C25.9746 74.4767 26.1819 74.5246 27.7349 76.0225C28.2345 76.5044 28.8244 77.0237 29.0453 77.1768C29.2666 77.3296 30.1948 78.1827 31.1084 79.0724C32.0221 79.962 32.957 80.8096 33.1864 80.956C34.2121 81.6104 34.3859 82.0159 33.9539 82.7449C33.5754 83.3831 33.2053 83.9437 33.0184 84.1615C32.9203 84.2757 32.644 84.7439 32.4043 85.2017C32.165 85.6591 31.8881 86.1273 31.7889 86.2418C31.6261 86.43 31.3914 86.7733 31.1023 87.2468C31.0444 87.3418 30.849 87.6296 30.6685 87.8864C29.9383 88.9251 29.9508 89.2045 30.7818 90.4044C31.0982 90.8607 31.4237 91.3809 31.5053 91.5598C31.5868 91.7388 31.7021 91.9151 31.7615 91.952C31.8212 91.9885 32.08 92.3336 32.3368 92.7185C33.0926 93.8521 33.1104 93.8626 34.5446 93.9939C35.2311 94.0569 35.9884 94.1516 36.2275 94.2042C36.4665 94.2568 37.5222 94.3302 38.5736 94.3674C40.9403 94.4511 40.7214 94.5954 41.1168 92.6906C41.1997 92.29 41.3203 91.8337 41.3843 91.6763C41.4484 91.5189 41.5616 91.0974 41.6362 90.7402C41.8079 89.9147 42.0688 88.8719 42.2537 88.2701C42.3329 88.0124 42.4258 87.6311 42.4604 87.4225C42.4951 87.2137 42.6194 86.9212 42.7367 86.7722L42.9501 86.5018H44.7556C45.8733 86.5018 46.8731 86.5587 47.3806 86.6511C47.8313 86.733 48.9461 86.8538 49.8577 86.9194C50.7696 86.9851 51.618 87.0777 51.7432 87.1251C51.8684 87.1727 52.4128 87.2421 52.9526 87.2796C53.4927 87.3174 54.2919 87.3929 54.7287 87.4481C55.6318 87.5616 56.7682 87.4309 57.5316 87.1254C58.493 86.7408 59.0642 86.584 59.8253 86.4959C60.812 86.3818 60.8661 86.4384 60.8728 87.5878C60.8781 88.5239 61.2109 90.9481 61.3512 91.0707C61.4007 91.1143 61.723 91.2543 62.0668 91.3815C62.411 91.509 62.94 91.7268 63.2422 91.8657C63.5444 92.0048 63.8513 92.1184 63.9241 92.1184C63.9966 92.1184 64.2388 92.2113 64.4621 92.3252C65.5653 92.8861 66.709 92.8286 67.0513 92.1945C67.1544 92.0037 67.3769 91.6862 67.5457 91.489C67.7149 91.2917 67.8532 91.0899 67.8532 91.0402C67.8535 90.9908 68.0116 90.7332 68.2049 90.4683C68.989 89.3927 68.9974 89.2388 68.3228 88.3221C68.1964 88.1504 67.7987 87.4248 67.4392 86.7097C67.0793 85.9946 66.7206 85.3173 66.6417 85.2043C66.285 84.6945 66.4798 84.086 67.0752 83.8487C67.3026 83.7581 67.5824 83.6445 67.6971 83.596C67.8118 83.5478 68.6798 83.2599 69.626 82.9561C70.5722 82.6526 71.4166 82.3708 71.5028 82.3296C73.2718 81.4852 74.3686 81.5544 74.9689 82.5474C75.1995 82.9285 75.4939 83.2501 77.7188 85.5493C78.4572 86.3127 79.2104 87.155 79.3921 87.4214C79.5738 87.688 80.1837 88.3863 80.7474 88.973C81.9685 90.2443 82.1633 90.3045 82.8955 89.6355C83.138 89.4139 83.5946 89.0625 83.9099 88.8545C84.2252 88.6465 84.7647 88.2442 85.1088 87.9604C85.453 87.6767 85.7834 87.4431 85.8434 87.4414C86.1779 87.4306 87.9548 85.5005 87.9086 85.1979C87.4567 82.2355 87.3795 81.9967 86.7556 81.6374C86.4842 81.4809 85.9363 81.0388 85.538 80.6545C85.1394 80.2705 84.5589 79.7791 84.2479 79.5624C83.9367 79.346 83.2871 78.8069 82.8047 78.3645C82.3219 77.9221 81.7985 77.4804 81.6412 77.3828C80.2708 76.5314 80.1526 75.9877 81.1023 74.904C81.2025 74.7898 81.5058 74.2748 81.7763 73.7598C82.0468 73.2451 82.3179 72.792 82.379 72.7534C82.4923 72.6817 82.5755 72.5341 83.221 71.2636C83.6828 70.3551 83.9524 69.8927 84.1515 69.669C84.2365 69.5734 84.4834 69.1677 84.7001 68.7671C85.0526 68.115 85.2524 67.7935 85.9089 66.8213C86.0137 66.6662 86.0993 66.4914 86.0993 66.4327C86.0993 66.2817 87.0133 64.6493 87.238 64.3986C87.4351 64.179 87.6084 63.8729 87.9813 63.0843C88.1071 62.8191 88.3167 62.4778 88.4478 62.3259C88.7415 61.9846 88.8531 61.0691 88.8094 59.3539C88.7928 58.696 88.7741 57.5728 88.7686 56.8577L88.7581 55.5576L90.2686 55.5979C91.0996 55.62 91.9206 55.681 92.0933 55.733C92.2659 55.7853 92.9233 55.9224 93.554 56.0377C94.1849 56.153 94.9355 56.2936 95.2223 56.3497C96.9983 56.6979 97.2694 56.5968 97.4138 55.5308C97.4507 55.2596 97.5221 54.8971 97.573 54.7254C97.6534 54.4524 97.9937 52.7689 98.4028 50.6168C98.6057 49.5503 98.4607 49.1852 97.4283 48.1598L96.5776 47.3155L95.9001 47.2577C95.5271 47.226 93.6975 47.2347 91.8339 47.2768C88.0498 47.3628 88.1849 47.3869 88.184 46.6253C88.1837 46.3323 88.1368 45.8112 88.0798 45.4681C88.0227 45.1248 87.9467 44.3057 87.9103 43.6478C87.8652 42.8255 87.7673 42.2118 87.5976 41.6843C87.4616 41.2623 87.3504 40.8507 87.3504 40.7699C87.3504 40.6892 87.2631 40.496 87.1559 40.3412C87.0491 40.1861 86.7847 39.7783 86.569 39.4353C86.3529 39.092 86.1238 38.7338 86.0594 38.6394C85.0294 37.1212 84.5056 36.3088 84.2258 35.7947C84.0391 35.4513 83.8019 35.0769 83.6985 34.9625C83.5954 34.848 83.3876 34.5213 83.2365 34.2363C83.0856 33.9511 82.878 33.6235 82.7753 33.5082C82.6722 33.3928 82.478 33.1111 82.3435 32.8822C82.209 32.6533 81.9941 32.3385 81.866 32.1825C81.7382 32.0265 81.5105 31.6518 81.3603 31.3503C81.0665 30.7601 80.9247 30.5295 80.3747 29.747C79.9758 29.1794 79.8192 28.3839 80.067 28.1829C80.145 28.1198 80.5325 27.8973 80.9282 27.6888C81.3242 27.4805 81.8223 27.1721 82.0352 27.0039C82.248 26.8357 82.6279 26.6039 82.8795 26.4889C83.3619 26.2684 83.559 26.1537 84.0662 25.7993C84.2383 25.6788 84.7309 25.3831 85.161 25.1414C87.2264 23.9816 87.4756 23.4844 86.7271 22.0161C86.6243 21.8139 86.3943 21.2141 86.2161 20.6829C85.6262 18.9236 85.5636 18.8562 84.0735 18.3769C83.4962 18.1913 82.9063 17.9781 82.763 17.9032C82.6195 17.8285 82.3257 17.7344 82.1103 17.694C81.8945 17.6537 81.5446 17.5323 81.3323 17.4245C81.1201 17.3164 80.8225 17.2281 80.6711 17.2281C80.52 17.2281 80.26 17.1808 80.0938 17.123C79.4637 16.9043 78.9236 17.1901 78.5163 17.9578C78.3195 18.3287 78.0845 18.7144 77.9937 18.8149C77.7986 19.0316 77.5998 19.3654 77.4519 19.7244C77.3928 19.8676 77.2795 20.1014 77.1997 20.2446C76.9581 20.6774 76.1038 22.3591 75.9845 22.6368C75.2828 24.268 74.8702 24.5065 73.8692 23.8602C73.5711 23.6676 72.6848 23.1936 71.8993 22.8067C71.1141 22.4198 70.2994 21.9667 70.0889 21.8C69.8787 21.633 69.4656 21.378 69.1709 21.2327C68.8766 21.0875 68.565 20.9295 68.4792 20.8813C68.393 20.833 68.0418 20.6585 67.6983 20.4932C67.355 20.3279 66.8155 20.0302 66.4993 19.8318C65.6265 19.2837 65.5781 19.2564 64.5349 18.7313C63.2009 18.0597 63.1132 17.8152 63.8222 16.746C64.5859 15.5949 64.5885 15.2292 63.8432 13.7728C63.4355 12.9767 63.1351 12.8585 61.4452 12.8294C59.7927 12.801 59.6532 12.9523 59.466 14.9779C59.3239 16.5165 58.7273 16.9159 56.5731 16.9162C56.2689 16.9162 55.6679 16.9815 55.2379 17.0617C54.8079 17.1419 53.7053 17.2392 52.7876 17.2778C51.8701 17.3164 50.8144 17.4175 50.4417 17.5021C49.4754 17.7216 46.4332 17.7463 46.223 17.5363C46.0774 17.3914 45.972 17.0097 45.5423 15.0758C45.4383 14.607 45.3058 14.0688 45.2482 13.8797C45.1905 13.6903 45.116 13.3087 45.0822 13.031C45.0488 12.7536 44.9521 12.3089 44.8677 12.0428C44.7125 11.554 44.4711 10.5966 44.2871 9.73921C44.1209 8.96455 43.8149 8.82252 42.7265 9.01393ZM43.3714 11.7152C43.4107 12.4303 43.4934 13.3432 43.5554 13.7435C43.7068 14.72 43.8134 20.0465 43.6856 20.2292C43.5097 20.4804 43.1836 20.1952 40.2279 17.2046C36.4516 13.3839 36.4944 13.5576 39.0088 12.2743C39.8779 11.8308 41.0582 11.2232 41.6315 10.9237C42.3009 10.5746 42.7862 10.3858 42.9871 10.3974L43.2998 10.4151L43.3714 11.7152ZM38.5887 11.2345C38.6516 11.398 38.4751 11.6112 38.2769 11.6112C38.2038 11.6112 37.9936 11.7024 37.8099 11.814C37.4436 12.0362 37.3047 12.0109 37.3047 11.7219C37.3047 11.4779 37.5327 11.2932 37.9572 11.1927C38.4609 11.0733 38.5284 11.0779 38.5887 11.2345ZM63.0844 14.097C63.6495 14.7668 63.4766 15.928 62.6509 17.0091C62.3265 17.4335 61.1017 17.3327 60.529 16.8346C60.1968 16.5456 60.3196 14.1127 60.678 13.8861C61.0778 13.6331 62.8224 13.7859 63.0844 14.097ZM45.0284 17.6455C45.0863 18.0048 45.2022 18.3958 45.2855 18.5146C45.369 18.6334 45.4369 18.8489 45.4369 18.9936C45.4366 19.1382 45.5169 19.6454 45.6156 20.1205C45.8098 21.0541 45.7577 21.2167 45.2846 21.1552C45.0214 21.1209 44.9431 20.7758 44.8074 19.0485C44.6612 17.1915 44.8065 16.2708 45.0284 17.6455ZM39.8307 18.2941C40.1653 18.6517 41.0946 19.6076 41.8962 20.4183C43.2174 21.7544 43.3385 21.9075 43.1909 22.0547C42.9568 22.2883 41.9422 22.949 41.8176 22.949C41.6874 22.949 41.1625 22.2075 41.1625 22.0236C41.1625 21.9499 41.0687 21.7707 40.954 21.6251C40.8393 21.4796 40.7455 21.2806 40.7455 21.1828C40.7455 21.0849 40.6515 20.9202 40.5368 20.8165C40.4221 20.7131 40.3283 20.5484 40.3283 20.4505C40.3283 20.3526 40.2375 20.1571 40.1263 20.0163C40.015 19.8754 39.8936 19.6384 39.8564 19.49C39.8188 19.3412 39.6986 19.1388 39.5891 19.04C39.4796 18.941 39.3899 18.756 39.3899 18.629C39.3899 18.5018 39.3198 18.3394 39.2336 18.2683C39.0778 18.1393 39.0114 17.6441 39.15 17.6441C39.1899 17.6441 39.4965 17.9366 39.8307 18.2941ZM62.3402 18.6822C62.8206 18.9302 63.2384 19.1699 63.2681 19.2146C63.4195 19.4406 66.083 20.8685 66.3532 20.8685C66.3925 20.8685 66.6204 21.0288 66.8601 21.2249C67.0997 21.4206 67.8983 21.8912 68.6349 22.2705C69.3715 22.6499 70.1038 23.069 70.2619 23.2018C70.42 23.3345 71.2349 23.7815 72.0723 24.1951C73.7781 25.0378 73.9007 25.1287 73.9007 25.5507C73.9007 25.9466 73.8023 25.9922 72.7576 26.0793C72.2682 26.1203 71.4687 26.2063 70.9813 26.2702C70.3751 26.35 67.5271 26.3776 61.9626 26.3582L53.8302 26.3294L53.7979 25.9957C53.7719 25.7288 53.8471 25.5734 54.1746 25.2158C54.3994 24.9701 54.6503 24.6392 54.7324 24.4806C54.8143 24.3218 55.4894 23.5541 56.2325 22.7745C56.9758 21.9949 57.708 21.1418 57.8597 20.8786C58.0117 20.6158 58.5401 20.0026 59.0339 19.5164C59.528 19.0302 59.9572 18.5535 59.9877 18.4571C60.1339 17.9984 61.2173 18.1024 62.3402 18.6822ZM80.4938 18.7693C80.6507 18.8727 81.0738 19.2407 81.4336 19.5876C81.7935 19.9344 82.3135 20.3605 82.5889 20.5347C82.8644 20.709 83.5794 21.3239 84.1775 21.9011C85.7738 23.4408 85.7302 23.6955 83.7736 24.248C83.4979 24.3258 83.2164 24.4345 83.1479 24.4894C83.0795 24.5443 82.8125 24.6381 82.5546 24.6976C82.2963 24.7572 81.6008 24.9733 81.0089 25.1778C80.4169 25.3819 79.7685 25.5493 79.5685 25.5493C79.3682 25.5493 79.1184 25.5951 79.0136 25.6512C78.4231 25.9664 78.5891 22.9581 79.3435 19.6724C79.6253 18.4443 79.7962 18.3104 80.4938 18.7693ZM51.0636 19.1481C51.2028 19.3151 51.1364 19.3404 50.2333 19.4632C49.9753 19.4981 49.6702 19.5876 49.5555 19.6613C49.4408 19.7354 49.1426 19.8281 48.8928 19.8673C48.6433 19.9065 48.3149 20.0017 48.1632 20.0793C47.2394 20.5507 46.5898 20.2562 46.9008 19.5068C47.0816 19.0717 50.7381 18.7565 51.0636 19.1481ZM57.7086 19.1687C57.745 19.2634 57.7086 19.4458 57.6271 19.5739C57.0072 20.5501 56.5891 21.0808 55.7358 21.9748C55.1968 22.5392 54.6434 23.1649 54.5056 23.365C54.1892 23.8254 53.4266 24.7487 52.9162 25.2893C52.7005 25.5182 52.2085 26.1032 51.8236 26.5894C51.4384 27.0756 50.8409 27.7605 50.4956 28.1114C50.1506 28.462 49.6685 29.0237 49.4242 29.3595C49.1796 29.6953 48.6238 30.3445 48.1885 30.8019C47.7533 31.2597 47.196 31.9382 46.95 32.3103C46.7042 32.6821 46.2148 33.2671 45.8625 33.6104L45.2223 34.2346L44.3372 34.2712C43.8504 34.2915 43.3356 34.2787 43.1935 34.2433L42.935 34.1785V32.6911C42.935 31.7029 42.9854 31.0317 43.0852 30.691C43.1676 30.4087 43.2885 29.7821 43.3537 29.2982C43.4189 28.8143 43.5086 28.3461 43.5531 28.2581C43.5977 28.1698 43.6926 27.7231 43.7639 27.2656C43.8352 26.8078 43.9401 26.2803 43.9965 26.0936C44.053 25.9068 44.1634 25.3683 44.242 24.8975C44.612 22.6795 44.8461 22.3193 46.1752 21.9246C46.6009 21.7982 47.1602 21.6219 47.4181 21.5333C47.6761 21.4445 48.1454 21.3068 48.4608 21.2278C48.7761 21.1485 49.1281 21.0387 49.2428 20.9838C49.3575 20.9292 50.2254 20.644 51.1717 20.3506C52.1179 20.0569 53.0327 19.7682 53.2048 19.7087C53.3768 19.6491 53.7871 19.5408 54.1167 19.4673C54.4462 19.3941 54.7747 19.2861 54.8466 19.2274C55.1837 18.9509 57.6058 18.9015 57.7086 19.1687ZM83.3884 19.2596C83.4746 19.3314 83.7561 19.4234 84.0141 19.465C84.5772 19.555 84.6983 19.6433 84.9601 20.1554C85.1554 20.5374 85.2401 21.233 85.0826 21.1633C84.8733 21.0704 83.0757 19.6947 83.0757 19.6273C83.0757 19.5846 82.9537 19.4943 82.8044 19.4266C82.5907 19.3293 82.5583 19.273 82.6518 19.1606C82.782 19.0043 83.1392 19.0522 83.3884 19.2596ZM39.4557 20.8269C39.5987 20.8653 39.8037 21.1345 40.029 21.5795C40.222 21.9609 40.4503 22.3597 40.5365 22.4657C40.6393 22.5921 40.6934 22.8866 40.6934 23.3194C40.6934 24.0371 40.6605 24.0853 39.9178 24.4644C39.7137 24.5687 39.4292 24.7566 39.2857 24.8821C39.1425 25.0073 38.6565 25.3029 38.2061 25.5388C37.756 25.7744 37.2631 26.0639 37.1114 26.1819C36.8022 26.4227 35.9628 26.9745 35.5374 27.2171C35.3837 27.3048 35.1371 27.4686 34.9901 27.581C34.6683 27.827 34.459 27.9723 33.8988 28.3394C33.665 28.4925 33.2216 28.7841 32.913 28.9877C32.6047 29.1913 32.1213 29.4684 31.8389 29.6038C31.5568 29.7391 31.2508 29.9247 31.1591 30.0159C30.4676 30.7058 29.0599 31.0058 28.9848 30.4792C28.9079 29.9422 29.6608 28.9267 30.4848 28.4565C30.7788 28.2886 31.1501 27.9633 31.3096 27.7335C31.4692 27.5038 31.8244 27.1549 32.0986 26.9583C32.3732 26.7616 32.7945 26.3408 33.035 26.023C33.2755 25.7052 33.5049 25.4453 33.5451 25.4453C33.7212 25.4453 34.5318 24.6442 34.8986 24.1077C35.2987 23.5224 37.7854 20.9423 38.0509 20.8368C38.2425 20.7604 39.1832 20.754 39.4557 20.8269ZM77.9209 22.0242C77.8271 22.3394 77.7584 22.9601 77.7584 23.4913C77.7584 24.0261 77.6996 24.5521 77.6184 24.7464C77.5412 24.9306 77.4463 25.2521 77.407 25.461C77.368 25.6695 77.2754 25.8905 77.2015 25.9515C77.0343 26.0901 75.5914 26.1897 75.516 26.068C75.2592 25.6535 77.0611 21.8688 77.628 21.6315C77.8143 21.5537 77.9707 21.432 77.9751 21.3614C77.9812 21.2667 77.9966 21.2653 78.0336 21.3553C78.0609 21.4227 78.0106 21.7239 77.9209 22.0242ZM43.2465 23.9357C43.4087 24.1306 43.3528 26.2844 43.1799 26.4967C43.1152 26.5763 43.0087 27.0495 42.9431 27.5482C42.8773 28.0469 42.7609 28.6331 42.6837 28.8506C42.6069 29.0685 42.5114 29.5498 42.4718 29.9201C42.4319 30.2907 42.3355 30.8046 42.2572 31.0619C42.1792 31.3195 42.0851 31.7875 42.0487 32.102C42.0123 32.4169 41.9192 32.8848 41.8417 33.1425C41.7643 33.3998 41.6705 33.7977 41.633 34.0263C41.4993 34.8437 41.1741 35.144 39.5617 35.9396C37.9688 36.7256 37.7551 36.8798 37.3382 37.5438C37.188 37.7831 37.0136 38.0135 36.9504 38.0553C36.6965 38.2244 34.9615 38.1384 34.3583 37.9269C34.0322 37.8125 33.6583 37.7187 33.5279 37.7184C33.3975 37.7181 33.164 37.6516 33.0091 37.5711C32.8542 37.4904 32.3912 37.3724 31.9804 37.3088C31.5696 37.2452 31.1509 37.1494 31.0502 37.0953C30.9495 37.0416 30.6382 36.9495 30.3584 36.8909C29.8306 36.7802 29.1484 36.5926 28.0775 36.2637C27.7334 36.1583 27.2055 36.0166 26.9042 35.9489C26.6032 35.8812 26.3306 35.7836 26.2986 35.7322C26.2669 35.6808 26.1085 35.6387 25.9469 35.6387C25.2228 35.6387 25.2647 34.6831 26.0112 34.1806C26.2645 34.0101 26.4981 33.8704 26.5298 33.8704C26.5618 33.8704 26.7342 33.7475 26.9132 33.5973C27.092 33.4472 27.5814 33.1619 28.0007 32.9632C28.4199 32.7649 28.8902 32.5014 29.0459 32.3783C29.5147 32.0071 29.993 31.6861 30.0804 31.6846C30.1258 31.6838 30.435 31.4308 30.7678 31.1229C31.1006 30.8147 31.5227 30.5065 31.7062 30.438C32.2372 30.2396 32.8376 29.9035 33.3302 29.5286C33.5815 29.3374 33.9457 29.1149 34.1399 29.0342C34.3338 28.9534 35.1607 28.4475 35.9768 27.9104C36.7932 27.3731 37.717 26.8037 38.0297 26.6454C38.3424 26.4871 38.7762 26.2222 38.994 26.0573C39.2118 25.8923 39.5745 25.6172 39.7999 25.4461C40.0252 25.2751 40.4183 25.0244 40.6733 24.889C40.9284 24.754 41.2973 24.5213 41.4932 24.372C42.2129 23.8245 42.9926 23.6305 43.2465 23.9357ZM25.0018 26.804C25.7186 27.4913 26.4928 28.1776 26.7222 28.3292C27.4184 28.7893 28.0254 29.4193 28.0254 29.6816C28.0254 29.9457 26.5036 31.5757 26.2436 31.5902C25.6205 31.6251 24.7063 31.5432 24.4862 31.4331C24.3397 31.3596 24.0556 31.269 23.855 31.2312C23.6544 31.1935 23.2555 31.0753 22.9687 30.9687C22.1788 30.675 21.7779 30.5385 21.092 30.3308C20.0557 30.0168 19.2461 29.7176 19.0961 29.5936C18.9057 29.4359 18.9106 28.2802 19.1051 27.5322C19.1881 27.2139 19.2798 26.8366 19.3092 26.6934C19.4568 25.9751 20.6081 25.5655 22.4997 25.5585L23.6986 25.5545L25.0018 26.804ZM80.8135 26.6414C80.8018 26.6986 80.6434 26.7759 80.4609 26.813C80.2786 26.8502 80.0961 26.9345 80.0556 26.9998C80.0149 27.0655 79.8215 27.2066 79.6259 27.3132C78.523 27.9148 78.4496 27.9435 78.3634 27.8116C78.1192 27.4378 78.3955 27.1883 79.5831 26.7108C80.1165 26.4962 80.8505 26.4549 80.8135 26.6414ZM75.6022 27.8346C75.8179 28.0365 75.5215 28.6734 74.8219 29.5117C74.4204 29.9924 74.0189 30.5263 73.9298 30.6979C73.8407 30.8696 73.5123 31.2728 73.1999 31.594C72.8878 31.9153 72.5541 32.2981 72.4586 32.4445C72.3628 32.5909 71.9185 33.1471 71.471 33.6807C71.0235 34.214 70.5696 34.756 70.4622 34.8846C69.9888 35.4528 69.3683 35.2817 66.1788 33.7019C64.6054 32.9226 63.154 32.1622 62.9531 32.0117C62.5632 31.7198 61.6554 31.2699 61.4572 31.2704C61.3911 31.2704 60.352 30.7854 59.1478 30.1923C57.9436 29.5991 56.6849 28.9854 56.3512 28.8285C55.739 28.5407 55.4659 28.2081 55.5855 27.8968C55.6793 27.6531 75.3428 27.5918 75.6022 27.8346ZM54.1953 28.7661C54.74 29.0548 55.3031 29.3409 55.4463 29.4016C55.5896 29.462 57.0675 30.1838 58.7305 31.0053C60.3936 31.8267 62.0945 32.6278 62.5103 32.7852C63.9244 33.3208 66.6443 34.7455 66.7774 35.0209C67.0205 35.5234 66.9937 35.8815 66.7066 35.962C65.9199 36.1821 64.8721 36.3785 63.9957 36.4694C63.451 36.526 62.841 36.6155 62.6404 36.6681C62.4398 36.7206 61.7373 36.82 61.0793 36.8888C60.4212 36.9574 59.7708 37.0564 59.6334 37.1084C59.4963 37.1604 58.824 37.2484 58.1392 37.3045C57.4544 37.3602 56.8022 37.4549 56.6899 37.5151C56.5775 37.5749 55.9381 37.6716 55.269 37.7294C54.6 37.7875 53.7679 37.8982 53.4199 37.9757C53.0723 38.053 52.4123 38.1474 51.9537 38.1854C51.4948 38.2235 50.8546 38.3211 50.5308 38.4027C50.1183 38.5067 49.3167 38.5511 47.8476 38.5511H45.7525L45.4666 38.109C44.9017 37.2356 45.1012 35.0145 45.7443 35.0145C45.797 35.0145 46.207 34.5823 46.6553 34.0542C47.1034 33.5259 47.5462 33.0173 47.6388 32.9237C47.7317 32.8302 48.0133 32.4785 48.2645 32.1418C48.5158 31.8055 48.9685 31.2806 49.2704 30.9756C49.5727 30.6704 49.895 30.2727 49.987 30.0915C50.0793 29.9102 50.3832 29.5393 50.663 29.2674C50.9428 28.9956 51.1717 28.7257 51.1717 28.6679C51.1717 27.9705 52.7937 28.0231 54.1953 28.7661ZM77.0894 29.9439C77.2798 30.5187 77.5153 47.6338 77.3357 47.8432C77.2443 47.9498 76.7208 47.6861 76.5074 47.4261C75.9612 46.7607 75.6732 46.3601 75.6732 46.266C75.6732 46.1519 74.7013 44.2261 74.5424 44.0254C74.4911 43.9607 74.3892 43.7204 74.3162 43.4919C74.2431 43.263 74.1549 43.0524 74.1202 43.0236C74.0856 42.9952 73.7088 42.2696 73.2831 41.4116C71.6748 38.1683 71.4722 37.7678 71.3816 37.653C70.9397 37.0919 71.3252 35.0877 72.0056 34.4089C72.2187 34.1963 72.5215 33.8036 72.6784 33.5366C72.8354 33.2694 73.3437 32.6417 73.8084 32.1415C74.2728 31.6414 74.7768 31.0416 74.9285 30.8089C75.0798 30.5762 75.2417 30.3694 75.2877 30.3494C75.3337 30.3294 75.5384 30.133 75.7422 29.9131C76.0849 29.5437 76.2712 29.4496 76.7339 29.4121C76.857 29.4019 76.9621 29.5593 77.0894 29.9439ZM79.565 30.5214C79.6695 30.6157 79.8731 30.9408 80.0166 31.2437C80.1604 31.5467 80.3811 31.9222 80.5069 32.0785C80.9198 32.5903 82.1068 34.437 82.1874 34.6926C82.2305 34.8303 82.4599 35.2114 82.6969 35.5393C82.9339 35.8673 83.3156 36.4462 83.5448 36.8255C83.9771 37.54 84.1227 37.7541 84.4945 38.2223C84.6156 38.3745 84.9205 38.8889 85.1723 39.3656C85.4242 39.8419 85.7235 40.3319 85.8379 40.4542C86.2668 40.9134 86.201 42.0965 85.7194 42.5865C85.2073 43.1073 84.8483 43.5996 84.8483 43.7809C84.8483 43.8587 84.7426 44.0176 84.6136 44.1343C84.4846 44.2508 84.3073 44.435 84.2197 44.5436C84.1317 44.652 83.941 44.8341 83.7957 44.9485C83.6505 45.0627 83.396 45.39 83.23 45.6761C83.0641 45.9622 82.4838 46.639 81.9402 47.1804L80.9524 48.1651L80.2964 48.2066C79.0741 48.2842 79.13 48.3498 78.8505 46.5083C78.6901 45.4516 78.6083 30.5609 78.7615 30.3137C78.8436 30.1809 79.3248 30.3055 79.565 30.5214ZM43.3854 35.2155C43.5773 35.2884 43.7115 35.5016 43.9255 36.0735C44.0821 36.4923 44.322 37.0695 44.4589 37.3565C44.5954 37.6431 44.7072 37.9487 44.7072 38.0353C44.7072 38.1218 44.7771 38.292 44.8621 38.4134C45.1012 38.7536 45.1169 40.5498 44.8831 40.783C44.7864 40.8795 44.7072 41.0151 44.7072 41.0848C44.7072 41.1545 44.6167 41.3892 44.5055 41.6062C44.3945 41.8235 44.2525 42.2397 44.1899 42.5313C44.1273 42.8229 44.023 43.125 43.9584 43.2028C43.8938 43.2804 43.8364 43.5488 43.8312 43.7992C43.8137 44.5944 44.0981 44.5503 44.2283 43.7376C44.2638 43.5165 44.3378 43.3359 44.3928 43.3359C44.5282 43.3359 44.962 42.4018 45.2325 41.528C45.6602 40.1466 46.1543 39.8483 48.6171 39.4832C49.3054 39.3815 49.9622 39.2691 50.0769 39.2337C50.1917 39.1983 50.8249 39.103 51.4844 39.0223C52.1438 38.9412 53.1058 38.8059 53.6217 38.7213C55.06 38.4864 56.1274 38.344 57.271 38.2348C57.8443 38.1799 58.6184 38.0669 58.9911 37.9839C59.3641 37.9008 60.2035 37.7817 60.8571 37.7195C61.5104 37.6571 62.1204 37.5668 62.2124 37.5185C62.3044 37.4703 62.9193 37.3788 63.5788 37.3149C64.2382 37.2513 65.1297 37.1255 65.5598 37.0352C66.3625 36.8667 69.3622 36.7895 69.7937 36.926C69.9131 36.9638 70.1894 37.2629 70.4074 37.5909C70.6255 37.9188 70.8841 38.3048 70.9822 38.4492C71.0803 38.5932 71.1968 38.825 71.2413 38.9644C71.2856 39.1039 71.5945 39.7164 71.9278 40.3255C72.2609 40.9349 72.5643 41.5551 72.6019 41.7041C72.6394 41.8531 72.7358 42.0294 72.8161 42.0959C72.8965 42.1627 72.9626 42.2699 72.9629 42.3344C72.9632 42.3988 73.1277 42.7558 73.3286 43.1276C73.5295 43.4997 73.8363 44.1079 74.0104 44.48C74.3228 45.1469 74.7768 46.0508 75.3771 47.2005C75.7664 47.9464 75.7769 48.9223 75.3975 49.1099C75.2746 49.1709 75.1104 49.2717 75.0327 49.3339C74.9549 49.396 74.6175 49.48 74.283 49.5204C73.8928 49.5674 73.6014 49.667 73.4695 49.7986C73.3027 49.9651 73.1801 49.9912 72.8188 49.9372C71.8929 49.7986 71.4981 50.1358 71.2893 51.2434C71.2198 51.6137 71.1007 52.1275 71.0253 52.3849C70.9499 52.6425 70.8584 53.0872 70.8223 53.373C70.5682 55.3787 69.9969 56.0415 67.9577 56.6965C67.3378 56.8954 66.2344 57.4264 65.9686 57.6532C65.878 57.7305 65.7554 57.7938 65.6963 57.7938C65.6 57.7938 64.5 58.285 64.0999 58.5066C63.5788 58.7953 62.9761 59.0425 62.7935 59.0422C62.6151 59.0419 61.5859 59.5247 60.2946 60.2139C59.8564 60.4478 58.9271 60.8103 58.7652 60.8103C58.6909 60.8103 58.058 61.0911 57.3586 61.4342C56.6593 61.7775 56.0295 62.0584 55.9591 62.0584C55.8312 62.0584 55.3054 62.2936 53.9344 62.9643C52.5415 63.6457 51.4107 63.5354 51.243 62.7011C51.103 62.0043 50.6348 61.5939 49.7526 61.3941C48.3245 61.0708 47.8831 60.7844 47.5768 59.9819C47.4339 59.608 47.1474 58.8572 46.9398 58.3138C46.7322 57.7703 46.4926 57.115 46.4073 56.8577C46.322 56.6 46.2081 56.2959 46.154 56.1815C46.1001 56.067 45.9898 55.7162 45.9091 55.4013C45.8285 55.0867 45.6206 54.3379 45.447 53.7373C45.2738 53.1366 45.13 52.5045 45.1274 52.3329C45.125 52.1612 45.0531 51.887 44.9675 51.7235C44.8822 51.56 44.7442 51.1856 44.6612 50.8913C44.4001 49.9665 44.1805 49.3275 44.0134 49.0045C43.8542 48.6975 43.786 47.8862 43.7386 45.7365C43.7162 44.7243 43.5042 44.2569 43.4369 45.0717C43.4014 45.5021 43.0812 45.6665 42.7737 45.4121C42.6197 45.2846 41.1625 42.7712 41.1625 42.6327C41.1619 42.4314 39.3894 39.0644 39.0566 38.633C38.1514 37.4599 38.4192 36.9928 40.4326 36.2341C40.9773 36.0288 41.6813 35.7339 41.9966 35.5791C42.3119 35.4243 42.6872 35.2614 42.8308 35.2169C42.974 35.1728 43.1001 35.1324 43.1106 35.1275C43.1213 35.1225 43.2448 35.1623 43.3854 35.2155ZM27.1392 36.8229C27.7127 36.9815 28.5102 37.1831 28.9117 37.2705C29.3132 37.3579 29.7004 37.477 29.772 37.5351C29.844 37.5932 30.1724 37.7021 30.502 37.777C31.937 38.1038 33.1348 38.4251 34.1769 38.7635C34.4922 38.8657 35.0297 39.01 35.3712 39.0838C36.2883 39.2819 36.3678 39.4001 36.3591 40.5533C36.3494 41.8139 36.3311 41.8476 35.3671 42.3625C34.2444 42.9621 32.4137 43.8558 32.3077 43.8558C32.2602 43.8558 32.1694 43.9185 32.1056 43.9949C32.0419 44.0716 31.8121 44.1872 31.5952 44.2523C31.378 44.3171 31.0147 44.5398 30.7879 44.7472C30.2382 45.2494 29.8489 45.5201 29.676 45.5201C29.5979 45.5201 29.3706 45.6064 29.1708 45.7121C28.9711 45.8179 28.6127 45.9349 28.3748 45.9718C27.6967 46.0775 25.7154 47.2341 25.5405 47.6263C25.5215 47.6693 25.4257 47.7044 25.3279 47.7044C25.2301 47.7044 24.9663 47.7979 24.7412 47.9124C24.5162 48.0268 24.2317 48.1203 24.1092 48.1203C23.8567 48.1203 22.9189 48.5845 22.76 48.7881C22.4013 49.2473 20.7708 49.9276 19.9215 49.9729L19.0635 50.0185L18.9502 49.7205C18.8253 49.3934 18.8967 48.8093 19.1008 48.4846C19.1727 48.3701 19.3614 47.8551 19.5203 47.3402C19.6793 46.8255 19.9218 46.0685 20.0595 45.6587C20.1972 45.2486 20.3102 44.832 20.3102 44.7333C20.3102 44.6345 20.4779 44.2055 20.6832 43.7797C21.0815 42.9536 21.3022 42.2748 21.467 41.3686C21.5234 41.059 21.6376 40.6846 21.7208 40.5364C21.8041 40.3886 21.9904 39.8968 22.1351 39.444C22.4874 38.3397 23.1513 36.8757 23.4215 36.6062C23.6815 36.3465 25.8826 36.4749 27.1392 36.8229ZM38.163 38.8372C38.2512 38.9371 38.4504 39.2715 38.6053 39.5796C38.7602 39.8881 39.0639 40.4028 39.2799 40.7238C39.4962 41.0447 39.8392 41.6352 40.0424 42.0355C40.2456 42.436 40.4867 42.904 40.5781 43.0756C40.6693 43.2473 40.7444 43.5697 40.7447 43.7922C40.7452 44.0481 40.8087 44.2433 40.9176 44.3226C41.0175 44.3955 41.0568 44.5021 41.0111 44.5759C40.9528 44.6697 40.8786 44.6464 40.7304 44.4878C40.6195 44.369 40.4224 44.2717 40.2925 44.2717C39.9775 44.2717 39.571 43.9601 38.506 42.9025L37.6177 42.0201V40.6628C37.6177 38.7312 37.7318 38.3487 38.163 38.8372ZM38.3205 43.6478C38.7514 43.9912 39.15 44.2717 39.2059 44.2717C39.3442 44.2717 40.3324 45.0635 40.5103 45.3168C40.5886 45.4286 40.6992 45.5201 40.7554 45.5201C41.2195 45.5201 42.935 47.7021 42.935 48.2923C42.935 48.3698 43.0287 48.6077 43.1435 48.8212C43.2582 49.0347 43.3525 49.2804 43.3528 49.367C43.3534 49.4535 43.5196 49.9926 43.7223 50.5648C43.9249 51.1368 44.1604 51.8252 44.2455 52.0944C44.3305 52.3637 44.4414 52.6097 44.4918 52.6408C44.5421 52.6718 44.6144 52.9428 44.6519 53.2432C44.6895 53.5435 44.7858 53.9998 44.8659 54.2572C45.8445 57.4055 46.1045 58.2005 46.2364 58.4471C46.4087 58.7689 46.4684 60.9755 46.3089 61.1158C45.8066 61.5573 41.0716 61.8199 40.2349 61.453C39.9708 61.3372 39.6846 61.2131 39.5984 61.1774C39.5125 61.1417 39.2546 60.9979 39.0251 60.8579C38.7957 60.7182 38.4437 60.5303 38.2431 60.4408C38.0425 60.3513 37.6905 60.1895 37.4611 60.0815C37.2319 59.9731 36.7862 59.8114 36.4706 59.7216C36.1553 59.6316 35.6626 59.4463 35.3758 59.3094C34.7149 58.9937 34.4354 58.8801 33.9163 58.7152C33.6869 58.6423 33.4289 58.5301 33.3427 58.466C33.2568 58.4018 32.8347 58.1737 32.4043 57.9594C31.9743 57.745 31.5521 57.5307 31.466 57.483C31.3801 57.4351 30.8874 57.2672 30.3712 57.1095C29.8553 56.9515 29.1868 56.6674 28.8861 56.4777C28.5853 56.2878 28.1864 56.0627 27.9998 55.9773C27.8132 55.8916 27.5902 55.7777 27.5043 55.7237C27.1342 55.4922 26.4867 55.2221 26.1487 55.1579C25.7646 55.085 25.5777 55.0077 24.4807 54.4681C23.2505 53.863 22.242 53.3106 22.0303 53.1255C21.7121 52.8476 21.3394 52.6373 20.9248 52.5016C19.4464 52.0183 19.8665 51.1403 22.0897 50.0667C22.6383 49.8018 23.3187 49.4021 23.6014 49.1785C24.2378 48.6748 24.9389 48.3187 25.8881 48.0169C27.1636 47.6112 27.982 47.1816 29.0794 46.3416C29.2739 46.1928 29.657 46.0107 29.931 45.9372C30.2047 45.8638 30.4539 45.7633 30.4845 45.7139C30.5151 45.6645 30.6446 45.6241 30.7727 45.6241C30.9652 45.6241 31.9673 45.1524 33.5663 44.3089C33.718 44.229 33.9023 44.0911 33.976 44.0028C34.3519 43.5508 35.7948 43.0515 36.769 43.0358L37.5368 43.0236L38.3205 43.6478ZM86.3852 43.8819C86.5358 44.0725 86.6385 47.3097 86.5061 47.6893C86.4033 47.9829 85.8961 48.3283 85.5674 48.3283C85.4588 48.3283 85.4579 48.3542 85.5627 48.4584C85.6612 48.5563 86.3346 48.5848 88.2876 48.5735C91.3599 48.5554 91.6618 48.6658 90.1656 49.2607C89.8502 49.3859 89.3448 49.602 89.0423 49.7405C88.7401 49.8791 88.4233 49.9926 88.3383 49.9926C88.2533 49.9926 88.0087 50.0862 87.7947 50.2006C87.5807 50.3151 87.3099 50.4086 87.1929 50.4086C87.0756 50.4086 86.8872 50.4719 86.7742 50.5492C86.5381 50.7107 85.5692 50.8449 85.4032 50.7394C85.3421 50.7005 85.2579 50.2099 85.2163 49.6493C85.1318 48.509 84.9965 48.3835 84.7551 49.2209C84.6127 49.7144 84.7135 52.0384 84.921 53.0518L84.9831 53.3547L85.0981 52.9998C85.3231 52.3059 87.4011 52.7259 88.3202 53.6513C88.5092 53.8415 88.7206 53.9452 88.9197 53.9452C89.0889 53.9452 89.2272 53.992 89.2272 54.0492C89.2272 54.2034 88.4029 54.1724 87.924 54.0001C87.6945 53.9176 87.2019 53.8462 86.8293 53.8412C86.4563 53.8363 85.975 53.7692 85.7593 53.6925C85.3316 53.5403 85.2451 53.5862 85.3324 53.9191C85.3741 54.078 85.5272 54.1703 85.8944 54.2581C86.5227 54.4085 87.3475 54.9191 87.3591 55.1652C87.3658 55.3069 87.3621 57.0067 87.351 58.9638C87.3501 59.1238 86.4374 59.0399 86.1916 58.8572C86.0548 58.7555 85.8257 58.6132 85.6824 58.5412C85.5389 58.4691 85.1487 58.1543 84.8151 57.8418C84.4811 57.5292 84.1763 57.2724 84.1373 57.271C84.0983 57.2698 83.7847 56.9227 83.4405 56.5001C83.0967 56.0775 82.6946 55.6598 82.5473 55.5718C82.2733 55.4083 81.9548 54.27 82.0867 53.9266C82.117 53.8479 82.1539 52.6146 82.1688 51.1861C82.1918 48.9967 82.223 48.5395 82.3688 48.2763C82.4637 48.1046 82.5904 47.8357 82.6498 47.6783C82.7092 47.5211 82.805 47.3922 82.8629 47.3922C82.9849 47.3922 83.4927 46.4336 83.4927 46.2033C83.4927 46.1176 83.771 45.7766 84.1111 45.4458C84.4508 45.1147 84.7609 44.7153 84.7999 44.5578C84.8389 44.4007 84.9094 44.2717 84.9569 44.2717C85.004 44.2717 85.0716 44.1811 85.1068 44.0702C85.1941 43.7957 86.2001 43.6478 86.3852 43.8819ZM11.2886 48.4796C11.5195 48.6034 11.9134 48.8421 12.1641 49.0106C12.7083 49.376 13.2777 49.7094 14.0542 50.1164C15.2879 50.7632 15.931 51.3032 15.931 51.6921C15.931 51.9442 15.2794 52.5926 15.0241 52.5946C14.7743 52.5966 14.5099 52.77 14.6074 52.8673C14.6502 52.91 14.9303 52.8839 15.2299 52.8089C15.5295 52.734 16.1826 52.6515 16.6813 52.6257L17.5877 52.5786L17.806 53.0059C18.1927 53.7617 18.078 55.0568 17.5993 55.3409C17.2403 55.5538 11.4403 55.6935 11.1212 55.4969C10.8356 55.3208 11.7585 54.3612 12.2136 54.3612C12.2931 54.3612 12.4701 54.2743 12.6066 54.1683C12.7435 54.0623 13.0314 53.9182 13.2463 53.8482C13.4615 53.7782 13.6373 53.6829 13.6373 53.6365C13.6373 53.5897 13.8274 53.4758 14.0598 53.3832C14.5448 53.1894 14.5157 52.9614 14.0161 53.0413C13.5485 53.116 12.6754 53.4323 12.4823 53.597C12.3918 53.6739 12.2759 53.7373 12.2247 53.7373C12.1737 53.7373 11.5189 54.039 10.7698 54.4076C9.43862 55.0632 8.65368 55.2735 8.44114 55.0318C8.31216 54.8849 8.47171 53.0114 8.66329 52.4267C8.755 52.1464 8.90232 51.6125 8.99054 51.2408C9.4625 49.2511 9.69658 48.4006 9.81392 48.2464C9.95338 48.0634 10.7447 48.1886 11.2886 48.4796ZM15.9537 48.3777C16.1418 48.4622 16.5008 48.5825 16.7512 48.6449C17.5961 48.8567 18.009 50.0054 17.482 50.6781C17.3457 50.8518 16.0649 50.7795 15.8498 50.5861C15.7511 50.4975 15.5414 50.3929 15.3836 50.3534C15.2261 50.3142 15.0969 50.248 15.0969 50.2061C15.0969 50.1643 14.8037 49.9372 14.4453 49.7016C13.4035 49.0161 13.0803 48.6382 13.2719 48.3295C13.3776 48.159 15.5525 48.1982 15.9537 48.3777ZM95.6296 48.3545C95.9641 49.5631 96.1155 51.1222 96.087 53.0611L96.0564 55.1413L95.4307 55.1077C94.8237 55.0748 93.1566 54.5192 92.2301 54.0405C92.0182 53.9307 91.7905 53.8412 91.7247 53.8412C91.6586 53.8412 91.4568 53.7736 91.276 53.6908C90.9158 53.5255 89.877 53.1543 89.3835 53.014C89.2114 52.9652 88.8851 52.8272 88.6577 52.707C88.4306 52.587 88.1799 52.4889 88.1004 52.4889C88.0209 52.4889 87.8317 52.4241 87.6794 52.3448C87.5271 52.2652 87.2689 52.1473 87.1053 52.0819C86.8488 51.98 86.8176 51.9248 86.879 51.6808C86.9888 51.2448 87.0834 51.1798 88.0576 50.8713C88.5575 50.713 89.0371 50.55 89.1229 50.5094C89.6584 50.2546 91.8921 49.4201 92.9921 49.0635C93.1417 49.015 93.3764 48.915 93.5135 48.8415C94.403 48.3634 95.5585 48.0974 95.6296 48.3545ZM8.44434 49.4727C8.41785 50.1161 8.27023 50.8472 7.94385 51.9515C7.80235 52.4299 7.63232 51.887 7.52285 50.6087C7.38251 48.9679 7.5013 48.5979 8.14882 48.6606L8.47637 48.6925L8.44434 49.4727ZM81.332 50.9288C81.4223 52.9661 81.3274 53.4799 80.7978 53.8186C80.3829 54.0841 80.3613 54.1012 79.6873 54.6905C78.8121 55.4559 77.5581 56.6535 76.5767 57.6622C75.4854 58.7834 75.014 58.8499 74.7907 57.9138C74.6877 57.4813 74.3208 56.5396 74.0544 56.0235C73.8349 55.5988 73.5129 54.6839 72.8741 52.6719C72.3745 51.0978 72.4356 50.3412 73.0706 50.2401C73.3003 50.2032 73.5135 50.1326 73.5443 50.083C73.5749 50.0333 73.8165 49.9926 74.0809 49.9926C74.3453 49.9926 75.058 49.8782 75.6648 49.7385C77.9087 49.2215 78.9236 49.0733 80.1042 49.0913L81.2511 49.1085L81.332 50.9288ZM97.4516 50.1355C97.4356 50.828 97.332 51.2988 97.2021 51.2692C97.0536 51.2352 96.9366 49.6601 97.0705 49.4974C97.2766 49.2473 97.4647 49.5625 97.4516 50.1355ZM72.3127 53.1392C72.4353 53.4395 72.5684 53.8256 72.6086 53.9972C72.6487 54.1689 72.7681 54.4724 72.8741 54.6717C72.9801 54.8712 73.0665 55.1161 73.0665 55.2157C73.0665 55.3156 73.2535 55.8649 73.4814 56.4362C74.184 58.195 73.6209 58.3878 72.1753 56.8835L71.3007 55.9735L71.3022 54.9334C71.3027 54.2926 71.361 53.7335 71.4536 53.477C71.5362 53.2484 71.6044 52.9829 71.6052 52.8877C71.607 52.7215 71.7409 52.6187 71.9788 52.6013C72.0399 52.5966 72.1902 52.8389 72.3127 53.1392ZM20.7793 53.6902C21.066 53.7936 21.6344 54.0576 22.0423 54.2772C22.4502 54.4965 23.1306 54.7934 23.5539 54.9369C23.9776 55.0801 24.9576 55.5079 25.7317 55.8875C26.5059 56.2669 27.2332 56.6143 27.3476 56.6593C27.7206 56.8057 29.648 57.3776 29.768 57.3776C29.8323 57.3776 29.9004 57.4188 29.9197 57.4688C29.9552 57.5623 32.8117 59.0556 33.1864 59.1767C33.3011 59.2136 33.4653 59.2891 33.5515 59.344C33.6374 59.3992 34.0127 59.5938 34.3853 59.7762C34.7583 59.9589 35.3336 60.243 35.6644 60.4074C35.9948 60.5718 36.3462 60.7063 36.4447 60.7063C36.5434 60.7063 36.8593 60.8184 37.1469 60.9558C37.4346 61.0932 37.9982 61.3101 38.3994 61.4379C38.8009 61.5657 39.4913 61.8745 39.9338 62.1243C40.3761 62.3741 40.768 62.5783 40.8044 62.5783C41.3182 62.5783 42.4135 65.1573 42.4135 66.3671C42.4135 67.0461 42.2592 67.1949 41.3829 67.3607C41.0807 67.4179 40.779 67.4984 40.7126 67.5393C40.646 67.5803 40.2392 67.6947 39.8083 67.7938C37.8931 68.2333 36.6994 68.6097 36.3663 68.8795C36.1992 69.0149 35.2905 69.2873 34.4375 69.4578C33.8161 69.5819 33.0661 69.7832 32.3522 70.0178C32.0657 70.112 31.5731 70.2601 31.2575 70.3472C30.9422 70.4344 30.6309 70.5488 30.5657 70.6014C30.5005 70.6542 30.1252 70.764 29.7316 70.8451C28.8669 71.0237 27.7101 71.358 27.4181 71.514C27.301 71.5765 26.7604 71.6276 26.2165 71.6276H25.2283L24.9485 71.1335C24.6853 70.6691 24.573 70.3487 24.2277 69.0794C24.1022 68.6175 23.9359 68.1769 23.4817 67.1031C23.4092 66.9314 23.3155 66.6537 23.2736 66.4858C23.2316 66.318 23.1344 66.0606 23.0575 65.9139C22.9807 65.767 22.9178 65.5811 22.9172 65.5009C22.9169 65.4204 22.8042 65.1163 22.6668 64.8247C22.5294 64.5331 22.3419 64.1134 22.2499 63.892C22.0804 63.4842 21.5613 61.09 21.5613 60.717C21.5613 60.6055 21.4504 60.3818 21.315 60.22C20.91 59.737 20.4415 58.8226 20.2578 58.1578C20.1629 57.8144 20.0185 57.3863 19.937 57.2059C19.8554 57.0256 19.7888 56.774 19.7888 56.6468C19.7888 56.4319 19.5241 55.7411 19.0484 54.7138C18.4716 53.4683 19.1127 53.0892 20.7793 53.6902ZM82.0518 56.3831C82.7776 57.0947 83.5748 57.7779 83.8231 57.9013C84.0834 58.0306 84.926 58.7706 85.8126 59.6487C87.6474 61.4658 87.6657 61.5155 86.8761 62.5632C86.6155 62.9091 86.1631 63.6745 85.8714 64.2635C85.5793 64.8529 85.1438 65.6156 84.9033 65.959C84.6628 66.302 84.2628 66.9979 84.0144 67.5054C83.7661 68.0128 83.4548 68.556 83.3223 68.7128C83.0979 68.9792 82.464 70.0614 82.2529 70.5398C82.2014 70.6566 82.08 70.8178 81.983 70.8979C81.8861 70.9781 81.6415 71.3714 81.4392 71.7722C81.2371 72.1728 80.9477 72.6863 80.7963 72.9129C80.6452 73.1397 80.4414 73.4464 80.3441 73.5946C80.2466 73.7427 79.9103 74.3867 79.5973 75.0257C79.0581 76.1256 78.8194 76.4123 78.4429 76.4123C78.2228 76.4123 78.2217 73.5867 78.4406 70.1195C78.5274 68.7465 78.6205 65.938 78.6476 63.8787C78.6796 61.4324 78.7486 59.7733 78.8465 59.0939C78.9289 58.5217 79.0287 57.6832 79.0689 57.2303C79.1513 56.2951 80.0545 55.0943 80.679 55.0896C80.7084 55.0896 81.3262 55.6714 82.0518 56.3831ZM71.2725 57.3099C71.5424 57.5588 71.9968 57.8972 72.2825 58.0619C73.7726 58.9217 74.1601 59.7777 73.597 60.9662C73.2316 61.7377 73.0665 62.1684 73.0665 62.3509C73.0665 62.4505 73.001 62.6253 72.921 62.7395C72.8409 62.8534 72.5393 63.4139 72.2504 63.9847C71.9616 64.5557 71.6047 65.184 71.4576 65.3809C71.3103 65.5782 71.1898 65.821 71.1898 65.9209C71.1898 66.0208 71.1481 66.1283 71.0972 66.1597C71.0462 66.1913 70.9723 66.3461 70.933 66.5039C70.8506 66.8347 66.8705 74.8639 66.5756 75.2941C66.2658 75.7463 66.0664 75.6943 64.8179 74.8375C63.8603 74.1807 63.0608 73.6933 62.3798 73.3517C62.093 73.208 61.5637 72.8516 61.2036 72.5597C60.8434 72.268 60.046 71.7676 59.4313 71.4478C58.8164 71.128 58.1593 70.7332 57.9709 70.5709C57.7828 70.4085 57.5814 70.2755 57.5234 70.2755C57.4658 70.2755 57.2212 70.132 56.9798 69.9568C56.4211 69.5508 55.338 68.8432 54.7616 68.5072C53.5856 67.822 52.485 65.4512 52.9704 64.6478C53.1442 64.3597 55.9008 62.9965 56.3128 62.9948C56.3594 62.9945 56.9475 62.7192 57.6198 62.3825C58.2921 62.0462 59.169 61.6462 59.5685 61.4937C59.9676 61.3415 60.4352 61.1544 60.6073 61.0778C61.0793 60.8683 63.3965 59.7713 63.6035 59.6597C63.7031 59.606 63.8464 59.5619 63.9218 59.5619C63.9975 59.5619 64.479 59.3574 64.992 59.1076C65.505 58.8575 66.2999 58.5197 66.7587 58.357C67.5352 58.0814 69.449 57.1571 69.6729 56.9495C69.9728 56.6712 70.7758 56.8521 71.2725 57.3099ZM77.3459 58.7558C77.4 60.3545 77.3057 69.7314 77.2335 69.9205C77.0486 70.4056 76.5636 70.7754 75.2071 71.4649C74.4635 71.8431 73.7362 72.2637 73.5912 72.3996C73.1777 72.7862 70.1693 74.2002 69.5739 74.2873C69.2871 74.3291 68.9954 74.4384 68.9255 74.5299C68.8099 74.6812 68.7983 74.6806 68.7951 74.5226C68.7933 74.4273 68.8434 74.3323 68.9063 74.3114C68.9692 74.2905 69.0469 73.9492 69.0786 73.553C69.1176 73.0674 69.23 72.6451 69.4234 72.2561C69.8982 71.3008 70.2258 70.5256 70.3038 70.1712C70.3443 69.9871 70.5329 69.5488 70.7231 69.1976C70.9132 68.8464 71.4256 67.8339 71.8617 66.9471C72.2979 66.0603 72.6997 65.2645 72.7547 65.1788C72.81 65.0931 72.9201 64.8822 72.9996 64.7106C73.2497 64.1706 74.5336 61.5974 74.6347 61.4342C74.6877 61.3485 74.9185 60.8756 75.1477 60.3836C75.6831 59.2331 76.2963 58.626 76.922 58.626C77.1857 58.626 77.343 58.6742 77.3459 58.7558ZM50.3972 62.3363C50.539 62.4891 50.684 62.7348 50.7189 62.8824C50.7539 63.03 50.8389 63.2208 50.9079 63.3065C50.9766 63.3924 51.0954 63.6263 51.1717 63.8267C51.2479 64.0268 51.3664 64.2609 51.4355 64.3466C51.5042 64.4326 51.5941 64.6432 51.6349 64.8148C51.7068 65.1169 51.8174 65.3981 52.2085 66.2709C52.4571 66.8266 52.5573 67.3122 52.4757 67.5687C52.3799 67.8693 49.9456 67.8763 48.59 67.5797C48.089 67.4702 47.2097 67.3476 46.6361 67.3076C46.0628 67.2678 45.406 67.1708 45.1766 67.0926C44.9471 67.0142 44.6423 66.9491 44.4988 66.948C43.8975 66.943 43.4838 66.7452 43.3516 66.3993C43.2812 66.2143 43.1583 65.9154 43.0791 65.735C42.9999 65.5549 42.9347 65.3443 42.9341 65.2671C42.9338 65.1898 42.8436 64.9906 42.7338 64.8244C42.5993 64.6211 42.5102 64.2371 42.4613 63.6536C42.3774 62.6489 42.4581 62.4743 43.0057 62.4743C43.2029 62.4743 43.5607 62.4255 43.8012 62.366C44.417 62.2129 46.3336 62.0906 48.3877 62.0732L50.139 62.0584L50.3972 62.3363ZM43.4093 68.4485C43.6402 68.7999 44.0431 69.5429 44.189 69.8854C44.2559 70.0428 44.3491 70.1715 44.396 70.1715C44.552 70.1715 45.0383 71.1553 45.0397 71.4739C45.0409 71.7812 44.7416 72.4078 44.3942 72.8237C44.299 72.9381 44.1363 73.2658 44.0326 73.5519C43.7453 74.3472 43.043 75.7672 42.7824 76.0803C42.5431 76.3679 42.5038 76.4379 41.9075 77.6349C41.7151 78.0209 41.5148 78.4069 41.4624 78.4926C41.4097 78.5783 41.2961 78.8124 41.2099 79.0128C41.1237 79.2129 41.009 79.4471 40.9549 79.5327C40.9007 79.6184 40.6166 80.1802 40.3234 80.7809C40.0302 81.3815 39.7463 81.9433 39.6924 82.029C39.6383 82.1149 39.5195 82.349 39.4281 82.5492C38.7241 84.0909 38.2521 83.9199 35.2655 81.0411C34.1382 79.9539 33.1619 79.0459 33.0967 79.0233C32.8326 78.9309 31.0674 77.3157 28.7082 75.0082C28.3571 74.6649 27.8007 74.1999 27.4714 73.9748C26.5784 73.3642 26.5609 72.7929 27.4277 72.553C27.6705 72.4856 28.07 72.3671 28.3157 72.2892C28.5614 72.2114 28.8899 72.1463 29.0456 72.1446C29.2014 72.1426 29.5633 72.0261 29.8501 71.8855C30.1369 71.7446 30.4295 71.629 30.5005 71.6287C30.6225 71.6276 31.9312 71.252 33.447 70.7826C33.8199 70.6673 34.3126 70.525 34.542 70.4666C34.7711 70.4082 35.3578 70.2464 35.8452 70.1073C36.3326 69.9682 36.9894 69.7829 37.3047 69.6957C37.62 69.6086 38.0894 69.4666 38.3473 69.38C38.6056 69.2934 39.0542 69.1636 39.3445 69.0913C39.6348 69.019 39.9303 68.9237 40.0014 68.8801C40.8338 68.3669 43.1621 68.0721 43.4093 68.4485ZM48.0438 68.2925C49.9756 68.5507 50.6095 68.657 50.7227 68.7419C50.921 68.8906 50.6726 69.3062 50.2979 69.452C49.6446 69.7062 49.2311 69.8802 48.6931 70.1271C48.3909 70.2659 48.0858 70.3812 48.0153 70.383C47.9448 70.385 47.6997 70.4771 47.4703 70.5874C47.2114 70.7123 46.8265 70.7899 46.4547 70.7919L45.8564 70.7954L45.4738 70.1973C45.2636 69.8685 45.0071 69.4753 44.904 69.3236C44.6752 68.9873 44.5599 68.5615 44.6409 68.3515C44.7107 68.1696 46.8481 68.1328 48.0438 68.2925ZM54.5371 69.7561C54.6835 69.8709 55.2175 70.1808 55.7241 70.4448C56.2307 70.7091 56.7391 71.0095 56.8538 71.1123C56.9685 71.2151 57.4142 71.4969 57.8443 71.7382C58.2743 71.9793 58.8432 72.3569 59.1082 72.5771C59.3734 72.797 59.8474 73.1118 60.1615 73.2768C60.476 73.4418 61.0565 73.7866 61.4522 74.043C61.8476 74.2998 62.4992 74.6826 62.9004 74.8941C64.3387 75.6522 64.7448 76.5253 63.9194 77.0847C63.7054 77.2297 63.4463 77.3485 63.3435 77.3485C63.2408 77.3485 62.8896 77.442 62.5632 77.5564C62.2369 77.6709 61.8744 77.7662 61.7579 77.7679C61.6412 77.7699 61.3579 77.862 61.1287 77.9727C60.8993 78.0831 60.6352 78.1751 60.5418 78.1772C60.4486 78.1789 60.1904 78.2585 59.9685 78.3535C59.7464 78.4487 59.2831 78.5864 58.939 78.6593C58.3305 78.7883 57.7636 78.9536 56.8017 79.2824C56.5437 79.3707 56.1469 79.4889 55.9198 79.5452C55.6924 79.6016 55.458 79.687 55.3983 79.7349C55.3386 79.7828 55.0157 79.8784 54.6806 79.9469C54.3455 80.0155 53.9129 80.1378 53.7195 80.2182C53.5262 80.299 53.2403 80.3649 53.0845 80.3649C52.9288 80.3649 52.6105 80.4561 52.3773 80.5679C52.1444 80.6795 51.7659 80.8186 51.5365 80.877C51.3071 80.9354 50.6502 81.1471 50.0769 81.3481C49.5034 81.5488 48.9263 81.7141 48.7944 81.7153C48.6625 81.7161 48.4264 81.7832 48.2695 81.8643C48.1128 81.945 47.7984 82.0414 47.571 82.0786C47.3436 82.1155 46.9465 82.23 46.6882 82.3328C45.8253 82.6767 44.5535 83.0714 44.3113 83.0703C44.1794 83.0697 43.9447 83.133 43.7898 83.2108C43.6349 83.2887 43.3056 83.3834 43.0579 83.4211C42.8101 83.4592 42.5053 83.5547 42.3801 83.6338C42.0679 83.831 41.3832 83.9222 41.0061 83.8167C40.3059 83.6204 40.5251 82.9102 42.5029 78.9713C43.4573 77.0705 44.2851 75.4195 44.3424 75.3025C46.1397 71.6337 46.4736 71.2738 48.4744 70.8465C48.6678 70.8053 48.9429 70.7123 49.0864 70.64C49.2297 70.568 49.7459 70.353 50.2333 70.1625C50.7207 69.9722 51.2369 69.7561 51.3801 69.6824C51.8434 69.4448 54.2107 69.4997 54.5371 69.7561ZM23.7554 70.0698C23.8707 70.1317 24.0247 70.4155 24.1202 70.744C24.2113 71.0562 24.3255 71.3362 24.3741 71.3662C24.4227 71.3961 24.492 71.5959 24.5284 71.8103C24.5997 72.232 25.1457 73.1879 25.3148 73.1879C25.3722 73.1879 25.4176 73.4337 25.4156 73.734C25.4121 74.3149 25.2615 74.5156 24.6938 74.6948C24.5529 74.7393 24.0195 75.0597 23.5079 75.4068L22.578 76.0379L21.492 76.0263C20.8946 76.0199 20.3492 75.9679 20.2799 75.9104C20.2103 75.8532 19.8252 75.6359 19.4239 75.4274C19.0225 75.2188 18.5386 74.8848 18.3484 74.6844L18.0031 74.3207L18.0357 72.4975C18.0759 70.2644 17.9073 70.453 20.2057 70.0695C20.928 69.949 23.5295 69.9493 23.7554 70.0698ZM76.8998 75.3135C76.915 77.0258 76.8896 78.4647 76.8436 78.5106C76.6582 78.6956 74.9742 78.6332 74.3517 78.418C73.2942 78.0528 71.92 77.6869 70.5123 77.3958C69.3034 77.1457 69.1077 77.0014 69.1077 76.3603C69.1077 75.8698 69.166 75.7652 69.5462 75.5703C69.7032 75.4898 70.3367 75.1689 70.9539 74.8569C71.5712 74.5447 72.2772 74.1366 72.5229 73.9498C72.7687 73.763 73.1891 73.5037 73.4573 73.3729C74.046 73.0866 74.1525 73.0325 75.0924 72.5463C75.6837 72.2402 75.9326 72.1681 76.3507 72.1821L76.8722 72.1998L76.8998 75.3135ZM80.357 77.5004C80.5191 77.584 81.0915 78.0587 81.629 78.5553C82.1668 79.0517 82.8515 79.6158 83.1508 79.8087C83.7125 80.1706 83.9643 80.4892 83.8741 80.7236C83.8074 80.897 82.432 80.8247 81.981 80.624C81.8089 80.5476 81.5274 80.4512 81.3553 80.4102C81.1833 80.369 80.8685 80.2484 80.6557 80.1421C80.4431 80.0358 80.1616 79.9461 80.0303 79.9429C79.899 79.9394 79.5333 79.8107 79.218 79.6568L78.6447 79.3768L78.682 78.9085C78.774 77.7531 79.5624 77.0906 80.357 77.5004ZM69.8866 78.0087C70.0586 78.1025 70.2732 78.1795 70.3635 78.1801C70.4537 78.1804 70.9196 78.2977 71.3985 78.4406C71.8775 78.5835 72.4135 78.7009 72.5896 78.7012C72.7661 78.7017 73.0348 78.7668 73.1868 78.8458C73.3391 78.9251 73.6253 79.0433 73.8232 79.1084C74.4518 79.3155 74.4876 80.3649 73.866 80.3649C73.7973 80.3649 73.5661 80.4584 73.3522 80.5729C73.1382 80.6873 72.9023 80.7809 72.8284 80.7809C72.7541 80.7809 72.5078 80.8773 72.2807 80.9949C71.7703 81.2592 71.1936 81.478 70.5123 81.665C69.8706 81.841 68.8512 82.1968 68.4113 82.3987C68.2305 82.4815 67.9958 82.5495 67.8899 82.5498C67.7839 82.55 67.5629 82.6203 67.399 82.7054C67.2351 82.7908 66.8598 82.9285 66.5648 83.0113C65.9278 83.1902 65.1265 83.4502 64.6214 83.6413C64.0854 83.8443 63.2856 84.106 62.6925 84.2728C62.4057 84.3532 62.0587 84.4781 61.9213 84.5502C61.7798 84.6245 61.3049 84.6814 60.8265 84.6814H59.9816L59.9487 84.2783C59.912 83.8324 63.3048 80.2362 64.6214 79.3251C64.9367 79.1069 65.4061 78.709 65.664 78.4406C65.922 78.1722 66.2271 77.9105 66.3418 77.8588C66.7078 77.6938 69.5279 77.8132 69.8866 78.0087ZM63.3677 79.0712C63.2833 79.2931 58.0714 84.5656 57.1545 85.3571C56.2365 86.1491 56.7021 86.0818 52.3814 86.0469C49.3811 86.0228 48.3257 85.9789 47.6787 85.8517C47.2202 85.7614 46.3712 85.6583 45.7921 85.6228C45.2133 85.5874 44.4391 85.4741 44.0716 85.371L43.404 85.1836L43.3726 84.7625C43.3333 84.237 43.6498 83.9463 44.3759 83.8414C44.6443 83.8025 44.9576 83.7194 45.0723 83.6567C45.187 83.594 45.5155 83.4885 45.8023 83.4229C46.3217 83.3035 46.5863 83.2181 47.5745 82.8507C47.8613 82.7441 48.2602 82.6279 48.4608 82.5925C48.8387 82.5257 49.8338 82.2422 50.6502 81.9688C51.7476 81.6011 53.8098 81.006 54.4503 80.8721C54.7339 80.8125 55.0612 80.6978 55.1773 80.6164C55.2935 80.5354 55.4854 80.4689 55.6039 80.4689C55.7224 80.4689 56.0051 80.3719 56.2325 80.2534C56.4596 80.1352 57.0675 79.922 57.5837 79.7802C58.9116 79.4154 60.241 79.0212 60.6073 78.8839C60.9954 78.7383 63.0448 78.6195 63.2888 78.7285C63.4323 78.7926 63.4481 78.8606 63.3677 79.0712ZM77.4254 80.6034C77.5488 80.7347 77.7057 81.0013 77.7739 81.1962C77.842 81.3914 78.054 81.8268 78.2449 82.164C78.4362 82.5012 78.594 82.8077 78.5958 82.8452C78.5975 82.8826 78.7143 83.1472 78.8555 83.4333C79.0008 83.7281 79.1123 84.1389 79.1129 84.3814C79.1134 84.6507 79.1912 84.9074 79.3222 85.0739C79.7415 85.6057 79.4885 85.9612 79.0223 85.4956C78.8602 85.3338 78.5448 85.0323 78.3212 84.8255C76.7345 83.3581 75.1518 81.6092 75.1518 81.3231C75.1518 80.597 76.8984 80.0439 77.4254 80.6034ZM79.8544 80.8773C80.2213 80.9281 80.7325 81.0426 80.9905 81.1323C81.2485 81.2218 81.9053 81.41 82.45 81.5503C86.3264 82.5495 86.7766 83.0514 85.257 84.6814C85.0439 84.9103 84.7044 85.355 84.5027 85.6696C84.3009 85.9842 83.999 86.3882 83.8316 86.5674C83.6641 86.7466 83.4001 87.1091 83.2452 87.3731C82.437 88.7488 82.0858 88.6343 81.2103 86.7097C81.1454 86.5668 80.9599 86.2087 80.7983 85.9139C80.6368 85.6193 80.3715 85.0108 80.2091 84.5618C80.0466 84.1127 79.8274 83.5823 79.7223 83.3828C79.6169 83.1835 79.531 82.991 79.531 82.9552C79.531 82.9192 79.3432 82.5495 79.1137 82.1332C78.8843 81.7167 78.6968 81.2929 78.6968 81.191C78.6968 80.8511 78.8188 80.6684 79.0066 80.728C79.1062 80.7596 79.4879 80.8267 79.8544 80.8773ZM36.8659 83.9451C37.8218 84.9208 37.7991 85.3951 36.7859 85.617C36.6205 85.6533 36.4292 85.75 36.3608 85.8322C36.2927 85.9144 36.1914 85.9815 36.136 85.9815C36.0082 85.9815 33.8298 87.0426 33.7597 87.139C33.656 87.2813 32.6288 87.4121 32.5144 87.2979C32.2978 87.0818 32.5799 86.387 33.1774 85.6661C33.2973 85.5212 33.5821 85.0364 33.8097 84.5885C34.0793 84.0587 34.3987 83.6175 34.7248 83.3253L35.2256 82.8759L35.6699 83.027C35.9756 83.131 36.3489 83.4176 36.8659 83.9451ZM86.8814 84.7334C86.9903 85.0762 86.8432 85.3335 86.3465 85.6678C85.5569 86.1994 85.5738 85.9754 86.4068 84.8636C86.7006 84.4712 86.7899 84.4468 86.8814 84.7334ZM65.2209 84.9277C65.3499 85.0904 65.6014 85.4997 65.7799 85.8369C65.9587 86.1738 66.1642 86.5201 66.237 86.6057C66.3098 86.6914 66.4035 86.8735 66.4455 87.0104C66.4871 87.1472 66.6545 87.4748 66.8173 87.7385C66.98 88.0023 67.2039 88.4109 67.3151 88.6465C67.4261 88.8824 67.5693 89.1075 67.6331 89.1467C67.7903 89.2437 67.7792 89.3695 67.5975 89.5507C67.514 89.6341 67.3614 89.8389 67.2586 90.0064C66.1034 91.8849 66.0073 91.9459 64.9862 91.4448C64.6997 91.3039 64.3934 91.1875 64.3058 91.1857C64.2182 91.184 64.0539 91.1192 63.9407 91.0419C63.8277 90.9647 63.5945 90.868 63.4224 90.827C62.977 90.721 62.0392 90.2522 61.9844 90.1078C61.9588 90.041 61.9839 89.0267 62.0401 87.8538C62.1553 85.4401 62.1906 85.3521 63.1095 85.1961C63.3389 85.1572 63.6155 85.0788 63.7244 85.0216C63.879 84.9405 64.5405 84.7337 64.9341 84.6434C64.9629 84.6367 65.0919 84.7648 65.2209 84.9277ZM41.5744 86.1544C41.7023 86.2697 41.5442 88.1176 41.3622 88.6337C41.2524 88.9457 41.1625 89.2939 41.1625 89.4078C41.1625 89.6884 40.7578 90.6943 40.6075 90.7869C40.3528 90.9441 40.022 89.9943 39.8567 88.6297C39.8153 88.2887 39.7219 87.8228 39.6494 87.5939C39.4292 86.9014 39.3707 86.2862 39.5093 86.1195C39.6255 85.9801 41.4143 86.0103 41.5744 86.1544ZM38.6723 86.8137C38.7759 87.1855 38.9136 87.8878 38.9782 88.3741C39.0429 88.8603 39.1564 89.4453 39.2307 89.6742C39.3049 89.903 39.3827 90.7221 39.4039 91.4945L39.4421 92.8986L39.1815 92.9291C38.8915 92.9628 32.3348 89.7584 32.0887 89.4627C31.7597 89.0671 32.9931 88.2065 35.1674 87.3142C35.3394 87.2436 35.7526 87.033 36.0854 86.8462C36.4182 86.6595 36.8636 86.4588 37.0759 86.4004C37.2878 86.3417 37.5315 86.2464 37.6177 86.1886C38.0862 85.8735 38.4743 86.1032 38.6723 86.8137ZM32.9258 91.0826C32.9258 91.1297 33.0315 91.2 33.1605 91.2383C33.4129 91.3138 35.2745 92.1741 35.5322 92.3348C35.6184 92.3882 35.8059 92.4835 35.9494 92.5465C36.0926 92.6093 36.2804 92.7028 36.3663 92.7542C36.4525 92.8059 36.6732 92.9256 36.8572 93.0203C37.4311 93.3165 37.146 93.3883 35.7031 93.3107C34.0191 93.2201 33.8956 93.1591 33.1622 92.0522C33.0918 91.9456 32.915 91.6798 32.7694 91.4614C32.6242 91.2426 32.531 91.0225 32.5624 90.9716C32.6288 90.8648 32.9258 90.9551 32.9258 91.0826Z" fill="#313B44"/>
</svg>
