<svg width="103" height="135" viewBox="0 0 103 135" fill="none" xmlns="http://www.w3.org/2000/svg">
<path d="M93.4467 116.024C93.2696 116.073 92.9988 116.246 92.853 116.409L92.5823 116.708V125.054V133.401L93.2384 133.757C95.5087 135.008 99.3723 135.124 101.757 134.007C102.122 133.844 102.549 133.622 102.715 133.516L102.996 133.333V128V122.667L102.694 122.474C102.132 122.099 100.882 121.608 100.091 121.435C99.2265 121.252 96.9562 121.204 95.894 121.338L95.29 121.415V119.143C95.29 116.698 95.2483 116.496 94.738 116.178C94.4048 115.976 93.8528 115.909 93.4467 116.024ZM99.6119 124.063L100.133 124.255V128V131.745L99.6119 131.937C99.2682 132.053 98.7267 132.13 97.9977 132.159C97.05 132.197 96.8 132.178 96.1231 131.976L95.342 131.745V128V124.255L96.071 124.034C96.6959 123.841 96.9667 123.812 97.9456 123.851C98.7475 123.87 99.2474 123.938 99.6119 124.063Z" fill="#FF7D62"/>
<path d="M4.75929 116.159C3.27006 116.419 1.84331 116.948 0.551953 117.709L0 118.036V125.401V132.756L0.572781 133.092C4.25941 135.278 8.85207 135.345 12.5491 133.256L13.3822 132.784L13.4135 131.263C13.4447 129.54 13.3718 129.136 12.9136 128.78C12.4554 128.423 11.9972 128.375 11.414 128.616C10.7579 128.876 10.6225 129.203 10.6225 130.445V131.398L9.92473 131.648C7.73775 132.409 5.18627 132.38 3.25964 131.571L2.70769 131.331V125.41V119.48L3.10343 119.297C5.03006 118.392 7.78982 118.354 10.0809 119.201L10.6225 119.403V120.26C10.6225 121.54 10.8933 121.974 11.7993 122.128C12.0805 122.176 12.2992 122.147 12.622 121.993C13.3406 121.675 13.3822 121.569 13.4135 119.711L13.4551 118.055L12.6637 117.613C11.6951 117.045 10.5288 116.583 9.37278 116.303C8.20639 116.024 5.93609 115.957 4.75929 116.159Z" fill="#FF7D62"/>
<path d="M23.0675 116.149C21.672 116.4 20.339 116.919 19.1413 117.67L18.5373 118.046V121.406V124.765L19.5058 125.044C20.0265 125.199 22.3281 125.853 24.6088 126.508L28.7432 127.701V129.54V131.379L28.0975 131.629C26.9103 132.082 25.9522 132.216 24.4317 132.159C23.0362 132.111 22.1198 131.928 21.2242 131.504L20.8284 131.321V130.426C20.818 129.896 20.7659 129.454 20.6826 129.319C20.214 128.529 18.7872 128.52 18.2874 129.3C18.152 129.521 18.1207 129.858 18.1207 131.167V132.765L18.7143 133.121C19.6412 133.67 20.9534 134.2 22.0573 134.469C22.9529 134.7 23.2653 134.729 24.7858 134.729C26.3167 134.729 26.6187 134.7 27.5248 134.469C28.6182 134.2 30.2012 133.555 30.9719 133.054L31.4509 132.756V129.271V125.786L26.4313 124.342L21.4012 122.898L21.37 121.136L21.3491 119.384L21.9323 119.143C22.9113 118.739 23.7132 118.595 24.8379 118.595C25.9626 118.604 26.7541 118.758 27.7226 119.163L28.3266 119.413V120.125C28.3266 121.367 28.7536 121.887 29.743 121.887C30.2429 121.887 30.3574 121.848 30.7011 121.56L31.0864 121.232L31.1177 119.634L31.1593 118.046L30.4095 117.593C29.4201 117.006 28.3579 116.554 27.3373 116.303C26.2646 116.034 24.1193 115.957 23.0675 116.149Z" fill="#FF7D62"/>
<path d="M36.5747 116.207C35.6478 116.409 35.2521 117.439 35.804 118.209C36.1061 118.633 36.4393 118.71 37.9598 118.71H39.3657V125.401V132.091H37.8036C35.804 132.091 35.5749 132.187 35.2937 133.083C35.1688 133.506 35.3562 134.055 35.7311 134.344L36.054 134.594H40.8133C46.0829 134.594 45.9058 134.613 46.1974 133.959C46.3849 133.545 46.3849 133.131 46.1974 132.717C45.9475 132.168 45.635 132.091 43.7917 132.091H42.1775V125.41V118.72L43.7292 118.691C45.2081 118.662 45.3018 118.652 45.5517 118.431C46.364 117.728 46.062 116.477 45.031 116.217C44.5624 116.092 37.1162 116.092 36.5747 116.207Z" fill="#FF7D62"/>
<path d="M80.1269 121.357C78.9501 121.55 77.8462 121.954 77.0339 122.493L76.7319 122.686L76.7735 123.773C76.8048 125.006 76.9297 125.256 77.6171 125.574C78.4086 125.939 79.2834 125.545 79.5125 124.727C79.627 124.274 79.6687 124.236 80.1477 124.062C80.481 123.947 81.0329 123.87 81.7515 123.841C82.6992 123.802 82.9492 123.822 83.6261 124.024L84.4071 124.255L84.4384 125.583L84.4696 126.921L83.9697 126.854C81.3662 126.517 78.9189 126.883 77.2734 127.855L76.7527 128.163V130.743V133.333L77.0547 133.525C77.6067 133.891 78.8668 134.392 79.6583 134.565C80.7934 134.815 83.2824 134.806 84.3551 134.555C85.2923 134.334 85.886 134.113 86.6254 133.699L87.1669 133.4V128V122.599L86.5212 122.243C84.8966 121.348 82.2931 120.991 80.1269 121.357ZM83.272 129.444C83.6261 129.521 84.0322 129.636 84.1884 129.694C84.4696 129.819 84.4696 129.819 84.4384 130.782L84.4071 131.744L83.6261 131.975C82.9492 132.178 82.6992 132.197 81.7515 132.158C81.0225 132.129 80.481 132.052 80.1373 131.937L79.6166 131.744L79.5854 130.772L79.5541 129.8L80.0228 129.636C81.0434 129.27 82.1889 129.203 83.272 129.444Z" fill="#FF7D62"/>
<path d="M51.5816 124.775C51.4045 124.871 51.1962 125.044 51.1442 125.15C51.0713 125.266 51.0296 125.998 51.0296 126.941C51.0296 129.338 51.04 129.348 53.5811 129.348C56.1013 129.348 56.1326 129.319 56.1326 126.989C56.1326 124.631 56.0805 124.582 53.5603 124.582C52.1127 124.582 51.8732 124.602 51.5816 124.775Z" fill="#FF7D62"/>
<path d="M62.7456 116.053C62.579 116.12 62.3186 116.303 62.1728 116.448L61.9125 116.708L61.8812 125.651L61.8604 134.594H67.4737H73.0869L73.4098 134.344C74.045 133.853 74.0763 132.9 73.4618 132.37L73.1911 132.139L68.9317 132.111L64.6722 132.082L64.6514 124.39L64.6202 116.708L64.3598 116.448C64.0786 116.169 63.5475 115.918 63.2455 115.918C63.1414 115.928 62.9227 115.986 62.7456 116.053Z" fill="#FF7D62"/>
<path d="M45.4921 0.187408C43.4345 1.16827 36.4541 5.00766 36.3017 5.23186C36.195 5.40001 32.3695 18.3054 27.8277 33.9292C23.2706 49.567 19.5061 62.3463 19.4603 62.3463C19.4146 62.3463 18.6678 61.1973 17.7838 59.782C16.9151 58.3808 16.0463 57.0917 15.8482 56.9095C15.391 56.4891 14.5832 56.5031 14.0193 56.9375C13.2115 57.5821 13.3334 57.9044 16.1683 62.4164C17.5704 64.6443 18.8964 66.6201 19.0946 66.7882C19.5365 67.1665 20.2986 67.2086 20.8016 66.9003C20.9997 66.7602 21.2435 66.3258 21.4417 65.7373C21.6093 65.2188 25.4501 52.0612 29.9767 36.4935C34.5033 20.9257 38.3135 7.86618 38.4355 7.48785L38.6488 6.77322L42.7334 4.61531C44.9739 3.42426 46.9704 2.30328 47.1686 2.13512C47.7782 1.57463 47.5648 0.593765 46.7418 0.201416C46.1932 -0.0648193 46.0103 -0.0648193 45.4921 0.187408Z" fill="white" fill-opacity="0.9"/>
<path d="M59.8339 0.6779C59.1938 1.28043 59.3005 2.27531 60.0625 2.63963C60.6265 2.90587 74.0233 6.15674 74.572 6.15674C75.6999 6.15674 76.2638 4.92365 75.517 4.12494C75.2121 3.80266 74.2824 3.55044 68.0793 2.02309C64.1776 1.05623 60.8398 0.271542 60.6417 0.271542C60.4436 0.271542 60.0778 0.453702 59.8339 0.6779Z" fill="white" fill-opacity="0.9"/>
<path d="M51.3446 5.12006C51.1617 5.23216 50.9483 5.44235 50.8721 5.58247C50.7807 5.7226 49.3023 10.683 47.58 16.6102C45.8578 22.5374 44.4251 27.3857 44.4099 27.3997C44.3947 27.4137 42.5657 28.3806 40.3405 29.5576C38.1154 30.7347 36.1493 31.8276 35.9664 31.9958C35.7073 32.22 34.7318 35.4148 31.4245 46.7648C26.9284 62.2205 27.0503 61.702 27.8581 62.2205C28.2696 62.5007 45.172 66.6904 45.8578 66.6904C46.1626 66.6904 49.0127 65.2472 54.8653 62.1504L63.4307 57.5964L68.4603 58.8435C71.2342 59.5301 73.6423 60.0626 73.8251 60.0205C74.6329 59.8244 74.6634 59.7543 78.5194 46.4986C80.5769 39.4644 82.2535 33.5792 82.2535 33.4391C82.2535 33.1868 77.2544 25.0877 76.7972 24.6253C76.2637 24.0508 75.0597 24.2189 74.6482 24.9195C74.3738 25.382 67.1343 50.352 67.1343 50.8424C67.1343 51.501 67.6982 52.0055 68.4603 52.0055C69.6034 52.0055 69.451 52.3978 72.9869 40.2631C74.7549 34.1817 76.2485 29.1653 76.2942 29.1092C76.3552 29.0532 77.0563 30.0621 77.8793 31.3512L79.3577 33.7193L75.9589 45.3636C74.0995 51.7673 72.5297 57.0359 72.4839 57.0779C72.4382 57.12 70.3502 56.6436 67.8354 56.027C65.153 55.3684 63.1412 54.934 62.9278 54.9901C62.7449 55.0321 58.8279 57.0639 54.2556 59.4881C49.6681 61.9262 45.8273 63.944 45.7206 63.986C45.4311 64.0841 30.4339 60.3568 30.4339 60.1887C30.4491 60.1046 32.1713 54.1073 34.2898 46.8629L38.1458 33.7053L42.3219 31.4913C44.6233 30.2583 46.5894 29.1933 46.6961 29.0952C46.8332 28.9691 52.9906 8.25883 52.9906 7.90852C52.9906 7.86649 53.0973 7.83846 53.2192 7.83846C53.3564 7.83846 59.209 9.25371 66.2503 10.9912C73.2765 12.7288 79.2814 14.144 79.5863 14.144C80.7294 14.144 81.3085 12.925 80.5465 12.1122C80.2416 11.79 78.6413 11.3696 66.2503 8.3289C58.5841 6.43723 52.1676 4.89587 52 4.89587C51.8323 4.89587 51.5275 4.99395 51.3446 5.12006Z" fill="white" fill-opacity="0.9"/>
<path d="M42.4591 9.85593C42.1695 10.1222 41.7428 11.4113 40.2187 16.6099C39.1975 20.155 38.3593 23.2518 38.3593 23.504C38.3593 24.5129 39.7005 25.0173 40.5692 24.3307C40.9198 24.0645 41.1941 23.2097 42.8554 17.5067C43.907 13.9195 44.7605 10.8508 44.7605 10.6686C44.7605 10.4865 44.5624 10.1502 44.3185 9.92599C43.7393 9.40754 42.9773 9.3655 42.4591 9.85593Z" fill="white" fill-opacity="0.9"/>
<path d="M56.2065 13.2609C55.8103 13.6252 55.5664 14.3399 53.4631 21.5983C52.1981 25.9561 51.1617 29.7535 51.1617 30.0197C51.1617 30.7203 51.9086 31.2948 52.6706 31.1827C52.9602 31.1407 53.326 31.0006 53.4784 30.8604C53.646 30.6923 54.4843 28.058 55.8865 23.2798C57.06 19.2442 58.0202 15.9233 58.0202 15.8812C58.0202 15.7411 58.9347 15.9513 67.8202 18.1372C72.9717 19.4123 77.4221 20.4493 77.6964 20.4493C78.047 20.4493 79.4034 19.8047 82.6955 18.0531C85.1798 16.75 87.3288 15.5449 87.4812 15.3768C87.8622 14.9704 87.8165 14.2418 87.3745 13.7653C86.6734 13.0227 86.2924 13.1488 81.8115 15.5309C79.6016 16.722 77.6812 17.7168 77.5288 17.7449C77.3916 17.7729 72.7888 16.6939 67.302 15.3487C61.8152 13.9895 57.1667 12.8826 56.9838 12.8826C56.8009 12.8826 56.4504 13.0507 56.2065 13.2609Z" fill="white" fill-opacity="0.9"/>
<path d="M25.2214 18.9224C25.069 18.9925 24.8861 19.1746 24.8099 19.3007C24.688 19.4969 20.3443 34.2379 19.2469 38.1614C19.0488 38.876 19.0488 39.0582 19.2317 39.4505C19.4603 39.969 19.8566 40.2072 20.5119 40.2072C21.5788 40.2072 21.4874 40.4174 24.5661 29.8661C26.1207 24.5274 27.3857 20.0294 27.3857 19.8753C27.3857 19.3988 26.5779 18.7683 25.9835 18.7683C25.7091 18.7683 25.3586 18.8383 25.2214 18.9224Z" fill="white" fill-opacity="0.9"/>
<path d="M61.2362 21.2476C60.8399 21.598 60.6418 22.1865 59.1024 27.5252C58.1727 30.762 57.3497 33.5365 57.2735 33.6906C57.1973 33.8588 55.5055 34.8396 53.0517 36.1428C50.796 37.3338 48.8299 38.4268 48.6928 38.5529C48.2813 38.9313 48.327 39.8561 48.7995 40.2764C49.5005 40.935 49.8054 40.8229 54.5911 38.3007C57.0296 37.0256 59.1634 35.8345 59.3615 35.6664C59.6358 35.4142 60.0626 34.1671 61.3886 29.627C62.303 26.4743 63.0956 23.868 63.126 23.8399C63.2785 23.6998 67.1649 24.7227 67.1649 24.9049C67.1649 25.2131 60.4589 48.1094 60.3369 48.2215C60.1236 48.4176 44.1204 56.8811 43.968 56.8811C43.7851 56.8811 39.2128 55.7461 39.1519 55.6901C39.1214 55.662 39.8682 53.0277 40.7979 49.8329C41.941 45.8674 42.4592 43.8916 42.383 43.6534C42.1086 42.6445 40.4016 42.3923 39.8834 43.2891C39.5329 43.8916 35.9208 56.6149 36.0122 56.9512C36.0579 57.1333 36.2256 57.3856 36.3932 57.5257C36.7133 57.7919 43.4956 59.5435 44.2271 59.5435C44.5624 59.5435 47.1687 58.2403 53.448 54.9054C58.2641 52.3551 62.364 50.1271 62.5621 49.959C62.8365 49.7068 63.6138 47.2266 66.6315 36.8434C68.689 29.8092 70.3655 23.896 70.3655 23.7278C70.3655 23.5457 70.2131 23.2514 70.0302 23.0412C69.7407 22.747 69.0701 22.5368 65.9914 21.7801C63.9643 21.2757 62.1659 20.8693 61.9982 20.8693C61.8306 20.8693 61.48 21.0375 61.2362 21.2476Z" fill="white" fill-opacity="0.9"/>
<path d="M90.8495 21.4302C90.3771 21.5983 90.0265 22.1168 90.0265 22.6072C90.0265 22.8875 90.819 24.2747 92.4651 26.909L94.9036 30.7905L88.1671 53.9249L81.4306 77.0453L71.2038 82.4821C65.5951 85.4527 60.8551 87.9189 60.6875 87.9469C60.5198 87.975 53.768 86.3635 45.675 84.3738L30.9674 80.7446L30.3425 79.7777C30.0072 79.2452 29.0013 77.6478 28.1021 76.2186L26.4865 73.6263L27.1419 71.4123C27.5077 70.2073 27.8278 69.1844 27.8582 69.1704C27.8887 69.1423 34.5033 70.7538 42.5506 72.7435C50.5979 74.7333 57.4106 76.3587 57.7002 76.3587C58.0965 76.3587 59.2091 75.8402 62.3487 74.1588C64.6197 72.9537 66.5858 71.9728 66.7077 71.9728C66.8296 71.9868 69.1463 72.5333 71.8287 73.1919C75.5627 74.1167 76.8278 74.3689 77.0868 74.2709C78.0623 73.9346 78.3671 72.8556 77.6813 72.225C77.3764 71.9448 76.2638 71.6225 71.8896 70.5436C68.7652 69.7729 66.3267 69.2404 66.1285 69.2825C65.9456 69.3245 63.9948 70.3054 61.8001 71.4824C59.6206 72.6454 57.7002 73.6263 57.5631 73.6543C57.4259 73.6964 50.5064 72.0429 42.2001 69.9971C33.8937 67.9513 26.9285 66.2698 26.7152 66.2698C25.8464 66.2698 25.633 66.6762 24.5662 70.3054C24.0175 72.183 23.5755 73.8084 23.5755 73.9346C23.5755 74.2428 28.5746 82.2159 29.0623 82.6783C29.3976 83.0146 31.1351 83.477 44.9892 86.882C53.5394 88.9698 60.718 90.6934 60.9313 90.6934C61.4343 90.6934 83.4119 79.0771 83.7167 78.6427C83.9606 78.3204 97.7994 31.0147 97.7994 30.5242C97.7994 30.23 92.6175 21.8506 92.2517 21.5843C91.9621 21.3601 91.2153 21.2761 90.8495 21.4302Z" fill="white" fill-opacity="0.9"/>
<path d="M82.6346 23.1818C81.9182 23.8403 82.0402 24.1486 84.6921 28.3663L87.1307 32.2478L82.3755 48.5582C79.7693 57.5261 77.5898 64.9246 77.5288 65.0087C77.4679 65.1068 75.2122 64.6023 71.1276 63.6075C67.6526 62.7527 64.6958 62.0801 64.5434 62.1081C64.391 62.1502 62.1963 63.2712 59.6815 64.6023C54.8349 67.1666 54.5301 67.4048 54.7434 68.2175C54.9111 68.8201 55.414 69.2124 56.0542 69.2124C56.4962 69.2124 57.4411 68.764 60.8094 66.9844L65.0007 64.7565L71.7525 66.4239C75.6237 67.3768 78.6414 68.0494 78.8395 68.0073C79.0224 67.9653 79.312 67.7831 79.4949 67.615C79.7235 67.3908 81.0952 62.9208 84.9207 49.7913C87.7251 40.1507 90.0265 32.1357 90.0265 31.9955C90.0265 31.6592 84.7988 23.2798 84.4178 23.0276C83.9758 22.7053 83.0461 22.7894 82.6346 23.1818Z" fill="white" fill-opacity="0.9"/>
<path d="M16.4426 23.6026C16.2445 23.7427 16.0006 24.1771 15.8025 24.7656C15.2538 26.4891 5.74341 59.236 5.74341 59.4322C5.74341 59.6704 23.2859 87.6531 23.7431 88.1576C24.0784 88.5219 25.572 88.9142 43.084 93.188C53.5241 95.7523 62.2725 97.8401 62.5163 97.8261C62.8212 97.8261 64.4367 97.0414 67.3935 95.486C69.8321 94.1969 71.9658 93.0058 72.1639 92.8517C72.6364 92.4454 72.6364 91.5205 72.1487 91.1002C71.3562 90.4136 71.2495 90.4556 66.5857 92.9358L62.2725 95.2198L44.0289 90.7639C34.0003 88.3117 25.7549 86.2519 25.694 86.1958C25.633 86.1398 21.7922 80.0304 17.1285 72.6178L8.66969 59.1379L13.684 41.9307C16.4426 32.4724 18.6983 24.6115 18.6983 24.4713C18.6983 24.3312 18.5002 24.0229 18.2563 23.7987C17.7381 23.3363 17.0065 23.2523 16.4426 23.6026Z" fill="white" fill-opacity="0.9"/>
<path d="M50.735 45.3633C48.2964 46.6664 46.1627 47.8294 45.995 47.9696C45.0044 48.7963 46.1017 50.4918 47.3515 50.0574C47.5954 49.9733 49.7901 48.8524 52.2286 47.5492C56.7247 45.1671 57.1058 44.8869 57.1058 44.1442C57.1058 43.9901 56.9229 43.6818 56.7095 43.4436C55.9779 42.6449 55.7188 42.7289 50.735 45.3633Z" fill="white" fill-opacity="0.9"/>
<path d="M99.0644 43.7102C98.8815 43.7803 98.6224 43.9764 98.5005 44.1586C98.3786 44.3407 96.1686 51.6972 93.6081 60.497C89.3559 75.0839 88.9443 76.5552 89.1272 76.9335C89.3101 77.3539 89.9503 77.7603 90.4075 77.7603C90.7885 77.7603 91.5048 77.3679 91.6268 77.1017C91.8097 76.6673 101 45.0694 101 44.8732C101 44.4528 100.528 43.8783 100.07 43.7242C99.5064 43.542 99.5064 43.542 99.0644 43.7102Z" fill="white" fill-opacity="0.9"/>
<path d="M17.7229 44.2985C17.4181 44.5647 17.159 45.2373 16.336 48.0818C15.2691 51.7671 15.2386 52.0473 15.9092 52.5378C16.656 53.0702 17.7229 52.818 18.0582 52.0193C18.5307 50.8843 20.07 45.2233 19.9786 44.901C19.75 44.0463 18.4392 43.71 17.7229 44.2985Z" fill="white" fill-opacity="0.9"/>
<path d="M3.44199 67.9374C3.16765 68.1896 3 68.4979 3 68.7361C3 68.9743 3.9297 70.5857 5.46905 73.0379L7.92286 76.9614L6.59689 81.5294C5.88056 84.0376 5.28616 86.2095 5.28616 86.3496C5.28616 86.714 13.0743 99.0589 13.4401 99.2691C13.8669 99.5353 24.0022 102.001 24.6118 102.001C25.7092 102.001 26.2579 100.768 25.5263 99.9697C25.2215 99.6614 24.4899 99.4372 20.1767 98.3723C17.4333 97.6857 15.1624 97.1111 15.1319 97.0831C15.1014 97.0551 13.5163 94.5609 11.6264 91.5342L8.16672 86.0414L9.47745 81.6135C10.1938 79.1613 10.7729 76.9894 10.7729 76.7512C10.7729 76.2888 5.80435 68.2036 5.25568 67.7692C4.76796 67.3909 3.96019 67.461 3.44199 67.9374Z" fill="white" fill-opacity="0.9"/>
<path d="M34.6252 75.2658C34.1375 75.532 33.9546 75.8263 33.9393 76.4008C33.9393 76.7651 34.046 77.0314 34.2899 77.2415C34.549 77.4938 37.1857 78.1804 46.8028 80.5485C53.4936 82.2019 59.1633 83.5471 59.3767 83.5331C59.8186 83.5191 68.3841 79.0491 68.9938 78.5167C69.5424 78.0262 69.4967 77.2836 68.8718 76.7651C68.5975 76.5409 68.2317 76.3588 68.0336 76.3588C67.8507 76.3588 65.7779 77.3677 63.446 78.6007C61.1141 79.8338 59.1176 80.8427 59.0109 80.8427C58.9042 80.8427 53.5546 79.5536 47.1533 77.9702C40.7368 76.3868 35.3567 75.0976 35.2043 75.0976C35.0519 75.0976 34.7928 75.1817 34.6252 75.2658Z" fill="white" fill-opacity="0.9"/>
<path d="M13.4858 83.9254C13.12 84.2616 13.0438 84.4438 13.0896 84.8081C13.1658 85.3967 18.3477 93.6639 18.7592 93.8601C18.9421 93.9442 26.8827 95.934 36.4389 98.288C53.0211 102.366 53.8137 102.548 54.2861 102.366C54.8653 102.141 55.1244 101.777 55.1244 101.175C55.1244 100.166 55.9474 100.418 37.5972 95.9059C28.3306 93.6359 20.6644 91.7162 20.5424 91.6602C20.4358 91.6041 19.7194 90.5812 18.9726 89.3902C15.6958 84.1636 15.4519 83.8133 15.0861 83.6591C14.4613 83.3929 13.9735 83.477 13.4858 83.9254Z" fill="white" fill-opacity="0.9"/>
<path d="M79.2662 86.2234C79.0071 86.3355 78.748 86.5317 78.6718 86.6718C78.6109 86.826 77.9707 88.9698 77.2392 91.464L75.9132 95.976L69.6644 99.283C66.2351 101.105 63.2631 102.73 63.0802 102.912C62.2572 103.627 62.8821 105 64.0099 105C64.4062 105 66.1284 104.145 71.3409 101.385C75.0749 99.3951 78.1993 97.6575 78.2755 97.5314C78.5346 97.083 81.2018 87.7788 81.2171 87.3024C81.2171 86.4196 80.1807 85.8451 79.2662 86.2234Z" fill="white" fill-opacity="0.9"/>
</svg>
