<svg width="183" height="131" viewBox="0 0 183 131" fill="none" xmlns="http://www.w3.org/2000/svg">
<mask id="path-1-inside-1" fill="white">
<path fill-rule="evenodd" clip-rule="evenodd" d="M88.4307 0.274415C87.2932 0.628656 85.8706 1.87912 85.8706 2.52534V2.8709H88.3237C92.1805 2.8709 92.1974 2.8931 92.1319 7.86164L92.0876 11.253L91.629 11.7221L91.1698 12.1917L88.3373 12.2115L85.5053 12.2313V13.6907V15.1501L91.4296 15.1883C97.2355 15.2259 97.3623 15.2331 97.7965 15.5502C98.5229 16.0806 98.8816 17.0116 98.9481 18.5386L99.0065 19.8696L101.165 19.9111C103.722 19.9604 104.285 19.818 105.467 18.8253C106.851 17.6626 106.775 18.1636 106.782 10.1512L106.788 3.1291L106.331 2.36367C105.67 1.25751 104.959 0.664369 103.884 0.321711C102.629 -0.0783787 89.6907 -0.117953 88.4307 0.274415ZM72.4863 7.95624C71.5912 8.33557 71.4662 8.71201 71.4158 11.1777C71.3314 15.3321 71.1509 15.168 75.752 15.1168L79.3576 15.0768L79.5612 14.6424C79.8459 14.0334 79.8459 9.05274 79.5612 8.58557C79.1313 7.88046 73.7873 7.40557 72.4863 7.95624ZM110.568 16.5512C109.337 17.1115 109.147 17.8171 109.145 21.8387C109.141 27.5003 109.069 27.4327 115.13 27.4327C121.075 27.4327 120.977 27.5249 120.977 21.9159C120.977 16.2553 121.079 16.3504 115.053 16.3644C112.239 16.3712 110.836 16.4295 110.568 16.5512ZM57.3466 24.0332C56.598 24.6659 56.4486 28.5264 57.1406 29.368L57.5191 29.8289H60.0725C63.4896 29.8289 63.3439 29.9621 63.3439 26.8333C63.3439 23.7224 63.4688 23.8363 60.0683 23.843C58.3011 23.8464 57.5017 23.9024 57.3466 24.0332ZM98.9448 27.3835C98.4847 29.2899 96.8528 30.23 94.2253 30.1011L92.9017 30.0365L92.8135 30.6441C92.765 30.9781 92.7466 33.0374 92.7725 35.2203C92.8428 41.2293 92.5793 41.0546 101.376 40.9147C105.731 40.8452 106.317 40.8075 106.638 40.5744C106.837 40.4301 107.112 40.3123 107.249 40.3123C107.967 40.3123 108.13 38.9967 108.073 33.6517C108.015 28.0794 108.072 28.3888 106.958 27.6248L106.13 27.0582L102.589 27.009L99.047 26.9598L98.9448 27.3835ZM77.7846 31.3473C76.4874 32.3376 76.5727 38.019 77.894 38.6353C78.528 38.9311 84.027 38.8809 84.4829 38.5749C85.6524 37.7907 85.6811 31.7753 84.5178 31.3907C84.3768 31.3444 84.2618 31.2435 84.2618 31.1668C84.2618 30.8415 78.2267 31.0094 77.7846 31.3473ZM26.4458 44.6675C26.2087 44.8089 26.1894 45.2592 26.1875 50.691C26.1852 57.2706 26.2007 57.1673 25.2797 56.6803C24.9355 56.4984 24.4562 56.3048 24.2148 56.2503C23.9735 56.1953 23.3484 55.94 22.8252 55.6823C21.436 54.9979 18.3711 54.9154 16.6817 55.5167C16.0783 55.7315 15.2553 56.0129 14.8532 56.1412C13.8369 56.4665 11.4159 58.3704 11.4159 58.8444C11.4159 58.8989 11.2274 59.1494 10.9974 59.4003C10.3931 60.0601 9.89292 61.1127 9.45925 62.6406C9.26316 63.3308 9.22168 64.268 9.22168 67.9905C9.22168 73.1274 9.36027 74.2119 10.2017 75.6424C10.4671 76.0936 10.6844 76.5434 10.6844 76.6419C10.6844 76.8103 11.786 78.0091 12.3941 78.5023C12.5463 78.6259 12.9776 78.9816 13.3528 79.2924C14.1325 79.9401 15.6475 80.7489 16.0798 80.7489C16.2405 80.7489 16.4126 80.8165 16.4625 80.8985C16.5177 80.9907 17.7249 81.0486 19.5958 81.0486C22.9195 81.0486 22.8681 81.0588 25.3372 79.8604C26.4157 79.3368 26.8376 79.4628 26.8922 80.3233L26.9361 81.0211L29.1591 81.0761C30.3823 81.1061 31.4976 81.1046 31.6385 81.0723C31.9435 81.0023 32.0463 45.3755 31.7432 44.7954C31.5707 44.4658 26.9705 44.3548 26.4458 44.6675ZM51.715 54.5399C51.4737 54.6031 51.0372 54.6625 50.7444 54.6721C49.8451 54.7021 48.1707 55.2938 47.2534 55.9062C47.0526 56.0404 46.6835 56.1953 46.4337 56.2508C46 56.3468 44.5637 57.6591 43.3042 59.1103C42.7249 59.7773 42.5849 60.0268 42.2549 60.98C41.5262 63.0856 41.5318 63.02 41.5842 68.6338L41.6332 73.9344L42.0338 75.1293C42.2545 75.7867 42.4986 76.3899 42.5769 76.47C42.6551 76.5497 42.7192 76.7253 42.7192 76.86C42.7192 77.0767 43.1901 77.6307 44.1791 78.5771C44.3511 78.7422 44.7306 79.124 45.0219 79.4261C45.6781 80.1051 47.3057 81.0486 47.8224 81.0486C48.0336 81.0486 48.4361 81.1234 48.7175 81.2147C50.9834 81.9516 54.5984 81.9733 56.7616 81.2629C57.1236 81.1442 57.6346 81.0472 57.8971 81.0477C58.1597 81.0481 58.5203 80.9642 58.6985 80.8614C59.2542 80.5395 61.2029 78.9869 61.6498 78.5091C61.8845 78.2581 62.1202 78.053 62.1735 78.053C62.3818 78.053 63.1785 76.7379 63.269 76.2442C63.3845 75.6153 63.1026 75.2949 62.3059 75.1491C62.017 75.096 61.523 74.9271 61.209 74.7736C60.8951 74.6197 60.3417 74.3504 59.9797 74.1742C59.6177 73.9986 59.2057 73.7712 59.0643 73.6699C58.8413 73.5101 58.7074 73.5898 58.0645 74.2655C57.6563 74.6945 57.1962 75.0864 57.0421 75.1366C56.8879 75.1868 56.7616 75.2871 56.7616 75.36C56.7616 75.6148 55.6595 76.5994 55.0792 76.8629C53.0382 77.791 50.6973 77.3006 48.7779 75.5429C47.5414 74.4107 47.3911 73.9947 47.2907 71.4305C47.1804 68.6005 46.1301 68.9176 55.619 68.9176C60.8791 68.9176 63.7535 68.864 63.9388 68.7626C64.2664 68.5826 64.3663 63.8723 64.067 62.7024C63.7427 61.4326 63.1021 60.034 62.576 59.4462C62.2744 59.1093 62.0278 58.771 62.0278 58.6952C62.0278 58.3492 59.8666 56.4791 59.102 56.1639C58.6598 55.981 58.2648 55.7937 58.2243 55.7474C57.5511 54.9723 53.1725 54.1601 51.715 54.5399ZM83.2257 54.4501C83.1922 54.4834 82.5809 54.5829 81.8672 54.6717C80.3234 54.8637 79.837 55.0071 78.4836 55.6678C77.9208 55.9424 77.3278 56.2049 77.1661 56.2508C76.8918 56.329 75.2985 57.8145 74.9733 58.2956C74.8927 58.4144 74.5811 58.8246 74.2804 59.2068C73.8552 59.7478 73.6449 60.2444 73.3296 61.4515C72.6616 64.0118 72.7654 74.8571 73.4621 75.2982C73.529 75.3402 73.5837 75.4918 73.5837 75.6342C73.5837 76.1452 74.5604 77.8262 75.061 78.1756C75.3339 78.3662 75.6167 78.636 75.6893 78.7745C76.0575 79.4796 78.4945 81.0486 79.2209 81.0486C79.4792 81.0486 79.9704 81.1495 80.3121 81.273C80.6543 81.3966 81.1196 81.4975 81.3459 81.4975C81.5726 81.4975 81.7984 81.565 81.8483 81.6476C81.9025 81.7373 82.8708 81.7972 84.2618 81.7972C85.6528 81.7972 86.621 81.7373 86.6753 81.6476C86.7252 81.565 86.984 81.4975 87.2513 81.4975C87.5181 81.4975 87.973 81.3966 88.2619 81.273C88.5509 81.1495 89.0029 81.0433 89.2669 81.0375C89.5313 81.0313 89.9447 80.8976 90.1861 80.7402C90.4274 80.5824 90.7564 80.3928 90.9172 80.3179C91.0784 80.2436 91.7034 79.706 92.3068 79.1235C92.9102 78.541 93.4711 78.0617 93.5527 78.0588C93.7832 78.0501 94.6477 76.4782 94.6477 76.0685C94.6477 75.6037 94.2758 75.2712 93.622 75.1515C93.3391 75.0999 92.4836 74.7389 91.7199 74.3494C90.9568 73.96 90.286 73.6187 90.229 73.5907C90.1724 73.5628 89.7708 73.9151 89.3367 74.3736C88.903 74.8325 88.4557 75.2099 88.343 75.2133C88.2303 75.2162 87.9541 75.4913 87.7293 75.8238C86.3773 77.8238 82.5219 77.7572 80.2692 75.695C78.5671 74.1361 78.5016 73.8137 78.5812 67.4292L78.6368 63.0016L79.1341 62.0562C80.24 59.9534 81.5712 59.1827 84.0954 59.1827C86.5249 59.1827 87.7118 59.8545 89.1241 62.0282C89.6383 62.8202 90.4387 62.8322 91.7991 62.0687C92.3601 61.7536 93.053 61.3829 93.3391 61.2449C94.6943 60.59 94.8353 60.1445 94.0552 58.9814C93.07 57.5124 92.0145 56.5852 90.804 56.1258C90.4203 55.9796 89.8241 55.7069 89.48 55.5196C88.2855 54.8695 83.6113 54.0703 83.2257 54.4501ZM112.627 54.4501C112.594 54.4834 111.983 54.5829 111.269 54.6717C109.737 54.8623 109.251 55.0037 107.885 55.6581C107.323 55.9284 106.697 56.2165 106.496 56.2991C106.058 56.4791 104.448 57.8169 104.448 58.0012C104.448 58.0727 104.166 58.5191 103.822 58.994C102.329 61.0519 102.327 61.062 102.327 68.3182V74.5338L103.189 76.2934C103.663 77.2611 104.105 78.053 104.172 78.053C104.238 78.053 104.64 78.3995 105.065 78.8223C105.938 79.6915 107.283 80.7489 107.515 80.7489C107.601 80.7489 107.785 80.8093 107.924 80.8826C108.064 80.9565 108.54 81.0945 108.983 81.1891C109.425 81.2841 110.116 81.4328 110.519 81.5192C111.556 81.7422 115.244 81.8498 115.857 81.6746C117.002 81.3474 117.863 81.1471 118.407 81.0815C119.232 80.9816 121.466 79.7156 121.636 79.2514C121.681 79.1278 122.015 78.7905 122.379 78.5023C123.303 77.7692 123.843 76.8672 124.347 75.2177L124.781 73.7968V68.364C124.781 64.8404 124.723 62.6802 124.615 62.2174C124.226 60.5422 123.965 59.8444 123.545 59.3555C123.299 59.0698 122.967 58.6248 122.806 58.3666C122.4 57.716 120.981 56.3985 120.539 56.2624C120.337 56.2001 119.778 55.9371 119.295 55.6774C117.89 54.9221 113.052 54.0317 112.627 54.4501ZM144.894 55.1446C144.491 55.189 144.018 55.3068 143.843 55.4067C143.667 55.5066 143.416 55.5882 143.284 55.5882C143.152 55.5882 142.946 55.6895 142.825 55.8126C142.705 55.9361 142.429 56.0742 142.214 56.119C141.998 56.1644 141.493 56.342 141.091 56.5138C140.043 56.9617 139.637 56.9544 139.588 56.4868C139.567 56.2812 139.514 55.8936 139.472 55.6258L139.395 55.1393H137.157C135.21 55.1393 134.89 55.1731 134.692 55.4014C134.49 55.6335 134.464 57.0794 134.462 68.2076C134.459 81.8194 134.432 81.3551 135.224 81.137C135.394 81.0906 136.6 81.0515 137.907 81.0506L140.281 81.0486L140.328 72.3244C140.354 67.5267 140.43 63.3988 140.498 63.1517C140.78 62.1141 142.944 59.9317 143.691 59.9317C143.82 59.9317 143.966 59.8641 144.016 59.7816C144.344 59.2387 146.925 59.7691 148.043 60.6088C150.174 62.2102 150.225 62.492 150.229 72.599C150.231 77.2186 150.26 81.0264 150.293 81.0607C150.326 81.0954 151.594 81.0897 153.109 81.0486L155.865 80.9733L155.938 72.2124C156.016 62.7478 155.97 63.27 156.834 62.1778C158.003 60.702 158.25 60.4747 159.133 60.0639C160.094 59.6166 161.807 59.4486 162.008 59.7816C162.058 59.8641 162.26 59.9317 162.458 59.9317C163.108 59.9317 165.004 61.4447 165.006 61.9645C165.007 62.0533 165.172 62.284 165.372 62.4775C165.574 62.671 165.738 62.9486 165.738 63.0938C165.738 63.2396 165.804 63.4003 165.884 63.451C165.979 63.5108 166.031 66.6227 166.031 72.2959V81.0486L166.653 81.0496C166.994 81.0506 168.163 81.0568 169.249 81.0646C170.335 81.0718 171.339 81.0713 171.479 81.0631C172 81.0332 171.816 63.4471 171.279 61.9534C170.887 60.8627 170.271 59.6479 170.016 59.4612C169.863 59.3492 169.611 59.0572 169.456 58.8125C168.877 57.8956 167.023 56.3748 166.323 56.244C166.042 56.1914 165.746 56.0963 165.665 56.0326C164.187 54.8623 158.805 54.7947 156.737 55.9202C156.493 56.0529 156.05 56.2083 155.752 56.2657C155.443 56.3251 154.944 56.6089 154.587 56.9293C153.341 58.0461 153.214 58.0548 151.975 57.0997C151.451 56.6953 150.762 56.2928 150.444 56.2049C150.127 56.1171 149.735 55.953 149.575 55.8401C148.772 55.2778 146.606 54.9559 144.894 55.1446ZM55.3541 59.5678C57.6341 60.673 59.5281 64.1594 58.2342 64.8684C57.7364 65.1411 47.6239 65.075 47.3991 64.7979C46.9216 64.2087 47.7771 61.4351 48.6694 60.6798C49.0574 60.3511 50.5083 59.3893 50.7642 59.2908C51.5076 59.0046 54.5739 59.1899 55.3541 59.5678ZM115.902 59.4303C117.266 60.1528 118.115 61.0012 118.801 62.3279C119.686 64.0407 119.227 74.3557 118.235 75.0208C118.041 75.1511 117.569 75.5666 117.186 75.944C115.17 77.9324 111.685 77.7205 109.416 75.472C107.877 73.9464 107.915 74.1197 107.85 68.2926L107.794 63.3993L108.272 62.4515C108.846 61.3149 110.14 59.9361 111.037 59.506C111.912 59.0862 115.156 59.036 115.902 59.4303ZM22.0837 59.7999C23.9579 60.4018 25.4559 61.7661 26.0046 63.3718C26.3058 64.2535 26.2578 72.015 25.9448 73.0077C25.6148 74.055 25.0864 74.8895 24.6447 75.0613C24.4444 75.1395 24.1342 75.3455 23.9551 75.5202C21.7688 77.6505 16.9561 76.6669 15.4656 73.7848C14.5252 71.9663 14.494 63.6464 15.4241 62.6556C15.5546 62.5166 15.9558 62.0263 16.3155 61.5663C16.9744 60.7242 18.1326 59.9317 18.7044 59.9317C18.8694 59.9317 19.0457 59.8641 19.0952 59.7816C19.2182 59.5784 21.4356 59.5915 22.0837 59.7999Z"/>
</mask>
<path fill-rule="evenodd" clip-rule="evenodd" d="M88.4307 0.274415C87.2932 0.628656 85.8706 1.87912 85.8706 2.52534V2.8709H88.3237C92.1805 2.8709 92.1974 2.8931 92.1319 7.86164L92.0876 11.253L91.629 11.7221L91.1698 12.1917L88.3373 12.2115L85.5053 12.2313V13.6907V15.1501L91.4296 15.1883C97.2355 15.2259 97.3623 15.2331 97.7965 15.5502C98.5229 16.0806 98.8816 17.0116 98.9481 18.5386L99.0065 19.8696L101.165 19.9111C103.722 19.9604 104.285 19.818 105.467 18.8253C106.851 17.6626 106.775 18.1636 106.782 10.1512L106.788 3.1291L106.331 2.36367C105.67 1.25751 104.959 0.664369 103.884 0.321711C102.629 -0.0783787 89.6907 -0.117953 88.4307 0.274415ZM72.4863 7.95624C71.5912 8.33557 71.4662 8.71201 71.4158 11.1777C71.3314 15.3321 71.1509 15.168 75.752 15.1168L79.3576 15.0768L79.5612 14.6424C79.8459 14.0334 79.8459 9.05274 79.5612 8.58557C79.1313 7.88046 73.7873 7.40557 72.4863 7.95624ZM110.568 16.5512C109.337 17.1115 109.147 17.8171 109.145 21.8387C109.141 27.5003 109.069 27.4327 115.13 27.4327C121.075 27.4327 120.977 27.5249 120.977 21.9159C120.977 16.2553 121.079 16.3504 115.053 16.3644C112.239 16.3712 110.836 16.4295 110.568 16.5512ZM57.3466 24.0332C56.598 24.6659 56.4486 28.5264 57.1406 29.368L57.5191 29.8289H60.0725C63.4896 29.8289 63.3439 29.9621 63.3439 26.8333C63.3439 23.7224 63.4688 23.8363 60.0683 23.843C58.3011 23.8464 57.5017 23.9024 57.3466 24.0332ZM98.9448 27.3835C98.4847 29.2899 96.8528 30.23 94.2253 30.1011L92.9017 30.0365L92.8135 30.6441C92.765 30.9781 92.7466 33.0374 92.7725 35.2203C92.8428 41.2293 92.5793 41.0546 101.376 40.9147C105.731 40.8452 106.317 40.8075 106.638 40.5744C106.837 40.4301 107.112 40.3123 107.249 40.3123C107.967 40.3123 108.13 38.9967 108.073 33.6517C108.015 28.0794 108.072 28.3888 106.958 27.6248L106.13 27.0582L102.589 27.009L99.047 26.9598L98.9448 27.3835ZM77.7846 31.3473C76.4874 32.3376 76.5727 38.019 77.894 38.6353C78.528 38.9311 84.027 38.8809 84.4829 38.5749C85.6524 37.7907 85.6811 31.7753 84.5178 31.3907C84.3768 31.3444 84.2618 31.2435 84.2618 31.1668C84.2618 30.8415 78.2267 31.0094 77.7846 31.3473ZM26.4458 44.6675C26.2087 44.8089 26.1894 45.2592 26.1875 50.691C26.1852 57.2706 26.2007 57.1673 25.2797 56.6803C24.9355 56.4984 24.4562 56.3048 24.2148 56.2503C23.9735 56.1953 23.3484 55.94 22.8252 55.6823C21.436 54.9979 18.3711 54.9154 16.6817 55.5167C16.0783 55.7315 15.2553 56.0129 14.8532 56.1412C13.8369 56.4665 11.4159 58.3704 11.4159 58.8444C11.4159 58.8989 11.2274 59.1494 10.9974 59.4003C10.3931 60.0601 9.89292 61.1127 9.45925 62.6406C9.26316 63.3308 9.22168 64.268 9.22168 67.9905C9.22168 73.1274 9.36027 74.2119 10.2017 75.6424C10.4671 76.0936 10.6844 76.5434 10.6844 76.6419C10.6844 76.8103 11.786 78.0091 12.3941 78.5023C12.5463 78.6259 12.9776 78.9816 13.3528 79.2924C14.1325 79.9401 15.6475 80.7489 16.0798 80.7489C16.2405 80.7489 16.4126 80.8165 16.4625 80.8985C16.5177 80.9907 17.7249 81.0486 19.5958 81.0486C22.9195 81.0486 22.8681 81.0588 25.3372 79.8604C26.4157 79.3368 26.8376 79.4628 26.8922 80.3233L26.9361 81.0211L29.1591 81.0761C30.3823 81.1061 31.4976 81.1046 31.6385 81.0723C31.9435 81.0023 32.0463 45.3755 31.7432 44.7954C31.5707 44.4658 26.9705 44.3548 26.4458 44.6675ZM51.715 54.5399C51.4737 54.6031 51.0372 54.6625 50.7444 54.6721C49.8451 54.7021 48.1707 55.2938 47.2534 55.9062C47.0526 56.0404 46.6835 56.1953 46.4337 56.2508C46 56.3468 44.5637 57.6591 43.3042 59.1103C42.7249 59.7773 42.5849 60.0268 42.2549 60.98C41.5262 63.0856 41.5318 63.02 41.5842 68.6338L41.6332 73.9344L42.0338 75.1293C42.2545 75.7867 42.4986 76.3899 42.5769 76.47C42.6551 76.5497 42.7192 76.7253 42.7192 76.86C42.7192 77.0767 43.1901 77.6307 44.1791 78.5771C44.3511 78.7422 44.7306 79.124 45.0219 79.4261C45.6781 80.1051 47.3057 81.0486 47.8224 81.0486C48.0336 81.0486 48.4361 81.1234 48.7175 81.2147C50.9834 81.9516 54.5984 81.9733 56.7616 81.2629C57.1236 81.1442 57.6346 81.0472 57.8971 81.0477C58.1597 81.0481 58.5203 80.9642 58.6985 80.8614C59.2542 80.5395 61.2029 78.9869 61.6498 78.5091C61.8845 78.2581 62.1202 78.053 62.1735 78.053C62.3818 78.053 63.1785 76.7379 63.269 76.2442C63.3845 75.6153 63.1026 75.2949 62.3059 75.1491C62.017 75.096 61.523 74.9271 61.209 74.7736C60.8951 74.6197 60.3417 74.3504 59.9797 74.1742C59.6177 73.9986 59.2057 73.7712 59.0643 73.6699C58.8413 73.5101 58.7074 73.5898 58.0645 74.2655C57.6563 74.6945 57.1962 75.0864 57.0421 75.1366C56.8879 75.1868 56.7616 75.2871 56.7616 75.36C56.7616 75.6148 55.6595 76.5994 55.0792 76.8629C53.0382 77.791 50.6973 77.3006 48.7779 75.5429C47.5414 74.4107 47.3911 73.9947 47.2907 71.4305C47.1804 68.6005 46.1301 68.9176 55.619 68.9176C60.8791 68.9176 63.7535 68.864 63.9388 68.7626C64.2664 68.5826 64.3663 63.8723 64.067 62.7024C63.7427 61.4326 63.1021 60.034 62.576 59.4462C62.2744 59.1093 62.0278 58.771 62.0278 58.6952C62.0278 58.3492 59.8666 56.4791 59.102 56.1639C58.6598 55.981 58.2648 55.7937 58.2243 55.7474C57.5511 54.9723 53.1725 54.1601 51.715 54.5399ZM83.2257 54.4501C83.1922 54.4834 82.5809 54.5829 81.8672 54.6717C80.3234 54.8637 79.837 55.0071 78.4836 55.6678C77.9208 55.9424 77.3278 56.2049 77.1661 56.2508C76.8918 56.329 75.2985 57.8145 74.9733 58.2956C74.8927 58.4144 74.5811 58.8246 74.2804 59.2068C73.8552 59.7478 73.6449 60.2444 73.3296 61.4515C72.6616 64.0118 72.7654 74.8571 73.4621 75.2982C73.529 75.3402 73.5837 75.4918 73.5837 75.6342C73.5837 76.1452 74.5604 77.8262 75.061 78.1756C75.3339 78.3662 75.6167 78.636 75.6893 78.7745C76.0575 79.4796 78.4945 81.0486 79.2209 81.0486C79.4792 81.0486 79.9704 81.1495 80.3121 81.273C80.6543 81.3966 81.1196 81.4975 81.3459 81.4975C81.5726 81.4975 81.7984 81.565 81.8483 81.6476C81.9025 81.7373 82.8708 81.7972 84.2618 81.7972C85.6528 81.7972 86.621 81.7373 86.6753 81.6476C86.7252 81.565 86.984 81.4975 87.2513 81.4975C87.5181 81.4975 87.973 81.3966 88.2619 81.273C88.5509 81.1495 89.0029 81.0433 89.2669 81.0375C89.5313 81.0313 89.9447 80.8976 90.1861 80.7402C90.4274 80.5824 90.7564 80.3928 90.9172 80.3179C91.0784 80.2436 91.7034 79.706 92.3068 79.1235C92.9102 78.541 93.4711 78.0617 93.5527 78.0588C93.7832 78.0501 94.6477 76.4782 94.6477 76.0685C94.6477 75.6037 94.2758 75.2712 93.622 75.1515C93.3391 75.0999 92.4836 74.7389 91.7199 74.3494C90.9568 73.96 90.286 73.6187 90.229 73.5907C90.1724 73.5628 89.7708 73.9151 89.3367 74.3736C88.903 74.8325 88.4557 75.2099 88.343 75.2133C88.2303 75.2162 87.9541 75.4913 87.7293 75.8238C86.3773 77.8238 82.5219 77.7572 80.2692 75.695C78.5671 74.1361 78.5016 73.8137 78.5812 67.4292L78.6368 63.0016L79.1341 62.0562C80.24 59.9534 81.5712 59.1827 84.0954 59.1827C86.5249 59.1827 87.7118 59.8545 89.1241 62.0282C89.6383 62.8202 90.4387 62.8322 91.7991 62.0687C92.3601 61.7536 93.053 61.3829 93.3391 61.2449C94.6943 60.59 94.8353 60.1445 94.0552 58.9814C93.07 57.5124 92.0145 56.5852 90.804 56.1258C90.4203 55.9796 89.8241 55.7069 89.48 55.5196C88.2855 54.8695 83.6113 54.0703 83.2257 54.4501ZM112.627 54.4501C112.594 54.4834 111.983 54.5829 111.269 54.6717C109.737 54.8623 109.251 55.0037 107.885 55.6581C107.323 55.9284 106.697 56.2165 106.496 56.2991C106.058 56.4791 104.448 57.8169 104.448 58.0012C104.448 58.0727 104.166 58.5191 103.822 58.994C102.329 61.0519 102.327 61.062 102.327 68.3182V74.5338L103.189 76.2934C103.663 77.2611 104.105 78.053 104.172 78.053C104.238 78.053 104.64 78.3995 105.065 78.8223C105.938 79.6915 107.283 80.7489 107.515 80.7489C107.601 80.7489 107.785 80.8093 107.924 80.8826C108.064 80.9565 108.54 81.0945 108.983 81.1891C109.425 81.2841 110.116 81.4328 110.519 81.5192C111.556 81.7422 115.244 81.8498 115.857 81.6746C117.002 81.3474 117.863 81.1471 118.407 81.0815C119.232 80.9816 121.466 79.7156 121.636 79.2514C121.681 79.1278 122.015 78.7905 122.379 78.5023C123.303 77.7692 123.843 76.8672 124.347 75.2177L124.781 73.7968V68.364C124.781 64.8404 124.723 62.6802 124.615 62.2174C124.226 60.5422 123.965 59.8444 123.545 59.3555C123.299 59.0698 122.967 58.6248 122.806 58.3666C122.4 57.716 120.981 56.3985 120.539 56.2624C120.337 56.2001 119.778 55.9371 119.295 55.6774C117.89 54.9221 113.052 54.0317 112.627 54.4501ZM144.894 55.1446C144.491 55.189 144.018 55.3068 143.843 55.4067C143.667 55.5066 143.416 55.5882 143.284 55.5882C143.152 55.5882 142.946 55.6895 142.825 55.8126C142.705 55.9361 142.429 56.0742 142.214 56.119C141.998 56.1644 141.493 56.342 141.091 56.5138C140.043 56.9617 139.637 56.9544 139.588 56.4868C139.567 56.2812 139.514 55.8936 139.472 55.6258L139.395 55.1393H137.157C135.21 55.1393 134.89 55.1731 134.692 55.4014C134.49 55.6335 134.464 57.0794 134.462 68.2076C134.459 81.8194 134.432 81.3551 135.224 81.137C135.394 81.0906 136.6 81.0515 137.907 81.0506L140.281 81.0486L140.328 72.3244C140.354 67.5267 140.43 63.3988 140.498 63.1517C140.78 62.1141 142.944 59.9317 143.691 59.9317C143.82 59.9317 143.966 59.8641 144.016 59.7816C144.344 59.2387 146.925 59.7691 148.043 60.6088C150.174 62.2102 150.225 62.492 150.229 72.599C150.231 77.2186 150.26 81.0264 150.293 81.0607C150.326 81.0954 151.594 81.0897 153.109 81.0486L155.865 80.9733L155.938 72.2124C156.016 62.7478 155.97 63.27 156.834 62.1778C158.003 60.702 158.25 60.4747 159.133 60.0639C160.094 59.6166 161.807 59.4486 162.008 59.7816C162.058 59.8641 162.26 59.9317 162.458 59.9317C163.108 59.9317 165.004 61.4447 165.006 61.9645C165.007 62.0533 165.172 62.284 165.372 62.4775C165.574 62.671 165.738 62.9486 165.738 63.0938C165.738 63.2396 165.804 63.4003 165.884 63.451C165.979 63.5108 166.031 66.6227 166.031 72.2959V81.0486L166.653 81.0496C166.994 81.0506 168.163 81.0568 169.249 81.0646C170.335 81.0718 171.339 81.0713 171.479 81.0631C172 81.0332 171.816 63.4471 171.279 61.9534C170.887 60.8627 170.271 59.6479 170.016 59.4612C169.863 59.3492 169.611 59.0572 169.456 58.8125C168.877 57.8956 167.023 56.3748 166.323 56.244C166.042 56.1914 165.746 56.0963 165.665 56.0326C164.187 54.8623 158.805 54.7947 156.737 55.9202C156.493 56.0529 156.05 56.2083 155.752 56.2657C155.443 56.3251 154.944 56.6089 154.587 56.9293C153.341 58.0461 153.214 58.0548 151.975 57.0997C151.451 56.6953 150.762 56.2928 150.444 56.2049C150.127 56.1171 149.735 55.953 149.575 55.8401C148.772 55.2778 146.606 54.9559 144.894 55.1446ZM55.3541 59.5678C57.6341 60.673 59.5281 64.1594 58.2342 64.8684C57.7364 65.1411 47.6239 65.075 47.3991 64.7979C46.9216 64.2087 47.7771 61.4351 48.6694 60.6798C49.0574 60.3511 50.5083 59.3893 50.7642 59.2908C51.5076 59.0046 54.5739 59.1899 55.3541 59.5678ZM115.902 59.4303C117.266 60.1528 118.115 61.0012 118.801 62.3279C119.686 64.0407 119.227 74.3557 118.235 75.0208C118.041 75.1511 117.569 75.5666 117.186 75.944C115.17 77.9324 111.685 77.7205 109.416 75.472C107.877 73.9464 107.915 74.1197 107.85 68.2926L107.794 63.3993L108.272 62.4515C108.846 61.3149 110.14 59.9361 111.037 59.506C111.912 59.0862 115.156 59.036 115.902 59.4303ZM22.0837 59.7999C23.9579 60.4018 25.4559 61.7661 26.0046 63.3718C26.3058 64.2535 26.2578 72.015 25.9448 73.0077C25.6148 74.055 25.0864 74.8895 24.6447 75.0613C24.4444 75.1395 24.1342 75.3455 23.9551 75.5202C21.7688 77.6505 16.9561 76.6669 15.4656 73.7848C14.5252 71.9663 14.494 63.6464 15.4241 62.6556C15.5546 62.5166 15.9558 62.0263 16.3155 61.5663C16.9744 60.7242 18.1326 59.9317 18.7044 59.9317C18.8694 59.9317 19.0457 59.8641 19.0952 59.7816C19.2182 59.5784 21.4356 59.5915 22.0837 59.7999Z" fill="#276387" stroke="white" mask="url(#path-1-inside-1)"/>
<mask id="path-2-inside-2" fill="white">
<path fill-rule="evenodd" clip-rule="evenodd" d="M111.061 6.99001C110.285 7.33556 110.144 7.89443 110.227 10.3123L110.297 12.3808L110.739 12.7925L111.181 13.2042H113.711H116.241L116.671 12.7447L117.101 12.2853V10.0865C117.101 6.86308 116.993 6.76077 113.605 6.77042C112.15 6.77428 111.4 6.83943 111.061 6.99001ZM68.2164 18.7572C67.3844 19.303 67.2647 19.9213 67.3189 23.4024C67.3929 28.1373 67.3052 28.062 72.6577 27.9993L76.3397 27.9563L76.7323 27.5818C77.8801 26.4873 77.849 19.6751 76.6918 18.7427C76.1167 18.2799 68.9258 18.2919 68.2164 18.7572ZM13.7524 95.8094C13.6737 96.0208 13.6096 97.0614 13.6096 98.1221C13.6096 100.246 13.5318 100.437 12.87 99.9353C11.091 98.5888 8.08504 99.6429 7.36666 101.865C5.82525 106.634 9.41433 110.301 13.0892 107.712C13.8953 107.144 13.9023 107.145 13.9023 107.778C13.9023 108.381 14.3831 108.62 15.0101 108.327C15.4121 108.14 15.3834 108.83 15.365 99.8494C15.3556 95.2651 15.3905 95.4316 14.4472 95.4277C13.9881 95.4258 13.8712 95.49 13.7524 95.8094ZM79.6172 97.3181C79.4965 97.3702 79.4343 97.7428 79.4343 98.4156C79.4343 99.5256 79.3584 99.6115 78.3694 99.6168C78.1399 99.6178 77.9249 99.7191 77.8764 99.849C77.7524 100.179 78.2422 100.667 78.6966 100.667C79.3989 100.667 79.4343 100.821 79.4371 103.88C79.4399 107.656 79.7958 108.386 81.7157 108.555C83.029 108.67 83.7087 108.33 83.6484 107.588L83.6036 107.032L82.7858 107.082C82.033 107.128 81.9321 107.095 81.506 106.659L81.0436 106.185V103.606C81.0436 100.602 81.0143 100.667 82.3601 100.667C83.3533 100.667 83.6767 100.514 83.6767 100.047C83.6767 99.6554 83.4085 99.5565 82.4369 99.5888C81.2396 99.6289 81.1308 99.5295 81.0436 98.3137L80.9705 97.2974L80.3855 97.2684C80.0636 97.252 79.718 97.2747 79.6172 97.3181ZM155.974 97.3215C155.857 97.3702 155.791 97.7124 155.791 98.2727C155.791 99.2988 155.567 99.6187 154.845 99.6187C154.299 99.6187 154.095 99.9213 154.334 100.378C154.444 100.589 154.642 100.667 155.062 100.667C155.791 100.667 155.774 100.592 155.825 104.112C155.881 108.062 156.801 109.193 159.361 108.459C160.635 108.094 160.487 106.916 159.183 107.047C158.427 107.123 158.314 107.094 157.946 106.735L157.54 106.34L157.58 103.541L157.619 100.742L158.759 100.667C159.878 100.594 160.171 100.448 160.177 99.9643C160.181 99.6704 159.911 99.5869 158.962 99.5893C157.545 99.5927 157.546 99.5936 157.546 98.4909C157.546 97.335 156.973 96.9088 155.974 97.3215ZM25.6585 99.4744C24.9665 99.6149 23.5693 100.32 23.3054 100.661C22.6657 101.489 22.4725 102.232 22.4659 103.887C22.4574 106.131 22.4512 106.114 23.7423 107.543C25.3347 109.305 31.2698 108.633 30.1479 106.817C30.0343 106.633 29.9122 106.631 29.3093 106.801C26.293 107.649 24.1468 106.765 24.1425 104.673C24.1416 104.189 23.8663 104.227 27.6119 104.199C30.6956 104.176 30.6405 104.2 30.6061 102.911C30.5377 100.376 28.4311 98.9122 25.6585 99.4744ZM41.3295 99.5381C41.0075 99.6472 40.4918 99.8745 40.1831 100.042C39.5967 100.362 39.2083 100.334 39.2083 99.9735C39.2083 99.6984 38.5102 99.4281 38.0826 99.5377C37.5952 99.6631 37.5872 99.7804 37.6315 105.983L37.6725 111.675H38.4767H39.2813L39.3544 109.703C39.4392 107.415 39.4308 107.434 40.152 107.935C43.6623 110.374 47.4626 105.756 45.5799 101.337C44.92 99.7877 42.9939 98.9725 41.3295 99.5381ZM55.0791 99.486C53.6805 99.8123 52.9584 100.222 52.9584 100.689C52.9584 101.299 53.2271 101.343 54.2532 100.901C56.374 99.987 58.078 100.608 58.078 102.294C58.078 103.215 57.8871 103.36 56.6615 103.37C53.7102 103.392 52.8264 103.842 52.504 105.486C52.0161 107.973 55.2827 109.617 57.5001 108C58.0125 107.627 58.3161 107.626 58.4113 107.999C58.4999 108.345 59.1947 108.563 59.527 108.348C59.8791 108.121 59.9494 101.93 59.61 101.014C59.1414 99.75 57.0169 99.0338 55.0791 99.486ZM70.4385 99.5714C70.1971 99.7042 69.8427 99.9373 69.6508 100.09C69.1742 100.469 68.9027 100.44 68.9027 100.01C68.9027 99.6163 68.4149 99.4537 67.7304 99.6192L67.3665 99.7071V103.965V108.223L67.7691 108.368C68.0274 108.461 68.3149 108.461 68.5732 108.368L68.9758 108.224L69.0489 105.431L69.1219 102.638L69.5608 102.004C70.241 101.02 70.6959 100.742 71.6245 100.742C72.1755 100.742 72.4668 100.672 72.5625 100.517C73.1088 99.6327 71.574 98.9493 70.4385 99.5714ZM92.1605 99.5275C90.5772 99.888 89.6764 100.584 90.1567 101.076C90.366 101.29 90.457 101.28 91.164 100.965C93.5813 99.8895 95.6808 100.842 95.3136 102.848L95.2193 103.363L94.0192 103.368C90.9939 103.38 90.0704 103.803 89.6603 105.361C88.9712 107.982 91.9451 109.447 94.8309 107.908C95.3541 107.629 95.5413 107.585 95.5851 107.733C95.7836 108.406 95.8274 108.455 96.2337 108.455C96.987 108.455 97.0115 108.324 96.9611 104.534C96.9097 100.688 96.9111 100.692 95.9462 100.022C94.9784 99.3494 93.684 99.1805 92.1605 99.5275ZM107.898 99.6134C107.502 99.7756 107.11 99.9778 107.027 100.063C106.786 100.309 106.057 100.254 106.057 99.9894C106.057 99.6945 105.407 99.4421 104.949 99.5599C104.539 99.6656 104.562 99.3398 104.581 104.851C104.594 108.484 104.585 108.448 105.406 108.453C106.173 108.456 106.203 108.337 106.203 105.302V102.507L106.721 101.812C107.873 100.269 109.362 100.194 110.128 101.64C110.318 101.998 110.382 102.718 110.442 105.157L110.518 108.224L110.9 108.361C112.053 108.775 112.196 108.379 112.199 104.781C112.201 102.166 112.216 102.109 113.141 101.243C113.963 100.473 115.113 100.372 115.676 101.021C116.172 101.593 116.297 102.46 116.297 105.359C116.297 108.401 116.313 108.458 117.201 108.453C117.974 108.447 117.979 108.424 117.969 104.828C117.958 100.948 117.896 100.687 116.821 99.958C115.687 99.1887 114.32 99.1689 113.225 99.9064C112.585 100.337 111.776 100.662 111.691 100.521C111.184 99.681 109.004 99.1593 107.898 99.6134ZM128.218 99.4846C123.821 100.501 123.71 107.263 128.072 108.444C130.094 108.992 132.826 108.253 132.826 107.158V106.617L132.137 106.714C131.758 106.767 131.383 106.877 131.303 106.959C130.965 107.304 128.555 107.112 127.793 106.678C126.632 106.017 126.227 104.268 127.231 104.253C127.532 104.248 128.946 104.23 130.372 104.211C132.083 104.19 133.022 104.12 133.133 104.007C133.628 103.5 132.886 100.702 132.151 100.305C131.999 100.222 131.71 100.046 131.509 99.9122C130.719 99.3881 129.385 99.2148 128.218 99.4846ZM143.932 99.5222C143.645 99.6163 143.236 99.8118 143.023 99.9556C142.492 100.316 142.12 100.284 141.689 99.8432C141.293 99.4378 141.009 99.3823 140.569 99.6241C140.172 99.8412 140.123 108.209 140.517 108.364C141.734 108.842 141.895 108.501 141.895 105.44C141.895 102.024 142.276 101.166 144.013 100.668C145.811 100.153 146.329 101.131 146.429 105.232L146.502 108.224L146.884 108.361C147.094 108.436 147.44 108.453 147.652 108.399L148.039 108.3V104.975C148.039 101.062 147.951 100.662 146.972 100.07C145.787 99.3538 144.92 99.1979 143.932 99.5222ZM169.249 99.5227C166.848 100.191 166.104 101.263 166.104 104.055V105.871L166.66 106.699C168.288 109.121 171.811 109.279 173.961 107.026C175.274 105.65 175.361 102.045 174.116 100.628C173.287 99.6844 170.743 99.1067 169.249 99.5227ZM27.5567 100.586C28.5853 100.961 29.4592 102.839 28.7375 103.122C28.129 103.361 24.4471 103.218 24.3071 102.95C23.6264 101.648 25.9116 99.9855 27.5567 100.586ZM129.908 100.517C130.662 100.732 131.306 101.439 131.422 102.18C131.575 103.165 131.469 103.213 129.187 103.211C126.908 103.208 126.751 103.156 126.883 102.443C127.155 100.965 128.492 100.114 129.908 100.517ZM12.0974 100.829C13.3334 101.441 13.6105 102.021 13.6049 103.984C13.5997 105.96 13.5705 106.023 12.3501 106.656C9.99318 107.88 8.27124 105.996 8.91702 102.901C9.33137 100.916 10.6027 100.088 12.0974 100.829ZM43.0184 100.855C44.0507 101.567 44.5499 104.316 43.9225 105.835C43.4643 106.946 41.955 107.384 40.8388 106.731C40.489 106.526 40.1246 106.358 40.0294 106.358C39.361 106.358 39.0405 103.03 39.6217 102.127C40.5314 100.715 42.012 100.16 43.0184 100.855ZM171.705 100.801C173.018 101.487 173.545 103.318 173.031 105.409C172.485 107.626 168.446 107.652 167.928 105.442C167.155 102.142 169.278 99.5328 171.705 100.801ZM58.0728 104.551C58.3283 105.039 58.2105 106.358 57.9116 106.358C57.8385 106.358 57.5091 106.541 57.1786 106.765C55.5043 107.899 53.2718 106.496 54.4743 105.065C55.1013 104.318 57.7537 103.94 58.0728 104.551ZM95.2867 104.598C95.5823 105.728 95.4262 106.159 94.5377 106.667C92.5607 107.798 90.5555 106.759 91.6133 105.151C92.1817 104.288 95.0906 103.85 95.2867 104.598ZM14.0536 114.585C13.9693 114.747 13.9023 115.839 13.9023 117.057C13.9023 118.256 13.8769 119.238 13.8458 119.238C13.8142 119.238 13.3475 119.027 12.8083 118.768C11.5992 118.189 10.235 118.212 9.27009 118.827C8.96181 119.024 8.59649 119.227 8.4579 119.28C7.96437 119.466 7.31999 121.563 7.31999 122.982C7.31999 126.756 10.1492 128.675 13.0623 126.876C14.2045 126.171 14.195 126.173 14.195 126.64C14.195 127.376 15.1708 127.727 15.5441 127.126C15.7181 126.847 15.6818 114.922 15.5064 114.585C15.3961 114.374 15.1986 114.296 14.78 114.296C14.3614 114.296 14.1639 114.374 14.0536 114.585ZM152.99 115.19C152.7 115.435 152.433 115.795 152.396 115.99C152.201 117.032 153.115 117.409 153.553 116.467C153.831 115.87 154.825 115.697 155.215 116.179C156.26 117.469 158.573 117.104 158.944 115.59C159.169 114.672 158.135 114.388 157.775 115.269C157.587 115.73 157.498 115.793 157.036 115.793C156.678 115.793 156.269 115.626 155.751 115.269C154.721 114.559 153.77 114.532 152.99 115.19ZM116.988 116.131C116.81 116.267 116.733 116.601 116.703 117.366L116.662 118.414L116.028 118.501C114.808 118.668 114.846 119.39 116.088 119.653L116.662 119.775L116.744 122.689C116.825 125.583 116.888 126.054 117.28 126.676C118.016 127.845 121.123 127.752 121.123 126.56C121.123 125.933 120.998 125.861 120.042 125.939C118.553 126.061 118.474 125.88 118.524 122.471L118.564 119.762L119.697 119.68C120.931 119.59 121.174 119.458 121.099 118.918C121.053 118.585 120.978 118.56 119.807 118.489L118.564 118.414L118.523 117.441C118.47 116.133 117.764 115.531 116.988 116.131ZM24.9462 118.471C23.098 118.974 22.3447 119.747 21.8875 121.609C20.8665 125.771 24.3014 128.688 28.5306 127.25C30.0814 126.723 30.1512 125.265 28.6023 125.749C25.8626 126.604 23.6542 125.834 23.6372 124.016L23.6297 123.207L26.6635 123.166C30.2808 123.118 30.2177 123.15 29.9636 121.485C29.6058 119.137 27.3889 117.806 24.9462 118.471ZM43.231 118.471C38.9721 119.639 39.1687 126.855 43.4761 127.479C45.4611 127.766 47.5234 126.868 47.3725 125.782C47.308 125.321 46.8026 125.288 45.85 125.683C43.5473 126.64 41.9875 125.489 41.9875 122.832C41.9875 120.043 43.9616 118.737 46.1729 120.064C46.9719 120.543 47.2533 120.472 47.2533 119.791C47.2533 118.835 44.8186 118.036 43.231 118.471ZM55.8107 118.431C53.664 118.993 52.8528 119.869 52.4366 122.075C51.8431 125.218 53.689 127.529 56.7827 127.516C60.6225 127.501 62.5702 123.815 60.7507 120.005C60.2478 118.952 57.3497 118.029 55.8107 118.431ZM70.4385 118.773C69.3637 119.331 69.0823 119.347 68.9027 118.864C68.7481 118.448 67.9491 118.327 67.6154 118.669C67.2411 119.052 67.3792 126.965 67.7648 127.242C68.9404 128.085 69.195 127.523 69.195 124.089V121.173L69.7734 120.575C71.154 119.147 72.6992 119.295 73.148 120.898C73.2267 121.178 73.2908 122.668 73.2908 124.208C73.2908 127.262 73.3535 127.475 74.2515 127.475C74.967 127.475 75.0462 127.142 75.0462 124.127V121.328L75.6368 120.671C76.6762 119.517 77.7722 119.27 78.5533 120.016C79.084 120.522 79.1656 121.004 79.2504 124.15C79.3419 127.543 79.364 127.606 80.3888 127.409L80.8729 127.316L80.9776 126.174C81.1934 123.817 80.9389 120.554 80.4605 119.539C79.9113 118.374 77.627 118.098 75.9112 118.988L74.8058 119.561L74.3627 119.287C74.1195 119.137 73.7546 118.894 73.5524 118.747C72.8472 118.238 71.4482 118.249 70.4385 118.773ZM91.2828 118.466C91.082 118.527 90.5597 118.755 90.1228 118.974C89.2606 119.406 89.139 119.393 88.9373 118.849C88.7614 118.376 87.8658 118.33 87.6292 118.782C87.5283 118.976 87.4892 121.025 87.5146 124.805L87.5528 130.534L87.9271 130.749C88.2495 130.934 88.3603 130.935 88.7313 130.752L89.1621 130.541L89.2026 128.559C89.2479 126.354 89.221 126.394 90.2434 127.044C91.9663 128.141 94.1851 127.445 95.3178 125.453C96.155 123.98 95.8571 119.879 94.8724 119.324C94.7145 119.236 94.3326 119.008 94.0244 118.82C93.4262 118.454 91.956 118.264 91.2828 118.466ZM128.657 118.437C127.832 118.567 126.613 119.281 126.56 119.667C126.473 120.298 126.736 120.356 127.771 119.932C129.973 119.029 131.502 119.5 131.724 121.148C131.856 122.132 131.786 122.232 130.952 122.24C127.902 122.272 126.681 122.755 126.167 124.135C125.266 126.549 128.278 128.416 130.905 127.071C131.356 126.84 131.775 126.629 131.836 126.601C131.898 126.574 131.948 126.656 131.948 126.785C131.948 127.702 133.327 127.561 133.498 126.627C133.611 126.012 133.468 120.768 133.318 119.998C133.095 118.86 130.822 118.098 128.657 118.437ZM142.553 118.471C138.772 119.391 138.215 125.349 141.741 127.171C143.275 127.964 143.52 129.248 142.186 129.497C140.7 129.774 140.536 130.306 141.818 130.687C143.566 131.207 145.567 129.665 144.538 128.591C144.142 128.178 144.299 127.606 144.864 127.404C145.973 127.008 146.576 126.478 146.576 125.9C146.576 125.263 146.127 125.193 145.148 125.678C142.872 126.803 141.22 125.47 141.343 122.608C141.462 119.832 143.039 118.787 145.27 120.005C146.24 120.534 146.576 120.497 146.576 119.86C146.576 118.882 144.215 118.068 142.553 118.471ZM154.255 118.472C152.695 118.775 151.781 119.49 152.202 120.079C152.372 120.318 152.455 120.307 153.393 119.92C155.729 118.957 157.184 119.486 157.283 121.335L157.327 122.158L156.815 122.192C152.659 122.469 151.696 122.976 151.696 124.891C151.696 127.129 154.14 128.251 156.469 127.083C156.941 126.846 157.368 126.633 157.418 126.609C157.468 126.584 157.544 126.701 157.587 126.868C157.785 127.645 158.952 127.566 159.099 126.765C159.264 125.863 159.054 120.575 158.827 119.923C158.417 118.749 156.296 118.075 154.255 118.472ZM168.37 118.485C165.935 119.122 165.062 120.463 165.185 123.372C165.302 126.137 166.753 127.516 169.541 127.513C173.294 127.509 175.287 123.868 173.552 120.185C172.915 118.831 170.311 117.977 168.37 118.485ZM102.02 118.662C101.733 119.138 101.966 125.216 102.297 125.859C103.214 127.646 105.634 128.092 107.31 126.783C107.838 126.371 108.295 126.393 108.221 126.827C108.152 127.237 108.867 127.577 109.337 127.358L109.718 127.18L109.679 122.872L109.641 118.564H108.91H108.178L108.105 121.559C108.021 124.973 108.034 124.933 106.798 125.588C104.404 126.856 103.57 125.838 103.57 121.643C103.57 120.169 103.53 118.856 103.482 118.726C103.375 118.442 102.184 118.391 102.02 118.662ZM27.132 119.683C27.8683 120.048 28.2761 120.761 28.211 121.573L28.1643 122.158H25.8989C23.2813 122.158 23.2964 122.168 23.8922 120.836C24.4786 119.524 25.8367 119.041 27.132 119.683ZM12.3369 119.779C12.5947 119.911 13.052 120.262 13.3536 120.558L13.9023 121.096V122.914C13.9023 124.945 13.9377 124.864 12.7192 125.582C11 126.595 9.36389 125.8 9.16968 123.858C8.8581 120.746 10.3887 118.775 12.3369 119.779ZM58.4249 119.913C59.4799 120.621 59.9744 123.56 59.2503 124.817C58.5607 126.014 56.4932 126.4 55.2134 125.571C53.4321 124.417 53.8752 120.493 55.8837 119.636C56.316 119.452 58.0134 119.637 58.4249 119.913ZM92.91 119.903C93.8867 120.582 94.3279 122.496 93.9145 124.26C93.5332 125.888 91.9725 126.478 90.4315 125.578C89.1984 124.857 89.2352 124.936 89.2352 122.99V121.247L89.8569 120.624C90.9632 119.516 92.0017 119.27 92.91 119.903ZM170.901 119.784C172.655 120.71 172.886 124.493 171.257 125.599C169.27 126.948 167.084 125.766 166.939 123.264C166.775 120.427 168.781 118.666 170.901 119.784ZM131.519 123.287C132.021 123.562 131.92 124.972 131.369 125.374C129.968 126.395 128.843 126.439 128.072 125.501C127.237 124.486 128.091 123.475 129.939 123.292C130.601 123.226 131.164 123.163 131.19 123.152C131.215 123.141 131.363 123.201 131.519 123.287ZM157.025 123.278C157.364 123.41 157.4 123.502 157.4 124.241C157.4 125.168 157.124 125.473 155.826 125.977C153.829 126.754 152.447 124.573 154.309 123.586C154.988 123.225 156.461 123.058 157.025 123.278Z"/>
<path d="M84.3804 2.72705C82.1315 2.89211 81.9943 3.17154 81.9943 7.5817C81.9943 12.0913 82.0976 12.306 84.2645 12.306L85.5051 12.2308L88.3372 12.211L91.1697 12.1912L91.6288 11.7216L92.0875 11.2525L92.1318 7.86113C92.1973 2.89259 92.1803 2.87039 88.3235 2.87039H85.8705L84.3804 2.72705Z"/>
<path d="M84.6708 15.1515C83.9685 15.1515 83.0856 16.0738 82.7947 17.1124C82.7151 17.3967 82.6524 19.8493 82.6524 22.6789V27.7377L83.037 28.3709C84.0246 29.9993 84.3988 30.1161 88.7412 30.1547C91.1051 30.1759 92.5739 30.0359 92.9015 30.0359L94.2252 30.1006C96.8526 30.2295 98.4845 29.2893 98.9446 27.383L99.0469 26.9593L99.0064 19.8691L98.9479 18.5381C98.8815 17.0111 98.5227 16.0801 97.7963 15.5497C97.3622 15.2326 97.2354 15.2254 91.4294 15.1877L85.5051 15.1496L84.6708 15.1515Z"/>
</mask>
<path fill-rule="evenodd" clip-rule="evenodd" d="M111.061 6.99001C110.285 7.33556 110.144 7.89443 110.227 10.3123L110.297 12.3808L110.739 12.7925L111.181 13.2042H113.711H116.241L116.671 12.7447L117.101 12.2853V10.0865C117.101 6.86308 116.993 6.76077 113.605 6.77042C112.15 6.77428 111.4 6.83943 111.061 6.99001ZM68.2164 18.7572C67.3844 19.303 67.2647 19.9213 67.3189 23.4024C67.3929 28.1373 67.3052 28.062 72.6577 27.9993L76.3397 27.9563L76.7323 27.5818C77.8801 26.4873 77.849 19.6751 76.6918 18.7427C76.1167 18.2799 68.9258 18.2919 68.2164 18.7572ZM13.7524 95.8094C13.6737 96.0208 13.6096 97.0614 13.6096 98.1221C13.6096 100.246 13.5318 100.437 12.87 99.9353C11.091 98.5888 8.08504 99.6429 7.36666 101.865C5.82525 106.634 9.41433 110.301 13.0892 107.712C13.8953 107.144 13.9023 107.145 13.9023 107.778C13.9023 108.381 14.3831 108.62 15.0101 108.327C15.4121 108.14 15.3834 108.83 15.365 99.8494C15.3556 95.2651 15.3905 95.4316 14.4472 95.4277C13.9881 95.4258 13.8712 95.49 13.7524 95.8094ZM79.6172 97.3181C79.4965 97.3702 79.4343 97.7428 79.4343 98.4156C79.4343 99.5256 79.3584 99.6115 78.3694 99.6168C78.1399 99.6178 77.9249 99.7191 77.8764 99.849C77.7524 100.179 78.2422 100.667 78.6966 100.667C79.3989 100.667 79.4343 100.821 79.4371 103.88C79.4399 107.656 79.7958 108.386 81.7157 108.555C83.029 108.67 83.7087 108.33 83.6484 107.588L83.6036 107.032L82.7858 107.082C82.033 107.128 81.9321 107.095 81.506 106.659L81.0436 106.185V103.606C81.0436 100.602 81.0143 100.667 82.3601 100.667C83.3533 100.667 83.6767 100.514 83.6767 100.047C83.6767 99.6554 83.4085 99.5565 82.4369 99.5888C81.2396 99.6289 81.1308 99.5295 81.0436 98.3137L80.9705 97.2974L80.3855 97.2684C80.0636 97.252 79.718 97.2747 79.6172 97.3181ZM155.974 97.3215C155.857 97.3702 155.791 97.7124 155.791 98.2727C155.791 99.2988 155.567 99.6187 154.845 99.6187C154.299 99.6187 154.095 99.9213 154.334 100.378C154.444 100.589 154.642 100.667 155.062 100.667C155.791 100.667 155.774 100.592 155.825 104.112C155.881 108.062 156.801 109.193 159.361 108.459C160.635 108.094 160.487 106.916 159.183 107.047C158.427 107.123 158.314 107.094 157.946 106.735L157.54 106.34L157.58 103.541L157.619 100.742L158.759 100.667C159.878 100.594 160.171 100.448 160.177 99.9643C160.181 99.6704 159.911 99.5869 158.962 99.5893C157.545 99.5927 157.546 99.5936 157.546 98.4909C157.546 97.335 156.973 96.9088 155.974 97.3215ZM25.6585 99.4744C24.9665 99.6149 23.5693 100.32 23.3054 100.661C22.6657 101.489 22.4725 102.232 22.4659 103.887C22.4574 106.131 22.4512 106.114 23.7423 107.543C25.3347 109.305 31.2698 108.633 30.1479 106.817C30.0343 106.633 29.9122 106.631 29.3093 106.801C26.293 107.649 24.1468 106.765 24.1425 104.673C24.1416 104.189 23.8663 104.227 27.6119 104.199C30.6956 104.176 30.6405 104.2 30.6061 102.911C30.5377 100.376 28.4311 98.9122 25.6585 99.4744ZM41.3295 99.5381C41.0075 99.6472 40.4918 99.8745 40.1831 100.042C39.5967 100.362 39.2083 100.334 39.2083 99.9735C39.2083 99.6984 38.5102 99.4281 38.0826 99.5377C37.5952 99.6631 37.5872 99.7804 37.6315 105.983L37.6725 111.675H38.4767H39.2813L39.3544 109.703C39.4392 107.415 39.4308 107.434 40.152 107.935C43.6623 110.374 47.4626 105.756 45.5799 101.337C44.92 99.7877 42.9939 98.9725 41.3295 99.5381ZM55.0791 99.486C53.6805 99.8123 52.9584 100.222 52.9584 100.689C52.9584 101.299 53.2271 101.343 54.2532 100.901C56.374 99.987 58.078 100.608 58.078 102.294C58.078 103.215 57.8871 103.36 56.6615 103.37C53.7102 103.392 52.8264 103.842 52.504 105.486C52.0161 107.973 55.2827 109.617 57.5001 108C58.0125 107.627 58.3161 107.626 58.4113 107.999C58.4999 108.345 59.1947 108.563 59.527 108.348C59.8791 108.121 59.9494 101.93 59.61 101.014C59.1414 99.75 57.0169 99.0338 55.0791 99.486ZM70.4385 99.5714C70.1971 99.7042 69.8427 99.9373 69.6508 100.09C69.1742 100.469 68.9027 100.44 68.9027 100.01C68.9027 99.6163 68.4149 99.4537 67.7304 99.6192L67.3665 99.7071V103.965V108.223L67.7691 108.368C68.0274 108.461 68.3149 108.461 68.5732 108.368L68.9758 108.224L69.0489 105.431L69.1219 102.638L69.5608 102.004C70.241 101.02 70.6959 100.742 71.6245 100.742C72.1755 100.742 72.4668 100.672 72.5625 100.517C73.1088 99.6327 71.574 98.9493 70.4385 99.5714ZM92.1605 99.5275C90.5772 99.888 89.6764 100.584 90.1567 101.076C90.366 101.29 90.457 101.28 91.164 100.965C93.5813 99.8895 95.6808 100.842 95.3136 102.848L95.2193 103.363L94.0192 103.368C90.9939 103.38 90.0704 103.803 89.6603 105.361C88.9712 107.982 91.9451 109.447 94.8309 107.908C95.3541 107.629 95.5413 107.585 95.5851 107.733C95.7836 108.406 95.8274 108.455 96.2337 108.455C96.987 108.455 97.0115 108.324 96.9611 104.534C96.9097 100.688 96.9111 100.692 95.9462 100.022C94.9784 99.3494 93.684 99.1805 92.1605 99.5275ZM107.898 99.6134C107.502 99.7756 107.11 99.9778 107.027 100.063C106.786 100.309 106.057 100.254 106.057 99.9894C106.057 99.6945 105.407 99.4421 104.949 99.5599C104.539 99.6656 104.562 99.3398 104.581 104.851C104.594 108.484 104.585 108.448 105.406 108.453C106.173 108.456 106.203 108.337 106.203 105.302V102.507L106.721 101.812C107.873 100.269 109.362 100.194 110.128 101.64C110.318 101.998 110.382 102.718 110.442 105.157L110.518 108.224L110.9 108.361C112.053 108.775 112.196 108.379 112.199 104.781C112.201 102.166 112.216 102.109 113.141 101.243C113.963 100.473 115.113 100.372 115.676 101.021C116.172 101.593 116.297 102.46 116.297 105.359C116.297 108.401 116.313 108.458 117.201 108.453C117.974 108.447 117.979 108.424 117.969 104.828C117.958 100.948 117.896 100.687 116.821 99.958C115.687 99.1887 114.32 99.1689 113.225 99.9064C112.585 100.337 111.776 100.662 111.691 100.521C111.184 99.681 109.004 99.1593 107.898 99.6134ZM128.218 99.4846C123.821 100.501 123.71 107.263 128.072 108.444C130.094 108.992 132.826 108.253 132.826 107.158V106.617L132.137 106.714C131.758 106.767 131.383 106.877 131.303 106.959C130.965 107.304 128.555 107.112 127.793 106.678C126.632 106.017 126.227 104.268 127.231 104.253C127.532 104.248 128.946 104.23 130.372 104.211C132.083 104.19 133.022 104.12 133.133 104.007C133.628 103.5 132.886 100.702 132.151 100.305C131.999 100.222 131.71 100.046 131.509 99.9122C130.719 99.3881 129.385 99.2148 128.218 99.4846ZM143.932 99.5222C143.645 99.6163 143.236 99.8118 143.023 99.9556C142.492 100.316 142.12 100.284 141.689 99.8432C141.293 99.4378 141.009 99.3823 140.569 99.6241C140.172 99.8412 140.123 108.209 140.517 108.364C141.734 108.842 141.895 108.501 141.895 105.44C141.895 102.024 142.276 101.166 144.013 100.668C145.811 100.153 146.329 101.131 146.429 105.232L146.502 108.224L146.884 108.361C147.094 108.436 147.44 108.453 147.652 108.399L148.039 108.3V104.975C148.039 101.062 147.951 100.662 146.972 100.07C145.787 99.3538 144.92 99.1979 143.932 99.5222ZM169.249 99.5227C166.848 100.191 166.104 101.263 166.104 104.055V105.871L166.66 106.699C168.288 109.121 171.811 109.279 173.961 107.026C175.274 105.65 175.361 102.045 174.116 100.628C173.287 99.6844 170.743 99.1067 169.249 99.5227ZM27.5567 100.586C28.5853 100.961 29.4592 102.839 28.7375 103.122C28.129 103.361 24.4471 103.218 24.3071 102.95C23.6264 101.648 25.9116 99.9855 27.5567 100.586ZM129.908 100.517C130.662 100.732 131.306 101.439 131.422 102.18C131.575 103.165 131.469 103.213 129.187 103.211C126.908 103.208 126.751 103.156 126.883 102.443C127.155 100.965 128.492 100.114 129.908 100.517ZM12.0974 100.829C13.3334 101.441 13.6105 102.021 13.6049 103.984C13.5997 105.96 13.5705 106.023 12.3501 106.656C9.99318 107.88 8.27124 105.996 8.91702 102.901C9.33137 100.916 10.6027 100.088 12.0974 100.829ZM43.0184 100.855C44.0507 101.567 44.5499 104.316 43.9225 105.835C43.4643 106.946 41.955 107.384 40.8388 106.731C40.489 106.526 40.1246 106.358 40.0294 106.358C39.361 106.358 39.0405 103.03 39.6217 102.127C40.5314 100.715 42.012 100.16 43.0184 100.855ZM171.705 100.801C173.018 101.487 173.545 103.318 173.031 105.409C172.485 107.626 168.446 107.652 167.928 105.442C167.155 102.142 169.278 99.5328 171.705 100.801ZM58.0728 104.551C58.3283 105.039 58.2105 106.358 57.9116 106.358C57.8385 106.358 57.5091 106.541 57.1786 106.765C55.5043 107.899 53.2718 106.496 54.4743 105.065C55.1013 104.318 57.7537 103.94 58.0728 104.551ZM95.2867 104.598C95.5823 105.728 95.4262 106.159 94.5377 106.667C92.5607 107.798 90.5555 106.759 91.6133 105.151C92.1817 104.288 95.0906 103.85 95.2867 104.598ZM14.0536 114.585C13.9693 114.747 13.9023 115.839 13.9023 117.057C13.9023 118.256 13.8769 119.238 13.8458 119.238C13.8142 119.238 13.3475 119.027 12.8083 118.768C11.5992 118.189 10.235 118.212 9.27009 118.827C8.96181 119.024 8.59649 119.227 8.4579 119.28C7.96437 119.466 7.31999 121.563 7.31999 122.982C7.31999 126.756 10.1492 128.675 13.0623 126.876C14.2045 126.171 14.195 126.173 14.195 126.64C14.195 127.376 15.1708 127.727 15.5441 127.126C15.7181 126.847 15.6818 114.922 15.5064 114.585C15.3961 114.374 15.1986 114.296 14.78 114.296C14.3614 114.296 14.1639 114.374 14.0536 114.585ZM152.99 115.19C152.7 115.435 152.433 115.795 152.396 115.99C152.201 117.032 153.115 117.409 153.553 116.467C153.831 115.87 154.825 115.697 155.215 116.179C156.26 117.469 158.573 117.104 158.944 115.59C159.169 114.672 158.135 114.388 157.775 115.269C157.587 115.73 157.498 115.793 157.036 115.793C156.678 115.793 156.269 115.626 155.751 115.269C154.721 114.559 153.77 114.532 152.99 115.19ZM116.988 116.131C116.81 116.267 116.733 116.601 116.703 117.366L116.662 118.414L116.028 118.501C114.808 118.668 114.846 119.39 116.088 119.653L116.662 119.775L116.744 122.689C116.825 125.583 116.888 126.054 117.28 126.676C118.016 127.845 121.123 127.752 121.123 126.56C121.123 125.933 120.998 125.861 120.042 125.939C118.553 126.061 118.474 125.88 118.524 122.471L118.564 119.762L119.697 119.68C120.931 119.59 121.174 119.458 121.099 118.918C121.053 118.585 120.978 118.56 119.807 118.489L118.564 118.414L118.523 117.441C118.47 116.133 117.764 115.531 116.988 116.131ZM24.9462 118.471C23.098 118.974 22.3447 119.747 21.8875 121.609C20.8665 125.771 24.3014 128.688 28.5306 127.25C30.0814 126.723 30.1512 125.265 28.6023 125.749C25.8626 126.604 23.6542 125.834 23.6372 124.016L23.6297 123.207L26.6635 123.166C30.2808 123.118 30.2177 123.15 29.9636 121.485C29.6058 119.137 27.3889 117.806 24.9462 118.471ZM43.231 118.471C38.9721 119.639 39.1687 126.855 43.4761 127.479C45.4611 127.766 47.5234 126.868 47.3725 125.782C47.308 125.321 46.8026 125.288 45.85 125.683C43.5473 126.64 41.9875 125.489 41.9875 122.832C41.9875 120.043 43.9616 118.737 46.1729 120.064C46.9719 120.543 47.2533 120.472 47.2533 119.791C47.2533 118.835 44.8186 118.036 43.231 118.471ZM55.8107 118.431C53.664 118.993 52.8528 119.869 52.4366 122.075C51.8431 125.218 53.689 127.529 56.7827 127.516C60.6225 127.501 62.5702 123.815 60.7507 120.005C60.2478 118.952 57.3497 118.029 55.8107 118.431ZM70.4385 118.773C69.3637 119.331 69.0823 119.347 68.9027 118.864C68.7481 118.448 67.9491 118.327 67.6154 118.669C67.2411 119.052 67.3792 126.965 67.7648 127.242C68.9404 128.085 69.195 127.523 69.195 124.089V121.173L69.7734 120.575C71.154 119.147 72.6992 119.295 73.148 120.898C73.2267 121.178 73.2908 122.668 73.2908 124.208C73.2908 127.262 73.3535 127.475 74.2515 127.475C74.967 127.475 75.0462 127.142 75.0462 124.127V121.328L75.6368 120.671C76.6762 119.517 77.7722 119.27 78.5533 120.016C79.084 120.522 79.1656 121.004 79.2504 124.15C79.3419 127.543 79.364 127.606 80.3888 127.409L80.8729 127.316L80.9776 126.174C81.1934 123.817 80.9389 120.554 80.4605 119.539C79.9113 118.374 77.627 118.098 75.9112 118.988L74.8058 119.561L74.3627 119.287C74.1195 119.137 73.7546 118.894 73.5524 118.747C72.8472 118.238 71.4482 118.249 70.4385 118.773ZM91.2828 118.466C91.082 118.527 90.5597 118.755 90.1228 118.974C89.2606 119.406 89.139 119.393 88.9373 118.849C88.7614 118.376 87.8658 118.33 87.6292 118.782C87.5283 118.976 87.4892 121.025 87.5146 124.805L87.5528 130.534L87.9271 130.749C88.2495 130.934 88.3603 130.935 88.7313 130.752L89.1621 130.541L89.2026 128.559C89.2479 126.354 89.221 126.394 90.2434 127.044C91.9663 128.141 94.1851 127.445 95.3178 125.453C96.155 123.98 95.8571 119.879 94.8724 119.324C94.7145 119.236 94.3326 119.008 94.0244 118.82C93.4262 118.454 91.956 118.264 91.2828 118.466ZM128.657 118.437C127.832 118.567 126.613 119.281 126.56 119.667C126.473 120.298 126.736 120.356 127.771 119.932C129.973 119.029 131.502 119.5 131.724 121.148C131.856 122.132 131.786 122.232 130.952 122.24C127.902 122.272 126.681 122.755 126.167 124.135C125.266 126.549 128.278 128.416 130.905 127.071C131.356 126.84 131.775 126.629 131.836 126.601C131.898 126.574 131.948 126.656 131.948 126.785C131.948 127.702 133.327 127.561 133.498 126.627C133.611 126.012 133.468 120.768 133.318 119.998C133.095 118.86 130.822 118.098 128.657 118.437ZM142.553 118.471C138.772 119.391 138.215 125.349 141.741 127.171C143.275 127.964 143.52 129.248 142.186 129.497C140.7 129.774 140.536 130.306 141.818 130.687C143.566 131.207 145.567 129.665 144.538 128.591C144.142 128.178 144.299 127.606 144.864 127.404C145.973 127.008 146.576 126.478 146.576 125.9C146.576 125.263 146.127 125.193 145.148 125.678C142.872 126.803 141.22 125.47 141.343 122.608C141.462 119.832 143.039 118.787 145.27 120.005C146.24 120.534 146.576 120.497 146.576 119.86C146.576 118.882 144.215 118.068 142.553 118.471ZM154.255 118.472C152.695 118.775 151.781 119.49 152.202 120.079C152.372 120.318 152.455 120.307 153.393 119.92C155.729 118.957 157.184 119.486 157.283 121.335L157.327 122.158L156.815 122.192C152.659 122.469 151.696 122.976 151.696 124.891C151.696 127.129 154.14 128.251 156.469 127.083C156.941 126.846 157.368 126.633 157.418 126.609C157.468 126.584 157.544 126.701 157.587 126.868C157.785 127.645 158.952 127.566 159.099 126.765C159.264 125.863 159.054 120.575 158.827 119.923C158.417 118.749 156.296 118.075 154.255 118.472ZM168.37 118.485C165.935 119.122 165.062 120.463 165.185 123.372C165.302 126.137 166.753 127.516 169.541 127.513C173.294 127.509 175.287 123.868 173.552 120.185C172.915 118.831 170.311 117.977 168.37 118.485ZM102.02 118.662C101.733 119.138 101.966 125.216 102.297 125.859C103.214 127.646 105.634 128.092 107.31 126.783C107.838 126.371 108.295 126.393 108.221 126.827C108.152 127.237 108.867 127.577 109.337 127.358L109.718 127.18L109.679 122.872L109.641 118.564H108.91H108.178L108.105 121.559C108.021 124.973 108.034 124.933 106.798 125.588C104.404 126.856 103.57 125.838 103.57 121.643C103.57 120.169 103.53 118.856 103.482 118.726C103.375 118.442 102.184 118.391 102.02 118.662ZM27.132 119.683C27.8683 120.048 28.2761 120.761 28.211 121.573L28.1643 122.158H25.8989C23.2813 122.158 23.2964 122.168 23.8922 120.836C24.4786 119.524 25.8367 119.041 27.132 119.683ZM12.3369 119.779C12.5947 119.911 13.052 120.262 13.3536 120.558L13.9023 121.096V122.914C13.9023 124.945 13.9377 124.864 12.7192 125.582C11 126.595 9.36389 125.8 9.16968 123.858C8.8581 120.746 10.3887 118.775 12.3369 119.779ZM58.4249 119.913C59.4799 120.621 59.9744 123.56 59.2503 124.817C58.5607 126.014 56.4932 126.4 55.2134 125.571C53.4321 124.417 53.8752 120.493 55.8837 119.636C56.316 119.452 58.0134 119.637 58.4249 119.913ZM92.91 119.903C93.8867 120.582 94.3279 122.496 93.9145 124.26C93.5332 125.888 91.9725 126.478 90.4315 125.578C89.1984 124.857 89.2352 124.936 89.2352 122.99V121.247L89.8569 120.624C90.9632 119.516 92.0017 119.27 92.91 119.903ZM170.901 119.784C172.655 120.71 172.886 124.493 171.257 125.599C169.27 126.948 167.084 125.766 166.939 123.264C166.775 120.427 168.781 118.666 170.901 119.784ZM131.519 123.287C132.021 123.562 131.92 124.972 131.369 125.374C129.968 126.395 128.843 126.439 128.072 125.501C127.237 124.486 128.091 123.475 129.939 123.292C130.601 123.226 131.164 123.163 131.19 123.152C131.215 123.141 131.363 123.201 131.519 123.287ZM157.025 123.278C157.364 123.41 157.4 123.502 157.4 124.241C157.4 125.168 157.124 125.473 155.826 125.977C153.829 126.754 152.447 124.573 154.309 123.586C154.988 123.225 156.461 123.058 157.025 123.278Z" fill="#4DAEB0"/>
<path d="M84.3804 2.72705C82.1315 2.89211 81.9943 3.17154 81.9943 7.5817C81.9943 12.0913 82.0976 12.306 84.2645 12.306L85.5051 12.2308L88.3372 12.211L91.1697 12.1912L91.6288 11.7216L92.0875 11.2525L92.1318 7.86113C92.1973 2.89259 92.1803 2.87039 88.3235 2.87039H85.8705L84.3804 2.72705Z" fill="#4DAEB0"/>
<path d="M84.6708 15.1515C83.9685 15.1515 83.0856 16.0738 82.7947 17.1124C82.7151 17.3967 82.6524 19.8493 82.6524 22.6789V27.7377L83.037 28.3709C84.0246 29.9993 84.3988 30.1161 88.7412 30.1547C91.1051 30.1759 92.5739 30.0359 92.9015 30.0359L94.2252 30.1006C96.8526 30.2295 98.4845 29.2893 98.9446 27.383L99.0469 26.9593L99.0064 19.8691L98.9479 18.5381C98.8815 17.0111 98.5227 16.0801 97.7963 15.5497C97.3622 15.2326 97.2354 15.2254 91.4294 15.1877L85.5051 15.1496L84.6708 15.1515Z" fill="#4DAEB0"/>
<path fill-rule="evenodd" clip-rule="evenodd" d="M111.061 6.99001C110.285 7.33556 110.144 7.89443 110.227 10.3123L110.297 12.3808L110.739 12.7925L111.181 13.2042H113.711H116.241L116.671 12.7447L117.101 12.2853V10.0865C117.101 6.86308 116.993 6.76077 113.605 6.77042C112.15 6.77428 111.4 6.83943 111.061 6.99001ZM68.2164 18.7572C67.3844 19.303 67.2647 19.9213 67.3189 23.4024C67.3929 28.1373 67.3052 28.062 72.6577 27.9993L76.3397 27.9563L76.7323 27.5818C77.8801 26.4873 77.849 19.6751 76.6918 18.7427C76.1167 18.2799 68.9258 18.2919 68.2164 18.7572ZM13.7524 95.8094C13.6737 96.0208 13.6096 97.0614 13.6096 98.1221C13.6096 100.246 13.5318 100.437 12.87 99.9353C11.091 98.5888 8.08504 99.6429 7.36666 101.865C5.82525 106.634 9.41433 110.301 13.0892 107.712C13.8953 107.144 13.9023 107.145 13.9023 107.778C13.9023 108.381 14.3831 108.62 15.0101 108.327C15.4121 108.14 15.3834 108.83 15.365 99.8494C15.3556 95.2651 15.3905 95.4316 14.4472 95.4277C13.9881 95.4258 13.8712 95.49 13.7524 95.8094ZM79.6172 97.3181C79.4965 97.3702 79.4343 97.7428 79.4343 98.4156C79.4343 99.5256 79.3584 99.6115 78.3694 99.6168C78.1399 99.6178 77.9249 99.7191 77.8764 99.849C77.7524 100.179 78.2422 100.667 78.6966 100.667C79.3989 100.667 79.4343 100.821 79.4371 103.88C79.4399 107.656 79.7958 108.386 81.7157 108.555C83.029 108.67 83.7087 108.33 83.6484 107.588L83.6036 107.032L82.7858 107.082C82.033 107.128 81.9321 107.095 81.506 106.659L81.0436 106.185V103.606C81.0436 100.602 81.0143 100.667 82.3601 100.667C83.3533 100.667 83.6767 100.514 83.6767 100.047C83.6767 99.6554 83.4085 99.5565 82.4369 99.5888C81.2396 99.6289 81.1308 99.5295 81.0436 98.3137L80.9705 97.2974L80.3855 97.2684C80.0636 97.252 79.718 97.2747 79.6172 97.3181ZM155.974 97.3215C155.857 97.3702 155.791 97.7124 155.791 98.2727C155.791 99.2988 155.567 99.6187 154.845 99.6187C154.299 99.6187 154.095 99.9213 154.334 100.378C154.444 100.589 154.642 100.667 155.062 100.667C155.791 100.667 155.774 100.592 155.825 104.112C155.881 108.062 156.801 109.193 159.361 108.459C160.635 108.094 160.487 106.916 159.183 107.047C158.427 107.123 158.314 107.094 157.946 106.735L157.54 106.34L157.58 103.541L157.619 100.742L158.759 100.667C159.878 100.594 160.171 100.448 160.177 99.9643C160.181 99.6704 159.911 99.5869 158.962 99.5893C157.545 99.5927 157.546 99.5936 157.546 98.4909C157.546 97.335 156.973 96.9088 155.974 97.3215ZM25.6585 99.4744C24.9665 99.6149 23.5693 100.32 23.3054 100.661C22.6657 101.489 22.4725 102.232 22.4659 103.887C22.4574 106.131 22.4512 106.114 23.7423 107.543C25.3347 109.305 31.2698 108.633 30.1479 106.817C30.0343 106.633 29.9122 106.631 29.3093 106.801C26.293 107.649 24.1468 106.765 24.1425 104.673C24.1416 104.189 23.8663 104.227 27.6119 104.199C30.6956 104.176 30.6405 104.2 30.6061 102.911C30.5377 100.376 28.4311 98.9122 25.6585 99.4744ZM41.3295 99.5381C41.0075 99.6472 40.4918 99.8745 40.1831 100.042C39.5967 100.362 39.2083 100.334 39.2083 99.9735C39.2083 99.6984 38.5102 99.4281 38.0826 99.5377C37.5952 99.6631 37.5872 99.7804 37.6315 105.983L37.6725 111.675H38.4767H39.2813L39.3544 109.703C39.4392 107.415 39.4308 107.434 40.152 107.935C43.6623 110.374 47.4626 105.756 45.5799 101.337C44.92 99.7877 42.9939 98.9725 41.3295 99.5381ZM55.0791 99.486C53.6805 99.8123 52.9584 100.222 52.9584 100.689C52.9584 101.299 53.2271 101.343 54.2532 100.901C56.374 99.987 58.078 100.608 58.078 102.294C58.078 103.215 57.8871 103.36 56.6615 103.37C53.7102 103.392 52.8264 103.842 52.504 105.486C52.0161 107.973 55.2827 109.617 57.5001 108C58.0125 107.627 58.3161 107.626 58.4113 107.999C58.4999 108.345 59.1947 108.563 59.527 108.348C59.8791 108.121 59.9494 101.93 59.61 101.014C59.1414 99.75 57.0169 99.0338 55.0791 99.486ZM70.4385 99.5714C70.1971 99.7042 69.8427 99.9373 69.6508 100.09C69.1742 100.469 68.9027 100.44 68.9027 100.01C68.9027 99.6163 68.4149 99.4537 67.7304 99.6192L67.3665 99.7071V103.965V108.223L67.7691 108.368C68.0274 108.461 68.3149 108.461 68.5732 108.368L68.9758 108.224L69.0489 105.431L69.1219 102.638L69.5608 102.004C70.241 101.02 70.6959 100.742 71.6245 100.742C72.1755 100.742 72.4668 100.672 72.5625 100.517C73.1088 99.6327 71.574 98.9493 70.4385 99.5714ZM92.1605 99.5275C90.5772 99.888 89.6764 100.584 90.1567 101.076C90.366 101.29 90.457 101.28 91.164 100.965C93.5813 99.8895 95.6808 100.842 95.3136 102.848L95.2193 103.363L94.0192 103.368C90.9939 103.38 90.0704 103.803 89.6603 105.361C88.9712 107.982 91.9451 109.447 94.8309 107.908C95.3541 107.629 95.5413 107.585 95.5851 107.733C95.7836 108.406 95.8274 108.455 96.2337 108.455C96.987 108.455 97.0115 108.324 96.9611 104.534C96.9097 100.688 96.9111 100.692 95.9462 100.022C94.9784 99.3494 93.684 99.1805 92.1605 99.5275ZM107.898 99.6134C107.502 99.7756 107.11 99.9778 107.027 100.063C106.786 100.309 106.057 100.254 106.057 99.9894C106.057 99.6945 105.407 99.4421 104.949 99.5599C104.539 99.6656 104.562 99.3398 104.581 104.851C104.594 108.484 104.585 108.448 105.406 108.453C106.173 108.456 106.203 108.337 106.203 105.302V102.507L106.721 101.812C107.873 100.269 109.362 100.194 110.128 101.64C110.318 101.998 110.382 102.718 110.442 105.157L110.518 108.224L110.9 108.361C112.053 108.775 112.196 108.379 112.199 104.781C112.201 102.166 112.216 102.109 113.141 101.243C113.963 100.473 115.113 100.372 115.676 101.021C116.172 101.593 116.297 102.46 116.297 105.359C116.297 108.401 116.313 108.458 117.201 108.453C117.974 108.447 117.979 108.424 117.969 104.828C117.958 100.948 117.896 100.687 116.821 99.958C115.687 99.1887 114.32 99.1689 113.225 99.9064C112.585 100.337 111.776 100.662 111.691 100.521C111.184 99.681 109.004 99.1593 107.898 99.6134ZM128.218 99.4846C123.821 100.501 123.71 107.263 128.072 108.444C130.094 108.992 132.826 108.253 132.826 107.158V106.617L132.137 106.714C131.758 106.767 131.383 106.877 131.303 106.959C130.965 107.304 128.555 107.112 127.793 106.678C126.632 106.017 126.227 104.268 127.231 104.253C127.532 104.248 128.946 104.23 130.372 104.211C132.083 104.19 133.022 104.12 133.133 104.007C133.628 103.5 132.886 100.702 132.151 100.305C131.999 100.222 131.71 100.046 131.509 99.9122C130.719 99.3881 129.385 99.2148 128.218 99.4846ZM143.932 99.5222C143.645 99.6163 143.236 99.8118 143.023 99.9556C142.492 100.316 142.12 100.284 141.689 99.8432C141.293 99.4378 141.009 99.3823 140.569 99.6241C140.172 99.8412 140.123 108.209 140.517 108.364C141.734 108.842 141.895 108.501 141.895 105.44C141.895 102.024 142.276 101.166 144.013 100.668C145.811 100.153 146.329 101.131 146.429 105.232L146.502 108.224L146.884 108.361C147.094 108.436 147.44 108.453 147.652 108.399L148.039 108.3V104.975C148.039 101.062 147.951 100.662 146.972 100.07C145.787 99.3538 144.92 99.1979 143.932 99.5222ZM169.249 99.5227C166.848 100.191 166.104 101.263 166.104 104.055V105.871L166.66 106.699C168.288 109.121 171.811 109.279 173.961 107.026C175.274 105.65 175.361 102.045 174.116 100.628C173.287 99.6844 170.743 99.1067 169.249 99.5227ZM27.5567 100.586C28.5853 100.961 29.4592 102.839 28.7375 103.122C28.129 103.361 24.4471 103.218 24.3071 102.95C23.6264 101.648 25.9116 99.9855 27.5567 100.586ZM129.908 100.517C130.662 100.732 131.306 101.439 131.422 102.18C131.575 103.165 131.469 103.213 129.187 103.211C126.908 103.208 126.751 103.156 126.883 102.443C127.155 100.965 128.492 100.114 129.908 100.517ZM12.0974 100.829C13.3334 101.441 13.6105 102.021 13.6049 103.984C13.5997 105.96 13.5705 106.023 12.3501 106.656C9.99318 107.88 8.27124 105.996 8.91702 102.901C9.33137 100.916 10.6027 100.088 12.0974 100.829ZM43.0184 100.855C44.0507 101.567 44.5499 104.316 43.9225 105.835C43.4643 106.946 41.955 107.384 40.8388 106.731C40.489 106.526 40.1246 106.358 40.0294 106.358C39.361 106.358 39.0405 103.03 39.6217 102.127C40.5314 100.715 42.012 100.16 43.0184 100.855ZM171.705 100.801C173.018 101.487 173.545 103.318 173.031 105.409C172.485 107.626 168.446 107.652 167.928 105.442C167.155 102.142 169.278 99.5328 171.705 100.801ZM58.0728 104.551C58.3283 105.039 58.2105 106.358 57.9116 106.358C57.8385 106.358 57.5091 106.541 57.1786 106.765C55.5043 107.899 53.2718 106.496 54.4743 105.065C55.1013 104.318 57.7537 103.94 58.0728 104.551ZM95.2867 104.598C95.5823 105.728 95.4262 106.159 94.5377 106.667C92.5607 107.798 90.5555 106.759 91.6133 105.151C92.1817 104.288 95.0906 103.85 95.2867 104.598ZM14.0536 114.585C13.9693 114.747 13.9023 115.839 13.9023 117.057C13.9023 118.256 13.8769 119.238 13.8458 119.238C13.8142 119.238 13.3475 119.027 12.8083 118.768C11.5992 118.189 10.235 118.212 9.27009 118.827C8.96181 119.024 8.59649 119.227 8.4579 119.28C7.96437 119.466 7.31999 121.563 7.31999 122.982C7.31999 126.756 10.1492 128.675 13.0623 126.876C14.2045 126.171 14.195 126.173 14.195 126.64C14.195 127.376 15.1708 127.727 15.5441 127.126C15.7181 126.847 15.6818 114.922 15.5064 114.585C15.3961 114.374 15.1986 114.296 14.78 114.296C14.3614 114.296 14.1639 114.374 14.0536 114.585ZM152.99 115.19C152.7 115.435 152.433 115.795 152.396 115.99C152.201 117.032 153.115 117.409 153.553 116.467C153.831 115.87 154.825 115.697 155.215 116.179C156.26 117.469 158.573 117.104 158.944 115.59C159.169 114.672 158.135 114.388 157.775 115.269C157.587 115.73 157.498 115.793 157.036 115.793C156.678 115.793 156.269 115.626 155.751 115.269C154.721 114.559 153.77 114.532 152.99 115.19ZM116.988 116.131C116.81 116.267 116.733 116.601 116.703 117.366L116.662 118.414L116.028 118.501C114.808 118.668 114.846 119.39 116.088 119.653L116.662 119.775L116.744 122.689C116.825 125.583 116.888 126.054 117.28 126.676C118.016 127.845 121.123 127.752 121.123 126.56C121.123 125.933 120.998 125.861 120.042 125.939C118.553 126.061 118.474 125.88 118.524 122.471L118.564 119.762L119.697 119.68C120.931 119.59 121.174 119.458 121.099 118.918C121.053 118.585 120.978 118.56 119.807 118.489L118.564 118.414L118.523 117.441C118.47 116.133 117.764 115.531 116.988 116.131ZM24.9462 118.471C23.098 118.974 22.3447 119.747 21.8875 121.609C20.8665 125.771 24.3014 128.688 28.5306 127.25C30.0814 126.723 30.1512 125.265 28.6023 125.749C25.8626 126.604 23.6542 125.834 23.6372 124.016L23.6297 123.207L26.6635 123.166C30.2808 123.118 30.2177 123.15 29.9636 121.485C29.6058 119.137 27.3889 117.806 24.9462 118.471ZM43.231 118.471C38.9721 119.639 39.1687 126.855 43.4761 127.479C45.4611 127.766 47.5234 126.868 47.3725 125.782C47.308 125.321 46.8026 125.288 45.85 125.683C43.5473 126.64 41.9875 125.489 41.9875 122.832C41.9875 120.043 43.9616 118.737 46.1729 120.064C46.9719 120.543 47.2533 120.472 47.2533 119.791C47.2533 118.835 44.8186 118.036 43.231 118.471ZM55.8107 118.431C53.664 118.993 52.8528 119.869 52.4366 122.075C51.8431 125.218 53.689 127.529 56.7827 127.516C60.6225 127.501 62.5702 123.815 60.7507 120.005C60.2478 118.952 57.3497 118.029 55.8107 118.431ZM70.4385 118.773C69.3637 119.331 69.0823 119.347 68.9027 118.864C68.7481 118.448 67.9491 118.327 67.6154 118.669C67.2411 119.052 67.3792 126.965 67.7648 127.242C68.9404 128.085 69.195 127.523 69.195 124.089V121.173L69.7734 120.575C71.154 119.147 72.6992 119.295 73.148 120.898C73.2267 121.178 73.2908 122.668 73.2908 124.208C73.2908 127.262 73.3535 127.475 74.2515 127.475C74.967 127.475 75.0462 127.142 75.0462 124.127V121.328L75.6368 120.671C76.6762 119.517 77.7722 119.27 78.5533 120.016C79.084 120.522 79.1656 121.004 79.2504 124.15C79.3419 127.543 79.364 127.606 80.3888 127.409L80.8729 127.316L80.9776 126.174C81.1934 123.817 80.9389 120.554 80.4605 119.539C79.9113 118.374 77.627 118.098 75.9112 118.988L74.8058 119.561L74.3627 119.287C74.1195 119.137 73.7546 118.894 73.5524 118.747C72.8472 118.238 71.4482 118.249 70.4385 118.773ZM91.2828 118.466C91.082 118.527 90.5597 118.755 90.1228 118.974C89.2606 119.406 89.139 119.393 88.9373 118.849C88.7614 118.376 87.8658 118.33 87.6292 118.782C87.5283 118.976 87.4892 121.025 87.5146 124.805L87.5528 130.534L87.9271 130.749C88.2495 130.934 88.3603 130.935 88.7313 130.752L89.1621 130.541L89.2026 128.559C89.2479 126.354 89.221 126.394 90.2434 127.044C91.9663 128.141 94.1851 127.445 95.3178 125.453C96.155 123.98 95.8571 119.879 94.8724 119.324C94.7145 119.236 94.3326 119.008 94.0244 118.82C93.4262 118.454 91.956 118.264 91.2828 118.466ZM128.657 118.437C127.832 118.567 126.613 119.281 126.56 119.667C126.473 120.298 126.736 120.356 127.771 119.932C129.973 119.029 131.502 119.5 131.724 121.148C131.856 122.132 131.786 122.232 130.952 122.24C127.902 122.272 126.681 122.755 126.167 124.135C125.266 126.549 128.278 128.416 130.905 127.071C131.356 126.84 131.775 126.629 131.836 126.601C131.898 126.574 131.948 126.656 131.948 126.785C131.948 127.702 133.327 127.561 133.498 126.627C133.611 126.012 133.468 120.768 133.318 119.998C133.095 118.86 130.822 118.098 128.657 118.437ZM142.553 118.471C138.772 119.391 138.215 125.349 141.741 127.171C143.275 127.964 143.52 129.248 142.186 129.497C140.7 129.774 140.536 130.306 141.818 130.687C143.566 131.207 145.567 129.665 144.538 128.591C144.142 128.178 144.299 127.606 144.864 127.404C145.973 127.008 146.576 126.478 146.576 125.9C146.576 125.263 146.127 125.193 145.148 125.678C142.872 126.803 141.22 125.47 141.343 122.608C141.462 119.832 143.039 118.787 145.27 120.005C146.24 120.534 146.576 120.497 146.576 119.86C146.576 118.882 144.215 118.068 142.553 118.471ZM154.255 118.472C152.695 118.775 151.781 119.49 152.202 120.079C152.372 120.318 152.455 120.307 153.393 119.92C155.729 118.957 157.184 119.486 157.283 121.335L157.327 122.158L156.815 122.192C152.659 122.469 151.696 122.976 151.696 124.891C151.696 127.129 154.14 128.251 156.469 127.083C156.941 126.846 157.368 126.633 157.418 126.609C157.468 126.584 157.544 126.701 157.587 126.868C157.785 127.645 158.952 127.566 159.099 126.765C159.264 125.863 159.054 120.575 158.827 119.923C158.417 118.749 156.296 118.075 154.255 118.472ZM168.37 118.485C165.935 119.122 165.062 120.463 165.185 123.372C165.302 126.137 166.753 127.516 169.541 127.513C173.294 127.509 175.287 123.868 173.552 120.185C172.915 118.831 170.311 117.977 168.37 118.485ZM102.02 118.662C101.733 119.138 101.966 125.216 102.297 125.859C103.214 127.646 105.634 128.092 107.31 126.783C107.838 126.371 108.295 126.393 108.221 126.827C108.152 127.237 108.867 127.577 109.337 127.358L109.718 127.18L109.679 122.872L109.641 118.564H108.91H108.178L108.105 121.559C108.021 124.973 108.034 124.933 106.798 125.588C104.404 126.856 103.57 125.838 103.57 121.643C103.57 120.169 103.53 118.856 103.482 118.726C103.375 118.442 102.184 118.391 102.02 118.662ZM27.132 119.683C27.8683 120.048 28.2761 120.761 28.211 121.573L28.1643 122.158H25.8989C23.2813 122.158 23.2964 122.168 23.8922 120.836C24.4786 119.524 25.8367 119.041 27.132 119.683ZM12.3369 119.779C12.5947 119.911 13.052 120.262 13.3536 120.558L13.9023 121.096V122.914C13.9023 124.945 13.9377 124.864 12.7192 125.582C11 126.595 9.36389 125.8 9.16968 123.858C8.8581 120.746 10.3887 118.775 12.3369 119.779ZM58.4249 119.913C59.4799 120.621 59.9744 123.56 59.2503 124.817C58.5607 126.014 56.4932 126.4 55.2134 125.571C53.4321 124.417 53.8752 120.493 55.8837 119.636C56.316 119.452 58.0134 119.637 58.4249 119.913ZM92.91 119.903C93.8867 120.582 94.3279 122.496 93.9145 124.26C93.5332 125.888 91.9725 126.478 90.4315 125.578C89.1984 124.857 89.2352 124.936 89.2352 122.99V121.247L89.8569 120.624C90.9632 119.516 92.0017 119.27 92.91 119.903ZM170.901 119.784C172.655 120.71 172.886 124.493 171.257 125.599C169.27 126.948 167.084 125.766 166.939 123.264C166.775 120.427 168.781 118.666 170.901 119.784ZM131.519 123.287C132.021 123.562 131.92 124.972 131.369 125.374C129.968 126.395 128.843 126.439 128.072 125.501C127.237 124.486 128.091 123.475 129.939 123.292C130.601 123.226 131.164 123.163 131.19 123.152C131.215 123.141 131.363 123.201 131.519 123.287ZM157.025 123.278C157.364 123.41 157.4 123.502 157.4 124.241C157.4 125.168 157.124 125.473 155.826 125.977C153.829 126.754 152.447 124.573 154.309 123.586C154.988 123.225 156.461 123.058 157.025 123.278Z" stroke="white" stroke-opacity="0.2" mask="url(#path-2-inside-2)"/>
<path d="M84.3804 2.72705C82.1315 2.89211 81.9943 3.17154 81.9943 7.5817C81.9943 12.0913 82.0976 12.306 84.2645 12.306L85.5051 12.2308L88.3372 12.211L91.1697 12.1912L91.6288 11.7216L92.0875 11.2525L92.1318 7.86113C92.1973 2.89259 92.1803 2.87039 88.3235 2.87039H85.8705L84.3804 2.72705Z" stroke="white" stroke-opacity="0.2" mask="url(#path-2-inside-2)"/>
<path d="M84.6708 15.1515C83.9685 15.1515 83.0856 16.0738 82.7947 17.1124C82.7151 17.3967 82.6524 19.8493 82.6524 22.6789V27.7377L83.037 28.3709C84.0246 29.9993 84.3988 30.1161 88.7412 30.1547C91.1051 30.1759 92.5739 30.0359 92.9015 30.0359L94.2252 30.1006C96.8526 30.2295 98.4845 29.2893 98.9446 27.383L99.0469 26.9593L99.0064 19.8691L98.9479 18.5381C98.8815 17.0111 98.5227 16.0801 97.7963 15.5497C97.3622 15.2326 97.2354 15.2254 91.4294 15.1877L85.5051 15.1496L84.6708 15.1515Z" stroke="white" stroke-opacity="0.2" mask="url(#path-2-inside-2)"/>
</svg>
