<svg width="183" height="160" viewBox="0 0 183 160" fill="none" xmlns="http://www.w3.org/2000/svg">
<mask id="path-1-inside-1" fill="white">
<path fill-rule="evenodd" clip-rule="evenodd" d="M88.4307 15.2744C87.2933 15.6287 85.8707 16.8791 85.8707 17.5253V17.8709H88.3237C92.1805 17.8709 92.1975 17.8931 92.132 22.8616L92.0877 26.253L91.629 26.7221L91.1699 27.1917L88.3374 27.2115L85.5053 27.2313V28.6907V30.1501L91.4296 30.1883C97.2356 30.2259 97.3624 30.2331 97.7965 30.5502C98.5229 31.0806 98.8817 32.0116 98.9481 33.5386L99.0066 34.8696L101.165 34.9111C103.722 34.9604 104.285 34.818 105.467 33.8253C106.851 32.6626 106.775 33.1636 106.782 25.1512L106.789 18.1291L106.331 17.3637C105.67 16.2575 104.959 15.6644 103.884 15.3217C102.629 14.9216 89.6907 14.882 88.4307 15.2744ZM72.4864 22.9562C71.5912 23.3356 71.4663 23.712 71.4159 26.1777C71.3315 30.3321 71.1509 30.168 75.7521 30.1168L79.3576 30.0768L79.5613 29.6424C79.846 29.0334 79.846 24.0527 79.5613 23.5856C79.1314 22.8805 73.7874 22.4056 72.4864 22.9562ZM110.569 31.5512C109.337 32.1115 109.147 32.8171 109.145 36.8387C109.141 42.5003 109.069 42.4327 115.13 42.4327C121.075 42.4327 120.978 42.5249 120.978 36.9159C120.978 31.2553 121.079 31.3504 115.053 31.3644C112.239 31.3712 110.836 31.4295 110.569 31.5512ZM57.3466 39.0332C56.5981 39.6659 56.4487 43.5264 57.1406 44.368L57.5192 44.8289H60.0726C63.4896 44.8289 63.344 44.9621 63.344 41.8333C63.344 38.7224 63.4689 38.8363 60.0684 38.843C58.3012 38.8464 57.5017 38.9024 57.3466 39.0332ZM98.9448 42.3835C98.4848 44.2899 96.8528 45.23 94.2254 45.1011L92.9017 45.0365L92.8136 45.6441C92.765 45.9781 92.7467 48.0374 92.7726 50.2203C92.8428 56.2293 92.5793 56.0546 101.376 55.9147C105.731 55.8452 106.317 55.8075 106.638 55.5744C106.837 55.4301 107.112 55.3123 107.25 55.3123C107.967 55.3123 108.13 53.9967 108.074 48.6517C108.015 43.0794 108.072 43.3888 106.958 42.6248L106.13 42.0582L102.589 42.009L99.0471 41.9598L98.9448 42.3835ZM77.7846 46.3472C76.4874 47.3376 76.5727 53.019 77.894 53.6353C78.528 53.9311 84.0271 53.8809 84.4829 53.5749C85.6524 52.7907 85.6812 46.7753 84.5178 46.3907C84.3769 46.3444 84.2619 46.2435 84.2619 46.1668C84.2619 45.8415 78.2268 46.0094 77.7846 46.3472ZM26.4459 59.6675C26.2088 59.8089 26.1895 60.2592 26.1876 65.691C26.1852 72.2706 26.2008 72.1673 25.2797 71.6803C24.9356 71.4984 24.4562 71.3048 24.2149 71.2503C23.9735 71.1953 23.3485 70.94 22.8252 70.6823C21.4361 69.9979 18.3712 69.9154 16.6818 70.5167C16.0784 70.7315 15.2554 71.0129 14.8533 71.1412C13.837 71.4665 11.416 73.3704 11.416 73.8444C11.416 73.8989 11.2275 74.1494 10.9974 74.4003C10.3931 75.0601 9.89298 76.1127 9.45932 77.6406C9.26322 78.3308 9.22174 79.268 9.22174 82.9905C9.22174 88.1274 9.36033 89.2119 10.2017 90.6424C10.4671 91.0936 10.6844 91.5434 10.6844 91.6419C10.6844 91.8103 11.786 93.0091 12.3941 93.5023C12.5464 93.6259 12.9777 93.9816 13.3529 94.2924C14.1326 94.9401 15.6476 95.7489 16.0798 95.7489C16.2406 95.7489 16.4126 95.8165 16.4626 95.8985C16.5177 95.9907 17.7249 96.0486 19.5958 96.0486C22.9195 96.0486 22.8681 96.0588 25.3372 94.8604C26.4157 94.3368 26.8376 94.4628 26.8923 95.3233L26.9361 96.0211L29.1592 96.0761C30.3824 96.1061 31.4977 96.1046 31.6386 96.0723C31.9436 96.0023 32.0463 60.3755 31.7432 59.7954C31.5707 59.4658 26.9705 59.3548 26.4459 59.6675ZM51.7151 69.5399C51.4737 69.6031 51.0372 69.6625 50.7445 69.6721C49.8451 69.7021 48.1708 70.2938 47.2535 70.9062C47.0527 71.0404 46.6836 71.1953 46.4338 71.2508C46.0001 71.3468 44.5638 72.6591 43.3043 74.1103C42.7249 74.7773 42.5849 75.0268 42.255 75.98C41.5262 78.0856 41.5319 78.02 41.5842 83.6338L41.6332 88.9344L42.0339 90.1293C42.2545 90.7867 42.4987 91.3899 42.5769 91.47C42.6552 91.5497 42.7193 91.7253 42.7193 91.86C42.7193 92.0767 43.1902 92.6307 44.1791 93.5771C44.3512 93.7422 44.7307 94.1239 45.022 94.4261C45.6781 95.1051 47.3058 96.0486 47.8224 96.0486C48.0336 96.0486 48.4362 96.1234 48.7176 96.2147C50.9835 96.9516 54.5985 96.9733 56.7617 96.2629C57.1237 96.1442 57.6346 96.0472 57.8972 96.0477C58.1598 96.0481 58.5204 95.9642 58.6985 95.8614C59.2543 95.5395 61.203 93.9869 61.6498 93.5091C61.8846 93.2581 62.1203 93.053 62.1735 93.053C62.3819 93.053 63.1785 91.7379 63.269 91.2442C63.3845 90.6153 63.1026 90.2949 62.306 90.1491C62.0171 90.096 61.523 89.9271 61.2091 89.7736C60.8952 89.6197 60.3418 89.3504 59.9797 89.1742C59.6177 88.9986 59.2057 88.7712 59.0643 88.6699C58.8414 88.5101 58.7075 88.5898 58.0645 89.2654C57.6563 89.6945 57.1963 90.0864 57.0421 90.1366C56.888 90.1868 56.7617 90.2871 56.7617 90.36C56.7617 90.6148 55.6596 91.5994 55.0793 91.8629C53.0382 92.791 50.6974 92.3006 48.7779 90.5429C47.5415 89.4107 47.3911 88.9947 47.2907 86.4305C47.1804 83.6005 46.1302 83.9176 55.619 83.9176C60.8791 83.9176 63.7536 83.864 63.9389 83.7626C64.2665 83.5826 64.3664 78.8723 64.0671 77.7024C63.7428 76.4326 63.1022 75.034 62.5761 74.4462C62.2744 74.1093 62.0279 73.771 62.0279 73.6952C62.0279 73.3492 59.8666 71.4791 59.102 71.1639C58.6599 70.981 58.2649 70.7937 58.2243 70.7474C57.5512 69.9723 53.1726 69.1601 51.7151 69.5399ZM83.2258 69.4501C83.1923 69.4834 82.5809 69.5829 81.8672 69.6717C80.3235 69.8638 79.837 70.0071 78.4837 70.6678C77.9209 70.9424 77.3279 71.2049 77.1662 71.2508C76.8919 71.329 75.2986 72.8145 74.9734 73.2956C74.8927 73.4144 74.5812 73.8246 74.2804 74.2068C73.8552 74.7478 73.645 75.2444 73.3297 76.4515C72.6617 79.0118 72.7654 89.8571 73.4621 90.2982C73.529 90.3402 73.5837 90.4918 73.5837 90.6342C73.5837 91.1452 74.5604 92.8262 75.061 93.1756C75.3339 93.3662 75.6168 93.636 75.6894 93.7745C76.0575 94.4796 78.4945 96.0486 79.2209 96.0486C79.4792 96.0486 79.9704 96.1495 80.3122 96.273C80.6544 96.3966 81.1197 96.4975 81.3459 96.4975C81.5726 96.4975 81.7984 96.565 81.8484 96.6476C81.9026 96.7373 82.8708 96.7972 84.2619 96.7972C85.6529 96.7972 86.6211 96.7373 86.6753 96.6476C86.7253 96.565 86.9841 96.4975 87.2513 96.4975C87.5181 96.4975 87.973 96.3966 88.262 96.273C88.5509 96.1495 89.003 96.0433 89.267 96.0375C89.5314 96.0313 89.9448 95.8976 90.1861 95.7402C90.4275 95.5824 90.7565 95.3928 90.9172 95.3179C91.0785 95.2436 91.7035 94.706 92.3069 94.1235C92.9102 93.541 93.4712 93.0617 93.5527 93.0588C93.7832 93.0501 94.6477 91.4782 94.6477 91.0685C94.6477 90.6037 94.2758 90.2712 93.622 90.1515C93.3392 90.0999 92.4836 89.7389 91.72 89.3494C90.9568 88.96 90.2861 88.6187 90.229 88.5907C90.1725 88.5628 89.7709 88.9151 89.3367 89.3736C88.903 89.8325 88.4557 90.2099 88.3431 90.2133C88.2304 90.2162 87.9542 90.4913 87.7293 90.8238C86.3774 92.8238 82.522 92.7572 80.2693 90.695C78.5671 89.1361 78.5016 88.8137 78.5813 82.4292L78.6369 78.0016L79.1342 77.0562C80.2401 74.9534 81.5712 74.1827 84.0955 74.1827C86.5249 74.1827 87.7119 74.8545 89.1241 77.0282C89.6384 77.8202 90.4388 77.8322 91.7992 77.0687C92.3601 76.7536 93.0531 76.3829 93.3392 76.2449C94.6944 75.59 94.8353 75.1445 94.0552 73.9814C93.07 72.5124 92.0146 71.5852 90.8041 71.1258C90.4204 70.9796 89.8241 70.7069 89.48 70.5196C88.2855 69.8695 83.6114 69.0703 83.2258 69.4501ZM112.628 69.4501C112.594 69.4834 111.983 69.5829 111.269 69.6717C109.737 69.8623 109.252 70.0037 107.885 70.6581C107.323 70.9284 106.697 71.2165 106.496 71.299C106.058 71.4791 104.448 72.8169 104.448 73.0012C104.448 73.0727 104.166 73.5191 103.822 73.994C102.329 76.0519 102.327 76.062 102.327 83.3182V89.5338L103.189 91.2934C103.663 92.2611 104.105 93.053 104.172 93.053C104.238 93.053 104.64 93.3995 105.065 93.8223C105.938 94.6915 107.283 95.7489 107.515 95.7489C107.601 95.7489 107.785 95.8093 107.924 95.8826C108.064 95.9565 108.54 96.0945 108.983 96.1891C109.425 96.2841 110.116 96.4328 110.519 96.5192C111.557 96.7422 115.244 96.8498 115.857 96.6746C117.002 96.3474 117.863 96.1471 118.407 96.0815C119.232 95.9816 121.466 94.7156 121.636 94.2514C121.681 94.1278 122.015 93.7905 122.379 93.5023C123.303 92.7692 123.843 91.8672 124.347 90.2177L124.781 88.7968V83.364C124.781 79.8404 124.723 77.6802 124.615 77.2174C124.226 75.5422 123.966 74.8444 123.545 74.3555C123.299 74.0698 122.967 73.6248 122.806 73.3666C122.4 72.716 120.981 71.3985 120.539 71.2624C120.337 71.2001 119.778 70.9371 119.295 70.6774C117.89 69.9221 113.052 69.0317 112.628 69.4501ZM144.894 70.1446C144.491 70.189 144.018 70.3068 143.843 70.4067C143.667 70.5066 143.416 70.5882 143.284 70.5882C143.152 70.5882 142.946 70.6895 142.825 70.8126C142.705 70.9361 142.429 71.0742 142.214 71.119C141.998 71.1644 141.493 71.342 141.091 71.5138C140.043 71.9617 139.637 71.9544 139.588 71.4868C139.567 71.2812 139.514 70.8936 139.472 70.6258L139.395 70.1393H137.157C135.21 70.1393 134.89 70.1731 134.692 70.4014C134.49 70.6335 134.464 72.0794 134.462 83.2076C134.459 96.8194 134.432 96.3551 135.224 96.137C135.394 96.0906 136.6 96.0515 137.907 96.0506L140.281 96.0486L140.329 87.3244C140.354 82.5267 140.43 78.3988 140.498 78.1517C140.78 77.1141 142.944 74.9317 143.691 74.9317C143.82 74.9317 143.966 74.8641 144.016 74.7816C144.344 74.2387 146.925 74.7691 148.043 75.6088C150.174 77.2102 150.225 77.492 150.229 87.599C150.231 92.2186 150.26 96.0264 150.293 96.0607C150.326 96.0954 151.594 96.0897 153.109 96.0486L155.865 95.9734L155.938 87.2124C156.016 77.7478 155.97 78.27 156.834 77.1778C158.003 75.702 158.25 75.4747 159.133 75.0639C160.094 74.6166 161.807 74.4486 162.008 74.7816C162.058 74.8641 162.26 74.9317 162.458 74.9317C163.108 74.9317 165.004 76.4447 165.006 76.9645C165.007 77.0533 165.172 77.284 165.372 77.4775C165.574 77.671 165.738 77.9486 165.738 78.0938C165.738 78.2396 165.804 78.4003 165.884 78.451C165.98 78.5108 166.031 81.6227 166.031 87.2959V96.0486L166.653 96.0496C166.994 96.0506 168.163 96.0568 169.249 96.0646C170.335 96.0718 171.339 96.0713 171.48 96.0631C172 96.0332 171.816 78.4471 171.279 76.9534C170.888 75.8627 170.271 74.6479 170.016 74.4612C169.863 74.3492 169.611 74.0572 169.456 73.8125C168.878 72.8956 167.023 71.3748 166.323 71.244C166.042 71.1914 165.746 71.0963 165.665 71.0326C164.187 69.8623 158.805 69.7947 156.737 70.9202C156.493 71.0529 156.05 71.2083 155.753 71.2657C155.443 71.3251 154.945 71.6089 154.587 71.9293C153.341 73.0461 153.214 73.0548 151.975 72.0997C151.451 71.6953 150.762 71.2928 150.444 71.2049C150.127 71.1171 149.735 70.953 149.575 70.8401C148.772 70.2778 146.606 69.9559 144.894 70.1446ZM55.3541 74.5678C57.6342 75.673 59.5282 79.1594 58.2342 79.8684C57.7365 80.1411 47.624 80.075 47.3991 79.7979C46.9216 79.2087 47.7772 76.4351 48.6695 75.6798C49.0574 75.3511 50.5084 74.3893 50.7643 74.2908C51.5077 74.0046 54.574 74.1899 55.3541 74.5678ZM115.902 74.4303C117.266 75.1528 118.115 76.0012 118.801 77.3279C119.686 79.0407 119.227 89.3557 118.236 90.0208C118.041 90.1511 117.569 90.5666 117.186 90.944C115.17 92.9324 111.685 92.7205 109.416 90.472C107.877 88.9464 107.915 89.1197 107.85 83.2926L107.794 78.3993L108.272 77.4515C108.846 76.3149 110.141 74.9361 111.038 74.506C111.912 74.0862 115.156 74.036 115.902 74.4303ZM22.0838 74.7999C23.958 75.4018 25.456 76.7661 26.0047 78.3718C26.3059 79.2535 26.2578 87.015 25.9448 88.0077C25.6149 89.055 25.0864 89.8895 24.6448 90.0613C24.4444 90.1395 24.1343 90.3455 23.9551 90.5202C21.7689 92.6505 16.9561 91.6669 15.4656 88.7848C14.5252 86.9663 14.4941 78.6464 15.4241 77.6556C15.5547 77.5166 15.9559 77.0263 16.3155 76.5663C16.9745 75.7242 18.1327 74.9317 18.7045 74.9317C18.8694 74.9317 19.0457 74.8641 19.0952 74.7816C19.2183 74.5784 21.4356 74.5915 22.0838 74.7999Z"/>
</mask>
<path fill-rule="evenodd" clip-rule="evenodd" d="M88.4307 15.2744C87.2933 15.6287 85.8707 16.8791 85.8707 17.5253V17.8709H88.3237C92.1805 17.8709 92.1975 17.8931 92.132 22.8616L92.0877 26.253L91.629 26.7221L91.1699 27.1917L88.3374 27.2115L85.5053 27.2313V28.6907V30.1501L91.4296 30.1883C97.2356 30.2259 97.3624 30.2331 97.7965 30.5502C98.5229 31.0806 98.8817 32.0116 98.9481 33.5386L99.0066 34.8696L101.165 34.9111C103.722 34.9604 104.285 34.818 105.467 33.8253C106.851 32.6626 106.775 33.1636 106.782 25.1512L106.789 18.1291L106.331 17.3637C105.67 16.2575 104.959 15.6644 103.884 15.3217C102.629 14.9216 89.6907 14.882 88.4307 15.2744ZM72.4864 22.9562C71.5912 23.3356 71.4663 23.712 71.4159 26.1777C71.3315 30.3321 71.1509 30.168 75.7521 30.1168L79.3576 30.0768L79.5613 29.6424C79.846 29.0334 79.846 24.0527 79.5613 23.5856C79.1314 22.8805 73.7874 22.4056 72.4864 22.9562ZM110.569 31.5512C109.337 32.1115 109.147 32.8171 109.145 36.8387C109.141 42.5003 109.069 42.4327 115.13 42.4327C121.075 42.4327 120.978 42.5249 120.978 36.9159C120.978 31.2553 121.079 31.3504 115.053 31.3644C112.239 31.3712 110.836 31.4295 110.569 31.5512ZM57.3466 39.0332C56.5981 39.6659 56.4487 43.5264 57.1406 44.368L57.5192 44.8289H60.0726C63.4896 44.8289 63.344 44.9621 63.344 41.8333C63.344 38.7224 63.4689 38.8363 60.0684 38.843C58.3012 38.8464 57.5017 38.9024 57.3466 39.0332ZM98.9448 42.3835C98.4848 44.2899 96.8528 45.23 94.2254 45.1011L92.9017 45.0365L92.8136 45.6441C92.765 45.9781 92.7467 48.0374 92.7726 50.2203C92.8428 56.2293 92.5793 56.0546 101.376 55.9147C105.731 55.8452 106.317 55.8075 106.638 55.5744C106.837 55.4301 107.112 55.3123 107.25 55.3123C107.967 55.3123 108.13 53.9967 108.074 48.6517C108.015 43.0794 108.072 43.3888 106.958 42.6248L106.13 42.0582L102.589 42.009L99.0471 41.9598L98.9448 42.3835ZM77.7846 46.3472C76.4874 47.3376 76.5727 53.019 77.894 53.6353C78.528 53.9311 84.0271 53.8809 84.4829 53.5749C85.6524 52.7907 85.6812 46.7753 84.5178 46.3907C84.3769 46.3444 84.2619 46.2435 84.2619 46.1668C84.2619 45.8415 78.2268 46.0094 77.7846 46.3472ZM26.4459 59.6675C26.2088 59.8089 26.1895 60.2592 26.1876 65.691C26.1852 72.2706 26.2008 72.1673 25.2797 71.6803C24.9356 71.4984 24.4562 71.3048 24.2149 71.2503C23.9735 71.1953 23.3485 70.94 22.8252 70.6823C21.4361 69.9979 18.3712 69.9154 16.6818 70.5167C16.0784 70.7315 15.2554 71.0129 14.8533 71.1412C13.837 71.4665 11.416 73.3704 11.416 73.8444C11.416 73.8989 11.2275 74.1494 10.9974 74.4003C10.3931 75.0601 9.89298 76.1127 9.45932 77.6406C9.26322 78.3308 9.22174 79.268 9.22174 82.9905C9.22174 88.1274 9.36033 89.2119 10.2017 90.6424C10.4671 91.0936 10.6844 91.5434 10.6844 91.6419C10.6844 91.8103 11.786 93.0091 12.3941 93.5023C12.5464 93.6259 12.9777 93.9816 13.3529 94.2924C14.1326 94.9401 15.6476 95.7489 16.0798 95.7489C16.2406 95.7489 16.4126 95.8165 16.4626 95.8985C16.5177 95.9907 17.7249 96.0486 19.5958 96.0486C22.9195 96.0486 22.8681 96.0588 25.3372 94.8604C26.4157 94.3368 26.8376 94.4628 26.8923 95.3233L26.9361 96.0211L29.1592 96.0761C30.3824 96.1061 31.4977 96.1046 31.6386 96.0723C31.9436 96.0023 32.0463 60.3755 31.7432 59.7954C31.5707 59.4658 26.9705 59.3548 26.4459 59.6675ZM51.7151 69.5399C51.4737 69.6031 51.0372 69.6625 50.7445 69.6721C49.8451 69.7021 48.1708 70.2938 47.2535 70.9062C47.0527 71.0404 46.6836 71.1953 46.4338 71.2508C46.0001 71.3468 44.5638 72.6591 43.3043 74.1103C42.7249 74.7773 42.5849 75.0268 42.255 75.98C41.5262 78.0856 41.5319 78.02 41.5842 83.6338L41.6332 88.9344L42.0339 90.1293C42.2545 90.7867 42.4987 91.3899 42.5769 91.47C42.6552 91.5497 42.7193 91.7253 42.7193 91.86C42.7193 92.0767 43.1902 92.6307 44.1791 93.5771C44.3512 93.7422 44.7307 94.1239 45.022 94.4261C45.6781 95.1051 47.3058 96.0486 47.8224 96.0486C48.0336 96.0486 48.4362 96.1234 48.7176 96.2147C50.9835 96.9516 54.5985 96.9733 56.7617 96.2629C57.1237 96.1442 57.6346 96.0472 57.8972 96.0477C58.1598 96.0481 58.5204 95.9642 58.6985 95.8614C59.2543 95.5395 61.203 93.9869 61.6498 93.5091C61.8846 93.2581 62.1203 93.053 62.1735 93.053C62.3819 93.053 63.1785 91.7379 63.269 91.2442C63.3845 90.6153 63.1026 90.2949 62.306 90.1491C62.0171 90.096 61.523 89.9271 61.2091 89.7736C60.8952 89.6197 60.3418 89.3504 59.9797 89.1742C59.6177 88.9986 59.2057 88.7712 59.0643 88.6699C58.8414 88.5101 58.7075 88.5898 58.0645 89.2654C57.6563 89.6945 57.1963 90.0864 57.0421 90.1366C56.888 90.1868 56.7617 90.2871 56.7617 90.36C56.7617 90.6148 55.6596 91.5994 55.0793 91.8629C53.0382 92.791 50.6974 92.3006 48.7779 90.5429C47.5415 89.4107 47.3911 88.9947 47.2907 86.4305C47.1804 83.6005 46.1302 83.9176 55.619 83.9176C60.8791 83.9176 63.7536 83.864 63.9389 83.7626C64.2665 83.5826 64.3664 78.8723 64.0671 77.7024C63.7428 76.4326 63.1022 75.034 62.5761 74.4462C62.2744 74.1093 62.0279 73.771 62.0279 73.6952C62.0279 73.3492 59.8666 71.4791 59.102 71.1639C58.6599 70.981 58.2649 70.7937 58.2243 70.7474C57.5512 69.9723 53.1726 69.1601 51.7151 69.5399ZM83.2258 69.4501C83.1923 69.4834 82.5809 69.5829 81.8672 69.6717C80.3235 69.8638 79.837 70.0071 78.4837 70.6678C77.9209 70.9424 77.3279 71.2049 77.1662 71.2508C76.8919 71.329 75.2986 72.8145 74.9734 73.2956C74.8927 73.4144 74.5812 73.8246 74.2804 74.2068C73.8552 74.7478 73.645 75.2444 73.3297 76.4515C72.6617 79.0118 72.7654 89.8571 73.4621 90.2982C73.529 90.3402 73.5837 90.4918 73.5837 90.6342C73.5837 91.1452 74.5604 92.8262 75.061 93.1756C75.3339 93.3662 75.6168 93.636 75.6894 93.7745C76.0575 94.4796 78.4945 96.0486 79.2209 96.0486C79.4792 96.0486 79.9704 96.1495 80.3122 96.273C80.6544 96.3966 81.1197 96.4975 81.3459 96.4975C81.5726 96.4975 81.7984 96.565 81.8484 96.6476C81.9026 96.7373 82.8708 96.7972 84.2619 96.7972C85.6529 96.7972 86.6211 96.7373 86.6753 96.6476C86.7253 96.565 86.9841 96.4975 87.2513 96.4975C87.5181 96.4975 87.973 96.3966 88.262 96.273C88.5509 96.1495 89.003 96.0433 89.267 96.0375C89.5314 96.0313 89.9448 95.8976 90.1861 95.7402C90.4275 95.5824 90.7565 95.3928 90.9172 95.3179C91.0785 95.2436 91.7035 94.706 92.3069 94.1235C92.9102 93.541 93.4712 93.0617 93.5527 93.0588C93.7832 93.0501 94.6477 91.4782 94.6477 91.0685C94.6477 90.6037 94.2758 90.2712 93.622 90.1515C93.3392 90.0999 92.4836 89.7389 91.72 89.3494C90.9568 88.96 90.2861 88.6187 90.229 88.5907C90.1725 88.5628 89.7709 88.9151 89.3367 89.3736C88.903 89.8325 88.4557 90.2099 88.3431 90.2133C88.2304 90.2162 87.9542 90.4913 87.7293 90.8238C86.3774 92.8238 82.522 92.7572 80.2693 90.695C78.5671 89.1361 78.5016 88.8137 78.5813 82.4292L78.6369 78.0016L79.1342 77.0562C80.2401 74.9534 81.5712 74.1827 84.0955 74.1827C86.5249 74.1827 87.7119 74.8545 89.1241 77.0282C89.6384 77.8202 90.4388 77.8322 91.7992 77.0687C92.3601 76.7536 93.0531 76.3829 93.3392 76.2449C94.6944 75.59 94.8353 75.1445 94.0552 73.9814C93.07 72.5124 92.0146 71.5852 90.8041 71.1258C90.4204 70.9796 89.8241 70.7069 89.48 70.5196C88.2855 69.8695 83.6114 69.0703 83.2258 69.4501ZM112.628 69.4501C112.594 69.4834 111.983 69.5829 111.269 69.6717C109.737 69.8623 109.252 70.0037 107.885 70.6581C107.323 70.9284 106.697 71.2165 106.496 71.299C106.058 71.4791 104.448 72.8169 104.448 73.0012C104.448 73.0727 104.166 73.5191 103.822 73.994C102.329 76.0519 102.327 76.062 102.327 83.3182V89.5338L103.189 91.2934C103.663 92.2611 104.105 93.053 104.172 93.053C104.238 93.053 104.64 93.3995 105.065 93.8223C105.938 94.6915 107.283 95.7489 107.515 95.7489C107.601 95.7489 107.785 95.8093 107.924 95.8826C108.064 95.9565 108.54 96.0945 108.983 96.1891C109.425 96.2841 110.116 96.4328 110.519 96.5192C111.557 96.7422 115.244 96.8498 115.857 96.6746C117.002 96.3474 117.863 96.1471 118.407 96.0815C119.232 95.9816 121.466 94.7156 121.636 94.2514C121.681 94.1278 122.015 93.7905 122.379 93.5023C123.303 92.7692 123.843 91.8672 124.347 90.2177L124.781 88.7968V83.364C124.781 79.8404 124.723 77.6802 124.615 77.2174C124.226 75.5422 123.966 74.8444 123.545 74.3555C123.299 74.0698 122.967 73.6248 122.806 73.3666C122.4 72.716 120.981 71.3985 120.539 71.2624C120.337 71.2001 119.778 70.9371 119.295 70.6774C117.89 69.9221 113.052 69.0317 112.628 69.4501ZM144.894 70.1446C144.491 70.189 144.018 70.3068 143.843 70.4067C143.667 70.5066 143.416 70.5882 143.284 70.5882C143.152 70.5882 142.946 70.6895 142.825 70.8126C142.705 70.9361 142.429 71.0742 142.214 71.119C141.998 71.1644 141.493 71.342 141.091 71.5138C140.043 71.9617 139.637 71.9544 139.588 71.4868C139.567 71.2812 139.514 70.8936 139.472 70.6258L139.395 70.1393H137.157C135.21 70.1393 134.89 70.1731 134.692 70.4014C134.49 70.6335 134.464 72.0794 134.462 83.2076C134.459 96.8194 134.432 96.3551 135.224 96.137C135.394 96.0906 136.6 96.0515 137.907 96.0506L140.281 96.0486L140.329 87.3244C140.354 82.5267 140.43 78.3988 140.498 78.1517C140.78 77.1141 142.944 74.9317 143.691 74.9317C143.82 74.9317 143.966 74.8641 144.016 74.7816C144.344 74.2387 146.925 74.7691 148.043 75.6088C150.174 77.2102 150.225 77.492 150.229 87.599C150.231 92.2186 150.26 96.0264 150.293 96.0607C150.326 96.0954 151.594 96.0897 153.109 96.0486L155.865 95.9734L155.938 87.2124C156.016 77.7478 155.97 78.27 156.834 77.1778C158.003 75.702 158.25 75.4747 159.133 75.0639C160.094 74.6166 161.807 74.4486 162.008 74.7816C162.058 74.8641 162.26 74.9317 162.458 74.9317C163.108 74.9317 165.004 76.4447 165.006 76.9645C165.007 77.0533 165.172 77.284 165.372 77.4775C165.574 77.671 165.738 77.9486 165.738 78.0938C165.738 78.2396 165.804 78.4003 165.884 78.451C165.98 78.5108 166.031 81.6227 166.031 87.2959V96.0486L166.653 96.0496C166.994 96.0506 168.163 96.0568 169.249 96.0646C170.335 96.0718 171.339 96.0713 171.48 96.0631C172 96.0332 171.816 78.4471 171.279 76.9534C170.888 75.8627 170.271 74.6479 170.016 74.4612C169.863 74.3492 169.611 74.0572 169.456 73.8125C168.878 72.8956 167.023 71.3748 166.323 71.244C166.042 71.1914 165.746 71.0963 165.665 71.0326C164.187 69.8623 158.805 69.7947 156.737 70.9202C156.493 71.0529 156.05 71.2083 155.753 71.2657C155.443 71.3251 154.945 71.6089 154.587 71.9293C153.341 73.0461 153.214 73.0548 151.975 72.0997C151.451 71.6953 150.762 71.2928 150.444 71.2049C150.127 71.1171 149.735 70.953 149.575 70.8401C148.772 70.2778 146.606 69.9559 144.894 70.1446ZM55.3541 74.5678C57.6342 75.673 59.5282 79.1594 58.2342 79.8684C57.7365 80.1411 47.624 80.075 47.3991 79.7979C46.9216 79.2087 47.7772 76.4351 48.6695 75.6798C49.0574 75.3511 50.5084 74.3893 50.7643 74.2908C51.5077 74.0046 54.574 74.1899 55.3541 74.5678ZM115.902 74.4303C117.266 75.1528 118.115 76.0012 118.801 77.3279C119.686 79.0407 119.227 89.3557 118.236 90.0208C118.041 90.1511 117.569 90.5666 117.186 90.944C115.17 92.9324 111.685 92.7205 109.416 90.472C107.877 88.9464 107.915 89.1197 107.85 83.2926L107.794 78.3993L108.272 77.4515C108.846 76.3149 110.141 74.9361 111.038 74.506C111.912 74.0862 115.156 74.036 115.902 74.4303ZM22.0838 74.7999C23.958 75.4018 25.456 76.7661 26.0047 78.3718C26.3059 79.2535 26.2578 87.015 25.9448 88.0077C25.6149 89.055 25.0864 89.8895 24.6448 90.0613C24.4444 90.1395 24.1343 90.3455 23.9551 90.5202C21.7689 92.6505 16.9561 91.6669 15.4656 88.7848C14.5252 86.9663 14.4941 78.6464 15.4241 77.6556C15.5547 77.5166 15.9559 77.0263 16.3155 76.5663C16.9745 75.7242 18.1327 74.9317 18.7045 74.9317C18.8694 74.9317 19.0457 74.8641 19.0952 74.7816C19.2183 74.5784 21.4356 74.5915 22.0838 74.7999Z" fill="#276387" stroke="white" mask="url(#path-1-inside-1)"/>
<mask id="path-2-inside-2" fill="white">
<path fill-rule="evenodd" clip-rule="evenodd" d="M111.061 21.99C110.285 22.3356 110.144 22.8944 110.227 25.3123L110.297 27.3808L110.739 27.7925L111.181 28.2042H113.711H116.241L116.671 27.7447L117.101 27.2853V25.0865C117.101 21.8631 116.993 21.7608 113.605 21.7704C112.15 21.7743 111.4 21.8394 111.061 21.99ZM68.2164 33.7572C67.3844 34.303 67.2647 34.9213 67.3189 38.4024C67.3929 43.1373 67.3052 43.062 72.6577 42.9993L76.3397 42.9564L76.7323 42.5818C77.8801 41.4873 77.849 34.6751 76.6918 33.7427C76.1167 33.2799 68.9258 33.2919 68.2164 33.7572ZM13.7524 110.809C13.6737 111.021 13.6096 112.061 13.6096 113.122C13.6096 115.246 13.5318 115.437 12.87 114.935C11.091 113.589 8.08504 114.643 7.36666 116.865C5.82525 121.634 9.41433 125.301 13.0892 122.712C13.8953 122.144 13.9023 122.145 13.9023 122.778C13.9023 123.381 14.3831 123.62 15.0101 123.327C15.4121 123.14 15.3834 123.83 15.365 114.849C15.3556 110.265 15.3905 110.432 14.4472 110.428C13.9881 110.426 13.8712 110.49 13.7524 110.809ZM79.6172 112.318C79.4965 112.37 79.4343 112.743 79.4343 113.416C79.4343 114.526 79.3584 114.612 78.3694 114.617C78.1399 114.618 77.9249 114.719 77.8764 114.849C77.7524 115.179 78.2421 115.667 78.6966 115.667C79.3989 115.667 79.4343 115.821 79.4371 118.88C79.4399 122.656 79.7958 123.386 81.7157 123.555C83.029 123.67 83.7087 123.33 83.6484 122.588L83.6036 122.032L82.7858 122.082C82.033 122.128 81.9321 122.095 81.506 121.659L81.0435 121.185V118.606C81.0435 115.602 81.0143 115.667 82.3601 115.667C83.3533 115.667 83.6767 115.514 83.6767 115.047C83.6767 114.655 83.4085 114.556 82.4369 114.589C81.2396 114.629 81.1308 114.529 81.0435 113.314L80.9705 112.297L80.3855 112.268C80.0636 112.252 79.718 112.275 79.6172 112.318ZM155.974 112.321C155.857 112.37 155.791 112.712 155.791 113.273C155.791 114.299 155.567 114.619 154.845 114.619C154.299 114.619 154.095 114.921 154.334 115.378C154.444 115.589 154.642 115.667 155.062 115.667C155.791 115.667 155.774 115.592 155.825 119.112C155.881 123.062 156.801 124.193 159.361 123.459C160.635 123.094 160.487 121.916 159.183 122.047C158.427 122.123 158.314 122.094 157.946 121.735L157.54 121.34L157.58 118.541L157.619 115.742L158.759 115.667C159.878 115.594 160.171 115.448 160.177 114.964C160.181 114.67 159.911 114.587 158.962 114.589C157.545 114.593 157.546 114.594 157.546 113.491C157.546 112.335 156.973 111.909 155.974 112.321ZM25.6585 114.474C24.9665 114.615 23.5693 115.32 23.3054 115.661C22.6657 116.489 22.4725 117.232 22.4659 118.887C22.4574 121.131 22.4512 121.114 23.7423 122.543C25.3347 124.305 31.2698 123.633 30.1479 121.817C30.0343 121.633 29.9122 121.631 29.3093 121.801C26.293 122.649 24.1468 121.765 24.1425 119.673C24.1416 119.189 23.8663 119.227 27.6119 119.199C30.6956 119.176 30.6405 119.2 30.6061 117.911C30.5377 115.376 28.4311 113.912 25.6585 114.474ZM41.3295 114.538C41.0075 114.647 40.4918 114.875 40.1831 115.042C39.5967 115.362 39.2083 115.334 39.2083 114.973C39.2083 114.698 38.5102 114.428 38.0826 114.538C37.5952 114.663 37.5872 114.78 37.6315 120.983L37.6725 126.675H38.4767H39.2813L39.3544 124.703C39.4392 122.415 39.4308 122.434 40.152 122.935C43.6623 125.374 47.4626 120.756 45.5799 116.337C44.92 114.788 42.9939 113.973 41.3295 114.538ZM55.0791 114.486C53.6805 114.812 52.9584 115.222 52.9584 115.689C52.9584 116.299 53.2271 116.343 54.2532 115.901C56.374 114.987 58.078 115.608 58.078 117.294C58.078 118.215 57.8871 118.36 56.6615 118.37C53.7102 118.392 52.8264 118.842 52.504 120.486C52.0161 122.973 55.2827 124.617 57.5001 123C58.0125 122.627 58.3161 122.626 58.4113 122.999C58.4999 123.345 59.1947 123.563 59.527 123.348C59.8791 123.121 59.9494 116.93 59.61 116.014C59.1414 114.75 57.0169 114.034 55.0791 114.486ZM70.4385 114.571C70.1971 114.704 69.8427 114.937 69.6508 115.09C69.1742 115.469 68.9027 115.44 68.9027 115.01C68.9027 114.616 68.4149 114.454 67.7304 114.619L67.3665 114.707V118.965V123.223L67.7691 123.368C68.0274 123.461 68.3149 123.461 68.5732 123.368L68.9758 123.224L69.0489 120.431L69.1219 117.638L69.5608 117.004C70.241 116.02 70.6959 115.742 71.6245 115.742C72.1755 115.742 72.4668 115.672 72.5625 115.517C73.1088 114.633 71.574 113.949 70.4385 114.571ZM92.1605 114.528C90.5772 114.888 89.6764 115.584 90.1567 116.076C90.366 116.29 90.457 116.28 91.164 115.965C93.5813 114.889 95.6808 115.842 95.3136 117.848L95.2193 118.363L94.0192 118.368C90.9939 118.38 90.0704 118.803 89.6603 120.361C88.9712 122.982 91.9451 124.447 94.8309 122.908C95.3541 122.629 95.5413 122.585 95.5851 122.733C95.7835 123.406 95.8274 123.455 96.2337 123.455C96.987 123.455 97.0115 123.324 96.9611 119.534C96.9097 115.688 96.9111 115.692 95.9462 115.022C94.9784 114.349 93.684 114.181 92.1605 114.528ZM107.897 114.613C107.502 114.776 107.11 114.978 107.027 115.063C106.786 115.309 106.057 115.254 106.057 114.989C106.057 114.695 105.407 114.442 104.95 114.56C104.539 114.666 104.562 114.34 104.581 119.851C104.594 123.484 104.585 123.448 105.406 123.453C106.173 123.456 106.203 123.337 106.203 120.302V117.507L106.721 116.812C107.873 115.269 109.362 115.194 110.128 116.64C110.318 116.998 110.382 117.718 110.442 120.157L110.518 123.224L110.9 123.361C112.053 123.775 112.196 123.379 112.199 119.781C112.201 117.166 112.216 117.109 113.141 116.243C113.963 115.473 115.113 115.372 115.676 116.021C116.172 116.593 116.297 117.46 116.297 120.359C116.297 123.401 116.313 123.458 117.201 123.453C117.974 123.447 117.979 123.424 117.969 119.828C117.958 115.948 117.896 115.687 116.821 114.958C115.687 114.189 114.32 114.169 113.225 114.906C112.585 115.337 111.776 115.662 111.691 115.521C111.184 114.681 109.004 114.159 107.897 114.613ZM128.218 114.485C123.821 115.501 123.71 122.263 128.072 123.444C130.094 123.992 132.826 123.253 132.826 122.158V121.617L132.137 121.714C131.758 121.767 131.382 121.877 131.303 121.959C130.965 122.304 128.555 122.112 127.793 121.678C126.632 121.017 126.227 119.268 127.231 119.253C127.532 119.248 128.946 119.23 130.372 119.211C132.083 119.19 133.022 119.12 133.133 119.007C133.628 118.5 132.886 115.702 132.151 115.305C131.999 115.222 131.71 115.046 131.509 114.912C130.719 114.388 129.385 114.215 128.218 114.485ZM143.932 114.522C143.645 114.616 143.236 114.812 143.023 114.956C142.492 115.316 142.12 115.284 141.689 114.843C141.293 114.438 141.009 114.382 140.569 114.624C140.172 114.841 140.123 123.209 140.517 123.364C141.734 123.842 141.895 123.501 141.895 120.44C141.895 117.024 142.276 116.166 144.013 115.668C145.811 115.153 146.329 116.131 146.429 120.232L146.502 123.224L146.884 123.361C147.094 123.436 147.44 123.453 147.652 123.399L148.039 123.3V119.975C148.039 116.062 147.951 115.662 146.972 115.07C145.787 114.354 144.921 114.198 143.932 114.522ZM169.249 114.523C166.848 115.191 166.104 116.263 166.104 119.055V120.871L166.66 121.699C168.288 124.121 171.811 124.279 173.961 122.026C175.274 120.65 175.361 117.045 174.116 115.628C173.287 114.684 170.743 114.107 169.249 114.523ZM27.5567 115.586C28.5853 115.961 29.4592 117.839 28.7375 118.122C28.129 118.361 24.4471 118.218 24.3071 117.95C23.6264 116.648 25.9116 114.986 27.5567 115.586ZM129.908 115.517C130.662 115.732 131.306 116.439 131.422 117.18C131.575 118.165 131.469 118.213 129.187 118.211C126.908 118.208 126.751 118.156 126.883 117.443C127.155 115.965 128.492 115.114 129.908 115.517ZM12.0974 115.829C13.3334 116.441 13.6105 117.021 13.6049 118.984C13.5997 120.96 13.5705 121.023 12.3501 121.656C9.99318 122.88 8.27124 120.996 8.91702 117.901C9.33137 115.916 10.6027 115.088 12.0974 115.829ZM43.0184 115.855C44.0507 116.567 44.5499 119.316 43.9225 120.835C43.4643 121.946 41.955 122.384 40.8388 121.731C40.489 121.526 40.1246 121.358 40.0294 121.358C39.361 121.358 39.0405 118.03 39.6217 117.127C40.5314 115.715 42.012 115.16 43.0184 115.855ZM171.705 115.801C173.018 116.487 173.545 118.318 173.031 120.409C172.485 122.626 168.446 122.652 167.928 120.442C167.155 117.142 169.278 114.533 171.705 115.801ZM58.0728 119.551C58.3283 120.039 58.2105 121.358 57.9116 121.358C57.8385 121.358 57.5091 121.541 57.1786 121.765C55.5043 122.899 53.2718 121.496 54.4743 120.065C55.1013 119.318 57.7537 118.94 58.0728 119.551ZM95.2867 119.598C95.5823 120.728 95.4262 121.159 94.5377 121.667C92.5607 122.798 90.5555 121.759 91.6133 120.151C92.1817 119.288 95.0906 118.85 95.2867 119.598ZM14.0536 129.585C13.9693 129.747 13.9023 130.839 13.9023 132.057C13.9023 133.256 13.8769 134.238 13.8458 134.238C13.8142 134.238 13.3475 134.027 12.8083 133.768C11.5992 133.189 10.235 133.212 9.27009 133.827C8.96181 134.024 8.59649 134.227 8.4579 134.28C7.96437 134.466 7.31999 136.563 7.31999 137.982C7.31999 141.756 10.1492 143.675 13.0623 141.876C14.2045 141.171 14.195 141.173 14.195 141.64C14.195 142.376 15.1708 142.727 15.5441 142.126C15.7181 141.847 15.6818 129.922 15.5064 129.585C15.3961 129.374 15.1986 129.296 14.78 129.296C14.3614 129.296 14.1639 129.374 14.0536 129.585ZM152.99 130.19C152.7 130.435 152.433 130.795 152.396 130.99C152.201 132.032 153.115 132.409 153.553 131.467C153.831 130.87 154.825 130.697 155.215 131.179C156.26 132.469 158.573 132.104 158.944 130.59C159.169 129.672 158.135 129.388 157.775 130.269C157.587 130.73 157.498 130.793 157.036 130.793C156.678 130.793 156.269 130.626 155.751 130.269C154.721 129.559 153.77 129.532 152.99 130.19ZM116.988 131.131C116.81 131.267 116.733 131.601 116.703 132.366L116.662 133.414L116.028 133.501C114.808 133.668 114.846 134.39 116.088 134.653L116.662 134.775L116.744 137.689C116.825 140.583 116.888 141.054 117.28 141.676C118.016 142.845 121.123 142.752 121.123 141.56C121.123 140.933 120.998 140.861 120.042 140.939C118.553 141.061 118.474 140.88 118.524 137.471L118.564 134.762L119.697 134.68C120.931 134.59 121.174 134.458 121.099 133.918C121.053 133.585 120.978 133.56 119.807 133.489L118.564 133.414L118.523 132.441C118.47 131.133 117.764 130.531 116.988 131.131ZM24.9462 133.471C23.098 133.974 22.3447 134.747 21.8875 136.609C20.8665 140.771 24.3014 143.688 28.5306 142.25C30.0814 141.723 30.1512 140.265 28.6023 140.749C25.8626 141.604 23.6542 140.834 23.6372 139.016L23.6297 138.207L26.6635 138.166C30.2808 138.118 30.2177 138.15 29.9636 136.485C29.6058 134.137 27.3889 132.806 24.9462 133.471ZM43.231 133.471C38.9721 134.639 39.1687 141.855 43.4761 142.479C45.4611 142.766 47.5234 141.868 47.3725 140.782C47.308 140.321 46.8026 140.288 45.85 140.683C43.5473 141.64 41.9875 140.489 41.9875 137.832C41.9875 135.043 43.9616 133.737 46.1729 135.064C46.9719 135.543 47.2533 135.472 47.2533 134.791C47.2533 133.835 44.8186 133.036 43.231 133.471ZM55.8107 133.431C53.664 133.993 52.8528 134.869 52.4366 137.075C51.8431 140.218 53.689 142.529 56.7827 142.516C60.6225 142.501 62.5702 138.815 60.7507 135.005C60.2478 133.952 57.3497 133.029 55.8107 133.431ZM70.4385 133.773C69.3637 134.331 69.0823 134.347 68.9027 133.864C68.7481 133.448 67.9491 133.327 67.6154 133.669C67.2411 134.052 67.3792 141.965 67.7648 142.242C68.9404 143.085 69.195 142.523 69.195 139.089V136.173L69.7734 135.575C71.154 134.147 72.6992 134.295 73.148 135.898C73.2267 136.178 73.2908 137.668 73.2908 139.208C73.2908 142.262 73.3535 142.475 74.2515 142.475C74.967 142.475 75.0462 142.142 75.0462 139.127V136.328L75.6368 135.671C76.6762 134.517 77.7722 134.27 78.5533 135.016C79.084 135.522 79.1656 136.004 79.2504 139.15C79.3419 142.543 79.364 142.606 80.3888 142.409L80.8729 142.316L80.9776 141.174C81.1935 138.817 80.9389 135.554 80.4605 134.539C79.9113 133.374 77.627 133.098 75.9112 133.988L74.8058 134.561L74.3627 134.287C74.1195 134.137 73.7546 133.894 73.5524 133.747C72.8472 133.238 71.4482 133.249 70.4385 133.773ZM91.2828 133.466C91.082 133.527 90.5597 133.755 90.1228 133.974C89.2606 134.406 89.139 134.393 88.9372 133.849C88.7614 133.376 87.8658 133.33 87.6292 133.782C87.5283 133.976 87.4892 136.025 87.5146 139.805L87.5528 145.534L87.9271 145.749C88.2495 145.934 88.3603 145.935 88.7313 145.752L89.1621 145.541L89.2026 143.559C89.2479 141.354 89.221 141.394 90.2434 142.044C91.9663 143.141 94.1851 142.445 95.3178 140.453C96.155 138.98 95.8571 134.879 94.8724 134.324C94.7145 134.236 94.3326 134.008 94.0244 133.82C93.4262 133.454 91.956 133.264 91.2828 133.466ZM128.657 133.437C127.832 133.567 126.613 134.281 126.56 134.667C126.473 135.298 126.736 135.356 127.771 134.932C129.973 134.029 131.502 134.5 131.724 136.148C131.856 137.132 131.786 137.232 130.952 137.24C127.902 137.272 126.681 137.755 126.167 139.135C125.266 141.549 128.278 143.416 130.905 142.071C131.356 141.84 131.775 141.629 131.836 141.601C131.898 141.574 131.948 141.656 131.948 141.785C131.948 142.702 133.327 142.561 133.498 141.627C133.611 141.012 133.468 135.768 133.318 134.998C133.095 133.86 130.822 133.098 128.657 133.437ZM142.553 133.471C138.772 134.391 138.215 140.349 141.741 142.171C143.275 142.964 143.52 144.248 142.186 144.497C140.7 144.774 140.536 145.306 141.818 145.687C143.566 146.207 145.567 144.665 144.538 143.591C144.142 143.178 144.299 142.606 144.864 142.404C145.973 142.008 146.576 141.478 146.576 140.9C146.576 140.263 146.127 140.193 145.148 140.678C142.872 141.803 141.22 140.47 141.343 137.608C141.462 134.832 143.039 133.787 145.27 135.005C146.24 135.534 146.576 135.497 146.576 134.86C146.576 133.882 144.215 133.068 142.553 133.471ZM154.255 133.472C152.695 133.775 151.781 134.49 152.202 135.079C152.372 135.318 152.455 135.307 153.393 134.92C155.729 133.957 157.184 134.486 157.283 136.335L157.327 137.158L156.815 137.192C152.659 137.469 151.696 137.976 151.696 139.891C151.696 142.129 154.14 143.251 156.469 142.083C156.941 141.846 157.368 141.633 157.418 141.609C157.468 141.584 157.544 141.701 157.587 141.868C157.785 142.645 158.952 142.566 159.099 141.765C159.264 140.863 159.054 135.575 158.827 134.923C158.417 133.749 156.296 133.075 154.255 133.472ZM168.37 133.485C165.935 134.122 165.062 135.463 165.185 138.372C165.302 141.137 166.753 142.516 169.541 142.513C173.294 142.509 175.287 138.868 173.552 135.185C172.915 133.831 170.311 132.977 168.37 133.485ZM102.02 133.662C101.733 134.138 101.966 140.216 102.297 140.859C103.214 142.646 105.634 143.092 107.31 141.783C107.838 141.371 108.295 141.393 108.221 141.827C108.152 142.237 108.867 142.577 109.337 142.358L109.718 142.18L109.679 137.872L109.641 133.564H108.91H108.178L108.105 136.559C108.021 139.973 108.034 139.933 106.798 140.588C104.404 141.856 103.57 140.838 103.57 136.643C103.57 135.169 103.53 133.856 103.482 133.726C103.375 133.442 102.184 133.391 102.02 133.662ZM27.132 134.683C27.8683 135.048 28.2761 135.761 28.211 136.573L28.1643 137.158H25.8989C23.2813 137.158 23.2964 137.168 23.8922 135.836C24.4786 134.524 25.8367 134.041 27.132 134.683ZM12.3369 134.779C12.5947 134.911 13.052 135.262 13.3536 135.558L13.9023 136.096V137.914C13.9023 139.945 13.9377 139.864 12.7192 140.582C11 141.595 9.36389 140.8 9.16968 138.858C8.8581 135.746 10.3887 133.775 12.3369 134.779ZM58.4249 134.913C59.4799 135.621 59.9744 138.56 59.2503 139.817C58.5607 141.014 56.4932 141.4 55.2134 140.571C53.4321 139.417 53.8752 135.493 55.8837 134.636C56.316 134.452 58.0134 134.637 58.4249 134.913ZM92.91 134.903C93.8867 135.582 94.3279 137.496 93.9145 139.26C93.5332 140.888 91.9725 141.478 90.4315 140.578C89.1984 139.857 89.2352 139.936 89.2352 137.99V136.247L89.8569 135.624C90.9632 134.516 92.0017 134.27 92.91 134.903ZM170.901 134.784C172.655 135.71 172.886 139.493 171.257 140.599C169.27 141.948 167.084 140.766 166.939 138.264C166.775 135.427 168.781 133.666 170.901 134.784ZM131.519 138.287C132.021 138.562 131.92 139.972 131.369 140.374C129.968 141.395 128.843 141.439 128.072 140.501C127.237 139.486 128.091 138.475 129.939 138.292C130.601 138.226 131.164 138.163 131.19 138.152C131.215 138.141 131.363 138.201 131.519 138.287ZM157.025 138.278C157.364 138.41 157.4 138.502 157.4 139.241C157.4 140.168 157.124 140.473 155.826 140.977C153.829 141.754 152.447 139.573 154.309 138.586C154.988 138.225 156.461 138.058 157.025 138.278Z"/>
<path d="M84.3804 17.7271C82.1315 17.8921 81.9943 18.1715 81.9943 22.5817C81.9943 27.0913 82.0976 27.306 84.2645 27.306L85.5051 27.2308L88.3372 27.211L91.1697 27.1912L91.6288 26.7216L92.0875 26.2525L92.1318 22.8611C92.1973 17.8926 92.1803 17.8704 88.3235 17.8704H85.8705L84.3804 17.7271Z"/>
<path d="M84.6708 30.1515C83.9685 30.1515 83.0856 31.0738 82.7947 32.1124C82.7151 32.3967 82.6524 34.8493 82.6524 37.6789V42.7377L83.037 43.3709C84.0246 44.9993 84.3988 45.1161 88.7412 45.1547C91.1051 45.1759 92.5739 45.0359 92.9015 45.0359L94.2252 45.1006C96.8526 45.2295 98.4846 44.2893 98.9446 42.383L99.0469 41.9593L99.0064 34.8691L98.9479 33.5381C98.8814 32.0111 98.5227 31.0801 97.7963 30.5497C97.3622 30.2326 97.2354 30.2254 91.4294 30.1877L85.5051 30.1496L84.6708 30.1515Z"/>
</mask>
<path fill-rule="evenodd" clip-rule="evenodd" d="M111.061 21.99C110.285 22.3356 110.144 22.8944 110.227 25.3123L110.297 27.3808L110.739 27.7925L111.181 28.2042H113.711H116.241L116.671 27.7447L117.101 27.2853V25.0865C117.101 21.8631 116.993 21.7608 113.605 21.7704C112.15 21.7743 111.4 21.8394 111.061 21.99ZM68.2164 33.7572C67.3844 34.303 67.2647 34.9213 67.3189 38.4024C67.3929 43.1373 67.3052 43.062 72.6577 42.9993L76.3397 42.9564L76.7323 42.5818C77.8801 41.4873 77.849 34.6751 76.6918 33.7427C76.1167 33.2799 68.9258 33.2919 68.2164 33.7572ZM13.7524 110.809C13.6737 111.021 13.6096 112.061 13.6096 113.122C13.6096 115.246 13.5318 115.437 12.87 114.935C11.091 113.589 8.08504 114.643 7.36666 116.865C5.82525 121.634 9.41433 125.301 13.0892 122.712C13.8953 122.144 13.9023 122.145 13.9023 122.778C13.9023 123.381 14.3831 123.62 15.0101 123.327C15.4121 123.14 15.3834 123.83 15.365 114.849C15.3556 110.265 15.3905 110.432 14.4472 110.428C13.9881 110.426 13.8712 110.49 13.7524 110.809ZM79.6172 112.318C79.4965 112.37 79.4343 112.743 79.4343 113.416C79.4343 114.526 79.3584 114.612 78.3694 114.617C78.1399 114.618 77.9249 114.719 77.8764 114.849C77.7524 115.179 78.2421 115.667 78.6966 115.667C79.3989 115.667 79.4343 115.821 79.4371 118.88C79.4399 122.656 79.7958 123.386 81.7157 123.555C83.029 123.67 83.7087 123.33 83.6484 122.588L83.6036 122.032L82.7858 122.082C82.033 122.128 81.9321 122.095 81.506 121.659L81.0435 121.185V118.606C81.0435 115.602 81.0143 115.667 82.3601 115.667C83.3533 115.667 83.6767 115.514 83.6767 115.047C83.6767 114.655 83.4085 114.556 82.4369 114.589C81.2396 114.629 81.1308 114.529 81.0435 113.314L80.9705 112.297L80.3855 112.268C80.0636 112.252 79.718 112.275 79.6172 112.318ZM155.974 112.321C155.857 112.37 155.791 112.712 155.791 113.273C155.791 114.299 155.567 114.619 154.845 114.619C154.299 114.619 154.095 114.921 154.334 115.378C154.444 115.589 154.642 115.667 155.062 115.667C155.791 115.667 155.774 115.592 155.825 119.112C155.881 123.062 156.801 124.193 159.361 123.459C160.635 123.094 160.487 121.916 159.183 122.047C158.427 122.123 158.314 122.094 157.946 121.735L157.54 121.34L157.58 118.541L157.619 115.742L158.759 115.667C159.878 115.594 160.171 115.448 160.177 114.964C160.181 114.67 159.911 114.587 158.962 114.589C157.545 114.593 157.546 114.594 157.546 113.491C157.546 112.335 156.973 111.909 155.974 112.321ZM25.6585 114.474C24.9665 114.615 23.5693 115.32 23.3054 115.661C22.6657 116.489 22.4725 117.232 22.4659 118.887C22.4574 121.131 22.4512 121.114 23.7423 122.543C25.3347 124.305 31.2698 123.633 30.1479 121.817C30.0343 121.633 29.9122 121.631 29.3093 121.801C26.293 122.649 24.1468 121.765 24.1425 119.673C24.1416 119.189 23.8663 119.227 27.6119 119.199C30.6956 119.176 30.6405 119.2 30.6061 117.911C30.5377 115.376 28.4311 113.912 25.6585 114.474ZM41.3295 114.538C41.0075 114.647 40.4918 114.875 40.1831 115.042C39.5967 115.362 39.2083 115.334 39.2083 114.973C39.2083 114.698 38.5102 114.428 38.0826 114.538C37.5952 114.663 37.5872 114.78 37.6315 120.983L37.6725 126.675H38.4767H39.2813L39.3544 124.703C39.4392 122.415 39.4308 122.434 40.152 122.935C43.6623 125.374 47.4626 120.756 45.5799 116.337C44.92 114.788 42.9939 113.973 41.3295 114.538ZM55.0791 114.486C53.6805 114.812 52.9584 115.222 52.9584 115.689C52.9584 116.299 53.2271 116.343 54.2532 115.901C56.374 114.987 58.078 115.608 58.078 117.294C58.078 118.215 57.8871 118.36 56.6615 118.37C53.7102 118.392 52.8264 118.842 52.504 120.486C52.0161 122.973 55.2827 124.617 57.5001 123C58.0125 122.627 58.3161 122.626 58.4113 122.999C58.4999 123.345 59.1947 123.563 59.527 123.348C59.8791 123.121 59.9494 116.93 59.61 116.014C59.1414 114.75 57.0169 114.034 55.0791 114.486ZM70.4385 114.571C70.1971 114.704 69.8427 114.937 69.6508 115.09C69.1742 115.469 68.9027 115.44 68.9027 115.01C68.9027 114.616 68.4149 114.454 67.7304 114.619L67.3665 114.707V118.965V123.223L67.7691 123.368C68.0274 123.461 68.3149 123.461 68.5732 123.368L68.9758 123.224L69.0489 120.431L69.1219 117.638L69.5608 117.004C70.241 116.02 70.6959 115.742 71.6245 115.742C72.1755 115.742 72.4668 115.672 72.5625 115.517C73.1088 114.633 71.574 113.949 70.4385 114.571ZM92.1605 114.528C90.5772 114.888 89.6764 115.584 90.1567 116.076C90.366 116.29 90.457 116.28 91.164 115.965C93.5813 114.889 95.6808 115.842 95.3136 117.848L95.2193 118.363L94.0192 118.368C90.9939 118.38 90.0704 118.803 89.6603 120.361C88.9712 122.982 91.9451 124.447 94.8309 122.908C95.3541 122.629 95.5413 122.585 95.5851 122.733C95.7835 123.406 95.8274 123.455 96.2337 123.455C96.987 123.455 97.0115 123.324 96.9611 119.534C96.9097 115.688 96.9111 115.692 95.9462 115.022C94.9784 114.349 93.684 114.181 92.1605 114.528ZM107.897 114.613C107.502 114.776 107.11 114.978 107.027 115.063C106.786 115.309 106.057 115.254 106.057 114.989C106.057 114.695 105.407 114.442 104.95 114.56C104.539 114.666 104.562 114.34 104.581 119.851C104.594 123.484 104.585 123.448 105.406 123.453C106.173 123.456 106.203 123.337 106.203 120.302V117.507L106.721 116.812C107.873 115.269 109.362 115.194 110.128 116.64C110.318 116.998 110.382 117.718 110.442 120.157L110.518 123.224L110.9 123.361C112.053 123.775 112.196 123.379 112.199 119.781C112.201 117.166 112.216 117.109 113.141 116.243C113.963 115.473 115.113 115.372 115.676 116.021C116.172 116.593 116.297 117.46 116.297 120.359C116.297 123.401 116.313 123.458 117.201 123.453C117.974 123.447 117.979 123.424 117.969 119.828C117.958 115.948 117.896 115.687 116.821 114.958C115.687 114.189 114.32 114.169 113.225 114.906C112.585 115.337 111.776 115.662 111.691 115.521C111.184 114.681 109.004 114.159 107.897 114.613ZM128.218 114.485C123.821 115.501 123.71 122.263 128.072 123.444C130.094 123.992 132.826 123.253 132.826 122.158V121.617L132.137 121.714C131.758 121.767 131.382 121.877 131.303 121.959C130.965 122.304 128.555 122.112 127.793 121.678C126.632 121.017 126.227 119.268 127.231 119.253C127.532 119.248 128.946 119.23 130.372 119.211C132.083 119.19 133.022 119.12 133.133 119.007C133.628 118.5 132.886 115.702 132.151 115.305C131.999 115.222 131.71 115.046 131.509 114.912C130.719 114.388 129.385 114.215 128.218 114.485ZM143.932 114.522C143.645 114.616 143.236 114.812 143.023 114.956C142.492 115.316 142.12 115.284 141.689 114.843C141.293 114.438 141.009 114.382 140.569 114.624C140.172 114.841 140.123 123.209 140.517 123.364C141.734 123.842 141.895 123.501 141.895 120.44C141.895 117.024 142.276 116.166 144.013 115.668C145.811 115.153 146.329 116.131 146.429 120.232L146.502 123.224L146.884 123.361C147.094 123.436 147.44 123.453 147.652 123.399L148.039 123.3V119.975C148.039 116.062 147.951 115.662 146.972 115.07C145.787 114.354 144.921 114.198 143.932 114.522ZM169.249 114.523C166.848 115.191 166.104 116.263 166.104 119.055V120.871L166.66 121.699C168.288 124.121 171.811 124.279 173.961 122.026C175.274 120.65 175.361 117.045 174.116 115.628C173.287 114.684 170.743 114.107 169.249 114.523ZM27.5567 115.586C28.5853 115.961 29.4592 117.839 28.7375 118.122C28.129 118.361 24.4471 118.218 24.3071 117.95C23.6264 116.648 25.9116 114.986 27.5567 115.586ZM129.908 115.517C130.662 115.732 131.306 116.439 131.422 117.18C131.575 118.165 131.469 118.213 129.187 118.211C126.908 118.208 126.751 118.156 126.883 117.443C127.155 115.965 128.492 115.114 129.908 115.517ZM12.0974 115.829C13.3334 116.441 13.6105 117.021 13.6049 118.984C13.5997 120.96 13.5705 121.023 12.3501 121.656C9.99318 122.88 8.27124 120.996 8.91702 117.901C9.33137 115.916 10.6027 115.088 12.0974 115.829ZM43.0184 115.855C44.0507 116.567 44.5499 119.316 43.9225 120.835C43.4643 121.946 41.955 122.384 40.8388 121.731C40.489 121.526 40.1246 121.358 40.0294 121.358C39.361 121.358 39.0405 118.03 39.6217 117.127C40.5314 115.715 42.012 115.16 43.0184 115.855ZM171.705 115.801C173.018 116.487 173.545 118.318 173.031 120.409C172.485 122.626 168.446 122.652 167.928 120.442C167.155 117.142 169.278 114.533 171.705 115.801ZM58.0728 119.551C58.3283 120.039 58.2105 121.358 57.9116 121.358C57.8385 121.358 57.5091 121.541 57.1786 121.765C55.5043 122.899 53.2718 121.496 54.4743 120.065C55.1013 119.318 57.7537 118.94 58.0728 119.551ZM95.2867 119.598C95.5823 120.728 95.4262 121.159 94.5377 121.667C92.5607 122.798 90.5555 121.759 91.6133 120.151C92.1817 119.288 95.0906 118.85 95.2867 119.598ZM14.0536 129.585C13.9693 129.747 13.9023 130.839 13.9023 132.057C13.9023 133.256 13.8769 134.238 13.8458 134.238C13.8142 134.238 13.3475 134.027 12.8083 133.768C11.5992 133.189 10.235 133.212 9.27009 133.827C8.96181 134.024 8.59649 134.227 8.4579 134.28C7.96437 134.466 7.31999 136.563 7.31999 137.982C7.31999 141.756 10.1492 143.675 13.0623 141.876C14.2045 141.171 14.195 141.173 14.195 141.64C14.195 142.376 15.1708 142.727 15.5441 142.126C15.7181 141.847 15.6818 129.922 15.5064 129.585C15.3961 129.374 15.1986 129.296 14.78 129.296C14.3614 129.296 14.1639 129.374 14.0536 129.585ZM152.99 130.19C152.7 130.435 152.433 130.795 152.396 130.99C152.201 132.032 153.115 132.409 153.553 131.467C153.831 130.87 154.825 130.697 155.215 131.179C156.26 132.469 158.573 132.104 158.944 130.59C159.169 129.672 158.135 129.388 157.775 130.269C157.587 130.73 157.498 130.793 157.036 130.793C156.678 130.793 156.269 130.626 155.751 130.269C154.721 129.559 153.77 129.532 152.99 130.19ZM116.988 131.131C116.81 131.267 116.733 131.601 116.703 132.366L116.662 133.414L116.028 133.501C114.808 133.668 114.846 134.39 116.088 134.653L116.662 134.775L116.744 137.689C116.825 140.583 116.888 141.054 117.28 141.676C118.016 142.845 121.123 142.752 121.123 141.56C121.123 140.933 120.998 140.861 120.042 140.939C118.553 141.061 118.474 140.88 118.524 137.471L118.564 134.762L119.697 134.68C120.931 134.59 121.174 134.458 121.099 133.918C121.053 133.585 120.978 133.56 119.807 133.489L118.564 133.414L118.523 132.441C118.47 131.133 117.764 130.531 116.988 131.131ZM24.9462 133.471C23.098 133.974 22.3447 134.747 21.8875 136.609C20.8665 140.771 24.3014 143.688 28.5306 142.25C30.0814 141.723 30.1512 140.265 28.6023 140.749C25.8626 141.604 23.6542 140.834 23.6372 139.016L23.6297 138.207L26.6635 138.166C30.2808 138.118 30.2177 138.15 29.9636 136.485C29.6058 134.137 27.3889 132.806 24.9462 133.471ZM43.231 133.471C38.9721 134.639 39.1687 141.855 43.4761 142.479C45.4611 142.766 47.5234 141.868 47.3725 140.782C47.308 140.321 46.8026 140.288 45.85 140.683C43.5473 141.64 41.9875 140.489 41.9875 137.832C41.9875 135.043 43.9616 133.737 46.1729 135.064C46.9719 135.543 47.2533 135.472 47.2533 134.791C47.2533 133.835 44.8186 133.036 43.231 133.471ZM55.8107 133.431C53.664 133.993 52.8528 134.869 52.4366 137.075C51.8431 140.218 53.689 142.529 56.7827 142.516C60.6225 142.501 62.5702 138.815 60.7507 135.005C60.2478 133.952 57.3497 133.029 55.8107 133.431ZM70.4385 133.773C69.3637 134.331 69.0823 134.347 68.9027 133.864C68.7481 133.448 67.9491 133.327 67.6154 133.669C67.2411 134.052 67.3792 141.965 67.7648 142.242C68.9404 143.085 69.195 142.523 69.195 139.089V136.173L69.7734 135.575C71.154 134.147 72.6992 134.295 73.148 135.898C73.2267 136.178 73.2908 137.668 73.2908 139.208C73.2908 142.262 73.3535 142.475 74.2515 142.475C74.967 142.475 75.0462 142.142 75.0462 139.127V136.328L75.6368 135.671C76.6762 134.517 77.7722 134.27 78.5533 135.016C79.084 135.522 79.1656 136.004 79.2504 139.15C79.3419 142.543 79.364 142.606 80.3888 142.409L80.8729 142.316L80.9776 141.174C81.1935 138.817 80.9389 135.554 80.4605 134.539C79.9113 133.374 77.627 133.098 75.9112 133.988L74.8058 134.561L74.3627 134.287C74.1195 134.137 73.7546 133.894 73.5524 133.747C72.8472 133.238 71.4482 133.249 70.4385 133.773ZM91.2828 133.466C91.082 133.527 90.5597 133.755 90.1228 133.974C89.2606 134.406 89.139 134.393 88.9372 133.849C88.7614 133.376 87.8658 133.33 87.6292 133.782C87.5283 133.976 87.4892 136.025 87.5146 139.805L87.5528 145.534L87.9271 145.749C88.2495 145.934 88.3603 145.935 88.7313 145.752L89.1621 145.541L89.2026 143.559C89.2479 141.354 89.221 141.394 90.2434 142.044C91.9663 143.141 94.1851 142.445 95.3178 140.453C96.155 138.98 95.8571 134.879 94.8724 134.324C94.7145 134.236 94.3326 134.008 94.0244 133.82C93.4262 133.454 91.956 133.264 91.2828 133.466ZM128.657 133.437C127.832 133.567 126.613 134.281 126.56 134.667C126.473 135.298 126.736 135.356 127.771 134.932C129.973 134.029 131.502 134.5 131.724 136.148C131.856 137.132 131.786 137.232 130.952 137.24C127.902 137.272 126.681 137.755 126.167 139.135C125.266 141.549 128.278 143.416 130.905 142.071C131.356 141.84 131.775 141.629 131.836 141.601C131.898 141.574 131.948 141.656 131.948 141.785C131.948 142.702 133.327 142.561 133.498 141.627C133.611 141.012 133.468 135.768 133.318 134.998C133.095 133.86 130.822 133.098 128.657 133.437ZM142.553 133.471C138.772 134.391 138.215 140.349 141.741 142.171C143.275 142.964 143.52 144.248 142.186 144.497C140.7 144.774 140.536 145.306 141.818 145.687C143.566 146.207 145.567 144.665 144.538 143.591C144.142 143.178 144.299 142.606 144.864 142.404C145.973 142.008 146.576 141.478 146.576 140.9C146.576 140.263 146.127 140.193 145.148 140.678C142.872 141.803 141.22 140.47 141.343 137.608C141.462 134.832 143.039 133.787 145.27 135.005C146.24 135.534 146.576 135.497 146.576 134.86C146.576 133.882 144.215 133.068 142.553 133.471ZM154.255 133.472C152.695 133.775 151.781 134.49 152.202 135.079C152.372 135.318 152.455 135.307 153.393 134.92C155.729 133.957 157.184 134.486 157.283 136.335L157.327 137.158L156.815 137.192C152.659 137.469 151.696 137.976 151.696 139.891C151.696 142.129 154.14 143.251 156.469 142.083C156.941 141.846 157.368 141.633 157.418 141.609C157.468 141.584 157.544 141.701 157.587 141.868C157.785 142.645 158.952 142.566 159.099 141.765C159.264 140.863 159.054 135.575 158.827 134.923C158.417 133.749 156.296 133.075 154.255 133.472ZM168.37 133.485C165.935 134.122 165.062 135.463 165.185 138.372C165.302 141.137 166.753 142.516 169.541 142.513C173.294 142.509 175.287 138.868 173.552 135.185C172.915 133.831 170.311 132.977 168.37 133.485ZM102.02 133.662C101.733 134.138 101.966 140.216 102.297 140.859C103.214 142.646 105.634 143.092 107.31 141.783C107.838 141.371 108.295 141.393 108.221 141.827C108.152 142.237 108.867 142.577 109.337 142.358L109.718 142.18L109.679 137.872L109.641 133.564H108.91H108.178L108.105 136.559C108.021 139.973 108.034 139.933 106.798 140.588C104.404 141.856 103.57 140.838 103.57 136.643C103.57 135.169 103.53 133.856 103.482 133.726C103.375 133.442 102.184 133.391 102.02 133.662ZM27.132 134.683C27.8683 135.048 28.2761 135.761 28.211 136.573L28.1643 137.158H25.8989C23.2813 137.158 23.2964 137.168 23.8922 135.836C24.4786 134.524 25.8367 134.041 27.132 134.683ZM12.3369 134.779C12.5947 134.911 13.052 135.262 13.3536 135.558L13.9023 136.096V137.914C13.9023 139.945 13.9377 139.864 12.7192 140.582C11 141.595 9.36389 140.8 9.16968 138.858C8.8581 135.746 10.3887 133.775 12.3369 134.779ZM58.4249 134.913C59.4799 135.621 59.9744 138.56 59.2503 139.817C58.5607 141.014 56.4932 141.4 55.2134 140.571C53.4321 139.417 53.8752 135.493 55.8837 134.636C56.316 134.452 58.0134 134.637 58.4249 134.913ZM92.91 134.903C93.8867 135.582 94.3279 137.496 93.9145 139.26C93.5332 140.888 91.9725 141.478 90.4315 140.578C89.1984 139.857 89.2352 139.936 89.2352 137.99V136.247L89.8569 135.624C90.9632 134.516 92.0017 134.27 92.91 134.903ZM170.901 134.784C172.655 135.71 172.886 139.493 171.257 140.599C169.27 141.948 167.084 140.766 166.939 138.264C166.775 135.427 168.781 133.666 170.901 134.784ZM131.519 138.287C132.021 138.562 131.92 139.972 131.369 140.374C129.968 141.395 128.843 141.439 128.072 140.501C127.237 139.486 128.091 138.475 129.939 138.292C130.601 138.226 131.164 138.163 131.19 138.152C131.215 138.141 131.363 138.201 131.519 138.287ZM157.025 138.278C157.364 138.41 157.4 138.502 157.4 139.241C157.4 140.168 157.124 140.473 155.826 140.977C153.829 141.754 152.447 139.573 154.309 138.586C154.988 138.225 156.461 138.058 157.025 138.278Z" fill="#4DAEB0"/>
<path d="M84.3804 17.7271C82.1315 17.8921 81.9943 18.1715 81.9943 22.5817C81.9943 27.0913 82.0976 27.306 84.2645 27.306L85.5051 27.2308L88.3372 27.211L91.1697 27.1912L91.6288 26.7216L92.0875 26.2525L92.1318 22.8611C92.1973 17.8926 92.1803 17.8704 88.3235 17.8704H85.8705L84.3804 17.7271Z" fill="#4DAEB0"/>
<path d="M84.6708 30.1515C83.9685 30.1515 83.0856 31.0738 82.7947 32.1124C82.7151 32.3967 82.6524 34.8493 82.6524 37.6789V42.7377L83.037 43.3709C84.0246 44.9993 84.3988 45.1161 88.7412 45.1547C91.1051 45.1759 92.5739 45.0359 92.9015 45.0359L94.2252 45.1006C96.8526 45.2295 98.4846 44.2893 98.9446 42.383L99.0469 41.9593L99.0064 34.8691L98.9479 33.5381C98.8814 32.0111 98.5227 31.0801 97.7963 30.5497C97.3622 30.2326 97.2354 30.2254 91.4294 30.1877L85.5051 30.1496L84.6708 30.1515Z" fill="#4DAEB0"/>
<path fill-rule="evenodd" clip-rule="evenodd" d="M111.061 21.99C110.285 22.3356 110.144 22.8944 110.227 25.3123L110.297 27.3808L110.739 27.7925L111.181 28.2042H113.711H116.241L116.671 27.7447L117.101 27.2853V25.0865C117.101 21.8631 116.993 21.7608 113.605 21.7704C112.15 21.7743 111.4 21.8394 111.061 21.99ZM68.2164 33.7572C67.3844 34.303 67.2647 34.9213 67.3189 38.4024C67.3929 43.1373 67.3052 43.062 72.6577 42.9993L76.3397 42.9564L76.7323 42.5818C77.8801 41.4873 77.849 34.6751 76.6918 33.7427C76.1167 33.2799 68.9258 33.2919 68.2164 33.7572ZM13.7524 110.809C13.6737 111.021 13.6096 112.061 13.6096 113.122C13.6096 115.246 13.5318 115.437 12.87 114.935C11.091 113.589 8.08504 114.643 7.36666 116.865C5.82525 121.634 9.41433 125.301 13.0892 122.712C13.8953 122.144 13.9023 122.145 13.9023 122.778C13.9023 123.381 14.3831 123.62 15.0101 123.327C15.4121 123.14 15.3834 123.83 15.365 114.849C15.3556 110.265 15.3905 110.432 14.4472 110.428C13.9881 110.426 13.8712 110.49 13.7524 110.809ZM79.6172 112.318C79.4965 112.37 79.4343 112.743 79.4343 113.416C79.4343 114.526 79.3584 114.612 78.3694 114.617C78.1399 114.618 77.9249 114.719 77.8764 114.849C77.7524 115.179 78.2421 115.667 78.6966 115.667C79.3989 115.667 79.4343 115.821 79.4371 118.88C79.4399 122.656 79.7958 123.386 81.7157 123.555C83.029 123.67 83.7087 123.33 83.6484 122.588L83.6036 122.032L82.7858 122.082C82.033 122.128 81.9321 122.095 81.506 121.659L81.0435 121.185V118.606C81.0435 115.602 81.0143 115.667 82.3601 115.667C83.3533 115.667 83.6767 115.514 83.6767 115.047C83.6767 114.655 83.4085 114.556 82.4369 114.589C81.2396 114.629 81.1308 114.529 81.0435 113.314L80.9705 112.297L80.3855 112.268C80.0636 112.252 79.718 112.275 79.6172 112.318ZM155.974 112.321C155.857 112.37 155.791 112.712 155.791 113.273C155.791 114.299 155.567 114.619 154.845 114.619C154.299 114.619 154.095 114.921 154.334 115.378C154.444 115.589 154.642 115.667 155.062 115.667C155.791 115.667 155.774 115.592 155.825 119.112C155.881 123.062 156.801 124.193 159.361 123.459C160.635 123.094 160.487 121.916 159.183 122.047C158.427 122.123 158.314 122.094 157.946 121.735L157.54 121.34L157.58 118.541L157.619 115.742L158.759 115.667C159.878 115.594 160.171 115.448 160.177 114.964C160.181 114.67 159.911 114.587 158.962 114.589C157.545 114.593 157.546 114.594 157.546 113.491C157.546 112.335 156.973 111.909 155.974 112.321ZM25.6585 114.474C24.9665 114.615 23.5693 115.32 23.3054 115.661C22.6657 116.489 22.4725 117.232 22.4659 118.887C22.4574 121.131 22.4512 121.114 23.7423 122.543C25.3347 124.305 31.2698 123.633 30.1479 121.817C30.0343 121.633 29.9122 121.631 29.3093 121.801C26.293 122.649 24.1468 121.765 24.1425 119.673C24.1416 119.189 23.8663 119.227 27.6119 119.199C30.6956 119.176 30.6405 119.2 30.6061 117.911C30.5377 115.376 28.4311 113.912 25.6585 114.474ZM41.3295 114.538C41.0075 114.647 40.4918 114.875 40.1831 115.042C39.5967 115.362 39.2083 115.334 39.2083 114.973C39.2083 114.698 38.5102 114.428 38.0826 114.538C37.5952 114.663 37.5872 114.78 37.6315 120.983L37.6725 126.675H38.4767H39.2813L39.3544 124.703C39.4392 122.415 39.4308 122.434 40.152 122.935C43.6623 125.374 47.4626 120.756 45.5799 116.337C44.92 114.788 42.9939 113.973 41.3295 114.538ZM55.0791 114.486C53.6805 114.812 52.9584 115.222 52.9584 115.689C52.9584 116.299 53.2271 116.343 54.2532 115.901C56.374 114.987 58.078 115.608 58.078 117.294C58.078 118.215 57.8871 118.36 56.6615 118.37C53.7102 118.392 52.8264 118.842 52.504 120.486C52.0161 122.973 55.2827 124.617 57.5001 123C58.0125 122.627 58.3161 122.626 58.4113 122.999C58.4999 123.345 59.1947 123.563 59.527 123.348C59.8791 123.121 59.9494 116.93 59.61 116.014C59.1414 114.75 57.0169 114.034 55.0791 114.486ZM70.4385 114.571C70.1971 114.704 69.8427 114.937 69.6508 115.09C69.1742 115.469 68.9027 115.44 68.9027 115.01C68.9027 114.616 68.4149 114.454 67.7304 114.619L67.3665 114.707V118.965V123.223L67.7691 123.368C68.0274 123.461 68.3149 123.461 68.5732 123.368L68.9758 123.224L69.0489 120.431L69.1219 117.638L69.5608 117.004C70.241 116.02 70.6959 115.742 71.6245 115.742C72.1755 115.742 72.4668 115.672 72.5625 115.517C73.1088 114.633 71.574 113.949 70.4385 114.571ZM92.1605 114.528C90.5772 114.888 89.6764 115.584 90.1567 116.076C90.366 116.29 90.457 116.28 91.164 115.965C93.5813 114.889 95.6808 115.842 95.3136 117.848L95.2193 118.363L94.0192 118.368C90.9939 118.38 90.0704 118.803 89.6603 120.361C88.9712 122.982 91.9451 124.447 94.8309 122.908C95.3541 122.629 95.5413 122.585 95.5851 122.733C95.7835 123.406 95.8274 123.455 96.2337 123.455C96.987 123.455 97.0115 123.324 96.9611 119.534C96.9097 115.688 96.9111 115.692 95.9462 115.022C94.9784 114.349 93.684 114.181 92.1605 114.528ZM107.897 114.613C107.502 114.776 107.11 114.978 107.027 115.063C106.786 115.309 106.057 115.254 106.057 114.989C106.057 114.695 105.407 114.442 104.95 114.56C104.539 114.666 104.562 114.34 104.581 119.851C104.594 123.484 104.585 123.448 105.406 123.453C106.173 123.456 106.203 123.337 106.203 120.302V117.507L106.721 116.812C107.873 115.269 109.362 115.194 110.128 116.64C110.318 116.998 110.382 117.718 110.442 120.157L110.518 123.224L110.9 123.361C112.053 123.775 112.196 123.379 112.199 119.781C112.201 117.166 112.216 117.109 113.141 116.243C113.963 115.473 115.113 115.372 115.676 116.021C116.172 116.593 116.297 117.46 116.297 120.359C116.297 123.401 116.313 123.458 117.201 123.453C117.974 123.447 117.979 123.424 117.969 119.828C117.958 115.948 117.896 115.687 116.821 114.958C115.687 114.189 114.32 114.169 113.225 114.906C112.585 115.337 111.776 115.662 111.691 115.521C111.184 114.681 109.004 114.159 107.897 114.613ZM128.218 114.485C123.821 115.501 123.71 122.263 128.072 123.444C130.094 123.992 132.826 123.253 132.826 122.158V121.617L132.137 121.714C131.758 121.767 131.382 121.877 131.303 121.959C130.965 122.304 128.555 122.112 127.793 121.678C126.632 121.017 126.227 119.268 127.231 119.253C127.532 119.248 128.946 119.23 130.372 119.211C132.083 119.19 133.022 119.12 133.133 119.007C133.628 118.5 132.886 115.702 132.151 115.305C131.999 115.222 131.71 115.046 131.509 114.912C130.719 114.388 129.385 114.215 128.218 114.485ZM143.932 114.522C143.645 114.616 143.236 114.812 143.023 114.956C142.492 115.316 142.12 115.284 141.689 114.843C141.293 114.438 141.009 114.382 140.569 114.624C140.172 114.841 140.123 123.209 140.517 123.364C141.734 123.842 141.895 123.501 141.895 120.44C141.895 117.024 142.276 116.166 144.013 115.668C145.811 115.153 146.329 116.131 146.429 120.232L146.502 123.224L146.884 123.361C147.094 123.436 147.44 123.453 147.652 123.399L148.039 123.3V119.975C148.039 116.062 147.951 115.662 146.972 115.07C145.787 114.354 144.921 114.198 143.932 114.522ZM169.249 114.523C166.848 115.191 166.104 116.263 166.104 119.055V120.871L166.66 121.699C168.288 124.121 171.811 124.279 173.961 122.026C175.274 120.65 175.361 117.045 174.116 115.628C173.287 114.684 170.743 114.107 169.249 114.523ZM27.5567 115.586C28.5853 115.961 29.4592 117.839 28.7375 118.122C28.129 118.361 24.4471 118.218 24.3071 117.95C23.6264 116.648 25.9116 114.986 27.5567 115.586ZM129.908 115.517C130.662 115.732 131.306 116.439 131.422 117.18C131.575 118.165 131.469 118.213 129.187 118.211C126.908 118.208 126.751 118.156 126.883 117.443C127.155 115.965 128.492 115.114 129.908 115.517ZM12.0974 115.829C13.3334 116.441 13.6105 117.021 13.6049 118.984C13.5997 120.96 13.5705 121.023 12.3501 121.656C9.99318 122.88 8.27124 120.996 8.91702 117.901C9.33137 115.916 10.6027 115.088 12.0974 115.829ZM43.0184 115.855C44.0507 116.567 44.5499 119.316 43.9225 120.835C43.4643 121.946 41.955 122.384 40.8388 121.731C40.489 121.526 40.1246 121.358 40.0294 121.358C39.361 121.358 39.0405 118.03 39.6217 117.127C40.5314 115.715 42.012 115.16 43.0184 115.855ZM171.705 115.801C173.018 116.487 173.545 118.318 173.031 120.409C172.485 122.626 168.446 122.652 167.928 120.442C167.155 117.142 169.278 114.533 171.705 115.801ZM58.0728 119.551C58.3283 120.039 58.2105 121.358 57.9116 121.358C57.8385 121.358 57.5091 121.541 57.1786 121.765C55.5043 122.899 53.2718 121.496 54.4743 120.065C55.1013 119.318 57.7537 118.94 58.0728 119.551ZM95.2867 119.598C95.5823 120.728 95.4262 121.159 94.5377 121.667C92.5607 122.798 90.5555 121.759 91.6133 120.151C92.1817 119.288 95.0906 118.85 95.2867 119.598ZM14.0536 129.585C13.9693 129.747 13.9023 130.839 13.9023 132.057C13.9023 133.256 13.8769 134.238 13.8458 134.238C13.8142 134.238 13.3475 134.027 12.8083 133.768C11.5992 133.189 10.235 133.212 9.27009 133.827C8.96181 134.024 8.59649 134.227 8.4579 134.28C7.96437 134.466 7.31999 136.563 7.31999 137.982C7.31999 141.756 10.1492 143.675 13.0623 141.876C14.2045 141.171 14.195 141.173 14.195 141.64C14.195 142.376 15.1708 142.727 15.5441 142.126C15.7181 141.847 15.6818 129.922 15.5064 129.585C15.3961 129.374 15.1986 129.296 14.78 129.296C14.3614 129.296 14.1639 129.374 14.0536 129.585ZM152.99 130.19C152.7 130.435 152.433 130.795 152.396 130.99C152.201 132.032 153.115 132.409 153.553 131.467C153.831 130.87 154.825 130.697 155.215 131.179C156.26 132.469 158.573 132.104 158.944 130.59C159.169 129.672 158.135 129.388 157.775 130.269C157.587 130.73 157.498 130.793 157.036 130.793C156.678 130.793 156.269 130.626 155.751 130.269C154.721 129.559 153.77 129.532 152.99 130.19ZM116.988 131.131C116.81 131.267 116.733 131.601 116.703 132.366L116.662 133.414L116.028 133.501C114.808 133.668 114.846 134.39 116.088 134.653L116.662 134.775L116.744 137.689C116.825 140.583 116.888 141.054 117.28 141.676C118.016 142.845 121.123 142.752 121.123 141.56C121.123 140.933 120.998 140.861 120.042 140.939C118.553 141.061 118.474 140.88 118.524 137.471L118.564 134.762L119.697 134.68C120.931 134.59 121.174 134.458 121.099 133.918C121.053 133.585 120.978 133.56 119.807 133.489L118.564 133.414L118.523 132.441C118.47 131.133 117.764 130.531 116.988 131.131ZM24.9462 133.471C23.098 133.974 22.3447 134.747 21.8875 136.609C20.8665 140.771 24.3014 143.688 28.5306 142.25C30.0814 141.723 30.1512 140.265 28.6023 140.749C25.8626 141.604 23.6542 140.834 23.6372 139.016L23.6297 138.207L26.6635 138.166C30.2808 138.118 30.2177 138.15 29.9636 136.485C29.6058 134.137 27.3889 132.806 24.9462 133.471ZM43.231 133.471C38.9721 134.639 39.1687 141.855 43.4761 142.479C45.4611 142.766 47.5234 141.868 47.3725 140.782C47.308 140.321 46.8026 140.288 45.85 140.683C43.5473 141.64 41.9875 140.489 41.9875 137.832C41.9875 135.043 43.9616 133.737 46.1729 135.064C46.9719 135.543 47.2533 135.472 47.2533 134.791C47.2533 133.835 44.8186 133.036 43.231 133.471ZM55.8107 133.431C53.664 133.993 52.8528 134.869 52.4366 137.075C51.8431 140.218 53.689 142.529 56.7827 142.516C60.6225 142.501 62.5702 138.815 60.7507 135.005C60.2478 133.952 57.3497 133.029 55.8107 133.431ZM70.4385 133.773C69.3637 134.331 69.0823 134.347 68.9027 133.864C68.7481 133.448 67.9491 133.327 67.6154 133.669C67.2411 134.052 67.3792 141.965 67.7648 142.242C68.9404 143.085 69.195 142.523 69.195 139.089V136.173L69.7734 135.575C71.154 134.147 72.6992 134.295 73.148 135.898C73.2267 136.178 73.2908 137.668 73.2908 139.208C73.2908 142.262 73.3535 142.475 74.2515 142.475C74.967 142.475 75.0462 142.142 75.0462 139.127V136.328L75.6368 135.671C76.6762 134.517 77.7722 134.27 78.5533 135.016C79.084 135.522 79.1656 136.004 79.2504 139.15C79.3419 142.543 79.364 142.606 80.3888 142.409L80.8729 142.316L80.9776 141.174C81.1935 138.817 80.9389 135.554 80.4605 134.539C79.9113 133.374 77.627 133.098 75.9112 133.988L74.8058 134.561L74.3627 134.287C74.1195 134.137 73.7546 133.894 73.5524 133.747C72.8472 133.238 71.4482 133.249 70.4385 133.773ZM91.2828 133.466C91.082 133.527 90.5597 133.755 90.1228 133.974C89.2606 134.406 89.139 134.393 88.9372 133.849C88.7614 133.376 87.8658 133.33 87.6292 133.782C87.5283 133.976 87.4892 136.025 87.5146 139.805L87.5528 145.534L87.9271 145.749C88.2495 145.934 88.3603 145.935 88.7313 145.752L89.1621 145.541L89.2026 143.559C89.2479 141.354 89.221 141.394 90.2434 142.044C91.9663 143.141 94.1851 142.445 95.3178 140.453C96.155 138.98 95.8571 134.879 94.8724 134.324C94.7145 134.236 94.3326 134.008 94.0244 133.82C93.4262 133.454 91.956 133.264 91.2828 133.466ZM128.657 133.437C127.832 133.567 126.613 134.281 126.56 134.667C126.473 135.298 126.736 135.356 127.771 134.932C129.973 134.029 131.502 134.5 131.724 136.148C131.856 137.132 131.786 137.232 130.952 137.24C127.902 137.272 126.681 137.755 126.167 139.135C125.266 141.549 128.278 143.416 130.905 142.071C131.356 141.84 131.775 141.629 131.836 141.601C131.898 141.574 131.948 141.656 131.948 141.785C131.948 142.702 133.327 142.561 133.498 141.627C133.611 141.012 133.468 135.768 133.318 134.998C133.095 133.86 130.822 133.098 128.657 133.437ZM142.553 133.471C138.772 134.391 138.215 140.349 141.741 142.171C143.275 142.964 143.52 144.248 142.186 144.497C140.7 144.774 140.536 145.306 141.818 145.687C143.566 146.207 145.567 144.665 144.538 143.591C144.142 143.178 144.299 142.606 144.864 142.404C145.973 142.008 146.576 141.478 146.576 140.9C146.576 140.263 146.127 140.193 145.148 140.678C142.872 141.803 141.22 140.47 141.343 137.608C141.462 134.832 143.039 133.787 145.27 135.005C146.24 135.534 146.576 135.497 146.576 134.86C146.576 133.882 144.215 133.068 142.553 133.471ZM154.255 133.472C152.695 133.775 151.781 134.49 152.202 135.079C152.372 135.318 152.455 135.307 153.393 134.92C155.729 133.957 157.184 134.486 157.283 136.335L157.327 137.158L156.815 137.192C152.659 137.469 151.696 137.976 151.696 139.891C151.696 142.129 154.14 143.251 156.469 142.083C156.941 141.846 157.368 141.633 157.418 141.609C157.468 141.584 157.544 141.701 157.587 141.868C157.785 142.645 158.952 142.566 159.099 141.765C159.264 140.863 159.054 135.575 158.827 134.923C158.417 133.749 156.296 133.075 154.255 133.472ZM168.37 133.485C165.935 134.122 165.062 135.463 165.185 138.372C165.302 141.137 166.753 142.516 169.541 142.513C173.294 142.509 175.287 138.868 173.552 135.185C172.915 133.831 170.311 132.977 168.37 133.485ZM102.02 133.662C101.733 134.138 101.966 140.216 102.297 140.859C103.214 142.646 105.634 143.092 107.31 141.783C107.838 141.371 108.295 141.393 108.221 141.827C108.152 142.237 108.867 142.577 109.337 142.358L109.718 142.18L109.679 137.872L109.641 133.564H108.91H108.178L108.105 136.559C108.021 139.973 108.034 139.933 106.798 140.588C104.404 141.856 103.57 140.838 103.57 136.643C103.57 135.169 103.53 133.856 103.482 133.726C103.375 133.442 102.184 133.391 102.02 133.662ZM27.132 134.683C27.8683 135.048 28.2761 135.761 28.211 136.573L28.1643 137.158H25.8989C23.2813 137.158 23.2964 137.168 23.8922 135.836C24.4786 134.524 25.8367 134.041 27.132 134.683ZM12.3369 134.779C12.5947 134.911 13.052 135.262 13.3536 135.558L13.9023 136.096V137.914C13.9023 139.945 13.9377 139.864 12.7192 140.582C11 141.595 9.36389 140.8 9.16968 138.858C8.8581 135.746 10.3887 133.775 12.3369 134.779ZM58.4249 134.913C59.4799 135.621 59.9744 138.56 59.2503 139.817C58.5607 141.014 56.4932 141.4 55.2134 140.571C53.4321 139.417 53.8752 135.493 55.8837 134.636C56.316 134.452 58.0134 134.637 58.4249 134.913ZM92.91 134.903C93.8867 135.582 94.3279 137.496 93.9145 139.26C93.5332 140.888 91.9725 141.478 90.4315 140.578C89.1984 139.857 89.2352 139.936 89.2352 137.99V136.247L89.8569 135.624C90.9632 134.516 92.0017 134.27 92.91 134.903ZM170.901 134.784C172.655 135.71 172.886 139.493 171.257 140.599C169.27 141.948 167.084 140.766 166.939 138.264C166.775 135.427 168.781 133.666 170.901 134.784ZM131.519 138.287C132.021 138.562 131.92 139.972 131.369 140.374C129.968 141.395 128.843 141.439 128.072 140.501C127.237 139.486 128.091 138.475 129.939 138.292C130.601 138.226 131.164 138.163 131.19 138.152C131.215 138.141 131.363 138.201 131.519 138.287ZM157.025 138.278C157.364 138.41 157.4 138.502 157.4 139.241C157.4 140.168 157.124 140.473 155.826 140.977C153.829 141.754 152.447 139.573 154.309 138.586C154.988 138.225 156.461 138.058 157.025 138.278Z" stroke="white" stroke-opacity="0.2" mask="url(#path-2-inside-2)"/>
<path d="M84.3804 17.7271C82.1315 17.8921 81.9943 18.1715 81.9943 22.5817C81.9943 27.0913 82.0976 27.306 84.2645 27.306L85.5051 27.2308L88.3372 27.211L91.1697 27.1912L91.6288 26.7216L92.0875 26.2525L92.1318 22.8611C92.1973 17.8926 92.1803 17.8704 88.3235 17.8704H85.8705L84.3804 17.7271Z" stroke="white" stroke-opacity="0.2" mask="url(#path-2-inside-2)"/>
<path d="M84.6708 30.1515C83.9685 30.1515 83.0856 31.0738 82.7947 32.1124C82.7151 32.3967 82.6524 34.8493 82.6524 37.6789V42.7377L83.037 43.3709C84.0246 44.9993 84.3988 45.1161 88.7412 45.1547C91.1051 45.1759 92.5739 45.0359 92.9015 45.0359L94.2252 45.1006C96.8526 45.2295 98.4846 44.2893 98.9446 42.383L99.0469 41.9593L99.0064 34.8691L98.9479 33.5381C98.8814 32.0111 98.5227 31.0801 97.7963 30.5497C97.3622 30.2326 97.2354 30.2254 91.4294 30.1877L85.5051 30.1496L84.6708 30.1515Z" stroke="white" stroke-opacity="0.2" mask="url(#path-2-inside-2)"/>
</svg>
