<svg width="119" height="138" viewBox="0 0 119 138" fill="none" xmlns="http://www.w3.org/2000/svg">
<path fill-rule="evenodd" clip-rule="evenodd" d="M5.43165 118.701C5.17679 118.724 4.83326 118.793 4.66837 118.853C4.50347 118.914 4.13835 119.019 3.85731 119.086C3.33515 119.212 1.73005 119.875 1.5331 120.046C1.4729 120.098 1.27659 120.22 1.09665 120.317C0.897404 120.425 0.716479 120.574 0.633378 120.699L0.496948 120.904V127.942V134.98L0.642212 135.196C0.739381 135.341 0.89446 135.465 1.10876 135.57C1.28543 135.657 1.45916 135.763 1.49482 135.808C1.53048 135.852 1.66396 135.933 1.79156 135.988C1.91916 136.044 2.28232 136.212 2.59803 136.361C2.92324 136.515 3.38455 136.681 3.66134 136.743C3.93027 136.804 4.34676 136.918 4.58657 136.997C5.47222 137.289 7.5527 137.304 8.34903 137.023C8.52897 136.96 8.94612 136.845 9.2759 136.766C9.60994 136.687 10.0693 136.529 10.3121 136.409C10.5519 136.292 10.9078 136.12 11.1028 136.028C11.2975 135.937 11.5062 135.821 11.5661 135.771C11.6263 135.72 11.8102 135.61 11.9751 135.526C12.544 135.235 12.6019 134.998 12.5636 133.118C12.5355 131.72 12.4864 131.558 12.0104 131.279C11.4899 130.973 10.5607 131.13 10.3621 131.556C10.3173 131.651 10.2404 131.805 10.1907 131.898C10.1243 132.022 10.0925 132.273 10.0699 132.853C10.0366 133.717 9.97703 133.899 9.69566 134.003C9.61485 134.033 9.45356 134.107 9.33741 134.169C7.79873 134.987 3.9571 134.763 3.08715 133.804L2.95072 133.654L2.93371 128.264C2.91277 121.603 2.87547 122.006 3.53341 121.768C3.66297 121.721 3.98949 121.603 4.25908 121.507C5.21932 121.162 7.45684 121.109 8.43082 121.407C9.88706 121.853 10.0654 122.005 10.069 122.812C10.0745 124.005 10.4913 124.64 11.2687 124.64C12.263 124.64 12.5303 124.231 12.564 122.66C12.6019 120.913 12.5401 120.671 11.9737 120.352C11.8095 120.26 11.5772 120.116 11.4571 120.032C11.3371 119.949 11.1382 119.844 11.0145 119.799C10.8911 119.754 10.5722 119.612 10.3055 119.482C10.0392 119.353 9.57592 119.188 9.2759 119.117C8.97622 119.045 8.58361 118.933 8.40367 118.868C7.86286 118.671 6.56726 118.598 5.43165 118.701ZM22.081 118.7C21.8661 118.724 21.461 118.819 21.1813 118.912C20.9012 119.005 20.5574 119.108 20.4167 119.142C20.276 119.176 19.8834 119.337 19.5441 119.502C19.2052 119.666 18.8496 119.832 18.7543 119.871C18.6588 119.91 18.5679 119.977 18.5522 120.019C18.5365 120.061 18.3784 120.171 18.2011 120.263C17.4889 120.633 17.5098 120.515 17.5098 124.157V127.122L17.6619 127.238C17.7457 127.303 17.9911 127.411 18.2073 127.48C18.4236 127.548 18.9562 127.715 19.391 127.851C19.8258 127.987 20.3411 128.166 20.5361 128.249C20.7311 128.332 21.1182 128.45 21.3962 128.513C21.6743 128.575 22.0179 128.687 22.1595 128.762C22.3012 128.837 22.6261 128.938 22.8809 128.987C23.1358 129.036 23.5055 129.149 23.7028 129.238C23.8998 129.326 24.2803 129.449 24.5479 129.511C25.9508 129.835 26.5459 130.165 26.6179 130.658C26.701 131.227 26.6234 133.572 26.5161 133.741C25.9776 134.585 22.61 134.974 20.8371 134.395C19.5857 133.987 19.4771 133.878 19.427 132.974C19.3256 131.148 17.8729 130.585 17.0838 132.066C16.9706 132.279 16.9644 132.357 16.9644 133.612V134.935L17.1715 135.194C17.2909 135.344 17.4803 135.5 17.62 135.563C17.7529 135.624 17.9541 135.748 18.0673 135.839C18.1805 135.931 18.3346 136.024 18.4095 136.046C18.4844 136.068 18.8034 136.208 19.1185 136.357C19.4424 136.51 19.9397 136.689 20.2636 136.768C20.5783 136.844 20.9955 136.96 21.1905 137.025C21.9937 137.292 24.1258 137.293 24.8711 137.026C25.0511 136.961 25.4803 136.838 25.8255 136.751C26.1703 136.665 26.5861 136.524 26.7494 136.439C26.9127 136.354 27.2408 136.2 27.479 136.097C27.7168 135.994 27.9534 135.87 28.0044 135.823C28.0558 135.775 28.2426 135.663 28.4203 135.574C28.5976 135.485 28.8161 135.332 28.9061 135.235L29.0697 135.057L29.0864 131.88C29.107 127.947 29.2735 128.423 27.7152 127.949C27.2997 127.823 26.8845 127.68 26.7923 127.631C26.7 127.581 26.3938 127.493 26.1121 127.433C25.8301 127.374 25.4463 127.252 25.2591 127.161C25.072 127.07 24.6797 126.945 24.3872 126.883C24.0951 126.821 23.6897 126.696 23.4862 126.604C23.2827 126.512 22.9346 126.408 22.7125 126.373C22.49 126.338 22.1733 126.251 22.0084 126.181C21.8435 126.11 21.4509 125.972 21.1358 125.874C19.9789 125.513 20.0244 125.596 20.0009 123.799C19.9773 122.01 19.9731 122.021 20.8361 121.628C21.7021 121.234 23.5811 121.085 24.4622 121.34C25.004 121.498 25.6161 121.803 25.8533 122.034L26.0836 122.258L26.1117 122.852C26.1899 124.503 27.5166 125.03 28.4013 123.762C28.56 123.535 28.5645 123.51 28.5927 122.696C28.6519 120.979 28.5704 120.692 27.9092 120.291C27.7208 120.177 27.5529 120.061 27.5366 120.033C27.4846 119.947 26.0803 119.277 25.7424 119.177C25.5631 119.124 25.1888 119.006 24.9104 118.914C24.168 118.667 23.1165 118.588 22.081 118.7ZM33.8611 118.703C33.5539 118.796 33.0455 119.419 33.0023 119.755C32.9539 120.129 33.07 120.661 33.2002 120.661C33.2306 120.661 33.3484 120.747 33.4626 120.853C33.7482 121.118 33.9609 121.164 34.9044 121.165C35.8608 121.165 36.027 121.224 36.1277 121.596C36.2252 121.957 36.2066 134.12 36.1081 134.362C35.973 134.694 35.8362 134.728 34.6205 134.728C33.3834 134.728 33.2859 134.747 32.9198 135.065C32.3394 135.568 32.3584 136.33 32.9666 136.942L33.2454 137.222H37.475H41.7047L41.9461 136.942C42.5399 136.253 42.5393 135.561 41.9448 135.005L41.6788 134.756L40.4202 134.737C39.0137 134.716 38.9293 134.694 38.7696 134.301C38.6574 134.025 38.6571 121.869 38.7693 121.593C38.9326 121.191 39.0206 121.165 40.1922 121.165C41.3454 121.165 41.6661 121.107 41.9088 120.858C41.9851 120.78 42.1064 120.67 42.1787 120.613C42.5334 120.336 42.3921 119.478 41.9059 118.957L41.6389 118.671L37.8356 118.661C35.6239 118.655 33.9602 118.672 33.8611 118.703ZM61.9719 118.701C61.7141 118.725 61.2724 118.82 60.9904 118.912C60.7087 119.004 60.3308 119.11 60.1508 119.147C59.9709 119.185 59.6889 119.279 59.524 119.356C59.3588 119.433 59.1239 119.544 59.0018 119.601C58.8798 119.659 58.6727 119.744 58.5422 119.792C58.4113 119.839 58.2228 119.942 58.1227 120.021C58.0226 120.099 57.808 120.225 57.6454 120.302C57.3356 120.448 57.0378 120.744 56.9874 120.956C56.9714 121.024 56.9649 124.208 56.973 128.03L56.9884 134.98L57.1478 135.194C57.2423 135.322 57.4425 135.479 57.6385 135.58C57.8207 135.675 58.0681 135.821 58.1878 135.904C58.3079 135.988 58.5042 136.089 58.6243 136.129C58.744 136.168 59.0139 136.289 59.224 136.397C59.434 136.505 59.8878 136.664 60.2326 136.751C60.5775 136.838 61.0054 136.96 61.1834 137.023C61.9997 137.315 64.0484 137.29 65.0312 136.978C65.3162 136.887 65.7455 136.769 65.9856 136.714C66.2254 136.66 66.582 136.534 66.7783 136.434C66.9743 136.334 67.292 136.186 67.484 136.106C67.6764 136.026 67.8845 135.911 67.9467 135.851C68.0088 135.791 68.2202 135.667 68.4165 135.575C69.0185 135.295 69.0734 135.168 69.1058 133.987C69.1359 132.895 69.061 131.853 68.9422 131.711C68.8997 131.659 68.849 131.572 68.83 131.517C68.74 131.257 67.9395 131.029 67.4981 131.138C66.886 131.289 66.6687 131.71 66.6167 132.847C66.5729 133.797 66.5595 133.824 66.034 134.081C64.3743 134.891 61.576 134.892 60.0161 134.084C59.3745 133.752 59.4445 134.443 59.4252 128.263C59.4065 122.371 59.4111 122.224 59.614 122.031C60.5327 121.156 63.7988 120.933 65.5766 121.624C66.5424 122 66.6125 122.08 66.6128 122.813C66.6141 124.264 67.2285 124.898 68.3062 124.561C68.9507 124.36 69.1248 123.858 69.116 122.23C69.1081 120.842 69.0355 120.632 68.4665 120.345C68.3016 120.261 68.086 120.133 67.9872 120.058C67.7104 119.849 66.2156 119.21 65.7867 119.117C65.576 119.072 65.2168 118.97 64.9884 118.891C64.3409 118.668 63.1536 118.593 61.9719 118.701ZM101.192 118.736C100.529 119.078 100.457 121.232 101.093 121.658C101.429 121.882 103.349 121.923 103.746 121.714C104.406 121.368 104.472 119.275 103.838 118.789C103.622 118.623 101.493 118.581 101.192 118.736ZM116.117 118.963C115.645 119.417 115.664 119.318 115.634 121.476C115.599 123.907 115.613 123.879 114.504 123.703C113.529 123.55 112.112 123.657 111.108 123.959C110.913 124.018 110.557 124.121 110.317 124.189C110.077 124.256 109.832 124.358 109.772 124.414C109.712 124.471 109.502 124.594 109.306 124.689C109 124.836 108.931 124.898 108.815 125.129L108.681 125.396L108.669 130.384L108.656 135.373L108.778 135.624C108.911 135.901 109.013 135.979 109.943 136.51C110.013 136.55 110.543 136.725 111.121 136.898L112.171 137.213L113.371 137.213L114.57 137.214L115.618 136.899C116.79 136.547 117.635 136.123 117.916 135.744L118.06 135.55V127.587V119.623L117.852 119.332C117.5 118.838 117.267 118.699 116.793 118.699H116.392L116.117 118.963ZM77.1365 123.694C76.9118 123.721 76.5313 123.796 76.2915 123.862C76.0513 123.927 75.6466 124.037 75.3917 124.106C74.7237 124.288 73.6842 124.861 73.5845 125.103C73.483 125.351 73.4735 135.587 73.5746 135.768C73.8207 136.208 76.1436 137.096 77.3273 137.203C77.9404 137.258 79.2746 137.221 79.6001 137.138C80.5584 136.898 81.5631 136.551 81.9047 136.344C82.1164 136.215 82.3699 136.061 82.4684 136.002C82.8849 135.75 82.862 136.075 82.862 130.398V125.334L82.7037 125.078C82.5836 124.883 82.4691 124.784 82.2276 124.667C82.0529 124.582 81.8236 124.454 81.7179 124.383C81.6125 124.311 81.2929 124.191 81.0079 124.116C80.723 124.04 80.3062 123.926 80.0811 123.863C79.3282 123.652 78.088 123.581 77.1365 123.694ZM87.466 123.877C86.8146 124.328 86.6624 124.901 86.9955 125.649C87.0573 125.787 87.1587 126.115 87.2212 126.377C87.4116 127.179 87.5566 127.731 87.6914 128.171C87.762 128.402 87.8697 128.846 87.9305 129.157C87.9911 129.468 88.0925 129.843 88.156 129.99C88.2191 130.137 88.3179 130.525 88.3755 130.853C88.4972 131.547 88.5014 131.565 88.6739 132.019C88.7462 132.209 88.8453 132.612 88.8941 132.916C88.9431 133.219 89.0426 133.614 89.1152 133.795C89.1882 133.975 89.3426 134.504 89.4591 134.972C89.8121 136.39 90.0866 136.945 90.5355 137.149C90.789 137.265 92.9997 137.283 93.2336 137.172C93.5565 137.019 94.0525 135.896 94.2318 134.913C94.2803 134.646 94.3807 134.274 94.4546 134.087C94.5289 133.9 94.6398 133.444 94.7016 133.075C94.7658 132.69 94.8734 132.27 94.9532 132.094C95.0301 131.924 95.1407 131.521 95.1996 131.197C95.2585 130.874 95.3894 130.353 95.4904 130.041C95.5919 129.729 95.6985 129.3 95.728 129.088C95.7571 128.876 95.8696 128.413 95.9783 128.059C96.1952 127.35 96.2704 127.075 96.4307 126.405C96.4896 126.159 96.6048 125.768 96.6863 125.537C96.9179 124.879 96.8691 124.489 96.5135 124.157C95.4509 123.165 94.6091 123.674 94.2858 125.502C94.2374 125.775 94.1379 126.163 94.0646 126.363C93.991 126.563 93.8445 127.088 93.7388 127.529C93.6328 127.971 93.4859 128.503 93.4119 128.712C93.3383 128.921 93.2382 129.332 93.1901 129.626C93.1417 129.92 93.02 130.377 92.9199 130.642C92.8194 130.907 92.699 131.361 92.6526 131.651C92.6061 131.941 92.4824 132.43 92.3778 132.738C92.2731 133.047 92.187 133.356 92.1867 133.427C92.1857 133.741 92.0421 133.945 91.8487 133.907C91.585 133.855 91.5445 133.804 91.4211 133.362C91.3599 133.142 91.2598 132.824 91.1986 132.654C91.1378 132.485 91.04 132.047 90.9817 131.68C90.916 131.269 90.8142 130.871 90.7151 130.639C90.6245 130.427 90.5054 129.979 90.4409 129.61C90.3784 129.251 90.2659 128.819 90.1909 128.651C90.116 128.483 90.0159 128.123 89.9685 127.851C89.921 127.58 89.7876 127.055 89.6717 126.685C89.5562 126.315 89.3985 125.726 89.322 125.375C89.1748 124.701 89.1208 124.564 88.8191 124.097C88.5116 123.621 87.9642 123.532 87.466 123.877ZM102.015 123.808C101.579 124.026 101.351 124.387 101.289 124.959C101.203 125.751 101.246 136.057 101.337 136.268C101.734 137.193 102.636 137.481 103.272 136.884C103.758 136.427 103.719 137.004 103.719 130.338V124.406L103.4 124.104C102.945 123.671 102.486 123.573 102.015 123.808ZM79.552 126.353C80.4606 126.549 80.4138 126.321 80.3958 130.455C80.3814 133.76 80.3778 133.866 80.2695 134.078C79.8759 134.849 76.6847 134.861 76.1325 134.093C75.9627 133.857 75.9247 127.146 76.0916 126.826C76.2643 126.494 76.5313 126.386 77.5455 126.241C77.8593 126.197 79.165 126.269 79.552 126.353ZM114.707 126.349C115.103 126.435 115.414 126.621 115.541 126.848C115.613 126.978 115.672 133.098 115.606 133.652C115.531 134.279 114.945 134.593 113.731 134.655C112.423 134.721 111.56 134.488 111.312 134.001L111.162 133.706V130.404C111.162 126.772 111.151 126.894 111.498 126.563C111.833 126.241 113.65 126.121 114.707 126.349Z" fill="#FF7D62"/>
<path fill-rule="evenodd" clip-rule="evenodd" d="M4.85917 118.587C4.70933 118.61 4.34126 118.706 4.04125 118.801C3.74156 118.895 3.33652 119.022 3.14153 119.082C2.64881 119.235 1.5613 119.748 1.39673 119.906C1.32181 119.978 1.10228 120.12 0.908593 120.223C0.605633 120.383 0.535619 120.451 0.403443 120.711L0.25 121.013L0.264395 127.997L0.278791 134.981L0.396899 135.205C0.520242 135.438 0.604325 135.508 1.01787 135.714C1.1543 135.783 1.29825 135.879 1.33817 135.929C1.51647 136.149 2.86769 136.75 3.74156 136.997C4.0262 137.078 4.38216 137.182 4.532 137.229C5.25701 137.455 8.08278 137.384 8.83985 137.121C9.04989 137.048 9.40553 136.942 9.63062 136.887C10.1063 136.77 11.3908 136.176 11.6018 135.976C11.6813 135.901 11.9002 135.759 12.088 135.662C12.6697 135.361 12.7368 135.141 12.7328 133.551C12.7286 131.755 12.6726 131.526 12.1433 131.147C11.6934 130.824 11.2256 130.788 10.7211 131.037C10.0873 131.35 9.96859 131.612 9.92082 132.796C9.87992 133.817 9.95681 133.708 9.0476 134.036C7.93588 134.436 6.42239 134.577 5.21382 134.391C4.67334 134.309 3.34208 133.854 3.21416 133.709C3.11895 133.601 3.11437 133.342 3.11437 127.942V122.289L3.2351 122.165C3.34241 122.055 3.90383 121.846 4.80486 121.581C5.8626 121.27 7.44578 121.35 8.81269 121.782C9.87436 122.118 9.90282 122.141 9.90348 122.67C9.90544 124.247 10.2676 124.764 11.3754 124.77C12.4299 124.777 12.674 124.397 12.7201 122.678C12.7688 120.859 12.6759 120.497 12.0893 120.224C11.9215 120.146 11.7219 120.017 11.6457 119.937C11.5694 119.857 11.3486 119.72 11.1549 119.632C10.9612 119.544 10.6311 119.387 10.4211 119.284C10.2113 119.181 9.81874 119.042 9.54883 118.975C9.27891 118.908 8.9452 118.808 8.80713 118.752C8.30296 118.549 5.78899 118.444 4.85917 118.587ZM21.5448 118.584C21.395 118.608 21.0125 118.72 20.6949 118.832C20.3775 118.944 20.0899 119.035 20.0559 119.035C19.9204 119.035 18.5365 119.761 18.3958 119.906C18.3134 119.99 18.1292 120.116 17.9869 120.185C17.3302 120.502 17.3492 120.389 17.3302 124.002L17.3139 127.091L17.4572 127.266C17.6607 127.515 18.2093 127.758 19.2275 128.05C19.5422 128.14 19.9594 128.281 20.1544 128.363C20.3494 128.444 20.7057 128.547 20.9461 128.59C21.4019 128.672 21.5625 128.722 21.9267 128.899C22.0467 128.957 22.3657 129.046 22.6356 129.096C22.9281 129.151 23.2569 129.257 23.4496 129.358C23.6276 129.452 23.9832 129.574 24.2404 129.63C25.0259 129.8 26.2682 130.296 26.403 130.493C26.4854 130.614 26.5159 132.759 26.4439 133.374C26.4095 133.668 26.4046 133.675 26.1308 133.807C24.5195 134.582 22.3922 134.697 20.6726 134.103C19.6446 133.748 19.694 133.809 19.6437 132.836C19.6087 132.163 19.5108 131.889 19.1716 131.511C18.4995 130.761 17.007 131.163 16.845 132.137C16.7482 132.72 16.7917 134.908 16.9052 135.166C17.0021 135.386 17.5082 135.793 17.6859 135.793C17.7147 135.793 17.7837 135.845 17.8393 135.908C18.0723 136.173 19.2406 136.704 20.194 136.978C20.5172 137.072 20.9042 137.188 21.0541 137.237C21.2792 137.311 21.6263 137.327 23.0446 137.328L24.7622 137.33L25.2801 137.155C25.5651 137.058 25.9865 136.928 26.2168 136.864C26.4472 136.801 26.8954 136.622 27.2134 136.467C27.5311 136.312 27.8088 136.185 27.8308 136.185C27.8524 136.185 27.993 136.09 28.1429 135.975C28.2927 135.859 28.5185 135.717 28.6444 135.66C29.2173 135.398 29.2062 135.474 29.2062 131.83C29.2062 127.878 29.2739 128.174 28.3061 127.891C27.9764 127.794 27.498 127.644 27.2428 127.558C26.988 127.47 26.5708 127.356 26.316 127.303C26.0611 127.25 25.7055 127.135 25.5255 127.047C25.3456 126.959 24.9504 126.836 24.6474 126.773C24.3444 126.71 23.9885 126.599 23.8566 126.526C23.7248 126.453 23.4084 126.348 23.1535 126.294C22.8987 126.24 22.491 126.111 22.2476 126.008C22.0039 125.905 21.5376 125.746 21.2115 125.655C20.0945 125.342 20.1419 125.437 20.1652 123.565C20.1835 122.115 20.1949 122.063 20.5267 121.978C20.6068 121.958 20.7462 121.909 20.8362 121.869C21.2128 121.704 21.3201 121.667 21.7326 121.558C22.8787 121.257 24.1606 121.391 25.3891 121.938C25.7846 122.114 25.835 122.207 25.8884 122.856C25.9597 123.721 26.0012 123.834 26.3886 124.212C27.024 124.831 27.5873 124.828 28.3166 124.202C28.6775 123.892 28.7154 123.698 28.7154 122.173C28.7154 120.67 28.6801 120.541 28.1841 120.24C28.0316 120.148 27.8249 120.006 27.7251 119.925C27.4048 119.666 26.3601 119.146 25.8255 118.979C25.5406 118.891 25.1601 118.762 24.9801 118.693C24.6258 118.558 22.1743 118.48 21.5448 118.584ZM33.6992 118.578C33.5117 118.638 33.0275 119.123 32.9405 119.337C32.826 119.618 32.8309 120.425 32.948 120.597C33.376 121.225 33.6717 121.349 34.8257 121.377L35.7826 121.401L35.9024 121.581L36.0221 121.76V127.96V134.159L35.8854 134.327L35.7486 134.494L34.506 134.513C33.0956 134.535 33.1492 134.52 32.6631 135.037C32.0339 135.706 32.2773 136.911 33.1168 137.284C33.3799 137.401 41.6285 137.4 41.8457 137.283C42.3061 137.036 42.5318 136.592 42.5341 135.931C42.5361 135.337 42.2881 134.91 41.7322 134.553C41.7257 134.548 41.1325 134.53 40.4137 134.51L39.107 134.476L38.9823 134.286L38.8577 134.095V127.951V121.808L38.9918 121.605L39.126 121.402L40.3143 121.377C41.6727 121.348 41.6815 121.346 42.1301 120.898C42.7232 120.305 42.6905 119.452 42.0496 118.811L41.7976 118.559L37.8059 118.55C35.6102 118.545 33.7624 118.558 33.6992 118.578ZM61.3628 118.591C61.1592 118.62 60.9027 118.681 60.7925 118.729C60.6826 118.776 60.3551 118.877 60.0649 118.953C59.775 119.028 59.3323 119.188 59.0811 119.307C58.8298 119.427 58.5141 119.573 58.3793 119.63C58.2448 119.689 58.0269 119.82 57.8954 119.923C57.7639 120.026 57.5519 120.156 57.424 120.213C56.7768 120.498 56.801 120.197 56.801 127.947C56.801 135.725 56.7673 135.295 57.4043 135.653C57.5689 135.746 57.7815 135.88 57.8774 135.951C58.162 136.164 59.4733 136.784 59.7966 136.859C59.9615 136.898 60.3665 137.019 60.6963 137.129L61.296 137.329L63.0136 137.328C64.444 137.326 64.7771 137.311 65.0042 137.236C65.154 137.186 65.5711 137.06 65.931 136.956C66.6485 136.748 67.8388 136.215 68.1394 135.968C68.2444 135.881 68.4407 135.76 68.5755 135.698C69.1707 135.425 69.2299 135.227 69.2299 133.517C69.2299 131.557 69.1749 131.378 68.463 131.032C67.9209 130.768 67.5289 130.808 67.0051 131.179C66.5677 131.488 66.5137 131.639 66.4552 132.717C66.3963 133.806 66.4637 133.716 65.4403 134.076C63.9948 134.585 61.9271 134.604 60.6914 134.119C60.4542 134.026 60.1954 133.934 60.1166 133.914C60.0377 133.895 59.8905 133.808 59.7894 133.721L59.6058 133.564L59.5892 128.191C59.58 125.236 59.5872 122.692 59.6052 122.538C59.6467 122.178 59.7766 122.083 60.5874 121.815C62.2762 121.258 63.7724 121.258 65.4455 121.815C66.4535 122.151 66.3995 122.071 66.4761 123.339C66.5477 124.519 67.315 125.052 68.447 124.708C69.0827 124.514 69.1975 124.188 69.2207 122.506C69.2423 120.923 69.2145 120.739 68.9079 120.439C68.5723 120.11 66.992 119.247 66.4005 119.069C66.2621 119.027 65.965 118.938 65.7403 118.87C65.5152 118.802 65.2086 118.708 65.0585 118.66C64.7339 118.556 61.9772 118.505 61.3628 118.591ZM101.009 118.621C100.471 118.855 100.304 121.085 100.78 121.666C101.229 122.214 103.932 122.145 104.243 121.577C104.639 120.85 104.504 118.992 104.03 118.662C103.821 118.516 101.328 118.482 101.009 118.621ZM116.261 118.608C115.592 118.93 115.516 119.202 115.476 121.409L115.443 123.25L115.279 123.386C115.125 123.514 115.092 123.52 114.679 123.479C113.204 123.332 111.684 123.471 110.726 123.84C110.441 123.95 110.11 124.063 109.991 124.091C109.872 124.119 109.694 124.205 109.597 124.281C109.5 124.357 109.266 124.501 109.078 124.601C108.467 124.926 108.518 124.4 108.518 130.441C108.518 136.622 108.378 135.824 109.587 136.568C110.942 137.403 114.142 137.645 115.924 137.048C117.376 136.562 118.051 136.131 118.195 135.597C118.294 135.227 118.248 119.612 118.147 119.428C117.977 119.119 117.643 118.713 117.501 118.643C117.279 118.534 116.462 118.511 116.261 118.608ZM7.47653 118.697C7.82595 118.727 8.21299 118.799 8.40373 118.868C8.58368 118.934 8.97628 119.046 9.27597 119.117C9.57598 119.189 10.0393 119.353 10.3056 119.483C10.5722 119.612 10.8912 119.755 11.0145 119.799C11.1382 119.844 11.3371 119.949 11.4572 120.032C11.5773 120.116 11.8096 120.26 11.9738 120.352C12.5401 120.671 12.602 120.913 12.564 122.661C12.5303 124.232 12.263 124.64 11.2688 124.64C10.4914 124.64 10.0746 124.005 10.069 122.813C10.0654 122.006 9.88712 121.853 8.43089 121.407C7.4569 121.109 5.21939 121.163 4.25914 121.507C3.98955 121.604 3.66304 121.721 3.53348 121.768C2.87554 122.006 2.91284 121.603 2.93378 128.264L2.95079 133.655L3.08722 133.805C3.95716 134.763 7.79879 134.987 9.33747 134.169C9.45362 134.108 9.61492 134.033 9.69573 134.003C9.97709 133.899 10.0366 133.717 10.07 132.854C10.0926 132.273 10.1243 132.022 10.1907 131.898C10.2405 131.805 10.3173 131.651 10.3622 131.556C10.5608 131.13 11.4899 130.974 12.0105 131.279C12.4865 131.558 12.5356 131.721 12.5637 133.119C12.602 134.998 12.5441 135.235 11.9751 135.526C11.8102 135.61 11.6264 135.72 11.5662 135.771C11.5063 135.821 11.2976 135.937 11.1029 136.029C10.9079 136.121 10.5519 136.292 10.3121 136.41C10.0694 136.529 9.61001 136.687 9.27597 136.767C8.94618 136.845 8.52904 136.961 8.34909 137.024C7.55276 137.304 5.47229 137.289 4.58664 136.998C4.34682 136.918 3.93034 136.804 3.6614 136.744C3.38462 136.681 2.92331 136.515 2.5981 136.362C2.28238 136.212 1.91922 136.044 1.79163 135.989C1.66403 135.933 1.53054 135.852 1.49488 135.808C1.45922 135.764 1.28549 135.657 1.10882 135.57C0.894525 135.466 0.739446 135.341 0.642277 135.197L0.497013 134.981V127.943V120.905L0.633443 120.699C0.716544 120.574 0.897469 120.425 1.09672 120.317C1.27666 120.22 1.47296 120.098 1.53316 120.046C1.73012 119.875 3.33521 119.213 3.85738 119.087C4.13842 119.019 4.50354 118.914 4.66843 118.854C5.17195 118.669 6.37855 118.601 7.47653 118.697ZM23.9018 118.696C24.1835 118.724 24.6268 118.82 24.9104 118.914C25.1889 119.006 25.5631 119.125 25.7424 119.177C26.0804 119.277 27.4846 119.947 27.5366 120.034C27.553 120.061 27.7208 120.177 27.9093 120.291C28.5705 120.693 28.652 120.979 28.5927 122.696C28.5132 124.999 26.2204 125.143 26.1118 122.852L26.0837 122.258L25.8533 122.034C24.9382 121.142 22.3605 120.934 20.8362 121.628C19.9731 122.021 19.9774 122.01 20.0009 123.799C20.0245 125.597 19.979 125.514 21.1359 125.874C21.4509 125.973 21.8435 126.111 22.0084 126.181C22.1733 126.252 22.49 126.338 22.7125 126.374C22.9347 126.409 23.2828 126.512 23.4863 126.604C23.6898 126.696 24.0951 126.821 24.3873 126.883C24.6798 126.945 25.0721 127.07 25.2592 127.161C25.4463 127.252 25.8301 127.375 26.1121 127.434C26.3938 127.493 26.7001 127.582 26.7923 127.631C26.8846 127.68 27.2998 127.823 27.7153 127.95C29.2736 128.424 29.1071 127.947 29.0864 131.88L29.0698 135.057L28.9062 135.235C28.8162 135.333 28.5976 135.486 28.4203 135.575C28.2427 135.664 28.0559 135.776 28.0045 135.823C27.9535 135.871 27.7169 135.994 27.4791 136.097C27.2409 136.2 26.9127 136.354 26.7495 136.439C26.5862 136.524 26.1704 136.665 25.8255 136.751C25.4804 136.838 25.0511 136.961 24.8712 137.026C24.1259 137.293 21.9937 137.293 21.1905 137.026C20.9955 136.961 20.5784 136.845 20.2636 136.768C19.9397 136.689 19.4424 136.511 19.1185 136.357C18.8035 136.208 18.4845 136.068 18.4096 136.046C18.3347 136.024 18.1806 135.931 18.0674 135.84C17.9542 135.748 17.7529 135.624 17.6201 135.564C17.4804 135.5 17.291 135.344 17.1716 135.194L16.9645 134.935V133.613C16.9645 132.129 16.9681 132.113 17.411 131.603C17.8053 131.149 18.5404 131.14 18.9465 131.583C19.2978 131.967 19.3852 132.22 19.4271 132.974C19.4771 133.878 19.5857 133.988 20.8372 134.396C22.6101 134.974 25.9777 134.585 26.5162 133.741C26.6235 133.573 26.701 131.227 26.6179 130.658C26.546 130.165 25.9508 129.835 24.5479 129.512C24.2803 129.45 23.8998 129.327 23.7029 129.238C23.5056 129.149 23.1359 129.037 22.881 128.988C22.6261 128.939 22.3013 128.837 22.1596 128.762C22.0179 128.687 21.6744 128.575 21.3963 128.513C21.1182 128.451 20.7312 128.332 20.5362 128.249C20.3412 128.167 19.8259 127.987 19.3911 127.851C18.9563 127.715 18.4236 127.548 18.2074 127.48C17.9911 127.411 17.7457 127.303 17.662 127.239L17.5099 127.122V124.157C17.5099 120.515 17.4889 120.633 18.2012 120.263C18.3785 120.171 18.5365 120.062 18.5522 120.019C18.5679 119.977 18.6589 119.91 18.7544 119.871C18.8496 119.832 19.2052 119.666 19.5442 119.502C19.8835 119.338 20.2761 119.176 20.4168 119.142C20.5574 119.109 20.9013 119.005 21.1814 118.912C21.9296 118.663 22.8434 118.591 23.9018 118.696ZM41.9059 118.957C42.3921 119.478 42.5335 120.337 42.1788 120.613C42.1065 120.67 41.9851 120.78 41.9089 120.859C41.6661 121.108 41.3455 121.165 40.1922 121.165C39.0206 121.165 38.9326 121.192 38.7694 121.593C38.6571 121.869 38.6575 134.025 38.7697 134.302C38.9294 134.694 39.0138 134.717 40.4203 134.738L41.6789 134.756L41.9449 135.005C42.5393 135.562 42.54 136.254 41.9462 136.942L41.7047 137.223H37.4751H33.2454L32.9667 136.942C32.3585 136.33 32.3395 135.568 32.9199 135.065C33.286 134.748 33.3835 134.728 34.6205 134.728C35.8363 134.728 35.973 134.695 36.1082 134.362C36.2066 134.12 36.2253 121.958 36.1278 121.597C36.027 121.224 35.8608 121.166 34.9045 121.165C33.9609 121.165 33.7483 121.118 33.4627 120.853C33.3485 120.747 33.2307 120.661 33.2003 120.661C33.0701 120.661 32.9539 120.13 33.0023 119.755C33.0455 119.419 33.5539 118.796 33.8612 118.703C33.9603 118.673 35.624 118.655 37.8356 118.661L41.639 118.671L41.9059 118.957ZM64.0253 118.698C64.3452 118.727 64.7463 118.808 64.9884 118.892C65.2168 118.97 65.576 119.072 65.7867 119.118C66.2157 119.21 67.7105 119.849 67.9873 120.059C68.0861 120.133 68.3017 120.262 68.4666 120.345C69.0355 120.632 69.1082 120.842 69.116 122.23C69.1249 123.859 68.9508 124.36 68.3063 124.561C67.2286 124.898 66.6142 124.264 66.6128 122.813C66.6125 122.08 66.5425 122 65.5767 121.624C63.7989 120.933 60.5327 121.156 59.614 122.031C59.4112 122.224 59.4066 122.372 59.4253 128.263C59.4446 134.443 59.3745 133.752 60.0161 134.084C61.5761 134.892 64.3744 134.891 66.0341 134.081C66.5595 133.825 66.5729 133.797 66.6168 132.848C66.6688 131.71 66.886 131.289 67.4982 131.138C67.9395 131.029 68.7401 131.257 68.8301 131.517C68.8491 131.572 68.8998 131.659 68.9423 131.711C69.0611 131.854 69.136 132.896 69.1059 133.987C69.0735 135.168 69.0185 135.295 68.4165 135.575C68.2202 135.667 68.0089 135.791 67.9467 135.851C67.8846 135.911 67.6765 136.026 67.4841 136.106C67.292 136.186 66.9744 136.334 66.7784 136.434C66.5821 136.534 66.2255 136.66 65.9857 136.714C65.7455 136.769 65.3163 136.888 65.0313 136.978C64.0485 137.291 61.9997 137.315 61.1835 137.024C61.0055 136.961 60.5775 136.838 60.2327 136.751C59.8879 136.665 59.4341 136.506 59.224 136.398C59.014 136.289 58.7441 136.169 58.6243 136.129C58.5043 136.09 58.308 135.989 58.1879 135.905C58.0681 135.821 57.8208 135.675 57.6386 135.581C57.4426 135.479 57.2424 135.322 57.1478 135.195L56.9885 134.981L56.9731 128.031C56.9649 124.209 56.9715 121.025 56.9875 120.956C57.0379 120.744 57.3356 120.448 57.6454 120.302C57.808 120.226 58.0227 120.099 58.1228 120.021C58.2229 119.943 58.4113 119.84 58.5422 119.792C58.6728 119.745 58.8799 119.659 59.0019 119.602C59.1239 119.544 59.3588 119.433 59.5241 119.356C59.6889 119.279 59.971 119.185 60.1509 119.148C60.3309 119.11 60.7087 119.004 60.9904 118.912C61.7341 118.669 62.8589 118.589 64.0253 118.698ZM103.838 118.789C104.163 119.038 104.208 119.201 104.227 120.184C104.255 121.732 104.122 121.853 102.41 121.826C100.774 121.801 100.663 121.69 100.701 120.105C100.723 119.174 100.809 118.934 101.192 118.737C101.493 118.581 103.622 118.624 103.838 118.789ZM117.419 118.869C117.542 118.963 117.737 119.171 117.852 119.332L118.06 119.624V127.587V135.55L117.916 135.745C117.635 136.123 116.79 136.548 115.618 136.9L114.57 137.214L113.371 137.214L112.171 137.213L111.121 136.898C110.543 136.725 110.013 136.551 109.943 136.511C109.013 135.979 108.911 135.901 108.778 135.625L108.656 135.373L108.669 130.385L108.681 125.397L108.815 125.129C108.931 124.899 109 124.837 109.306 124.689C109.502 124.595 109.712 124.471 109.772 124.415C109.832 124.358 110.077 124.257 110.317 124.189C110.557 124.122 110.913 124.019 111.108 123.96C112.112 123.657 113.529 123.55 114.504 123.704C115.613 123.879 115.599 123.907 115.634 121.476C115.664 119.319 115.645 119.417 116.117 118.964L116.392 118.699H116.793C117.153 118.699 117.216 118.716 117.419 118.869ZM77.1912 123.461C76.4826 123.521 76.1145 123.606 75.4592 123.862C75.1517 123.982 74.8536 124.079 74.797 124.079C74.7401 124.079 74.5624 124.171 74.4021 124.283C74.2415 124.396 74.0105 124.533 73.8888 124.59C73.3391 124.844 73.366 124.525 73.3849 130.555C73.4003 135.439 73.4075 135.78 73.4981 135.922C73.6683 136.189 74.5899 136.72 75.2007 136.903C75.4108 136.966 75.7193 137.068 75.8865 137.131C76.48 137.353 78.566 137.449 79.6761 137.306C80.9344 137.144 82.6782 136.322 82.9183 135.779C83.079 135.415 83.0823 125.418 82.9216 125.055C82.8294 124.846 82.5627 124.584 82.442 124.584C82.4155 124.584 82.2254 124.471 82.0199 124.332C81.8145 124.193 81.6041 124.079 81.5527 124.079C81.5014 124.079 81.2027 123.981 80.8889 123.86C79.9388 123.493 78.5617 123.344 77.1912 123.461ZM87.4964 123.572C86.6851 124.013 86.4888 124.818 86.8951 126.035C86.9841 126.301 87.0943 126.708 87.1401 126.939C87.1863 127.17 87.3453 127.8 87.4938 128.339C87.6427 128.878 87.802 129.494 87.8488 129.707C87.8953 129.92 87.9954 130.234 88.0716 130.405C88.1482 130.577 88.2483 130.968 88.2954 131.279C88.3425 131.591 88.4488 132.005 88.5329 132.206C88.618 132.41 88.7351 132.869 88.7986 133.247C88.8611 133.619 88.9713 134.085 89.0439 134.283C89.1166 134.482 89.2265 134.884 89.2883 135.177C89.5514 136.421 89.9489 137.167 90.4213 137.302C90.7524 137.396 93.1267 137.382 93.3548 137.284C93.7673 137.107 94.1334 136.389 94.3379 135.357C94.4102 134.993 94.5204 134.542 94.5836 134.355C94.6464 134.168 94.7433 133.74 94.7982 133.403C94.8578 133.039 94.9654 132.634 95.0652 132.401C95.1568 132.186 95.2713 131.77 95.3197 131.478C95.3681 131.185 95.4676 130.788 95.5412 130.596C95.6145 130.404 95.7392 129.95 95.818 129.587C95.8965 129.225 96.0539 128.625 96.1674 128.255C96.2813 127.885 96.4144 127.361 96.4635 127.09C96.5126 126.819 96.6228 126.402 96.7086 126.164C97.2798 124.571 96.6929 123.358 95.4094 123.477C94.8571 123.529 94.3942 124.074 94.2266 124.869C94.1782 125.097 94.0313 125.628 93.9001 126.047C93.7689 126.466 93.5982 127.119 93.5203 127.497C93.4427 127.875 93.3345 128.301 93.2798 128.444C93.2252 128.587 93.1519 128.893 93.1172 129.124C93.0354 129.67 92.9078 130.172 92.8136 130.322C92.7334 130.449 92.6137 130.941 92.5185 131.534C92.4864 131.734 92.4089 132.004 92.3464 132.133C92.2839 132.262 92.1982 132.54 92.1563 132.749C92.0169 133.444 92.0546 133.387 91.8046 133.286C91.5802 133.196 91.5664 133.171 91.4464 132.627C91.4261 132.534 91.3407 132.294 91.2566 132.094C91.1728 131.894 91.0878 131.566 91.0675 131.366C91.0194 130.886 90.9517 130.614 90.7933 130.266C90.7217 130.108 90.6117 129.685 90.5493 129.325C90.4868 128.966 90.3768 128.512 90.3049 128.316C90.2332 128.12 90.1105 127.641 90.0327 127.251C89.9545 126.862 89.8534 126.437 89.8079 126.306C89.7621 126.176 89.6279 125.692 89.5095 125.232C89.2785 124.333 88.8647 123.609 88.5267 123.512C88.2525 123.433 87.6924 123.465 87.4964 123.572ZM101.974 123.569C101.743 123.679 101.275 124.196 101.184 124.444C101.108 124.648 101.109 136.179 101.184 136.384C101.626 137.577 103.244 137.699 103.786 136.581C103.932 136.279 103.936 124.544 103.79 124.27C103.431 123.596 102.597 123.273 101.974 123.569ZM79.1075 123.69C79.418 123.723 79.8564 123.801 80.0811 123.864C80.3062 123.926 80.723 124.04 81.008 124.116C81.293 124.192 81.6126 124.312 81.718 124.383C81.8236 124.454 82.053 124.582 82.2277 124.667C82.4691 124.784 82.5836 124.883 82.7037 125.078L82.8621 125.334V130.398C82.8621 136.075 82.885 135.75 82.4685 136.002C82.37 136.062 82.1165 136.216 81.9048 136.344C81.5632 136.551 80.5585 136.898 79.6002 137.139C79.2747 137.221 77.9405 137.259 77.3273 137.203C76.1436 137.096 73.8207 136.208 73.5747 135.768C73.4736 135.588 73.4831 125.351 73.5845 125.104C73.6843 124.862 74.7237 124.288 75.3918 124.107C75.6467 124.038 76.0514 123.927 76.2915 123.862C77.0901 123.644 78.0828 123.583 79.1075 123.69ZM88.4649 123.747C88.5705 123.785 88.6998 123.913 88.8192 124.097C89.1208 124.564 89.1748 124.702 89.322 125.375C89.3986 125.726 89.5563 126.316 89.6718 126.686C89.7876 127.056 89.9211 127.58 89.9685 127.852C90.016 128.123 90.1161 128.483 90.191 128.651C90.2659 128.82 90.3785 129.251 90.441 129.611C90.5054 129.98 90.6245 130.427 90.7151 130.64C90.8143 130.872 90.916 131.269 90.9818 131.681C91.04 132.047 91.1378 132.485 91.1987 132.655C91.2599 132.824 91.36 133.143 91.4212 133.363C91.5445 133.804 91.5851 133.856 91.8488 133.907C92.0421 133.945 92.1858 133.741 92.1868 133.427C92.1871 133.357 92.2731 133.047 92.3778 132.739C92.4825 132.431 92.6062 131.941 92.6526 131.651C92.6991 131.361 92.8195 130.907 92.9199 130.642C93.0201 130.377 93.1418 129.92 93.1902 129.627C93.2383 129.333 93.3384 128.922 93.412 128.712C93.4859 128.503 93.6328 127.971 93.7388 127.53C93.8445 127.088 93.9911 126.564 94.0647 126.363C94.138 126.163 94.2374 125.775 94.2859 125.502C94.6091 123.674 95.4509 123.166 96.5136 124.157C96.8692 124.489 96.918 124.88 96.6863 125.537C96.6049 125.768 96.4897 126.159 96.4308 126.405C96.2705 127.076 96.1952 127.35 95.9783 128.059C95.8697 128.413 95.7572 128.877 95.728 129.088C95.6986 129.3 95.5919 129.729 95.4905 130.041C95.3894 130.353 95.2585 130.874 95.1997 131.197C95.1408 131.521 95.0302 131.925 94.9533 132.094C94.8735 132.271 94.7658 132.69 94.7017 133.075C94.6399 133.445 94.529 133.9 94.4547 134.087C94.3808 134.274 94.2803 134.646 94.2319 134.913C94.0526 135.897 93.5566 137.019 93.2337 137.172C92.9998 137.284 90.7891 137.265 90.5355 137.15C90.0866 136.945 89.8121 136.39 89.4591 134.972C89.3427 134.505 89.1882 133.975 89.1153 133.795C89.0426 133.615 88.9432 133.219 88.8941 132.916C88.8454 132.613 88.7462 132.209 88.6739 132.019C88.5015 131.565 88.4972 131.548 88.3755 130.853C88.318 130.526 88.2192 130.137 88.156 129.99C88.0925 129.843 87.9911 129.468 87.9306 129.157C87.8697 128.846 87.7621 128.402 87.6914 128.171C87.5566 127.731 87.4117 127.179 87.2213 126.378C87.1588 126.115 87.0574 125.787 86.9955 125.649C86.7848 125.176 86.7917 124.535 87.0106 124.279C87.4552 123.759 87.9712 123.57 88.4649 123.747ZM102.883 123.745C102.995 123.777 103.221 123.933 103.4 124.104L103.719 124.406V130.338C103.719 137.004 103.758 136.428 103.272 136.885C102.636 137.481 101.734 137.193 101.337 136.268C101.246 136.057 101.203 125.751 101.289 124.96C101.389 124.035 102.073 123.514 102.883 123.745ZM77.5456 126.242C76.5313 126.387 76.2644 126.494 76.0916 126.826C75.9248 127.147 75.9627 133.857 76.1325 134.094C76.6848 134.861 79.876 134.849 80.2696 134.078C80.3779 133.866 80.3815 133.761 80.3959 130.455C80.4139 126.322 80.4606 126.549 79.5521 126.353C79.1651 126.269 77.8593 126.197 77.5456 126.242ZM112.553 126.264C111.089 126.445 111.162 126.227 111.162 130.404V133.707L111.312 134.002C111.56 134.489 112.424 134.722 113.732 134.655C114.945 134.593 115.531 134.279 115.606 133.653C115.672 133.098 115.613 126.978 115.541 126.849C115.273 126.37 113.888 126.099 112.553 126.264ZM79.2753 126.459C79.6813 126.548 80.1021 126.773 80.2051 126.958C80.3275 127.178 80.3275 133.582 80.2048 133.832C79.7971 134.661 76.7662 134.662 76.2228 133.834L76.0959 133.64L76.1119 130.359C76.1296 126.765 76.108 126.983 76.4705 126.733C76.9707 126.388 78.3357 126.254 79.2753 126.459ZM114.685 126.509C114.839 126.56 115.077 126.704 115.217 126.83L115.47 127.06V130.368V133.675L115.3 133.895C114.702 134.672 111.883 134.646 111.448 133.86L111.324 133.635L111.339 130.357L111.353 127.078L111.476 126.901C111.81 126.42 113.716 126.188 114.685 126.509ZM47.691 127.27C46.964 127.498 46.8236 127.88 46.8207 129.645C46.8168 132.011 46.9247 132.122 49.2182 132.122C50.9646 132.122 51.0176 132.11 51.3412 131.666C51.6726 131.21 51.672 131.215 51.672 129.656C51.672 128.174 51.6566 128.056 51.4246 127.757C51.1721 127.431 51.0572 127.34 50.8223 127.279C50.5557 127.21 47.9076 127.203 47.691 127.27Z" fill="#FF7D62"/>
<path fill-rule="evenodd" clip-rule="evenodd" d="M47.5086 0.969023C47.1894 1.02512 46.7255 1.1559 46.4775 1.25988C46.2292 1.36386 45.6494 1.49071 45.1888 1.54216C44.7278 1.59326 44.206 1.70689 44.0289 1.79443C43.8515 1.88233 43.3189 1.99203 42.8453 2.03812C42.3713 2.08458 41.7408 2.20749 41.4436 2.31147C41.1467 2.41581 40.7666 2.50085 40.5993 2.50085C40.2409 2.50085 39.7219 3.21478 39.5776 3.90655C39.5265 4.15167 39.4103 4.46862 39.3199 4.61012C38.8435 5.35656 38.8284 7.26107 39.2944 7.84422C39.3653 7.93319 39.8518 8.85115 40.3758 9.88488C40.8998 10.9186 41.4169 11.8609 41.5245 11.9791C42.0953 12.6055 41.8639 13.7836 41.0567 14.3614C40.0786 15.061 39.5182 15.5745 39.5182 15.771C39.5182 15.8746 38.137 17.3507 36.4485 19.0509C34.7599 20.7513 32.7475 22.7902 31.9763 23.5817C30.3417 25.2597 30.1776 25.3179 29.3024 24.5329C29.0026 24.2642 28.5546 23.9101 28.3063 23.7464C28.0583 23.5824 27.1306 22.7398 26.2445 21.8733C24.0846 19.7616 23.5998 19.6494 20.3807 20.5148C20.0971 20.5909 19.5397 20.717 19.1417 20.7953C18.1092 20.9979 17.7076 21.5164 17.533 22.8727C17.4852 23.2451 17.3693 23.701 17.2753 23.8854C16.981 24.4643 16.7309 26.3688 16.9065 26.6943C17.0641 26.9873 18.1459 27.4861 19.1564 27.7323C19.4753 27.8098 19.7952 27.9185 19.8668 27.9735C19.9388 28.0285 20.2868 28.1436 20.6402 28.2293C20.9936 28.3155 21.4431 28.4655 21.6388 28.5631C21.835 28.6606 22.2409 28.7903 22.5411 28.8514C23.9723 29.1423 24.8025 29.4228 25.2088 29.7519L25.6508 30.1099L25.0447 30.7792C24.7115 31.1472 24.1886 31.6382 23.8823 31.8701C23.1942 32.3918 22.1441 34.4396 21.7839 35.9617C21.7339 36.1729 21.6219 36.4606 21.5345 36.6013C21.4474 36.7421 21.3355 37.0877 21.2858 37.3692C21.2361 37.6508 21.1447 37.942 21.0828 38.0163C21.0209 38.0907 20.886 38.4651 20.7827 38.8482C20.5286 39.7929 20.2728 40.4747 19.946 41.0804C19.7952 41.3594 19.67 41.6753 19.6674 41.7818C19.6653 41.8883 19.5512 42.2059 19.4141 42.4875C19.2773 42.7691 19.1633 43.1371 19.1607 43.305C19.1586 43.4733 19.0456 43.8478 18.9106 44.1369C18.6224 44.7529 18.1257 46.2633 18.1247 46.527C18.1243 46.6278 18.0422 46.8654 17.9426 47.0555C17.8425 47.2452 17.6676 47.719 17.5539 48.1081C17.2573 49.1204 16.2371 49.4198 14.9304 48.8778C14.6857 48.7763 14.1883 48.6909 13.8248 48.6877C13.4614 48.6848 12.932 48.5919 12.6484 48.4819C12.3648 48.3715 11.7851 48.2246 11.3597 48.1553C10.9343 48.0856 10.2383 47.9252 9.81331 47.798C7.72098 47.1734 6.27824 47.2216 5.14463 47.9541C4.66455 48.2643 4.12654 48.6084 3.94948 48.7181C3.03179 49.288 2.95766 49.4406 2.83818 51.0081C2.77736 51.811 2.73885 52.5832 2.75289 52.724C2.76692 52.8648 2.83818 53.9589 2.91123 55.1552C3.02783 57.0661 3.23332 58.5069 3.54138 59.5699C3.64286 59.9208 4.94022 59.9737 6.65575 59.6964C8.07258 59.4673 10.7868 59.3212 14.0555 59.2976L17.3959 59.2737L17.6888 59.6385C17.8501 59.8393 18.1664 60.5825 18.3917 61.29C18.6173 61.9979 18.8458 62.6343 18.8998 62.7047C18.9534 62.7751 19.0589 63.1217 19.1337 63.475C19.2086 63.8284 19.3601 64.289 19.4702 64.4988C19.5804 64.7085 19.671 64.9665 19.6718 65.0719C19.6725 65.1773 19.7905 65.4553 19.9345 65.6897C20.0781 65.9238 20.3141 66.4994 20.4592 66.9693C20.6038 67.4388 20.8306 68.1109 20.9626 68.4629C21.0951 68.8145 21.2703 69.3615 21.3524 69.6785C21.4344 69.9951 21.5478 70.3117 21.6043 70.382C21.6608 70.4524 21.7662 70.7115 21.8382 70.958C21.9106 71.2042 22.1776 71.8932 22.4317 72.4884C23.1151 74.0903 23.0467 74.9247 22.2319 74.9247C22.0383 74.9247 21.7162 74.9868 21.5168 75.0633C21.3171 75.1394 20.4171 75.2834 19.5159 75.3835C15.6969 75.8065 15.87 75.6354 15.87 78.9917C15.87 82.2797 15.7358 82.0757 18.8779 83.5539C19.2561 83.7319 19.7362 84.0202 19.9449 84.1946C21.0227 85.0951 22.8081 84.5662 25.3967 82.5792C26.8024 81.5004 27.0586 81.5594 28.9782 83.4021C29.5957 83.9949 30.3248 84.6338 30.598 84.8221C30.8715 85.01 32.0188 86.0595 33.1481 87.1539C34.2773 88.2484 35.4329 89.2911 35.7165 89.4712C36.9843 90.2762 37.1992 90.775 36.6651 91.6719C36.1973 92.4569 35.7399 93.1465 35.5089 93.4145C35.3876 93.555 35.046 94.131 34.7499 94.6941C34.4541 95.2569 34.1118 95.8329 33.9891 95.9737C33.7879 96.2052 33.4979 96.6276 33.1405 97.21C33.0689 97.3268 32.8274 97.6809 32.6043 97.9968C31.7017 99.2746 31.7172 99.6183 32.7443 101.094C33.1355 101.656 33.5378 102.296 33.6386 102.516C33.7393 102.736 33.8818 102.953 33.9553 102.998C34.029 103.043 34.349 103.468 34.6664 103.941C35.6006 105.336 35.6226 105.349 37.3953 105.51C38.2439 105.588 39.1799 105.704 39.4754 105.769C39.7709 105.834 41.0758 105.924 42.3753 105.97C45.3007 106.073 45.0301 106.25 45.5188 103.907C45.6214 103.414 45.7704 102.853 45.8495 102.659C45.9287 102.465 46.0687 101.947 46.1608 101.507C46.3732 100.492 46.6956 99.2092 46.9241 98.4688C47.022 98.1519 47.1368 97.6827 47.1796 97.4262C47.2225 97.1693 47.3761 96.8094 47.5212 96.6261L47.785 96.2935H50.0165C51.3981 96.2935 52.6339 96.3635 53.2612 96.4771C53.8183 96.5779 55.1962 96.7265 56.323 96.8073C57.4502 96.8881 58.4988 97.002 58.6536 97.0603C58.8083 97.1189 59.4813 97.2043 60.1485 97.2504C60.8161 97.2968 61.8039 97.3897 62.3438 97.4576C63.4601 97.5973 64.8647 97.4365 65.8083 97.0606C66.9966 96.5875 67.7027 96.3946 68.6434 96.2863C69.863 96.1459 69.9299 96.2156 69.9382 97.6295C69.9447 98.7811 70.356 101.763 70.5295 101.914C70.5907 101.968 70.9891 102.14 71.4141 102.296C71.8395 102.453 72.4933 102.721 72.8669 102.892C73.2405 103.063 73.6198 103.203 73.7097 103.203C73.7993 103.203 74.0988 103.317 74.3748 103.457C75.7384 104.147 77.152 104.077 77.5752 103.297C77.7026 103.062 77.9775 102.671 78.1862 102.429C78.3953 102.186 78.5663 101.938 78.5663 101.877C78.5666 101.816 78.762 101.499 79.001 101.173C79.9701 99.8499 79.9806 99.6605 79.1468 98.5328C78.9906 98.3216 78.499 97.429 78.0545 96.5493C77.6097 95.6696 77.1664 94.8363 77.0688 94.6973C76.628 94.0702 76.8687 93.3216 77.6047 93.0297C77.8857 92.9182 78.2316 92.7785 78.3734 92.7188C78.5152 92.6595 79.588 92.3054 80.7576 91.9317C81.9272 91.5583 82.9708 91.2117 83.0773 91.1609C85.2639 90.1222 86.6196 90.2072 87.3616 91.4289C87.6467 91.8977 88.0105 92.2933 90.7607 95.1218C91.6733 96.0609 92.6043 97.0971 92.8289 97.4248C93.0535 97.7528 93.8074 98.6118 94.5041 99.3335C96.0134 100.898 96.2542 100.972 97.1593 100.149C97.4591 99.876 98.0234 99.4436 98.4131 99.1878C98.8028 98.9319 99.4697 98.437 99.8951 98.0879C100.32 97.7388 100.729 97.4516 100.803 97.4494C101.217 97.4362 103.413 95.0618 103.356 94.6895C102.797 91.0452 102.702 90.7514 101.931 90.3094C101.595 90.1168 100.918 89.573 100.426 89.1003C99.9329 88.6279 99.2153 88.0233 98.8309 87.7567C98.4462 87.4905 97.6433 86.8274 97.047 86.2832C96.4503 85.739 95.8033 85.1955 95.6089 85.0754C93.915 84.0281 93.7689 83.3592 94.9428 82.026C95.0666 81.8856 95.4416 81.2521 95.7759 80.6186C96.1102 79.9854 96.4453 79.428 96.5209 79.3804C96.6609 79.2922 96.7638 79.1107 97.5616 77.5477C98.1324 76.43 98.4656 75.8612 98.7118 75.5861C98.8169 75.4685 99.122 74.9693 99.3898 74.4766C99.8256 73.6744 100.072 73.2788 100.884 72.0829C101.014 71.8921 101.119 71.677 101.119 71.6048C101.119 71.419 102.249 69.4109 102.527 69.1025C102.77 68.8323 102.985 68.4557 103.446 67.4856C103.601 67.1594 103.86 66.7395 104.022 66.5526C104.385 66.1328 104.523 65.0065 104.469 62.8965C104.449 62.0872 104.426 60.7055 104.419 59.8257L104.406 58.2264L106.273 58.276C107.3 58.3032 108.315 58.3782 108.528 58.4422C108.742 58.5065 109.554 58.6752 110.334 58.817C111.114 58.9589 112.041 59.1318 112.396 59.2008C114.591 59.6292 114.926 59.5049 115.105 58.1935C115.15 57.8598 115.238 57.4138 115.301 57.2026C115.401 56.8668 115.821 54.7957 116.327 52.1483C116.578 50.8363 116.399 50.3871 115.123 49.1258L114.071 48.087L113.234 48.0159C112.773 47.977 110.511 47.9877 108.207 48.0395C103.53 48.1453 103.697 48.175 103.696 47.2381C103.696 46.8775 103.638 46.2365 103.567 45.8145C103.497 45.3921 103.403 44.3845 103.358 43.5752C103.302 42.5636 103.181 41.8086 102.971 41.1597C102.803 40.6405 102.666 40.1342 102.666 40.0348C102.666 39.9355 102.558 39.6979 102.425 39.5074C102.293 39.3166 101.967 38.8149 101.7 38.393C101.433 37.9706 101.15 37.53 101.07 37.4139C99.7968 35.5462 99.1494 34.5468 98.8036 33.9143C98.5729 33.492 98.2796 33.0314 98.1518 32.8906C98.0244 32.7498 97.7675 32.3478 97.5807 31.9973C97.3943 31.6464 97.1377 31.2433 97.0107 31.1015C96.8833 30.9596 96.6432 30.613 96.477 30.3315C96.3107 30.0499 96.0451 29.6625 95.8868 29.4707C95.7288 29.2788 95.4474 28.8178 95.2617 28.4469C94.8985 27.7209 94.7233 27.4372 94.0435 26.4745C93.5504 25.7763 93.3568 24.7976 93.6631 24.5504C93.7595 24.4728 94.2385 24.1991 94.7276 23.9426C95.217 23.6864 95.8328 23.3069 96.0959 23.1C96.3589 22.8931 96.8286 22.608 97.1395 22.4665C97.7358 22.1953 97.9794 22.0541 98.6063 21.6182C98.819 21.4699 99.4279 21.1062 99.9595 20.8089C102.512 19.3821 102.821 18.7704 101.895 16.9641C101.768 16.7154 101.484 15.9775 101.264 15.324C100.535 13.1597 100.457 13.0768 98.6154 12.4872C97.9017 12.2589 97.1726 11.9966 96.9955 11.9044C96.8181 11.8126 96.455 11.6968 96.1887 11.6472C95.922 11.5975 95.4895 11.4482 95.2271 11.3156C94.9648 11.1827 94.597 11.074 94.4098 11.074C94.2231 11.074 93.9017 11.0158 93.6962 10.9447C92.9174 10.6756 92.2499 11.0272 91.7464 11.9716C91.5031 12.4279 91.2127 12.9024 91.1004 13.0261C90.8593 13.2926 90.6135 13.7032 90.4307 14.1448C90.3576 14.321 90.2176 14.6086 90.119 14.7848C89.8203 15.3172 88.7645 17.3861 88.6169 17.7277C87.7496 19.7344 87.2397 20.0278 86.0024 19.2327C85.6339 18.9958 84.5384 18.4127 83.5675 17.9367C82.5969 17.4608 81.59 16.9034 81.3298 16.6983C81.0699 16.4928 80.5593 16.1791 80.1951 16.0004C79.8312 15.8218 79.4462 15.6274 79.34 15.5681C79.2335 15.5087 78.7995 15.294 78.3748 15.0907C77.9505 14.8874 77.2837 14.5211 76.8928 14.2771C75.8139 13.6028 75.7542 13.5692 74.4648 12.9232C72.8158 12.097 72.7075 11.7962 73.5838 10.4809C74.5277 9.06483 74.531 8.61496 73.6097 6.82336C73.1059 5.84394 72.7345 5.69851 70.6457 5.66278C68.6031 5.62776 68.4307 5.81393 68.1993 8.30588C68.0237 10.1986 67.2863 10.6899 64.6236 10.6903C64.2475 10.6903 63.5047 10.7707 62.9732 10.8693C62.4416 10.9679 61.0788 11.0876 59.9445 11.1351C58.8105 11.1827 57.5056 11.307 57.0449 11.411C55.8505 11.6811 52.0902 11.7115 51.8303 11.4532C51.6504 11.2749 51.5201 10.8053 50.9889 8.4263C50.8605 7.84958 50.6967 7.18747 50.6255 6.95485C50.5542 6.72188 50.4621 6.25236 50.4203 5.91076C50.3789 5.56952 50.2595 5.02246 50.1551 4.69516C49.9633 4.09379 49.665 2.91606 49.4375 1.86125C49.232 0.908278 48.8538 0.733549 47.5086 0.969023ZM48.3057 4.2921C48.3543 5.17182 48.4565 6.29488 48.5331 6.78727C48.7203 7.98858 48.852 14.5411 48.694 14.7659C48.4766 15.075 48.0736 14.7241 44.4201 11.0451C39.7525 6.3449 39.8054 6.55858 42.9133 4.97994C43.9875 4.43431 45.4465 3.6868 46.1551 3.3184C46.9824 2.8889 47.5823 2.65665 47.8307 2.67094L48.2172 2.69274L48.3057 4.2921ZM42.394 3.70074C42.4717 3.90191 42.2537 4.16418 42.0086 4.16418C41.9182 4.16418 41.6584 4.27638 41.4313 4.41359C40.9786 4.68694 40.8069 4.65585 40.8069 4.30032C40.8069 4.00017 41.0887 3.77291 41.6134 3.64928C42.236 3.50242 42.3195 3.50814 42.394 3.70074ZM72.6719 7.22213C73.3704 8.04611 73.1566 9.47467 72.136 10.8046C71.7351 11.3267 70.2211 11.2027 69.5132 10.5899C69.1026 10.2343 69.2545 7.24142 69.6975 6.96271C70.1916 6.65149 72.348 6.83944 72.6719 7.22213ZM50.3538 11.5875C50.4254 12.0295 50.5686 12.5105 50.6715 12.6566C50.7748 12.8028 50.8587 13.0679 50.8587 13.2458C50.8583 13.4238 50.9576 14.0477 51.0796 14.6322C51.3197 15.7807 51.2552 15.9808 50.6704 15.905C50.3451 15.8628 50.2483 15.4383 50.0806 13.3134C49.8999 11.029 50.0795 9.89631 50.3538 11.5875ZM43.9292 12.3854C44.3427 12.8253 45.4915 14.0012 46.4822 14.9985C48.1153 16.6422 48.265 16.8305 48.0826 17.0116C47.7932 17.2989 46.5391 18.1118 46.385 18.1118C46.2242 18.1118 45.5753 17.1996 45.5753 16.9734C45.5753 16.8826 45.4594 16.6622 45.3176 16.4831C45.1759 16.3041 45.06 16.0594 45.06 15.939C45.06 15.8185 44.9437 15.6159 44.8019 15.4884C44.6601 15.3612 44.5443 15.1586 44.5443 15.0381C44.5443 14.9177 44.432 14.6773 44.2945 14.504C44.157 14.3307 44.007 14.0391 43.9609 13.8565C43.9145 13.6735 43.7659 13.4245 43.6305 13.303C43.4952 13.1812 43.3844 12.9535 43.3844 12.7974C43.3844 12.6409 43.2976 12.4411 43.1911 12.3536C42.9986 12.195 42.9165 11.5857 43.0878 11.5857C43.1371 11.5857 43.5161 11.9455 43.9292 12.3854ZM71.752 12.8628C72.3458 13.1679 72.8622 13.4627 72.8989 13.5178C73.0861 13.7957 76.3782 15.5523 76.7122 15.5523C76.7608 15.5523 77.0425 15.7496 77.3387 15.9908C77.6349 16.2316 78.622 16.8105 79.5325 17.2771C80.443 17.7438 81.3481 18.2594 81.5435 18.4227C81.7389 18.586 82.7462 19.1359 83.7812 19.6447C85.8898 20.6813 86.0413 20.7931 86.0413 21.3123C86.0413 21.7994 85.9196 21.8555 84.6284 21.9627C84.0234 22.013 83.0352 22.1188 82.4328 22.1974C81.6835 22.2957 78.1632 22.3296 71.2852 22.3057L61.2332 22.2703L61.1932 21.8597C61.1612 21.5314 61.2541 21.3402 61.6589 20.9003C61.9367 20.598 62.2469 20.1911 62.3484 19.996C62.4496 19.8005 63.2841 18.8561 64.2025 17.8971C65.1213 16.938 66.0264 15.8886 66.2139 15.5648C66.4017 15.2415 67.0549 14.4872 67.6652 13.889C68.276 13.2909 68.8064 12.7045 68.8442 12.5859C69.0249 12.0217 70.364 12.1496 71.752 12.8628ZM94.1907 12.97C94.3846 13.0972 94.9075 13.5499 95.3523 13.9765C95.7972 14.4032 96.4399 14.9274 96.7803 15.1418C97.1208 15.3562 98.0046 16.1126 98.7438 16.8226C100.717 18.7168 100.663 19.0301 98.2447 19.7098C97.9039 19.8055 97.5559 19.9391 97.4713 20.0067C97.3867 20.0742 97.0567 20.1896 96.7379 20.2629C96.4187 20.3361 95.5589 20.602 94.8273 20.8535C94.0957 21.1047 93.2942 21.3105 93.047 21.3105C92.7994 21.3105 92.4906 21.367 92.361 21.436C91.6312 21.8237 91.8364 18.1229 92.7688 14.0809C93.1172 12.5701 93.3284 12.4054 94.1907 12.97ZM57.8136 13.4359C57.9856 13.6414 57.9036 13.6725 56.7873 13.8236C56.4684 13.8665 56.0913 13.9766 55.9495 14.0673C55.8077 14.1584 55.4392 14.2724 55.1304 14.3206C54.822 14.3689 54.416 14.4861 54.2285 14.5815C53.0867 15.1614 52.2838 14.7991 52.6681 13.8772C52.8916 13.3419 57.4113 12.9543 57.8136 13.4359ZM66.0271 13.4613C66.0721 13.5778 66.0271 13.8022 65.9263 13.9598C65.1601 15.1607 64.6434 15.8135 63.5886 16.9134C62.9224 17.6076 62.2383 18.3773 62.0681 18.6235C61.6769 19.1899 60.7344 20.3258 60.1035 20.9907C59.8369 21.2723 59.2287 21.992 58.7529 22.5901C58.2768 23.1883 57.5383 24.0308 57.1115 24.4625C56.6851 24.8938 56.0891 25.5848 55.7872 25.9979C55.4849 26.4109 54.7979 27.2095 54.2598 27.7723C53.7218 28.3355 53.033 29.1702 52.7289 29.6279C52.4252 30.0853 51.8202 30.8049 51.3848 31.2273L50.5934 31.9951L49.4994 32.0402C48.8977 32.0652 48.2614 32.0494 48.0858 32.0059L47.7662 31.9262V30.0963C47.7662 28.8807 47.8285 28.055 47.9519 27.6358C48.0538 27.2885 48.2031 26.5178 48.2837 25.9225C48.3644 25.3272 48.4752 24.7512 48.5303 24.6429C48.5853 24.5343 48.7026 23.9847 48.7908 23.4219C48.879 22.8588 49.0085 22.2099 49.0784 21.9802C49.1482 21.7504 49.2846 21.0879 49.3817 20.5087C49.8391 17.7802 50.1285 17.3371 51.7713 16.8515C52.2974 16.6961 52.9888 16.4792 53.3076 16.3702C53.6265 16.2609 54.2066 16.0915 54.5963 15.9943C54.9861 15.8968 55.4212 15.7617 55.563 15.6942C55.7048 15.627 56.7775 15.2761 57.9471 14.9152C59.1167 14.554 60.2475 14.1988 60.4602 14.1256C60.6728 14.0523 61.1799 13.919 61.5873 13.8286C61.9947 13.7386 62.4006 13.6057 62.4895 13.5335C62.9062 13.1933 65.9001 13.1326 66.0271 13.4613ZM97.7685 13.5731C97.8751 13.6614 98.2231 13.7747 98.5419 13.8258C99.2379 13.9365 99.3876 14.0452 99.7112 14.6751C99.9526 15.145 100.057 16.0008 99.8627 15.915C99.6039 15.8007 97.382 14.1084 97.382 14.0255C97.382 13.973 97.2313 13.8619 97.0466 13.7786C96.7825 13.6589 96.7425 13.5896 96.8581 13.4513C97.0189 13.2591 97.4605 13.318 97.7685 13.5731ZM43.4657 15.5012C43.6424 15.5484 43.8958 15.8796 44.1743 16.4271C44.4129 16.8962 44.6951 17.3868 44.8016 17.5172C44.9286 17.6727 44.9956 18.035 44.9956 18.5674C44.9956 19.4503 44.9549 19.5097 44.0368 19.976C43.7846 20.1042 43.433 20.3354 43.2555 20.4898C43.0785 20.6438 42.4779 21.0075 41.9211 21.2977C41.3648 21.5875 40.7555 21.9437 40.568 22.0888C40.1858 22.385 39.1483 23.0639 38.6225 23.3623C38.4325 23.4702 38.1277 23.6717 37.9459 23.81C37.5483 24.1127 37.2895 24.2913 36.5971 24.743C36.3081 24.9313 35.76 25.29 35.3786 25.5405C34.9975 25.791 34.4001 26.1319 34.051 26.2984C33.7023 26.4649 33.324 26.6932 33.2107 26.8054C32.356 27.6541 30.616 28.0232 30.5231 27.3753C30.4281 26.7147 31.3588 25.4655 32.3772 24.887C32.7407 24.6804 33.1995 24.2802 33.3967 23.9976C33.5939 23.715 34.033 23.2858 34.372 23.0439C34.7114 22.802 35.2321 22.2842 35.5294 21.8933C35.8266 21.5024 36.1102 21.1826 36.1599 21.1826C36.3776 21.1826 37.3795 20.1971 37.8329 19.5372C38.3274 18.8172 41.4011 15.6431 41.7293 15.5134C41.9661 15.4194 43.1289 15.4115 43.4657 15.5012ZM91.0104 16.9741C90.8946 17.3618 90.8096 18.1254 90.8096 18.7789C90.8096 19.4368 90.7369 20.0839 90.6365 20.3229C90.5412 20.5495 90.4238 20.945 90.3753 21.2019C90.327 21.4585 90.2126 21.7304 90.1212 21.8054C89.9146 21.9759 88.1311 22.0984 88.0379 21.9487C87.7205 21.4388 89.9477 16.7829 90.6484 16.491C90.8787 16.3952 91.072 16.2455 91.0774 16.1587C91.0849 16.0422 91.104 16.0404 91.1497 16.1512C91.1835 16.2341 91.1213 16.6046 91.0104 16.9741ZM48.1513 19.3256C48.3518 19.5654 48.2827 22.2149 48.0689 22.4761C47.989 22.574 47.8573 23.1561 47.7763 23.7696C47.695 24.3831 47.551 25.1042 47.4557 25.3718C47.3607 25.6398 47.2426 26.2319 47.1937 26.6875C47.1444 27.1434 47.0253 27.7755 46.9284 28.0921C46.832 28.4091 46.7158 28.9847 46.6708 29.3717C46.6258 29.759 46.5106 30.3347 46.4149 30.6516C46.3192 30.9682 46.2033 31.4577 46.1569 31.7389C45.9917 32.7444 45.5897 33.1139 43.5967 34.0926C41.6278 35.0595 41.3637 35.2492 40.8483 36.0661C40.6626 36.3605 40.4471 36.6439 40.369 36.6953C40.0552 36.9033 37.9107 36.7975 37.165 36.5374C36.7619 36.3966 36.2999 36.2812 36.1386 36.2808C35.9774 36.2805 35.6888 36.1987 35.4973 36.0997C35.3059 36.0003 34.7337 35.8553 34.2259 35.777C33.7181 35.6988 33.2006 35.5808 33.0761 35.5144C32.9516 35.4483 32.5669 35.335 32.221 35.2628C31.5686 35.1267 30.7254 34.8959 29.4017 34.4914C28.9764 34.3617 28.3239 34.1873 27.9514 34.104C27.5793 34.0208 27.2425 33.9007 27.2029 33.8375C27.1637 33.7742 26.9679 33.7224 26.7682 33.7224C25.8732 33.7224 25.925 32.5468 26.8477 31.9287C27.1608 31.7189 27.4494 31.5471 27.4886 31.5471C27.5282 31.5471 27.7413 31.3959 27.9626 31.2112C28.1836 31.0264 28.7885 30.6756 29.3067 30.4311C29.825 30.1871 30.4062 29.863 30.5987 29.7115C31.1781 29.2548 31.7694 28.86 31.8773 28.8582C31.9335 28.8571 32.3157 28.5459 32.727 28.1672C33.1383 27.788 33.6602 27.4089 33.8869 27.3246C34.5433 27.0806 35.2854 26.6671 35.8943 26.2058C36.2048 25.9707 36.6551 25.697 36.8951 25.5977C37.1348 25.4983 38.1568 24.8759 39.1656 24.2152C40.1746 23.5542 41.3165 22.8538 41.703 22.6591C42.0896 22.4643 42.6258 22.1385 42.895 21.9355C43.1641 21.7325 43.6125 21.3942 43.8911 21.1837C44.1696 20.9732 44.6555 20.6649 44.9707 20.4984C45.286 20.3322 45.7419 20.046 45.9841 19.8623C46.8737 19.1888 47.8375 18.9501 48.1513 19.3256ZM25.6 22.8542C26.486 23.6996 27.4429 24.5439 27.7265 24.7305C28.587 25.2965 29.3373 26.0715 29.3373 26.3941C29.3373 26.7189 27.4562 28.7242 27.1349 28.7421C26.3647 28.785 25.2347 28.6842 24.9627 28.5488C24.7816 28.4584 24.4304 28.3469 24.1825 28.3004C23.9345 28.254 23.4415 28.1086 23.087 27.9774C22.1106 27.6162 21.6151 27.4482 20.7672 27.1928C19.4864 26.8065 18.4856 26.4384 18.3003 26.2859C18.0649 26.0918 18.071 24.6701 18.3114 23.75C18.414 23.3584 18.5274 22.8942 18.5637 22.718C18.7462 21.8344 20.1691 21.3306 22.5072 21.322L23.9892 21.317L25.6 22.8542ZM94.5858 22.6541C94.5714 22.7245 94.3756 22.8195 94.15 22.8652C93.9247 22.911 93.6991 23.0146 93.649 23.095C93.5987 23.1758 93.3597 23.3494 93.1179 23.4806C91.7547 24.2206 91.664 24.2559 91.5574 24.0937C91.2555 23.6338 91.597 23.3269 93.065 22.7395C93.7243 22.4754 94.6315 22.4247 94.5858 22.6541ZM88.1444 24.1219C88.411 24.3703 88.0447 25.1539 87.1799 26.1851C86.6836 26.7765 86.1874 27.4332 86.0772 27.6444C85.9671 27.8556 85.5612 28.3515 85.175 28.7467C84.7893 29.1419 84.3768 29.6129 84.2588 29.793C84.1404 29.9731 83.5912 30.6573 83.0381 31.3137C82.485 31.9698 81.9239 32.6365 81.7911 32.7948C81.206 33.4937 80.4391 33.2833 76.4966 31.3398C74.5518 30.3811 72.7579 29.4457 72.5095 29.2606C72.0277 28.9015 70.9056 28.348 70.6605 28.3487C70.5788 28.3487 69.2944 27.752 67.806 27.0223C66.3175 26.2927 64.7618 25.5376 64.3493 25.3447C63.5925 24.9906 63.255 24.5815 63.4029 24.1984C63.5188 23.8986 87.8237 23.8232 88.1444 24.1219ZM61.6845 25.2679C62.3578 25.623 63.0538 25.975 63.2308 26.0497C63.4079 26.124 65.2346 27.0119 67.2903 28.0224C69.3459 29.0329 71.4483 30.0184 71.9622 30.2121C73.7101 30.871 77.0721 32.6237 77.2365 32.9624C77.537 33.5806 77.5039 34.0211 77.1491 34.1201C76.1767 34.391 74.8815 34.6325 73.7983 34.7444C73.1249 34.814 72.371 34.9241 72.123 34.9888C71.8751 35.0534 71.0067 35.1756 70.1934 35.2603C69.3801 35.3447 68.5761 35.4665 68.4062 35.5305C68.2367 35.5944 67.4058 35.7027 66.5593 35.7717C65.7129 35.8403 64.9068 35.9567 64.7679 36.0307C64.629 36.1043 63.8387 36.2233 63.0117 36.2944C62.1847 36.3659 61.1562 36.502 60.7261 36.5974C60.2964 36.6925 59.4806 36.8086 58.9138 36.8554C58.3466 36.9022 57.5552 37.0223 57.1551 37.1227C56.6451 37.2506 55.6544 37.3053 53.8384 37.3053H51.2488L50.8954 36.7614C50.1972 35.687 50.4437 32.9545 51.2387 32.9545C51.3038 32.9545 51.8105 32.4228 52.3647 31.7732C52.9186 31.1233 53.466 30.4976 53.5804 30.3825C53.6952 30.2675 54.0432 29.8348 54.3538 29.4206C54.6643 29.0069 55.224 28.3612 55.5972 27.986C55.9707 27.6105 56.3691 27.1213 56.4828 26.8983C56.5969 26.6754 56.9726 26.2191 57.3184 25.8846C57.6643 25.5502 57.9471 25.2182 57.9471 25.1471C57.9471 24.2892 59.952 24.3538 61.6845 25.2679ZM89.9826 26.7168C90.218 27.4239 90.5091 48.4787 90.2871 48.7363C90.1741 48.8674 89.527 48.543 89.2632 48.2232C88.5881 47.4046 88.2322 46.9118 88.2322 46.7961C88.2322 46.6556 87.0309 44.2866 86.8344 44.0397C86.7711 43.96 86.6451 43.6645 86.5548 43.3833C86.4645 43.1017 86.3554 42.8427 86.3126 42.8073C86.2698 42.7723 85.8041 41.8797 85.278 40.8242C83.29 36.8343 83.0395 36.3416 82.9276 36.2004C82.3813 35.5101 82.8578 33.0446 83.6988 32.2095C83.9623 31.948 84.3365 31.4649 84.5305 31.1365C84.7245 30.8078 85.3528 30.0356 85.9272 29.4203C86.5012 28.805 87.1241 28.0671 87.3116 27.7809C87.4988 27.4947 87.6989 27.2403 87.7557 27.2156C87.8126 27.191 88.0656 26.9494 88.3175 26.6789C88.7411 26.2244 88.9714 26.1086 89.5432 26.0625C89.6954 26.05 89.8254 26.2437 89.9826 26.7168ZM93.0427 27.4272C93.1719 27.5433 93.4234 27.9431 93.6008 28.3158C93.7786 28.6885 94.0514 29.1505 94.2069 29.3427C94.7172 29.9723 96.1844 32.2442 96.2841 32.5586C96.3373 32.728 96.6209 33.1968 96.9138 33.6002C97.2068 34.0036 97.6786 34.7158 97.9618 35.1824C98.4962 36.0614 98.6762 36.3248 99.1357 36.9008C99.2854 37.088 99.6622 37.7208 99.9735 38.3072C100.285 38.8932 100.655 39.496 100.796 39.6464C101.326 40.2114 101.245 41.6667 100.65 42.2695C100.017 42.9102 99.573 43.5159 99.573 43.7388C99.573 43.8346 99.4423 44.03 99.2829 44.1737C99.1235 44.317 98.9043 44.5435 98.796 44.6771C98.6873 44.8104 98.4516 45.0345 98.272 45.1752C98.0924 45.3157 97.7779 45.7184 97.5728 46.0703C97.3677 46.4223 96.6504 47.2549 95.9785 47.9209L94.7575 49.1322L93.9467 49.1833C92.4359 49.2787 92.505 49.3595 92.1595 47.0941C91.9612 45.7941 91.8601 27.4757 92.0494 27.1717C92.1509 27.0084 92.7458 27.1617 93.0427 27.4272ZM48.323 33.2018C48.5601 33.2915 48.726 33.5538 48.9905 34.2573C49.1842 34.7726 49.4807 35.4826 49.6498 35.8356C49.8186 36.1883 49.9568 36.5642 49.9568 36.6707C49.9568 36.7771 50.0432 36.9865 50.1483 37.1359C50.4437 37.5543 50.4632 39.764 50.1742 40.0509C50.0547 40.1696 49.9568 40.3364 49.9568 40.4222C49.9568 40.5079 49.8449 40.7966 49.7074 41.0636C49.5703 41.3308 49.3947 41.8429 49.3173 42.2016C49.2399 42.5604 49.1111 42.932 49.0312 43.0278C48.9513 43.1232 48.8804 43.4533 48.8739 43.7613C48.8523 44.7397 49.2039 44.6854 49.3648 43.6856C49.4087 43.4137 49.5001 43.1914 49.5681 43.1914C49.7355 43.1914 50.2717 42.0423 50.606 40.9674C51.1347 39.268 51.7454 38.9011 54.7896 38.4519C55.6403 38.3269 56.4522 38.1886 56.594 38.145C56.7358 38.1014 57.5185 37.9842 58.3337 37.8848C59.1488 37.7852 60.3378 37.6186 60.9755 37.5147C62.7533 37.2256 64.0726 37.0505 65.4862 36.9161C66.1948 36.8486 67.1517 36.7096 67.6124 36.6074C68.0733 36.5052 69.1109 36.3587 69.9188 36.2823C70.7264 36.2054 71.4803 36.0943 71.594 36.035C71.7077 35.9757 72.4678 35.8631 73.2829 35.7845C74.098 35.7063 75.2 35.5515 75.7315 35.4404C76.7237 35.2332 80.4315 35.1381 80.9648 35.3061C81.1124 35.3525 81.4539 35.7206 81.7235 36.124C81.993 36.5274 82.3126 37.0023 82.4339 37.1799C82.5551 37.3571 82.6991 37.6422 82.7542 37.8137C82.8089 37.9852 83.1907 38.7388 83.6027 39.4881C84.0144 40.2378 84.3894 41.0007 84.4359 41.184C84.4823 41.3673 84.6014 41.5842 84.7007 41.666C84.8 41.7482 84.8817 41.88 84.8821 41.9594C84.8825 42.0387 85.0858 42.4778 85.3341 42.9352C85.5824 43.3929 85.9617 44.1412 86.1769 44.5989C86.5631 45.4193 87.1241 46.5313 87.8662 47.9455C88.3474 48.8631 88.3603 50.0637 87.8914 50.2946C87.7395 50.3696 87.5366 50.4936 87.4405 50.5701C87.3444 50.6465 86.9273 50.7498 86.5138 50.7995C86.0315 50.8574 85.6713 50.9799 85.5083 51.1418C85.3021 51.3465 85.1506 51.3787 84.704 51.3122C83.5596 51.1418 83.0716 51.5566 82.8135 52.9191C82.7275 53.3747 82.5803 54.0068 82.4871 54.3234C82.3939 54.6403 82.2809 55.1874 82.2363 55.539C81.9221 58.0063 81.216 58.8217 78.6955 59.6274C77.9293 59.8722 76.5654 60.5254 76.2368 60.8044C76.1249 60.8995 75.9734 60.9774 75.9003 60.9774C75.7812 60.9774 74.4216 61.5816 73.9271 61.8542C73.2829 62.2094 72.538 62.5135 72.3123 62.5131C72.0917 62.5128 70.8196 63.1066 69.2235 63.9546C68.6819 64.2422 67.5332 64.6881 67.3331 64.6881C67.2413 64.6881 66.4589 65.0337 65.5945 65.4557C64.7301 65.878 63.9517 66.2236 63.8646 66.2236C63.7066 66.2236 63.0567 66.513 61.362 67.338C59.6404 68.1763 58.2426 68.0405 58.0353 67.0143C57.8622 66.1571 57.2835 65.6522 56.1931 65.4064C54.4279 65.0087 53.8823 64.6563 53.5037 63.6691C53.3271 63.2092 52.9729 62.2855 52.7163 61.617C52.4597 60.9484 52.1636 60.1423 52.0581 59.8257C51.9527 59.5088 51.812 59.1347 51.745 58.9939C51.6785 58.8531 51.5421 58.4215 51.4424 58.0341C51.3427 57.6472 51.0857 56.726 50.8713 55.987C50.6571 55.2481 50.4794 54.4706 50.4761 54.2594C50.4732 54.0482 50.3843 53.7109 50.2785 53.5097C50.1731 53.3086 50.0025 52.848 49.8999 52.486C49.5771 51.3483 49.3058 50.5622 49.0992 50.1649C48.9024 49.7872 48.8182 48.7892 48.7595 46.1447C48.7318 44.8994 48.4698 44.3245 48.3867 45.3268C48.3428 45.8563 47.9469 46.0585 47.5669 45.7455C47.3765 45.5887 45.5753 42.4968 45.5753 42.3263C45.5746 42.0787 43.3837 37.9367 42.9723 37.406C41.8535 35.9628 42.1846 35.3882 44.6731 34.4549C45.3464 34.2023 46.2166 33.8396 46.6064 33.6492C46.9961 33.4587 47.46 33.2583 47.6374 33.2036C47.8145 33.1493 47.9703 33.0996 47.9832 33.0935C47.9966 33.0875 48.1492 33.1364 48.323 33.2018ZM28.2419 35.1792C28.9508 35.3743 29.9365 35.6223 30.4328 35.7298C30.9291 35.8374 31.4077 35.9839 31.4962 36.0554C31.5851 36.1268 31.9911 36.2608 32.3984 36.353C34.1723 36.755 35.6528 37.1502 36.9408 37.5665C37.3305 37.6922 37.9949 37.8698 38.417 37.9606C39.5506 38.2043 39.6489 38.3497 39.6381 39.7683C39.6262 41.319 39.6035 41.3605 38.412 41.994C37.0243 42.7315 34.7614 43.831 34.6304 43.831C34.5717 43.831 34.4594 43.9082 34.3806 44.0022C34.3018 44.0965 34.0179 44.2387 33.7498 44.3188C33.4813 44.3984 33.0322 44.6725 32.7518 44.9276C32.0724 45.5454 31.5912 45.8785 31.3775 45.8785C31.281 45.8785 31 45.9846 30.7531 46.1146C30.5062 46.2447 30.0632 46.3887 29.7692 46.4341C28.931 46.5642 26.4821 47.987 26.2658 48.4694C26.2424 48.5223 26.124 48.5655 26.0031 48.5655C25.8822 48.5655 25.5561 48.6806 25.2779 48.8213C24.9997 48.9621 24.6481 49.0772 24.4966 49.0772C24.1846 49.0772 23.0255 49.6482 22.829 49.8987C22.3856 50.4636 20.3703 51.3004 19.3205 51.3562L18.26 51.4123L18.12 51.0457C17.9656 50.6433 18.0538 49.9247 18.306 49.5253C18.3949 49.3845 18.6281 48.7509 18.8246 48.1174C19.0211 47.4842 19.3209 46.5531 19.4911 46.0489C19.6613 45.5444 19.801 45.032 19.801 44.9105C19.801 44.789 20.0082 44.2612 20.262 43.7374C20.7543 42.7212 21.0271 41.8861 21.2307 40.7713C21.3006 40.3904 21.4416 39.9298 21.5446 39.7476C21.6475 39.5657 21.8778 38.9607 22.0567 38.4037C22.4921 37.0451 23.3126 35.2442 23.6466 34.9127C23.968 34.5932 26.6886 34.7511 28.2419 35.1792ZM41.8679 37.6572C41.9769 37.7802 42.2231 38.1914 42.4145 38.5705C42.606 38.95 42.9813 39.5832 43.2484 39.978C43.5157 40.3729 43.9397 41.0993 44.1909 41.5917C44.4421 42.0844 44.74 42.6601 44.853 42.8712C44.9657 43.0824 45.0585 43.4791 45.0589 43.7528C45.0596 44.0676 45.1381 44.3077 45.2727 44.4052C45.3961 44.4949 45.4447 44.626 45.3882 44.7168C45.3162 44.8322 45.2244 44.8036 45.0413 44.6085C44.9041 44.4624 44.6605 44.3427 44.5 44.3427C44.1106 44.3427 43.6082 43.9593 42.2918 42.6583L41.1938 41.5727V39.903C41.1938 37.5268 41.3349 37.0562 41.8679 37.6572ZM42.0626 43.5752C42.5952 43.9975 43.0878 44.3427 43.1569 44.3427C43.3279 44.3427 44.5493 45.3167 44.7692 45.6283C44.866 45.7659 45.0028 45.8785 45.0722 45.8785C45.6459 45.8785 47.7662 48.5626 47.7662 49.2887C47.7662 49.3841 47.8821 49.6768 48.0239 49.9394C48.1657 50.202 48.2823 50.5043 48.2827 50.6108C48.2834 50.7173 48.4889 51.3805 48.7393 52.0844C48.9898 52.788 49.281 53.6348 49.386 53.966C49.4911 54.2973 49.6282 54.5999 49.6905 54.6382C49.7528 54.6764 49.842 55.0098 49.8884 55.3792C49.9349 55.7487 50.054 56.3101 50.1529 56.6266C51.3625 60.4996 51.6838 61.4776 51.8469 61.781C52.0599 62.1769 52.1337 64.8915 51.9365 65.064C51.3157 65.6072 45.463 65.9302 44.4287 65.4789C44.1023 65.3363 43.7486 65.1837 43.6421 65.1398C43.5359 65.0958 43.217 64.919 42.9335 64.7467C42.6499 64.5749 42.2148 64.3437 41.9668 64.2336C41.7189 64.1236 41.2838 63.9246 41.0002 63.7916C40.717 63.6584 40.166 63.4593 39.7759 63.3489C39.3862 63.2381 38.7772 63.0102 38.4228 62.8419C37.6058 62.4535 37.2604 62.3138 36.6187 62.1108C36.3351 62.0211 36.0163 61.8832 35.9097 61.8042C35.8036 61.7253 35.2818 61.4448 34.7499 61.181C34.2183 60.9173 33.6965 60.6536 33.59 60.595C33.4838 60.5361 32.8749 60.3296 32.2368 60.1355C31.5991 59.9411 30.7729 59.5917 30.4011 59.3584C30.0294 59.1247 29.5363 58.8477 29.3057 58.7427C29.075 58.6373 28.7993 58.4972 28.6931 58.4308C28.2357 58.146 27.4354 57.8137 27.0176 57.7347C26.5429 57.645 26.3118 57.55 24.9558 56.8861C23.4353 56.1418 22.1887 55.4621 21.9271 55.2345C21.5338 54.8926 21.0731 54.6339 20.5607 54.467C18.7332 53.8724 19.2525 52.7922 22.0005 51.4716C22.6785 51.1457 23.5196 50.654 23.869 50.3789C24.6557 49.7593 25.5223 49.3212 26.6955 48.95C28.2721 48.4508 29.2837 47.9223 30.6401 46.889C30.8805 46.706 31.3541 46.482 31.6927 46.3916C32.031 46.3012 32.3391 46.1775 32.3768 46.1168C32.4146 46.056 32.5748 46.0064 32.7331 46.0064C32.971 46.0064 34.2097 45.4261 36.1861 44.3884C36.3736 44.2902 36.6014 44.1204 36.6925 44.0118C37.1571 43.4558 38.9406 42.8416 40.1448 42.8223L41.0938 42.8073L42.0626 43.5752ZM101.473 43.8632C101.659 44.0976 101.786 48.0799 101.622 48.5469C101.495 48.9082 100.868 49.333 100.462 49.333C100.328 49.333 100.327 49.3648 100.456 49.4931C100.578 49.6135 101.41 49.6485 103.824 49.6346C107.622 49.6124 107.995 49.7482 106.145 50.48C105.756 50.634 105.131 50.8999 104.757 51.0703C104.383 51.2408 103.992 51.3805 103.887 51.3805C103.782 51.3805 103.479 51.4955 103.215 51.6363C102.95 51.7771 102.616 51.8922 102.471 51.8922C102.326 51.8922 102.093 51.9701 101.954 52.0651C101.662 52.2638 100.464 52.4288 100.259 52.2991C100.183 52.2513 100.079 51.6477 100.028 50.9581C99.9235 49.5553 99.7561 49.4009 99.4578 50.4311C99.2818 51.0382 99.4064 53.8971 99.6629 55.1438L99.7396 55.5165L99.8817 55.0798C100.16 54.2262 102.728 54.7429 103.865 55.8813C104.098 56.1153 104.359 56.2429 104.605 56.2429C104.815 56.2429 104.986 56.3004 104.986 56.3708C104.986 56.5605 103.967 56.5223 103.375 56.3104C103.091 56.2089 102.482 56.121 102.022 56.115C101.561 56.1089 100.966 56.0263 100.699 55.932C100.17 55.7448 100.063 55.8012 100.171 56.2107C100.223 56.4062 100.412 56.5198 100.866 56.6277C101.643 56.8128 102.662 57.441 102.677 57.7436C102.685 57.918 102.68 60.009 102.666 62.4167C102.665 62.6135 101.537 62.5103 101.233 62.2855C101.064 62.1605 100.781 61.9854 100.604 61.8968C100.427 61.8081 99.9444 61.4208 99.532 61.0363C99.1192 60.6519 98.7424 60.336 98.6942 60.3342C98.6459 60.3328 98.2584 59.9058 97.833 59.3859C97.408 58.866 96.911 58.3521 96.7289 58.2439C96.3902 58.0427 95.9965 56.6424 96.1595 56.22C96.197 56.1232 96.2427 54.606 96.261 52.8487C96.2895 50.1552 96.328 49.5928 96.5083 49.2691C96.6256 49.0579 96.7821 48.727 96.8555 48.5333C96.929 48.34 97.0474 48.1814 97.119 48.1814C97.2698 48.1814 97.8974 47.0022 97.8974 46.7189C97.8974 46.6135 98.2414 46.194 98.6618 45.787C99.0817 45.3796 99.465 44.8883 99.5132 44.6947C99.5615 44.5013 99.6486 44.3427 99.7072 44.3427C99.7655 44.3427 99.849 44.2312 99.8925 44.0947C100.001 43.757 101.244 43.5752 101.473 43.8632ZM8.64983 49.5192C8.93521 49.6714 9.42212 49.9651 9.73197 50.1724C10.4046 50.6219 11.1085 51.0321 12.0683 51.5327C13.5931 52.3284 14.3881 52.9927 14.3881 53.4712C14.3881 53.7813 13.5827 54.5788 13.267 54.5813C12.9583 54.5838 12.6315 54.7972 12.7521 54.9169C12.805 54.9694 13.1512 54.9372 13.5215 54.8451C13.8918 54.7529 14.699 54.6514 15.3155 54.6196L16.4358 54.5617L16.7057 55.0873C17.1836 56.0171 17.0418 57.6103 16.4501 57.9598C16.0064 58.2217 8.83732 58.3936 8.4429 58.1517C8.08986 57.9352 9.23066 56.7546 9.79315 56.7546C9.8914 56.7546 10.1102 56.6477 10.279 56.5173C10.4481 56.3869 10.804 56.2097 11.0696 56.1235C11.3356 56.0374 11.5529 55.9202 11.5529 55.8631C11.5529 55.8055 11.7879 55.6655 12.0751 55.5515C12.6747 55.3131 12.6387 55.0326 12.0211 55.1309C11.4432 55.2227 10.3639 55.6119 10.1253 55.8145C10.0134 55.9091 9.87017 55.987 9.80683 55.987C9.74385 55.987 8.93449 56.3583 8.00852 56.8117C6.36317 57.6182 5.39294 57.8769 5.13023 57.5796C4.97081 57.3988 5.16802 55.0941 5.40482 54.3748C5.51818 54.03 5.70028 53.3732 5.80932 52.9159C6.39268 50.4682 6.68202 49.422 6.82705 49.2323C6.99943 49.0072 7.97758 49.1612 8.64983 49.5192ZM14.4161 49.3938C14.6486 49.4977 15.0923 49.6457 15.4018 49.7225C16.4462 49.983 16.9565 51.3962 16.3051 52.2237C16.1367 52.4374 14.5536 52.3484 14.2877 52.1105C14.1657 52.0015 13.9065 51.8729 13.7115 51.8243C13.5168 51.776 13.357 51.6946 13.357 51.6431C13.357 51.5916 12.9946 51.3122 12.5516 51.0224C11.264 50.1792 10.8645 49.7143 11.1013 49.3345C11.2319 49.1247 13.9202 49.1729 14.4161 49.3938ZM112.899 49.3652C113.313 50.852 113.5 52.7701 113.465 55.1552L113.427 57.7143L112.653 57.6729C111.903 57.6325 109.842 56.9489 108.697 56.3601C108.435 56.225 108.154 56.115 108.073 56.115C107.991 56.115 107.741 56.0317 107.518 55.9299C107.073 55.7266 105.789 55.2699 105.179 55.0973C104.966 55.0373 104.563 54.8676 104.282 54.7196C104.001 54.5721 103.691 54.4513 103.593 54.4513C103.495 54.4513 103.261 54.3716 103.072 54.274C102.884 54.1761 102.565 54.0311 102.363 53.9507C102.046 53.8253 102.007 53.7574 102.083 53.4572C102.219 52.9209 102.336 52.8408 103.54 52.4614C104.158 52.2666 104.751 52.0662 104.857 52.0161C105.519 51.7028 108.279 50.6762 109.639 50.2374C109.824 50.1777 110.114 50.0548 110.284 49.9644C111.383 49.3763 112.811 49.049 112.899 49.3652ZM5.13419 50.7409C5.10144 51.5323 4.91899 52.4317 4.51556 53.7902C4.34066 54.3787 4.1305 53.7109 3.99518 52.1383C3.82172 50.1198 3.96855 49.6646 4.76892 49.7418L5.17378 49.7811L5.13419 50.7409ZM95.2267 52.5321C95.3383 55.0384 95.221 55.6705 94.5664 56.0871C94.0536 56.4137 94.0269 56.4348 93.1938 57.1598C92.112 58.1013 90.562 59.5745 89.3489 60.8155C88.0001 62.1948 87.4174 62.2766 87.1414 61.1249C87.014 60.5929 86.5606 59.4345 86.2313 58.7995C85.9599 58.2771 85.5619 57.1516 84.7723 54.6764C84.1548 52.7401 84.2304 51.8093 85.0153 51.6849C85.2992 51.6395 85.5626 51.5527 85.6008 51.4916C85.6386 51.4305 85.9373 51.3805 86.264 51.3805C86.5908 51.3805 87.4718 51.2397 88.2218 51.0678C90.9953 50.4318 92.2498 50.2496 93.7092 50.2717L95.1267 50.2928L95.2267 52.5321ZM115.151 51.5563C115.132 52.4081 115.003 52.9873 114.843 52.9509C114.659 52.9091 114.515 50.9713 114.68 50.7712C114.935 50.4636 115.167 50.8513 115.151 51.5563ZM84.0785 55.2513C84.23 55.6208 84.3945 56.0957 84.4441 56.3068C84.4938 56.518 84.6413 56.8914 84.7723 57.1365C84.9033 57.382 85.0102 57.6832 85.0102 57.8058C85.0102 57.9287 85.2413 58.6044 85.523 59.3073C86.3914 61.4708 85.6954 61.7081 83.9086 59.8575L82.8276 58.738L82.8294 57.4585C82.8301 56.6702 82.9021 55.9824 83.0165 55.6669C83.1187 55.3857 83.2029 55.0591 83.204 54.9419C83.2062 54.7375 83.3717 54.611 83.6657 54.5896C83.7413 54.5838 83.927 54.8819 84.0785 55.2513ZM20.3807 55.9292C20.7352 56.0564 21.4377 56.3812 21.9419 56.6513C22.446 56.9211 23.2871 57.2863 23.8103 57.4628C24.334 57.6389 25.5453 58.1653 26.5022 58.6323C27.4591 59.0989 28.3581 59.5263 28.4995 59.5817C28.9605 59.7618 31.3429 60.4653 31.4912 60.4653C31.5707 60.4653 31.6549 60.5161 31.6787 60.5775C31.7226 60.6926 35.2533 62.5296 35.7165 62.6786C35.8583 62.724 36.0613 62.8169 36.1678 62.8844C36.2739 62.9523 36.7378 63.1917 37.1985 63.4161C37.6595 63.6408 38.3706 63.9903 38.7794 64.1925C39.1879 64.3948 39.6222 64.5602 39.7439 64.5602C39.8659 64.5602 40.2563 64.6982 40.6119 64.8672C40.9675 65.0362 41.6642 65.3031 42.1601 65.4603C42.6564 65.6175 43.5096 65.9974 44.0566 66.3047C44.6033 66.612 45.0877 66.8632 45.1327 66.8632C45.7678 66.8632 47.1217 70.0358 47.1217 71.524C47.1217 72.3595 46.931 72.5424 45.8477 72.7464C45.4742 72.8168 45.1014 72.9158 45.0193 72.9662C44.9369 73.0166 44.4341 73.1574 43.9015 73.2792C41.5343 73.8198 40.0588 74.2829 39.6471 74.6149C39.4405 74.7814 38.3173 75.1165 37.2629 75.3263C36.4949 75.4789 35.5679 75.7265 34.6855 76.0152C34.3313 76.131 33.7224 76.3132 33.3323 76.4204C32.9426 76.5276 32.5579 76.6684 32.4772 76.7331C32.3966 76.7981 31.9328 76.9332 31.4462 77.0328C30.3774 77.2526 28.9476 77.6639 28.5866 77.8558C28.442 77.9326 27.7737 77.9955 27.1014 77.9955H25.88L25.5341 77.3877C25.2088 76.8163 25.0699 76.4222 24.6431 74.8607C24.488 74.2926 24.2825 73.7505 23.7211 72.4295C23.6315 72.2183 23.5156 71.8767 23.4638 71.6702C23.412 71.4637 23.2918 71.1471 23.1968 70.9666C23.1017 70.7858 23.024 70.5571 23.0233 70.4585C23.0229 70.3595 22.8837 69.9854 22.7138 69.6267C22.5439 69.2679 22.3122 68.7516 22.1985 68.4793C21.989 67.9776 21.3473 65.0322 21.3473 64.5734C21.3473 64.4362 21.2102 64.1611 21.0429 63.9621C20.5423 63.3678 19.9633 62.243 19.7362 61.4251C19.6189 61.0027 19.4404 60.4761 19.3396 60.2542C19.2388 60.0323 19.1564 59.7228 19.1564 59.5663C19.1564 59.3019 18.8293 58.4522 18.2413 57.1884C17.5283 55.6562 18.3208 55.1899 20.3807 55.9292ZM96.1164 59.2419C97.0135 60.1173 97.9989 60.9577 98.3058 61.1096C98.6276 61.2686 99.6691 62.179 100.765 63.2592C103.033 65.4946 103.055 65.5557 102.08 66.8446C101.757 67.2701 101.198 68.2117 100.838 68.9363C100.477 69.6613 99.9382 70.5997 99.641 71.022C99.3437 71.444 98.8493 72.3001 98.5423 72.9244C98.2353 73.5486 97.8506 74.2168 97.6869 74.4098C97.4094 74.7374 96.6259 76.0688 96.365 76.6573C96.3013 76.8009 96.1513 76.9993 96.0314 77.0979C95.9116 77.1965 95.6093 77.6803 95.3592 78.1734C95.1094 78.6662 94.7517 79.2979 94.5646 79.5766C94.3778 79.8557 94.1259 80.233 94.0057 80.4152C93.8851 80.5975 93.4695 81.3896 93.0826 82.1758C92.4161 83.5289 92.121 83.8816 91.6557 83.8816C91.3836 83.8816 91.3822 80.4056 91.6528 76.1403C91.7601 74.4512 91.8752 70.9963 91.9087 68.4629C91.9483 65.4535 92.0336 63.4125 92.1545 62.5767C92.2563 61.8728 92.3798 60.8412 92.4294 60.2842C92.5313 59.1336 93.6476 57.6564 94.4195 57.6507C94.4559 57.6507 95.2196 58.3664 96.1164 59.2419ZM82.7927 60.3821C83.1263 60.6883 83.688 61.1046 84.0411 61.3072C85.8829 62.3648 86.3619 63.4179 85.6659 64.88C85.2143 65.8291 85.0102 66.359 85.0102 66.5834C85.0102 66.7059 84.9292 66.921 84.8303 67.0615C84.7313 67.2015 84.3585 67.8912 84.0015 68.5933C83.6445 69.2958 83.2033 70.0687 83.0215 70.3109C82.8394 70.5536 82.6905 70.8523 82.6905 70.9752C82.6905 71.0981 82.639 71.2303 82.576 71.2689C82.513 71.3079 82.4216 71.4983 82.373 71.6923C82.2712 72.0993 77.3517 81.9767 76.9871 82.5059C76.6042 83.0623 76.3577 82.9983 74.8146 81.9442C73.6309 81.1363 72.6427 80.5367 71.8009 80.1165C71.4465 79.9396 70.7922 79.5012 70.347 79.1421C69.9019 78.7834 68.9162 78.1677 68.1565 77.7743C67.3964 77.3809 66.5842 76.8953 66.3513 76.6955C66.1189 76.4958 65.8698 76.3321 65.7982 76.3321C65.727 76.3321 65.4247 76.1556 65.1263 75.9402C64.4357 75.4406 63.097 74.5702 62.3844 74.1568C60.9309 73.3139 59.5705 70.3974 60.1705 69.4091C60.3853 69.0546 63.7926 67.3777 64.3018 67.3755C64.3594 67.3752 65.0864 67.0365 65.9173 66.6223C66.7483 66.2085 67.8322 65.7165 68.326 65.5289C68.8194 65.3417 69.3973 65.1116 69.61 65.0172C70.1934 64.7596 73.0576 63.41 73.3135 63.2728C73.4366 63.2067 73.6136 63.1524 73.7069 63.1524C73.8004 63.1524 74.3957 62.9008 75.0298 62.5935C75.6639 62.2859 76.6463 61.8703 77.2135 61.6702C78.1733 61.3311 80.5387 60.1941 80.8155 59.9386C81.1862 59.5963 82.1787 59.8189 82.7927 60.3821ZM90.2997 62.1608C90.3666 64.1275 90.25 75.6629 90.1608 75.8955C89.9322 76.4922 89.3327 76.9471 87.656 77.7954C86.7369 78.2606 85.8379 78.778 85.6587 78.9452C85.1477 79.4208 81.4291 81.1602 80.6931 81.2674C80.3387 81.3189 79.9781 81.4532 79.8917 81.5658C79.7488 81.752 79.7344 81.7513 79.7305 81.5569C79.7283 81.4397 79.7902 81.3228 79.8679 81.2971C79.9457 81.2714 80.0418 80.8515 80.081 80.3641C80.1292 79.7667 80.2681 79.2472 80.5071 78.7687C81.094 77.5935 81.4989 76.6398 81.5954 76.2039C81.6454 75.9773 81.8786 75.4381 82.1136 75.0061C82.3486 74.5741 82.9819 73.3285 83.521 72.2376C84.0601 71.1467 84.5568 70.1676 84.6248 70.0622C84.6932 69.9568 84.8292 69.6974 84.9274 69.4862C85.2366 68.822 86.8236 65.6565 86.9485 65.4557C87.014 65.3503 87.2994 64.7685 87.5826 64.1632C88.2444 62.7479 89.0023 62.0011 89.7757 62.0011C90.1017 62.0011 90.2961 62.0604 90.2997 62.1608ZM56.9899 66.5655C57.1651 66.7535 57.3443 67.0558 57.3875 67.2373C57.4307 67.4188 57.5358 67.6535 57.6211 67.759C57.706 67.8647 57.8529 68.1524 57.9471 68.3989C58.0414 68.6451 58.1879 68.9331 58.2732 69.0385C58.3581 69.1443 58.4693 69.4034 58.5197 69.6145C58.6086 69.9861 58.7454 70.332 59.2287 71.4058C59.536 72.0893 59.6598 72.6868 59.559 73.0023C59.4406 73.3721 56.4317 73.3807 54.7561 73.0159C54.1368 72.8811 53.0499 72.7304 52.341 72.681C51.6324 72.6321 50.8205 72.5127 50.5369 72.4166C50.2533 72.3201 49.8766 72.2401 49.6991 72.2387C48.956 72.2326 48.4446 71.9893 48.2812 71.5637C48.1941 71.3361 48.0423 70.9684 47.9444 70.7465C47.8465 70.525 47.7659 70.2659 47.7652 70.1709C47.7648 70.0758 47.6532 69.8307 47.5176 69.6263C47.3513 69.3762 47.2412 68.9038 47.1807 68.186C47.0771 66.95 47.1768 66.7352 47.8537 66.7352C48.0973 66.7352 48.5396 66.6752 48.8369 66.602C49.598 66.4137 51.9671 66.2632 54.506 66.2418L56.6707 66.2236L56.9899 66.5655ZM48.3525 74.0846C48.6379 74.517 49.1359 75.431 49.3162 75.8523C49.399 76.0459 49.5142 76.2042 49.5721 76.2042C49.765 76.2042 50.366 77.4145 50.3678 77.8064C50.3692 78.1845 49.9993 78.9552 49.5699 79.4669C49.4523 79.6077 49.2511 80.0108 49.123 80.3627C48.7678 81.3411 47.8998 83.088 47.5777 83.4732C47.2818 83.8269 47.2333 83.913 46.4962 85.3856C46.2584 85.8604 46.0108 86.3353 45.946 86.4407C45.8808 86.5461 45.7405 86.8341 45.634 87.0807C45.5275 87.3269 45.3857 87.6149 45.3187 87.7203C45.2518 87.8257 44.9005 88.5168 44.5381 89.2557C44.1758 89.9946 43.8249 90.6857 43.7583 90.7911C43.6914 90.8969 43.5445 91.1849 43.4315 91.4311C42.5613 93.3277 41.978 93.1173 38.2864 89.5759C36.8929 88.2384 35.6863 87.1214 35.6057 87.0936C35.2792 86.9799 33.0973 84.9929 30.1812 82.1543C29.7472 81.732 29.0595 81.1599 28.6525 80.883C27.5487 80.1319 27.5271 79.429 28.5985 79.1339C28.8986 79.051 29.3924 78.9052 29.6961 78.8094C29.9999 78.7137 30.4058 78.6336 30.5983 78.6315C30.7909 78.629 31.2382 78.4857 31.5927 78.3128C31.9471 78.1395 32.3088 77.9973 32.3966 77.9969C32.5474 77.9955 34.1651 77.5334 36.0386 76.956C36.4996 76.8142 37.1085 76.6391 37.3921 76.5673C37.6753 76.4954 38.4005 76.2964 39.0029 76.1253C39.6053 75.9541 40.4172 75.7261 40.8069 75.6189C41.1967 75.5117 41.7768 75.337 42.0957 75.2305C42.4149 75.124 42.9694 74.9643 43.3282 74.8753C43.687 74.7864 44.0523 74.6692 44.1401 74.6156C45.169 73.9842 48.0469 73.6215 48.3525 74.0846ZM54.081 73.8927C56.4688 74.2104 57.2522 74.3411 57.3922 74.4455C57.6373 74.6284 57.3303 75.1398 56.8671 75.3191C56.0596 75.6318 55.5486 75.8458 54.8835 76.1496C54.51 76.3204 54.1328 76.4622 54.0457 76.4644C53.9586 76.4669 53.6556 76.5801 53.372 76.7159C53.0521 76.8696 52.5763 76.965 52.1168 76.9675L51.3772 76.9717L50.9044 76.236C50.6445 75.8315 50.3275 75.3477 50.2001 75.1612C49.9172 74.7474 49.7747 74.2236 49.8748 73.9653C49.9611 73.7416 52.603 73.6962 54.081 73.8927ZM62.107 75.6933C62.288 75.8344 62.948 76.2157 63.5742 76.5405C64.2004 76.8656 64.8287 77.2351 64.9705 77.3616C65.1123 77.4881 65.6633 77.8347 66.1948 78.1316C66.7263 78.4282 67.4295 78.8927 67.757 79.1635C68.0849 79.434 68.6707 79.8214 69.0591 80.0243C69.4477 80.2273 70.1653 80.6514 70.6544 80.9669C71.1431 81.2828 71.9485 81.7538 72.4444 82.0139C74.2222 82.9465 74.7242 84.0206 73.704 84.7088C73.4395 84.8871 73.1192 85.0332 72.9921 85.0332C72.8651 85.0332 72.4311 85.1483 72.0277 85.2891C71.6242 85.4299 71.1762 85.5471 71.0322 85.5492C70.8879 85.5517 70.5378 85.665 70.2546 85.8011C69.971 85.9369 69.6446 86.0502 69.5291 86.0527C69.4139 86.0548 69.0947 86.1527 68.8204 86.2696C68.5459 86.3868 67.9733 86.5561 67.5479 86.6458C66.7958 86.8045 66.0951 87.0078 64.9061 87.4123C64.5872 87.5209 64.0967 87.6663 63.816 87.7357C63.5349 87.805 63.2452 87.91 63.1715 87.969C63.0977 88.0279 62.6986 88.1455 62.2844 88.2298C61.8702 88.3142 61.3354 88.4646 61.0964 88.5636C60.8575 88.6629 60.5041 88.744 60.3115 88.744C60.119 88.744 59.7257 88.8562 59.4374 88.9938C59.1495 89.131 58.6817 89.3022 58.3981 89.374C58.1145 89.4458 57.3026 89.7063 56.594 89.9536C55.8851 90.2005 55.1718 90.4038 55.0088 90.4052C54.8457 90.4063 54.5539 90.4888 54.3599 90.5885C54.1663 90.6878 53.7776 90.8065 53.4966 90.8522C53.2155 90.8976 52.7246 91.0384 52.4054 91.1649C51.3387 91.5879 49.7668 92.0735 49.4674 92.0721C49.3043 92.0714 49.0143 92.1493 48.8228 92.245C48.6314 92.3408 48.2244 92.4573 47.9181 92.5037C47.6119 92.5506 47.2351 92.6681 47.0803 92.7653C46.6945 93.0079 45.8481 93.1201 45.3821 92.9904C44.5166 92.7489 44.7875 91.8752 47.2322 87.0296C48.4119 84.6913 49.435 82.6603 49.5059 82.5163C51.7274 78.003 52.1402 77.5602 54.6132 77.0346C54.8522 76.9839 55.1923 76.8695 55.3697 76.7806C55.5468 76.692 56.1848 76.4275 56.7873 76.1931C57.3897 75.9591 58.0278 75.6933 58.2048 75.6025C58.7774 75.3102 61.7035 75.3777 62.107 75.6933ZM24.0594 76.0792C24.2019 76.1553 24.3923 76.5044 24.5103 76.9085C24.6229 77.2926 24.764 77.6371 24.8241 77.6739C24.8842 77.7107 24.9699 77.9565 25.0148 78.2202C25.103 78.7391 25.7778 79.915 25.9869 79.915C26.0578 79.915 26.1139 80.2173 26.1114 80.5868C26.1071 81.3014 25.921 81.5483 25.2193 81.7688C25.0451 81.8234 24.3858 82.2176 23.7535 82.6446L22.604 83.421L21.2617 83.4067C20.5232 83.3989 19.8492 83.3349 19.7635 83.2642C19.6775 83.1938 19.2014 82.9265 18.7055 82.6699C18.2092 82.4134 17.6111 82.0024 17.3761 81.7559L16.9493 81.3085L16.9896 79.0656C17.0393 76.3186 16.8309 76.5505 19.6718 76.0788C20.5646 75.9305 23.7801 75.9309 24.0594 76.0792ZM89.7484 82.5299C89.7671 84.6363 89.7358 86.4064 89.6789 86.4629C89.4497 86.6905 87.3681 86.6137 86.5987 86.3489C85.2916 85.8997 83.593 85.4495 81.853 85.0915C80.3588 84.7838 80.117 84.6062 80.117 83.8176C80.117 83.2141 80.1889 83.0855 80.659 82.8457C80.8529 82.7467 81.636 82.3519 82.399 81.9681C83.1619 81.584 84.0346 81.082 84.3383 80.8522C84.6421 80.6225 85.1617 80.3034 85.4932 80.1426C86.2208 79.7903 86.3526 79.7238 87.5142 79.1257C88.2451 78.7491 88.5528 78.6604 89.0696 78.6776L89.7142 78.6994L89.7484 82.5299ZM94.0215 85.2201C94.222 85.323 94.9295 85.9069 95.5938 86.5179C96.2585 87.1286 97.1049 87.8225 97.4749 88.0597C98.1691 88.505 98.4804 88.8969 98.3688 89.1853C98.2864 89.3986 96.5864 89.3097 96.0289 89.0627C95.8162 88.9688 95.4682 88.8501 95.2555 88.7998C95.0429 88.749 94.6538 88.6007 94.3908 88.4699C94.1281 88.3392 93.78 88.2288 93.6177 88.2248C93.4554 88.2205 93.0034 88.0622 92.6137 87.8729L91.9051 87.5284L91.9512 86.9524C92.0649 85.531 93.0394 84.7159 94.0215 85.2201ZM81.0796 85.8454C81.2923 85.9609 81.5576 86.0555 81.6691 86.0563C81.7807 86.0566 82.3565 86.201 82.9485 86.3768C83.5405 86.5526 84.203 86.6969 84.4207 86.6973C84.6388 86.698 84.971 86.778 85.1588 86.8752C85.3471 86.9728 85.7008 87.1182 85.9455 87.1982C86.7225 87.453 86.7668 88.744 85.9984 88.744C85.9135 88.744 85.6278 88.8591 85.3633 88.9999C85.0987 89.1406 84.8072 89.2557 84.7158 89.2557C84.6241 89.2557 84.3196 89.3743 84.0389 89.519C83.408 89.8442 82.6951 90.1133 81.853 90.3434C81.0599 90.5599 79.7999 90.9976 79.2561 91.246C79.0327 91.3478 78.7426 91.4314 78.6116 91.4318C78.4806 91.4321 78.2075 91.5186 78.0049 91.6233C77.8022 91.7284 77.3384 91.8977 76.9738 91.9996C76.1864 92.2197 75.196 92.5395 74.5716 92.7746C73.9091 93.0244 72.9205 93.3463 72.1875 93.5514C71.833 93.6504 71.404 93.804 71.2341 93.8926C71.0592 93.9841 70.4723 94.0542 69.881 94.0542H68.8366L68.796 93.5582C68.7506 93.0097 72.9443 88.5857 74.5716 87.4648C74.9614 87.1965 75.5415 86.7069 75.8604 86.3768C76.1792 86.0466 76.5564 85.7247 76.6982 85.6611C77.1505 85.4581 80.6363 85.605 81.0796 85.8454ZM73.022 87.1525C72.9176 87.4255 66.4755 93.9116 65.3422 94.8853C64.2076 95.8597 64.783 95.7768 59.4424 95.7339C55.7339 95.7043 54.4294 95.6503 53.6297 95.4938C53.0629 95.3827 52.0135 95.2558 51.2977 95.2122C50.5823 95.1686 49.6254 95.0293 49.1712 94.9024L48.346 94.672L48.3071 94.1538C48.2586 93.5074 48.6497 93.1498 49.5473 93.0208C49.8791 92.9729 50.2663 92.8707 50.4081 92.7935C50.5499 92.7163 50.9558 92.5866 51.3103 92.5059C51.9523 92.359 52.2794 92.254 53.5009 91.802C53.8554 91.6708 54.3484 91.5279 54.5963 91.4843C55.0635 91.4021 56.2935 91.0534 57.3026 90.7171C58.659 90.2648 61.208 89.5326 61.9997 89.3679C62.3502 89.2946 62.7547 89.1535 62.8983 89.0535C63.0419 88.9538 63.2791 88.8719 63.4255 88.8719C63.572 88.8719 63.9215 88.7526 64.2025 88.6068C64.4832 88.4614 65.2346 88.1991 65.8727 88.0247C67.5141 87.5759 69.1573 87.091 69.61 86.922C70.0897 86.743 72.6229 86.5969 72.9245 86.7309C73.1019 86.8098 73.1213 86.8934 73.022 87.1525ZM90.3979 89.0374C90.5505 89.1989 90.7445 89.5269 90.8287 89.7667C90.9129 90.0068 91.1749 90.5424 91.411 90.9573C91.6474 91.3721 91.8425 91.7491 91.8446 91.7952C91.8468 91.8413 91.9911 92.1668 92.1656 92.5187C92.3452 92.8814 92.483 93.3867 92.4838 93.685C92.4845 94.0163 92.5806 94.3321 92.7425 94.5369C93.2607 95.1911 92.948 95.6285 92.3719 95.0557C92.1714 94.8567 91.7816 94.4858 91.5053 94.2314C89.5439 92.4262 87.5877 90.2748 87.5877 89.9228C87.5877 89.0295 89.7466 88.3492 90.3979 89.0374ZM93.4004 89.3743C93.8538 89.4369 94.4858 89.5776 94.8046 89.6881C95.1235 89.7981 95.9353 90.0297 96.6087 90.2022C101.4 91.4314 101.956 92.0489 100.078 94.0542C99.8148 94.3357 99.3952 94.8828 99.1458 95.2698C98.8964 95.6567 98.5232 96.1538 98.3163 96.3742C98.1094 96.5947 97.783 97.0406 97.5915 97.3654C96.5925 99.0577 96.1585 98.9169 95.0763 96.5493C94.9961 96.3735 94.7668 95.9329 94.5671 95.5703C94.3674 95.2079 94.0395 94.4594 93.8387 93.9069C93.6379 93.3545 93.3669 92.702 93.237 92.4566C93.1067 92.2114 93.0005 91.9745 93.0005 91.9306C93.0005 91.8863 92.7684 91.4314 92.4848 90.9194C92.2013 90.407 91.9695 89.8857 91.9695 89.7602C91.9695 89.3422 92.1203 89.1174 92.3524 89.1907C92.4755 89.2296 92.9473 89.3122 93.4004 89.3743ZM40.2646 93.1483C41.4461 94.3486 41.418 94.9321 40.1656 95.2051C39.9612 95.2497 39.7248 95.3687 39.6402 95.4698C39.556 95.571 39.4308 95.6535 39.3624 95.6535C39.2044 95.6535 36.5118 96.9588 36.4251 97.0774C36.297 97.2525 35.0273 97.4133 34.8859 97.2729C34.6182 97.007 34.9669 96.1523 35.7053 95.2655C35.8536 95.0872 36.2056 94.4908 36.487 93.9398C36.8202 93.2881 37.215 92.7453 37.6181 92.3858L38.2371 91.833L38.7862 92.0189C39.1641 92.1468 39.6255 92.4994 40.2646 93.1483ZM102.086 94.1181C102.221 94.5397 102.039 94.8563 101.425 95.2676C100.449 95.9215 100.47 95.646 101.499 94.2782C101.863 93.7955 101.973 93.7654 102.086 94.1181ZM75.3126 94.3571C75.472 94.5573 75.783 95.0607 76.0036 95.4756C76.2245 95.8901 76.4786 96.316 76.5686 96.4214C76.6586 96.5268 76.7744 96.7508 76.8263 96.9191C76.8777 97.0874 77.0847 97.4905 77.2858 97.8149C77.487 98.1394 77.7637 98.6421 77.9012 98.9319C78.0383 99.2221 78.2154 99.499 78.2942 99.5472C78.4885 99.6666 78.4749 99.8213 78.2503 100.044C78.147 100.147 77.9584 100.399 77.8314 100.605C76.4034 102.916 76.2847 102.991 75.0226 102.374C74.6684 102.201 74.2899 102.058 74.1815 102.056C74.0732 102.053 73.8702 101.974 73.7302 101.879C73.5906 101.784 73.3024 101.665 73.0897 101.614C72.5391 101.484 71.3799 100.907 71.3122 100.73C71.2806 100.647 71.3115 99.3997 71.381 97.9568C71.5235 94.9875 71.567 94.8792 72.7028 94.6873C72.9864 94.6394 73.3283 94.543 73.4629 94.4726C73.654 94.3729 74.4716 94.1185 74.9581 94.0073C74.9938 93.9991 75.1532 94.1567 75.3126 94.3571ZM46.0845 95.8661C46.2425 96.008 46.0471 98.2812 45.8222 98.9162C45.6865 99.3 45.5753 99.7284 45.5753 99.8685C45.5753 100.214 45.0751 101.451 44.8894 101.565C44.5745 101.758 44.1657 100.59 43.9613 98.9112C43.9102 98.4917 43.7946 97.9186 43.705 97.637C43.433 96.7851 43.3606 96.0283 43.5319 95.8232C43.6755 95.6517 45.8866 95.6889 46.0845 95.8661ZM42.4973 96.6772C42.6254 97.1346 42.7956 97.9986 42.8755 98.5968C42.9554 99.1949 43.0958 99.9146 43.1875 100.196C43.2793 100.478 43.3754 101.485 43.4017 102.435L43.4488 104.163L43.1267 104.2C42.7683 104.242 34.6639 100.3 34.3598 99.936C33.9531 99.4493 35.4775 98.3906 38.1651 97.2929C38.3778 97.2061 38.8884 96.947 39.2998 96.7173C39.7111 96.4875 40.2617 96.2406 40.5241 96.1688C40.7861 96.0966 41.0873 95.9794 41.1938 95.9083C41.7729 95.5206 42.2526 95.8032 42.4973 96.6772ZM35.3944 101.929C35.3944 101.987 35.525 102.073 35.6845 102.12C35.9965 102.213 38.2975 103.272 38.616 103.469C38.7225 103.535 38.9543 103.652 39.1317 103.73C39.3088 103.807 39.5409 103.922 39.6471 103.985C39.7536 104.049 40.0264 104.196 40.2538 104.312C40.9631 104.677 40.6108 104.765 38.8273 104.67C36.7457 104.558 36.5932 104.483 35.6866 103.122C35.5995 102.99 35.3811 102.663 35.2012 102.395C35.0216 102.126 34.9064 101.855 34.9453 101.792C35.0273 101.661 35.3944 101.772 35.3944 101.929Z" fill="white"/>
</svg>
