<svg width="54" height="120" viewBox="0 0 54 120" fill="none" xmlns="http://www.w3.org/2000/svg">
<path fill-rule="evenodd" clip-rule="evenodd" d="M0.317898 0.0889782C0.101851 0.293968 0.244184 87.0061 0.460767 87.2119C0.758569 87.4948 53.2822 87.5388 53.5794 87.2564C53.7507 87.0935 53.855 0.60591 53.6842 0.183198C53.6159 0.0141124 0.495614 -0.0798523 0.317898 0.0889782ZM23.4969 3.39225C23.8692 3.5155 23.9568 3.78975 23.6242 3.78975C22.455 3.78975 20.5108 5.58654 20.5108 6.667C20.5108 6.74365 20.3419 7.07291 20.1355 7.3986C19.9291 7.72429 19.7603 8.0263 19.7603 8.06985C19.7603 8.29088 18.5602 9.1689 18.1118 9.27636C16.827 9.58372 15.6859 9.07239 15.6859 8.18928C15.6859 7.84423 16.0505 7.66038 16.7345 7.66038C16.9401 7.66038 17.2688 7.56616 17.465 7.4508C17.7427 7.28783 17.8684 7.26517 18.0335 7.34894C18.5889 7.6316 18.7575 7.49664 19.4901 6.18343C20.7845 3.86309 22.1167 2.93516 23.4969 3.39225ZM32.4537 3.68C33.1975 4.16637 33.7961 4.8855 34.5029 6.14319C35.2336 7.44316 35.3607 7.55903 35.8611 7.3795C36.1595 7.27255 36.2546 7.28325 36.5669 7.45819C36.7653 7.56947 37.0867 7.66038 37.2807 7.66038C38.9145 7.66038 38.5583 9.19946 36.8878 9.35836C35.4478 9.49536 34.2561 8.52719 33.4994 6.60563C32.8073 4.84832 31.6525 3.79917 30.4018 3.79128C30.0635 3.78924 30.0992 3.52365 30.4554 3.39276C30.9947 3.19414 31.9123 3.32604 32.4537 3.68ZM29.7175 5.26186C31.5029 5.71335 32.7397 7.01714 32.7349 8.4429C32.7341 8.71054 32.8708 8.89668 33.5222 9.51344C35.3299 11.2252 36.8762 11.4953 38.6781 10.4144C41.0098 9.0156 42.9135 9.82767 43.804 12.6005C44.1835 13.7823 44.2511 14.2728 44.1187 14.8821C43.5989 17.2725 44.1988 18.7889 45.8701 19.3092C48.3077 20.0678 49.4987 22.6562 48.876 25.8421C48.0491 30.0754 45.6468 32.482 41.706 33.0254C39.382 33.346 38.2001 32.7779 38.2047 31.3425C38.2068 30.7326 38.2629 30.5824 38.9059 29.4619C39.2343 28.8905 39.2329 28.7336 38.8979 28.4153C37.6874 27.2653 35.8641 28.9656 36.2777 30.8584C36.8084 33.2872 38.3939 34.3797 41.1487 34.2146C47.0632 33.8599 50.5073 29.2725 49.9777 22.4543C49.8656 21.0138 49.8916 20.903 50.191 21.5457C51.3927 24.1266 51.3881 27.9575 50.1806 30.3748C48.42 33.8986 44.1428 36.658 39.7567 37.0993C39.108 37.1647 38.4567 37.2763 38.3092 37.3476C37.5914 37.6944 37.0079 39.8332 37.5751 40.0379C39.902 40.8785 40.715 44.3834 38.9354 45.9034C38.0377 46.6704 36.3192 47.1914 34.2081 47.3373C32.9105 47.427 32.9105 47.4328 34.1939 48.4848L35.2248 49.3294L35.7215 49.2607C39.0354 48.8028 41.4022 46.2553 41.4148 43.1326C41.4191 42.0753 41.4706 42.0111 41.8325 42.6126C43.0052 44.5632 42.7135 47.4262 41.142 49.39C40.567 50.1089 41.0712 49.976 41.8896 49.1932C43.1226 48.0142 43.9996 45.3353 43.9929 42.771C43.9916 42.251 44.8499 41.8996 45.5224 42.1448C45.7122 42.2141 45.6187 42.8275 45.3597 43.2105C45.2656 43.3498 45.1579 43.7387 45.1203 44.0748C44.7679 47.235 43.4258 49.9337 41.625 51.103C40.997 51.5107 40.8723 51.7369 41.0929 52.0679C41.2468 52.2989 41.042 52.3569 40.2773 52.2986C37.7734 52.1076 36.1455 52.9571 36.3297 54.3584L36.4039 54.9227H36.9945C39.5042 54.9227 41.9987 54.1252 42.4147 53.1896C42.7484 52.4397 43.1446 52.4147 43.2866 53.1346C43.567 54.5543 41.4859 55.7042 37.2714 56.4588C36.5297 56.5914 36.3318 56.8232 36.3983 57.4827L36.4329 57.8257L37.0226 57.8148C37.3469 57.8089 37.8849 57.7684 38.2184 57.7251C39.3932 57.5726 40.1958 57.9851 40.4467 58.8705C40.5989 59.4078 40.8029 59.5117 41.6446 59.4804L42.3158 59.4554L42.4056 59.855C42.639 60.8952 41.9563 61.4957 40.0784 61.9008L39.7567 61.9701L40.1596 62.3031C41.659 63.542 44.1605 63.188 45.8066 61.5038C46.2011 61.1002 46.2716 61.1712 46.2266 61.9268C46.0877 64.2637 43.9868 65.0994 40.1647 64.3385C38.6615 64.0391 38.6392 64.0429 38.8944 64.5535C39.3246 65.4149 39.3407 66.7857 38.9483 69.132C38.8359 69.8043 38.6687 70.9731 38.5765 71.7294C38.3352 73.7123 38.3813 73.5921 37.9369 73.3909C37.5008 73.1933 37.4748 73.1078 37.5844 72.2387C37.6303 71.8745 37.7136 71.2099 37.7694 70.7617C38.3095 66.4348 38.0913 64.4689 36.8728 62.68C36.1638 61.6395 35.2133 61.185 35.7341 62.1358C36.5621 63.6472 36.6144 65.746 35.8853 68.2153C35.3653 69.9764 35.7684 73.0553 36.6784 74.2758C37.4743 75.3431 39.6259 76.3344 39.9765 75.7953C40.0784 75.6387 40.9597 75.2944 41.2583 75.2944C41.6167 75.2944 42.1359 75.748 42.4484 76.3344C42.5983 76.6153 42.8572 76.9137 43.0328 77.0087C43.5013 77.2616 43.794 77.944 43.8594 78.9351C44.005 81.1457 41.8971 82.7502 37.8804 83.4867C37.3791 83.5786 36.8827 83.6713 36.7768 83.6927C36.6361 83.7214 36.568 83.6524 36.5222 83.4347C36.4509 83.0953 36.371 83.0841 35.1463 83.2394C34.4212 83.3316 34.3882 83.3262 34.1773 83.0833C33.6991 82.5333 32.6706 82.8676 32.4226 83.654L32.2883 84.08L30.4728 84.0349L28.6573 83.9901L28.1727 83.6657C27.516 83.2259 26.58 83.2002 25.9651 83.6051C25.4043 83.9743 24.9569 84.0492 23.2932 84.0517C21.7658 84.0543 21.583 84.0054 21.583 83.5934C21.583 82.9631 20.0937 82.5216 19.8683 83.0848C19.7705 83.3288 19.7139 83.3563 19.4099 83.3069C18.0533 83.0863 17.6245 83.1029 17.5132 83.3805C17.3864 83.6978 17.2055 83.712 16.1009 83.4912C15.2388 83.3188 13.548 82.849 13.3807 82.7352C13.3217 82.6952 13.1046 82.6005 12.8982 82.5249C10.2789 81.5638 9.20478 78.5776 10.9348 77.0652C11.1985 76.8348 11.5191 76.447 11.647 76.2033C12.1241 75.2947 12.6873 75.1353 13.7109 75.6194C14.4979 75.9914 14.9936 75.9476 16.0457 75.4131C18.0466 74.3963 18.9009 71.1755 18.0359 67.9097C17.7153 66.6996 17.6845 66.445 17.6773 64.9558L17.6695 63.3261L18.1187 62.4857C18.846 61.1252 17.8619 61.4745 17.0106 62.8792C15.7575 64.9461 15.672 66.6265 16.5105 72.7085C16.5721 73.1544 16.3145 73.461 15.8787 73.461C15.6543 73.461 15.6452 73.4235 15.4184 71.5766C15.3222 70.7923 15.2018 69.8985 15.1506 69.5904C14.6749 66.7195 14.6684 65.4434 15.1254 64.5333C15.3632 64.0597 15.3452 64.0572 13.7994 64.3464C9.94674 65.0673 7.99883 64.2835 7.78332 61.9255C7.70854 61.1071 7.75732 61.09 8.44192 61.6956C10.0789 63.1437 11.5518 63.4312 13.2496 62.6342C14.1489 62.212 14.3414 61.9874 13.8863 61.8922C12.2525 61.5497 11.5711 61.0363 11.5851 60.1578C11.5958 59.4913 11.7161 59.4045 12.5913 59.432C13.3762 59.4567 13.5359 59.375 13.5402 58.9461C13.5507 57.9156 14.7488 57.513 16.7772 57.8586C18.0635 58.0778 17.9877 56.706 16.6997 56.4549C12.9481 55.7231 11.2213 54.9411 10.7766 53.7725C10.4327 52.8693 11.1382 52.2059 11.5183 53.075C11.9595 54.0834 13.5252 54.65 16.5772 54.9057C17.6464 54.995 17.6188 55.0121 17.6907 54.2283C17.8124 52.9049 16.1381 52.0954 13.7437 52.3195C12.9776 52.3913 12.6768 52.2403 12.9912 51.9416C13.2143 51.7297 13.117 51.5749 12.5262 51.2023C10.6683 50.031 9.37607 47.5543 8.93968 44.3294C8.86785 43.7993 8.71988 43.2714 8.55798 42.9681C8.17789 42.2554 8.31272 42.0414 9.09381 42.1181C10.0507 42.2118 10.1105 42.2755 10.1105 43.196C10.1105 46.0157 11.1983 48.7855 12.6377 49.6304C13.1692 49.9426 13.2057 49.8178 12.7666 49.1894C11.3124 47.1087 11.0699 44.7404 12.1096 42.7761C12.4763 42.0835 12.5372 42.1591 12.6055 43.3916C12.7795 46.526 14.8654 48.6304 18.4337 49.2711C18.735 49.3251 18.8725 49.2477 19.79 48.5092C21.1571 47.4086 21.1565 47.4254 19.8324 47.3396C16.6568 47.1334 14.7397 46.2067 14.2505 44.6419C13.7394 43.0063 14.4248 41.2925 15.9741 40.3325L16.6745 39.8986L16.6171 39.1856C16.4946 37.6575 16.0872 37.2839 14.3457 37.1033C9.95478 36.6478 5.77805 34.0354 3.95907 30.6071C2.68638 28.208 2.5813 24.7716 3.69317 21.8918C4.01563 21.0563 4.05745 21.2134 4.01456 23.1001C3.97944 24.6483 4.09068 26.0326 4.32094 26.9116C4.3724 27.1077 4.47319 27.4973 4.54502 27.7774C4.61686 28.0575 4.70639 28.3326 4.74392 28.3886C4.78144 28.4446 4.87392 28.6633 4.94924 28.8745C6.21631 32.4181 10.8841 34.9147 14.7003 34.0901C17.224 33.5449 18.668 30.563 17.2862 28.7507C16.1408 27.2488 14.2213 28.3007 15.3085 29.8345C16.6882 31.7807 15.5599 33.2915 12.8824 33.0838C8.24571 32.7239 5.31727 29.5391 5.00553 24.518C4.84497 21.933 5.96622 20.1098 8.22292 19.2855C9.89474 18.6751 10.3901 17.4923 9.95532 15.148C9.80414 14.3331 9.81191 14.1172 10.0213 13.2626C10.8399 9.92113 12.9154 8.87046 15.4715 10.5038C16.9699 11.4612 18.6259 11.176 20.3671 9.66011C21.1083 9.01484 21.3686 8.599 21.3686 8.06017C21.3686 7.08539 22.5512 5.76988 23.7333 5.42993C23.9954 5.35455 24.3305 5.25626 24.4779 5.21144C24.9698 5.06197 29.0835 5.10169 29.7175 5.26186ZM9.84328 9.83837C10.036 9.97231 10.0371 9.99115 9.86284 10.2203C8.66842 11.7907 8.54538 12.4156 8.71801 16.0438L8.77028 17.1447L8.26715 17.5972C7.73909 18.0724 7.67825 18.0996 7.44907 17.9613C6.82612 17.5862 7.43298 12.5669 8.31272 10.818C8.78475 9.87962 9.36669 9.50707 9.84328 9.83837ZM45.1145 9.97689C45.8953 10.7187 46.3912 12.3293 46.7219 15.1979C47.0423 17.9769 46.8053 18.5653 45.7476 17.616C45.1691 17.0968 45.1898 17.2514 45.3308 14.4849C45.4388 12.3701 45.2214 11.5094 44.2977 10.394C43.7747 9.76248 44.4993 9.39248 45.1145 9.97689ZM21.5492 11.3696C20.7218 11.6568 20.4033 12.1796 20.4041 13.2496C20.4047 13.9303 20.4427 14.0497 21.4468 16.5221C22.2856 18.5867 23.1693 21.4752 23.5044 23.2447C23.5733 23.6089 23.6738 24.136 23.7282 24.4161C23.7823 24.6962 23.8796 25.4067 23.9445 25.9949C24.2504 28.7726 24.2404 28.7402 24.7781 28.7436C26.1103 28.752 26.2806 27.8627 25.9232 22.7594C25.5665 17.6614 25.1698 15.2975 24.3863 13.602C24.2008 13.2005 24.049 12.8417 24.049 12.8045C24.049 11.9802 22.4442 11.0591 21.5492 11.3696ZM31.3794 11.3331C30.9089 11.4671 30.3557 12.0892 29.919 12.9748C29.0562 14.7255 28.7906 15.8592 28.3373 19.7306C28.0387 22.2791 27.8261 27.0015 27.9773 27.7199C28.1153 28.3764 29.0656 28.9274 29.5952 28.6583C29.7732 28.5676 29.8215 28.359 29.9341 27.1974C30.0062 26.452 30.1088 25.59 30.1624 25.2819C30.2158 24.9738 30.3155 24.4008 30.3833 24.0087C30.5313 23.1574 30.8556 21.7512 31.1475 20.6983C31.2638 20.2781 31.3971 19.7968 31.4432 19.6288C31.5919 19.0869 32.2095 17.4273 32.8456 15.86C33.7913 13.5297 33.8878 12.7935 33.3474 12.0316C32.9225 11.433 32.0798 11.1338 31.3794 11.3331ZM12.4157 12.2545C11.0846 12.9945 11.4685 14.2695 13.4343 15.6384C17.1345 18.215 20.7081 22.6845 21.5926 25.8421C21.6396 26.0102 21.7307 26.331 21.7948 26.5551C22.003 27.2819 22.1422 28.1635 22.2116 29.1999C22.2864 30.3127 22.5635 30.711 23.0565 30.414C23.6708 30.044 22.8846 25.2249 21.6956 22.0734C19.7217 16.8427 14.3626 11.1722 12.4157 12.2545ZM40.2226 12.284C37.7873 13.1106 33.8915 17.9626 32.2878 22.1666C31.0092 25.5182 30.3326 30.3677 31.1312 30.4561C31.6177 30.5098 31.7584 30.2243 31.8267 29.0446C32.0374 25.4092 34.4997 20.8286 37.8136 17.9076C39.1415 16.737 39.5254 16.4222 40.233 15.9252C41.2039 15.2432 41.9729 14.5223 42.2085 14.0742C42.8494 12.8536 41.6719 11.7923 40.2226 12.284ZM11.0838 17.4989C10.4861 17.9766 10.726 19.3224 11.5341 20.0252C11.7204 20.1872 12.8502 20.984 14.0449 21.7955C17.7159 24.2893 19.4241 25.7102 20.4022 27.084L20.751 27.5737L20.6861 27.1589C20.3816 25.2045 18.0627 21.916 14.9995 19.0935C12.8939 17.1536 11.9807 16.7818 11.0838 17.4989ZM40.8766 17.5226C39.0563 18.6206 35.5473 22.5302 34.2898 24.8617C33.2983 26.7005 32.9467 28.0858 33.7714 26.9045C34.6804 25.603 36.958 23.7772 40.9361 21.1612C42.7808 19.9481 43.5477 18.9196 43.3016 17.9883C43.0926 17.1969 41.8215 16.9527 40.8766 17.5226ZM8.83756 21.9437C5.58586 22.7612 7.4504 28.9623 11.6124 31.1731C14.1165 32.5034 14.9306 31.5546 13.4324 29.0522C12.8296 28.0456 13.6466 27.07 15.3123 26.8077C17.4634 26.4691 18.7771 27.7795 18.7915 30.2781C18.7966 31.1719 19.0435 31.4087 19.5257 30.9819C19.9704 30.5882 19.8015 28.605 19.2271 27.4775C18.7824 26.6053 17.4481 25.6848 16.222 25.4046C15.0606 25.1393 14.7105 25.0782 14.3548 25.0782C13.7493 25.0782 12.8977 24.657 12.3782 24.1009C10.6568 22.257 9.76152 21.7115 8.83756 21.9437ZM44.4207 21.9486C43.7592 22.1406 42.9808 22.7069 42.0319 23.6873C41.0004 24.7527 40.626 24.9679 39.6023 25.0835C35.7486 25.519 33.8044 27.4971 34.2786 30.5001C34.4552 31.62 35.1452 31.314 35.2495 30.0693C35.4588 27.5651 36.6018 26.4581 38.6355 26.7894C40.7147 27.1281 41.2074 27.9687 40.2928 29.6162C39.0013 31.9424 40.5764 32.4762 43.2944 30.6335C46.7367 28.3 48.0105 23.1813 45.4348 22.0311C44.9056 21.7948 44.9402 21.7976 44.4207 21.9486ZM24.1265 30.7639C23.6306 31.151 23.6237 31.1675 23.6218 31.9653C23.6204 32.5487 23.6805 32.8161 23.9295 33.3371C24.2769 34.0644 24.2608 34.2462 23.8499 34.2439C23.4256 34.2416 23.3577 34.1683 22.8924 33.2108C22.3461 32.0868 21.8728 31.8314 21.2286 32.3127C20.2251 33.0629 20.4631 34.7525 21.7379 35.9261C22.7554 36.8627 23.4323 37.6715 24.0322 38.6669C24.6522 39.6956 24.653 39.6949 24.7334 38.1596C24.8706 35.5391 26.2503 33.2355 27.357 33.7792C28.5255 34.3534 29.2982 36.2327 29.3076 38.5235C29.313 39.8747 29.2714 39.8815 30.193 38.3789C30.5699 37.7639 31.1191 37.1 31.8908 36.3259C33.5423 34.6694 33.8757 33.4713 32.9617 32.478C32.3092 31.769 31.7091 31.9707 31.1891 33.0741C30.6508 34.2162 30.6264 34.2455 30.2104 34.2455C29.7491 34.2455 29.729 34.0725 30.1005 33.3007C30.6173 32.2271 30.5653 31.2304 29.9708 30.8184C29.4808 30.479 29.332 30.4665 28.9953 30.7357C28.5507 31.0911 27.9526 31.0285 27.2388 30.5521C27.0901 30.4527 27.0123 30.4533 26.8636 30.5538C26.2575 30.9641 25.4772 31.082 25.173 30.8087C24.8047 30.4785 24.509 30.4657 24.1265 30.7639ZM26.6958 35.345C25.4319 36.672 25.2848 40.8675 26.4009 43.7466C26.5797 44.2072 26.7772 44.7802 26.84 45.02C26.9721 45.5248 27.1193 45.5026 27.2222 44.9625C27.2619 44.7544 27.4482 44.1716 27.6363 43.6674C28.8021 40.5403 28.6678 36.7692 27.3415 35.3914C27.0751 35.1143 26.9257 35.1036 26.6958 35.345ZM19.0111 36.9646C17.3647 37.2824 17.299 40.3921 18.9288 40.8635C21.5004 41.6073 22.3006 42.1532 23.1278 43.7285C23.5545 44.5411 23.8863 44.7985 24.5583 44.8372C24.6607 44.8431 24.5546 42.6888 24.4267 42.1647C23.6258 38.8843 21.1887 36.5441 19.0111 36.9646ZM33.7296 36.9972C31.6273 37.4089 29.5982 40.5431 29.4374 43.6274C29.3749 44.8258 29.4049 44.8864 29.9676 44.7028C30.5031 44.5278 30.6138 44.4183 30.8564 43.8237C31.4381 42.398 32.4888 41.6208 34.7174 40.9681C35.9622 40.6037 36.3785 39.937 36.2437 38.524C36.1228 37.2584 35.2138 36.7064 33.7296 36.9972ZM17.5113 42.2454C15.6085 42.7522 14.8842 43.8904 15.82 44.9029C16.604 45.7516 17.2034 45.7539 18.1423 44.9123C19.1542 44.0055 19.7302 43.8706 21.2731 44.179C22.3252 44.3893 22.3745 44.2836 21.5948 43.4919C20.3977 42.2762 18.9985 41.8489 17.5113 42.2454ZM34.3957 42.2245C33.5766 42.4843 33.0783 42.7965 32.4789 43.4257C31.6043 44.3437 31.6445 44.4453 32.7719 44.1667C34.0939 43.8403 34.9632 44.0644 35.9705 44.9913C37.4877 46.3872 39.5806 44.4695 38.1028 43.0374C37.3413 42.2991 35.4607 41.8869 34.3957 42.2245ZM6.63688 47.3597C7.04753 48.6269 7.93504 49.6493 9.01474 50.0995C10.6064 50.7628 10.8085 51.9673 9.32889 51.9699C6.29002 51.9752 5.51777 56.2418 8.44433 56.8583C9.46613 57.0735 9.46667 57.1504 8.45049 58.018L7.64796 58.7027L7.10623 58.2212C4.78439 56.1583 4.58443 53.8494 6.5318 51.5925C7.20594 50.8112 7.23597 50.6184 6.82558 49.6994C6.21604 48.3345 6.06084 47.1815 6.48623 47.1815C6.53716 47.1815 6.60498 47.2617 6.63688 47.3597ZM47.6775 47.9599C47.6674 48.5026 47.5864 48.8433 47.3291 49.4247C46.8211 50.5736 46.8587 50.8736 47.6188 51.7358C49.3888 53.7435 49.2164 55.9248 47.1219 58.0202C46.419 58.7236 46.3871 58.7233 45.5342 58.0075C44.7081 57.3144 44.6609 57.0607 45.3321 56.9227C48.534 56.264 47.9255 51.9688 44.6301 51.9688C43.1679 51.9688 43.4413 50.7618 45.0641 50.0544C46.1159 49.5958 46.6689 49.02 47.1658 47.8667C47.5371 47.005 47.695 47.0338 47.6775 47.9599ZM25.4429 47.4285C19.767 48.5421 17.0838 53.798 19.9921 58.1058C20.2773 58.5285 20.3653 58.5896 20.6861 58.5896C21.1884 58.5896 21.2364 58.3839 20.8569 57.8568C17.4215 53.0867 22.5177 46.8082 28.6595 48.2434C33.6106 49.4 35.8885 54.2026 33.1965 57.8084C32.7818 58.3635 32.8386 58.5896 33.3927 58.5896C34.2901 58.5896 35.3001 55.9563 35.1677 53.9612C34.8881 49.7409 30.089 46.5171 25.4429 47.4285ZM25.3451 49.1718C21.6841 50.0185 19.749 53.6263 21.3085 56.6974C21.8779 57.8183 22.3065 58.1565 22.9511 57.9935C23.6834 57.8079 23.7204 57.7294 23.2803 57.2907C19.6222 53.6449 24.5511 48.4079 29.4829 50.7002C32.2133 51.9691 32.7901 55.5433 30.5806 57.499C30.3278 57.7226 30.3809 57.7995 30.9004 57.9645C31.5362 58.1667 31.6898 58.1152 32.1519 57.5456C35.4837 53.4381 30.9599 47.8728 25.3451 49.1718ZM25.7865 51.7483C24.0185 52.3475 23.1286 54.1807 23.8745 55.6867C24.9843 57.9265 28.6938 58.0803 30.0204 55.9413C31.4965 53.5611 28.6769 50.7687 25.7865 51.7483ZM23.647 58.9688C23.1854 59.0233 23.2009 59.0663 23.8917 59.6418C26.0307 61.4241 25.5453 64.406 22.7053 66.9298C21.7655 67.7653 21.6629 67.7149 22.3665 66.7638C24.643 63.6866 24.7344 61.3444 22.6088 60.5731C22.0328 60.364 21.412 60.4682 20.618 60.9067C18.4661 62.0951 18.0619 64.8509 19.4263 69.0301C19.5909 69.5343 19.8085 70.2112 19.9098 70.5343C20.1358 71.2545 20.7453 71.8755 21.3881 72.0401C21.8977 72.1702 21.9293 72.1473 22.1612 71.4747C22.9415 69.2132 24.7996 69.2458 24.7996 71.5208C24.7996 72.4093 25.5756 72.5771 26.469 71.8817C27.0013 71.4673 26.9743 71.4646 27.7915 72.0215C28.6603 72.6133 29.2658 72.2929 29.3058 71.2201C29.3771 69.312 30.9446 69.267 31.7201 71.1508C32.1168 72.1136 32.1626 72.1577 32.643 72.0316C33.4549 71.8188 33.9851 71.1834 34.2786 70.0719C34.3786 69.6925 34.5335 69.1883 34.6225 68.9514C36.2831 64.5354 35.0232 60.4857 31.9892 60.4857C29.4551 60.4857 29.2015 63.2194 31.437 66.4427C32.2457 67.6092 32.2264 67.7561 31.3633 66.997C28.4252 64.4129 27.9867 60.5805 30.4903 59.3663C30.8494 59.1921 30.7588 59.0572 30.2179 58.9604C29.1245 58.7643 28.1799 59.1845 27.8998 59.9912C27.6275 60.775 27.7315 61.6426 28.5496 65.4142C28.9021 67.0388 28.8353 67.3174 27.8484 68.3449C26.9911 69.2372 27.0024 69.2364 26.2454 68.4444C25.2271 67.379 25.0968 66.9222 25.4252 65.5669C26.8041 59.8771 26.4695 58.6362 23.647 58.9688ZM22.5389 61.5899C23.7078 62.1641 23.3567 64.1717 21.9127 65.17C21.5656 65.4098 21.1506 65.7691 20.9906 65.9685C20.5448 66.5239 20.2532 66.4671 20.1061 65.7961C19.704 63.9645 19.6887 63.7806 19.8846 63.1588C20.2216 62.0905 21.7358 61.1954 22.5389 61.5899ZM32.6802 61.6836C34.1113 62.3235 34.4863 63.4478 33.9926 65.6179C33.8283 66.3403 33.3809 66.6319 33.1887 66.1414C33.145 66.0296 32.7097 65.6334 32.2216 65.2609C31.173 64.4605 31.07 64.325 30.9226 63.5529C30.612 61.9258 31.3847 61.104 32.6802 61.6836ZM19.2831 72.1623C19.2601 72.2323 19.2183 72.6647 19.1899 73.1231C19.1215 74.2277 18.8417 74.7044 17.4304 76.1197C16.0971 77.4569 16.032 77.7398 17.1229 77.4541C18.2782 77.1513 18.2884 78.7204 17.1334 79.0627C15.3978 79.5771 15.6926 80.3947 17.8732 81.1159C19.8045 81.7548 21.0415 81.3952 21.0453 80.1941C21.0466 79.7179 21.097 79.5862 21.4222 79.2094C21.6286 78.97 21.7974 78.7286 21.7974 78.6726C21.7974 78.6165 21.8387 78.5557 21.8888 78.5368C22.3252 78.3751 23.0841 75.9354 23.0841 74.695C23.0841 73.2063 21.824 73.0813 21.4267 74.5307C21.1718 75.4597 21.1528 75.4982 20.9488 75.4982C20.729 75.4982 20.4947 75.0207 20.299 74.174C19.9559 72.6897 19.4429 71.6739 19.2831 72.1623ZM34.2486 72.5369C34.1215 72.817 33.891 73.5292 33.7361 74.1195C33.2986 75.7846 32.974 75.9435 32.6336 74.6588C32.3511 73.5929 31.849 73.2842 31.1936 73.7739C30.4259 74.3477 31.2797 77.6945 32.5668 79.1582C32.9035 79.5409 32.9485 79.6593 32.9517 80.1679C32.9584 81.3229 34.1915 81.7428 35.9587 81.1915C38.3167 80.4564 38.6757 79.5732 36.8277 79.0548C35.6606 78.7273 35.7732 77.1918 36.9449 77.4556C37.9761 77.6876 37.8897 77.3746 36.5723 76.1032C35.1747 74.7543 34.9096 74.2845 34.7916 72.9466C34.7037 71.9479 34.5633 71.8417 34.2486 72.5369ZM25.518 73.9025C25.4276 74.0334 25.132 74.6637 24.8607 75.3031C24.5897 75.9428 24.0962 76.9753 23.7644 77.5982C22.931 79.1623 22.8485 79.9965 23.4454 80.8197C23.6781 81.1406 23.8351 81.4793 23.8359 81.6614C23.8397 82.4337 24.0807 82.585 24.8315 82.287C25.9289 81.8513 26.2615 80.8714 25.8208 79.3721C25.5716 78.5236 25.5922 78.1141 26.0471 74.871C26.183 73.9036 25.8887 73.3652 25.518 73.9025ZM28.0722 73.763C27.9591 73.9367 27.9939 75.1266 28.132 75.806C28.3536 76.8967 28.325 79.3222 28.0837 79.8992C27.7127 80.7866 28.1405 81.7579 29.1109 82.2307C29.8633 82.5974 30.1606 82.4686 30.1606 81.7762C30.1606 81.5768 30.3061 81.2353 30.535 80.8977C31.2124 79.8989 31.051 78.6705 30.0531 77.2297C29.956 77.0897 29.718 76.5855 29.5242 76.1093C28.6351 73.9255 28.3091 73.3988 28.0722 73.763ZM12.3198 77.0871C10.4209 79.0655 11.2824 80.9896 14.6606 82.316C16.5692 83.0652 18.7146 82.6321 17.1551 81.8124C14.9324 80.6438 13.8152 79.4704 13.6774 78.1589C13.6445 77.8439 13.5539 77.4984 13.4767 77.3912C13.3582 77.2275 13.3638 77.1511 13.5113 76.914C13.6565 76.6805 13.6627 76.6046 13.5474 76.4724C13.2998 76.189 13.0727 76.3026 12.3198 77.0871ZM40.4536 76.4658C40.3475 76.5873 40.3475 76.6497 40.4528 76.7704C40.5365 76.8661 40.5587 77.0454 40.5134 77.2542C40.4737 77.4368 40.4078 77.8613 40.3665 78.1974C40.21 79.4767 38.6196 81.08 36.6701 81.9239C35.529 82.4179 37.2041 82.9664 38.6381 82.5684C42.1056 81.6063 43.7337 79.0642 41.9802 77.3499C41.7009 77.0767 41.3639 76.7317 41.2318 76.5832C40.9632 76.2817 40.6552 76.2351 40.4536 76.4658ZM31.2628 99.6119C31.5448 99.6328 31.979 99.6325 32.2277 99.6111C32.4765 99.5897 32.246 99.5727 31.7152 99.5729C31.1845 99.5732 30.9808 99.5907 31.2628 99.6119ZM30.1606 99.7405C29.9475 99.8714 30.2152 99.8714 30.5358 99.7405L30.7503 99.6529L30.5358 99.6473C30.4179 99.6442 30.249 99.6862 30.1606 99.7405ZM33.1091 99.7726C34.6177 100.258 35.4888 101.158 36.0378 102.796C36.1598 103.16 36.2828 103.527 36.3109 103.611C36.3393 103.695 36.3661 103.65 36.3707 103.511C36.4187 102.085 34.5289 99.9078 33.0528 99.6896C32.6864 99.6353 32.6875 99.6366 33.1091 99.7726ZM8.61239 99.8897C8.42958 100.099 8.5108 108.23 8.69924 108.602C8.82657 108.853 8.82764 108.852 8.76518 108.551C8.67324 108.108 8.57192 100.406 8.65368 100.096C8.72229 99.8365 8.729 99.835 9.7114 99.864L10.7002 99.8933L10.7595 104.019C10.8222 108.376 10.8712 108.808 11.3706 109.375C12.4911 110.647 14.9804 109.938 14.9282 108.361C14.9239 108.229 14.8678 108.305 14.7858 108.553C14.1701 110.421 11.6998 110.419 11.09 108.551C10.9986 108.271 10.9375 106.858 10.894 104.019C10.8503 101.171 10.794 99.8701 10.712 99.8184C10.4775 99.671 8.75231 99.7295 8.61239 99.8897ZM15.1002 99.8678C15.0767 99.9378 15.0397 101.829 15.0182 104.069C14.9968 106.31 15.0118 108.006 15.0517 107.838C15.0917 107.67 15.1303 105.802 15.1372 103.687L15.1498 99.8423H16.1684H17.187L17.1996 104.044C17.2066 106.355 17.2492 108.108 17.2942 107.94C17.439 107.399 17.4194 100.002 17.2728 99.8627C17.091 99.6901 15.1584 99.6946 15.1002 99.8678ZM19.3528 99.8627C19.1832 100.024 19.1663 111.263 19.3351 111.563C19.4684 111.799 21.2193 111.861 21.4543 111.638C21.5471 111.549 21.583 110.852 21.583 109.142C21.583 107.837 21.5951 106.76 21.6098 106.749C21.6245 106.738 22.5051 106.704 23.5666 106.673L25.4965 106.616L25.5276 105.708C25.545 105.21 25.5209 104.765 25.474 104.72C25.4274 104.676 25.4046 105.071 25.4233 105.6L25.4574 106.56L23.4934 106.588L21.5294 106.616L21.5004 109.001C21.4667 111.797 21.524 111.658 20.4036 111.658C19.2293 111.658 19.3255 112.212 19.3574 105.637L19.385 99.8933H22.548H25.7109V100.81V101.727L23.6202 101.778L21.5294 101.829L21.4996 103.229L21.4696 104.63L23.376 104.608L25.2821 104.586L23.4593 104.532L21.6366 104.477L21.6063 103.263C21.5691 101.772 21.3975 101.883 23.7328 101.881C25.0513 101.88 25.6531 101.843 25.7431 101.757C25.9514 101.559 25.9163 99.8803 25.7021 99.8024C25.3601 99.6776 19.489 99.7333 19.3528 99.8627ZM38.3092 99.8403C38.0532 99.9939 38.02 111.309 38.2747 111.576C38.4861 111.798 40.1049 111.847 40.325 111.638C40.4164 111.551 40.4536 110.933 40.4536 109.507C40.4536 106.972 40.3518 107.176 41.6178 107.175C42.1863 107.174 42.7189 107.133 42.8015 107.083C42.9438 106.997 40.7796 107.041 40.4804 107.13C40.3786 107.16 40.3464 107.695 40.3464 109.352C40.3464 111.248 40.3242 111.542 40.1767 111.596C39.9296 111.686 38.6006 111.669 38.4425 111.573C38.336 111.509 38.3133 110.265 38.3352 105.693L38.3628 99.8933L40.3464 99.8388L42.33 99.7845L40.4 99.7639C39.3267 99.7527 38.3988 99.7866 38.3092 99.8403ZM29.5408 99.9954C27.0247 101.034 26.0723 106.309 27.7846 109.723C29.0147 112.175 32.7668 112.745 34.8367 110.795C35.4572 110.21 36.0373 109.364 35.9043 109.238C35.8708 109.205 35.8432 109.224 35.8432 109.278C35.8432 109.542 34.9219 110.678 34.4212 111.031C32.8049 112.172 30.368 112.108 28.8999 110.887C26.0851 108.546 26.5253 101.477 29.5714 100.104C30.1367 99.8487 30.1118 99.7598 29.5408 99.9954ZM42.8125 99.9793C44.0074 100.313 44.7092 100.858 45.0606 101.726C45.1742 102.007 45.2699 102.155 45.2729 102.057C45.2999 101.187 43.9956 100.069 42.7588 99.9024L42.33 99.8446L42.8125 99.9793ZM31.0867 101.519C30.3806 101.759 29.5017 102.821 29.5255 103.407C29.529 103.491 29.5826 103.446 29.6448 103.306C30.2332 101.98 30.709 101.574 31.6758 101.574C32.7009 101.574 33.1648 101.872 33.6551 102.847C33.7958 103.127 33.9116 103.278 33.9122 103.181C33.9186 102.111 32.2457 101.127 31.0867 101.519ZM40.418 101.846C40.3105 101.947 40.3351 104.862 40.4448 105.027C40.5775 105.226 42.1466 105.123 42.5205 104.89C43.3837 104.353 43.2486 102.288 42.3262 101.922C41.9584 101.776 40.5504 101.72 40.418 101.846ZM42.0842 101.985C43.2797 102.301 43.3365 104.512 42.1592 104.904C41.7649 105.035 40.8981 105.076 40.6233 104.975C40.4054 104.896 40.3681 102.205 40.5823 102.002C40.7399 101.852 41.5457 101.843 42.0842 101.985ZM45.3527 102.949C45.4045 103.604 45.2994 104.486 45.1096 104.986C45.0579 105.123 45.0681 105.157 45.141 105.088C45.4361 104.811 45.5956 103.107 45.3841 102.491C45.331 102.336 45.3187 102.516 45.3527 102.949ZM33.9803 103.815C34.0674 104.385 34.1282 104.467 34.1261 104.01C34.1253 103.819 34.0762 103.593 34.0172 103.509C33.9425 103.403 33.9312 103.494 33.9803 103.815ZM29.3816 103.968C29.3395 104.192 29.3106 104.558 29.317 104.782C29.3272 105.133 29.3422 105.105 29.4248 104.579C29.5349 103.877 29.4974 103.349 29.3816 103.968ZM36.4329 105.75C36.4329 106.765 36.4643 107.49 36.5026 107.361C36.5409 107.231 36.5723 106.506 36.5723 105.75C36.5723 104.994 36.5409 104.269 36.5026 104.14C36.4643 104.01 36.4329 104.735 36.4329 105.75ZM34.0936 106.03C34.0604 106.857 34.0052 107.67 33.9709 107.838C33.9103 108.136 33.9119 108.137 34.0309 107.889C34.151 107.639 34.3158 104.528 34.2089 104.528C34.1789 104.528 34.1269 105.204 34.0936 106.03ZM44.7692 105.644C44.5079 106.079 44.042 106.458 43.3877 106.768C43.1598 106.876 43.0483 106.966 43.14 106.968C43.5772 106.979 45.0641 105.748 45.0641 105.375C45.0641 105.176 45.0338 105.204 44.7692 105.644ZM29.3232 106.667C29.3189 106.919 29.3551 107.309 29.4039 107.533L29.4926 107.94L29.4955 107.584C29.4971 107.388 29.461 106.998 29.4148 106.718L29.3315 106.208L29.3232 106.667ZM36.2844 107.846C36.2777 107.962 36.1943 108.273 36.0992 108.539C36.004 108.804 35.9504 109.044 35.9802 109.072C36.0702 109.158 36.4037 108.03 36.3485 107.825C36.3024 107.654 36.2957 107.656 36.2844 107.846ZM29.584 108.271C30.015 109.979 32.1176 110.643 33.2536 109.431C33.5428 109.122 33.9146 108.468 33.9106 108.275C33.909 108.203 33.7843 108.373 33.6334 108.653C32.6676 110.447 30.5168 110.347 29.7845 108.475C29.5751 107.94 29.4744 107.837 29.584 108.271ZM17.0396 108.717C16.9503 109.141 17.0369 109.224 17.1334 108.806C17.1741 108.63 17.1851 108.464 17.1578 108.439C17.1304 108.413 17.0774 108.538 17.0396 108.717ZM8.82898 109.046C8.82121 109.334 9.46479 110.417 9.89849 110.846C11.372 112.302 14.3867 112.318 15.9379 110.878C16.3762 110.471 16.9707 109.571 16.9702 109.315C16.9699 109.231 16.8254 109.437 16.6485 109.774C16.3126 110.413 15.5417 111.167 14.989 111.398C14.1299 111.756 13.8616 111.811 12.9518 111.811C11.7663 111.811 11.0822 111.597 10.2378 110.963C9.72936 110.581 9.31522 110.019 9.02385 109.315C8.91931 109.063 8.83166 108.942 8.82898 109.046Z" fill="#707A81"/>
<path fill-rule="evenodd" clip-rule="evenodd" d="M22.0285 3.43679C21.1335 3.80577 20.3339 4.67106 19.4901 6.18366C18.7575 7.49687 18.5889 7.63183 18.0335 7.34917C17.8684 7.26539 17.7427 7.28806 17.465 7.45103C17.2688 7.56639 16.9401 7.66061 16.7346 7.66061C16.0505 7.66061 15.6859 7.84446 15.6859 8.18951C15.6859 9.07262 16.827 9.58395 18.1118 9.27659C18.5602 9.16913 19.7603 8.29111 19.7603 8.07008C19.7603 8.02653 19.9292 7.72452 20.1356 7.39883C20.342 7.07314 20.5108 6.74388 20.5108 6.66723C20.5108 5.58677 22.455 3.78998 23.6242 3.78998C23.9569 3.78998 23.8692 3.51573 23.4969 3.39248C23.0391 3.24071 22.4609 3.25828 22.0285 3.43679ZM30.4554 3.39299C30.0992 3.52388 30.0635 3.78947 30.4018 3.79151C31.6525 3.7994 32.8073 4.84855 33.4994 6.60586C34.2561 8.52742 35.4478 9.49559 36.8878 9.35859C38.5583 9.19969 38.9145 7.66061 37.2808 7.66061C37.0867 7.66061 36.7653 7.5697 36.5669 7.45842C36.2547 7.28347 36.1595 7.27278 35.8612 7.37973C35.3607 7.55926 35.2337 7.44339 34.503 6.14342C33.222 3.86459 31.8 2.89821 30.4554 3.39299ZM24.4779 5.21167C24.3305 5.25649 23.9955 5.35478 23.7333 5.43016C22.5512 5.77011 21.3686 7.08561 21.3686 8.0604C21.3686 8.59923 21.1083 9.01507 20.3672 9.66034C18.6259 11.1763 16.9699 11.4615 15.4715 10.504C12.9154 8.87068 10.8399 9.92136 10.0213 13.2628C9.81193 14.1174 9.80416 14.3334 9.95534 15.1482C10.3901 17.4925 9.89476 18.6753 8.22294 19.2857C5.96624 20.11 4.84499 21.9333 5.00555 24.5182C5.31729 29.5393 8.24572 32.7242 12.8824 33.084C15.56 33.2918 16.6882 31.781 15.3085 29.8347C14.2213 28.301 16.1408 27.249 17.2862 28.7509C18.668 30.5632 17.224 33.5451 14.7003 34.0903C10.8841 34.9149 6.21632 32.4183 4.94926 28.8747C4.87394 28.6636 4.78146 28.4448 4.74393 28.3888C4.70641 28.3328 4.61688 28.0578 4.54504 27.7777C4.4732 27.4976 4.37242 27.1079 4.32095 26.9119C4.0907 26.0328 3.97946 24.6486 4.01457 23.1003C4.05746 21.2136 4.01564 21.0565 3.69318 21.892C0.916198 29.0848 5.91959 36.2294 14.3457 37.1036C16.0872 37.2841 16.4946 37.6577 16.6171 39.1858L16.6745 39.8988L15.9741 40.3327C14.4248 41.2928 13.7394 43.0065 14.2505 44.6421C14.7397 46.2069 16.6568 47.1336 19.8324 47.3398C21.1566 47.4257 21.1571 47.4089 19.79 48.5094C18.8725 49.2479 18.735 49.3253 18.4337 49.2713C14.8655 48.6306 12.7795 46.5262 12.6055 43.3918C12.5372 42.1593 12.4763 42.0837 12.1096 42.7763C11.0699 44.7407 11.3125 47.1089 12.7666 49.1896C13.2057 49.8181 13.1692 49.9428 12.6377 49.6306C11.1983 48.7857 10.1105 46.0159 10.1105 43.1962C10.1105 42.2757 10.0508 42.212 9.09383 42.1183C8.31273 42.0417 8.17791 42.2556 8.558 42.9683C8.7199 43.2716 8.86786 43.7995 8.9397 44.3297C9.37608 47.5545 10.6683 50.0312 12.5262 51.2026C13.117 51.5751 13.2143 51.7299 12.9913 51.9418C12.6768 52.2405 12.9776 52.3915 13.7437 52.3197C16.1381 52.0956 17.8124 52.9051 17.6907 54.2285C17.6188 55.0123 17.6465 54.9953 16.5772 54.9059C13.5252 54.6502 11.9595 54.0836 11.5183 53.0752C11.1382 52.2061 10.4327 52.8695 10.7766 53.7727C11.2213 54.9413 12.9481 55.7233 16.6997 56.4552C17.4157 56.5947 17.6159 56.7854 17.6159 57.3273C17.6159 57.8697 17.4519 57.9736 16.7772 57.8588C14.7488 57.5132 13.5507 57.9158 13.5402 58.9464C13.5359 59.3752 13.3762 59.4569 12.5913 59.4322C11.7161 59.4047 11.5958 59.4916 11.5851 60.158C11.5711 61.0365 12.2525 61.5499 13.8863 61.8924C14.3414 61.9876 14.149 62.2122 13.2497 62.6344C11.5518 63.4315 10.0789 63.144 8.44193 61.6958C7.75734 61.0902 7.70855 61.1073 7.78334 61.9257C7.99885 64.2837 9.94676 65.0676 13.7994 64.3466C15.3453 64.0574 15.3632 64.0599 15.1255 64.5336C14.6684 65.4437 14.6749 66.7197 15.1507 69.5906C15.2019 69.8987 15.3222 70.7925 15.4184 71.5768C15.6452 73.4238 15.6543 73.4612 15.8787 73.4612C16.3145 73.4612 16.5721 73.1546 16.5105 72.7087C15.672 66.6267 15.7575 64.9463 17.0106 62.8794C17.862 61.4747 18.846 61.1254 18.1188 62.486L17.6695 63.3263L17.6773 64.956C17.6845 66.4452 17.7153 66.6998 18.0359 67.9099C18.9009 71.1758 18.0467 74.3965 16.0457 75.4133C14.9936 75.9478 14.498 75.9916 13.711 75.6196C12.6873 75.1355 12.1241 75.2949 11.647 76.2035C11.5191 76.4472 11.1985 76.835 10.9348 77.0655C9.2048 78.5778 10.2789 81.564 12.8982 82.5251C13.1046 82.6007 13.3218 82.6954 13.3807 82.7354C13.548 82.8492 15.2388 83.3191 16.1009 83.4915C17.2055 83.7122 17.3864 83.698 17.5132 83.3807C17.6245 83.1031 18.0534 83.0866 19.4099 83.3071C19.7139 83.3565 19.7705 83.329 19.8683 83.0851C20.0937 82.5218 21.583 82.9633 21.583 83.5936C21.583 84.2691 24.943 84.2781 25.9651 83.6053C26.58 83.2004 27.516 83.2261 28.1727 83.6659L28.6574 83.9903L30.4729 84.0351L32.2883 84.0802L32.4226 83.6542C32.6706 82.8678 33.6991 82.5335 34.1773 83.0835C34.3882 83.3265 34.4212 83.3318 35.1463 83.2396C36.371 83.0843 36.4509 83.0955 36.5222 83.4349C36.568 83.6527 36.6361 83.7217 36.7768 83.6929C36.8827 83.6715 37.3791 83.5788 37.8804 83.4869C41.8971 82.7505 44.005 81.1459 43.8595 78.9353C43.7941 77.9442 43.5014 77.2618 43.0328 77.0089C42.8572 76.9139 42.5983 76.6155 42.4485 76.3346C42.1359 75.7482 41.6167 75.2947 41.2583 75.2947C40.9597 75.2947 40.0784 75.6389 39.9765 75.7955C39.6259 76.3346 37.4743 75.3433 36.6784 74.2761C35.7684 73.0555 35.3653 69.9766 35.8853 68.2155C36.6144 65.7462 36.5621 63.6474 35.7341 62.1361C35.2133 61.1852 36.1638 61.6398 36.8728 62.6802C38.0913 64.4691 38.3095 66.435 37.7694 70.762C37.7136 71.2101 37.6303 71.8748 37.5844 72.2389C37.4748 73.108 37.5008 73.1936 37.9369 73.3912C38.3814 73.5923 38.3353 73.7125 38.5765 71.7296C38.6687 70.9733 38.836 69.8045 38.9483 69.1322C39.3407 66.7859 39.3246 65.4151 38.8944 64.5537C38.6392 64.0431 38.6615 64.0393 40.1647 64.3388C43.9868 65.0996 46.0878 64.2639 46.2266 61.927C46.2716 61.1715 46.2011 61.1004 45.8066 61.504C44.1605 63.1883 41.6591 63.5422 40.1596 62.3034L39.7567 61.9703L40.0784 61.901C41.9563 61.4959 42.639 60.8954 42.4056 59.8552L42.3158 59.4557L41.6446 59.4806C40.8029 59.5119 40.5989 59.408 40.4467 58.8707C40.1958 57.9853 39.3932 57.5728 38.2184 57.7253C37.8849 57.7686 37.347 57.8091 37.0226 57.815L36.4329 57.8259L36.3983 57.4829C36.3319 56.8234 36.5297 56.5917 37.2714 56.459C41.4859 55.7045 43.567 54.5545 43.2866 53.1348C43.1446 52.4149 42.7484 52.4399 42.4147 53.1898C41.9987 54.1254 39.5042 54.923 36.9945 54.923H36.404L36.3297 54.3587C36.1456 52.9573 37.7734 52.1078 40.2773 52.2988C41.042 52.3571 41.2468 52.2991 41.0929 52.0681C40.8723 51.7371 40.997 51.5109 41.625 51.1033C43.4258 49.9339 44.7679 47.2352 45.1204 44.075C45.1579 43.7389 45.2657 43.35 45.3597 43.2108C45.6187 42.8278 45.7122 42.2143 45.5224 42.1451C44.8499 41.8998 43.9916 42.2512 43.993 42.7712C43.9997 45.3355 43.1226 48.0144 41.8896 49.1934C41.0712 49.9762 40.567 50.1091 41.142 49.3903C42.7136 47.4264 43.0052 44.5634 41.8325 42.6128C41.4706 42.0114 41.4192 42.0755 41.4149 43.1328C41.4023 46.2556 39.0354 48.803 35.7215 49.2609L35.2248 49.3296L34.1939 48.485C32.9105 47.433 32.9105 47.4272 34.2081 47.3376C36.3193 47.1916 38.0377 46.6706 38.9354 45.9036C40.715 44.3837 39.902 40.8787 37.5751 40.0381C37.0079 39.8334 37.5914 37.6946 38.3092 37.3478C38.4567 37.2765 39.108 37.1649 39.7567 37.0995C44.1428 36.6582 48.42 33.8988 50.1806 30.3751C51.3881 27.9577 51.3927 24.1268 50.191 21.546C49.8916 20.9032 49.8656 21.014 49.9777 22.4545C50.5073 29.2727 47.0632 33.8601 41.1487 34.2149C38.394 34.3799 36.8084 33.2874 36.2777 30.8586C35.8641 28.9658 37.6874 27.2656 38.8979 28.4155C39.2329 28.7339 39.2343 28.8907 38.9059 29.4621C38.2629 30.5826 38.2069 30.7328 38.2047 31.3427C38.1994 33.0555 40.2521 33.6078 43.2413 32.6979C49.414 30.8189 51.3396 21.0117 45.8701 19.3094C44.1988 18.7892 43.5989 17.2727 44.1187 14.8824C44.2511 14.273 44.1835 13.7826 43.804 12.6007C42.9135 9.8279 41.0098 9.01583 38.6781 10.4146C36.8763 11.4956 35.3299 11.2254 33.5222 9.51367C32.8708 8.89691 32.7341 8.71077 32.7349 8.44313C32.7397 7.01737 31.503 5.71358 29.7175 5.26209C29.0836 5.10192 24.9698 5.06219 24.4779 5.21167ZM8.86545 10.0288C7.51314 11.4184 6.53396 18.028 7.67746 18.0486C7.72517 18.0494 7.99054 17.8465 8.26716 17.5974L8.77029 17.1449L8.71802 16.0441C8.5454 12.4159 8.66843 11.791 9.86286 10.2206C10.2732 9.68097 9.37259 9.50781 8.86545 10.0288ZM44.1586 9.85948C44.0034 10.0069 44.0155 10.0535 44.2977 10.3942C45.2214 11.5096 45.4388 12.3703 45.3308 14.4851C45.1898 17.2516 45.1692 17.097 45.7476 17.6163C46.8053 18.5656 47.0423 17.9771 46.722 15.1981C46.2665 11.2493 45.148 8.91958 44.1586 9.85948ZM23.0106 11.5152C23.2763 11.6636 24.0491 12.6234 24.0491 12.8047C24.0491 12.8419 24.2008 13.2007 24.3863 13.6023C25.1698 15.2977 25.5665 17.6616 25.9233 22.7596C26.2806 27.863 26.1104 28.7522 24.7782 28.7438C24.2405 28.7405 24.2504 28.7728 23.9445 25.9951C23.8797 25.4069 23.7824 24.6964 23.7282 24.4163C23.6738 24.1362 23.5733 23.6091 23.5044 23.245C23.1693 21.4754 22.2856 18.587 21.4468 16.5223C20.4427 14.0499 20.4047 13.9305 20.4041 13.2498C20.4028 11.63 21.6878 10.7749 23.0106 11.5152ZM32.7872 11.519C33.9336 12.1472 33.947 13.1462 32.8456 15.8602C32.2095 17.4276 31.592 19.0871 31.4432 19.629C31.3971 19.797 31.2639 20.2783 31.1475 20.6985C30.8556 21.7515 30.5313 23.1576 30.3833 24.0089C30.3155 24.4011 30.2158 24.974 30.1625 25.2821C30.1088 25.5902 30.0062 26.4522 29.9341 27.1976C29.788 28.7071 29.718 28.823 29.0275 28.6997C27.872 28.494 27.7511 27.7792 28.0695 23.0374C28.362 18.6791 28.7648 15.8948 29.3277 14.3367C30.2927 11.6659 31.4038 10.7609 32.7872 11.519ZM14.4157 12.5664C16.7112 13.7286 20.3302 18.4548 21.6956 22.0736C22.8847 25.2251 23.6708 30.0443 23.0565 30.4143C22.5635 30.7112 22.2864 30.3129 22.2116 29.2001C22.1422 28.1637 22.003 27.2821 21.7948 26.5554C21.7307 26.3313 21.6396 26.0104 21.5927 25.8423C20.7081 22.6847 17.1345 18.2152 13.4343 15.6387C11.4685 14.2697 11.0846 12.9947 12.4158 12.2547C12.7768 12.054 13.6823 12.1951 14.4157 12.5664ZM41.629 12.2931C43.0374 12.985 42.5265 14.3143 40.233 15.9254C39.5254 16.4225 39.1415 16.7372 37.8136 17.9078C35.5065 19.9417 33.0244 23.7163 32.3286 26.2498C31.9447 27.6475 31.8903 27.9508 31.8268 29.0448C31.7584 30.2246 31.6177 30.51 31.1312 30.4563C30.5101 30.3875 30.8168 26.8839 31.7059 23.8915C33.5468 17.696 39.193 11.0965 41.629 12.2931ZM13.0041 17.4385C15.3997 18.5994 20.3232 24.8294 20.6861 27.1591L20.751 27.5739L20.4023 27.0843C19.4242 25.7104 17.7159 24.2895 14.045 21.7958C11.009 19.7334 10.7616 19.4693 10.7563 18.2885C10.752 17.3219 11.8821 16.8946 13.0041 17.4385ZM42.9532 17.4813C43.9163 18.329 43.1682 19.6937 40.9361 21.1614C36.958 23.7774 34.6804 25.6032 33.7715 26.9047C32.9467 28.086 33.2984 26.7008 34.2899 24.862C35.5473 22.5304 39.0563 18.6208 40.8766 17.5228C41.5301 17.1286 42.5302 17.1087 42.9532 17.4813ZM10.3786 22.2788C10.7986 22.5123 11.4457 23.1021 12.3782 24.1011C12.8977 24.6572 13.7493 25.0784 14.3548 25.0784C14.7105 25.0784 15.0606 25.1395 16.222 25.4049C17.4481 25.685 18.7824 26.6055 19.2271 27.4777C19.8016 28.6053 19.9704 30.5884 19.5257 30.9821C19.0435 31.4089 18.7967 31.1721 18.7916 30.2783C18.7771 27.7797 17.4634 26.4693 15.3123 26.808C13.6466 27.0703 12.8296 28.0458 13.4325 29.0524C14.4626 30.7733 14.4913 31.4563 13.5434 31.6987C12.5345 31.9569 10.4075 30.6903 8.91209 28.9409C6.04451 25.5867 7.16602 20.4927 10.3786 22.2788ZM45.4348 22.0313C48.0105 23.1816 46.7367 28.3002 43.2944 30.6338C40.5764 32.4764 39.0014 31.9427 40.2928 29.6165C41.2074 27.9689 40.7147 27.1283 38.6355 26.7896C36.6018 26.4583 35.4588 27.5653 35.2495 30.0695C35.1452 31.3142 34.4553 31.6203 34.2786 30.5003C33.8044 27.4973 35.7486 25.5192 39.6023 25.0838C40.626 24.9681 41.0005 24.753 42.0319 23.6875C42.9808 22.7071 43.7592 22.1408 44.4208 21.9488C44.9402 21.7978 44.9057 21.795 45.4348 22.0313ZM25.173 30.809C25.4772 31.0822 26.2575 30.9643 26.8636 30.5541C27.0123 30.4535 27.0901 30.453 27.2388 30.5523C27.9527 31.0287 28.5507 31.0914 28.9954 30.7359C29.332 30.4667 29.4808 30.4792 29.9708 30.8186C30.5653 31.2307 30.6173 32.2274 30.1005 33.3009C29.729 34.0728 29.7491 34.2457 30.2104 34.2457C30.6264 34.2457 30.6508 34.2164 31.1891 33.0743C31.7091 31.9709 32.3093 31.7692 32.9617 32.4782C33.8757 33.4716 33.5423 34.6697 31.8908 36.3261C31.1191 37.1003 30.5699 37.7641 30.193 38.3791C29.2715 39.8818 29.313 39.8749 29.3076 38.5237C29.2983 36.2329 28.5255 34.3536 27.3571 33.7794C26.2503 33.2358 24.8706 35.5393 24.7334 38.1598C24.653 39.6951 24.6522 39.6959 24.0322 38.6671C23.4323 37.6717 22.7555 36.8629 21.738 35.9263C20.4631 34.7527 20.2251 33.0631 21.2287 32.3129C21.8728 31.8316 22.3462 32.087 22.8924 33.211C23.3578 34.1685 23.4256 34.2419 23.8499 34.2441C24.2608 34.2464 24.2769 34.0646 23.9295 33.3374C23.621 32.6918 23.4894 31.4171 23.7022 31.1375C24.1571 30.5398 24.7302 30.4117 25.173 30.809ZM27.3415 35.3916C28.6678 36.7695 28.8021 40.5405 27.6364 43.6676C27.4482 44.1718 27.2619 44.7547 27.2222 44.9627C27.1193 45.5028 26.9721 45.525 26.84 45.0203C26.7773 44.7804 26.5797 44.2074 26.4009 43.7468C25.4641 41.3302 25.3767 37.9268 26.2071 36.1871C26.7068 35.14 26.9413 34.9757 27.3415 35.3916ZM20.7491 37.1604C23.0629 38.2971 24.5852 40.9424 24.5852 43.8267C24.5852 44.3834 24.5731 44.8382 24.5584 44.8374C23.8864 44.7987 23.5545 44.5413 23.1278 43.7287C22.3006 42.1535 21.5005 41.6075 18.9288 40.8637C17.2991 40.3923 17.3647 37.2826 19.0111 36.9648C19.4175 36.8864 20.4213 36.9992 20.7491 37.1604ZM35.4143 37.1043C36.1003 37.3587 36.4498 38.5668 36.1643 39.6971C35.985 40.4068 35.6604 40.6923 34.7174 40.9683C32.4888 41.621 31.4381 42.3982 30.8564 43.8239C30.6138 44.4185 30.5031 44.528 29.9676 44.703C29.4049 44.8866 29.3749 44.826 29.4374 43.6276C29.6524 39.5046 32.7556 36.1181 35.4143 37.1043ZM20.2953 42.5039C21.0094 42.8655 22.31 44.0872 22.1465 44.2426C22.0891 44.2971 21.735 44.2716 21.2732 44.1792C19.7303 43.8708 19.1542 44.0058 18.1423 44.9126C17.2034 45.7542 16.604 45.7519 15.82 44.9031C14.2361 43.1894 17.837 41.2591 20.2953 42.5039ZM37.0634 42.4073C38.8322 43.0503 39.141 44.6452 37.6314 45.3396C36.8977 45.677 36.6618 45.6276 35.9705 44.9915C34.9632 44.0646 34.0939 43.8405 32.7719 44.1669C31.6445 44.4455 31.6043 44.3439 32.4789 43.4259C33.7012 42.1428 35.3366 41.7794 37.0634 42.4073ZM6.3222 47.2497C6.10187 47.459 6.33775 48.607 6.8256 49.6996C7.23598 50.6187 7.20596 50.8114 6.53182 51.5927C4.58444 53.8496 4.78441 56.1585 7.10624 58.2214L7.64797 58.7029L8.45051 58.0182C9.46668 57.1506 9.46614 57.0737 8.44434 56.8585C5.51779 56.242 6.29004 51.9754 9.3289 51.9701C10.8085 51.9675 10.6064 50.7631 9.01475 50.0997C7.93505 49.6495 7.04754 48.6271 6.63689 47.36C6.57712 47.1761 6.44738 47.1305 6.3222 47.2497ZM47.1659 47.867C46.6689 49.0203 46.1159 49.596 45.0641 50.0546C43.4413 50.762 43.1679 51.9691 44.6301 51.9691C46.2148 51.9691 47.4229 53.1682 47.4229 54.7411C47.4229 55.9596 46.7866 56.6235 45.3321 56.9229C44.6609 57.061 44.7081 57.3146 45.5342 58.0077C46.3872 58.7235 46.4191 58.7238 47.1219 58.0205C49.2164 55.925 49.3888 53.7437 47.6189 51.7361C46.8587 50.8738 46.8211 50.5739 47.3291 49.4249C47.5864 48.8435 47.6674 48.5028 47.6776 47.9602C47.695 47.034 47.5371 47.0052 47.1659 47.867ZM29.1956 47.5502C33.1903 48.5219 35.7564 52.0073 35.1026 55.5736C34.8332 57.0439 33.9567 58.5899 33.3927 58.5899C32.8386 58.5899 32.7818 58.3637 33.1965 57.8086C36.2506 53.7177 32.7397 48.1231 27.1048 48.102C23.877 48.09 21.3281 49.6467 20.1063 52.3765C19.385 53.9879 19.6938 56.242 20.8569 57.857C21.2364 58.3841 21.1885 58.5899 20.6861 58.5899C20.1222 58.5899 19.2757 57.2125 18.9543 55.7719C17.8121 50.6505 23.4234 46.1458 29.1956 47.5502ZM28.6595 49.1664C32.8341 50.2204 34.6193 54.5038 32.1519 57.5458C31.6898 58.1155 31.5362 58.1669 30.9004 57.9647C30.3809 57.7997 30.3278 57.7228 30.5806 57.4992C32.7901 55.5435 32.2133 51.9693 29.4829 50.7004C24.5511 48.4081 19.6222 53.6451 23.2803 57.2909C23.7204 57.7297 23.6834 57.8081 22.9511 57.9937C21.7315 58.3024 20.4677 55.7605 20.8067 53.6805C21.3276 50.4834 25.1572 48.2823 28.6595 49.1664ZM28.4987 51.855C30.2209 52.581 30.9277 54.4788 30.0204 55.9415C28.4062 58.5443 23.6269 57.5641 23.6213 54.6291C23.617 52.3492 26.1943 50.8832 28.4987 51.855ZM25.2558 59.0569C26.4993 59.6202 26.5349 60.9881 25.4252 65.5672C25.0969 66.9224 25.2271 67.3792 26.2455 68.4447C27.0024 69.2366 26.9912 69.2374 27.8484 68.3451C28.8353 67.3176 28.9021 67.039 28.5496 65.4144C27.7315 61.6428 27.6275 60.7752 27.8999 59.9914C28.18 59.1847 29.1246 58.7645 30.2179 58.9606C30.7589 59.0574 30.8495 59.1924 30.4903 59.3665C27.9867 60.5807 28.4252 64.4131 31.3633 66.9973C32.2264 67.7564 32.2457 67.6094 31.437 66.4429C29.2015 63.2196 29.4551 60.486 31.9892 60.486C35.0232 60.486 36.2831 64.5356 34.6225 68.9517C34.5335 69.1885 34.3786 69.6927 34.2786 70.0721C33.9851 71.1836 33.4549 71.819 32.643 72.0319C32.1626 72.1579 32.1168 72.1139 31.7201 71.151C30.9446 69.2672 29.3771 69.3122 29.3058 71.2203C29.2658 72.2931 28.6603 72.6135 27.7916 72.0217C26.9743 71.4648 27.0014 71.4676 26.469 71.8819C25.5756 72.5773 24.7996 72.4095 24.7996 71.521C24.7996 69.246 22.9415 69.2134 22.1612 71.475C21.9293 72.1475 21.8977 72.1704 21.3881 72.0403C20.7454 71.8758 20.1358 71.2547 19.9099 70.5346C19.8085 70.2114 19.5909 69.5346 19.4263 69.0303C18.0619 64.8511 18.4661 62.0953 20.618 60.9069C21.412 60.4684 22.0328 60.3642 22.6088 60.5733C24.7345 61.3446 24.6431 63.6869 22.3665 66.764C21.6629 67.7151 21.7656 67.7655 22.7053 66.93C25.5453 64.4062 26.0308 61.4243 23.8917 59.6421C23.201 59.0666 23.1854 59.0235 23.647 58.969C24.4278 58.8771 24.9181 58.9038 25.2558 59.0569ZM21.2903 61.707C20.3626 62.1335 19.7603 62.983 19.7603 63.8651C19.7603 64.1577 19.8217 64.4999 20.1061 65.7963C20.2532 66.4673 20.5449 66.5241 20.9906 65.9687C21.1507 65.7694 21.5656 65.41 21.9127 65.1702C22.6986 64.6268 22.9099 64.3698 23.0669 63.765C23.5221 62.0143 22.6981 61.0599 21.2903 61.707ZM31.4834 61.6054C30.9519 61.8544 30.7393 62.5929 30.9226 63.5532C31.0701 64.3253 31.173 64.4607 32.2216 65.2611C32.7097 65.6336 33.145 66.0299 33.1887 66.1416C33.2464 66.2886 33.3477 66.3359 33.5551 66.3125C34.092 66.2519 34.4207 63.5394 33.9832 62.7775C33.4455 61.8404 32.2141 61.2631 31.4834 61.6054ZM19.6356 72.2134C19.8013 72.5172 20.1632 73.5865 20.2991 74.1742C20.4947 75.0209 20.729 75.4984 20.9488 75.4984C21.1528 75.4984 21.1718 75.4599 21.4267 74.531C21.824 73.0815 23.0841 73.2066 23.0841 74.6952C23.0841 75.9356 22.3252 78.3754 21.8889 78.5371C21.8387 78.5559 21.7975 78.6168 21.7975 78.6728C21.7975 78.7288 21.6286 78.9702 21.4222 79.2096C21.097 79.5865 21.0467 79.7181 21.0453 80.1943C21.0416 81.3955 19.8045 81.755 17.8732 81.1161C15.6926 80.395 15.3978 79.5773 17.1334 79.0629C18.2884 78.7207 18.2782 77.1515 17.123 77.4543C16.032 77.74 16.0971 77.4571 17.4304 76.12C18.8417 74.7046 19.1215 74.2279 19.1899 73.1233C19.2593 71.998 19.3818 71.7482 19.6356 72.2134ZM34.7917 72.9468C34.9096 74.2847 35.1747 74.7545 36.5723 76.1034C37.8898 77.3749 37.9761 77.6878 36.9449 77.4558C35.7732 77.192 35.6607 78.7275 36.8278 79.055C38.6757 79.5735 38.3168 80.4566 35.9587 81.1918C34.1915 81.7431 32.9585 81.3232 32.9518 80.1681C32.9485 79.6595 32.9035 79.5411 32.5669 79.1584C31.2797 77.6947 30.4259 74.3479 31.1936 73.7742C31.849 73.2845 32.3511 73.5931 32.6336 74.6591C32.974 75.9437 33.2986 75.7849 33.7361 74.1197C34.3043 71.9552 34.6689 71.5503 34.7917 72.9468ZM26.0415 74.0308C26.0811 74.232 26.0838 74.6102 26.0471 74.8712C25.5922 78.1143 25.5716 78.5238 25.8209 79.3723C26.2615 80.8717 25.9289 81.8515 24.8315 82.2872C24.0807 82.5852 23.8397 82.4339 23.836 81.6616C23.8352 81.4795 23.6781 81.1408 23.4454 80.82C22.8485 79.9967 22.931 79.1625 23.7644 77.5984C24.0962 76.9756 24.5897 75.943 24.8607 75.3033C25.5871 73.5906 25.89 73.2639 26.0415 74.0308ZM28.463 73.8432C28.6362 74.038 28.9785 74.7696 29.5242 76.1095C29.718 76.5857 29.9561 77.0899 30.0531 77.23C31.051 78.6708 31.2124 79.8992 30.535 80.8979C30.3061 81.2355 30.1606 81.577 30.1606 81.7764C30.1606 82.4688 29.8633 82.5977 29.1109 82.231C28.1406 81.7581 27.7128 80.7869 28.0837 79.8994C28.325 79.3224 28.3537 76.8969 28.132 75.8062C27.8377 74.3583 28.0106 73.3339 28.463 73.8432ZM13.5475 76.4726C13.6627 76.6048 13.6565 76.6807 13.5113 76.9142C13.3638 77.1513 13.3582 77.2277 13.4767 77.3914C13.5539 77.4986 13.6445 77.8442 13.6775 78.1592C13.8152 79.4706 14.9325 80.644 17.1551 81.8126C18.7146 82.6323 16.5692 83.0654 14.6607 82.3163C12.5211 81.4762 11.276 80.2246 11.2948 78.9323C11.3101 77.8661 13.0781 75.9356 13.5475 76.4726ZM41.2318 76.5834C41.3639 76.7319 41.7009 77.0769 41.9802 77.3502C43.7338 79.0644 42.1056 81.6066 38.6381 82.5686C37.2041 82.9666 35.5291 82.4181 36.6701 81.9241C38.6197 81.0802 40.21 79.477 40.3665 78.1976C40.4078 77.8615 40.4737 77.437 40.5134 77.2544C40.5587 77.0456 40.5365 76.8663 40.4528 76.7706C40.3475 76.6499 40.3475 76.5875 40.4536 76.466C40.6552 76.2353 40.9632 76.2819 41.2318 76.5834ZM30.4286 99.7509C28.1609 100.505 27.0512 102.46 27.0512 105.699C27.0515 109.681 28.6539 111.777 31.7153 111.802C34.7721 111.827 36.4887 109.652 36.4857 105.757C36.4836 102.806 35.4923 100.775 33.6691 99.9867C32.9298 99.6671 31.0848 99.5327 30.4286 99.7509ZM8.65369 100.096C8.49742 100.688 8.6821 108.217 8.86867 108.851C9.20828 110.008 10.029 111.029 10.9147 111.398C11.7652 111.753 12.0448 111.811 12.8982 111.811C15.0654 111.811 16.4737 110.782 17.0313 108.793C17.1522 108.361 17.1849 107.36 17.1857 104.044L17.187 99.8426H16.1684H15.1498V103.586C15.1496 108.532 15.0228 109.201 13.9686 109.811C13.4408 110.117 12.3683 110.115 11.8963 109.808C10.8696 109.14 10.8302 108.939 10.7595 104.019L10.7002 99.8935L9.71141 99.8642C8.72901 99.8352 8.72231 99.8367 8.65369 100.096ZM19.4046 99.909C19.2647 100.042 19.3188 111.402 19.4601 111.536C19.6434 111.71 21.1992 111.699 21.3533 111.523C21.4302 111.435 21.482 110.552 21.5005 109.002L21.5294 106.616L23.4902 106.588L25.451 106.561L25.4201 105.621L25.3893 104.681L23.4296 104.653L21.4699 104.625L21.4997 103.227L21.5294 101.829L23.6202 101.778L25.711 101.727V100.81V99.8935L22.5944 99.8665C20.8802 99.8517 19.4448 99.8708 19.4046 99.909ZM38.3808 99.9105C38.2058 100.077 38.302 111.532 38.4789 111.596C38.7234 111.685 40.0545 111.67 40.2103 111.575C40.3062 111.518 40.3499 110.903 40.3711 109.311L40.4 107.125L41.6331 107.062C44.2093 106.928 45.3163 105.83 45.3163 103.408C45.3163 101.4 44.6065 100.448 42.7634 99.9818C42.1997 99.8392 38.5189 99.7791 38.3808 99.9105ZM32.3827 101.524C33.6865 101.892 34.1813 103.041 34.1813 105.699C34.1813 108.743 33.4648 110.028 31.7689 110.028C30.0941 110.028 29.4234 108.934 29.3344 106.056C29.2256 102.536 30.3013 100.937 32.3827 101.524ZM42.3262 101.923C43.2486 102.289 43.3837 104.353 42.5206 104.89C42.1466 105.123 40.5775 105.227 40.4448 105.027C40.3352 104.863 40.3105 101.948 40.418 101.846C40.5504 101.72 41.9585 101.777 42.3262 101.923Z" fill="white"/>
<path fill-rule="evenodd" clip-rule="evenodd" d="M26.7831 91.5916L0.299927 91.6428V105.746V119.848L0.567975 119.92C1.00945 120.038 53.3146 120.02 53.547 119.902C53.8684 119.739 53.863 91.7589 53.5414 91.5954C53.4274 91.5374 53.3189 91.5012 53.3001 91.5152C53.2816 91.529 41.3489 91.5633 26.7831 91.5916ZM33.1134 99.6942C37.5863 100.795 37.9144 110.034 33.538 111.65C31.8123 112.286 29.8239 111.933 28.582 110.767C26.7858 109.082 26.3489 104.609 27.7149 101.89C28.6654 99.9977 30.8074 99.1266 33.1134 99.6942ZM10.712 99.8185C10.794 99.8702 10.8503 101.171 10.894 104.019C10.9758 109.382 11.1653 109.926 12.9518 109.926C14.7301 109.926 14.9456 109.298 15.0316 103.866L15.0962 99.7915L16.0987 99.7619C17.525 99.7202 17.4014 99.3466 17.4014 103.7C17.4014 109.437 17.031 110.575 14.8397 111.574C12.3484 112.709 9.56047 111.477 8.75284 108.884C8.52875 108.165 8.4033 100.129 8.61238 99.8898C8.7523 99.7296 10.4775 99.671 10.712 99.8185ZM25.7021 99.8024C25.9163 99.8804 25.9514 101.559 25.7431 101.757C25.653 101.843 25.0513 101.88 23.7327 101.881C21.3975 101.883 21.5691 101.772 21.6063 103.263L21.6366 104.477L23.481 104.528C25.6654 104.588 25.5683 104.532 25.5276 105.708L25.4965 106.616L23.5665 106.673C22.5051 106.704 21.6245 106.738 21.6098 106.749C21.5951 106.76 21.583 107.837 21.583 109.142C21.583 110.852 21.5471 111.55 21.4543 111.638C21.2192 111.861 19.4684 111.799 19.3351 111.563C19.1663 111.263 19.1831 100.024 19.3528 99.8628C19.489 99.7334 25.3601 99.6777 25.7021 99.8024ZM42.8111 99.8992C44.3157 100.236 44.9686 100.853 45.3401 102.287C45.5808 103.216 45.4806 104.745 45.1568 105.083C45.1059 105.136 45.064 105.256 45.064 105.349C45.064 106.201 43.2027 107.172 41.5641 107.175C40.3603 107.176 40.4536 106.98 40.4536 109.507C40.4536 110.933 40.4164 111.551 40.325 111.638C40.1049 111.847 38.4861 111.798 38.2746 111.576C38.02 111.309 38.0532 99.9939 38.3092 99.8404C38.5808 99.6771 42.0204 99.7222 42.8111 99.8992ZM30.6299 101.875C28.7077 103.218 28.9677 108.962 30.988 109.786C33.2037 110.689 34.797 107.494 33.973 103.8C33.5339 101.832 31.9755 100.935 30.6299 101.875ZM40.5823 102.002C40.3681 102.205 40.4054 104.896 40.6233 104.975C41.2248 105.195 42.4069 104.933 42.7393 104.507C43.0663 104.088 43.0577 102.859 42.7248 102.415C42.3696 101.941 40.9369 101.665 40.5823 102.002Z" fill="#962038"/>
</svg>
