<svg width="40" height="40" viewBox="0 0 40 40" fill="none" xmlns="http://www.w3.org/2000/svg">
<path d="M0.5 0.5H36C37.933 0.5 39.5 2.067 39.5 4V36C39.5 37.933 37.933 39.5 36 39.5H0.5V0.5Z" fill="#EE4937"/>
<path d="M28.54 13.23L27.15 11.55C26.88 11.21 26.47 11 26 11H14C13.53 11 13.12 11.21 12.84 11.55L11.46 13.23C11.17 13.57 11 14.02 11 14.5V27C11 28.1 11.9 29 13 29H27C28.1 29 29 28.1 29 27V14.5C29 14.02 28.83 13.57 28.54 13.23ZM20 25.5L14.5 20H18V18H22V20H25.5L20 25.5ZM13.12 13L13.93 12H25.93L26.87 13H13.12Z" fill="#E8E8E8"/>
<path d="M0.5 0.5H36C37.933 0.5 39.5 2.067 39.5 4V36C39.5 37.933 37.933 39.5 36 39.5H0.5V0.5Z" stroke="#5B656F"/>
</svg>
