<svg width="24" height="24" viewBox="0 0 24 24" fill="none" xmlns="http://www.w3.org/2000/svg">
<path d="M9 20.6484V20.0156C9 20 9.00781 19.9844 9.02344 19.9688L9.04688 19.875C9.14062 19.2031 9.4375 18.6289 9.9375 18.1523C10.4375 17.6758 11.0156 17.4219 11.6719 17.3906C12.4062 17.3281 13.0547 17.4883 13.6172 17.8711C14.1797 18.2539 14.5625 18.7891 14.7656 19.4766C14.7812 19.4922 14.793 19.5156 14.8008 19.5469C14.8086 19.5781 14.8164 19.6055 14.8242 19.6289C14.832 19.6523 14.8359 19.6758 14.8359 19.6992C14.8359 19.7227 14.8398 19.75 14.8477 19.7812C14.8555 19.8125 14.8633 19.8398 14.8711 19.8633C14.8789 19.8867 14.8867 19.9141 14.8945 19.9453C14.9023 19.9766 14.9062 20 14.9062 20.0156V20.6484L14.8945 20.707L14.8594 20.7891C14.7656 21.3984 14.5117 21.9258 14.0977 22.3711C13.6836 22.8164 13.1719 23.1016 12.5625 23.2266C12.5156 23.2422 12.4531 23.2578 12.375 23.2734C12.3281 23.2891 12.2969 23.2969 12.2812 23.2969H11.6016C11.5547 23.2812 11.5234 23.2656 11.5078 23.25C10.8984 23.1562 10.3789 22.9062 9.94922 22.5C9.51953 22.0938 9.23438 21.5938 9.09375 21C9.07812 20.9531 9.05859 20.8906 9.03516 20.8125C9.01172 20.7344 9 20.6797 9 20.6484ZM14.9062 2.64844V3.28125L14.8945 3.33984L14.8594 3.42188C14.7656 4.09375 14.4648 4.66797 13.957 5.14453C13.4492 5.62109 12.8672 5.875 12.2109 5.90625C11.7266 5.9375 11.2734 5.87109 10.8516 5.70703C10.4297 5.54297 10.0703 5.29688 9.77344 4.96875C9.47656 4.64062 9.25781 4.25 9.11719 3.79688C9.11719 3.75 9.07812 3.57812 9 3.28125V2.64844C9 2.63281 9.00781 2.60938 9.02344 2.57812L9.04688 2.50781C9.26562 1.30469 9.96875 0.507812 11.1562 0.117188C11.2188 0.101562 11.3086 0.078125 11.4258 0.046875C11.543 0.015625 11.6094 0 11.625 0H12.2812L12.3047 0.0234375C12.3516 0.0390625 12.3828 0.046875 12.3984 0.046875C13.0078 0.140625 13.5312 0.390625 13.9688 0.796875C14.4062 1.20312 14.6953 1.71094 14.8359 2.32031C14.8516 2.38281 14.875 2.48438 14.9062 2.625V2.64844ZM14.9062 11.3203V11.9766L14.8828 12.0352L14.8594 12.1172C14.75 12.7891 14.4414 13.3633 13.9336 13.8398C13.4258 14.3164 12.8438 14.5703 12.1875 14.6016C11.4375 14.6328 10.7773 14.4453 10.207 14.0391C9.63672 13.6328 9.26562 13.0859 9.09375 12.3984C9.07812 12.3047 9.04688 12.1641 9 11.9766V11.3203L9.02344 11.2617L9.04688 11.1797C9.14062 10.5078 9.44531 9.93359 9.96094 9.45703C10.4766 8.98047 11.0625 8.72656 11.7188 8.69531C12.4688 8.66406 13.1289 8.85156 13.6992 9.25781C14.2695 9.66406 14.6406 10.2109 14.8125 10.8984C14.8281 10.9922 14.8594 11.1328 14.9062 11.3203Z" fill="#5B656F"/>
</svg>
