<svg width="32" height="32" viewBox="0 0 32 32" fill="none" xmlns="http://www.w3.org/2000/svg">
<circle cx="16" cy="16" r="16" fill="#FF7D62"/>
<path d="M22 14.815C22.34 14.815 22.67 14.855 23 14.905V11.395C23 10.595 22.53 9.875 21.8 9.565L16.3 7.165C15.79 6.945 15.21 6.945 14.7 7.165L9.2 9.565C8.47 9.885 8 10.605 8 11.395V14.995C8 19.535 11.2 23.785 15.5 24.815C16.05 24.685 16.58 24.495 17.1 24.265C16.41 23.285 16 22.095 16 20.815C16 17.505 18.69 14.815 22 14.815Z" fill="white"/>
<path d="M22 16.8149C19.79 16.8149 18 18.6049 18 20.8149C18 23.0249 19.79 24.8149 22 24.8149C24.21 24.8149 26 23.0249 26 20.8149C26 18.6049 24.21 16.8149 22 16.8149ZM22 18.1949C22.62 18.1949 23.12 18.7049 23.12 19.3149C23.12 19.9249 22.61 20.4349 22 20.4349C21.39 20.4349 20.88 19.9249 20.88 19.3149C20.88 18.7049 21.38 18.1949 22 18.1949ZM22 23.5649C21.07 23.5649 20.26 23.1049 19.76 22.3949C19.81 21.6749 21.27 21.3149 22 21.3149C22.73 21.3149 24.19 21.6749 24.24 22.3949C23.74 23.1049 22.93 23.5649 22 23.5649Z" fill="white"/>
</svg>
