<svg width="32" height="32" viewBox="0 0 32 32" fill="none" xmlns="http://www.w3.org/2000/svg">
<circle cx="16" cy="16" r="16" fill="#FF7D62"/>
<path d="M23 7H9C7.9 7 7.01 7.9 7.01 9L7 23C7 24.1 7.9 25 9 25H23C24.1 25 25 24.1 25 23V9C25 7.9 24.1 7 23 7ZM21 18H18V21C18 21.55 17.55 22 17 22H15C14.45 22 14 21.55 14 21V18H11C10.45 18 10 17.55 10 17V15C10 14.45 10.45 14 11 14H14V11C14 10.45 14.45 10 15 10H17C17.55 10 18 10.45 18 11V14H21C21.55 14 22 14.45 22 15V17C22 17.55 21.55 18 21 18Z" fill="white"/>
</svg>
