<svg width="128" height="128" viewBox="0 0 128 128" fill="none" xmlns="http://www.w3.org/2000/svg">
<path fill-rule="evenodd" clip-rule="evenodd" d="M52.4617 11.0941C52.1446 11.1502 51.6838 11.281 51.4375 11.3851C51.1908 11.4891 50.6149 11.616 50.1573 11.6675C49.6994 11.7186 49.181 11.8323 49.0051 11.9199C48.8289 12.0078 48.2998 12.1176 47.8293 12.1637C47.3585 12.2101 46.7322 12.3331 46.4369 12.4372C46.142 12.5415 45.7645 12.6266 45.5983 12.6266C45.2422 12.6266 44.7267 13.3409 44.5833 14.033C44.5326 14.2782 44.4171 14.5953 44.3274 14.7369C43.8541 15.4837 43.8391 17.3891 44.302 17.9725C44.3724 18.0615 44.8558 18.9799 45.3763 20.0141C45.8968 21.0484 46.4105 21.9911 46.5174 22.1094C47.0843 22.7361 46.8545 23.9147 46.0526 24.4928C45.081 25.1927 44.5244 25.7065 44.5244 25.9031C44.5244 26.0067 43.1523 27.4835 41.475 29.1845C39.7976 30.8858 37.7986 32.9256 37.0325 33.7174C35.4087 35.3962 35.2457 35.4545 34.3763 34.6691C34.0785 34.4002 33.6334 34.046 33.3868 33.8822C33.1405 33.7182 32.2189 32.8752 31.3387 32.0083C29.1931 29.8955 28.7115 29.7833 25.5138 30.6491C25.2321 30.7252 24.6783 30.8514 24.2829 30.9297C23.2573 31.1324 22.8583 31.6511 22.685 33.0082C22.6374 33.3807 22.5223 33.8368 22.429 34.0213C22.1366 34.6004 21.8881 36.5059 22.0626 36.8315C22.2192 37.1247 23.2938 37.6237 24.2976 37.87C24.6143 37.9476 24.9321 38.0563 25.0033 38.1113C25.0748 38.1664 25.4205 38.2815 25.7715 38.3673C26.1226 38.4535 26.5691 38.6036 26.7636 38.7012C26.9584 38.7988 27.3616 38.9286 27.6598 38.9897C29.0815 39.2807 29.9063 39.5613 30.3099 39.8906L30.7489 40.2488L30.1468 40.9183C29.8158 41.2866 29.2964 41.7778 28.9922 42.0098C28.3086 42.5317 27.2655 44.5805 26.9076 46.1034C26.8579 46.3147 26.7468 46.6024 26.6599 46.7433C26.5734 46.8841 26.4622 47.2298 26.4129 47.5115C26.3635 47.7932 26.2727 48.0846 26.2112 48.1589C26.1498 48.2333 26.0157 48.6079 25.9131 48.9912C25.6607 49.9364 25.4065 50.6185 25.0819 51.2244C24.9321 51.5036 24.8077 51.8196 24.8052 51.9262C24.8031 52.0327 24.6898 52.3505 24.5536 52.6322C24.4177 52.9139 24.3044 53.2821 24.3019 53.4501C24.2997 53.6185 24.1875 53.9932 24.0534 54.2824C23.7671 54.8987 23.2738 56.4098 23.2727 56.6736C23.2723 56.7744 23.1908 57.0122 23.0918 57.2024C22.9924 57.3922 22.8187 57.8662 22.7057 58.2555C22.4111 59.2683 21.3976 59.5679 20.0996 59.0256C19.8565 58.924 19.3625 58.8386 19.0014 58.8354C18.6403 58.8325 18.1145 58.7396 17.8328 58.6295C17.5511 58.519 16.9751 58.3721 16.5526 58.3027C16.13 58.233 15.4387 58.0725 15.0165 57.9452C12.938 57.3203 11.5048 57.3686 10.3787 58.1014C9.90185 58.4117 9.36741 58.756 9.19152 58.8658C8.27992 59.436 8.20628 59.5886 8.0876 61.1569C8.02718 61.9602 7.98893 62.7327 8.00287 62.8736C8.01681 63.0144 8.0876 64.1091 8.16017 65.3059C8.27599 67.2178 8.48012 68.6592 8.78613 69.7227C8.88694 70.0738 10.1757 70.1267 11.8798 69.8493C13.2873 69.6201 15.9835 69.4739 19.2305 69.4503L22.5488 69.4264L22.8398 69.7913C22.9999 69.9923 23.3141 70.7358 23.5379 71.4437C23.7621 72.1519 23.9891 72.7885 24.0427 72.859C24.096 72.9294 24.2007 73.2762 24.2751 73.6297C24.3494 73.9833 24.4999 74.4441 24.6093 74.6539C24.7187 74.8638 24.8088 75.1219 24.8095 75.2273C24.8102 75.3328 24.9275 75.6109 25.0705 75.8454C25.2131 76.0796 25.4476 76.6555 25.5917 77.1256C25.7354 77.5954 25.9606 78.2678 26.0918 78.6199C26.2234 78.9717 26.3975 79.519 26.479 79.8361C26.5605 80.1528 26.6731 80.4696 26.7292 80.54C26.7854 80.6104 26.8901 80.8696 26.9616 81.1163C27.0335 81.3626 27.2987 82.0518 27.5511 82.6474C28.23 84.25 28.1621 85.0848 27.3527 85.0848C27.1604 85.0848 26.8404 85.147 26.6424 85.2235C26.444 85.2996 25.5499 85.4437 24.6547 85.5438C20.8611 85.967 21.033 85.7958 21.033 89.1537C21.033 92.4433 20.8997 92.2392 24.0209 93.7181C24.3966 93.8962 24.8735 94.1847 25.0809 94.3591C26.1515 95.26 27.925 94.7309 30.4965 92.7429C31.8928 91.6636 32.1474 91.7226 34.0542 93.5662C34.6677 94.1593 35.3919 94.7985 35.6633 94.9869C35.935 95.1749 37.0746 96.2248 38.1964 97.3198C39.3182 98.4148 40.4661 99.458 40.7478 99.6382C42.0073 100.444 42.2207 100.943 41.6902 101.84C41.2254 102.625 40.7711 103.315 40.5416 103.583C40.4211 103.724 40.0818 104.3 39.7876 104.864C39.4938 105.427 39.1538 106.003 39.0319 106.144C38.8321 106.375 38.5439 106.798 38.1889 107.381C38.1178 107.498 37.8779 107.852 37.6563 108.168C36.7597 109.446 36.7751 109.79 37.7953 111.267C38.1839 111.829 38.5836 112.469 38.6837 112.689C38.7838 112.909 38.9254 113.126 38.9983 113.172C39.0716 113.217 39.3894 113.641 39.7047 114.115C40.6327 115.51 40.6545 115.523 42.4155 115.685C43.2585 115.762 44.1883 115.879 44.4818 115.944C44.7753 116.008 46.0716 116.099 47.3625 116.145C50.2685 116.247 49.9997 116.425 50.4851 114.081C50.587 113.588 50.735 113.026 50.8137 112.832C50.8923 112.639 51.0314 112.12 51.1229 111.68C51.3338 110.664 51.6541 109.381 51.8811 108.64C51.9784 108.323 52.0924 107.854 52.135 107.597C52.1775 107.34 52.3301 106.98 52.4742 106.797L52.7363 106.464H54.953C56.3254 106.464 57.5531 106.534 58.1762 106.647C58.7296 106.748 60.0984 106.897 61.2177 106.978C62.3373 107.059 63.3791 107.173 63.5328 107.231C63.6865 107.289 64.355 107.375 65.0178 107.421C65.681 107.468 66.6623 107.56 67.1985 107.628C68.3074 107.768 69.7027 107.607 70.64 107.231C71.8205 106.758 72.5219 106.565 73.4563 106.457C74.6679 106.316 74.7344 106.386 74.7426 107.8C74.749 108.953 75.1576 111.936 75.3299 112.087C75.3907 112.141 75.7865 112.313 76.2087 112.47C76.6312 112.626 77.2808 112.895 77.6518 113.065C78.0229 113.237 78.3997 113.376 78.4891 113.376C78.5781 113.376 78.8755 113.491 79.1497 113.631C80.5042 114.321 81.9085 114.251 82.3289 113.47C82.4554 113.235 82.7286 112.845 82.9359 112.602C83.1436 112.359 83.3134 112.111 83.3134 112.049C83.3138 111.989 83.5079 111.672 83.7453 111.346C84.708 110.022 84.7183 109.832 83.89 108.704C83.7349 108.493 83.2466 107.6 82.8051 106.72C82.3632 105.84 81.9228 105.006 81.8259 104.867C81.388 104.239 81.6271 103.49 82.3582 103.198C82.6374 103.087 82.9809 102.947 83.1218 102.887C83.2626 102.828 84.3283 102.474 85.4902 102.1C86.652 101.726 87.6887 101.379 87.7945 101.329C89.9666 100.29 91.3133 100.375 92.0504 101.597C92.3336 102.066 92.695 102.462 95.4269 105.291C96.3335 106.231 97.2584 107.268 97.4814 107.596C97.7045 107.924 98.4534 108.783 99.1455 109.505C100.645 111.07 100.884 111.144 101.783 110.321C102.081 110.048 102.641 109.615 103.029 109.359C103.416 109.103 104.078 108.608 104.501 108.259C104.923 107.91 105.329 107.622 105.403 107.62C105.813 107.607 107.995 105.231 107.938 104.859C107.384 101.213 107.289 100.919 106.523 100.477C106.19 100.284 105.517 99.74 105.028 99.2671C104.538 98.7945 103.825 98.1896 103.444 97.9229C103.061 97.6566 102.264 96.9931 101.672 96.4486C101.079 95.9042 100.436 95.3604 100.243 95.2403C98.5603 94.1925 98.4152 93.5233 99.5813 92.1895C99.7043 92.049 100.077 91.4152 100.409 90.7813C100.741 90.1479 101.074 89.5902 101.149 89.5426C101.288 89.4543 101.39 89.2727 102.183 87.7091C102.75 86.5909 103.081 86.0217 103.325 85.7465C103.43 85.6289 103.733 85.1294 103.999 84.6365C104.432 83.8339 104.677 83.4382 105.483 82.2416C105.612 82.0507 105.717 81.8355 105.717 81.7633C105.717 81.5774 106.839 79.5683 107.115 79.2598C107.357 78.9896 107.57 78.6128 108.028 77.6422C108.182 77.3158 108.44 76.8957 108.6 76.7088C108.961 76.2887 109.098 75.1619 109.044 73.0509C109.024 72.2412 109.001 70.8588 108.994 69.9787L108.982 68.3786L110.836 68.4282C111.856 68.4554 112.865 68.5305 113.077 68.5945C113.289 68.6588 114.096 68.8276 114.87 68.9695C115.645 69.1114 116.566 69.2844 116.918 69.3534C119.099 69.7821 119.432 69.6576 119.609 68.3457C119.655 68.0118 119.742 67.5656 119.805 67.3543C119.904 67.0183 120.321 64.9463 120.824 62.2976C121.073 60.985 120.895 60.5356 119.627 59.2736L118.583 58.2344L117.751 58.1633C117.293 58.1243 115.046 58.135 112.758 58.1869C108.112 58.2927 108.278 58.3224 108.277 57.385C108.276 57.0243 108.219 56.383 108.149 55.9608C108.078 55.5382 107.985 54.5301 107.94 53.7204C107.885 52.7084 107.765 51.953 107.557 51.3038C107.39 50.7843 107.253 50.2778 107.253 50.1784C107.253 50.079 107.146 49.8413 107.014 49.6507C106.883 49.4598 106.558 48.9579 106.294 48.5357C106.028 48.1132 105.747 47.6724 105.668 47.5562C104.403 45.6876 103.76 44.6877 103.416 44.055C103.187 43.6324 102.896 43.1716 102.769 43.0308C102.643 42.8899 102.387 42.4877 102.202 42.137C102.017 41.786 101.762 41.3827 101.635 41.2408C101.509 41.0989 101.27 40.7521 101.105 40.4704C100.94 40.1887 100.676 39.8012 100.519 39.6092C100.362 39.4172 100.083 38.9561 99.8981 38.585C99.5374 37.8586 99.3633 37.5747 98.688 36.6117C98.1982 35.9131 98.0059 34.934 98.3101 34.6866C98.4059 34.609 98.8817 34.3352 99.3675 34.0785C99.8537 33.8222 100.465 33.4425 100.727 33.2355C100.988 33.0286 101.455 32.7433 101.763 32.6017C102.356 32.3304 102.598 32.1892 103.221 31.753C103.432 31.6047 104.037 31.2407 104.565 30.9433C107.101 29.5159 107.407 28.9038 106.488 27.0967C106.361 26.8479 106.079 26.1097 105.86 25.4559C105.136 23.2905 105.059 23.2076 103.23 22.6177C102.521 22.3893 101.796 22.1269 101.62 22.0347C101.444 21.9428 101.083 21.827 100.819 21.7773C100.554 21.7276 100.124 21.5782 99.8637 21.4455C99.6031 21.3125 99.2378 21.2039 99.0519 21.2039C98.8663 21.2039 98.5471 21.1456 98.343 21.0745C97.5694 20.8053 96.9062 21.157 96.4061 22.1019C96.1644 22.5584 95.8759 23.0331 95.7644 23.1568C95.5249 23.4235 95.2807 23.8343 95.0991 24.2761C95.0266 24.4524 94.8875 24.7402 94.7895 24.9164C94.4928 25.4491 93.4439 27.5189 93.2974 27.8607C92.4358 29.8683 91.9293 30.1618 90.7002 29.3664C90.3341 29.1294 89.2459 28.546 88.2814 28.0698C87.3173 27.5936 86.317 27.036 86.0586 26.8308C85.8005 26.6252 85.2932 26.3113 84.9314 26.1326C84.57 25.9538 84.1875 25.7594 84.082 25.7C83.9762 25.6407 83.5451 25.4258 83.1232 25.2224C82.7017 25.019 82.0393 24.6526 81.6511 24.4084C80.5793 23.7338 80.52 23.7002 79.2391 23.0539C77.6011 22.2274 77.4935 21.9264 78.364 20.6104C79.3017 19.1937 79.3049 18.7436 78.3897 16.9512C77.8892 15.9713 77.5203 15.8258 75.4454 15.7901C73.4163 15.755 73.2451 15.9413 73.0152 18.4344C72.8407 20.328 72.1083 20.8196 69.4632 20.8199C69.0896 20.8199 68.3518 20.9004 67.8237 20.999C67.2957 21.0977 65.9419 21.2175 64.8151 21.265C63.6887 21.3125 62.3924 21.437 61.9348 21.541C60.7483 21.8112 57.0129 21.8416 56.7548 21.5832C56.576 21.4048 56.4466 20.935 55.919 18.5549C55.7914 17.9779 55.6287 17.3155 55.5579 17.0827C55.4871 16.8496 55.3956 16.3799 55.3541 16.0381C55.313 15.6967 55.1943 15.1494 55.0907 14.822C54.9001 14.2203 54.6038 13.042 54.3778 11.9867C54.1737 11.0333 53.798 10.8585 52.4617 11.0941ZM53.2535 14.4187C53.3018 15.2989 53.4033 16.4224 53.4795 16.9151C53.6654 18.1169 53.7962 24.6726 53.6393 24.8975C53.4233 25.2067 53.023 24.8556 49.3937 21.1749C44.7571 16.4725 44.8096 16.6863 47.8969 15.1069C48.964 14.561 50.4133 13.8131 51.1172 13.4446C51.9391 13.0149 52.535 12.7825 52.7817 12.7968L53.1656 12.8186L53.2535 14.4187ZM47.3811 13.8271C47.4583 14.0283 47.2416 14.2907 46.9982 14.2907C46.9085 14.2907 46.6503 14.403 46.4248 14.5403C45.9751 14.8137 45.8045 14.7826 45.8045 14.4269C45.8045 14.1267 46.0844 13.8993 46.6057 13.7756C47.2241 13.6287 47.3071 13.6344 47.3811 13.8271ZM77.4581 17.3501C78.152 18.1745 77.9396 19.6037 76.9258 20.9343C76.5275 21.4566 75.0236 21.3326 74.3204 20.7195C73.9125 20.3638 74.0634 17.3694 74.5034 17.0906C74.9943 16.7792 77.1363 16.9673 77.4581 17.3501ZM55.288 21.7176C55.3591 22.1598 55.5014 22.641 55.6037 22.7872C55.7063 22.9334 55.7896 23.1987 55.7896 23.3767C55.7892 23.5547 55.8879 24.1789 56.0091 24.7638C56.2475 25.9127 56.1835 26.1129 55.6026 26.0371C55.2794 25.9949 55.1833 25.5702 55.0167 23.4443C54.8372 21.1588 55.0156 20.0256 55.288 21.7176ZM48.9061 22.5159C49.3169 22.9559 50.458 24.1324 51.4421 25.1302C53.0644 26.7746 53.2131 26.963 53.0319 27.1443C52.7445 27.4317 51.4986 28.245 51.3456 28.245C51.1858 28.245 50.5413 27.3323 50.5413 27.106C50.5413 27.0152 50.4262 26.7947 50.2853 26.6155C50.1445 26.4364 50.0293 26.1916 50.0293 26.0711C50.0293 25.9506 49.9139 25.7479 49.773 25.6203C49.6322 25.493 49.5171 25.2903 49.5171 25.1699C49.5171 25.0494 49.4055 24.8088 49.269 24.6354C49.1324 24.462 48.9833 24.1703 48.9376 23.9876C48.8915 23.8046 48.7438 23.5554 48.6094 23.4339C48.475 23.312 48.3649 23.0843 48.3649 22.928C48.3649 22.7715 48.2787 22.5716 48.1729 22.484C47.9816 22.3253 47.9001 21.7158 48.0703 21.7158C48.1193 21.7158 48.4957 22.0758 48.9061 22.5159ZM76.5443 22.9935C77.1342 23.2988 77.6472 23.5937 77.6837 23.6487C77.8696 23.9269 81.1399 25.6843 81.4716 25.6843C81.5199 25.6843 81.7998 25.8816 82.094 26.1229C82.3882 26.3639 83.3688 26.943 84.2733 27.4099C85.1777 27.8768 86.0768 28.3926 86.2709 28.556C86.465 28.7194 87.4657 29.2696 88.4938 29.7786C90.5883 30.8157 90.7388 30.9276 90.7388 31.447C90.7388 31.9343 90.618 31.9904 89.3353 32.0977C88.7344 32.1481 87.7527 32.2539 87.1543 32.3325C86.41 32.4308 82.913 32.4648 76.0807 32.4408L66.0953 32.4054L66.0556 31.9947C66.0238 31.6662 66.116 31.4749 66.5182 31.0348C66.7942 30.7324 67.1023 30.3252 67.2031 30.13C67.3036 29.9345 68.1326 28.9896 69.0449 28.0301C69.9576 27.0706 70.8567 26.0207 71.0429 25.6968C71.2295 25.3733 71.8784 24.6186 72.4847 24.0202C73.0913 23.4217 73.6183 22.8351 73.6558 22.7164C73.8353 22.1519 75.1655 22.2799 76.5443 22.9935ZM98.8342 23.1007C99.0269 23.228 99.5463 23.6809 99.9881 24.1078C100.43 24.5346 101.068 25.059 101.407 25.2735C101.745 25.488 102.623 26.2448 103.357 26.9552C105.317 28.8502 105.264 29.1637 102.861 29.8437C102.523 29.9395 102.177 30.0732 102.093 30.1408C102.009 30.2083 101.681 30.3238 101.364 30.3971C101.047 30.4704 100.193 30.7363 99.4666 30.988C98.7398 31.2393 97.9437 31.4452 97.6981 31.4452C97.4521 31.4452 97.1454 31.5017 97.0167 31.5707C96.2917 31.9586 96.4955 28.2561 97.4217 24.2121C97.7678 22.7007 97.9776 22.5359 98.8342 23.1007ZM62.6984 23.5669C62.8693 23.7724 62.7878 23.8035 61.6788 23.9548C61.3621 23.9977 60.9875 24.1078 60.8466 24.1986C60.7058 24.2897 60.3397 24.4038 60.033 24.452C59.7266 24.5003 59.3233 24.6175 59.1371 24.713C58.0028 25.2932 57.2052 24.9307 57.587 24.0084C57.809 23.4729 62.2987 23.085 62.6984 23.5669ZM70.8574 23.5923C70.9021 23.7088 70.8574 23.9333 70.7573 24.091C69.9962 25.2925 69.4828 25.9456 68.435 27.046C67.7733 27.7406 67.0937 28.5106 66.9247 28.7569C66.5361 29.3235 65.5998 30.46 64.9731 31.1253C64.7082 31.407 64.1041 32.127 63.6315 32.7254C63.1585 33.3238 62.4249 34.1668 62.0009 34.5986C61.5773 35.0301 60.9853 35.7215 60.6854 36.1348C60.3851 36.548 59.7026 37.347 59.1682 37.9101C58.6338 38.4735 57.9495 39.3086 57.6474 39.7665C57.3457 40.2241 56.7448 40.9441 56.3122 41.3666L55.5261 42.1349L54.4393 42.1799C53.8416 42.205 53.2096 42.1892 53.0351 42.1456L52.7177 42.0659V40.2352C52.7177 39.019 52.7795 38.1928 52.9021 37.7735C53.0033 37.426 53.1517 36.6549 53.2317 36.0593C53.3118 35.4638 53.4219 34.8875 53.4766 34.7792C53.5313 34.6705 53.6479 34.1207 53.7354 33.5576C53.823 32.9942 53.9517 32.345 54.0211 32.1152C54.0904 31.8853 54.2259 31.2225 54.3224 30.643C54.7768 27.9132 55.0642 27.4699 56.6962 26.9841C57.2188 26.8286 57.9056 26.6116 58.2223 26.5026C58.539 26.3932 59.1153 26.2237 59.5025 26.1265C59.8896 26.0289 60.3218 25.8938 60.4627 25.8262C60.6035 25.759 61.6692 25.4079 62.831 25.0469C63.9929 24.6855 65.1161 24.3301 65.3274 24.2568C65.5387 24.1835 66.0424 24.0502 66.447 23.9598C66.8517 23.8697 67.255 23.7367 67.3433 23.6645C67.7572 23.3241 70.7312 23.2634 70.8574 23.5923ZM102.388 23.7042C102.494 23.7925 102.84 23.9058 103.157 23.9569C103.848 24.0677 103.997 24.1764 104.318 24.8067C104.558 25.2767 104.662 26.1329 104.469 26.0471C104.212 25.9327 102.004 24.2397 102.004 24.1567C102.004 24.1042 101.855 23.993 101.671 23.9097C101.409 23.79 101.369 23.7206 101.484 23.5822C101.644 23.3899 102.082 23.4489 102.388 23.7042ZM48.4457 25.6332C48.6212 25.6804 48.8729 26.0117 49.1496 26.5594C49.3866 27.0288 49.6668 27.5196 49.7727 27.6501C49.8989 27.8056 49.9654 28.1681 49.9654 28.7008C49.9654 29.5841 49.925 29.6435 49.013 30.11C48.7624 30.2383 48.4131 30.4696 48.2369 30.6241C48.061 30.7782 47.4644 31.1421 46.9113 31.4324C46.3586 31.7223 45.7534 32.0787 45.5672 32.2238C45.1875 32.5202 44.1569 33.1994 43.6346 33.4979C43.4458 33.6059 43.143 33.8075 42.9625 33.9459C42.5675 34.2487 42.3104 34.4274 41.6226 34.8793C41.3356 35.0677 40.7911 35.4266 40.4122 35.6772C40.0336 35.9278 39.4401 36.2688 39.0934 36.4354C38.747 36.602 38.3713 36.8305 38.2586 36.9427C37.4096 37.7917 35.6811 38.161 35.5889 37.5129C35.4945 36.8519 36.419 35.6021 37.4307 35.0233C37.7918 34.8167 38.2476 34.4163 38.4435 34.1336C38.6394 33.8508 39.0755 33.4214 39.4123 33.1794C39.7494 32.9374 40.2667 32.4194 40.5619 32.0283C40.8572 31.6372 41.1389 31.3173 41.1883 31.3173C41.4045 31.3173 42.3998 30.3313 42.8502 29.671C43.3414 28.9507 46.3947 25.7751 46.7208 25.6453C46.956 25.5513 48.111 25.5434 48.4457 25.6332ZM95.675 27.1067C95.5599 27.4946 95.4756 28.2586 95.4756 28.9124C95.4756 29.5706 95.4033 30.218 95.3036 30.4571C95.2089 30.6838 95.0923 31.0795 95.0441 31.3366C94.9962 31.5932 94.8825 31.8653 94.7917 31.9404C94.5865 32.1109 92.8148 32.2335 92.7222 32.0837C92.4069 31.5736 94.6194 26.9155 95.3154 26.6234C95.5442 26.5276 95.7362 26.3778 95.7415 26.2909C95.749 26.1744 95.768 26.1726 95.8134 26.2834C95.847 26.3664 95.7851 26.7371 95.675 27.1067ZM53.1002 29.4594C53.2993 29.6993 53.2307 32.35 53.0183 32.6114C52.9389 32.7093 52.8081 33.2917 52.7277 33.9055C52.6469 34.5193 52.5039 35.2407 52.4091 35.5085C52.3148 35.7766 52.1975 36.3689 52.1489 36.8247C52.0999 37.2809 51.9816 37.9133 51.8854 38.23C51.7896 38.5471 51.6742 39.123 51.6295 39.5102C51.5848 39.8977 51.4704 40.4736 51.3753 40.7907C51.2802 41.1075 51.1651 41.5972 51.119 41.8786C50.9549 42.8845 50.5556 43.2542 48.5758 44.2333C46.62 45.2007 46.3576 45.3905 45.8456 46.2078C45.6612 46.5023 45.447 46.7858 45.3695 46.8373C45.0577 47.0454 42.9275 46.9395 42.1867 46.6793C41.7863 46.5384 41.3273 46.423 41.1672 46.4226C41.007 46.4223 40.7203 46.3404 40.5301 46.2414C40.3399 46.142 39.7715 45.9968 39.2671 45.9186C38.7627 45.8403 38.2486 45.7223 38.1249 45.6558C38.0012 45.5897 37.6191 45.4763 37.2755 45.4041C36.6274 45.2679 35.7898 45.037 34.475 44.6323C34.0524 44.5025 33.4043 44.3281 33.0343 44.2448C32.6646 44.1615 32.33 44.0414 32.2907 43.9781C32.2517 43.9148 32.0573 43.863 31.8589 43.863C30.9698 43.863 31.0213 42.6868 31.9379 42.0684C32.2489 41.8585 32.5356 41.6866 32.5746 41.6866C32.6139 41.6866 32.8255 41.5354 33.0454 41.3506C33.2649 41.1657 33.8658 40.8147 34.3806 40.5702C34.8954 40.326 35.4727 40.0017 35.664 39.8502C36.2395 39.3933 36.8269 38.9983 36.9341 38.9965C36.9899 38.9954 37.3696 38.684 37.7782 38.3051C38.1868 37.9258 38.7051 37.5465 38.9304 37.4621C39.5824 37.218 40.3196 36.8044 40.9244 36.3428C41.233 36.1076 41.6802 35.8338 41.9186 35.7344C42.1567 35.635 43.172 35.0123 44.174 34.3513C45.1764 33.6899 46.3107 32.9892 46.6947 32.7944C47.0786 32.5996 47.6113 32.2735 47.8787 32.0705C48.1461 31.8674 48.5915 31.5289 48.8682 31.3183C49.1449 31.1078 49.6275 30.7992 49.9407 30.6327C50.2538 30.4664 50.7068 30.1801 50.9474 29.9963C51.8311 29.3225 52.7884 29.0837 53.1002 29.4594ZM30.6985 32.9896C31.5786 33.8354 32.5292 34.6802 32.8109 34.8668C33.6656 35.433 34.411 36.2084 34.411 36.5312C34.411 36.8562 32.5424 38.8624 32.2231 38.8803C31.4581 38.9232 30.3356 38.8224 30.0653 38.6869C29.8855 38.5965 29.5366 38.4849 29.2903 38.4384C29.044 38.392 28.5542 38.2465 28.2021 38.1153C27.2322 37.7538 26.74 37.5858 25.8977 37.3302C24.6254 36.9438 23.6312 36.5756 23.4471 36.4229C23.2133 36.2288 23.2194 34.8064 23.4582 33.8858C23.5601 33.494 23.6727 33.0296 23.7088 32.8534C23.8901 31.9693 25.3036 31.4653 27.6262 31.4567L29.0983 31.4517L30.6985 32.9896ZM99.2267 32.7894C99.2124 32.8598 99.0179 32.9549 98.7938 33.0007C98.57 33.0464 98.3458 33.1501 98.2962 33.2305C98.2461 33.3113 98.0087 33.4851 97.7685 33.6163C96.4143 34.3566 96.3242 34.392 96.2184 34.2297C95.9185 33.7696 96.2577 33.4625 97.716 32.8748C98.3709 32.6106 99.2721 32.5599 99.2267 32.7894ZM92.828 34.258C93.0929 34.5064 92.729 35.2904 91.8699 36.3221C91.3769 36.9137 90.884 37.5708 90.7746 37.7821C90.6652 37.9934 90.2619 38.4896 89.8783 38.8849C89.4951 39.2803 89.0854 39.7515 88.9682 39.9317C88.8506 40.1119 88.305 40.7964 87.7556 41.4532C87.2061 42.1095 86.6488 42.7766 86.5169 42.9349C85.9356 43.6342 85.1738 43.4236 81.2575 41.4792C79.3256 40.5201 77.5435 39.5842 77.2969 39.399C76.8182 39.0397 75.7035 38.486 75.4601 38.4867C75.3789 38.4867 74.103 37.8897 72.6245 37.1597C71.1459 36.4297 69.6005 35.6743 69.1908 35.4813C68.439 35.127 68.1037 34.7177 68.2506 34.3345C68.3657 34.0345 92.5095 33.9591 92.828 34.258ZM66.5436 35.4044C67.2124 35.7598 67.9038 36.1119 68.0797 36.1866C68.2556 36.261 70.0702 37.1493 72.1122 38.1603C74.1542 39.1713 76.2426 40.1573 76.7531 40.351C78.4894 41.0102 81.8291 42.7637 81.9925 43.1026C82.291 43.7211 82.2581 44.1618 81.9056 44.2609C80.9397 44.5319 79.6531 44.7735 78.577 44.8854C77.9082 44.9551 77.1592 45.0652 76.9129 45.1299C76.6666 45.1946 75.804 45.3169 74.996 45.4016C74.1881 45.486 73.3895 45.6079 73.2208 45.6719C73.0524 45.7359 72.2269 45.8442 71.3861 45.9132C70.5453 45.9818 69.7445 46.0984 69.6065 46.1724C69.4686 46.246 68.6835 46.3651 67.862 46.4362C67.0405 46.5077 66.0188 46.6439 65.5916 46.7393C65.1647 46.8344 64.3543 46.9506 63.7913 46.9975C63.2279 47.0443 62.4417 47.1644 62.0442 47.2649C61.5376 47.3928 60.5535 47.4475 58.7496 47.4475H56.1771L55.826 46.9034C55.1325 45.8285 55.3774 43.0947 56.1671 43.0947C56.2318 43.0947 56.7351 42.5628 57.2857 41.9129C57.8358 41.2626 58.3796 40.6366 58.4933 40.5215C58.6073 40.4064 58.953 39.9735 59.2615 39.5592C59.57 39.1452 60.1259 38.4992 60.4966 38.1239C60.8677 37.7481 61.2635 37.2587 61.3764 37.0357C61.4897 36.8126 61.863 36.3561 62.2065 36.0215C62.5501 35.6868 62.831 35.3547 62.831 35.2836C62.831 34.4253 64.8226 34.49 66.5436 35.4044ZM94.654 36.854C94.8878 37.5615 95.1771 58.6262 94.9565 58.884C94.8442 59.0152 94.2015 58.6906 93.9394 58.3706C93.2688 57.5516 92.9152 57.0586 92.9152 56.9428C92.9152 56.8023 91.7219 54.4322 91.5267 54.1851C91.4638 54.1054 91.3387 53.8098 91.249 53.5284C91.1592 53.2467 91.0509 52.9876 91.0084 52.9522C90.9658 52.9171 90.5032 52.0241 89.9806 50.9681C88.0058 46.9764 87.757 46.4834 87.6458 46.3422C87.1031 45.6515 87.5765 43.1848 88.4119 42.3494C88.6736 42.0877 89.0454 41.6044 89.2381 41.2758C89.4308 40.9469 90.0549 40.1744 90.6255 39.5588C91.1957 38.9432 91.8145 38.205 92.0008 37.9187C92.1867 37.6323 92.3854 37.3778 92.4419 37.3531C92.4984 37.3284 92.7497 37.0868 92.9999 36.8162C93.4207 36.3614 93.6495 36.2456 94.2176 36.1995C94.3688 36.187 94.4978 36.3807 94.654 36.854ZM97.6938 37.5647C97.8221 37.6809 98.072 38.081 98.2482 38.4538C98.4248 38.8267 98.6958 39.2889 98.8503 39.4812C99.3572 40.1111 100.815 42.3841 100.914 42.6986C100.967 42.8681 101.248 43.3371 101.539 43.7407C101.83 44.1443 102.299 44.8568 102.58 45.3237C103.111 46.2031 103.29 46.4666 103.746 47.0429C103.895 47.2302 104.269 47.8633 104.579 48.4499C104.888 49.0362 105.255 49.6393 105.396 49.7898C105.922 50.355 105.842 51.8111 105.25 52.4141C104.622 53.0551 104.181 53.6611 104.181 53.8841C104.181 53.9799 104.051 54.1755 103.893 54.3192C103.734 54.4626 103.517 54.6892 103.409 54.8229C103.301 54.9562 103.067 55.1804 102.888 55.3212C102.71 55.4617 102.398 55.8646 102.194 56.2168C101.99 56.5689 101.278 57.4018 100.61 58.0682L99.3972 59.2801L98.5918 59.3312C97.091 59.4267 97.1597 59.5075 96.8165 57.241C96.6195 55.9404 96.5191 37.6134 96.7071 37.3091C96.8079 37.1458 97.3988 37.2991 97.6938 37.5647ZM53.2707 43.3421C53.5063 43.4319 53.6711 43.6943 53.9338 44.3982C54.1262 44.9137 54.4207 45.624 54.5888 45.9772C54.7564 46.33 54.8937 46.7061 54.8937 46.8126C54.8937 46.9192 54.9795 47.1287 55.0839 47.2781C55.3774 47.6967 55.3967 49.9074 55.1096 50.1945C54.9909 50.3132 54.8937 50.4801 54.8937 50.5659C54.8937 50.6517 54.7825 50.9406 54.646 51.2076C54.5098 51.475 54.3353 51.9873 54.2584 52.3462C54.1816 52.7051 54.0536 53.0769 53.9742 53.1727C53.8949 53.2682 53.8244 53.5985 53.818 53.9067C53.7966 54.8855 54.1458 54.8311 54.3056 53.8309C54.3492 53.5588 54.44 53.3365 54.5076 53.3365C54.6738 53.3365 55.2065 52.1868 55.5386 51.1114C56.0638 49.4112 56.6704 49.0441 59.6944 48.5947C60.5395 48.4696 61.346 48.3313 61.4869 48.2876C61.6277 48.244 62.4053 48.1268 63.215 48.0274C64.0247 47.9276 65.2058 47.7611 65.8393 47.657C67.6053 47.3678 68.9159 47.1926 70.3201 47.0582C71.024 46.9907 71.9745 46.8516 72.4321 46.7494C72.8901 46.6471 73.9207 46.5005 74.7233 46.424C75.5255 46.3472 76.2744 46.236 76.3874 46.1767C76.5004 46.1173 77.2554 46.0047 78.0651 45.9261C78.8748 45.8478 79.9694 45.693 80.4975 45.5818C81.4831 45.3745 85.1663 45.2794 85.6961 45.4474C85.8426 45.4939 86.1819 45.8621 86.4497 46.2657C86.7174 46.6693 87.0349 47.1444 87.1553 47.3221C87.2758 47.4994 87.4188 47.7846 87.4735 47.9562C87.5279 48.1278 87.9072 48.8818 88.3165 49.6314C88.7254 50.3815 89.0979 51.1447 89.1441 51.3281C89.1902 51.5115 89.3085 51.7285 89.4072 51.8103C89.5058 51.8926 89.587 52.0245 89.5873 52.1038C89.5877 52.1832 89.7897 52.6226 90.0364 53.0801C90.283 53.5381 90.6598 54.2867 90.8736 54.7446C91.2572 55.5654 91.8145 56.6779 92.5517 58.0929C93.0296 59.0109 93.0425 60.2121 92.5767 60.443C92.4258 60.5181 92.2242 60.6421 92.1287 60.7186C92.0333 60.7951 91.619 60.8984 91.2082 60.9481C90.7292 61.006 90.3713 61.1287 90.2094 61.2906C90.0045 61.4954 89.854 61.5276 89.4104 61.4611C88.2736 61.2906 87.7888 61.7057 87.5325 63.0688C87.4471 63.5246 87.3008 64.157 87.2083 64.4737C87.1157 64.7908 87.0034 65.3381 86.9591 65.6899C86.647 68.1583 85.9456 68.9741 83.4417 69.7803C82.6806 70.0251 81.3258 70.6786 80.9994 70.9578C80.8882 71.0529 80.7377 71.1309 80.6651 71.1309C80.5468 71.1309 79.1962 71.7354 78.705 72.0081C78.0651 72.3635 77.3251 72.6677 77.101 72.6674C76.8818 72.667 75.6181 73.2611 74.0326 74.1095C73.4946 74.3972 72.3535 74.8434 72.1547 74.8434C72.0636 74.8434 71.2864 75.1891 70.4277 75.6113C69.569 76.0338 68.7957 76.3795 68.7092 76.3795C68.5523 76.3795 67.9067 76.6691 66.2233 77.4945C64.513 78.3332 63.1245 78.1974 62.9186 77.1706C62.7467 76.313 62.1718 75.8079 61.0886 75.5619C59.3351 75.1641 58.7932 74.8116 58.4171 73.8238C58.2416 73.3637 57.8898 72.4396 57.6349 71.7708C57.38 71.1019 57.0858 70.2954 56.9811 69.9787C56.8763 69.6616 56.7366 69.2873 56.6701 69.1464C56.6039 69.0056 56.4684 68.5737 56.3694 68.1862C56.2704 67.7991 56.0151 66.8775 55.8021 66.1382C55.5894 65.3989 55.4128 64.621 55.4096 64.4097C55.4067 64.1984 55.3184 63.861 55.2133 63.6597C55.1086 63.4584 54.9391 62.9976 54.8372 62.6355C54.5165 61.4972 54.247 60.7108 54.0418 60.3132C53.8463 59.9354 53.7626 58.9369 53.7043 56.2911C53.6768 55.0453 53.4166 54.4701 53.334 55.4728C53.2904 56.0026 52.8971 56.205 52.5196 55.8918C52.3305 55.7349 50.5413 52.6415 50.5413 52.471C50.5406 52.2232 48.3642 48.0792 47.9555 47.5483C46.8441 46.1044 47.173 45.5296 49.645 44.5958C50.3139 44.3431 51.1783 43.9802 51.5655 43.7897C51.9526 43.5992 52.4134 43.3986 52.5897 43.3439C52.7656 43.2896 52.9204 43.2399 52.9332 43.2338C52.9465 43.2277 53.098 43.2767 53.2707 43.3421ZM33.3228 45.3205C34.027 45.5157 35.0062 45.7638 35.4992 45.8714C35.9922 45.979 36.4676 46.1255 36.5556 46.197C36.6439 46.2685 37.0471 46.4026 37.4518 46.4948C39.2139 46.897 40.6846 47.2924 41.964 47.7089C42.3512 47.8347 43.0111 48.0124 43.4304 48.1032C44.5565 48.347 44.6541 48.4925 44.6434 49.9117C44.6316 51.4632 44.6091 51.5047 43.4254 52.1385C42.047 52.8764 39.7991 53.9764 39.6689 53.9764C39.6107 53.9764 39.4991 54.0536 39.4208 54.1476C39.3426 54.242 39.0605 54.3843 38.7942 54.4643C38.5275 54.5441 38.0813 54.8183 37.8028 55.0735C37.1279 55.6916 36.6499 56.0248 36.4376 56.0248C36.3418 56.0248 36.0626 56.131 35.8173 56.2611C35.5721 56.3912 35.132 56.5353 34.84 56.5807C34.0074 56.7108 31.5747 58.1343 31.3598 58.6169C31.3366 58.6698 31.219 58.7131 31.0988 58.7131C30.9787 58.7131 30.6548 58.8282 30.3785 58.9691C30.1022 59.1099 29.7529 59.225 29.6024 59.225C29.2924 59.225 28.141 59.7963 27.9458 60.0469C27.5054 60.6121 25.5034 61.4493 24.4606 61.5051L23.4071 61.5612L23.268 61.1944C23.1147 60.7919 23.2023 60.073 23.4529 59.6733C23.5412 59.5325 23.7728 58.8986 23.968 58.2648C24.1632 57.6313 24.461 56.6997 24.6301 56.1953C24.7992 55.6905 24.9379 55.1779 24.9379 55.0563C24.9379 54.9348 25.1438 54.4068 25.3958 53.8827C25.8849 52.866 26.1558 52.0306 26.3582 50.9152C26.4275 50.5341 26.5677 50.0733 26.6699 49.891C26.7721 49.709 27.0009 49.1038 27.1786 48.5465C27.6112 47.1873 28.4262 45.3855 28.758 45.0538C29.0772 44.7342 31.7799 44.8922 33.3228 45.3205ZM46.8584 47.7997C46.9667 47.9226 47.2113 48.3341 47.4014 48.7134C47.5916 49.0931 47.9645 49.7265 48.2297 50.1216C48.4954 50.5166 48.9165 51.2434 49.166 51.736C49.4155 52.229 49.7115 52.8049 49.8238 53.0162C49.9357 53.2274 50.0279 53.6242 50.0283 53.8981C50.029 54.213 50.1069 54.4533 50.2406 54.5509C50.3632 54.6406 50.4115 54.7718 50.3554 54.8626C50.2839 54.9781 50.1927 54.9495 50.0108 54.7543C49.8745 54.6081 49.6325 54.4883 49.4731 54.4883C49.0863 54.4883 48.5872 54.1047 47.2795 52.8031L46.1888 51.717V50.0465C46.1888 47.6692 46.329 47.1984 46.8584 47.7997ZM47.0518 53.7204C47.5809 54.143 48.0703 54.4883 48.1389 54.4883C48.3087 54.4883 49.5221 55.4628 49.7405 55.7745C49.8367 55.9122 49.9725 56.0248 50.0415 56.0248C50.6113 56.0248 52.7177 58.7102 52.7177 59.4367C52.7177 59.5321 52.8328 59.8249 52.9736 60.0877C53.1145 60.3504 53.2303 60.6528 53.2307 60.7594C53.2314 60.8659 53.4355 61.5294 53.6843 62.2337C53.9331 62.9376 54.2223 63.7848 54.3267 64.1162C54.4311 64.4476 54.5673 64.7504 54.6292 64.7886C54.691 64.8269 54.7797 65.1604 54.8258 65.5301C54.8719 65.8997 54.9902 66.4613 55.0885 66.7781C56.2901 70.6529 56.6093 71.6313 56.7712 71.9349C56.9829 72.331 57.0562 75.0468 56.8603 75.2195C56.2436 75.7629 50.4297 76.086 49.4023 75.6345C49.0781 75.4919 48.7267 75.3392 48.6208 75.2953C48.5154 75.2513 48.1986 75.0743 47.9169 74.902C47.6352 74.7301 47.203 74.4988 46.9567 74.3887C46.7104 74.2786 46.2782 74.0794 45.9965 73.9464C45.7152 73.8131 45.1678 73.614 44.7803 73.5035C44.3932 73.3927 43.7883 73.1646 43.4362 72.9962C42.6247 72.6077 42.2815 72.4679 41.6441 72.2648C41.3624 72.1751 41.0456 72.0371 40.9398 71.9581C40.8344 71.8791 40.316 71.5985 39.7876 71.3346C39.2596 71.0708 38.7413 70.807 38.6354 70.7483C38.53 70.6894 37.9251 70.4827 37.2913 70.2886C36.6578 70.0941 35.837 69.7445 35.4677 69.5111C35.0984 69.2773 34.6087 69.0002 34.3795 68.8951C34.1504 68.7897 33.8765 68.6495 33.7711 68.583C33.3167 68.2981 32.5216 67.9656 32.1066 67.8866C31.6351 67.7969 31.4056 67.7018 30.0585 67.0376C28.5482 66.293 27.3098 65.613 27.0499 65.3853C26.6592 65.0432 26.2016 64.7844 25.6925 64.6174C23.8772 64.0225 24.3931 62.9418 27.1228 61.6206C27.7964 61.2945 28.6318 60.8026 28.9789 60.5274C29.7604 59.9075 30.6212 59.4692 31.7866 59.0978C33.3528 58.5984 34.3577 58.0696 35.7051 57.0358C35.9439 56.8527 36.4144 56.6286 36.7507 56.5381C37.0868 56.4477 37.3928 56.324 37.4303 56.2632C37.4679 56.2025 37.627 56.1528 37.7843 56.1528C38.0206 56.1528 39.251 55.5722 41.2144 54.5341C41.4006 54.4357 41.6269 54.2659 41.7174 54.1573C42.1789 53.601 43.9506 52.9865 45.1467 52.9672L46.0895 52.9522L47.0518 53.7204ZM106.068 54.0085C106.253 54.2431 106.379 58.2273 106.216 58.6945C106.09 59.0559 105.467 59.481 105.064 59.481C104.93 59.481 104.929 59.5128 105.058 59.6411C105.179 59.7616 106.006 59.7967 108.404 59.7827C112.176 59.7606 112.547 59.8964 110.71 60.6285C110.322 60.7826 109.702 61.0486 109.33 61.2191C108.959 61.3896 108.57 61.5294 108.466 61.5294C108.362 61.5294 108.061 61.6445 107.799 61.7854C107.536 61.9262 107.203 62.0413 107.06 62.0413C106.916 62.0413 106.684 62.1193 106.546 62.2144C106.256 62.4131 105.066 62.5783 104.862 62.4485C104.787 62.4006 104.684 61.7968 104.633 61.1069C104.529 59.7034 104.363 59.5489 104.066 60.5796C103.892 61.1869 104.015 64.0472 104.27 65.2945L104.346 65.6674L104.488 65.2305C104.764 64.3765 107.315 64.8934 108.444 66.0323C108.676 66.2665 108.935 66.3941 109.18 66.3941C109.388 66.3941 109.557 66.4517 109.557 66.5221C109.557 66.7119 108.545 66.6737 107.957 66.4617C107.676 66.3602 107.071 66.2722 106.613 66.2661C106.155 66.2601 105.564 66.1775 105.299 66.0831C104.774 65.8958 104.668 65.9523 104.775 66.3619C104.826 66.5575 105.014 66.6712 105.465 66.7791C106.237 66.9643 107.249 67.5928 107.264 67.8956C107.272 68.07 107.267 70.1621 107.254 72.5708C107.253 72.7678 106.132 72.6645 105.83 72.4396C105.662 72.3145 105.381 72.1393 105.205 72.0507C105.029 71.962 104.55 71.5745 104.14 71.1898C103.73 70.8052 103.356 70.4892 103.308 70.4874C103.26 70.486 102.875 70.0588 102.452 69.5386C102.03 69.0185 101.536 68.5044 101.356 68.3961C101.019 68.1948 100.628 66.7938 100.79 66.3712C100.827 66.2744 100.873 64.7565 100.891 62.9983C100.919 60.3036 100.957 59.7409 101.136 59.417C101.253 59.2057 101.408 58.8747 101.481 58.6809C101.554 58.4875 101.672 58.3288 101.743 58.3288C101.893 58.3288 102.516 57.1491 102.516 56.8656C102.516 56.7601 102.858 56.3404 103.276 55.9333C103.693 55.5257 104.074 55.0342 104.121 54.8404C104.169 54.647 104.256 54.4883 104.314 54.4883C104.372 54.4883 104.455 54.3768 104.498 54.2402C104.605 53.9024 105.841 53.7204 106.068 54.0085ZM13.8607 59.6672C14.1442 59.8195 14.6279 60.1134 14.9357 60.3207C15.6038 60.7705 16.3031 61.1809 17.2565 61.6817C18.7712 62.4778 19.5609 63.1424 19.5609 63.6211C19.5609 63.9314 18.7608 64.7293 18.4473 64.7318C18.1406 64.7343 17.816 64.9477 17.9357 65.0675C17.9883 65.12 18.3322 65.0879 18.7 64.9956C19.0679 64.9034 19.8697 64.8019 20.4821 64.7701L21.595 64.7121L21.8631 65.238C22.3378 66.1682 22.197 67.7622 21.6093 68.1119C21.1685 68.3739 14.0469 68.5459 13.6551 68.3038C13.3044 68.0872 14.4377 66.9061 14.9964 66.9061C15.094 66.9061 15.3114 66.7992 15.479 66.6687C15.6471 66.5382 16.0006 66.3609 16.2645 66.2747C16.5286 66.1886 16.7446 66.0713 16.7446 66.0141C16.7446 65.9566 16.978 65.8164 17.2633 65.7024C17.8589 65.4639 17.8231 65.1833 17.2097 65.2816C16.6355 65.3735 15.5634 65.7628 15.3264 65.9655C15.2152 66.0602 15.0729 66.1382 15.01 66.1382C14.9475 66.1382 14.1435 66.5096 13.2236 66.9632C11.5892 67.7701 10.6254 68.0289 10.3644 67.7315C10.2061 67.5506 10.402 65.2448 10.6372 64.5252C10.7498 64.1802 10.9307 63.5231 11.039 63.0655C11.6185 60.6167 11.9059 59.57 12.05 59.3802C12.2212 59.155 13.1929 59.309 13.8607 59.6672ZM19.5887 59.5418C19.8197 59.6458 20.2605 59.7938 20.5679 59.8707C21.6053 60.1313 22.1123 61.5451 21.4652 62.3731C21.2979 62.5869 19.7253 62.4978 19.4611 62.2598C19.3399 62.1507 19.0825 62.022 18.8888 61.9734C18.6954 61.9251 18.5367 61.8436 18.5367 61.7922C18.5367 61.7407 18.1767 61.4611 17.7366 61.1712C16.4575 60.3275 16.0607 59.8624 16.2959 59.4824C16.4257 59.2726 19.0961 59.3208 19.5887 59.5418ZM117.419 59.5132C117.829 61.0007 118.015 62.9197 117.98 65.3059L117.943 67.8663L117.174 67.8248C116.429 67.7844 114.382 67.1005 113.245 66.5114C112.984 66.3763 112.705 66.2661 112.624 66.2661C112.543 66.2661 112.295 66.1828 112.073 66.081C111.631 65.8776 110.355 65.4207 109.749 65.248C109.538 65.188 109.137 65.0181 108.858 64.8701C108.579 64.7225 108.272 64.6017 108.174 64.6017C108.076 64.6017 107.844 64.522 107.657 64.4244C107.47 64.3264 107.153 64.1813 106.952 64.1008C106.637 63.9754 106.599 63.9074 106.674 63.6071C106.809 63.0705 106.925 62.9905 108.121 62.6108C108.735 62.416 109.324 62.2154 109.429 62.1654C110.087 61.8519 112.83 60.8248 114.18 60.3858C114.364 60.3261 114.652 60.2031 114.82 60.1127C115.913 59.5242 117.331 59.1968 117.419 59.5132ZM10.3684 60.8895C10.3358 61.6813 10.1546 62.5811 9.75385 63.9403C9.58011 64.5291 9.37134 63.861 9.23692 62.2876C9.06461 60.2682 9.21047 59.8127 10.0055 59.89L10.4077 59.9293L10.3684 60.8895ZM99.8634 62.6816C99.9742 65.189 99.8577 65.8214 99.2074 66.2383C98.698 66.565 98.6715 66.5861 97.8439 67.3114C96.7693 68.2534 95.2296 69.7274 94.0245 70.9689C92.6846 72.3488 92.1059 72.4307 91.8317 71.2785C91.7051 70.7462 91.2547 69.5872 90.9276 68.952C90.658 68.4293 90.2626 67.3032 89.4783 64.8269C88.8649 62.8897 88.9399 61.9584 89.7196 61.834C90.0017 61.7886 90.2634 61.7017 90.3013 61.6406C90.3388 61.5795 90.6355 61.5294 90.9601 61.5294C91.2847 61.5294 92.1598 61.3886 92.9048 61.2166C95.66 60.5803 96.9062 60.398 98.3558 60.4201L99.764 60.4412L99.8634 62.6816ZM119.656 61.7053C119.636 62.5575 119.509 63.137 119.349 63.1006C119.167 63.0587 119.023 61.1201 119.188 60.9199C119.441 60.6121 119.672 61 119.656 61.7053ZM88.7891 65.4021C88.9396 65.7717 89.1029 66.2468 89.1523 66.4581C89.2016 66.6694 89.3482 67.043 89.4783 67.2882C89.6084 67.5338 89.7146 67.8352 89.7146 67.9578C89.7146 68.0808 89.9441 68.7568 90.224 69.46C91.0867 71.6246 90.3953 71.8619 88.6203 70.0105L87.5464 68.8905L87.5482 67.6103C87.5489 66.8217 87.6204 66.1335 87.7341 65.8179C87.8357 65.5365 87.9193 65.2098 87.9204 65.0925C87.9225 64.888 88.087 64.7615 88.379 64.74C88.4541 64.7343 88.6386 65.0324 88.7891 65.4021ZM25.5138 66.0802C25.8659 66.2075 26.5637 66.5325 27.0646 66.8027C27.5654 67.0726 28.4009 67.438 28.9207 67.6146C29.4408 67.7908 30.6441 68.3174 31.5947 68.7847C32.5452 69.2515 33.4383 69.6791 33.5787 69.7345C34.0367 69.9147 36.4033 70.6186 36.5506 70.6186C36.6296 70.6186 36.7132 70.6693 36.7368 70.7308C36.7804 70.8459 40.2878 72.6838 40.7478 72.8329C40.8887 72.8783 41.0903 72.9712 41.1961 73.0388C41.3016 73.1067 41.7624 73.3462 42.22 73.5707C42.6779 73.7956 43.3843 74.1452 43.7904 74.3476C44.1962 74.5499 44.6277 74.7154 44.7485 74.7154C44.8697 74.7154 45.2576 74.8534 45.6108 75.0225C45.964 75.1916 46.6561 75.4586 47.1487 75.6159C47.6417 75.7732 48.4893 76.1532 49.0327 76.4607C49.5757 76.7681 50.0569 77.0194 50.1016 77.0194C50.7325 77.0194 52.0774 80.1936 52.0774 81.6825C52.0774 82.5183 51.8879 82.7014 50.8119 82.9055C50.4408 82.9759 50.0705 83.0749 49.9889 83.1254C49.9071 83.1758 49.4077 83.3166 48.8786 83.4385C46.527 83.9794 45.0613 84.4427 44.6523 84.7748C44.4471 84.9414 43.3314 85.2767 42.284 85.4866C41.5211 85.6392 40.6002 85.887 39.7236 86.1758C39.3719 86.2916 38.767 86.474 38.3795 86.5812C37.9923 86.6885 37.6102 86.8293 37.5301 86.894C37.45 86.9591 36.9892 87.0942 36.5059 87.1939C35.4441 87.4138 34.0238 87.8253 33.6653 88.0172C33.5215 88.0941 32.8577 88.157 32.1899 88.157H30.9766L30.633 87.5489C30.3099 86.9773 30.1719 86.583 29.7479 85.0208C29.5938 84.4524 29.3897 83.91 28.832 82.5884C28.743 82.3771 28.6279 82.0354 28.5764 81.8287C28.5249 81.6221 28.4055 81.3054 28.3111 81.1248C28.2168 80.944 28.1395 80.7152 28.1388 80.6165C28.1385 80.5175 28.0001 80.1432 27.8314 79.7843C27.6627 79.4253 27.4324 78.9088 27.3195 78.6364C27.1114 78.1344 26.474 75.1877 26.474 74.7286C26.474 74.5914 26.3378 74.3161 26.1716 74.117C25.6743 73.5225 25.0991 72.3971 24.8735 71.5788C24.757 71.1562 24.5797 70.6293 24.4796 70.4073C24.3795 70.1853 24.2976 69.8757 24.2976 69.7191C24.2976 69.4546 23.9726 68.6045 23.3885 67.34C22.6803 65.8071 23.4675 65.3406 25.5138 66.0802ZM100.747 69.3945C101.638 70.2704 102.617 71.1112 102.922 71.2631C103.242 71.4222 104.276 72.3331 105.365 73.4138C107.618 75.6502 107.64 75.7114 106.671 77.0008C106.351 77.4266 105.795 78.3686 105.437 79.0936C105.078 79.8189 104.544 80.7577 104.248 81.1803C103.953 81.6024 103.462 82.459 103.157 83.0835C102.852 83.7081 102.47 84.3766 102.307 84.5696C102.032 84.8974 101.253 86.2294 100.994 86.8182C100.931 86.9619 100.782 87.1603 100.663 87.259C100.544 87.3577 100.243 87.8417 99.9949 88.335C99.7468 88.828 99.3915 89.4601 99.2056 89.7389C99.0201 90.0181 98.7698 90.3956 98.6504 90.5779C98.5307 90.7603 98.1178 91.5528 97.7335 92.3393C97.0714 93.6931 96.7782 94.0459 96.316 94.0459C96.0458 94.0459 96.0443 90.5683 96.3132 86.3009C96.4197 84.6111 96.5341 81.1545 96.5673 78.6199C96.6067 75.6091 96.6914 73.5672 96.8115 72.731C96.9127 72.0267 97.0353 70.9947 97.0846 70.4373C97.1858 69.2862 98.2947 67.8084 99.0615 67.8026C99.0976 67.8026 99.8562 68.5187 100.747 69.3945ZM87.5118 70.5353C87.8432 70.8417 88.4012 71.2581 88.7519 71.4608C90.5815 72.519 91.0574 73.5725 90.366 75.0354C89.9173 75.9849 89.7146 76.515 89.7146 76.7395C89.7146 76.8621 89.6342 77.0773 89.5359 77.2178C89.4376 77.358 89.0672 78.0479 88.7126 78.7504C88.3579 79.4532 87.9197 80.2265 87.7391 80.4688C87.5582 80.7116 87.4102 81.0104 87.4102 81.1334C87.4102 81.2564 87.3591 81.3887 87.2966 81.4273C87.234 81.4662 87.1432 81.6568 87.0949 81.8509C86.9938 82.2581 82.1069 92.1402 81.7447 92.6696C81.3644 93.2262 81.1195 93.1622 79.5866 92.1076C78.4108 91.2994 77.4291 90.6995 76.593 90.2791C76.2408 90.1021 75.5909 89.6635 75.1487 89.3042C74.7065 88.9453 73.7273 88.3293 72.9727 87.9357C72.2176 87.5421 71.4108 87.0563 71.1795 86.8565C70.9486 86.6566 70.7012 86.4929 70.63 86.4929C70.5592 86.4929 70.259 86.3163 69.9626 86.1007C69.2766 85.601 67.9467 84.7301 67.2389 84.3165C65.795 83.4732 64.4437 80.5554 65.0396 79.5665C65.253 79.2119 68.6377 77.5342 69.1436 77.5321C69.2008 77.5317 69.9229 77.1928 70.7484 76.7785C71.5738 76.3645 72.6506 75.8722 73.141 75.6846C73.6312 75.4972 74.2053 75.267 74.4166 75.1726C74.9961 74.9149 77.8413 73.5647 78.0955 73.4274C78.2178 73.3612 78.3936 73.3069 78.4862 73.3069C78.5792 73.3069 79.1705 73.0552 79.8004 72.7478C80.4303 72.44 81.4062 72.0242 81.9696 71.824C82.923 71.4848 85.2728 70.3472 85.5477 70.0916C85.9159 69.7492 86.9019 69.9719 87.5118 70.5353ZM94.969 72.3149C95.0355 74.2825 94.9197 85.8233 94.831 86.0561C94.604 86.6531 94.0084 87.1081 92.3429 87.9568C91.4298 88.4223 90.5368 88.9399 90.3588 89.1072C89.8512 89.583 86.1572 91.3233 85.4262 91.4305C85.074 91.482 84.7158 91.6164 84.63 91.729C84.4881 91.9153 84.4738 91.9146 84.4699 91.7201C84.4677 91.6029 84.5292 91.486 84.6064 91.4602C84.6837 91.4345 84.7791 91.0144 84.8181 90.5268C84.866 89.9291 85.004 89.4093 85.2413 88.9306C85.8244 87.7548 86.2266 86.8007 86.3224 86.3646C86.3721 86.1379 86.6037 85.5985 86.8372 85.1663C87.0706 84.7341 87.6998 83.4878 88.2353 82.3964C88.7708 81.305 89.2642 80.3255 89.3317 80.22C89.3997 80.1146 89.5348 79.855 89.6324 79.6438C89.9395 78.9792 91.516 75.8122 91.6401 75.6113C91.7051 75.5058 91.9886 74.9238 92.27 74.3182C92.9274 72.9022 93.6802 72.1551 94.4485 72.1551C94.7724 72.1551 94.9654 72.2144 94.969 72.3149ZM61.8801 76.7216C62.0542 76.9097 62.2322 77.2121 62.2751 77.3937C62.318 77.5753 62.4224 77.8102 62.5072 77.9157C62.5915 78.0215 62.7374 78.3092 62.831 78.5559C62.9247 78.8022 63.0702 79.0904 63.1549 79.1958C63.2393 79.3016 63.3498 79.5608 63.3998 79.7721C63.4881 80.1439 63.624 80.4899 64.1041 81.5642C64.4094 82.2481 64.5323 82.8458 64.4322 83.1615C64.3146 83.5315 61.3256 83.54 59.6612 83.175C59.0459 83.0403 57.9663 82.8894 57.2621 82.8401C56.5582 82.7911 55.7517 82.6717 55.47 82.5755C55.1883 82.479 54.814 82.3989 54.6377 82.3975C53.8995 82.3914 53.3915 82.148 53.2292 81.7222C53.1427 81.4945 52.9919 81.1266 52.8946 80.9046C52.7974 80.683 52.7173 80.4238 52.7166 80.3287C52.7162 80.2336 52.6054 79.9884 52.4706 79.7839C52.3055 79.5337 52.1961 79.0611 52.136 78.3429C52.0331 77.1063 52.1321 76.8914 52.8045 76.8914C53.0466 76.8914 53.4859 76.8314 53.7812 76.7581C54.5373 76.5697 56.8906 76.4192 59.4127 76.3978L61.563 76.3795L61.8801 76.7216ZM53.3 84.2443C53.5835 84.6769 54.0783 85.5913 54.2574 86.0128C54.3396 86.2066 54.454 86.3649 54.5115 86.3649C54.7032 86.3649 55.3002 87.5757 55.302 87.9679C55.3034 88.3461 54.9359 89.1172 54.5094 89.6292C54.3925 89.77 54.1927 90.1733 54.0654 90.5254C53.7126 91.5042 52.8503 93.252 52.5303 93.6373C52.2365 93.9912 52.1882 94.0774 51.4561 95.5506C51.2198 96.0257 50.9738 96.5008 50.9095 96.6063C50.8448 96.7117 50.7054 96.9999 50.5995 97.2466C50.4937 97.4929 50.3529 97.781 50.2864 97.8865C50.2199 97.9919 49.871 98.6833 49.511 99.4226C49.151 100.162 48.8024 100.853 48.7363 100.959C48.6698 101.065 48.524 101.353 48.4117 101.599C47.5473 103.497 46.9678 103.286 43.3007 99.7429C41.9165 98.4048 40.7178 97.2873 40.6377 97.2594C40.3135 97.1457 38.146 95.1577 35.2493 92.3178C34.8182 91.8953 34.135 91.3229 33.7307 91.0459C32.6343 90.2944 32.6128 89.5913 33.6771 89.296C33.9752 89.213 34.4657 89.0672 34.7674 88.9714C35.0691 88.8756 35.4724 88.7955 35.6636 88.7934C35.8549 88.7908 36.2992 88.6475 36.6514 88.4745C37.0035 88.3011 37.3628 88.1588 37.45 88.1584C37.5998 88.157 39.2067 87.6948 41.0678 87.1171C41.5257 86.9752 42.1306 86.8 42.4123 86.7281C42.6937 86.6563 43.414 86.4572 44.0124 86.2859C44.6109 86.1147 45.4174 85.8866 45.8045 85.7794C46.1917 85.6721 46.768 85.4973 47.0847 85.3908C47.4018 85.2842 47.9527 85.1244 48.3091 85.0354C48.6655 84.9464 49.0284 84.8291 49.1156 84.7755C50.1377 84.1438 52.9965 83.781 53.3 84.2443ZM58.9905 84.0523C61.3625 84.3701 62.1407 84.501 62.2798 84.6054C62.5232 84.7884 62.2183 85.3 61.7582 85.4794C60.956 85.7922 60.4484 86.0064 59.7877 86.3102C59.4167 86.4811 59.042 86.623 58.9555 86.6252C58.869 86.6277 58.568 86.741 58.2863 86.8768C57.9685 87.0306 57.4959 87.126 57.0394 87.1285L56.3047 87.1328L55.835 86.3967C55.5769 85.9921 55.2619 85.508 55.1354 85.3214C54.8544 84.9074 54.7128 84.3834 54.8122 84.1249C54.898 83.9011 57.5223 83.8557 58.9905 84.0523ZM66.9633 85.8537C67.1431 85.9949 67.7987 86.3764 68.4207 86.7013C69.0428 87.0266 69.667 87.3963 69.8078 87.5228C69.9487 87.6494 70.496 87.9961 71.024 88.2932C71.552 88.5899 72.2505 89.0547 72.5759 89.3257C72.9015 89.5963 73.4835 89.9838 73.8692 90.1868C74.2553 90.3899 74.9682 90.8142 75.454 91.1299C75.9395 91.4459 76.7395 91.9171 77.2321 92.1773C78.9981 93.1104 79.4968 94.185 78.4834 94.8735C78.2206 95.0519 77.9024 95.1981 77.7763 95.1981C77.6501 95.1981 77.2189 95.3132 76.8182 95.4541C76.4174 95.5949 75.9724 95.7122 75.8294 95.7143C75.686 95.7169 75.3382 95.8302 75.0568 95.9664C74.7751 96.1022 74.4509 96.2155 74.3361 96.218C74.2217 96.2202 73.9046 96.3182 73.6322 96.4351C73.3595 96.5523 72.7907 96.7217 72.3681 96.8115C71.621 96.9702 70.925 97.1736 69.7438 97.5783C69.4271 97.687 68.9398 97.8325 68.661 97.9018C68.3818 97.9712 68.094 98.0763 68.0207 98.1353C67.9474 98.1943 67.551 98.3119 67.1395 98.3962C66.728 98.4806 66.1968 98.6311 65.9594 98.7301C65.7221 98.8295 65.371 98.9107 65.1797 98.9107C64.9885 98.9107 64.5978 99.0229 64.3114 99.1605C64.0254 99.2978 63.5607 99.4691 63.279 99.5409C62.9973 99.6128 62.1908 99.8734 61.4869 100.121C60.7826 100.368 60.0741 100.571 59.9121 100.573C59.7502 100.574 59.4603 100.656 59.2676 100.756C59.0753 100.855 58.6892 100.974 58.41 101.02C58.1308 101.065 57.6432 101.206 57.3261 101.333C56.2665 101.756 54.7049 102.242 54.4075 102.24C54.2456 102.24 53.9574 102.318 53.7673 102.413C53.5771 102.509 53.1727 102.626 52.8685 102.672C52.5643 102.719 52.19 102.837 52.0363 102.934C51.6531 103.177 50.8122 103.289 50.3493 103.159C49.4895 102.917 49.7587 102.043 52.1871 97.1954C53.359 94.856 54.3753 92.824 54.4458 92.68C56.6525 88.1645 57.0626 87.7216 59.5193 87.1957C59.7566 87.145 60.0945 87.0306 60.2707 86.9416C60.4466 86.8529 61.0804 86.5884 61.6788 86.3538C62.2773 86.1197 62.9111 85.8537 63.087 85.7629C63.6558 85.4705 66.5625 85.538 66.9633 85.8537ZM29.168 86.2398C29.3096 86.3159 29.4987 86.6652 29.616 87.0695C29.7279 87.4538 29.868 87.7985 29.9277 87.8353C29.9874 87.8721 30.0725 88.1181 30.1172 88.3819C30.2048 88.901 30.8751 90.0775 31.0828 90.0775C31.1532 90.0775 31.2089 90.3799 31.2064 90.7495C31.2022 91.4645 31.0173 91.7115 30.3202 91.9321C30.1472 91.9868 29.4923 92.3811 28.8642 92.8083L27.7224 93.5851L26.3889 93.5708C25.6553 93.563 24.9858 93.499 24.9007 93.4282C24.8152 93.3578 24.3423 93.0904 23.8497 92.8337C23.3567 92.577 22.7625 92.1659 22.5291 91.9192L22.1051 91.4717L22.1452 89.2277C22.1945 86.4793 21.9875 86.7113 24.8095 86.2394C25.6965 86.0911 28.8906 86.0914 29.168 86.2398ZM94.4213 92.6936C94.4399 94.801 94.4088 96.572 94.3523 96.6284C94.1246 96.8562 92.0569 96.7793 91.2926 96.5144C89.9942 96.065 88.3068 95.6146 86.5784 95.2564C85.0941 94.9486 84.8538 94.7709 84.8538 93.9819C84.8538 93.3782 84.9253 93.2495 85.3922 93.0096C85.5849 92.9106 86.3628 92.5155 87.1207 92.1316C87.8785 91.7473 88.7455 91.245 89.0472 91.0151C89.3489 90.7853 89.8651 90.466 90.1944 90.3052C90.9172 89.9527 91.048 89.8862 92.202 89.2878C92.9281 88.911 93.2337 88.8223 93.7471 88.8395L94.3874 88.8613L94.4213 92.6936ZM98.6662 95.3851C98.8653 95.4881 99.5681 96.0722 100.228 96.6835C100.888 97.2944 101.729 97.9887 102.097 98.2261C102.786 98.6715 103.095 99.0637 102.985 99.3522C102.903 99.5656 101.214 99.4766 100.66 99.2295C100.449 99.1355 100.103 99.0168 99.892 98.9664C99.6807 98.9157 99.2943 98.7673 99.0329 98.6365C98.772 98.5056 98.4263 98.3952 98.265 98.3912C98.1038 98.3869 97.6548 98.2286 97.2677 98.0391L96.5638 97.6945L96.6095 97.1182C96.7225 95.6961 97.6906 94.8807 98.6662 95.3851ZM85.8101 96.0107C86.0214 96.1262 86.2849 96.2209 86.3957 96.2216C86.5065 96.222 87.0785 96.3664 87.6665 96.5423C88.2546 96.7182 88.9128 96.8626 89.129 96.863C89.3457 96.8637 89.6757 96.9437 89.8623 97.041C90.0492 97.1386 90.4006 97.2841 90.6437 97.3642C91.4155 97.6191 91.4595 98.9107 90.6963 98.9107C90.6119 98.9107 90.3281 99.0258 90.0653 99.1666C89.8026 99.3075 89.513 99.4226 89.4222 99.4226C89.331 99.4226 89.0286 99.5413 88.7497 99.6861C88.1231 100.011 87.4149 100.281 86.5784 100.511C85.7905 100.727 84.5389 101.165 83.9987 101.414C83.7767 101.516 83.4886 101.599 83.3585 101.6C83.2283 101.6 82.957 101.687 82.7557 101.791C82.5545 101.896 82.0937 102.066 81.7315 102.168C80.9493 102.388 79.9655 102.708 79.3453 102.943C78.6871 103.193 77.7051 103.515 76.9769 103.72C76.6248 103.819 76.1986 103.973 76.0299 104.062C75.8562 104.153 75.2731 104.223 74.6858 104.223H73.6483L73.6079 103.727C73.5629 103.178 77.7287 98.7523 79.3453 97.6309C79.7324 97.3624 80.3087 96.8726 80.6254 96.5423C80.9422 96.212 81.3168 95.8899 81.4577 95.8262C81.907 95.6232 85.3697 95.7701 85.8101 96.0107ZM77.8059 97.3184C77.7022 97.5915 71.3028 104.081 70.1771 105.055C69.0499 106.03 69.6216 105.947 64.3164 105.904C60.6325 105.874 59.3366 105.82 58.5422 105.664C57.9792 105.552 56.9368 105.426 56.2257 105.382C55.515 105.338 54.5645 105.199 54.1133 105.072L53.2936 104.841L53.255 104.323C53.2067 103.676 53.5953 103.319 54.4869 103.189C54.8165 103.142 55.2011 103.039 55.342 102.962C55.4828 102.885 55.8861 102.755 56.2382 102.674C56.876 102.527 57.2009 102.422 58.4143 101.97C58.7664 101.839 59.2561 101.696 59.5025 101.652C59.9665 101.57 61.1884 101.221 62.1908 100.885C63.5382 100.432 66.0703 99.6996 66.8567 99.5348C67.2049 99.4616 67.6067 99.3203 67.7494 99.2202C67.892 99.1205 68.1276 99.0386 68.2731 99.0386C68.4186 99.0386 68.7657 98.9192 69.0449 98.7734C69.3238 98.6279 70.0702 98.3655 70.704 98.191C72.3345 97.742 73.9668 97.2569 74.4166 97.0878C74.8931 96.9087 77.4095 96.7625 77.709 96.8966C77.8853 96.9756 77.9046 97.0592 77.8059 97.3184ZM95.0666 99.2042C95.2182 99.3657 95.4109 99.6939 95.4945 99.9338C95.5782 100.174 95.8384 100.71 96.0729 101.125C96.3078 101.54 96.5015 101.917 96.5037 101.963C96.5058 102.009 96.6492 102.335 96.8226 102.687C97.001 103.05 97.1379 103.556 97.1386 103.854C97.1393 104.185 97.2348 104.501 97.3956 104.706C97.9104 105.361 97.5998 105.798 97.0274 105.225C96.8283 105.026 96.4411 104.655 96.1666 104.401C94.2183 102.595 92.275 100.442 92.275 100.09C92.275 99.1963 94.4195 98.5156 95.0666 99.2042ZM98.0491 99.5413C98.4996 99.6038 99.1273 99.7447 99.444 99.8551C99.7608 99.9653 100.567 100.197 101.236 100.37C105.996 101.599 106.548 102.217 104.683 104.223C104.421 104.505 104.004 105.052 103.756 105.439C103.509 105.827 103.138 106.324 102.932 106.544C102.727 106.765 102.403 107.211 102.212 107.536C101.22 109.229 100.789 109.088 99.714 106.72C99.6342 106.544 99.4065 106.103 99.2081 105.74C99.0097 105.378 98.684 104.629 98.4846 104.076C98.2851 103.523 98.0159 102.871 97.8868 102.625C97.7574 102.38 97.6519 102.143 97.6519 102.099C97.6519 102.054 97.4214 101.599 97.1397 101.087C96.858 100.574 96.6277 100.053 96.6277 99.9274C96.6277 99.5091 96.7775 99.2842 97.0081 99.3575C97.1304 99.3965 97.599 99.4791 98.0491 99.5413ZM45.2658 103.317C46.4394 104.518 46.4115 105.102 45.1675 105.375C44.9644 105.419 44.7296 105.539 44.6455 105.64C44.5619 105.741 44.4375 105.823 44.3696 105.823C44.2126 105.823 41.5379 107.129 41.4517 107.248C41.3245 107.423 40.0632 107.584 39.9228 107.444C39.6568 107.178 40.0032 106.322 40.7368 105.435C40.884 105.257 41.2337 104.66 41.5132 104.109C41.8443 103.457 42.2364 102.914 42.6368 102.554L43.2517 102.001L43.7972 102.187C44.1726 102.315 44.6309 102.668 45.2658 103.317ZM106.677 104.287C106.811 104.709 106.63 105.026 106.02 105.437C105.051 106.092 105.072 105.816 106.094 104.447C106.455 103.964 106.565 103.934 106.677 104.287ZM80.0813 104.526C80.2397 104.727 80.5486 105.23 80.7677 105.645C80.9872 106.06 81.2396 106.486 81.329 106.592C81.4184 106.697 81.5335 106.921 81.5849 107.09C81.6361 107.258 81.8416 107.661 82.0415 107.986C82.2413 108.31 82.5162 108.813 82.6528 109.103C82.789 109.394 82.9649 109.671 83.0431 109.719C83.2362 109.838 83.2226 109.993 82.9995 110.216C82.8969 110.319 82.7096 110.571 82.5834 110.777C81.1649 113.089 81.0469 113.164 79.7932 112.547C79.4414 112.374 79.0654 112.231 78.9577 112.229C78.8501 112.226 78.6485 112.147 78.5095 112.052C78.3708 111.957 78.0844 111.837 77.8731 111.787C77.3262 111.657 76.1747 111.08 76.1075 110.902C76.076 110.82 76.1068 109.571 76.1758 108.128C76.3173 105.157 76.3606 105.049 77.4888 104.857C77.7705 104.809 78.1101 104.712 78.2438 104.642C78.4337 104.542 79.2459 104.288 79.7292 104.176C79.7646 104.168 79.923 104.326 80.0813 104.526ZM51.0471 106.036C51.2041 106.178 51.0099 108.452 50.7865 109.088C50.6517 109.472 50.5413 109.9 50.5413 110.04C50.5413 110.386 50.0444 111.624 49.8599 111.738C49.5471 111.931 49.141 110.762 48.9379 109.083C48.8872 108.663 48.7724 108.09 48.6834 107.808C48.4131 106.956 48.3413 106.198 48.5114 105.993C48.6541 105.822 50.8505 105.859 51.0471 106.036ZM47.4837 106.848C47.6109 107.305 47.78 108.17 47.8594 108.768C47.9387 109.367 48.0782 110.086 48.1693 110.368C48.2605 110.65 48.3559 111.658 48.382 112.609L48.4289 114.337L48.1089 114.374C47.7528 114.416 39.7022 110.472 39.4001 110.108C38.9961 109.621 40.5105 108.562 43.1802 107.464C43.3915 107.377 43.8988 107.118 44.3074 106.888C44.716 106.658 45.2629 106.411 45.5235 106.339C45.7838 106.267 46.083 106.149 46.1888 106.078C46.764 105.69 47.2406 105.973 47.4837 106.848ZM40.4279 112.102C40.4279 112.16 40.5577 112.246 40.716 112.293C41.026 112.386 43.3118 113.445 43.6281 113.643C43.734 113.709 43.9642 113.826 44.1404 113.903C44.3163 113.981 44.5469 114.096 44.6523 114.159C44.7582 114.223 45.0291 114.37 45.2551 114.486C45.9597 114.851 45.6097 114.939 43.838 114.844C41.7703 114.732 41.6187 114.657 40.7182 113.295C40.6317 113.164 40.4147 112.837 40.2359 112.568C40.0575 112.299 39.9431 112.028 39.9817 111.965C40.0632 111.834 40.4279 111.945 40.4279 112.102Z" fill="#313B44"/>
</svg>
