<svg width="182" height="169" viewBox="0 0 182 169" fill="none" xmlns="http://www.w3.org/2000/svg">
<path fill-rule="evenodd" clip-rule="evenodd" d="M71.6137 0.150436C71.103 0.240195 70.3608 0.449441 69.964 0.61581C69.5667 0.782178 68.6391 0.985136 67.9021 1.06746C67.1645 1.14922 66.3296 1.33102 66.0463 1.47109C65.7624 1.61173 64.9102 1.78725 64.1525 1.861C63.3941 1.93532 62.3853 2.13199 61.9097 2.29836C61.4347 2.4653 60.8266 2.60137 60.5589 2.60137C59.9854 2.60137 59.1551 3.74365 58.9242 4.85048C58.8424 5.24268 58.6564 5.74979 58.5119 5.97619C57.7495 7.17049 57.7254 10.2177 58.471 11.1508C58.5845 11.2931 59.3629 12.7618 60.2013 14.4158C61.0397 16.0698 61.8671 17.5774 62.0393 17.7666C62.9525 18.7688 62.5822 20.6538 61.2907 21.5782C59.7257 22.6976 58.8292 23.5192 58.8292 23.8336C58.8292 23.9994 56.6192 26.3612 53.9176 29.0814C51.2159 31.8021 47.996 35.0643 46.7621 36.3307C44.1468 39.0154 43.8842 39.1086 42.4839 37.8526C42.0042 37.4226 41.2874 36.8561 40.89 36.5942C40.4933 36.3318 39.0089 34.9837 37.5913 33.5973C34.1353 30.2185 33.3597 30.039 28.2092 31.4237C27.7554 31.5454 26.8635 31.7473 26.2267 31.8725C24.5747 32.1966 23.9321 33.0262 23.6528 35.1964C23.5762 35.7921 23.3908 36.5216 23.2406 36.8166C22.7695 37.7428 22.3694 40.79 22.6504 41.3109C22.9026 41.7797 24.6334 42.5778 26.2503 42.9717C26.7604 43.0957 27.2723 43.2696 27.3869 43.3576C27.5021 43.4456 28.0589 43.6297 28.6243 43.7669C29.1897 43.9047 29.9089 44.1448 30.2222 44.3009C30.536 44.457 31.1855 44.6645 31.6657 44.7623C33.9557 45.2277 35.284 45.6765 35.9341 46.203L36.6412 46.7759L35.6715 47.8467C35.1384 48.4355 34.3017 49.2211 33.8117 49.5921C32.7108 50.4268 31.0306 53.7033 30.4542 56.1388C30.3742 56.4767 30.1951 56.9369 30.0552 57.1622C29.9158 57.3874 29.7368 57.9403 29.6573 58.3908C29.5778 58.8413 29.4316 59.3072 29.3325 59.4261C29.2335 59.5451 29.0176 60.1442 28.8523 60.7571C28.4458 62.2687 28.0364 63.3595 27.5136 64.3286C27.2723 64.7751 27.0719 65.2805 27.0679 65.4508C27.0645 65.6212 26.8819 66.1295 26.6625 66.58C26.4437 67.0305 26.2612 67.6193 26.2572 67.8881C26.2537 68.1573 26.0729 68.7565 25.857 69.219C25.3958 70.2046 24.6012 72.6213 24.5994 73.0432C24.5989 73.2044 24.4676 73.5846 24.3081 73.8887C24.148 74.1923 23.8682 74.9504 23.6862 75.573C23.2118 77.1927 21.5794 77.6718 19.4886 76.8045C19.0971 76.6421 18.3013 76.5055 17.7198 76.5003C17.1382 76.4958 16.2912 76.3471 15.8375 76.171C15.3837 75.9944 14.4561 75.7594 13.7755 75.6485C13.0949 75.537 11.9813 75.2803 11.3013 75.0768C7.95358 74.0774 5.64518 74.1546 3.8314 75.3266C3.06328 75.8229 2.20246 76.3734 1.91916 76.5489C0.450869 77.4608 0.332255 77.7049 0.141088 80.213C0.0437778 81.4977 -0.017835 82.7331 0.00462129 82.9584C0.0270776 83.1836 0.141088 84.9342 0.257976 86.8483C0.444536 89.9058 0.773319 92.211 1.26621 93.9118C1.42858 94.4732 3.50435 94.5579 6.2492 94.1142C8.51613 93.7477 12.8588 93.5139 18.0889 93.4762L23.4334 93.4379L23.9021 94.0216C24.1601 94.3429 24.6662 95.5321 25.0267 96.664C25.3877 97.7966 25.7534 98.8148 25.8397 98.9275C25.9255 99.0401 26.0942 99.5946 26.214 100.16C26.3338 100.725 26.5762 101.462 26.7524 101.798C26.9286 102.134 27.0737 102.546 27.0748 102.715C27.076 102.884 27.2648 103.328 27.4952 103.704C27.7249 104.078 28.1026 104.999 28.3347 105.751C28.5661 106.502 28.9289 107.577 29.1402 108.141C29.3521 108.703 29.6325 109.578 29.7638 110.086C29.8951 110.592 30.0765 111.099 30.1669 111.211C30.2573 111.324 30.426 111.738 30.5412 112.133C30.6569 112.527 31.0841 113.629 31.4906 114.582C32.5841 117.145 32.4747 118.479 31.1711 118.479C30.8613 118.479 30.346 118.579 30.027 118.701C29.7074 118.823 28.2673 119.053 26.8255 119.214C20.7151 119.89 20.992 119.617 20.992 124.987C20.992 130.248 20.7773 129.921 25.8046 132.286C26.4098 132.571 27.1779 133.032 27.5119 133.311C29.2364 134.752 32.0929 133.906 36.2347 130.727C38.4838 129.001 38.8937 129.095 41.9651 132.043C42.9531 132.992 44.1197 134.014 44.5568 134.315C44.9944 134.616 46.83 136.295 48.6369 138.046C50.4438 139.797 52.2927 141.466 52.7464 141.754C54.7749 143.042 55.1187 143.84 54.2642 145.275C53.5157 146.531 52.7838 147.634 52.4142 148.063C52.2201 148.288 51.6737 149.21 51.1998 150.111C50.7265 151.011 50.1789 151.933 49.9825 152.158C49.6607 152.528 49.1966 153.204 48.6248 154.136C48.5102 154.323 48.1239 154.89 47.7669 155.395C46.3227 157.439 46.3475 157.989 47.9908 160.351C48.6167 161.249 49.2605 162.273 49.4217 162.625C49.5829 162.978 49.811 163.325 49.9284 163.397C50.0465 163.469 50.5583 164.148 51.0662 164.906C52.561 167.137 52.5961 167.158 55.4325 167.416C56.7903 167.54 58.2879 167.727 58.7606 167.83C59.2334 167.934 61.3212 168.078 63.4005 168.152C68.0812 168.316 67.6482 168.6 68.4301 164.851C68.5942 164.063 68.8326 163.164 68.9593 162.855C69.0859 162.545 69.3099 161.715 69.4573 161.012C69.7971 159.387 70.313 157.335 70.6786 156.15C70.8352 155.643 71.0189 154.892 71.0874 154.482C71.1559 154.071 71.4018 153.495 71.6339 153.202L72.0559 152.67H75.6265C77.837 152.67 79.8143 152.782 80.8179 152.963C81.7093 153.125 83.914 153.362 85.7168 153.492C87.5202 153.621 89.1981 153.803 89.4457 153.896C89.6933 153.99 90.7701 154.127 91.8376 154.201C92.9057 154.275 94.4863 154.424 95.35 154.532C97.1361 154.756 99.3835 154.498 100.893 153.897C102.795 153.14 103.924 152.831 105.429 152.658C107.381 152.433 107.488 152.545 107.501 154.807C107.512 156.65 108.17 161.421 108.447 161.663C108.545 161.748 109.183 162.024 109.863 162.274C110.543 162.525 111.589 162.954 112.187 163.227C112.785 163.501 113.392 163.725 113.536 163.725C113.679 163.725 114.158 163.908 114.6 164.132C116.781 165.236 119.043 165.123 119.72 163.875C119.924 163.499 120.364 162.874 120.698 162.486C121.033 162.098 121.306 161.7 121.306 161.603C121.307 161.505 121.619 160.998 122.002 160.477C123.552 158.36 123.569 158.057 122.235 156.252C121.985 155.915 121.198 154.486 120.487 153.079C119.776 151.671 119.066 150.338 118.91 150.116C118.205 149.112 118.59 147.915 119.767 147.448C120.217 147.269 120.771 147.046 120.997 146.95C121.224 146.855 122.941 146.289 124.812 145.691C126.683 145.093 128.353 144.539 128.524 144.457C132.022 142.796 134.191 142.932 135.379 144.886C135.835 145.636 136.417 146.269 140.817 150.795C142.277 152.297 143.767 153.955 144.126 154.48C144.486 155.004 145.692 156.379 146.807 157.534C149.222 160.036 149.607 160.154 151.055 158.838C151.534 158.402 152.437 157.71 153.061 157.3C153.685 156.891 154.752 156.099 155.432 155.541C156.113 154.982 156.766 154.522 156.885 154.519C157.546 154.498 161.061 150.699 160.969 150.103C160.075 144.272 159.923 143.802 158.689 143.095C158.152 142.787 157.069 141.917 156.281 141.16C155.493 140.405 154.344 139.437 153.729 139.011C153.114 138.585 151.829 137.524 150.875 136.653C149.921 135.782 148.885 134.913 148.574 134.721C145.864 133.045 145.63 131.975 147.508 129.842C147.707 129.617 148.307 128.603 148.841 127.59C149.376 126.577 149.912 125.685 150.033 125.609C150.257 125.467 150.422 125.177 151.699 122.676C152.612 120.888 153.145 119.978 153.539 119.538C153.707 119.35 154.195 118.551 154.624 117.763C155.321 116.479 155.716 115.846 157.014 113.933C157.222 113.627 157.391 113.283 157.391 113.168C157.391 112.87 159.198 109.657 159.643 109.164C160.033 108.732 160.375 108.129 161.113 106.577C161.362 106.055 161.776 105.383 162.035 105.084C162.616 104.412 162.837 102.61 162.751 99.2345C162.718 97.9395 162.681 95.7287 162.67 94.3212L162.649 91.7622L165.636 91.8417C167.28 91.8851 168.904 92.0052 169.245 92.1075C169.586 92.2104 170.887 92.4803 172.134 92.7072C173.382 92.9342 174.866 93.2109 175.433 93.3212C178.946 94.0067 179.482 93.8078 179.767 91.7096C179.84 91.1756 179.981 90.4621 180.082 90.1242C180.241 89.5868 180.914 86.2732 181.723 82.0374C182.125 79.938 181.838 79.2194 179.796 77.2012L178.114 75.5393L176.774 75.4255C176.036 75.3632 172.418 75.3803 168.732 75.4632C161.248 75.6325 161.515 75.6799 161.514 74.1809C161.513 73.604 161.42 72.5784 161.308 71.9032C161.195 71.2274 161.044 69.6152 160.972 68.3203C160.883 66.7017 160.69 65.4937 160.354 64.4555C160.085 63.6248 159.865 62.8147 159.865 62.6557C159.865 62.4968 159.692 62.1166 159.481 61.8119C159.269 61.5066 158.746 60.7039 158.32 60.0287C157.893 59.353 157.439 58.648 157.312 58.4622C155.275 55.4739 154.239 53.8748 153.686 52.8629C153.317 52.1871 152.847 51.4502 152.643 51.2249C152.439 50.9997 152.028 50.3565 151.729 49.7956C151.431 49.2342 151.02 48.5893 150.817 48.3624C150.613 48.1354 150.229 47.5808 149.963 47.1303C149.697 46.6798 149.272 46.0601 149.019 45.7531C148.766 45.4461 148.316 44.7086 148.019 44.1151C147.438 42.9534 147.157 42.4995 146.07 40.9593C145.281 39.8421 144.971 38.2762 145.461 37.8806C145.615 37.7565 146.382 37.3186 147.164 36.9081C147.947 36.4982 148.932 35.891 149.353 35.56C149.774 35.229 150.526 34.7728 151.023 34.5464C151.977 34.1124 152.367 33.8866 153.37 33.1891C153.71 32.9519 154.685 32.3699 155.535 31.8942C159.62 29.6113 160.113 28.6326 158.632 25.7426C158.429 25.3447 157.974 24.1641 157.622 23.1184C156.455 19.6555 156.332 19.5229 153.385 18.5796C152.243 18.2143 151.076 17.7946 150.793 17.6471C150.509 17.5002 149.928 17.315 149.502 17.2355C149.075 17.156 148.383 16.917 147.963 16.7049C147.544 16.4923 146.955 16.3185 146.656 16.3185C146.357 16.3185 145.843 16.2253 145.514 16.1115C144.268 15.681 143.2 16.2436 142.394 17.7546C142.005 18.4847 141.54 19.2439 141.361 19.4417C140.975 19.8682 140.582 20.5251 140.289 21.2318C140.172 21.5136 139.948 21.9738 139.79 22.2557C139.313 23.1075 137.623 26.4178 137.387 26.9643C135.999 30.1751 135.183 30.6444 133.204 29.3724C132.614 28.9933 130.861 28.0603 129.308 27.2988C127.755 26.5372 126.144 25.6454 125.728 25.3172C125.312 24.9885 124.495 24.4865 123.912 24.2007C123.33 23.9148 122.714 23.6038 122.544 23.5089C122.374 23.414 121.679 23.0704 121 22.7451C120.321 22.4198 119.254 21.8338 118.629 21.4433C116.902 20.3645 116.807 20.3107 114.744 19.2771C112.105 17.9553 111.932 17.4739 113.334 15.3694C114.844 13.1037 114.85 12.3839 113.376 9.51737C112.569 7.95031 111.975 7.71762 108.633 7.66045C105.365 7.60442 105.089 7.90228 104.719 11.8894C104.438 14.9178 103.258 15.7039 98.9977 15.7044C98.396 15.7044 97.2075 15.8331 96.3571 15.9909C95.5066 16.1487 93.3261 16.3402 91.5111 16.4162C89.6968 16.4923 87.6089 16.6912 86.8719 16.8576C84.9608 17.2898 78.9443 17.3384 78.5285 16.925C78.2406 16.6398 78.0322 15.8885 77.1823 12.0821C76.9767 11.1593 76.7147 10.0999 76.6007 9.72776C76.4867 9.355 76.3393 8.60377 76.2725 8.05722C76.2063 7.51123 76.0151 6.63594 75.8482 6.11225C75.5412 5.15006 75.0639 3.2657 74.7 1.578C74.3712 0.053245 73.7661 -0.226322 71.6137 0.150436ZM72.8891 5.46736C72.9668 6.87492 73.1304 8.67181 73.253 9.45963C73.5524 11.3817 73.7632 21.8658 73.5104 22.2254C73.1626 22.7199 72.5177 22.1585 66.6722 16.2722C59.204 8.75185 59.2887 9.09373 64.2613 6.56791C65.9801 5.6949 68.3144 4.49888 69.4481 3.90944C70.7719 3.22225 71.7317 2.85063 72.129 2.8735L72.7475 2.90838L72.8891 5.46736ZM63.4304 4.52118C63.5548 4.84305 63.2058 5.26269 62.8137 5.26269C62.6692 5.26269 62.2535 5.44221 61.8901 5.66174C61.1658 6.0991 60.8911 6.04936 60.8911 5.48051C60.8911 5.00027 61.342 4.63666 62.1815 4.43885C63.1776 4.20388 63.3112 4.21302 63.4304 4.52118ZM111.875 10.1554C112.993 11.4738 112.651 13.7595 111.018 15.8874C110.376 16.7227 107.954 16.5243 106.821 15.5438C106.164 14.9749 106.407 10.1863 107.116 9.74034C107.907 9.24238 111.357 9.5431 111.875 10.1554ZM76.166 17.14C76.2806 17.8472 76.5098 18.6167 76.6744 18.8506C76.8397 19.0844 76.9738 19.5086 76.9738 19.7933C76.9733 20.078 77.1322 21.0763 77.3274 22.0116C77.7114 23.8491 77.6084 24.1692 76.6727 24.048C76.1522 23.9805 75.9973 23.3014 75.729 19.9014C75.4399 16.2464 75.7272 14.4341 76.166 17.14ZM65.8868 18.4166C66.5484 19.1204 68.3863 21.0019 69.9715 22.5976C72.5845 25.2275 72.8241 25.5287 72.5321 25.8186C72.0692 26.2783 70.0625 27.5789 69.8161 27.5789C69.5587 27.5789 68.5205 26.1193 68.5205 25.7574C68.5205 25.6122 68.3351 25.2595 68.1082 24.973C67.8814 24.6866 67.696 24.295 67.696 24.1023C67.696 23.9097 67.51 23.5855 67.2831 23.3814C67.0562 23.1779 66.8708 22.8537 66.8708 22.661C66.8708 22.4684 66.6912 22.0836 66.4712 21.8063C66.2513 21.529 66.0112 21.0625 65.9375 20.7704C65.8632 20.4777 65.6254 20.0792 65.4089 19.8848C65.1924 19.6898 65.015 19.3257 65.015 19.0758C65.015 18.8254 64.8762 18.5058 64.7058 18.3658C64.3978 18.1119 64.2665 17.1372 64.5405 17.1372C64.6194 17.1372 65.2258 17.7129 65.8868 18.4166ZM110.403 19.1805C111.353 19.6687 112.18 20.1404 112.238 20.2284C112.538 20.6732 117.805 23.4837 118.339 23.4837C118.417 23.4837 118.868 23.7993 119.342 24.1852C119.816 24.5706 121.395 25.4967 122.852 26.2434C124.309 26.99 125.757 27.815 126.07 28.0763C126.382 28.3376 127.994 29.2174 129.65 30.0315C133.024 31.6901 133.266 31.869 133.266 32.6997C133.266 33.479 133.071 33.5687 131.005 33.7402C130.037 33.8209 128.456 33.9901 127.492 34.1159C126.294 34.2731 120.661 34.3274 109.656 34.2891L93.5731 34.2325L93.5092 33.5756C93.4579 33.0502 93.6065 32.7443 94.2543 32.0405C94.6988 31.5569 95.1951 30.9057 95.3575 30.5935C95.5193 30.2808 96.8546 28.7698 98.324 27.2353C99.7941 25.7008 101.242 24.0217 101.542 23.5037C101.843 22.9863 102.888 21.7795 103.864 20.8224C104.842 19.8654 105.69 18.9272 105.751 18.7374C106.04 17.8346 108.182 18.0393 110.403 19.1805ZM146.305 19.352C146.615 19.5555 147.452 20.2799 148.164 20.9625C148.875 21.6451 149.904 22.4838 150.449 22.8268C150.993 23.1699 152.407 24.3802 153.59 25.5162C156.747 28.5468 156.661 29.0482 152.791 30.1356C152.246 30.2888 151.689 30.5026 151.554 30.6107C151.419 30.7187 150.891 30.9034 150.381 31.0206C149.87 31.1378 148.494 31.5632 147.324 31.9657C146.153 32.3676 144.871 32.6969 144.475 32.6969C144.079 32.6969 143.585 32.7872 143.378 32.8975C142.21 33.5179 142.538 27.5966 144.03 21.1294C144.587 18.7122 144.925 18.4487 146.305 19.352ZM88.1018 20.0975C88.377 20.4262 88.2458 20.476 86.4596 20.7178C85.9495 20.7864 85.346 20.9625 85.1192 21.1077C84.8923 21.2535 84.3027 21.4359 83.8086 21.513C83.3152 21.5902 82.6657 21.7777 82.3657 21.9304C80.5386 22.8583 79.254 22.2786 79.869 20.8035C80.2266 19.9471 87.4581 19.3268 88.1018 20.0975ZM101.243 20.1381C101.315 20.3244 101.243 20.6835 101.082 20.9356C99.8562 22.8571 99.0294 23.9017 97.3417 25.6614C96.2759 26.7722 95.1813 28.0037 94.9089 28.3976C94.283 29.3038 92.775 31.1212 91.7656 32.1852C91.339 32.6357 90.3659 33.7871 89.6047 34.7442C88.8429 35.7012 87.6613 37.0493 86.9784 37.7399C86.2961 38.43 85.3426 39.5357 84.8595 40.1966C84.3758 40.8575 83.2766 42.1353 82.4158 43.0357C81.5549 43.9367 80.4528 45.2723 79.9663 46.0046C79.4803 46.7364 78.5124 47.8878 77.8157 48.5636L76.5495 49.7922L74.799 49.8643C73.8363 49.9043 72.8183 49.8791 72.5373 49.8094L72.026 49.6819V46.7541C72.026 44.8092 72.1256 43.4879 72.3231 42.8173C72.4861 42.2616 72.725 41.0284 72.854 40.076C72.983 39.1235 73.1603 38.2019 73.2484 38.0287C73.3365 37.8549 73.5242 36.9756 73.6653 36.0751C73.8064 35.1741 74.0137 34.1359 74.1254 33.7683C74.2371 33.4007 74.4553 32.3407 74.6108 31.4139C75.3426 27.0484 75.8056 26.3394 78.4341 25.5625C79.2759 25.3138 80.382 24.9668 80.8922 24.7924C81.4023 24.6174 82.3305 24.3464 82.9541 24.1909C83.5777 24.0349 84.2739 23.8188 84.5007 23.7107C84.7276 23.6032 86.4441 23.0418 88.3154 22.4644C90.1868 21.8864 91.996 21.3181 92.3363 21.2009C92.6766 21.0837 93.4879 20.8704 94.1397 20.7258C94.7915 20.5817 95.441 20.369 95.5832 20.2536C96.25 19.7093 101.04 19.6121 101.243 20.1381ZM152.03 20.317C152.2 20.4582 152.757 20.6395 153.267 20.7212C154.381 20.8984 154.62 21.0722 155.138 22.0802C155.524 22.832 155.692 24.2012 155.38 24.064C154.966 23.8811 151.411 21.1734 151.411 21.0408C151.411 20.9568 151.17 20.779 150.875 20.6458C150.452 20.4542 150.388 20.3433 150.573 20.1221C150.83 19.8145 151.537 19.9088 152.03 20.317ZM65.1451 23.402C65.4279 23.4774 65.8332 24.0074 66.2789 24.8833C66.6607 25.6339 67.1121 26.4189 67.2825 26.6276C67.4858 26.8763 67.5929 27.456 67.5929 28.3078C67.5929 29.7205 67.5278 29.8154 66.0589 30.5615C65.6553 30.7668 65.0927 31.1367 64.8089 31.3837C64.5256 31.6301 63.5646 32.2121 62.6738 32.6763C61.7836 33.1399 60.8088 33.7099 60.5088 33.9421C59.8973 34.416 58.2372 35.5023 57.396 35.9796C57.092 36.1523 56.6043 36.4748 56.3135 36.696C55.6772 37.1802 55.2632 37.4661 54.1554 38.1887C53.693 38.49 52.8161 39.064 52.2057 39.4648C51.5959 39.8656 50.6401 40.411 50.0816 40.6774C49.5236 40.9438 48.9185 41.3091 48.7371 41.4887C47.3696 42.8465 44.5855 43.4371 44.437 42.4005C44.285 41.3435 45.774 39.3447 47.4035 38.4191C47.9851 38.0887 48.7192 37.4484 49.0348 36.9961C49.3503 36.5439 50.0528 35.8573 50.5952 35.4702C51.1382 35.0832 51.9714 34.2548 52.447 33.6293C52.9226 33.0039 53.3763 32.4922 53.4558 32.4922C53.8041 32.4922 55.4072 30.9154 56.1327 29.8595C56.9238 28.7075 61.8418 23.6289 62.3669 23.4214C62.7458 23.2711 64.6062 23.2585 65.1451 23.402ZM141.217 25.7586C141.031 26.3789 140.895 27.6006 140.895 28.6463C140.895 29.6988 140.779 30.7342 140.618 31.1167C140.466 31.4791 140.278 32.112 140.2 32.5231C140.123 32.9336 139.94 33.3686 139.794 33.4887C139.463 33.7614 136.61 33.9575 136.461 33.718C135.953 32.9021 139.516 25.4527 140.637 24.9856C141.006 24.8324 141.315 24.5929 141.324 24.4539C141.336 24.2675 141.366 24.2647 141.44 24.4419C141.494 24.5746 141.394 25.1674 141.217 25.7586ZM72.6421 29.521C72.9628 29.9046 72.8523 34.1439 72.5102 34.5618C72.3824 34.7184 72.1717 35.6498 72.0421 36.6314C71.912 37.613 71.6817 38.7667 71.5291 39.195C71.3771 39.6237 71.1882 40.5711 71.1099 41.3C71.031 42.0295 70.8404 43.0409 70.6855 43.5474C70.5312 44.0545 70.3452 44.9755 70.2732 45.5947C70.2013 46.2144 70.017 47.1355 69.8638 47.6426C69.7107 48.1491 69.5253 48.9324 69.451 49.3823C69.1867 50.9911 68.5435 51.5822 65.3547 53.1482C62.2045 54.6952 61.7819 54.9988 60.9573 56.3057C60.6602 56.7768 60.3153 57.2302 60.1904 57.3125C59.6883 57.6453 56.2571 57.476 55.064 57.0598C54.4191 56.8346 53.6798 56.6499 53.4218 56.6493C53.1638 56.6488 52.7021 56.5178 52.3957 56.3595C52.0894 56.2005 51.1739 55.9684 50.3614 55.8432C49.549 55.718 48.721 55.5293 48.5217 55.423C48.3225 55.3172 47.707 55.136 47.1536 55.0205C46.1097 54.8027 44.7606 54.4334 42.6428 53.7862C41.9622 53.5787 40.9183 53.2997 40.3223 53.1665C39.7269 53.0333 39.188 52.8412 39.1246 52.74C39.0619 52.6388 38.7486 52.5559 38.4291 52.5559C36.997 52.5559 37.08 50.6749 38.5563 49.6859C39.0573 49.3503 39.5191 49.0753 39.5818 49.0753C39.6452 49.0753 39.986 48.8335 40.3402 48.5379C40.6937 48.2423 41.6616 47.6809 42.4908 47.2898C43.3199 46.8994 44.2499 46.3808 44.5579 46.1384C45.4849 45.4078 46.431 44.776 46.6037 44.7732C46.6936 44.7714 47.3051 44.2735 47.9632 43.6675C48.6213 43.0609 49.4563 42.4543 49.819 42.3194C50.8693 41.9289 52.0566 41.2674 53.0308 40.5293C53.5278 40.1531 54.2481 39.7152 54.6321 39.5563C55.0156 39.3973 56.6509 38.4014 58.2649 37.3443C59.8794 36.2867 61.7065 35.1661 62.3249 34.8545C62.9433 34.5429 63.8012 34.0215 64.2319 33.6968C64.6626 33.3721 65.3801 32.8307 65.8257 32.4939C66.2714 32.1572 67.0488 31.6638 67.5532 31.3974C68.0576 31.1315 68.7871 30.6736 69.1746 30.3797C70.598 29.302 72.14 28.9201 72.6421 29.521ZM36.56 35.1667C37.9776 36.5193 39.5087 37.8703 39.9624 38.1687C41.3392 39.0743 42.5397 40.3144 42.5397 40.8306C42.5397 41.3503 39.53 44.5588 39.0158 44.5873C37.7836 44.656 35.9756 44.4947 35.5403 44.2781C35.2506 44.1334 34.6887 43.955 34.2919 43.8807C33.8952 43.8064 33.1063 43.5737 32.5392 43.3639C30.977 42.7859 30.1842 42.5172 28.8276 42.1084C26.7783 41.4904 25.177 40.9015 24.8804 40.6574C24.5039 40.347 24.5137 38.0721 24.8983 36.6C25.0624 35.9734 25.2438 35.2307 25.3019 34.9489C25.5939 33.535 27.8706 32.7289 31.6116 32.7152L33.9827 32.7072L36.56 35.1667ZM146.937 34.8465C146.914 34.9591 146.601 35.1112 146.24 35.1844C145.88 35.2576 145.519 35.4234 145.438 35.552C145.358 35.6812 144.976 35.9591 144.589 36.1689C142.407 37.3529 142.262 37.4095 142.092 37.1499C141.609 36.4141 142.155 35.923 144.504 34.9832C145.559 34.5607 147.01 34.4795 146.937 34.8465ZM136.631 37.1951C137.058 37.5924 136.472 38.8462 135.088 40.4962C134.294 41.4424 133.5 42.4932 133.324 42.831C133.147 43.1689 132.498 43.9625 131.88 44.5948C131.263 45.2271 130.603 45.9806 130.414 46.2688C130.225 46.5569 129.346 47.6517 128.461 48.702C127.576 49.7516 126.678 50.8184 126.466 51.0717C125.53 52.19 124.303 51.8532 117.995 48.7437C114.883 47.2098 112.013 45.713 111.615 45.4169C110.844 44.8423 109.049 43.9567 108.657 43.9579C108.526 43.9579 106.471 43.0031 104.09 41.8357C101.708 40.6683 99.2188 39.4602 98.559 39.1515C97.348 38.5849 96.8079 37.9303 97.0446 37.3175C97.23 36.8378 136.118 36.7172 136.631 37.1951ZM94.2951 39.0286C95.3725 39.5969 96.4861 40.16 96.7694 40.2795C97.0527 40.3984 99.9754 41.8191 103.264 43.4359C106.553 45.0527 109.917 46.6295 110.739 46.9394C113.536 47.9936 118.915 50.7979 119.178 51.3398C119.659 52.3289 119.606 53.0338 119.039 53.1922C117.483 53.6255 115.41 54.012 113.677 54.191C112.6 54.3025 111.394 54.4785 110.997 54.582C110.6 54.6855 109.211 54.881 107.909 55.0165C106.608 55.1514 105.322 55.3464 105.05 55.4487C104.779 55.5511 103.449 55.7243 102.095 55.8346C100.741 55.9444 99.4509 56.1308 99.2286 56.2491C99.0064 56.3669 97.7419 56.5573 96.4187 56.6711C95.0955 56.7854 93.4499 57.0032 92.7618 57.1559C92.0743 57.3079 90.7689 57.4938 89.862 57.5686C88.9546 57.6435 87.6884 57.8356 87.0481 57.9963C86.2322 58.201 84.647 58.2884 81.7415 58.2884H77.598L77.0326 57.4183C75.9155 55.6991 76.3099 51.3273 77.5819 51.3273C77.6861 51.3273 78.4968 50.4766 79.3836 49.4372C80.2697 48.3972 81.1455 47.3962 81.3286 47.2121C81.5123 47.028 82.0691 46.3356 82.566 45.673C83.063 45.011 83.9583 43.9779 84.5554 43.3776C85.1531 42.7767 85.7905 41.9941 85.9725 41.6373C86.155 41.2806 86.7562 40.5505 87.3095 40.0154C87.8629 39.4802 88.3154 38.9491 88.3154 38.8353C88.3154 37.4627 91.5232 37.5661 94.2951 39.0286ZM139.572 41.3469C139.949 42.4783 140.415 76.1659 140.059 76.5781C139.879 76.7879 138.843 76.2688 138.421 75.7571C137.341 74.4473 136.771 73.6589 136.771 73.4737C136.771 73.249 134.849 69.4585 134.535 69.0635C134.434 68.936 134.232 68.4632 134.088 68.0133C133.943 67.5627 133.769 67.1483 133.7 67.0917C133.632 67.0356 132.887 65.6075 132.045 63.9187C128.864 57.5349 128.463 56.7465 128.284 56.5207C127.41 55.4161 128.172 51.4713 129.518 50.1352C129.94 49.7167 130.538 48.9438 130.849 48.4184C131.159 47.8924 132.165 46.6569 133.083 45.6725C134.002 44.688 134.999 43.5074 135.299 43.0494C135.598 42.5915 135.918 42.1844 136.009 42.145C136.1 42.1055 136.505 41.7191 136.908 41.2863C137.586 40.5591 137.954 40.3738 138.869 40.3001C139.113 40.2801 139.321 40.5899 139.572 41.3469ZM144.468 42.4834C144.675 42.6693 145.077 43.309 145.361 43.9053C145.646 44.5016 146.082 45.2408 146.331 45.5484C147.147 46.5558 149.495 50.1907 149.654 50.6938C149.74 50.9648 150.193 51.7149 150.662 52.3603C151.131 53.0058 151.886 54.1452 152.339 54.8919C153.194 56.2983 153.482 56.7197 154.217 57.6413C154.457 57.9408 155.06 58.9533 155.558 59.8915C156.056 60.8291 156.648 61.7936 156.874 62.0343C157.722 62.9382 157.592 65.2668 156.64 66.2312C155.627 67.2563 154.917 68.2254 154.917 68.5821C154.917 68.7353 154.708 69.0481 154.453 69.2779C154.198 69.5071 153.847 69.8696 153.674 70.0834C153.5 70.2967 153.123 70.6551 152.835 70.8804C152.548 71.1051 152.045 71.7494 151.716 72.3125C151.388 72.8757 150.241 74.2078 149.166 75.2734L147.212 77.2115L145.915 77.2933C143.497 77.4459 143.608 77.5752 143.055 73.9505C142.738 71.8706 142.576 42.5612 142.879 42.0747C143.041 41.8134 143.993 42.0587 144.468 42.4834ZM72.9168 51.7229C73.2962 51.8664 73.5616 52.286 73.9849 53.4117C74.2946 54.2361 74.7691 55.3721 75.0397 55.937C75.3098 56.5013 75.5309 57.1027 75.5309 57.2731C75.5309 57.4434 75.6691 57.7785 75.8372 58.0174C76.3099 58.6869 76.341 62.2224 75.8787 62.6815C75.6875 62.8713 75.5309 63.1383 75.5309 63.2755C75.5309 63.4127 75.3518 63.8746 75.1319 64.3017C74.9125 64.7293 74.6315 65.5486 74.5077 66.1226C74.3839 66.6966 74.1778 67.2912 74.0499 67.4444C73.9221 67.5971 73.8087 68.1253 73.7983 68.6181C73.7637 70.1835 74.3263 70.0966 74.5837 68.4969C74.6539 68.0619 74.8002 67.7063 74.909 67.7063C75.1768 67.7063 76.0347 65.8676 76.5696 64.1479C77.4155 61.4288 78.3926 60.8417 83.2633 60.1231C84.6245 59.923 85.9236 59.7017 86.1504 59.632C86.3773 59.5622 87.6297 59.3747 88.9338 59.2158C90.238 59.0562 92.1405 58.7898 93.1608 58.6235C96.0053 58.1609 98.1162 57.8808 100.378 57.6658C101.512 57.5578 103.043 57.3354 103.78 57.1719C104.517 57.0084 106.177 56.774 107.47 56.6516C108.762 56.5287 109.968 56.3509 110.15 56.256C110.332 56.1611 111.548 55.981 112.853 55.8552C114.157 55.73 115.92 55.4825 116.77 55.3047C118.358 54.9731 124.29 54.821 125.144 55.0897C125.38 55.164 125.926 55.7529 126.358 56.3984C126.789 57.0438 127.3 57.8036 127.494 58.0878C127.688 58.3713 127.919 58.8276 128.007 59.102C128.094 59.3764 128.705 60.5821 129.364 61.781C130.023 62.9805 130.623 64.2011 130.697 64.4944C130.772 64.7877 130.962 65.1347 131.121 65.2656C131.28 65.3971 131.411 65.6081 131.411 65.735C131.412 65.8619 131.737 66.5645 132.135 67.2963C132.532 68.0287 133.139 69.2259 133.483 69.9582C134.101 71.2709 134.999 73.05 136.186 75.3129C136.956 76.781 136.976 78.702 136.226 79.0713C135.983 79.1914 135.658 79.3898 135.505 79.5121C135.351 79.6345 134.684 79.7997 134.022 79.8791C133.25 79.9718 132.674 80.1679 132.413 80.4269C132.083 80.7544 131.841 80.8059 131.126 80.6996C129.295 80.4268 128.514 81.0906 128.102 83.2705C127.964 83.9995 127.729 85.0108 127.579 85.5174C127.43 86.0245 127.249 86.8998 127.178 87.4623C126.675 91.41 125.546 92.7147 121.513 94.0039C120.287 94.3955 118.105 95.4406 117.579 95.8871C117.4 96.0392 117.157 96.1638 117.04 96.1638C116.85 96.1638 114.675 97.1306 113.883 97.5668C112.853 98.1351 111.661 98.6216 111.3 98.621C110.947 98.6204 108.911 99.5706 106.358 100.927C105.491 101.388 103.653 102.101 103.333 102.101C103.186 102.101 101.934 102.654 100.551 103.329C99.1682 104.005 97.9227 104.558 97.7833 104.558C97.5306 104.558 96.4907 105.021 93.7792 106.341C91.0246 107.682 88.7882 107.465 88.4565 105.823C88.1795 104.451 87.2536 103.644 85.509 103.25C82.6847 102.614 81.8117 102.05 81.206 100.471C80.9233 99.7347 80.3567 98.2568 79.9461 97.1872C79.5356 96.1175 79.0617 94.8277 78.893 94.3212C78.7243 93.8141 78.4991 93.2155 78.392 92.9902C78.2855 92.765 78.0673 92.0743 77.9078 91.4546C77.7483 90.8354 77.3372 89.3616 76.994 88.1793C76.6514 86.997 76.367 85.7529 76.3618 85.415C76.3572 85.0772 76.2149 84.5375 76.0457 84.2156C75.8769 83.8937 75.604 83.1568 75.4399 82.5776C74.9234 80.7573 74.4893 79.4995 74.1588 78.8638C73.8438 78.2595 73.7091 76.6627 73.6152 72.4315C73.5709 70.439 73.1517 69.5192 73.0187 71.1228C72.9484 71.9701 72.315 72.2937 71.707 71.7929C71.4024 71.5419 68.5205 66.5948 68.5205 66.3221C68.5193 65.9259 65.0139 59.2986 64.3557 58.4497C62.5655 56.1405 63.0953 55.2212 67.077 53.7279C68.1543 53.3237 69.5466 52.7434 70.1702 52.4387C70.7938 52.1339 71.536 51.8132 71.8199 51.7257C72.1031 51.6388 72.3525 51.5594 72.3732 51.5497C72.3945 51.5399 72.6386 51.6183 72.9168 51.7229ZM40.787 54.8867C41.9213 55.1989 43.4984 55.5957 44.2925 55.7678C45.0865 55.9398 45.8523 56.1742 45.994 56.2886C46.1362 56.4029 46.7857 56.6173 47.4375 56.7648C50.2756 57.408 52.6445 58.0403 54.7053 58.7064C55.3289 58.9076 56.3918 59.1917 57.0672 59.337C58.881 59.7269 59.0382 59.9596 59.0209 62.2292C59.0019 64.7105 58.9656 64.7768 57.0592 65.7904C54.8389 66.9705 51.2182 68.7296 51.0086 68.7296C50.9148 68.7296 50.7351 68.8531 50.609 69.0035C50.4829 69.1544 50.0286 69.3819 49.5996 69.51C49.1701 69.6375 48.4515 70.076 48.0029 70.4842C46.9158 71.4727 46.146 72.0055 45.8039 72.0055C45.6496 72.0055 45.1999 72.1753 44.8049 72.3834C44.4099 72.5915 43.7011 72.8219 43.2307 72.8945C41.8896 73.1026 37.9713 75.3792 37.6252 76.151C37.5878 76.2356 37.3984 76.3048 37.2049 76.3048C37.0114 76.3048 36.4898 76.4889 36.0447 76.7142C35.5996 76.9394 35.037 77.1235 34.7946 77.1235C34.2954 77.1235 32.4407 78.0371 32.1263 78.4379C31.4169 79.3417 28.1925 80.6807 26.5128 80.7699L24.8159 80.8596L24.592 80.2731C24.3449 79.6293 24.486 78.4796 24.8897 77.8404C25.0319 77.6152 25.405 76.6015 25.7194 75.5879C26.0338 74.5748 26.5134 73.0849 26.7858 72.2782C27.0581 71.471 27.2815 70.6511 27.2815 70.4568C27.2815 70.2624 27.6132 69.418 28.0191 68.5798C28.8068 66.9539 29.2433 65.6178 29.5692 63.834C29.6809 63.2246 29.9066 62.4877 30.0713 62.1961C30.236 61.9051 30.6045 60.9372 30.8907 60.0459C31.5874 57.8722 32.9002 54.9908 33.4346 54.4602C33.9487 53.9491 38.3018 54.2018 40.787 54.8867ZM62.5886 58.8516C62.763 59.0482 63.1569 59.7063 63.4632 60.3129C63.7696 60.92 64.3701 61.9331 64.7974 62.5648C65.2252 63.1966 65.9035 64.3589 66.3054 65.1467C66.7073 65.9351 67.1841 66.8561 67.3649 67.194C67.5451 67.5319 67.6936 68.1665 67.6942 68.6044C67.6954 69.1081 67.8209 69.4923 68.0363 69.6484C68.2338 69.7919 68.3115 70.0017 68.2211 70.1469C68.1059 70.3316 67.9591 70.2858 67.666 69.9737C67.4466 69.7398 67.0568 69.5483 66.8 69.5483C66.177 69.5483 65.3732 68.9349 63.2669 66.8533L61.5101 65.1164V62.4448C61.5101 58.6429 61.7358 57.8899 62.5886 58.8516ZM62.9001 68.3203C63.7523 68.996 64.5406 69.5483 64.6511 69.5483C64.9246 69.5483 66.8789 71.1068 67.2307 71.6053C67.3856 71.8254 67.6044 72.0055 67.7155 72.0055C68.6334 72.0055 72.026 76.3002 72.026 77.462C72.026 77.6146 72.2114 78.0828 72.4383 78.503C72.6651 78.9232 72.8517 79.4069 72.8523 79.5773C72.8534 79.7477 73.1822 80.8087 73.583 81.935C73.9837 83.0607 74.4495 84.4157 74.6177 84.9457C74.7858 85.4756 75.0052 85.9599 75.1048 86.0211C75.2044 86.0822 75.3472 86.6156 75.4215 87.2068C75.4958 87.7979 75.6864 88.6961 75.8447 89.2026C77.78 95.3994 78.2942 96.9642 78.555 97.4496C78.8959 98.083 79.0139 102.426 78.6984 102.702C77.7051 103.571 68.3409 104.088 66.686 103.366C66.1637 103.138 65.5977 102.894 65.4273 102.824C65.2574 102.753 64.7473 102.47 64.2935 102.195C63.8398 101.92 63.1437 101.55 62.7469 101.374C62.3502 101.198 61.6541 100.879 61.2003 100.667C60.7472 100.453 59.8656 100.135 59.2414 99.9583C58.6179 99.781 57.6436 99.4163 57.0764 99.147C55.7694 98.5255 55.2166 98.302 54.1899 97.9773C53.7362 97.8338 53.226 97.6131 53.0556 97.4867C52.8857 97.3604 52.0508 96.9116 51.1998 96.4897C50.3493 96.0678 49.5144 95.6458 49.344 95.5521C49.1741 95.4577 48.1999 95.1273 47.179 94.8169C46.1586 94.5058 44.8366 93.9467 44.2418 93.5734C43.647 93.1995 42.8581 92.7564 42.4891 92.5883C42.12 92.4197 41.6789 92.1955 41.509 92.0892C40.7772 91.6336 39.4966 91.1019 38.8281 90.9755C38.0686 90.832 37.6989 90.6799 35.5293 89.6177C33.0966 88.4268 31.102 87.3394 30.6834 86.9752C30.054 86.4281 29.317 86.0142 28.4971 85.7472C25.5731 84.7959 26.404 83.0676 30.8008 80.9545C31.8856 80.4331 33.2313 79.6465 33.7904 79.2062C35.0491 78.2149 36.4356 77.514 38.3128 76.92C40.8353 76.1213 42.4539 75.2757 44.6241 73.6223C45.0088 73.3296 45.7665 72.9711 46.3083 72.8265C46.8496 72.6819 47.3425 72.4841 47.4029 72.3869C47.4634 72.2897 47.7196 72.2102 47.973 72.2102C48.3536 72.2102 50.3355 71.2817 53.4978 69.6215C53.7978 69.4643 54.1623 69.1927 54.308 69.0189C55.0513 68.1293 57.905 67.1465 59.8316 67.1157L61.35 67.0917L62.9001 68.3203ZM157.956 68.7811C158.254 69.1561 158.457 75.5278 158.195 76.2751C157.992 76.8531 156.989 77.5328 156.339 77.5328C156.124 77.5328 156.122 77.5837 156.33 77.789C156.524 77.9816 157.856 78.0377 161.719 78.0154C167.795 77.9799 168.392 78.1972 165.433 79.368C164.809 79.6144 163.809 80.0398 163.211 80.3125C162.614 80.5852 161.987 80.8088 161.819 80.8088C161.651 80.8088 161.167 80.9928 160.744 81.2181C160.321 81.4434 159.785 81.6274 159.554 81.6274C159.322 81.6274 158.949 81.7521 158.726 81.9042C158.259 82.222 156.342 82.4862 156.014 82.2786C155.893 82.202 155.727 81.2364 155.645 80.133C155.478 77.8884 155.21 77.6415 154.732 79.2897C154.451 80.261 154.65 84.8353 155.061 86.83L155.183 87.4263L155.411 86.7277C155.856 85.3619 159.965 86.1886 161.783 88.01C162.157 88.3845 162.575 88.5886 162.969 88.5886C163.303 88.5886 163.577 88.6807 163.577 88.7933C163.577 89.0969 161.947 89.0357 161 88.6967C160.546 88.5343 159.572 88.3937 158.835 88.3839C158.097 88.3742 157.145 88.2422 156.718 88.0912C155.873 87.7916 155.702 87.882 155.874 88.5372C155.957 88.8499 156.26 89.0317 156.986 89.2044C158.228 89.5005 159.859 90.5056 159.882 90.9898C159.896 91.2688 159.888 94.6145 159.866 98.4667C159.865 98.7817 158.059 98.6164 157.574 98.2568C157.303 98.0567 156.85 97.7766 156.566 97.6348C156.283 97.493 155.511 96.8733 154.851 96.2581C154.191 95.643 153.588 95.1376 153.511 95.1347C153.434 95.1324 152.813 94.4492 152.133 93.6174C151.453 92.7856 150.658 91.9634 150.366 91.7902C149.824 91.4683 149.194 89.2278 149.455 88.552C149.515 88.3971 149.588 85.9696 149.618 83.1579C149.663 78.8484 149.725 77.9485 150.013 77.4305C150.201 77.0926 150.451 76.5632 150.569 76.2534C150.686 75.9441 150.876 75.6902 150.99 75.6902C151.232 75.6902 152.236 73.8036 152.236 73.3502C152.236 73.1815 152.786 72.5103 153.459 71.8592C154.131 71.2074 154.744 70.4213 154.821 70.1114C154.898 69.8021 155.038 69.5483 155.132 69.5483C155.225 69.5483 155.358 69.3699 155.428 69.1515C155.601 68.6113 157.59 68.3203 157.956 68.7811ZM9.43972 77.8307C9.89633 78.0743 10.6754 78.5442 11.1712 78.8758C12.2473 79.595 13.3736 80.2513 14.9093 81.0523C17.3489 82.3255 18.6209 83.3883 18.6209 84.1538C18.6209 84.6501 17.3322 85.9261 16.8273 85.9302C16.3332 85.9342 15.8104 86.2755 16.0033 86.467C16.0879 86.551 16.6419 86.4996 17.2344 86.3521C17.8269 86.2046 19.1184 86.0422 20.1047 85.9913L21.8972 85.8987L22.3291 86.7397C23.0937 88.2273 22.8669 90.7766 21.9202 91.3357C21.2103 91.7548 9.73971 92.0298 9.10863 91.6427C8.54377 91.2962 10.3691 89.4073 11.269 89.4073C11.4262 89.4073 11.7763 89.2364 12.0464 89.0277C12.317 88.819 12.8865 88.5354 13.3114 88.3977C13.7369 88.2599 14.0847 88.0724 14.0847 87.9809C14.0847 87.8888 14.4607 87.6647 14.9202 87.4823C15.8795 87.101 15.8219 86.6522 14.8338 86.8094C13.9091 86.9564 12.1823 87.579 11.8005 87.9031C11.6214 88.0546 11.3923 88.1793 11.2909 88.1793C11.1902 88.1793 9.89518 88.7733 8.41364 89.4988C5.78107 90.7891 4.22871 91.2031 3.80837 90.7274C3.55329 90.4381 3.86883 86.7506 4.24771 85.5997C4.42909 85.048 4.72044 83.9972 4.89491 83.2654C5.82829 79.3492 6.29123 77.6752 6.52328 77.3716C6.79909 77.0114 8.36412 77.2579 9.43972 77.8307ZM18.6658 77.63C19.0378 77.7964 19.7477 78.0331 20.2429 78.156C21.9139 78.5728 22.7304 80.8339 21.6882 82.158C21.4187 82.4999 18.8858 82.3575 18.4602 81.9768C18.265 81.8024 17.8505 81.5966 17.5384 81.5188C17.2269 81.4416 16.9712 81.3113 16.9712 81.229C16.9712 81.1466 16.3914 80.6996 15.6826 80.2359C13.6223 78.8867 12.9832 78.1429 13.3621 77.5351C13.5711 77.1995 17.8723 77.2767 18.6658 77.63ZM176.239 77.5843C176.9 79.9632 177.2 83.0321 177.143 86.8483L177.083 90.9429L175.845 90.8766C174.645 90.812 171.348 89.7183 169.516 88.7761C169.096 88.56 168.646 88.3839 168.516 88.3839C168.385 88.3839 167.986 88.2507 167.629 88.0878C166.916 87.7625 164.862 87.0318 163.886 86.7557C163.546 86.6597 162.9 86.3881 162.451 86.1514C162.001 85.9153 161.506 85.722 161.348 85.722C161.191 85.722 160.817 85.5946 160.516 85.4385C160.215 85.2818 159.704 85.0497 159.38 84.9211C158.873 84.7204 158.811 84.6118 158.933 84.1315C159.15 83.2734 159.337 83.1453 161.264 82.5382C162.252 82.2266 163.201 81.9059 163.371 81.8258C164.43 81.3244 168.847 79.6819 171.023 78.9798C171.318 78.8844 171.783 78.6877 172.054 78.5431C173.813 77.602 176.098 77.0783 176.239 77.5843ZM3.81471 79.7854C3.76231 81.0517 3.47038 82.4907 2.8249 84.6644C2.54506 85.606 2.20879 84.5375 1.99229 82.0214C1.71475 78.7917 1.94968 78.0634 3.23027 78.1869L3.87804 78.2498L3.81471 79.7854ZM147.963 82.6514C148.141 86.6614 147.954 87.6727 146.906 88.3393C146.086 88.8619 146.043 88.8956 144.71 90.0556C142.979 91.5621 140.499 93.9193 138.558 95.9048C136.4 98.1116 135.468 98.2425 135.026 96.3999C134.822 95.5486 134.097 93.6952 133.57 92.6792C133.136 91.8434 132.499 90.0425 131.236 86.0822C130.248 82.9841 130.369 81.4948 131.624 81.2958C132.079 81.2232 132.5 81.0843 132.561 80.9866C132.622 80.8888 133.1 80.8088 133.622 80.8088C134.145 80.8088 135.555 80.5835 136.755 80.3085C141.193 79.2909 143.2 78.9993 145.535 79.0347L147.803 79.0685L147.963 82.6514ZM179.842 81.09C179.81 82.453 179.605 83.3797 179.349 83.3214C179.055 83.2545 178.824 80.1541 179.088 79.834C179.496 79.3417 179.868 79.962 179.842 81.09ZM130.126 87.0021C130.368 87.5933 130.631 88.3531 130.711 88.6909C130.79 89.0288 131.026 89.6263 131.236 90.0185C131.445 90.4112 131.616 90.8932 131.616 91.0893C131.616 91.286 131.986 92.3671 132.437 93.4916C133.826 96.9533 132.713 97.333 129.854 94.3721L128.124 92.5809L128.127 90.5336C128.128 89.2724 128.243 88.1718 128.426 87.667C128.59 87.2171 128.725 86.6945 128.726 86.507C128.73 86.18 128.995 85.9776 129.465 85.9433C129.586 85.9342 129.883 86.411 130.126 87.0021ZM28.2092 88.0867C28.7763 88.2902 29.9003 88.8099 30.707 89.2421C31.5137 89.6737 32.8593 90.258 33.6965 90.5404C34.5343 90.8223 36.4725 91.6644 38.0036 92.4117C39.5346 93.1583 40.973 93.8421 41.1993 93.9307C41.9369 94.2188 45.7487 95.3445 45.9859 95.3445C46.1132 95.3445 46.2479 95.4257 46.2859 95.5241C46.3561 95.7082 52.0053 98.6473 52.7464 98.8857C52.9733 98.9583 53.298 99.107 53.4685 99.215C53.6383 99.3237 54.3805 99.7067 55.1175 100.066C55.8552 100.425 56.9929 100.984 57.647 101.308C58.3006 101.632 58.9956 101.896 59.1902 101.896C59.3854 101.896 60.0101 102.117 60.579 102.387C61.1479 102.658 62.2627 103.085 63.0561 103.337C63.8502 103.588 65.2154 104.196 66.0906 104.687C66.9653 105.179 67.7403 105.581 67.8123 105.581C68.8286 105.581 70.9947 110.657 70.9947 113.038C70.9947 114.375 70.6895 114.668 68.9564 114.994C68.3587 115.107 67.7622 115.265 67.6309 115.346C67.499 115.427 66.6946 115.652 65.8424 115.847C62.0548 116.712 59.694 117.453 59.0353 117.984C58.7048 118.25 56.9077 118.786 55.2206 119.122C53.9919 119.366 52.5086 119.762 51.0967 120.224C50.5301 120.41 49.5559 120.701 48.9317 120.873C48.3081 121.044 47.6926 121.269 47.5636 121.373C47.4346 121.477 46.6924 121.693 45.9139 121.853C44.2038 122.204 41.9161 122.862 41.3386 123.169C41.1071 123.292 40.0379 123.393 38.9623 123.393H37.008L36.4546 122.42C35.9341 121.506 35.7119 120.875 35.029 118.377C34.7808 117.468 34.452 116.601 33.5537 114.487C33.4104 114.149 33.225 113.603 33.1421 113.272C33.0591 112.942 32.8668 112.435 32.7148 112.147C32.5628 111.857 32.4384 111.491 32.4373 111.334C32.4367 111.175 32.2139 110.577 31.9421 110.003C31.6703 109.429 31.2995 108.603 31.1175 108.167C30.7824 107.364 29.7558 102.652 29.7558 101.918C29.7558 101.698 29.5364 101.258 29.2686 100.939C28.4677 99.9886 27.5412 98.1888 27.1779 96.8802C26.9902 96.2044 26.7046 95.3617 26.5434 95.0067C26.3821 94.6516 26.2503 94.1565 26.2503 93.9061C26.2503 93.483 25.7269 92.1235 24.786 90.1014C23.6453 87.6499 24.9133 86.9038 28.2092 88.0867ZM149.386 93.387C150.822 94.7877 152.398 96.1324 152.889 96.3753C153.404 96.6297 155.071 98.0865 156.824 99.8148C160.453 103.391 160.489 103.489 158.927 105.551C158.412 106.232 157.517 107.739 156.94 108.898C156.363 110.058 155.501 111.559 155.026 112.235C154.55 112.91 153.759 114.28 153.268 115.279C152.777 116.278 152.161 117.347 151.899 117.656C151.455 118.18 150.202 120.31 149.784 121.252C149.682 121.482 149.442 121.799 149.25 121.957C149.059 122.114 148.575 122.888 148.175 123.677C147.775 124.466 147.203 125.477 146.903 125.923C146.604 126.369 146.201 126.973 146.009 127.264C145.816 127.556 145.151 128.823 144.532 130.081C143.466 132.246 142.994 132.811 142.249 132.811C141.814 132.811 141.812 127.249 142.245 120.424C142.416 117.722 142.6 112.194 142.654 108.141C142.717 103.326 142.854 100.06 143.047 98.7228C143.21 97.5965 143.408 95.946 143.487 95.0547C143.65 93.2138 145.436 90.8503 146.671 90.8412C146.729 90.8412 147.951 91.9863 149.386 93.387ZM128.068 95.2113C128.602 95.7013 129.501 96.3673 130.066 96.6915C133.013 98.3838 133.779 100.069 132.665 102.408C131.943 103.927 131.616 104.774 131.616 105.133C131.616 105.329 131.487 105.674 131.328 105.898C131.17 106.122 130.574 107.226 130.002 108.349C129.431 109.473 128.725 110.71 128.434 111.097C128.143 111.486 127.905 111.964 127.905 112.16C127.905 112.357 127.822 112.569 127.722 112.63C127.621 112.693 127.475 112.997 127.397 113.308C127.234 113.959 119.363 129.763 118.779 130.609C118.167 131.5 117.772 131.397 115.303 129.711C113.409 128.418 111.828 127.459 110.482 126.786C109.914 126.503 108.868 125.802 108.155 125.227C107.443 124.653 105.866 123.668 104.65 123.039C103.434 122.409 102.135 121.632 101.762 121.313C101.39 120.993 100.992 120.731 100.877 120.731C100.763 120.731 100.279 120.449 99.8021 120.104C98.6972 119.305 96.5552 117.912 95.4151 117.251C93.0894 115.902 90.9129 111.236 91.8727 109.654C92.2165 109.087 97.6682 106.404 98.483 106.401C98.5751 106.4 99.7382 105.858 101.068 105.196C102.397 104.534 104.132 103.746 104.922 103.446C105.711 103.147 106.636 102.779 106.976 102.628C107.909 102.215 112.492 100.056 112.902 99.8365C113.099 99.7307 113.382 99.6438 113.531 99.6438C113.681 99.6438 114.633 99.2413 115.648 98.7497C116.662 98.2574 118.234 97.5925 119.142 97.2724C120.677 96.7298 124.462 94.9106 124.905 94.5018C125.498 93.9541 127.086 94.3103 128.068 95.2113ZM140.079 98.0573C140.187 101.204 140 119.661 139.857 120.033C139.492 120.988 138.532 121.715 135.85 123.073C134.379 123.817 132.941 124.645 132.654 124.912C131.836 125.673 125.887 128.456 124.709 128.628C124.142 128.71 123.565 128.925 123.427 129.105C123.198 129.403 123.175 129.402 123.169 129.091C123.165 128.903 123.264 128.717 123.389 128.675C123.513 128.634 123.667 127.962 123.73 127.183C123.807 126.227 124.029 125.395 124.411 124.63C125.35 122.75 125.998 121.224 126.153 120.526C126.233 120.164 126.606 119.301 126.982 118.61C127.358 117.919 128.371 115.926 129.234 114.18C130.096 112.435 130.891 110.868 131 110.7C131.109 110.531 131.327 110.116 131.484 109.778C131.979 108.715 134.518 103.65 134.718 103.329C134.822 103.16 135.279 102.23 135.732 101.261C136.791 98.9966 138.004 97.8018 139.241 97.8018C139.763 97.8018 140.074 97.8967 140.079 98.0573ZM86.7838 105.105C87.0642 105.406 87.351 105.889 87.4201 106.18C87.4891 106.47 87.6573 106.846 87.7938 107.014C87.9296 107.184 88.1646 107.644 88.3154 108.038C88.4663 108.432 88.7006 108.893 88.8371 109.062C88.973 109.231 89.1509 109.645 89.2315 109.983C89.3738 110.578 89.5926 111.131 90.3659 112.849C90.8576 113.943 91.0557 114.899 90.8945 115.404C90.705 115.995 85.8907 116.009 83.2098 115.425C82.2188 115.21 80.4799 114.969 79.3456 114.89C78.2118 114.811 76.9128 114.62 76.4591 114.467C76.0053 114.312 75.4025 114.184 75.1186 114.182C73.9296 114.172 73.1114 113.783 72.85 113.102C72.7106 112.738 72.4676 112.149 72.311 111.794C72.1544 111.44 72.0254 111.025 72.0243 110.873C72.0237 110.721 71.8452 110.329 71.6281 110.002C71.3621 109.602 71.1859 108.846 71.0892 107.698C70.9233 105.72 71.0828 105.376 72.1659 105.376C72.5557 105.376 73.2634 105.28 73.739 105.163C74.9568 104.862 78.7473 104.621 82.8096 104.587L86.2731 104.558L86.7838 105.105ZM72.964 117.135C73.4206 117.827 74.2175 119.29 74.506 119.964C74.6384 120.273 74.8227 120.527 74.9154 120.527C75.224 120.527 76.1856 122.463 76.1885 123.09C76.1908 123.695 75.5988 124.928 74.9119 125.747C74.7236 125.972 74.4017 126.617 74.1968 127.18C73.6284 128.746 72.2396 131.541 71.7243 132.157C71.251 132.723 71.1732 132.861 69.994 135.217C69.6134 135.977 69.2172 136.737 69.1136 136.905C69.0094 137.074 68.7848 137.535 68.6144 137.929C68.4439 138.323 68.2171 138.784 68.11 138.952C68.0029 139.121 67.4409 140.227 66.861 141.409C66.2812 142.591 65.7198 143.697 65.6133 143.866C65.5062 144.035 65.2712 144.496 65.0904 144.89C63.6982 147.924 62.7648 147.588 56.8582 141.921C54.6287 139.781 52.698 137.994 52.569 137.95C52.0468 137.768 48.5557 134.589 43.89 130.047C43.1956 129.371 42.0952 128.456 41.444 128.013C39.678 126.811 39.6434 125.686 41.3576 125.214C41.8378 125.082 42.6278 124.848 43.1138 124.695C43.5998 124.542 44.2493 124.414 44.5573 124.41C44.8654 124.406 45.5811 124.177 46.1483 123.9C46.7154 123.623 47.2941 123.396 47.4346 123.395C47.6759 123.393 50.2641 122.654 53.2617 121.73C53.9993 121.503 54.9736 121.223 55.4273 121.108C55.8805 120.993 57.0407 120.674 58.0046 120.4C58.9685 120.127 60.2675 119.762 60.8911 119.59C61.5147 119.419 62.4429 119.139 62.9531 118.969C63.4638 118.798 64.3511 118.543 64.9252 118.401C65.4993 118.258 66.0837 118.071 66.2242 117.985C67.8704 116.975 72.4751 116.394 72.964 117.135ZM82.1296 116.828C85.95 117.337 87.2036 117.546 87.4275 117.713C87.8197 118.005 87.3285 118.824 86.5874 119.111C85.2953 119.611 84.4777 119.953 83.4136 120.439C82.8159 120.713 82.2125 120.94 82.0732 120.943C81.9338 120.947 81.449 121.128 80.9953 121.345C80.4834 121.591 79.7222 121.744 78.9869 121.748L77.8036 121.755L77.047 120.578C76.6312 119.93 76.124 119.156 75.9201 118.858C75.4675 118.196 75.2395 117.358 75.3996 116.944C75.5378 116.587 79.7648 116.514 82.1296 116.828ZM94.9711 119.709C95.2608 119.935 96.3168 120.545 97.3187 121.065C98.3206 121.585 99.3259 122.176 99.5528 122.379C99.7797 122.581 100.661 123.135 101.512 123.611C102.362 124.085 103.487 124.828 104.011 125.262C104.536 125.694 105.473 126.314 106.094 126.639C106.716 126.964 107.864 127.642 108.647 128.147C109.429 128.652 110.718 129.406 111.511 129.822C114.356 131.314 115.159 133.033 113.526 134.134C113.103 134.419 112.591 134.653 112.387 134.653C112.184 134.653 111.49 134.837 110.844 135.063C110.199 135.288 109.482 135.475 109.252 135.479C109.021 135.483 108.46 135.664 108.007 135.882C107.554 136.099 107.031 136.28 106.846 136.284C106.662 136.288 106.151 136.444 105.713 136.631C105.273 136.819 104.357 137.09 103.677 137.233C102.473 137.487 101.352 137.812 99.4497 138.46C98.9396 138.633 98.1547 138.866 97.7056 138.977C97.2559 139.088 96.7924 139.256 96.6744 139.35C96.5563 139.445 95.9178 139.633 95.255 139.768C94.5923 139.903 93.7366 140.143 93.3543 140.302C92.9719 140.461 92.4065 140.59 92.0984 140.59C91.7904 140.59 91.161 140.77 90.6998 140.99C90.2392 141.21 89.4906 141.483 89.0369 141.598C88.5832 141.713 87.2842 142.13 86.1504 142.526C85.0161 142.921 83.8748 143.246 83.614 143.248C83.3532 143.25 82.8862 143.382 82.5758 143.542C82.266 143.701 81.6442 143.89 81.1945 143.964C80.7448 144.036 79.9594 144.261 79.4486 144.464C77.742 145.141 75.2269 145.918 74.7478 145.915C74.487 145.914 74.0229 146.039 73.7165 146.192C73.4102 146.345 72.759 146.532 72.269 146.606C71.779 146.681 71.1761 146.869 70.9285 147.024C70.3112 147.413 68.957 147.592 68.2113 147.385C66.8265 146.998 67.2601 145.6 71.1715 137.847C73.059 134.106 74.696 130.856 74.8094 130.626C78.3638 123.405 79.0243 122.696 82.9812 121.855C83.3635 121.774 83.9077 121.591 84.1915 121.449C84.4748 121.307 85.4957 120.884 86.4596 120.509C87.4235 120.135 88.4444 119.709 88.7277 119.564C89.6438 119.096 94.3257 119.204 94.9711 119.709ZM34.095 120.327C34.323 120.448 34.6276 121.007 34.8165 121.654C34.9967 122.268 35.2224 122.819 35.3186 122.878C35.4147 122.937 35.5518 123.33 35.6238 123.752C35.7648 124.582 36.8445 126.464 37.179 126.464C37.2924 126.464 37.3823 126.948 37.3782 127.539C37.3713 128.682 37.0736 129.077 35.9508 129.43C35.6721 129.518 34.6173 130.148 33.6056 130.831L31.7665 132.074L29.6187 132.051C28.4372 132.038 27.3587 131.936 27.2216 131.823C27.084 131.71 26.3222 131.282 25.5288 130.872C24.7348 130.461 23.7778 129.804 23.4018 129.409L22.7189 128.694L22.7834 125.105C22.8628 120.71 22.5294 121.081 27.0748 120.326C28.5034 120.089 33.6482 120.089 34.095 120.327ZM139.197 130.648C139.227 134.018 139.177 136.85 139.086 136.941C138.719 137.305 135.389 137.182 134.158 136.758C132.067 136.04 129.349 135.319 126.565 134.746C124.174 134.254 123.787 133.97 123.787 132.708C123.787 131.743 123.902 131.537 124.654 131.153C124.965 130.995 126.218 130.363 127.438 129.749C128.659 129.134 130.055 128.331 130.541 127.964C131.027 127.596 131.859 127.085 132.389 126.828C133.553 126.264 133.764 126.158 135.623 125.201C136.792 124.598 137.285 124.457 138.111 124.484L139.143 124.519L139.197 130.648ZM146.034 134.952C146.355 135.117 147.487 136.051 148.55 137.029C149.614 138.006 150.968 139.116 151.56 139.496C152.671 140.208 153.169 140.835 152.99 141.296C152.858 141.638 150.138 141.495 149.246 141.1C148.906 140.95 148.349 140.76 148.009 140.68C147.669 140.598 147.046 140.361 146.625 140.152C146.205 139.943 145.648 139.766 145.388 139.76C145.129 139.753 144.405 139.5 143.782 139.197L142.648 138.645L142.722 137.724C142.904 135.45 144.463 134.146 146.034 134.952ZM125.327 135.953C125.668 136.137 126.092 136.289 126.271 136.29C126.449 136.291 127.37 136.522 128.318 136.803C129.265 137.084 130.325 137.315 130.673 137.316C131.022 137.317 131.554 137.445 131.854 137.6C132.155 137.756 132.721 137.989 133.113 138.117C134.356 138.525 134.427 140.59 133.197 140.59C133.062 140.59 132.604 140.775 132.181 141C131.758 141.225 131.292 141.409 131.145 141.409C130.999 141.409 130.511 141.599 130.062 141.83C129.053 142.351 127.912 142.781 126.565 143.149C125.296 143.496 123.28 144.196 122.41 144.594C122.052 144.756 121.588 144.89 121.379 144.891C121.169 144.891 120.732 145.03 120.408 145.197C120.084 145.365 119.341 145.636 118.758 145.799C117.498 146.151 115.914 146.663 114.915 147.039C113.855 147.439 112.273 147.954 111.1 148.282C110.533 148.441 109.846 148.686 109.575 148.828C109.295 148.975 108.356 149.087 107.41 149.087H105.739L105.674 148.293C105.601 147.416 112.311 140.337 114.915 138.544C115.538 138.114 116.466 137.331 116.977 136.803C117.487 136.275 118.09 135.759 118.317 135.658C119.041 135.333 124.618 135.568 125.327 135.953ZM112.435 138.044C112.268 138.481 101.961 148.859 100.148 150.416C98.3321 151.976 99.2528 151.843 90.7079 151.774C84.7742 151.727 82.687 151.64 81.4075 151.39C80.5006 151.212 78.8216 151.009 77.6763 150.94C76.5316 150.87 75.0006 150.647 74.2739 150.444L72.9536 150.075L72.8914 149.246C72.8137 148.212 73.4396 147.64 74.8756 147.433C75.4065 147.357 76.0261 147.193 76.2529 147.07C76.4798 146.946 77.1293 146.739 77.6965 146.609C78.7237 146.374 79.2471 146.206 81.2014 145.483C81.7686 145.273 82.5574 145.045 82.9541 144.975C83.7015 144.843 85.6696 144.285 87.2842 143.747C89.4544 143.024 93.5328 141.852 94.7995 141.589C95.3604 141.471 96.0076 141.246 96.2373 141.086C96.4671 140.926 96.8465 140.795 97.0809 140.795C97.3152 140.795 97.8743 140.604 98.324 140.371C98.7732 140.138 99.9754 139.719 100.996 139.44C103.623 138.721 106.252 137.946 106.976 137.675C107.744 137.389 111.797 137.155 112.279 137.369C112.563 137.496 112.594 137.63 112.435 138.044ZM140.237 141.06C140.481 141.318 140.791 141.843 140.926 142.227C141.061 142.611 141.48 143.468 141.858 144.132C142.236 144.795 142.548 145.399 142.551 145.472C142.555 145.546 142.786 146.067 143.065 146.63C143.352 147.21 143.573 148.019 143.574 148.496C143.575 149.026 143.729 149.531 143.988 149.859C144.817 150.906 144.317 151.606 143.395 150.689C143.074 150.371 142.451 149.777 142.008 149.37C138.87 146.482 135.74 143.04 135.74 142.477C135.74 141.047 139.194 139.959 140.237 141.06ZM145.041 141.599C145.766 141.699 146.777 141.924 147.287 142.101C147.798 142.277 149.097 142.647 150.174 142.924C157.84 144.89 158.73 145.878 155.725 149.087C155.304 149.537 154.632 150.412 154.233 151.032C153.834 151.651 153.237 152.446 152.906 152.799C152.575 153.152 152.053 153.865 151.746 154.385C150.148 157.092 149.454 156.867 147.722 153.079C147.594 152.798 147.227 152.093 146.907 151.512C146.588 150.933 146.063 149.735 145.742 148.851C145.421 147.967 144.987 146.923 144.779 146.531C144.571 146.138 144.401 145.759 144.401 145.689C144.401 145.618 144.029 144.89 143.576 144.071C143.122 143.251 142.751 142.417 142.751 142.216C142.751 141.547 142.992 141.188 143.364 141.305C143.561 141.367 144.316 141.499 145.041 141.599ZM60.0234 147.637C61.9137 149.558 61.8688 150.491 59.865 150.928C59.538 151 59.1597 151.19 59.0244 151.352C58.8896 151.514 58.6893 151.646 58.5798 151.646C58.3271 151.646 54.0189 153.734 53.8801 153.924C53.6752 154.204 51.6437 154.461 51.4174 154.237C50.989 153.811 51.547 152.444 52.7285 151.025C52.9658 150.739 53.5289 149.785 53.9792 148.904C54.5124 147.861 55.144 146.992 55.7889 146.417L56.7793 145.533L57.658 145.83C58.2626 146.035 59.0008 146.599 60.0234 147.637ZM158.938 149.189C159.153 149.864 158.862 150.37 157.88 151.028C156.318 152.074 156.352 151.634 157.999 149.445C158.58 148.673 158.757 148.625 158.938 149.189ZM116.1 149.571C116.355 149.892 116.853 150.697 117.206 151.361C117.559 152.024 117.966 152.706 118.11 152.874C118.254 153.043 118.439 153.401 118.522 153.671C118.604 153.94 118.935 154.585 119.257 155.104C119.579 155.623 120.022 156.427 120.242 156.891C120.461 157.355 120.745 157.798 120.871 157.876C121.182 158.067 121.16 158.314 120.8 158.671C120.635 158.835 120.334 159.238 120.13 159.568C117.845 163.265 117.655 163.385 115.636 162.399C115.07 162.122 114.464 161.892 114.29 161.889C114.117 161.886 113.792 161.758 113.568 161.606C113.345 161.454 112.884 161.264 112.543 161.183C111.662 160.974 109.808 160.052 109.7 159.767C109.649 159.636 109.698 157.639 109.81 155.331C110.038 150.58 110.107 150.407 111.924 150.1C112.378 150.023 112.925 149.869 113.141 149.756C113.446 149.597 114.755 149.19 115.533 149.012C115.59 148.999 115.845 149.251 116.1 149.571ZM69.3353 151.986C69.588 152.213 69.2754 155.85 68.9155 156.866C68.6984 157.48 68.5205 158.165 68.5205 158.39C68.5205 158.942 67.7201 160.922 67.423 161.104C66.9192 161.413 66.2651 159.544 65.938 156.858C65.8563 156.187 65.6714 155.27 65.5281 154.819C65.0928 153.456 64.977 152.245 65.2511 151.917C65.4808 151.643 69.0186 151.702 69.3353 151.986ZM63.5957 153.284C63.8006 154.015 64.073 155.398 64.2008 156.355C64.3287 157.312 64.5532 158.463 64.7001 158.914C64.8469 159.364 65.0006 160.977 65.0427 162.497L65.1181 165.26L64.6027 165.32C64.0292 165.387 51.0622 159.08 50.5756 158.498C49.925 157.719 52.3641 156.025 56.6642 154.269C57.0045 154.13 57.8215 153.715 58.4797 153.348C59.1378 152.98 60.0188 152.585 60.4385 152.47C60.8577 152.355 61.3397 152.167 61.5101 152.053C62.4366 151.433 63.2041 151.885 63.5957 153.284ZM52.2311 161.686C52.2311 161.779 52.4401 161.917 52.6951 161.992C53.1944 162.141 56.876 163.835 57.3856 164.151C57.5561 164.256 57.9269 164.443 58.2108 164.567C58.4941 164.691 58.8654 164.875 59.0353 164.976C59.2057 165.078 59.6422 165.314 60.0061 165.5C61.141 166.083 60.5773 166.224 57.7236 166.072C54.3932 165.893 54.149 165.773 52.6986 163.594C52.5593 163.385 52.2097 162.861 51.9218 162.432C51.6345 162.001 51.4503 161.568 51.5124 161.468C51.6437 161.257 52.2311 161.435 52.2311 161.686Z" fill="black"/>
</svg>
