<svg width="345" height="225" viewBox="0 0 345 225" fill="none" xmlns="http://www.w3.org/2000/svg">
<path d="M310.768 127.189L314.143 48.2927C314.143 48.2927 300.159 53.5689 291.361 45.3677L296.12 134.119L310.768 127.189Z" fill="white"/>
<path d="M296.154 134.659C296.054 134.663 295.956 134.635 295.873 134.581C295.791 134.536 295.722 134.471 295.673 134.392C295.623 134.314 295.595 134.223 295.591 134.131L290.866 45.3793C290.86 45.267 290.888 45.1555 290.947 45.0592C291.005 44.963 291.09 44.8864 291.192 44.8393C291.294 44.7913 291.407 44.7753 291.518 44.7934C291.628 44.8115 291.731 44.8628 291.811 44.9405C300.249 52.8155 313.873 47.7868 314.008 47.7418C314.094 47.7074 314.188 47.6956 314.281 47.7074C314.373 47.7192 314.461 47.7542 314.536 47.8093C314.612 47.8651 314.672 47.9382 314.713 48.0224C314.754 48.1065 314.775 48.1994 314.773 48.293L311.398 127.189C311.393 127.292 311.36 127.391 311.302 127.477C311.244 127.562 311.165 127.63 311.071 127.673L296.446 134.603C296.357 134.653 296.255 134.673 296.154 134.659ZM291.991 46.6393L296.637 133.264L310.138 126.841L313.513 49.103C310.565 50.0255 299.866 52.8043 291.991 46.6393Z" fill="#A1A1A1"/>
<path d="M315.037 49.0707C315.519 45.3985 310.819 41.7531 304.538 40.9284C298.258 40.1037 292.776 42.4121 292.294 46.0843C291.812 49.7565 296.512 53.4019 302.792 54.2266C309.072 55.0513 314.554 52.7429 315.037 49.0707Z" fill="white"/>
<path d="M304.456 53.9854C303.704 53.9898 302.953 53.9485 302.206 53.8617C295.456 53.1304 290.495 49.3617 290.799 45.3117C290.87 44.6056 291.085 43.9216 291.431 43.3023C291.778 42.683 292.248 42.1416 292.813 41.7116C295.164 39.7541 299.09 38.8767 303.342 39.3492C310.092 40.0804 315.054 43.8491 314.75 47.8991C314.679 48.6052 314.464 49.2892 314.117 49.9085C313.771 50.5278 313.301 51.0692 312.736 51.4992C310.336 53.2381 307.418 54.1143 304.456 53.9854ZM301.216 40.3504C298.486 40.2246 295.793 41.0167 293.566 42.6004C293.119 42.9332 292.745 43.3548 292.468 43.8388C292.192 44.3227 292.018 44.8586 291.957 45.4129C291.699 48.7879 296.368 52.1067 302.364 52.7704C306.256 53.1979 309.969 52.3879 312.05 50.6667C312.496 50.3298 312.868 49.9057 313.145 49.4202C313.421 48.9348 313.596 48.3981 313.659 47.8429C313.918 44.4679 309.249 41.0929 303.253 40.4854C302.577 40.4018 301.897 40.3567 301.216 40.3504Z" fill="#A1A1A1"/>
<path d="M305.03 53.7265C304.881 53.7474 304.729 53.7081 304.609 53.6174C304.489 53.5267 304.41 53.3919 304.389 53.2427C304.368 53.0935 304.407 52.9422 304.498 52.8219C304.589 52.7017 304.723 52.6224 304.873 52.6015C306.122 52.2498 307.299 51.6784 308.349 50.914C308.889 50.5815 309.351 50.1358 309.703 49.6075C310.054 49.0792 310.287 48.481 310.385 47.854C310.381 46.7875 309.98 45.7606 309.26 44.974C308.635 44.2342 307.865 43.6293 306.999 43.1961C306.133 42.7628 305.187 42.5104 304.22 42.454C302.299 42.4228 300.406 42.9127 298.741 43.8715C298.246 44.0586 297.801 44.3598 297.443 44.7507C297.086 45.1416 296.825 45.6112 296.683 46.1215C296.636 46.5123 296.672 46.9084 296.788 47.2844C296.905 47.6603 297.099 48.0077 297.358 48.304C297.88 48.8609 298.528 49.2851 299.248 49.5415L299.518 49.6427L299.63 45.2215C299.631 45.1278 299.657 45.036 299.704 44.9551C299.751 44.8742 299.819 44.8071 299.9 44.7602C300.806 44.2065 301.829 43.8714 302.888 43.7816C303.946 43.6917 305.011 43.8496 305.998 44.2427C306.52 44.4344 306.99 44.7466 307.37 45.154C307.74 45.6465 307.979 46.2239 308.068 46.8332C308.156 47.4425 308.09 48.0643 307.876 48.6415C307.681 49.1671 307.381 49.6476 306.994 50.0537C306.607 50.4598 306.142 50.7831 305.626 51.004C304.736 51.383 303.766 51.5375 302.803 51.454C301.424 51.3958 300.066 51.1028 298.786 50.5877C297.913 50.274 297.126 49.7574 296.491 49.0802C296.131 48.6587 295.863 48.1672 295.702 47.6367C295.541 47.1062 295.492 46.5482 295.558 45.9977C295.712 45.3015 296.034 44.6532 296.494 44.1085C296.955 43.5638 297.541 43.1389 298.201 42.8702C300.077 41.8065 302.211 41.281 304.366 41.3515C305.486 41.416 306.58 41.7087 307.582 42.2118C308.584 42.7148 309.473 43.4174 310.194 44.2765C310.717 44.8043 311.109 45.4467 311.34 46.1527C311.572 46.8587 311.635 47.6088 311.526 48.3436C311.417 49.0784 311.138 49.7777 310.711 50.386C310.285 50.9942 309.722 51.4947 309.069 51.8477C307.915 52.6904 306.62 53.3191 305.244 53.704L305.03 53.7265ZM300.598 50.0477C301.333 50.2396 302.088 50.349 302.848 50.374C303.637 50.4454 304.432 50.3258 305.165 50.0252C305.535 49.8605 305.867 49.6232 306.144 49.3276C306.42 49.0319 306.634 48.6839 306.774 48.304C306.921 47.9136 306.97 47.4931 306.917 47.0793C306.864 46.6655 306.711 46.271 306.47 45.9302C306.213 45.6568 305.892 45.4518 305.536 45.334C304.758 45.0251 303.922 44.8903 303.086 44.9389C302.251 44.9874 301.436 45.2183 300.699 45.6152L300.598 50.0477Z" fill="#A1A1A1"/>
<path d="M330.376 124.782L342.133 47.0668C342.133 47.0668 327.71 50.138 319.846 40.6543L315.155 129.439L330.376 124.782Z" fill="white"/>
<path d="M315.155 129.968C315.028 129.966 314.906 129.923 314.806 129.844C314.734 129.79 314.676 129.718 314.639 129.635C314.602 129.553 314.586 129.462 314.593 129.372L319.284 40.6203C319.291 40.5077 319.331 40.3995 319.399 40.3095C319.467 40.2194 319.56 40.1515 319.666 40.1141C319.776 40.0802 319.893 40.0792 320.003 40.1112C320.113 40.1432 320.211 40.2068 320.285 40.2941C327.834 49.4066 341.874 46.5491 342.009 46.5153C342.098 46.494 342.191 46.4952 342.279 46.5188C342.367 46.5424 342.448 46.5876 342.515 46.6503C342.58 46.7135 342.63 46.7914 342.659 46.8775C342.688 46.9635 342.697 47.0553 342.684 47.1453L330.939 124.872C330.922 124.976 330.876 125.074 330.807 125.153C330.737 125.233 330.646 125.291 330.545 125.322L315.313 129.945L315.155 129.968ZM320.341 42.0378L315.751 128.663L329.881 124.377L341.491 47.7528C338.42 48.2028 327.35 49.2603 320.341 42.0378Z" fill="#A1A1A1"/>
<path d="M342.116 47.1281C343.209 43.6226 339.138 39.2349 333.022 37.3279C326.907 35.4208 321.063 36.7166 319.97 40.2221C318.877 43.7276 322.948 48.1153 329.064 50.0224C335.179 51.9294 341.023 50.6336 342.116 47.1281Z" fill="white"/>
<path d="M334.606 51.4543C332.941 51.443 331.284 51.2123 329.679 50.7681C323.12 49.0131 318.564 44.5131 319.295 40.5531C319.433 39.875 319.714 39.2342 320.119 38.6735C320.525 38.1128 321.045 37.6451 321.646 37.3018C324.177 35.7043 328.194 35.4231 332.39 36.5481C338.949 38.3143 343.505 42.8031 342.774 46.7743C342.631 47.4503 342.347 48.0889 341.942 48.6489C341.537 49.2088 341.02 49.6778 340.422 50.0256C338.653 51.0305 336.64 51.5251 334.606 51.4543ZM327.474 36.9981C325.649 36.93 323.84 37.3618 322.243 38.2468C321.774 38.5099 321.368 38.8698 321.05 39.3024C320.732 39.7349 320.509 40.2303 320.398 40.7556C319.779 44.1306 324.076 48.1018 329.971 49.6881C333.808 50.7231 337.587 50.4868 339.826 49.0693C340.293 48.8074 340.699 48.4493 341.017 48.0188C341.335 47.5882 341.558 47.095 341.671 46.5718C342.29 43.1968 337.992 39.2143 332.097 37.6393C330.591 37.225 329.036 37.0094 327.474 36.9981Z" fill="#A1A1A1"/>
<path d="M332.491 51.0714C332.354 51.07 332.221 51.0192 332.118 50.9284C332.015 50.8375 331.948 50.7126 331.929 50.5764C331.913 50.4276 331.956 50.2784 332.048 50.1607C332.141 50.043 332.275 49.9661 332.424 49.9464C333.687 49.7987 334.911 49.4172 336.035 48.8214C336.601 48.5779 337.104 48.2095 337.508 47.7439C337.911 47.2783 338.204 46.7274 338.364 46.1326C338.474 45.0533 338.19 43.9706 337.565 43.0839C336.481 41.4073 334.779 40.2266 332.829 39.7989C330.942 39.4477 328.995 39.6268 327.204 40.3164C325.91 40.7664 325.167 41.4414 324.954 42.2626C324.872 42.6479 324.869 43.0457 324.944 43.4322C325.02 43.8188 325.172 44.1862 325.393 44.5126C325.858 45.1452 326.457 45.6675 327.148 46.0426L327.395 46.1776L327.969 41.8464C327.981 41.7484 328.018 41.6552 328.077 41.5762C328.136 41.4972 328.215 41.4352 328.306 41.3964C329.287 40.9916 330.347 40.8196 331.405 40.8938C332.463 40.9679 333.49 41.2863 334.404 41.8239C334.904 42.093 335.333 42.4789 335.653 42.9489C335.966 43.4786 336.142 44.0785 336.163 44.6937C336.185 45.3089 336.052 45.9197 335.776 46.4701C335.53 46.9593 335.185 47.3919 334.763 47.7405C334.341 48.0891 333.851 48.3461 333.324 48.4951C332.385 48.7281 331.405 48.7281 330.466 48.4951C329.099 48.2206 327.787 47.7186 326.585 47.0101C325.739 46.5588 325.011 45.9153 324.459 45.1314C324.145 44.6683 323.931 44.1456 323.828 43.5959C323.726 43.0463 323.737 42.4814 323.862 41.9364C324.094 41.2705 324.492 40.6744 325.017 40.2041C325.543 39.7338 326.179 39.4047 326.866 39.2476C328.858 38.4798 331.025 38.2849 333.121 38.6851C335.365 39.1821 337.324 40.5393 338.578 42.4651C339.353 43.5891 339.693 44.9566 339.534 46.3126C339.352 47.0833 338.993 47.8009 338.485 48.4083C337.978 49.0157 337.335 49.4962 336.609 49.8114C335.365 50.4693 334.011 50.8962 332.615 51.0714H332.491ZM328.43 46.7176C329.154 47.0259 329.908 47.2596 330.68 47.4151C331.449 47.6017 332.251 47.6017 333.02 47.4151C333.389 47.3062 333.732 47.1233 334.028 46.8777C334.323 46.6321 334.566 46.3288 334.741 45.9864C334.939 45.616 335.043 45.2026 335.043 44.7826C335.043 44.3627 334.939 43.9493 334.741 43.5789C334.519 43.2555 334.217 42.9956 333.864 42.8251C333.146 42.401 332.345 42.1381 331.515 42.0545C330.686 41.971 329.848 42.0689 329.06 42.3414L328.43 46.7176Z" fill="#A1A1A1"/>
<path d="M300.024 142.32L299.63 63.3227C299.63 63.3227 313.389 69.3639 322.501 61.6689L314.356 150.06L300.024 142.32Z" fill="white"/>
<path d="M314.356 150.623C314.262 150.624 314.169 150.601 314.086 150.555L299.754 142.815C299.665 142.77 299.591 142.7 299.539 142.615C299.487 142.529 299.461 142.431 299.461 142.331L299.068 63.3227C299.068 63.2286 299.091 63.1361 299.137 63.0535C299.182 62.971 299.247 62.9011 299.326 62.8502C299.409 62.8059 299.502 62.7827 299.596 62.7827C299.69 62.7827 299.783 62.8059 299.866 62.8502C299.99 62.8502 313.366 68.6665 322.13 61.2865C322.217 61.2159 322.323 61.172 322.435 61.1601C322.547 61.1481 322.66 61.1686 322.76 61.219C322.857 61.2734 322.937 61.3539 322.991 61.4513C323.044 61.5487 323.07 61.6592 323.064 61.7702L314.908 150.161C314.901 150.255 314.871 150.346 314.82 150.424C314.769 150.503 314.698 150.568 314.615 150.611C314.531 150.637 314.442 150.641 314.356 150.623ZM300.586 141.994L313.873 149.171L321.815 62.9177C313.805 68.689 303.241 65.314 300.204 64.189L300.586 141.994Z" fill="#A1A1A1"/>
<path d="M311.482 68.9956C317.801 68.5969 322.733 65.2677 322.5 61.5596C322.266 57.8515 316.954 55.1686 310.635 55.5673C304.316 55.9659 299.384 59.2951 299.618 63.0032C299.851 66.7113 305.163 69.3942 311.482 68.9956Z" fill="white"/>
<path d="M310.216 69.6115C306.403 69.6115 302.983 68.4865 300.913 66.6415C300.365 66.1819 299.916 65.6159 299.593 64.9778C299.27 64.3397 299.08 63.6427 299.034 62.929C298.888 58.8565 304.04 55.369 310.768 55.054C315.02 54.8177 318.913 55.9202 321.185 57.9902C321.732 58.4511 322.18 59.0174 322.502 59.6553C322.825 60.2931 323.016 60.9895 323.064 61.7027C323.21 65.7077 317.945 69.2627 311.33 69.5777C310.963 69.6002 310.591 69.6115 310.216 69.6115ZM311.848 56.1115H310.824C304.816 56.4377 300.035 59.4865 300.159 62.8615C300.204 63.4229 300.361 63.9698 300.619 64.47C300.878 64.9703 301.234 65.414 301.666 65.7752C303.691 67.6202 307.37 68.6327 311.263 68.419C317.281 68.0927 322.063 65.044 321.939 61.669C321.893 61.1064 321.736 60.5587 321.475 60.0582C321.214 59.5577 320.855 59.1146 320.42 58.7552C318.586 57.0902 315.358 56.1002 311.848 56.1002V56.1115Z" fill="#A1A1A1"/>
<path d="M308.585 69.2855C308.525 69.2962 308.464 69.2962 308.405 69.2855C307.046 68.8217 305.779 68.1251 304.659 67.2267C303.995 66.7692 303.441 66.1711 303.034 65.4751C302.628 64.779 302.38 64.002 302.307 63.1992C302.326 61.8495 302.866 60.5592 303.815 59.5992C304.573 58.7803 305.491 58.1268 306.514 57.6796C307.536 57.2324 308.639 57.0012 309.755 57.0005C311.906 57.0656 314 57.7066 315.819 58.8567C316.467 59.1593 317.034 59.6121 317.472 60.1776C317.91 60.743 318.207 61.4048 318.339 62.108C318.389 62.6621 318.32 63.2204 318.138 63.746C317.955 64.2716 317.663 64.7525 317.281 65.1567C316.615 65.818 315.796 66.3048 314.896 66.5742C313.597 67.0203 312.231 67.2372 310.857 67.2155C309.884 67.2461 308.919 67.0375 308.045 66.608C307.045 66.0919 306.29 65.2026 305.941 64.133C305.747 63.55 305.705 62.9275 305.817 62.3235C305.929 61.7195 306.192 61.1538 306.582 60.6792C306.978 60.2851 307.465 59.9952 308 59.8355C309.008 59.5022 310.08 59.406 311.132 59.5543C312.183 59.7026 313.187 60.0914 314.064 60.6905C314.141 60.7426 314.204 60.8131 314.247 60.8955C314.29 60.978 314.312 61.0699 314.311 61.163V65.5955L314.592 65.5055C315.318 65.2977 315.979 64.9109 316.516 64.3805C316.787 64.0984 316.994 63.7618 317.124 63.3932C317.254 63.0245 317.304 62.6324 317.27 62.243C317.155 61.7133 316.917 61.2182 316.575 60.7979C316.233 60.3776 315.797 60.044 315.301 59.8242C313.668 58.7773 311.783 58.1905 309.845 58.1255C308.883 58.1272 307.931 58.3279 307.05 58.7151C306.169 59.1023 305.378 59.6676 304.726 60.3755C303.98 61.1257 303.546 62.1306 303.511 63.188C303.586 63.8251 303.797 64.4388 304.129 64.9879C304.461 65.5371 304.906 66.0089 305.435 66.3717C306.446 67.1831 307.587 67.8183 308.81 68.2505C308.959 68.2744 309.093 68.3565 309.181 68.4789C309.27 68.6013 309.306 68.7538 309.282 68.903C309.259 69.0522 309.176 69.1858 309.054 69.2744C308.932 69.363 308.779 69.3994 308.63 69.3755L308.585 69.2855ZM310.149 60.578C309.54 60.5753 308.936 60.6742 308.36 60.8705C307.997 60.9648 307.667 61.1553 307.404 61.4217C307.15 61.7491 306.982 62.1346 306.916 62.5432C306.849 62.9518 306.885 63.3707 307.021 63.7617C307.146 64.1519 307.346 64.5137 307.61 64.8264C307.875 65.1391 308.198 65.3966 308.562 65.5842C309.266 65.9138 310.036 66.0755 310.812 66.0567C311.568 66.0734 312.322 66.0055 313.062 65.8542L313.119 61.433C312.225 60.8828 311.198 60.5871 310.149 60.578Z" fill="#A1A1A1"/>
<path d="M324.335 208.515H2.4613C2.31212 208.515 2.16904 208.456 2.06356 208.35C1.95807 208.245 1.8988 208.102 1.8988 207.953C1.8988 207.803 1.95807 207.66 2.06356 207.555C2.16904 207.449 2.31212 207.39 2.4613 207.39H324.335C324.484 207.39 324.627 207.449 324.733 207.555C324.838 207.66 324.898 207.803 324.898 207.953C324.898 208.102 324.838 208.245 324.733 208.35C324.627 208.456 324.484 208.515 324.335 208.515Z" fill="#A1A1A1"/>
<path d="M285.759 109.11H340.805V203.239C340.799 206.04 339.685 208.725 337.705 210.706C335.726 212.688 333.042 213.805 330.241 213.814H296.368C293.557 213.814 290.861 212.698 288.874 210.71C286.887 208.723 285.77 206.027 285.77 203.217V109.11H285.759Z" fill="white"/>
<path d="M330.241 214.399H296.368C293.406 214.396 290.566 213.218 288.472 211.124C286.377 209.029 285.199 206.19 285.196 203.228V109.11C285.196 108.961 285.256 108.818 285.361 108.713C285.467 108.607 285.61 108.548 285.759 108.548H340.805C340.954 108.548 341.097 108.607 341.203 108.713C341.308 108.818 341.368 108.961 341.368 109.11V203.228C341.365 206.182 340.193 209.015 338.108 211.108C336.024 213.201 333.195 214.384 330.241 214.399ZM286.366 109.673V203.228C286.369 205.891 287.429 208.445 289.312 210.328C291.195 212.212 293.749 213.271 296.413 213.274H330.241C332.903 213.268 335.454 212.207 337.335 210.324C339.215 208.441 340.273 205.889 340.276 203.228V109.673H286.366Z" fill="#A1A1A1"/>
<path d="M26.435 97.5005H11.9113V183.36H26.435V97.5005Z" fill="white"/>
<path d="M26.4913 183.923H11.8663C11.7171 183.923 11.574 183.864 11.4685 183.758C11.363 183.653 11.3038 183.51 11.3038 183.36V97.5005C11.3038 97.3513 11.363 97.2082 11.4685 97.1027C11.574 96.9972 11.7171 96.938 11.8663 96.938H26.4913C26.6405 96.938 26.7835 96.9972 26.889 97.1027C26.9945 97.2082 27.0538 97.3513 27.0538 97.5005V183.36C27.0538 183.51 26.9945 183.653 26.889 183.758C26.7835 183.864 26.6405 183.923 26.4913 183.923ZM12.53 182.798H25.8725V98.063H12.4738L12.53 182.798Z" fill="#A1A1A1"/>
<path d="M45.7287 80.5352H26.435V166.395H45.7287V80.5352Z" fill="white"/>
<path d="M45.7288 166.969H26.4913C26.3421 166.969 26.199 166.91 26.0935 166.804C25.988 166.699 25.9288 166.556 25.9288 166.406V80.5352C25.9288 80.386 25.988 80.2429 26.0935 80.1374C26.199 80.0319 26.3421 79.9727 26.4913 79.9727H45.7288C45.878 79.9727 46.021 80.0319 46.1265 80.1374C46.232 80.2429 46.2913 80.386 46.2913 80.5352V166.406C46.2913 166.556 46.232 166.699 46.1265 166.804C46.021 166.91 45.878 166.969 45.7288 166.969ZM26.9975 165.844H45.1663V81.0639H26.9975V165.844Z" fill="#A1A1A1"/>
<path d="M79.0513 87.4204H45.7288V173.28H79.0513V87.4204Z" fill="white"/>
<path d="M79.0513 173.843H45.7288C45.5796 173.843 45.4365 173.784 45.331 173.678C45.2255 173.573 45.1663 173.43 45.1663 173.28V87.4204C45.1663 87.2712 45.2255 87.1282 45.331 87.0227C45.4365 86.9172 45.5796 86.8579 45.7288 86.8579H79.0513C79.2004 86.8579 79.3435 86.9172 79.449 87.0227C79.5545 87.1282 79.6138 87.2712 79.6138 87.4204V173.314C79.6052 173.457 79.5421 173.592 79.4375 173.69C79.333 173.789 79.1948 173.843 79.0513 173.843ZM46.2913 172.718H78.4888V87.9829H46.2913V172.718Z" fill="#A1A1A1"/>
<path d="M93.6875 143.884H1.56128V215.074H93.6875V143.884Z" fill="white"/>
<path d="M93.6875 215.637H1.56128C1.4121 215.637 1.26902 215.578 1.16353 215.472C1.05804 215.367 0.998779 215.223 0.998779 215.074V143.884C0.998779 143.735 1.05804 143.592 1.16353 143.487C1.26902 143.381 1.4121 143.322 1.56128 143.322H93.6875C93.8358 143.325 93.9772 143.385 94.0821 143.49C94.187 143.595 94.2471 143.736 94.25 143.884V215.074C94.2471 215.223 94.187 215.364 94.0821 215.469C93.9772 215.574 93.8358 215.634 93.6875 215.637ZM2.12378 214.512H93.125V144.447H2.12378V214.512Z" fill="#A1A1A1"/>
<path d="M37.3363 168.409H11.8663C11.7171 168.409 11.574 168.35 11.4685 168.244C11.363 168.139 11.3038 167.996 11.3038 167.847V153.548C11.3038 153.399 11.363 153.256 11.4685 153.15C11.574 153.045 11.7171 152.985 11.8663 152.985H37.2913C37.4404 152.985 37.5835 153.045 37.689 153.15C37.7945 153.256 37.8538 153.399 37.8538 153.548V167.847C37.8542 167.988 37.8012 168.125 37.7052 168.229C37.6093 168.334 37.4775 168.398 37.3363 168.409ZM12.4738 167.284H36.7738V154.11H12.4738V167.284Z" fill="#A1A1A1"/>
<path d="M18.4475 109.077C17.7516 109.072 17.0726 108.862 16.4962 108.471C15.9199 108.081 15.4721 107.529 15.2093 106.885C14.9466 106.24 14.8808 105.532 15.0201 104.851C15.1594 104.169 15.4976 103.543 15.9921 103.054C16.4865 102.564 17.115 102.232 17.7982 102.099C18.4814 101.966 19.1886 102.039 19.8305 102.308C20.4724 102.577 21.0202 103.03 21.4048 103.61C21.7894 104.19 21.9935 104.871 21.9913 105.567C21.9898 106.03 21.8969 106.488 21.7178 106.916C21.5388 107.343 21.2772 107.731 20.948 108.057C20.6188 108.383 20.2284 108.641 19.7994 108.816C19.3703 108.991 18.9109 109.08 18.4475 109.077ZM18.4475 103.17C17.9746 103.175 17.5135 103.319 17.1224 103.585C16.7313 103.851 16.4277 104.227 16.2498 104.665C16.0719 105.103 16.0276 105.584 16.1226 106.048C16.2176 106.511 16.4476 106.936 16.7836 107.269C17.1196 107.602 17.5465 107.828 18.0107 107.918C18.4749 108.009 18.9556 107.96 19.3921 107.778C19.8287 107.596 20.2016 107.289 20.4639 106.896C20.7263 106.502 20.8662 106.04 20.8663 105.567C20.8648 105.25 20.8011 104.938 20.6787 104.646C20.5564 104.355 20.3778 104.09 20.1532 103.868C19.9286 103.645 19.6623 103.469 19.3697 103.349C19.077 103.23 18.7637 103.169 18.4475 103.17Z" fill="#A1A1A1"/>
<path d="M36.0763 94.1592C35.3794 94.1592 34.6981 93.9524 34.1188 93.565C33.5395 93.1776 33.0882 92.6269 32.822 91.9829C32.5558 91.3388 32.4868 90.6302 32.6235 89.9468C32.7603 89.2635 33.0968 88.6361 33.5904 88.1441C34.084 87.6521 34.7125 87.3176 35.3962 87.183C36.08 87.0484 36.7884 87.1197 37.4316 87.388C38.0749 87.6562 38.624 88.1093 39.0096 88.6898C39.3951 89.2704 39.5998 89.9523 39.5975 90.6492C39.5975 91.1111 39.5064 91.5684 39.3293 91.995C39.1522 92.4216 38.8926 92.809 38.5655 93.1351C38.2384 93.4612 37.8501 93.7195 37.423 93.8952C36.9958 94.071 36.5382 94.1607 36.0763 94.1592ZM36.0763 88.2529C35.6023 88.2529 35.1391 88.3935 34.745 88.6568C34.3509 88.9201 34.0438 89.2943 33.8624 89.7322C33.6811 90.17 33.6336 90.6519 33.7261 91.1167C33.8185 91.5815 34.0468 92.0085 34.3819 92.3436C34.717 92.6787 35.144 92.9069 35.6088 92.9994C36.0736 93.0919 36.5554 93.0444 36.9933 92.863C37.4311 92.6817 37.8054 92.3745 38.0687 91.9805C38.332 91.5864 38.4725 91.1231 38.4725 90.6492C38.474 90.3341 38.4131 90.0218 38.2932 89.7304C38.1733 89.439 37.9968 89.1743 37.774 88.9515C37.5512 88.7287 37.2864 88.5522 36.995 88.4323C36.7036 88.3124 36.3914 88.2515 36.0763 88.2529Z" fill="#A1A1A1"/>
<path d="M70.9175 103.17H45.7288C45.5796 103.17 45.4365 103.111 45.331 103.006C45.2255 102.9 45.1663 102.757 45.1663 102.608C45.1663 102.459 45.2255 102.316 45.331 102.21C45.4365 102.105 45.5796 102.045 45.7288 102.045H70.9175C71.0667 102.045 71.2098 102.105 71.3153 102.21C71.4207 102.316 71.48 102.459 71.48 102.608C71.48 102.757 71.4207 102.9 71.3153 103.006C71.2098 103.111 71.0667 103.17 70.9175 103.17Z" fill="#A1A1A1"/>
<path d="M45.7288 115.771H26.4913C26.3421 115.771 26.199 115.711 26.0935 115.606C25.988 115.5 25.9288 115.357 25.9288 115.208C25.9288 115.059 25.988 114.916 26.0935 114.81C26.199 114.705 26.3421 114.646 26.4913 114.646H45.7288C45.878 114.646 46.021 114.705 46.1265 114.81C46.232 114.916 46.2913 115.059 46.2913 115.208C46.2913 115.357 46.232 115.5 46.1265 115.606C46.021 115.711 45.878 115.771 45.7288 115.771Z" fill="#A1A1A1"/>
<path d="M263.81 27.2441H79.4563C71.1865 27.2441 64.4825 33.9481 64.4825 42.2179V176.003C64.4825 184.273 71.1865 190.977 79.4563 190.977H263.81C272.08 190.977 278.784 184.273 278.784 176.003V42.2179C278.784 33.9481 272.08 27.2441 263.81 27.2441Z" fill="white"/>
<path d="M263.866 191.539H79.4563C75.3377 191.533 71.3894 189.894 68.4771 186.982C65.5648 184.07 63.926 180.122 63.92 176.003V42.2179C63.926 38.0992 65.5648 34.151 68.4771 31.2387C71.3894 28.3264 75.3377 26.6876 79.4563 26.6816H263.866C267.986 26.6846 271.936 28.3224 274.849 31.2354C277.762 34.1484 279.4 38.0983 279.403 42.2179V176.003C279.397 180.122 277.758 184.07 274.846 186.982C271.933 189.894 267.985 191.533 263.866 191.539ZM79.4563 27.8066C75.6351 27.8096 71.9713 29.3289 69.2693 32.0309C66.5673 34.7329 65.048 38.3967 65.045 42.2179V176.003C65.051 179.823 66.5712 183.485 69.2726 186.187C71.9739 188.888 75.636 190.408 79.4563 190.414H263.866C267.688 190.411 271.351 188.892 274.053 186.19C276.755 183.488 278.275 179.824 278.278 176.003V42.2179C278.275 38.3967 276.755 34.7329 274.053 32.0309C271.351 29.3289 267.688 27.8096 263.866 27.8066H79.4563Z" fill="#313B44"/>
<path d="M253.145 8.18652H90.1213V163.504H253.145V8.18652Z" fill="#EE4937"/>
<path d="M279.144 164.055H64.1225C63.9733 164.055 63.8302 163.996 63.7247 163.89C63.6193 163.785 63.56 163.642 63.56 163.493C63.5629 163.344 63.6231 163.203 63.7279 163.098C63.8328 162.993 63.9742 162.933 64.1225 162.93H279.144C279.293 162.93 279.436 162.989 279.541 163.095C279.647 163.2 279.706 163.343 279.706 163.493C279.706 163.642 279.647 163.785 279.541 163.89C279.436 163.996 279.293 164.055 279.144 164.055Z" fill="#313B44"/>
<path d="M171.639 181.099C174.478 181.099 176.78 178.797 176.78 175.958C176.78 173.118 174.478 170.816 171.639 170.816C168.799 170.816 166.498 173.118 166.498 175.958C166.498 178.797 168.799 181.099 171.639 181.099Z" fill="white"/>
<path d="M171.616 181.65C170.487 181.652 169.383 181.319 168.443 180.694C167.504 180.068 166.771 179.177 166.338 178.134C165.905 177.092 165.791 175.944 166.01 174.836C166.23 173.729 166.774 172.712 167.572 171.913C168.37 171.115 169.388 170.571 170.495 170.352C171.603 170.132 172.75 170.246 173.793 170.679C174.836 171.112 175.726 171.845 176.352 172.785C176.978 173.724 177.311 174.829 177.309 175.958C177.306 177.467 176.705 178.913 175.638 179.98C174.571 181.046 173.125 181.647 171.616 181.65ZM171.616 171.379C170.71 171.377 169.824 171.643 169.069 172.145C168.315 172.647 167.726 173.361 167.378 174.198C167.03 175.034 166.938 175.955 167.113 176.844C167.288 177.733 167.724 178.55 168.363 179.191C169.003 179.833 169.819 180.27 170.708 180.448C171.596 180.625 172.517 180.535 173.355 180.189C174.192 179.843 174.908 179.256 175.411 178.503C175.915 177.749 176.184 176.864 176.184 175.958C176.184 174.745 175.703 173.582 174.847 172.724C173.99 171.866 172.829 171.382 171.616 171.379Z" fill="#A1A1A1"/>
<path d="M210.44 214.928H132.838C130.476 214.928 128.562 216.842 128.562 219.203V219.844C128.562 222.205 130.476 224.119 132.838 224.119H210.44C212.801 224.119 214.715 222.205 214.715 219.844V219.203C214.715 216.842 212.801 214.928 210.44 214.928Z" fill="white"/>
<path d="M210.44 224.67H132.815C131.535 224.67 130.307 224.162 129.402 223.257C128.497 222.352 127.989 221.124 127.989 219.844V219.191C127.989 217.911 128.497 216.684 129.402 215.779C130.307 214.874 131.535 214.365 132.815 214.365H210.44C211.721 214.365 212.95 214.873 213.857 215.778C214.764 216.683 215.275 217.91 215.278 219.191V219.844C215.275 221.125 214.764 222.353 213.857 223.257C212.95 224.162 211.721 224.67 210.44 224.67ZM132.815 215.49C131.833 215.49 130.892 215.88 130.198 216.574C129.504 217.268 129.114 218.21 129.114 219.191V219.844C129.117 220.825 129.508 221.764 130.201 222.458C130.895 223.151 131.834 223.542 132.815 223.545H210.44C211.423 223.545 212.365 223.156 213.061 222.462C213.757 221.768 214.15 220.827 214.153 219.844V219.191C214.153 218.704 214.056 218.222 213.87 217.772C213.683 217.323 213.409 216.914 213.064 216.57C212.72 216.226 212.31 215.954 211.86 215.769C211.41 215.583 210.927 215.489 210.44 215.49H132.815Z" fill="#313B44"/>
<path d="M201.013 215.074H142.254L146.293 190.965H196.974L201.013 215.074Z" fill="white"/>
<path d="M201.013 215.637H142.254C142.172 215.637 142.091 215.619 142.017 215.584C141.943 215.549 141.878 215.498 141.826 215.434C141.772 215.374 141.732 215.302 141.711 215.224C141.689 215.146 141.686 215.064 141.703 214.984L145.741 190.875C145.763 190.745 145.83 190.627 145.931 190.543C146.033 190.458 146.161 190.412 146.293 190.414H196.918C197.051 190.412 197.18 190.457 197.283 190.542C197.386 190.626 197.456 190.744 197.48 190.875L201.575 214.939C201.586 215.019 201.581 215.1 201.56 215.177C201.539 215.254 201.502 215.327 201.451 215.389C201.401 215.46 201.335 215.519 201.259 215.562C201.184 215.604 201.099 215.63 201.013 215.637ZM142.918 214.512H200.293L196.445 191.539H146.765L142.918 214.512Z" fill="#313B44"/>
<path d="M144.279 203.025L197.784 195.758L196.974 190.965H146.293L144.279 203.025Z" fill="#313B44"/>
<path d="M144.279 203.588C144.202 203.588 144.127 203.572 144.057 203.541C143.987 203.51 143.925 203.465 143.874 203.408C143.813 203.344 143.767 203.268 143.74 203.184C143.712 203.1 143.704 203.011 143.716 202.924L145.741 190.875C145.763 190.745 145.83 190.627 145.931 190.543C146.033 190.458 146.161 190.412 146.293 190.414H196.918C197.051 190.412 197.18 190.457 197.283 190.542C197.386 190.626 197.456 190.744 197.48 190.875L198.279 195.657C198.291 195.731 198.288 195.807 198.271 195.88C198.253 195.954 198.222 196.023 198.178 196.084C198.132 196.146 198.075 196.197 198.009 196.236C197.944 196.275 197.871 196.3 197.795 196.309L144.29 203.577L144.279 203.588ZM146.765 191.539L144.954 202.362L197.131 195.274L196.501 191.539H146.765Z" fill="#313B44"/>
<path d="M120.98 93.563H105.331V105.96H120.98V93.563Z" fill="white"/>
<path d="M185.33 96.6567H135.954C135.655 96.6567 135.369 96.5382 135.158 96.3272C134.947 96.1163 134.829 95.8301 134.829 95.5317C134.829 95.2334 134.947 94.9472 135.158 94.7362C135.369 94.5253 135.655 94.4067 135.954 94.4067H185.33C185.628 94.4067 185.915 94.5253 186.126 94.7362C186.337 94.9472 186.455 95.2334 186.455 95.5317C186.455 95.8301 186.337 96.1163 186.126 96.3272C185.915 96.5382 185.628 96.6567 185.33 96.6567Z" fill="white"/>
<path d="M174.991 103.733H135.954C135.655 103.733 135.369 103.614 135.158 103.403C134.947 103.192 134.829 102.906 134.829 102.608C134.829 102.31 134.947 102.023 135.158 101.812C135.369 101.601 135.655 101.483 135.954 101.483H174.991C175.29 101.483 175.576 101.601 175.787 101.812C175.998 102.023 176.116 102.31 176.116 102.608C176.116 102.906 175.998 103.192 175.787 103.403C175.576 103.614 175.29 103.733 174.991 103.733Z" fill="white"/>
<path d="M111.676 103.564C111.572 103.575 111.466 103.575 111.361 103.564C111.11 103.514 110.873 103.409 110.669 103.255C110.464 103.101 110.297 102.903 110.18 102.675L108.706 99.829C108.592 99.6315 108.518 99.4128 108.491 99.1862C108.463 98.9596 108.482 98.7297 108.546 98.5105C108.609 98.2913 108.717 98.0873 108.862 97.9109C109.007 97.7345 109.186 97.5893 109.389 97.4842C109.591 97.3791 109.813 97.3161 110.041 97.2992C110.269 97.2823 110.497 97.3118 110.713 97.3859C110.929 97.46 111.128 97.5771 111.297 97.7301C111.467 97.8832 111.603 98.0691 111.699 98.2765L112.194 99.2327L115.569 96.2965C115.736 96.1487 115.932 96.0355 116.143 95.9632C116.354 95.8908 116.578 95.8609 116.801 95.875C117.024 95.8891 117.242 95.947 117.443 96.0453C117.644 96.1437 117.823 96.2807 117.971 96.4484C118.118 96.616 118.232 96.8112 118.304 97.0226C118.376 97.2341 118.406 97.4577 118.392 97.6807C118.378 97.9038 118.32 98.1219 118.222 98.3225C118.123 98.5232 117.986 98.7025 117.819 98.8502L112.801 103.181C112.487 103.444 112.086 103.58 111.676 103.564Z" fill="#EE4937"/>
<path d="M120.98 115.208H105.331V127.605H120.98V115.208Z" fill="white"/>
<path d="M185.33 118.302H135.954C135.655 118.302 135.369 118.183 135.158 117.972C134.947 117.761 134.829 117.475 134.829 117.177C134.829 116.878 134.947 116.592 135.158 116.381C135.369 116.17 135.655 116.052 135.954 116.052H185.33C185.628 116.052 185.915 116.17 186.126 116.381C186.337 116.592 186.455 116.878 186.455 117.177C186.455 117.475 186.337 117.761 186.126 117.972C185.915 118.183 185.628 118.302 185.33 118.302Z" fill="white"/>
<path d="M174.991 125.389H135.954C135.655 125.389 135.369 125.271 135.158 125.06C134.947 124.849 134.829 124.563 134.829 124.264C134.829 123.966 134.947 123.68 135.158 123.469C135.369 123.258 135.655 123.139 135.954 123.139H174.991C175.29 123.139 175.576 123.258 175.787 123.469C175.998 123.68 176.116 123.966 176.116 124.264C176.116 124.563 175.998 124.849 175.787 125.06C175.576 125.271 175.29 125.389 174.991 125.389Z" fill="white"/>
<path d="M111.676 125.164C111.572 125.175 111.466 125.175 111.361 125.164C111.112 125.114 110.876 125.01 110.672 124.858C110.468 124.706 110.3 124.511 110.18 124.287L108.706 121.429C108.592 121.232 108.518 121.013 108.491 120.786C108.463 120.56 108.482 120.33 108.546 120.111C108.609 119.891 108.717 119.687 108.862 119.511C109.007 119.335 109.186 119.189 109.389 119.084C109.591 118.979 109.813 118.916 110.041 118.899C110.269 118.882 110.497 118.912 110.713 118.986C110.929 119.06 111.128 119.177 111.297 119.33C111.467 119.483 111.603 119.669 111.699 119.877L112.194 120.833L115.569 117.897C115.736 117.749 115.932 117.636 116.143 117.563C116.354 117.491 116.578 117.461 116.801 117.475C117.024 117.489 117.242 117.547 117.443 117.645C117.644 117.744 117.823 117.881 117.971 118.048C118.118 118.216 118.232 118.411 118.304 118.623C118.376 118.834 118.406 119.058 118.392 119.281C118.378 119.504 118.32 119.722 118.222 119.923C118.123 120.123 117.986 120.303 117.819 120.45L112.801 124.782C112.486 125.043 112.086 125.179 111.676 125.164Z" fill="#EE4937"/>
<path d="M202.52 92.9554C201.82 93.5659 201.162 94.2237 200.551 94.9242C197.418 98.4409 195.549 102.903 195.241 107.603H204.545C204.806 105.373 205.687 103.26 207.088 101.505C207.663 100.773 208.324 100.112 209.056 99.5367C210.811 98.1375 212.924 97.2603 215.154 97.0054V87.6904C210.477 88.0042 206.035 89.8552 202.52 92.9554Z" fill="white"/>
<path d="M237.89 107.603C237.593 102.911 235.745 98.4509 232.636 94.9243L226.055 101.506C227.447 103.264 228.324 105.375 228.586 107.603C228.586 108.064 228.665 108.526 228.665 108.998C228.665 109.471 228.665 109.932 228.586 110.393C228.325 112.623 227.444 114.736 226.044 116.491C225.469 117.223 224.808 117.884 224.075 118.459C222.321 119.86 220.208 120.737 217.978 120.991C217.054 121.096 216.122 121.096 215.199 120.991C212.97 120.733 210.857 119.856 209.101 118.459C208.369 117.884 207.708 117.223 207.133 116.491C205.735 114.734 204.854 112.622 204.59 110.393H195.241C195.537 115.087 197.39 119.549 200.506 123.072C201.117 123.772 201.775 124.43 202.475 125.041C206.003 128.148 210.462 130 215.154 130.306C215.615 130.306 216.076 130.306 216.538 130.306C216.999 130.306 217.471 130.306 217.933 130.306C222.625 130.002 227.084 128.15 230.611 125.041C231.314 124.433 231.972 123.775 232.58 123.072C235.697 119.549 237.549 115.087 237.845 110.393C237.845 109.932 237.845 109.471 237.845 108.998C237.845 108.526 237.924 108.064 237.89 107.603Z" fill="white"/>
<path d="M230.668 92.9554C227.136 89.846 222.673 87.9945 217.978 87.6904V97.0054C220.211 97.2606 222.327 98.1377 224.086 99.5367L230.668 92.9554Z" fill="#313B44"/>
<path d="M224.086 100.099C223.959 100.103 223.834 100.059 223.738 99.9755C222.058 98.6421 220.04 97.8044 217.91 97.5568C217.775 97.5404 217.65 97.4755 217.559 97.3741C217.468 97.2727 217.417 97.1417 217.415 97.0055V87.6905C217.415 87.6141 217.431 87.5385 217.462 87.4687C217.493 87.3989 217.538 87.3364 217.595 87.2855C217.65 87.2323 217.715 87.1909 217.787 87.1638C217.858 87.1368 217.935 87.1246 218.011 87.128C222.836 87.4272 227.422 89.3321 231.039 92.5392C231.153 92.6443 231.221 92.7895 231.23 92.9443C231.231 93.0197 231.217 93.0946 231.188 93.1643C231.159 93.2339 231.116 93.2969 231.061 93.3492L224.491 99.9417C224.382 100.044 224.237 100.101 224.086 100.099ZM218.54 96.5105C220.524 96.8107 222.406 97.5823 224.03 98.7605L229.835 92.9555C226.646 90.2902 222.723 88.6545 218.585 88.2643L218.54 96.5105Z" fill="#313B44"/>
<path d="M233.491 145.009H105.331C105.033 145.009 104.747 144.891 104.536 144.68C104.325 144.469 104.206 144.183 104.206 143.884C104.206 143.586 104.325 143.3 104.536 143.089C104.747 142.878 105.033 142.759 105.331 142.759H233.491C233.79 142.759 234.076 142.878 234.287 143.089C234.498 143.3 234.616 143.586 234.616 143.884C234.616 144.183 234.498 144.469 234.287 144.68C234.076 144.891 233.79 145.009 233.491 145.009Z" fill="#313B44"/>
<path d="M188.39 77.6889H105.331C105.033 77.6889 104.747 77.5703 104.536 77.3594C104.325 77.1484 104.206 76.8622 104.206 76.5639V31.9014C104.206 31.603 104.325 31.3168 104.536 31.1059C104.747 30.8949 105.033 30.7764 105.331 30.7764C105.63 30.7764 105.916 30.8949 106.127 31.1059C106.338 31.3168 106.456 31.603 106.456 31.9014V75.4389H188.39C188.688 75.4389 188.975 75.5574 189.186 75.7684C189.397 75.9793 189.515 76.2655 189.515 76.5639C189.515 76.8622 189.397 77.1484 189.186 77.3594C188.975 77.5703 188.688 77.6889 188.39 77.6889Z" fill="#313B44"/>
<path d="M110.203 72.1431C110.045 72.1528 109.887 72.1258 109.741 72.0643C109.476 71.9295 109.275 71.6952 109.183 71.4127C109.09 71.1302 109.113 70.8225 109.246 70.5568C109.629 69.8143 118.629 52.3093 130.407 48.6531C137.157 46.5381 139.531 50.4193 141.579 53.8393C143.424 56.9331 145.021 59.5993 149.634 59.2731C154.663 58.9131 157.587 53.8956 160.411 49.0356C163.235 44.1756 166.306 38.9106 171.729 39.1131C176.225 39.3889 180.733 39.3889 185.229 39.1131C185.376 39.099 185.526 39.1142 185.667 39.1578C185.809 39.2014 185.941 39.2725 186.056 39.367C186.17 39.4616 186.265 39.5777 186.334 39.7088C186.404 39.8399 186.447 39.9835 186.461 40.1312C186.475 40.2789 186.459 40.428 186.416 40.5699C186.372 40.7117 186.301 40.8436 186.207 40.958C186.112 41.0724 185.996 41.167 185.865 41.2366C185.734 41.3061 185.59 41.349 185.442 41.3631C180.834 41.6501 176.213 41.6501 171.605 41.3631C167.555 41.2281 165.013 45.5593 162.324 50.1718C159.354 55.2793 155.979 61.0731 149.758 61.5231C143.75 61.9393 141.455 58.1481 139.633 54.9981C137.63 51.6231 136.179 49.2156 131.06 50.8018C120.181 54.1768 111.328 71.4006 111.238 71.5806C111.134 71.7608 110.982 71.9088 110.8 72.0081C110.617 72.1074 110.41 72.1541 110.203 72.1431Z" fill="white"/>
<path d="M241.366 77.689H205.254C204.955 77.689 204.669 77.5705 204.458 77.3595C204.247 77.1486 204.129 76.8624 204.129 76.564V37.4253C204.129 37.1269 204.247 36.8408 204.458 36.6298C204.669 36.4188 204.955 36.3003 205.254 36.3003H241.366C241.665 36.3003 241.951 36.4188 242.162 36.6298C242.373 36.8408 242.491 37.1269 242.491 37.4253V76.564C242.491 76.8624 242.373 77.1486 242.162 77.3595C241.951 77.5705 241.665 77.689 241.366 77.689ZM206.379 75.439H240.241V38.5503H206.379V75.439Z" fill="white"/>
<path d="M220.801 77.689C220.503 77.689 220.217 77.5705 220.006 77.3595C219.795 77.1486 219.676 76.8624 219.676 76.564V37.4253C219.676 37.1269 219.795 36.8408 220.006 36.6298C220.217 36.4188 220.503 36.3003 220.801 36.3003C221.1 36.3003 221.386 36.4188 221.597 36.6298C221.808 36.8408 221.926 37.1269 221.926 37.4253V76.564C221.926 76.8624 221.808 77.1486 221.597 77.3595C221.386 77.5705 221.1 77.689 220.801 77.689Z" fill="white"/>
<path d="M241.366 48.439H205.254C204.955 48.439 204.669 48.3204 204.458 48.1095C204.247 47.8985 204.129 47.6123 204.129 47.314C204.129 47.0156 204.247 46.7294 204.458 46.5185C204.669 46.3075 204.955 46.189 205.254 46.189H241.366C241.665 46.189 241.951 46.3075 242.162 46.5185C242.373 46.7294 242.491 47.0156 242.491 47.314C242.491 47.6123 242.373 47.8985 242.162 48.1095C241.951 48.3204 241.665 48.439 241.366 48.439Z" fill="white"/>
<path d="M124.783 24.5666C124.177 24.5474 123.591 24.3461 123.101 23.9889C122.611 23.6316 122.241 23.1351 122.038 22.5641C120.913 19.9766 119.045 12.8216 119.191 11.3141C119.36 9.51411 120.226 9.06411 120.733 9.06411C121.858 8.88411 122.983 9.94161 123.793 11.6629C124.627 14.4248 125.291 17.235 125.784 20.0779C125.798 20.1517 125.797 20.2276 125.782 20.3012C125.767 20.3749 125.737 20.4448 125.695 20.5069C125.652 20.5691 125.598 20.6223 125.535 20.6635C125.472 20.7048 125.402 20.7332 125.328 20.7472C125.254 20.7613 125.178 20.7606 125.105 20.7453C125.031 20.73 124.961 20.7004 124.899 20.658C124.837 20.6157 124.784 20.5616 124.742 20.4987C124.701 20.4359 124.673 20.3655 124.659 20.2916C124.171 17.5316 123.528 14.8011 122.735 12.1129C122.116 10.6841 121.261 10.1104 120.879 10.1779C120.496 10.2454 120.361 10.7179 120.294 11.4604C120.181 12.5854 121.869 19.3354 123.05 22.1479C123.181 22.5919 123.476 22.9698 123.875 23.2056C124.273 23.4414 124.746 23.5177 125.199 23.4191C126.459 23.0816 127.573 21.3716 127.213 18.3004C126.493 12.1804 122.926 4.17035 121.34 2.32535C121.127 1.99654 120.797 1.76119 120.416 1.66715C120.036 1.57312 119.634 1.62745 119.293 1.81911C118.168 2.49411 117.549 4.65411 118.809 7.78161C118.837 7.85031 118.851 7.92386 118.851 7.99807C118.85 8.07228 118.835 8.14569 118.807 8.21412C118.778 8.28254 118.736 8.34464 118.683 8.39686C118.631 8.44909 118.568 8.49041 118.499 8.51848C118.431 8.54655 118.357 8.56082 118.283 8.56046C118.209 8.5601 118.135 8.54513 118.067 8.5164C117.998 8.48768 117.936 8.44575 117.884 8.39303C117.832 8.3403 117.791 8.27781 117.763 8.20911C116.255 4.44036 117.155 1.80786 118.708 0.862855C119.276 0.530564 119.948 0.421383 120.592 0.556513C121.237 0.691643 121.808 1.06144 122.195 1.59411C124.108 3.84411 127.618 12.1354 128.326 18.1654C128.776 21.9116 127.201 24.0491 125.491 24.5104C125.258 24.5595 125.02 24.5784 124.783 24.5666Z" fill="#313B44"/>
<path d="M334.64 116.918H322.389V125.704H334.64V116.918Z" fill="white"/>
<path d="M334.64 126.267H322.366C322.217 126.267 322.074 126.207 321.969 126.102C321.863 125.996 321.804 125.853 321.804 125.704V116.918C321.804 116.769 321.863 116.626 321.969 116.52C322.074 116.415 322.217 116.355 322.366 116.355H334.618C334.767 116.355 334.91 116.415 335.015 116.52C335.121 116.626 335.18 116.769 335.18 116.918V125.704C335.18 125.85 335.124 125.989 335.023 126.094C334.923 126.199 334.785 126.261 334.64 126.267ZM322.951 125.142H334.078V117.48H322.951V125.142Z" fill="#A1A1A1"/>
<path d="M47.6188 27.2441H15.4888V59.3741H47.6188V27.2441Z" fill="white"/>
<path d="M47.6188 59.9366H15.4888C15.3405 59.9338 15.1991 59.8736 15.0942 59.7687C14.9893 59.6638 14.9291 59.5224 14.9263 59.3741V27.2441C14.9263 27.095 14.9855 26.9519 15.091 26.8464C15.1965 26.7409 15.3396 26.6816 15.4888 26.6816H47.6188C47.768 26.6816 47.911 26.7409 48.0165 26.8464C48.122 26.9519 48.1813 27.095 48.1813 27.2441V59.3741C48.1813 59.5233 48.122 59.6664 48.0165 59.7719C47.911 59.8774 47.768 59.9366 47.6188 59.9366ZM16.0513 58.8116H47.0563V27.8066H16.0513V58.8116Z" fill="#A1A1A1"/>
<path d="M42.1738 34.939H21.395C21.2458 34.939 21.1028 34.8797 20.9973 34.7742C20.8918 34.6687 20.8325 34.5256 20.8325 34.3765C20.8325 34.2273 20.8918 34.0842 20.9973 33.9787C21.1028 33.8732 21.2458 33.814 21.395 33.814H42.1738C42.3221 33.8168 42.4635 33.877 42.5683 33.9819C42.6732 34.0868 42.7334 34.2282 42.7363 34.3765C42.7363 34.5256 42.677 34.6687 42.5715 34.7742C42.466 34.8797 42.323 34.939 42.1738 34.939Z" fill="#A1A1A1"/>
<path d="M42.1738 40.7554H21.395C21.2458 40.7554 21.1028 40.6961 20.9973 40.5906C20.8918 40.4851 20.8325 40.3421 20.8325 40.1929C20.8325 40.0437 20.8918 39.9006 20.9973 39.7951C21.1028 39.6896 21.2458 39.6304 21.395 39.6304H42.1738C42.323 39.6304 42.466 39.6896 42.5715 39.7951C42.677 39.9006 42.7363 40.0437 42.7363 40.1929C42.7334 40.3412 42.6732 40.4826 42.5683 40.5874C42.4635 40.6923 42.3221 40.7525 42.1738 40.7554Z" fill="#A1A1A1"/>
<path d="M42.1738 46.5493H21.395C21.2458 46.5493 21.1028 46.4901 20.9973 46.3846C20.8918 46.2791 20.8325 46.136 20.8325 45.9868C20.8325 45.8376 20.8918 45.6946 20.9973 45.5891C21.1028 45.4836 21.2458 45.4243 21.395 45.4243H42.1738C42.3221 45.4272 42.4635 45.4874 42.5683 45.5923C42.6732 45.6971 42.7334 45.8385 42.7363 45.9868C42.7363 46.136 42.677 46.2791 42.5715 46.3846C42.466 46.4901 42.323 46.5493 42.1738 46.5493Z" fill="#A1A1A1"/>
<path d="M36.0763 52.354H21.4513C21.3774 52.357 21.3036 52.3454 21.2342 52.3199C21.1648 52.2944 21.1011 52.2554 21.0468 52.2053C20.9925 52.1551 20.9486 52.0947 20.9176 52.0276C20.8866 51.9604 20.8692 51.8878 20.8663 51.814C20.8663 51.6648 20.9255 51.5217 21.031 51.4162C21.1365 51.3107 21.2796 51.2515 21.4288 51.2515H36.0538C36.203 51.2515 36.346 51.3107 36.4515 51.4162C36.557 51.5217 36.6163 51.6648 36.6163 51.814C36.6107 51.9554 36.552 52.0896 36.4519 52.1896C36.3519 52.2897 36.2177 52.3484 36.0763 52.354Z" fill="#A1A1A1"/>
</svg>
