<svg width="173" height="128" viewBox="0 0 173 128" fill="none" xmlns="http://www.w3.org/2000/svg">
<path d="M163.092 7.58057H9.64135C4.49362 7.58057 0.327026 11.9696 0.327026 17.392V98.7616C0.327026 104.177 4.49362 108.573 9.64135 108.573H163.092C168.24 108.573 172.407 104.184 172.407 98.7616V17.3855C172.407 11.9696 168.24 7.58057 163.092 7.58057Z" fill="white"/>
<path d="M163.092 108.888H9.64137C4.32357 108.888 0 104.342 0 98.7559V17.3863C0 11.8004 4.32357 7.25439 9.64137 7.25439H163.092C168.41 7.25439 172.734 11.8004 172.734 17.3863V98.7559C172.708 104.342 168.41 108.888 163.092 108.888ZM9.64137 7.90849C4.68333 7.90849 0.68026 12.1601 0.68026 17.3863V98.7559C0.68026 103.989 4.70949 108.234 9.66754 108.234H163.092C168.05 108.234 172.08 103.982 172.08 98.7559V17.3863C172.08 12.1536 168.05 7.90849 163.092 7.90849H9.64137Z" fill="#A1A1A1"/>
<path d="M124.383 72.2188H159.514V115.389C159.514 116.315 159.146 117.204 158.491 117.859C157.836 118.514 156.948 118.882 156.022 118.882H127.895C126.969 118.882 126.081 118.514 125.426 117.859C124.771 117.204 124.403 116.315 124.403 115.389V72.2188H124.383Z" fill="white"/>
<path d="M159.515 72.2185V115.389C159.515 116.316 159.147 117.205 158.492 117.861C157.837 118.517 156.949 118.887 156.022 118.888H127.895C126.969 118.887 126.08 118.517 125.425 117.861C124.77 117.205 124.403 116.316 124.403 115.389V72.2185H159.534H159.515ZM159.534 71.5645H124.383C124.21 71.5645 124.043 71.6334 123.92 71.756C123.798 71.8787 123.729 72.0451 123.729 72.2185V115.389C123.729 116.489 124.166 117.545 124.943 118.324C125.721 119.102 126.775 119.541 127.876 119.542H156.002C157.102 119.541 158.157 119.102 158.935 118.324C159.712 117.545 160.149 116.489 160.149 115.389V72.2185C160.149 72.0451 160.08 71.8787 159.957 71.756C159.835 71.6334 159.668 71.5645 159.495 71.5645H159.534Z" fill="#313B44"/>
<path d="M159.514 83.9468H124.383V101.136H159.514V83.9468Z" fill="#A1A1A1"/>
<path d="M160.921 57.894H122.97C122.013 57.894 121.237 58.6701 121.237 59.6274V70.4854C121.237 71.4427 122.013 72.2188 122.97 72.2188H160.921C161.878 72.2188 162.654 71.4427 162.654 70.4854V59.6274C162.654 58.6701 161.878 57.894 160.921 57.894Z" fill="#EE4937"/>
<path d="M160.934 57.8938C161.393 57.8938 161.834 58.0765 162.159 58.4015C162.485 58.7266 162.667 59.1675 162.667 59.6272V70.4852C162.667 70.9449 162.485 71.3858 162.159 71.7109C161.834 72.0359 161.393 72.2185 160.934 72.2185H122.996C122.536 72.2185 122.096 72.0359 121.771 71.7109C121.445 71.3858 121.263 70.9449 121.263 70.4852V59.6599C121.259 59.4295 121.3 59.2006 121.385 58.9865C121.47 58.7724 121.597 58.5775 121.759 58.413C121.92 58.2486 122.113 58.118 122.325 58.0288C122.538 57.9397 122.766 57.8938 122.996 57.8938H160.934ZM160.934 57.2397H122.996C122.364 57.2415 121.757 57.4936 121.31 57.9409C120.863 58.3883 120.61 58.9945 120.609 59.6272V70.4852C120.61 71.1179 120.863 71.7241 121.31 72.1715C121.757 72.6188 122.364 72.8709 122.996 72.8726H160.934C161.566 72.8709 162.173 72.6188 162.62 72.1715C163.067 71.7241 163.319 71.1179 163.321 70.4852V59.6599C163.325 59.3439 163.266 59.0303 163.147 58.7372C163.029 58.4442 162.854 58.1775 162.632 57.9525C162.41 57.7275 162.145 57.5487 161.854 57.4263C161.563 57.304 161.25 57.2406 160.934 57.2397Z" fill="#313B44"/>
<path d="M124.795 71.8266C124.708 71.8266 124.625 71.7922 124.564 71.7308C124.502 71.6695 124.468 71.5863 124.468 71.4996V58.6073C124.468 58.5206 124.502 58.4374 124.564 58.3761C124.625 58.3147 124.708 58.2803 124.795 58.2803C124.881 58.2819 124.963 58.3169 125.024 58.3779C125.085 58.4389 125.12 58.5211 125.122 58.6073V71.4996C125.122 71.5863 125.088 71.6695 125.026 71.7308C124.965 71.7922 124.882 71.8266 124.795 71.8266Z" fill="#313B44"/>
<path d="M129.079 71.8266C128.993 71.8266 128.909 71.7922 128.848 71.7308C128.787 71.6695 128.752 71.5863 128.752 71.4996V58.6073C128.754 58.5211 128.789 58.4389 128.85 58.3779C128.911 58.3169 128.993 58.2819 129.079 58.2803C129.166 58.2803 129.249 58.3147 129.311 58.3761C129.372 58.4374 129.406 58.5206 129.406 58.6073V71.4996C129.406 71.5863 129.372 71.6695 129.311 71.7308C129.249 71.7922 129.166 71.8266 129.079 71.8266Z" fill="#313B44"/>
<path d="M133.37 71.8266C133.284 71.8266 133.2 71.7922 133.139 71.7308C133.078 71.6695 133.043 71.5863 133.043 71.4996V58.6073C133.043 58.5206 133.078 58.4374 133.139 58.3761C133.2 58.3147 133.284 58.2803 133.37 58.2803C133.457 58.2803 133.54 58.3147 133.602 58.3761C133.663 58.4374 133.697 58.5206 133.697 58.6073V71.4996C133.697 71.5863 133.663 71.6695 133.602 71.7308C133.54 71.7922 133.457 71.8266 133.37 71.8266Z" fill="#313B44"/>
<path d="M137.661 71.8266C137.574 71.8266 137.491 71.7922 137.43 71.7308C137.369 71.6695 137.334 71.5863 137.334 71.4996V58.6073C137.334 58.5206 137.369 58.4374 137.43 58.3761C137.491 58.3147 137.574 58.2803 137.661 58.2803C137.747 58.2819 137.83 58.3169 137.891 58.3779C137.952 58.4389 137.987 58.5211 137.988 58.6073V71.4996C137.988 71.5863 137.954 71.6695 137.892 71.7308C137.831 71.7922 137.748 71.8266 137.661 71.8266Z" fill="#313B44"/>
<path d="M141.965 71.8266C141.878 71.8266 141.795 71.7922 141.734 71.7308C141.672 71.6695 141.638 71.5863 141.638 71.4996V58.6073C141.64 58.5211 141.675 58.4389 141.736 58.3779C141.797 58.3169 141.879 58.2819 141.965 58.2803C142.052 58.2803 142.135 58.3147 142.196 58.3761C142.258 58.4374 142.292 58.5206 142.292 58.6073V71.4996C142.292 71.5863 142.258 71.6695 142.196 71.7308C142.135 71.7922 142.052 71.8266 141.965 71.8266Z" fill="#313B44"/>
<path d="M146.236 71.8266C146.15 71.8266 146.066 71.7922 146.005 71.7308C145.944 71.6695 145.909 71.5863 145.909 71.4996V58.6073C145.909 58.5206 145.944 58.4374 146.005 58.3761C146.066 58.3147 146.15 58.2803 146.236 58.2803C146.323 58.2803 146.406 58.3147 146.468 58.3761C146.529 58.4374 146.563 58.5206 146.563 58.6073V71.4996C146.563 71.5863 146.529 71.6695 146.468 71.7308C146.406 71.7922 146.323 71.8266 146.236 71.8266Z" fill="#313B44"/>
<path d="M150.527 71.8266C150.44 71.8266 150.357 71.7922 150.296 71.7308C150.235 71.6695 150.2 71.5863 150.2 71.4996V58.6073C150.2 58.5206 150.235 58.4374 150.296 58.3761C150.357 58.3147 150.44 58.2803 150.527 58.2803C150.613 58.2819 150.696 58.3169 150.757 58.3779C150.818 58.4389 150.853 58.5211 150.854 58.6073V71.4996C150.854 71.5863 150.82 71.6695 150.758 71.7308C150.697 71.7922 150.614 71.8266 150.527 71.8266Z" fill="#313B44"/>
<path d="M154.811 71.8266C154.725 71.8266 154.641 71.7922 154.58 71.7308C154.519 71.6695 154.484 71.5863 154.484 71.4996V58.6073C154.486 58.5211 154.521 58.4389 154.582 58.3779C154.643 58.3169 154.725 58.2819 154.811 58.2803C154.898 58.2803 154.981 58.3147 155.043 58.3761C155.104 58.4374 155.138 58.5206 155.138 58.6073V71.4996C155.138 71.5863 155.104 71.6695 155.043 71.7308C154.981 71.7922 154.898 71.8266 154.811 71.8266Z" fill="#313B44"/>
<path d="M159.102 71.8266C159.016 71.8266 158.933 71.7922 158.871 71.7308C158.81 71.6695 158.775 71.5863 158.775 71.4996V58.6073C158.775 58.5206 158.81 58.4374 158.871 58.3761C158.933 58.3147 159.016 58.2803 159.102 58.2803C159.189 58.2803 159.272 58.3147 159.334 58.3761C159.395 58.4374 159.43 58.5206 159.43 58.6073V71.4996C159.43 71.5863 159.395 71.6695 159.334 71.7308C159.272 71.7922 159.189 71.8266 159.102 71.8266Z" fill="#313B44"/>
<path d="M117.606 17.8439V115.043H23.5997V0.654297H99.3375L117.606 17.8439Z" fill="white"/>
<path d="M99.3375 0.654096L117.606 17.8437V115.042H23.5735V0.654096H99.3375ZM99.3375 0H23.5735C23.4001 0 23.2337 0.068913 23.111 0.19158C22.9883 0.314247 22.9194 0.480619 22.9194 0.654096V115.042C22.9194 115.216 22.9883 115.382 23.111 115.505C23.2337 115.628 23.4001 115.697 23.5735 115.697H117.606C117.78 115.697 117.946 115.628 118.069 115.505C118.192 115.382 118.26 115.216 118.26 115.042V17.8437C118.261 17.7545 118.243 17.6661 118.208 17.584C118.174 17.5019 118.122 17.4278 118.058 17.3662L99.7823 0.176606C99.6616 0.0636666 99.5027 0.000570688 99.3375 0V0Z" fill="#313B44"/>
<path d="M78.9494 14.5274H73.7166V9.29463C73.7175 9.11026 73.6819 8.92754 73.6119 8.75695C73.542 8.58637 73.439 8.43129 73.3089 8.30061C73.1789 8.16994 73.0243 8.06625 72.854 7.99549C72.6838 7.92474 72.5012 7.88832 72.3168 7.88832H68.9417C68.7554 7.88572 68.5704 7.92018 68.3975 7.98968C68.2246 8.05919 68.0672 8.16237 67.9346 8.29322C67.8019 8.42407 67.6965 8.57997 67.6247 8.75189C67.5528 8.9238 67.5157 9.10829 67.5158 9.29463V14.5274H62.283C62.0944 14.5247 61.9073 14.56 61.7326 14.6311C61.558 14.7023 61.3995 14.8078 61.2664 14.9414C61.1334 15.0751 61.0286 15.2341 60.9583 15.4091C60.888 15.584 60.8535 15.7713 60.8571 15.9599V19.335C60.8571 19.5194 60.8935 19.7019 60.9642 19.8722C61.035 20.0424 61.1387 20.197 61.2694 20.3271C61.4 20.4572 61.5551 20.5601 61.7257 20.6301C61.8963 20.7001 62.079 20.7356 62.2634 20.7348H67.4961V25.9675C67.4961 26.1519 67.5325 26.3345 67.6033 26.5047C67.6741 26.675 67.7777 26.8296 67.9084 26.9596C68.0391 27.0897 68.1942 27.1927 68.3648 27.2626C68.5353 27.3326 68.7181 27.3682 68.9024 27.3673H72.2776C72.6488 27.3673 73.0049 27.2198 73.2674 26.9573C73.5299 26.6948 73.6773 26.3388 73.6773 25.9675V20.7348H78.9101C79.0939 20.7348 79.276 20.6986 79.4458 20.6282C79.6156 20.5579 79.7699 20.4548 79.8999 20.3248C80.0299 20.1948 80.133 20.0405 80.2033 19.8707C80.2737 19.7008 80.3099 19.5188 80.3099 19.335V15.9599C80.3187 15.5897 80.1804 15.2311 79.9255 14.9627C79.6705 14.6942 79.3195 14.5377 78.9494 14.5274V14.5274Z" fill="#EE4937"/>
<path d="M78.3936 36.8323H36.4202C36.3334 36.8323 36.2503 36.7979 36.1889 36.7365C36.1276 36.6752 36.0931 36.592 36.0931 36.5053C36.0931 36.4185 36.1276 36.3353 36.1889 36.274C36.2503 36.2127 36.3334 36.1782 36.4202 36.1782H78.3936C78.4798 36.1799 78.562 36.2149 78.623 36.2759C78.6839 36.3368 78.7189 36.4191 78.7206 36.5053C78.7206 36.592 78.6862 36.6752 78.6248 36.7365C78.5635 36.7979 78.4803 36.8323 78.3936 36.8323Z" fill="#A1A1A1"/>
<path d="M104.799 36.8323H90.553C90.4663 36.8323 90.3831 36.7979 90.3217 36.7365C90.2604 36.6752 90.226 36.592 90.226 36.5053C90.2276 36.4191 90.2626 36.3368 90.3236 36.2759C90.3846 36.2149 90.4668 36.1799 90.553 36.1782H104.799C104.885 36.1799 104.968 36.2149 105.029 36.2759C105.09 36.3368 105.125 36.4191 105.126 36.5053C105.126 36.592 105.092 36.6752 105.03 36.7365C104.969 36.7979 104.886 36.8323 104.799 36.8323Z" fill="#A1A1A1"/>
<path d="M68.8699 45.9241H36.4202C36.3334 45.9241 36.2503 45.8897 36.1889 45.8283C36.1276 45.767 36.0931 45.6838 36.0931 45.5971C36.0931 45.5103 36.1276 45.4271 36.1889 45.3658C36.2503 45.3045 36.3334 45.27 36.4202 45.27H68.8699C68.9567 45.27 69.0398 45.3045 69.1012 45.3658C69.1625 45.4271 69.197 45.5103 69.197 45.5971C69.197 45.6838 69.1625 45.767 69.1012 45.8283C69.0398 45.8897 68.9567 45.9241 68.8699 45.9241Z" fill="#A1A1A1"/>
<path d="M103.216 45.9241H90.553C90.4663 45.9241 90.3831 45.8897 90.3217 45.8283C90.2604 45.767 90.226 45.6838 90.226 45.5971C90.226 45.5103 90.2604 45.4271 90.3217 45.3658C90.3831 45.3045 90.4663 45.27 90.553 45.27H103.216C103.303 45.27 103.386 45.3045 103.448 45.3658C103.509 45.4271 103.543 45.5103 103.543 45.5971C103.543 45.6838 103.509 45.767 103.448 45.8283C103.386 45.8897 103.303 45.9241 103.216 45.9241Z" fill="#A1A1A1"/>
<path d="M73.599 54.9769H36.4202C36.3334 54.9769 36.2503 54.9424 36.1889 54.8811C36.1276 54.8197 36.0931 54.7365 36.0931 54.6498C36.0931 54.5631 36.1276 54.4799 36.1889 54.4185C36.2503 54.3572 36.3334 54.3228 36.4202 54.3228H73.599C73.6857 54.3228 73.7689 54.3572 73.8303 54.4185C73.8916 54.4799 73.926 54.5631 73.926 54.6498C73.926 54.6928 73.9176 54.7353 73.9012 54.775C73.8847 54.8146 73.8606 54.8507 73.8303 54.8811C73.7999 54.9114 73.7638 54.9355 73.7242 54.952C73.6845 54.9684 73.6419 54.9769 73.599 54.9769Z" fill="#A1A1A1"/>
<path d="M104.799 54.9769H90.553C90.4668 54.9752 90.3846 54.9402 90.3236 54.8792C90.2626 54.8182 90.2276 54.736 90.226 54.6498C90.226 54.5631 90.2604 54.4799 90.3217 54.4185C90.3831 54.3572 90.4663 54.3228 90.553 54.3228H104.799C104.886 54.3228 104.969 54.3572 105.03 54.4185C105.092 54.4799 105.126 54.5631 105.126 54.6498C105.125 54.736 105.09 54.8182 105.029 54.8792C104.968 54.9402 104.885 54.9752 104.799 54.9769V54.9769Z" fill="#A1A1A1"/>
<path d="M68.8699 64.0496H36.4202C36.3334 64.0496 36.2503 64.0151 36.1889 63.9538C36.1276 63.8925 36.0931 63.8093 36.0931 63.7225C36.0931 63.6358 36.1276 63.5526 36.1889 63.4913C36.2503 63.43 36.3334 63.3955 36.4202 63.3955H68.8699C68.9567 63.3955 69.0398 63.43 69.1012 63.4913C69.1625 63.5526 69.197 63.6358 69.197 63.7225C69.197 63.8093 69.1625 63.8925 69.1012 63.9538C69.0398 64.0151 68.9567 64.0496 68.8699 64.0496Z" fill="#A1A1A1"/>
<path d="M102.425 64.0496H90.553C90.4668 64.0479 90.3846 64.0129 90.3236 63.9519C90.2626 63.891 90.2276 63.8088 90.226 63.7225C90.226 63.6358 90.2604 63.5526 90.3217 63.4913C90.3831 63.43 90.4663 63.3955 90.553 63.3955H102.425C102.512 63.3955 102.595 63.43 102.656 63.4913C102.717 63.5526 102.752 63.6358 102.752 63.7225C102.752 63.8093 102.717 63.8925 102.656 63.9538C102.595 64.0151 102.512 64.0496 102.425 64.0496Z" fill="#A1A1A1"/>
<path d="M78.3936 73.115H36.4202C36.3334 73.115 36.2503 73.0806 36.1889 73.0192C36.1276 72.9579 36.0931 72.8747 36.0931 72.788C36.0931 72.7012 36.1276 72.6181 36.1889 72.5567C36.2503 72.4954 36.3334 72.4609 36.4202 72.4609H78.3936C78.4798 72.4626 78.562 72.4976 78.623 72.5586C78.6839 72.6196 78.7189 72.7018 78.7206 72.788C78.7206 72.8747 78.6862 72.9579 78.6248 73.0192C78.5635 73.0806 78.4803 73.115 78.3936 73.115Z" fill="#A1A1A1"/>
<path d="M104.799 73.115H90.553C90.4663 73.115 90.3831 73.0806 90.3217 73.0192C90.2604 72.9579 90.226 72.8747 90.226 72.788C90.2276 72.7018 90.2626 72.6196 90.3236 72.5586C90.3846 72.4976 90.4668 72.4626 90.553 72.4609H104.799C104.885 72.4626 104.968 72.4976 105.029 72.5586C105.09 72.6196 105.125 72.7018 105.126 72.788C105.126 72.8747 105.092 72.9579 105.03 73.0192C104.969 73.0806 104.886 73.115 104.799 73.115Z" fill="#A1A1A1"/>
<path d="M64.2324 82.1868H36.4202C36.3334 82.1868 36.2503 82.1523 36.1889 82.091C36.1276 82.0297 36.0931 81.9465 36.0931 81.8598C36.0931 81.773 36.1276 81.6898 36.1889 81.6285C36.2503 81.5672 36.3334 81.5327 36.4202 81.5327H64.2324C64.3191 81.5327 64.4023 81.5672 64.4636 81.6285C64.5249 81.6898 64.5594 81.773 64.5594 81.8598C64.5594 81.9465 64.5249 82.0297 64.4636 82.091C64.4023 82.1523 64.3191 82.1868 64.2324 82.1868Z" fill="#A1A1A1"/>
<path d="M104.799 82.1868H90.553C90.4663 82.1868 90.3831 82.1523 90.3217 82.091C90.2604 82.0297 90.226 81.9465 90.226 81.8598C90.2276 81.7735 90.2626 81.6913 90.3236 81.6304C90.3846 81.5694 90.4668 81.5344 90.553 81.5327H104.799C104.885 81.5344 104.968 81.5694 105.029 81.6304C105.09 81.6913 105.125 81.7735 105.126 81.8598C105.126 81.9465 105.092 82.0297 105.03 82.091C104.969 82.1523 104.886 82.1868 104.799 82.1868Z" fill="#A1A1A1"/>
<path d="M105.833 92.0443H35.38C35.2933 92.0443 35.2101 92.0098 35.1488 91.9485C35.0874 91.8871 35.053 91.8039 35.053 91.7172C35.053 91.6305 35.0874 91.5473 35.1488 91.4859C35.2101 91.4246 35.2933 91.3901 35.38 91.3901H105.833C105.919 91.3901 106.003 91.4246 106.064 91.4859C106.125 91.5473 106.16 91.6305 106.16 91.7172C106.16 91.8039 106.125 91.8871 106.064 91.9485C106.003 92.0098 105.919 92.0443 105.833 92.0443Z" fill="#EE4937"/>
<path d="M105.833 101.195H91.5995C91.5128 101.195 91.4296 101.161 91.3683 101.099C91.3069 101.038 91.2725 100.955 91.2725 100.868C91.2725 100.781 91.3069 100.698 91.3683 100.637C91.4296 100.575 91.5128 100.541 91.5995 100.541H105.839C105.926 100.541 106.009 100.575 106.07 100.637C106.132 100.698 106.166 100.781 106.166 100.868C106.166 100.912 106.158 100.955 106.141 100.995C106.124 101.035 106.099 101.071 106.068 101.102C106.037 101.132 106 101.156 105.96 101.172C105.919 101.188 105.876 101.196 105.833 101.195Z" fill="#A1A1A1"/>
<path d="M99.3375 0.654297V17.6477H117.606" fill="#313B44"/>
<path d="M117.914 112.4C117.912 113.625 117.424 114.8 116.557 115.666C115.69 116.531 114.515 117.018 113.289 117.018H90.5726C89.3771 116.973 88.2455 116.466 87.4156 115.604C86.5857 114.743 86.1221 113.593 86.1221 112.397C86.1221 111.2 86.5857 110.05 87.4156 109.189C88.2455 108.327 89.3771 107.82 90.5726 107.775H113.289C114.515 107.777 115.691 108.265 116.557 109.132C117.424 109.999 117.912 111.174 117.914 112.4V112.4Z" fill="white"/>
<path d="M113.289 107.776C113.911 107.752 114.531 107.854 115.112 108.076C115.693 108.298 116.223 108.634 116.671 109.066C117.119 109.497 117.475 110.015 117.719 110.587C117.962 111.159 118.088 111.775 118.088 112.397C118.088 113.019 117.962 113.634 117.719 114.207C117.475 114.779 117.119 115.296 116.671 115.728C116.223 116.159 115.693 116.496 115.112 116.717C114.531 116.939 113.911 117.041 113.289 117.018H90.5726C89.3771 116.973 88.2455 116.466 87.4156 115.605C86.5857 114.743 86.1221 113.593 86.1221 112.397C86.1221 111.2 86.5857 110.051 87.4156 109.189C88.2455 108.327 89.3771 107.821 90.5726 107.776H113.289ZM113.289 107.121H90.5726C89.2057 107.17 87.9108 107.746 86.9608 108.73C86.0108 109.715 85.4799 111.029 85.4799 112.397C85.4799 113.765 86.0108 115.079 86.9608 116.063C87.9108 117.047 89.2057 117.624 90.5726 117.672H113.289C113.998 117.697 114.704 117.579 115.366 117.325C116.028 117.071 116.631 116.687 117.141 116.194C117.651 115.702 118.057 115.112 118.334 114.46C118.611 113.807 118.754 113.106 118.754 112.397C118.754 111.688 118.611 110.986 118.334 110.334C118.057 109.681 117.651 109.091 117.141 108.599C116.631 108.107 116.028 107.722 115.366 107.468C114.704 107.214 113.998 107.096 113.289 107.121Z" fill="#313B44"/>
<path d="M101.934 107.775C101.934 107.775 100.495 108.567 100.495 112.4C100.495 115.945 101.934 117.018 101.934 117.018H90.5726C89.3771 116.973 88.2455 116.466 87.4156 115.604C86.5857 114.743 86.1221 113.593 86.1221 112.397C86.1221 111.2 86.5857 110.05 87.4156 109.189C88.2455 108.327 89.3771 107.82 90.5726 107.775H101.934Z" fill="#EE4937"/>
<path d="M96.0999 119.929C96.1307 121.154 96.6468 122.317 97.5348 123.162C98.4228 124.007 99.61 124.465 100.836 124.435L123.546 123.886C124.164 123.889 124.777 123.768 125.348 123.53C125.919 123.292 126.436 122.942 126.869 122.5C127.303 122.059 127.643 121.535 127.87 120.959C128.097 120.384 128.206 119.769 128.191 119.15C128.176 118.532 128.038 117.923 127.783 117.359C127.529 116.795 127.164 116.288 126.71 115.868C126.256 115.448 125.722 115.123 125.141 114.913C124.559 114.702 123.941 114.611 123.323 114.644L100.613 115.193C99.3871 115.224 98.2234 115.74 97.3773 116.628C96.5311 117.516 96.0717 118.703 96.0999 119.929Z" fill="white"/>
<path d="M123.434 114.643C124.632 114.671 125.772 115.163 126.614 116.015C127.456 116.867 127.935 118.013 127.949 119.21C127.964 120.408 127.513 121.565 126.691 122.437C125.87 123.309 124.742 123.828 123.546 123.885L100.835 124.435H100.757C99.5304 124.45 98.3483 123.976 97.4707 123.12C96.593 122.263 96.0916 121.092 96.0769 119.866C96.0621 118.639 96.5352 117.457 97.392 116.58C98.2489 115.702 99.4192 115.201 100.646 115.186L123.356 114.636H123.467L123.434 114.643ZM123.467 113.982H123.343L100.626 114.532C99.2842 114.629 98.0299 115.234 97.1196 116.225C96.2093 117.216 95.7116 118.517 95.7283 119.862C95.745 121.207 96.2748 122.496 97.2094 123.463C98.1441 124.431 99.413 125.006 100.757 125.069H100.888L123.598 124.52C124.966 124.458 126.257 123.866 127.197 122.87C128.138 121.874 128.654 120.551 128.637 119.181C128.62 117.811 128.071 116.502 127.106 115.529C126.142 114.557 124.837 113.997 123.467 113.969V113.982Z" fill="#313B44"/>
<path d="M111.968 114.918C112.898 116.235 113.423 117.795 113.479 119.405C113.411 121.069 112.963 122.696 112.171 124.161L123.526 123.886C124.145 123.889 124.757 123.768 125.328 123.53C125.899 123.292 126.417 122.942 126.85 122.5C127.283 122.059 127.623 121.535 127.85 120.959C128.077 120.384 128.186 119.769 128.172 119.15C128.157 118.532 128.018 117.923 127.763 117.359C127.509 116.795 127.144 116.288 126.69 115.868C126.236 115.448 125.703 115.123 125.121 114.913C124.539 114.702 123.921 114.611 123.304 114.644L111.968 114.918Z" fill="#EE4937"/>
<path d="M72.173 115.612V119.536C72.173 121.708 67.4439 123.461 61.6028 123.461C55.7618 123.461 51.0392 121.695 51.0392 119.536V115.612H72.173Z" fill="#313B44"/>
<path d="M72.1729 115.611V119.536C72.1729 121.707 67.4438 123.46 61.6027 123.46C55.7616 123.46 51.039 121.694 51.039 119.536V115.611H72.1729ZM72.1729 114.957H51.0456C50.8721 114.957 50.7057 115.026 50.5831 115.149C50.4604 115.271 50.3915 115.438 50.3915 115.611V119.536C50.3915 122.518 56.1737 124.114 61.6092 124.114C67.0448 124.114 72.8335 122.505 72.8335 119.536V115.611C72.8335 115.438 72.7646 115.271 72.6419 115.149C72.5193 115.026 72.3529 114.957 72.1794 114.957H72.1729Z" fill="#313B44"/>
<path d="M61.6028 119.549C67.4406 119.549 72.173 117.786 72.173 115.611C72.173 113.437 67.4406 111.674 61.6028 111.674C55.765 111.674 51.0326 113.437 51.0326 115.611C51.0326 117.786 55.765 119.549 61.6028 119.549Z" fill="white"/>
<path d="M61.6027 111.68C67.4438 111.68 72.1729 113.439 72.1729 115.605C72.1729 117.77 67.4438 119.529 61.6027 119.529C55.7617 119.529 51.0391 117.77 51.0391 115.605C51.0391 113.439 55.7682 111.68 61.6027 111.68ZM61.6027 111.026C56.1672 111.026 50.385 112.635 50.385 115.605C50.385 118.574 56.1672 120.183 61.6027 120.183C67.0383 120.183 72.827 118.574 72.827 115.605C72.827 112.635 67.0448 111.026 61.6027 111.026Z" fill="#313B44"/>
<path d="M66.8682 120.445C66.786 120.446 66.7067 120.415 66.6458 120.36L57.3315 111.922C57.2673 111.863 57.2292 111.781 57.2255 111.694C57.2218 111.607 57.2529 111.522 57.3119 111.458C57.3709 111.394 57.4529 111.356 57.54 111.352C57.6271 111.348 57.7121 111.379 57.7763 111.438L67.0841 119.876C67.1147 119.906 67.1391 119.943 67.1557 119.982C67.1723 120.022 67.1808 120.065 67.1808 120.108C67.1808 120.151 67.1723 120.194 67.1557 120.234C67.1391 120.274 67.1147 120.31 67.0841 120.34C67.0284 120.402 66.951 120.439 66.8682 120.445V120.445Z" fill="#313B44"/>
<path d="M29.1858 118.646V122.571C29.1858 124.749 33.9214 126.496 39.756 126.496C45.5905 126.496 50.3262 124.736 50.3262 122.571V118.646H29.1858Z" fill="#313B44"/>
<path d="M50.3262 118.647V122.571C50.3262 124.749 45.5906 126.496 39.756 126.496C33.9215 126.496 29.1858 124.736 29.1858 122.571V118.647H50.3262ZM50.3262 117.993H29.1858C29.0124 117.993 28.846 118.062 28.7233 118.184C28.6007 118.307 28.5317 118.473 28.5317 118.647V122.571C28.5317 125.554 34.314 127.15 39.756 127.15C45.1981 127.15 50.9803 125.541 50.9803 122.571V118.647C50.9803 118.473 50.9114 118.307 50.7887 118.184C50.6661 118.062 50.4997 117.993 50.3262 117.993Z" fill="#313B44"/>
<path d="M39.756 122.584C45.5937 122.584 50.3262 120.821 50.3262 118.647C50.3262 116.472 45.5937 114.709 39.756 114.709C33.9182 114.709 29.1858 116.472 29.1858 118.647C29.1858 120.821 33.9182 122.584 39.756 122.584Z" fill="white"/>
<path d="M39.756 114.709C45.5906 114.709 50.3262 116.468 50.3262 118.633C50.3262 120.798 45.5906 122.558 39.756 122.558C33.9215 122.558 29.1858 120.798 29.1858 118.633C29.1858 116.468 33.9215 114.709 39.756 114.709ZM39.756 114.055C34.314 114.055 28.5317 115.664 28.5317 118.633C28.5317 121.603 34.314 123.212 39.756 123.212C45.1981 123.212 50.9803 121.603 50.9803 118.633C50.9803 115.664 45.1981 114.055 39.756 114.055Z" fill="#313B44"/>
<path d="M43.7394 122.617C43.651 122.617 43.5663 122.581 43.5039 122.519L36.1322 114.938C36.1022 114.907 36.0785 114.87 36.0626 114.83C36.0466 114.79 36.0387 114.747 36.0393 114.704C36.0406 114.617 36.0763 114.534 36.1388 114.473C36.2012 114.413 36.2853 114.379 36.3724 114.38C36.4594 114.382 36.5425 114.417 36.6032 114.48L43.9749 122.061C44.0055 122.091 44.0298 122.127 44.0464 122.167C44.063 122.207 44.0716 122.25 44.0716 122.293C44.0716 122.336 44.063 122.379 44.0464 122.419C44.0298 122.459 44.0055 122.495 43.9749 122.525C43.9439 122.556 43.907 122.579 43.8665 122.595C43.826 122.611 43.7828 122.618 43.7394 122.617Z" fill="#313B44"/>
<path d="M40.469 108.946V112.871C40.469 115.042 45.1981 116.795 51.0392 116.795C56.8803 116.795 61.6028 115.029 61.6028 112.871V108.946H40.469Z" fill="#313B44"/>
<path d="M61.6028 108.946V112.871C61.6028 115.042 56.8736 116.795 51.0391 116.795C45.2046 116.795 40.4689 115.029 40.4689 112.871V108.946H61.6028ZM61.6028 108.292H40.4689C40.2954 108.292 40.1291 108.361 40.0064 108.484C39.8837 108.606 39.8148 108.773 39.8148 108.946V112.871C39.8148 115.853 45.597 117.449 51.0391 117.449C56.4812 117.449 62.2568 115.84 62.2568 112.871V108.946C62.2568 108.773 62.1879 108.606 62.0653 108.484C61.9426 108.361 61.7762 108.292 61.6028 108.292V108.292Z" fill="#313B44"/>
<path d="M51.0392 112.884C56.8769 112.884 61.6094 111.121 61.6094 108.946C61.6094 106.772 56.8769 105.009 51.0392 105.009C45.2014 105.009 40.469 106.772 40.469 108.946C40.469 111.121 45.2014 112.884 51.0392 112.884Z" fill="white"/>
<path d="M51.0457 105.009C56.8802 105.009 61.6093 106.775 61.6093 108.933C61.6093 111.092 56.8802 112.858 51.0457 112.858C45.2112 112.858 40.4755 111.092 40.4755 108.933C40.4755 106.775 45.2046 105.009 51.0457 105.009ZM51.0457 104.354C45.6036 104.354 39.8214 105.964 39.8214 108.933C39.8214 111.903 45.6036 113.512 51.0457 113.512C56.4878 113.512 62.2634 111.903 62.2634 108.933C62.2634 105.964 56.4812 104.354 51.0457 104.354Z" fill="#313B44"/>
<path d="M43.6805 112.864C43.6092 112.864 43.54 112.839 43.4835 112.796C43.4271 112.752 43.3866 112.691 43.368 112.622C43.3495 112.553 43.354 112.48 43.3809 112.414C43.4078 112.348 43.4556 112.292 43.517 112.256L56.2065 104.95C56.2822 104.906 56.3718 104.895 56.4561 104.917C56.5405 104.939 56.6129 104.993 56.6578 105.067C56.7002 105.143 56.7109 105.232 56.6876 105.316C56.6643 105.399 56.6089 105.47 56.5335 105.512L43.8506 112.825C43.7978 112.851 43.7395 112.865 43.6805 112.864Z" fill="#313B44"/>
<path d="M157.369 42.2281H127.51C127.423 42.2281 127.34 42.1936 127.278 42.1323C127.217 42.071 127.182 41.9878 127.182 41.901V23.6845C127.182 23.5977 127.217 23.5145 127.278 23.4532C127.34 23.3919 127.423 23.3574 127.51 23.3574H157.369C157.455 23.3591 157.537 23.3941 157.598 23.4551C157.659 23.516 157.694 23.5983 157.696 23.6845V41.8749C157.699 41.9198 157.692 41.9647 157.677 42.007C157.662 42.0494 157.638 42.0882 157.608 42.1212C157.577 42.1542 157.54 42.1807 157.499 42.199C157.458 42.2174 157.414 42.2273 157.369 42.2281ZM127.837 41.574H157.042V24.0377H127.837V41.574Z" fill="#A1A1A1"/>
<path d="M151.777 29.5716H133.37C133.284 29.5716 133.2 29.5371 133.139 29.4758C133.078 29.4144 133.043 29.3313 133.043 29.2445C133.043 29.1578 133.078 29.0746 133.139 29.0133C133.2 28.9519 133.284 28.9175 133.37 28.9175H151.777C151.863 28.9175 151.946 28.9519 152.008 29.0133C152.069 29.0746 152.104 29.1578 152.104 29.2445C152.104 29.3313 152.069 29.4144 152.008 29.4758C151.946 29.5371 151.863 29.5716 151.777 29.5716Z" fill="#A1A1A1"/>
<path d="M147.237 35.3538H133.37C133.284 35.3538 133.2 35.3194 133.139 35.258C133.078 35.1967 133.043 35.1135 133.043 35.0268C133.043 34.94 133.078 34.8568 133.139 34.7955C133.2 34.7342 133.284 34.6997 133.37 34.6997H147.237C147.324 34.6997 147.407 34.7342 147.468 34.7955C147.53 34.8568 147.564 34.94 147.564 35.0268C147.564 35.1135 147.53 35.1967 147.468 35.258C147.407 35.3194 147.324 35.3538 147.237 35.3538Z" fill="#A1A1A1"/>
</svg>
