<svg width="333" height="261" viewBox="0 0 333 261" fill="none" xmlns="http://www.w3.org/2000/svg">
<path d="M313.02 39.6685H19.5525C14.6652 39.6685 9.97812 41.6099 6.52229 45.0657C3.06646 48.5216 1.125 53.2087 1.125 58.096V211.343C1.125 216.231 3.06646 220.918 6.52229 224.374C9.97812 227.83 14.6652 229.771 19.5525 229.771H54.0112L80.7862 259.235V229.771H313.02C317.907 229.771 322.594 227.83 326.05 224.374C329.506 220.918 331.447 216.231 331.447 211.343V58.096C331.447 53.2087 329.506 48.5216 326.05 45.0657C322.594 41.6099 317.907 39.6685 313.02 39.6685Z" fill="white"/>
<path d="M313.02 39.6685C317.907 39.6685 322.594 41.6099 326.05 45.0657C329.506 48.5216 331.447 53.2087 331.447 58.096V211.343C331.447 216.231 329.506 220.918 326.05 224.374C322.594 227.829 317.907 229.771 313.02 229.771H80.7862V259.235L54.0112 229.771H19.5525C14.6652 229.771 9.97812 227.829 6.52229 224.374C3.06646 220.918 1.125 216.231 1.125 211.343V58.096C1.125 53.2087 3.06646 48.5216 6.52229 45.0657C9.97812 41.6099 14.6652 39.6685 19.5525 39.6685H313.02ZM313.02 38.5435H19.5525C14.3687 38.5494 9.39889 40.6113 5.73337 44.2768C2.06786 47.9423 0.00595499 52.9121 0 58.096V211.343C0.00298059 216.528 2.06393 221.5 5.73009 225.166C9.39625 228.832 14.3678 230.893 19.5525 230.896H53.5162L79.8975 259.988C80.0027 260.105 80.1311 260.198 80.2745 260.262C80.4178 260.326 80.573 260.359 80.73 260.36C80.8689 260.361 81.0066 260.334 81.135 260.281C81.3464 260.199 81.5283 260.056 81.6568 259.869C81.7852 259.682 81.8543 259.461 81.855 259.235V230.896H313.02C318.205 230.893 323.176 228.832 326.842 225.166C330.509 221.5 332.569 216.528 332.572 211.343V58.096C332.566 52.9121 330.505 47.9423 326.839 44.2768C323.174 40.6113 318.204 38.5494 313.02 38.5435Z" fill="#A1A1A1"/>
<path d="M313.391 135.665H253.361C253.212 135.665 253.069 135.605 252.964 135.5C252.858 135.394 252.799 135.251 252.799 135.102V62.4834C252.799 62.3342 252.858 62.1911 252.964 62.0857C253.069 61.9802 253.212 61.9209 253.361 61.9209H313.391C313.54 61.9209 313.684 61.9802 313.789 62.0857C313.895 62.1911 313.954 62.3342 313.954 62.4834V135.102C313.954 135.251 313.895 135.394 313.789 135.5C313.684 135.605 313.54 135.665 313.391 135.665ZM253.924 134.54H312.829V63.0459H253.924V134.54Z" fill="#A1A1A1"/>
<path d="M289.08 71.045H285.536V67.4563C285.536 67.2026 285.436 66.9594 285.256 66.7801C285.077 66.6008 284.834 66.5 284.58 66.5H282.274C282.148 66.5 282.024 66.5247 281.908 66.5728C281.792 66.6208 281.686 66.6913 281.598 66.7801C281.509 66.8689 281.438 66.9743 281.39 67.0903C281.342 67.2063 281.318 67.3307 281.318 67.4563V71.045H277.661C277.408 71.045 277.164 71.1458 276.985 71.3251C276.806 71.5044 276.705 71.7476 276.705 72.0012V74.2512C276.705 74.5049 276.806 74.7481 276.985 74.9274C277.164 75.1068 277.408 75.2075 277.661 75.2075H281.25V78.7962C281.25 78.9218 281.275 79.0462 281.323 79.1622C281.371 79.2782 281.441 79.3836 281.53 79.4724C281.619 79.5612 281.724 79.6317 281.84 79.6797C281.956 79.7278 282.081 79.7525 282.206 79.7525H284.513C284.766 79.7525 285.009 79.6518 285.189 79.4724C285.368 79.2931 285.469 79.0499 285.469 78.7962V75.2075H289.058C289.311 75.2075 289.554 75.1068 289.734 74.9274C289.913 74.7481 290.014 74.5049 290.014 74.2512V72.0012C290.014 71.7515 289.916 71.5116 289.742 71.3329C289.567 71.1542 289.33 71.0509 289.08 71.045Z" fill="#EE4937"/>
<path d="M288.698 87.0425H260.032C259.883 87.0425 259.74 86.9832 259.635 86.8777C259.529 86.7722 259.47 86.6292 259.47 86.48C259.47 86.3308 259.529 86.1877 259.635 86.0822C259.74 85.9767 259.883 85.9175 260.032 85.9175H288.698C288.847 85.9175 288.99 85.9767 289.095 86.0822C289.201 86.1877 289.26 86.3308 289.26 86.48C289.257 86.6283 289.197 86.7697 289.092 86.8745C288.987 86.9794 288.846 87.0396 288.698 87.0425Z" fill="#A1A1A1"/>
<path d="M306.731 87.0425H297C296.852 87.0396 296.71 86.9794 296.605 86.8745C296.501 86.7697 296.44 86.6283 296.438 86.48C296.438 86.3308 296.497 86.1877 296.602 86.0822C296.708 85.9767 296.851 85.9175 297 85.9175H306.731C306.88 85.9175 307.024 85.9767 307.129 86.0822C307.234 86.1877 307.294 86.3308 307.294 86.48C307.291 86.6283 307.231 86.7697 307.126 86.8745C307.021 86.9794 306.88 87.0396 306.731 87.0425Z" fill="#A1A1A1"/>
<path d="M282.161 94.9063H259.999C259.85 94.9063 259.707 94.847 259.601 94.7415C259.496 94.636 259.436 94.4929 259.436 94.3438C259.436 94.1946 259.496 94.0515 259.601 93.946C259.707 93.8405 259.85 93.7812 259.999 93.7812H282.161C282.31 93.7812 282.454 93.8405 282.559 93.946C282.665 94.0515 282.724 94.1946 282.724 94.3438C282.724 94.4929 282.665 94.636 282.559 94.7415C282.454 94.847 282.31 94.9063 282.161 94.9063Z" fill="#A1A1A1"/>
<path d="M305.651 94.9063H297C296.851 94.9063 296.708 94.847 296.602 94.7415C296.497 94.636 296.438 94.4929 296.438 94.3438C296.44 94.1955 296.501 94.0541 296.605 93.9492C296.71 93.8443 296.852 93.7841 297 93.7812H305.651C305.8 93.7841 305.941 93.8443 306.046 93.9492C306.151 94.0541 306.211 94.1955 306.214 94.3438C306.214 94.4929 306.154 94.636 306.049 94.7415C305.943 94.847 305.8 94.9063 305.651 94.9063Z" fill="#A1A1A1"/>
<path d="M285.424 102.781H260.032C259.883 102.781 259.74 102.722 259.635 102.616C259.529 102.511 259.47 102.368 259.47 102.219C259.47 102.07 259.529 101.926 259.635 101.821C259.74 101.716 259.883 101.656 260.032 101.656H285.424C285.572 101.659 285.713 101.719 285.818 101.824C285.923 101.929 285.983 102.07 285.986 102.219C285.986 102.368 285.927 102.511 285.822 102.616C285.716 102.722 285.573 102.781 285.424 102.781Z" fill="#A1A1A1"/>
<path d="M306.731 102.781H297C296.851 102.781 296.708 102.722 296.602 102.616C296.497 102.511 296.438 102.368 296.438 102.219C296.44 102.07 296.501 101.929 296.605 101.824C296.71 101.719 296.852 101.659 297 101.656H306.731C306.88 101.659 307.021 101.719 307.126 101.824C307.231 101.929 307.291 102.07 307.294 102.219C307.294 102.368 307.234 102.511 307.129 102.616C307.024 102.722 306.88 102.781 306.731 102.781Z" fill="#A1A1A1"/>
<path d="M282.161 110.656H259.999C259.85 110.656 259.707 110.597 259.601 110.492C259.496 110.386 259.436 110.243 259.436 110.094C259.436 109.945 259.496 109.801 259.601 109.696C259.707 109.591 259.85 109.531 259.999 109.531H282.161C282.31 109.531 282.454 109.591 282.559 109.696C282.665 109.801 282.724 109.945 282.724 110.094C282.724 110.243 282.665 110.386 282.559 110.492C282.454 110.597 282.31 110.656 282.161 110.656Z" fill="#A1A1A1"/>
<path d="M305.111 110.656H297C296.851 110.656 296.708 110.597 296.602 110.492C296.497 110.386 296.438 110.243 296.438 110.094C296.44 109.945 296.501 109.804 296.605 109.699C296.71 109.594 296.852 109.534 297 109.531H305.111C305.26 109.534 305.401 109.594 305.506 109.699C305.611 109.804 305.671 109.945 305.674 110.094C305.674 110.243 305.614 110.386 305.509 110.492C305.404 110.597 305.26 110.656 305.111 110.656Z" fill="#A1A1A1"/>
<path d="M288.698 118.531H260.032C259.883 118.531 259.74 118.472 259.635 118.366C259.529 118.261 259.47 118.118 259.47 117.969C259.47 117.82 259.529 117.676 259.635 117.571C259.74 117.466 259.883 117.406 260.032 117.406H288.698C288.846 117.409 288.987 117.469 289.092 117.574C289.197 117.679 289.257 117.82 289.26 117.969C289.26 118.118 289.201 118.261 289.095 118.366C288.99 118.472 288.847 118.531 288.698 118.531Z" fill="#A1A1A1"/>
<path d="M306.731 118.531H297C296.851 118.531 296.708 118.472 296.602 118.366C296.497 118.261 296.438 118.118 296.438 117.969C296.44 117.82 296.501 117.679 296.605 117.574C296.71 117.469 296.852 117.409 297 117.406H306.731C306.88 117.409 307.021 117.469 307.126 117.574C307.231 117.679 307.291 117.82 307.294 117.969C307.294 118.118 307.234 118.261 307.129 118.366C307.024 118.472 306.88 118.531 306.731 118.531Z" fill="#A1A1A1"/>
<path d="M279.023 126.406H260.032C259.883 126.406 259.74 126.347 259.635 126.241C259.529 126.136 259.47 125.993 259.47 125.844C259.47 125.695 259.529 125.551 259.635 125.446C259.74 125.341 259.883 125.281 260.032 125.281H279.023C279.172 125.281 279.315 125.341 279.42 125.446C279.526 125.551 279.585 125.695 279.585 125.844C279.585 125.993 279.526 126.136 279.42 126.241C279.315 126.347 279.172 126.406 279.023 126.406Z" fill="#A1A1A1"/>
<path d="M306.731 126.406H297C296.851 126.406 296.708 126.347 296.602 126.241C296.497 126.136 296.438 125.993 296.438 125.844C296.44 125.695 296.501 125.554 296.605 125.449C296.71 125.344 296.852 125.284 297 125.281H306.731C306.88 125.284 307.021 125.344 307.126 125.449C307.231 125.554 307.291 125.695 307.294 125.844C307.294 125.993 307.234 126.136 307.129 126.241C307.024 126.347 306.88 126.406 306.731 126.406Z" fill="#A1A1A1"/>
<path d="M93.8475 143.225C93.8475 142.223 89.9213 138.398 89.2913 137.6C87.8175 135.755 85.2525 134.438 84.7013 132.053C84.2288 130.051 85.8263 126.068 85.6238 124.021C85.424 122.482 85.0465 120.972 84.4988 119.521C84.0965 118.035 83.127 116.767 81.7988 115.988C81.5134 115.82 81.1821 115.747 80.8526 115.78C80.523 115.812 80.2122 115.948 79.965 116.168C79.6995 116.578 79.5916 117.069 79.6613 117.552C79.8212 119.67 79.7381 121.799 79.4138 123.897C76.8713 136.835 62.2125 123.402 56.9138 119.532C52.8638 116.607 48.6675 113.412 43.7063 112.838C42.9411 112.684 42.146 112.799 41.4563 113.165C41.0192 113.519 40.7078 114.005 40.568 114.55C40.4282 115.095 40.4675 115.67 40.68 116.191C41.1257 117.224 41.7941 118.146 42.6375 118.891C41.8936 118.154 41.0101 117.572 40.0388 117.181C39.5472 116.998 39.0131 116.963 38.5017 117.079C37.9902 117.194 37.5236 117.457 37.1588 117.833C36.8594 118.275 36.6994 118.796 36.6994 119.33C36.6994 119.863 36.8594 120.384 37.1588 120.826C37.7745 121.695 38.5636 122.426 39.4763 122.975C38.9541 122.3 38.2626 121.777 37.4721 121.456C36.6817 121.136 35.8205 121.031 34.9763 121.152C33.6488 123.177 35.3813 125.776 37.125 127.452C40.1317 130.578 43.7152 133.092 47.6775 134.855C51.5363 136.385 55.2375 137.735 58.6125 140.322C66.4875 146.386 73.3725 153.912 79.605 161.697C81.6958 157.869 84.1523 154.252 86.94 150.897C88.6613 148.782 93.8475 145.801 93.8475 143.225Z" fill="white"/>
<path d="M79.6612 162.192C79.5837 162.193 79.5071 162.176 79.437 162.143C79.3669 162.11 79.3051 162.061 79.2562 162.001C71.7862 152.697 65.115 145.947 58.2862 140.705C55.2538 138.57 51.9313 136.88 48.42 135.687L47.475 135.316C43.4555 133.511 39.8168 130.957 36.7537 127.79C35.775 126.856 32.7375 123.594 34.5037 120.849C34.5421 120.788 34.5932 120.737 34.6534 120.698C34.7136 120.659 34.7815 120.634 34.8525 120.624C35.3854 120.539 35.9283 120.539 36.4612 120.624C36.2162 120.127 36.1088 119.574 36.1504 119.022C36.1919 118.47 36.3809 117.939 36.6975 117.485C37.1201 117.036 37.664 116.719 38.2631 116.573C38.8623 116.428 39.4908 116.459 40.0725 116.664H40.23C40.1745 116.539 40.1257 116.411 40.0837 116.281C39.8312 115.653 39.7902 114.96 39.9668 114.306C40.1434 113.652 40.528 113.074 41.0625 112.659C41.8561 112.228 42.7742 112.085 43.6612 112.254C48.51 112.816 52.5825 115.764 56.52 118.621L57.105 119.037C57.7575 119.51 58.545 120.162 59.445 120.815C63.945 124.302 71.4487 130.141 75.7012 128.532C77.2762 127.947 78.3337 126.282 78.84 123.729C79.1456 121.768 79.2324 119.78 79.0987 117.8V117.485C79.0138 116.879 79.1626 116.264 79.515 115.764C79.8333 115.455 80.2423 115.257 80.6818 115.198C81.1213 115.139 81.568 115.223 81.9562 115.437C82.683 115.842 83.3207 116.39 83.831 117.047C84.3413 117.704 84.7138 118.458 84.9262 119.262C85.4754 120.764 85.8528 122.322 86.0512 123.909C86.0721 125.219 85.9054 126.526 85.5562 127.79C85.1631 129.117 85.0107 130.504 85.1062 131.885C85.6095 133.291 86.5324 134.508 87.75 135.372C88.4183 135.939 89.0391 136.56 89.6062 137.229C89.7637 137.431 90.135 137.825 90.5962 138.354C93.0375 140.941 94.275 142.404 94.275 143.202C94.275 145.126 92.025 147.005 89.8312 148.827C88.9082 149.538 88.0499 150.328 87.2662 151.19C84.5037 154.519 82.0663 158.106 79.9875 161.9C79.949 161.976 79.8914 162.041 79.8205 162.088C79.7495 162.135 79.6675 162.163 79.5825 162.17L79.6612 162.192ZM35.3137 121.614C34.1887 123.661 36.6975 126.282 37.4962 127.059C40.4664 130.13 43.9943 132.608 47.8912 134.36L48.825 134.731C52.4289 135.956 55.8386 137.691 58.95 139.884C65.7 145.025 72.2137 151.662 79.5375 160.752C81.5812 157.181 83.9299 153.794 86.5575 150.627C87.3805 149.708 88.2883 148.868 89.2687 148.119C91.08 146.611 93.33 144.744 93.3412 143.292C93.2625 142.662 90.855 140.097 89.9662 139.141C89.4712 138.612 89.0775 138.196 88.9087 138.016C88.3801 137.392 87.8006 136.812 87.1762 136.284C85.7963 135.285 84.7621 133.881 84.2175 132.267C84.0799 130.752 84.2326 129.225 84.6675 127.767C84.9845 126.609 85.1435 125.413 85.14 124.212C84.9597 122.707 84.6087 121.228 84.0937 119.802C83.9215 119.129 83.6182 118.496 83.2012 117.94C82.7843 117.384 82.2618 116.916 81.6637 116.562C81.2362 116.371 80.6737 116.326 80.4375 116.619C80.2642 116.93 80.2008 117.29 80.2575 117.642V117.822C80.4033 119.877 80.3127 121.942 79.9875 123.976C79.4025 126.957 78.1312 128.836 76.1962 129.601C71.3925 131.401 63.9 125.585 58.95 121.726C58.0612 121.04 57.285 120.432 56.6325 119.96L56.0587 119.544C52.2225 116.765 48.2625 113.919 43.6837 113.367C43.0378 113.23 42.3643 113.313 41.7712 113.604C41.4344 113.898 41.1981 114.291 41.0952 114.727C40.9923 115.162 41.0281 115.619 41.1975 116.034C41.6258 116.992 42.255 117.848 43.0425 118.542C43.1216 118.64 43.1624 118.763 43.1572 118.889C43.1521 119.015 43.1013 119.134 43.0145 119.225C42.9276 119.316 42.8107 119.372 42.6854 119.383C42.5601 119.394 42.4351 119.359 42.3337 119.285C41.6394 118.6 40.8177 118.057 39.915 117.687C39.5298 117.484 39.0853 117.422 38.6592 117.513C38.2331 117.604 37.8526 117.842 37.5843 118.185C37.3161 118.529 37.1772 118.955 37.1919 119.391C37.2067 119.826 37.3741 120.243 37.665 120.567C37.7947 120.784 37.9455 120.987 38.115 121.175C38.839 121.522 39.4682 122.039 39.9487 122.682C40.0287 122.774 40.0727 122.892 40.0727 123.014C40.0727 123.136 40.0287 123.254 39.9487 123.346C39.862 123.435 39.7469 123.49 39.6235 123.502C39.5001 123.515 39.3763 123.483 39.2737 123.414C38.6512 122.998 38.0675 122.528 37.53 122.007C36.8414 121.675 36.0746 121.539 35.3137 121.614Z" fill="#313B44"/>
<path d="M225.202 31.9173C224.606 31.5348 224.167 31.2648 224.156 31.231C223.031 25.0548 217.35 21.826 211.522 21.6798C204.536 21.4885 197.786 22.546 191.554 18.8223C189.011 17.2923 186.289 15.6273 183.33 15.8298C179.955 16.066 177.176 18.7885 175.86 21.9048C172.294 30.3423 176.794 41.8285 183.184 47.7798C185.862 50.1235 188.746 52.2208 191.801 54.046L198.169 58.1073C204.671 62.2698 213.739 66.2073 221.614 63.3048C227.644 61.0548 230.445 53.9898 231.12 48.0948C231.532 44.7988 231.248 41.4531 230.287 38.2735C229.895 36.824 229.268 35.4483 228.431 34.201C227.423 33.3479 226.343 32.5838 225.202 31.9173Z" fill="white"/>
<path d="M215.786 64.8234C209.295 64.8234 202.725 61.6397 197.876 58.5459L191.509 54.4734C188.425 52.6289 185.514 50.509 182.813 48.1397C176.366 42.1547 171.686 30.3197 175.354 21.6459C176.906 17.9784 180.023 15.4697 183.308 15.2334C186.368 15.0309 189.202 16.7184 191.7 18.2147L191.857 18.3047C196.706 21.2184 201.836 21.1622 207.259 21.1059C208.654 21.1059 210.094 21.1059 211.545 21.1059C217.17 21.2522 223.414 24.3347 224.685 30.9047L225.427 31.3772L225.214 31.9059L225.506 31.4222C226.719 32.0855 227.851 32.8857 228.881 33.8072C229.759 35.1041 230.417 36.5371 230.827 38.0484C231.815 41.3 232.106 44.723 231.682 48.0947C230.974 54.1697 228.015 61.4822 221.816 63.7772C219.883 64.4773 217.842 64.8315 215.786 64.8234ZM183.836 16.3359H183.375C180.518 16.5384 177.75 18.7884 176.378 22.0622C172.901 30.2859 177.401 41.5584 183.566 47.2959C186.238 49.6281 189.114 51.7141 192.161 53.5284L198.529 57.5897C204.626 61.5722 213.604 65.6109 221.411 62.6972C227.137 60.5822 229.882 53.6972 230.546 47.9484C230.957 44.7321 230.681 41.4653 229.736 38.3634C229.365 36.9797 228.772 35.6652 227.981 34.4709C227 33.6953 225.966 32.9886 224.887 32.3559L225.191 31.8834L224.786 32.3222C223.661 31.5909 223.661 31.5909 223.571 31.3097C222.502 25.2234 216.731 22.3097 211.466 22.2197C210.037 22.2197 208.609 22.2197 207.225 22.2197C201.6 22.2197 196.357 22.3322 191.239 19.2609L191.081 19.1709C188.786 17.7872 186.39 16.3359 183.836 16.3359Z" fill="#313B44"/>
<path d="M247.072 140.322L269.111 130.467C268.312 128.949 255.465 99.1248 243.686 91.6323C233.561 83.2173 213.255 82.3848 190.249 81.5073C190.249 81.5073 179.707 82.4411 168.367 83.6448C155.992 84.9498 144.247 96.8298 144.247 96.8298L148.129 143.799C148.129 143.799 146.025 181.824 142.346 229.737H249.412C249.412 229.737 246.454 147.174 247.072 140.322Z" fill="#EE4937"/>
<path d="M185.085 95.9863L192.296 178.325L214.852 93.4888L185.085 95.9863Z" fill="white"/>
<path d="M215.516 133.719C218.231 133.719 220.433 131.518 220.433 128.802C220.433 126.087 218.231 123.886 215.516 123.886C212.801 123.886 210.6 126.087 210.6 128.802C210.6 131.518 212.801 133.719 215.516 133.719Z" fill="#313B44"/>
<path d="M215.516 134.214C214.443 134.216 213.393 133.899 212.499 133.304C211.606 132.71 210.909 131.863 210.497 130.871C210.086 129.88 209.977 128.789 210.186 127.736C210.395 126.683 210.912 125.716 211.671 124.957C212.43 124.198 213.397 123.681 214.45 123.472C215.503 123.263 216.594 123.372 217.585 123.784C218.577 124.195 219.423 124.892 220.018 125.786C220.613 126.679 220.93 127.729 220.927 128.802C220.925 130.237 220.353 131.611 219.339 132.625C218.325 133.64 216.95 134.211 215.516 134.214ZM215.516 124.37C214.639 124.368 213.781 124.626 213.051 125.111C212.32 125.597 211.75 126.289 211.413 127.098C211.076 127.908 210.987 128.8 211.156 129.66C211.326 130.521 211.747 131.312 212.367 131.933C212.986 132.554 213.776 132.977 214.636 133.149C215.496 133.321 216.388 133.234 217.199 132.899C218.009 132.563 218.702 131.995 219.19 131.266C219.677 130.537 219.937 129.68 219.937 128.802C219.935 127.63 219.468 126.506 218.64 125.675C217.812 124.845 216.689 124.376 215.516 124.37Z" fill="#313B44"/>
<path d="M217.744 131.266C219.906 131.266 221.659 129.513 221.659 127.351C221.659 125.189 219.906 123.436 217.744 123.436C215.582 123.436 213.829 125.189 213.829 127.351C213.829 129.513 215.582 131.266 217.744 131.266Z" fill="#313B44"/>
<path d="M217.744 131.761C216.872 131.761 216.019 131.503 215.294 131.018C214.568 130.534 214.003 129.845 213.669 129.039C213.336 128.233 213.248 127.347 213.418 126.491C213.589 125.636 214.009 124.85 214.625 124.233C215.242 123.616 216.028 123.196 216.883 123.026C217.739 122.856 218.626 122.943 219.431 123.277C220.237 123.611 220.926 124.176 221.411 124.901C221.895 125.627 222.154 126.479 222.154 127.351C222.151 128.52 221.685 129.64 220.859 130.466C220.032 131.293 218.912 131.758 217.744 131.761ZM217.744 123.886C217.076 123.886 216.424 124.084 215.869 124.455C215.314 124.826 214.881 125.353 214.626 125.97C214.37 126.587 214.303 127.265 214.434 127.92C214.564 128.575 214.885 129.176 215.357 129.648C215.829 130.12 216.431 130.441 217.085 130.572C217.74 130.702 218.419 130.635 219.035 130.38C219.652 130.124 220.179 129.691 220.55 129.136C220.921 128.581 221.119 127.929 221.119 127.261C221.107 126.374 220.746 125.527 220.114 124.904C219.483 124.281 218.631 123.931 217.744 123.931V123.886Z" fill="#313B44"/>
<path d="M178.054 114.987H177.998C177.865 114.976 177.743 114.913 177.656 114.812C177.57 114.711 177.527 114.58 177.536 114.447C177.66 113.255 180.765 85.2648 193.736 82.6211C193.801 82.6085 193.867 82.6087 193.931 82.6217C193.995 82.6347 194.056 82.6602 194.11 82.6968C194.165 82.7334 194.211 82.7803 194.247 82.8348C194.284 82.8894 194.309 82.9506 194.321 83.0148C194.334 83.0791 194.334 83.1452 194.321 83.2094C194.308 83.2736 194.282 83.3345 194.246 83.3889C194.209 83.4432 194.162 83.4898 194.108 83.526C194.053 83.5622 193.992 83.5873 193.928 83.5998C181.676 86.0861 178.549 114.267 178.526 114.549C178.511 114.665 178.455 114.773 178.369 114.853C178.283 114.933 178.171 114.98 178.054 114.987Z" fill="#313B44"/>
<path d="M216.45 126.822H216.394C216.32 126.814 216.248 126.791 216.183 126.755C216.118 126.718 216.061 126.669 216.014 126.611C215.968 126.552 215.934 126.485 215.915 126.413C215.895 126.341 215.889 126.266 215.899 126.192C219.206 96.8523 215.033 85.3548 214.988 85.2423C214.951 85.1718 214.931 85.0944 214.927 85.0153C214.923 84.9363 214.935 84.8572 214.964 84.7833C214.992 84.7095 215.036 84.6425 215.092 84.5867C215.149 84.531 215.216 84.4878 215.29 84.4599C215.364 84.432 215.444 84.4201 215.523 84.4249C215.602 84.4297 215.679 84.4511 215.749 84.4878C215.819 84.5245 215.881 84.5756 215.93 84.6378C215.979 84.6999 216.014 84.7718 216.034 84.8485C216.214 85.3098 220.365 96.6385 217.012 126.316C216.999 126.455 216.933 126.584 216.829 126.678C216.725 126.772 216.59 126.823 216.45 126.822Z" fill="#313B44"/>
<path d="M186.345 147.072C186.196 147.072 186.053 147.013 185.947 146.907C185.842 146.802 185.783 146.659 185.783 146.51C185.783 146.361 185.842 146.217 185.947 146.112C186.053 146.006 186.196 145.947 186.345 145.947C187.174 145.944 187.967 145.614 188.553 145.028C189.139 144.442 189.47 143.648 189.473 142.82V125.54C189.47 122.76 188.364 120.095 186.398 118.129C184.433 116.163 181.767 115.058 178.988 115.055H177.109C174.329 115.058 171.664 116.163 169.698 118.129C167.732 120.095 166.627 122.76 166.624 125.54V142.808C166.627 143.637 166.957 144.431 167.543 145.017C168.129 145.603 168.923 145.933 169.751 145.936C169.9 145.936 170.044 145.995 170.149 146.101C170.255 146.206 170.314 146.349 170.314 146.498C170.314 146.648 170.255 146.791 170.149 146.896C170.044 147.002 169.9 147.061 169.751 147.061C168.623 147.061 167.542 146.613 166.744 145.815C165.947 145.018 165.499 143.936 165.499 142.808V125.54C165.502 122.461 166.726 119.51 168.903 117.333C171.079 115.157 174.031 113.933 177.109 113.93H178.988C182.066 113.933 185.017 115.157 187.194 117.333C189.37 119.51 190.595 122.461 190.598 125.54V142.808C190.599 143.368 190.49 143.922 190.277 144.439C190.064 144.956 189.751 145.427 189.356 145.823C188.961 146.219 188.492 146.533 187.975 146.747C187.458 146.962 186.904 147.072 186.345 147.072Z" fill="#313B44"/>
<path d="M171.911 144.755C171.911 144.233 171.488 143.81 170.966 143.81C170.444 143.81 170.021 144.233 170.021 144.755V148.366C170.021 148.888 170.444 149.311 170.966 149.311C171.488 149.311 171.911 148.888 171.911 148.366V144.755Z" fill="#313B44"/>
<path d="M170.966 149.806C170.585 149.803 170.221 149.651 169.951 149.381C169.682 149.112 169.529 148.747 169.526 148.366V144.755C169.526 144.373 169.678 144.007 169.948 143.737C170.218 143.467 170.584 143.315 170.966 143.315C171.348 143.315 171.714 143.467 171.985 143.737C172.255 144.007 172.406 144.373 172.406 144.755V148.366C172.406 148.748 172.255 149.114 171.985 149.384C171.714 149.654 171.348 149.806 170.966 149.806ZM170.966 144.305C170.907 144.305 170.849 144.317 170.794 144.339C170.739 144.362 170.69 144.395 170.648 144.437C170.606 144.479 170.573 144.528 170.551 144.583C170.528 144.637 170.516 144.696 170.516 144.755V148.366C170.516 148.486 170.564 148.6 170.648 148.684C170.732 148.769 170.847 148.816 170.966 148.816C171.086 148.816 171.2 148.769 171.284 148.684C171.369 148.6 171.416 148.486 171.416 148.366V144.755C171.416 144.696 171.405 144.637 171.382 144.583C171.359 144.528 171.326 144.479 171.284 144.437C171.243 144.395 171.193 144.362 171.138 144.339C171.084 144.317 171.025 144.305 170.966 144.305Z" fill="#313B44"/>
<path d="M186.896 144.755C186.896 144.233 186.473 143.81 185.951 143.81C185.429 143.81 185.006 144.233 185.006 144.755V148.366C185.006 148.888 185.429 149.311 185.951 149.311C186.473 149.311 186.896 148.888 186.896 148.366V144.755Z" fill="#313B44"/>
<path d="M185.951 149.806C185.569 149.806 185.203 149.654 184.933 149.384C184.663 149.114 184.511 148.748 184.511 148.366V144.755C184.511 144.373 184.663 144.007 184.933 143.737C185.203 143.467 185.569 143.315 185.951 143.315C186.333 143.315 186.699 143.467 186.969 143.737C187.24 144.007 187.391 144.373 187.391 144.755V148.366C187.391 148.748 187.24 149.114 186.969 149.384C186.699 149.654 186.333 149.806 185.951 149.806ZM185.951 144.305C185.892 144.305 185.834 144.317 185.779 144.339C185.724 144.362 185.675 144.395 185.633 144.437C185.591 144.479 185.558 144.528 185.535 144.583C185.513 144.637 185.501 144.696 185.501 144.755V148.366C185.501 148.486 185.549 148.6 185.633 148.684C185.717 148.769 185.832 148.816 185.951 148.816C186.071 148.816 186.185 148.769 186.269 148.684C186.354 148.6 186.401 148.486 186.401 148.366V144.755C186.401 144.696 186.39 144.637 186.367 144.583C186.344 144.528 186.311 144.479 186.269 144.437C186.228 144.395 186.178 144.362 186.123 144.339C186.069 144.317 186.01 144.305 185.951 144.305Z" fill="#313B44"/>
<path d="M217.744 131.829H217.665C215.573 131.525 214.211 130.704 213.604 129.432C212.603 127.329 214.099 124.809 214.166 124.707C214.202 124.643 214.251 124.586 214.31 124.541C214.368 124.496 214.436 124.464 214.507 124.446C214.579 124.428 214.654 124.425 214.727 124.437C214.799 124.449 214.869 124.476 214.931 124.516C215.057 124.593 215.148 124.716 215.183 124.859C215.219 125.003 215.197 125.154 215.123 125.281C215.123 125.281 213.874 127.396 214.616 128.96C215.055 129.882 216.135 130.479 217.822 130.726C217.972 130.737 218.111 130.806 218.209 130.919C218.307 131.032 218.356 131.179 218.346 131.328C218.335 131.477 218.266 131.616 218.153 131.714C218.04 131.812 217.893 131.862 217.744 131.851V131.829Z" fill="white"/>
<path d="M186.615 77.4125L185.085 95.9863C185.085 95.9863 186.772 106.348 198.315 104.66C201.729 104.13 204.983 102.845 207.838 100.899C210.693 98.953 213.078 96.3945 214.819 93.41L217.642 61.5725C217.642 61.5725 209.689 56.33 213.84 38.375C204.23 41.4905 193.959 41.9569 184.106 39.725C184.106 39.725 177.154 58.9738 177.705 67.85C177.782 70.2521 178.727 72.5447 180.366 74.303C182.004 76.0613 184.224 77.1661 186.615 77.4125Z" fill="white"/>
<path d="M195.885 105.448C186.176 105.448 184.556 96.2114 184.534 96.1101C184.522 96.0658 184.522 96.0194 184.534 95.9751L186.008 77.9751C183.589 77.6138 181.375 76.4123 179.754 74.5814C178.133 72.7505 177.208 70.4072 177.143 67.9626C176.591 59.0751 183.296 40.4114 183.578 39.6126C183.626 39.4854 183.718 39.38 183.838 39.3159C183.958 39.2517 184.097 39.2333 184.23 39.2639C193.977 41.4459 204.129 40.9837 213.637 37.9251C213.732 37.8902 213.835 37.8816 213.935 37.9002C214.034 37.9187 214.127 37.9638 214.203 38.0306C214.279 38.0974 214.335 38.1835 214.367 38.2797C214.398 38.376 214.402 38.4789 214.38 38.5776C210.386 55.8689 217.879 61.0776 217.957 61.1789C218.042 61.2368 218.11 61.3164 218.154 61.4094C218.197 61.5024 218.215 61.6054 218.205 61.7076L215.381 93.5789C215.371 93.6534 215.348 93.7256 215.314 93.7926C213.542 96.8534 211.107 99.4774 208.186 101.471C205.265 103.465 201.934 104.778 198.439 105.313C197.592 105.416 196.738 105.461 195.885 105.448ZM185.659 95.9864C185.828 96.9089 187.729 105.661 198.236 104.143C201.537 103.617 204.683 102.374 207.453 100.503C210.222 98.6309 212.548 96.1755 214.267 93.3089L217.057 61.8089C215.651 60.6839 209.734 54.8901 213.075 39.2076C203.783 41.9446 193.956 42.3311 184.478 40.3326C183.431 43.3139 177.784 59.8626 178.268 67.7601C178.323 70.0271 179.208 72.195 180.755 73.8535C182.302 75.5121 184.402 76.5461 186.66 76.7601C186.734 76.7657 186.805 76.786 186.871 76.8198C186.936 76.8536 186.994 76.9002 187.042 76.9569C187.089 77.0135 187.124 77.079 187.146 77.1496C187.167 77.2201 187.174 77.2943 187.166 77.3676L185.659 95.9864Z" fill="#313B44"/>
<path d="M185.67 88.8872C189.809 87.717 193.677 85.7446 197.055 83.0822C202.478 78.751 202.309 75.9272 202.309 75.9272C202.309 75.9272 193.871 79.5835 186.559 77.4122L185.67 88.8872Z" fill="#313B44"/>
<path d="M185.67 89.4387C185.537 89.4404 185.409 89.3922 185.31 89.3037C185.242 89.2461 185.188 89.1734 185.153 89.0914C185.118 89.0093 185.102 88.9202 185.107 88.8312L186.052 77.3674C186.058 77.2833 186.083 77.2017 186.126 77.1293C186.169 77.0569 186.229 76.9958 186.3 76.9512C186.367 76.9026 186.445 76.8702 186.527 76.8565C186.609 76.8429 186.693 76.8483 186.772 76.8724C193.759 78.9649 202.005 75.4549 202.084 75.4212C202.163 75.3768 202.252 75.3535 202.342 75.3535C202.433 75.3535 202.522 75.3768 202.601 75.4212C202.679 75.4668 202.744 75.5306 202.791 75.6071C202.838 75.6835 202.865 75.7703 202.871 75.8599C202.871 75.9949 202.995 79.0212 197.415 83.4874C193.971 86.2005 190.026 88.2076 185.805 89.3937L185.67 89.4387ZM187.11 78.1886L186.3 88.1787C190.068 86.9933 193.592 85.1414 196.706 82.7112C200.081 80.0337 201.206 77.9749 201.555 76.8837C199.192 77.6937 192.937 79.5724 187.11 78.1324V78.1886Z" fill="#313B44"/>
<path d="M144.247 96.8638L118.057 151.809L89.3362 135.103L69.9974 155.656C69.9974 155.656 105.424 202.13 124.391 192.298C143.359 182.465 159.019 149.323 159.019 149.323L144.247 96.8638Z" fill="#EE4937"/>
<path d="M143.91 209.375C143.836 209.372 143.763 209.355 143.696 209.324C143.629 209.293 143.569 209.249 143.519 209.194C143.469 209.14 143.43 209.076 143.404 209.007C143.379 208.938 143.367 208.864 143.37 208.79C144.709 176.682 151.661 113.874 151.74 113.244C151.745 113.169 151.766 113.097 151.801 113.031C151.835 112.965 151.883 112.907 151.941 112.861C151.999 112.815 152.066 112.781 152.138 112.761C152.21 112.742 152.285 112.738 152.359 112.749C152.506 112.766 152.641 112.84 152.734 112.956C152.826 113.072 152.87 113.22 152.854 113.367C152.775 113.997 145.822 176.761 144.484 208.846C144.481 208.919 144.464 208.99 144.433 209.055C144.403 209.121 144.36 209.18 144.306 209.229C144.253 209.279 144.191 209.317 144.123 209.342C144.055 209.367 143.982 209.378 143.91 209.375Z" fill="#313B44"/>
<path d="M200.081 165.691L221.062 236.319L162.326 236.15L141.907 167.109L200.081 165.691Z" fill="white"/>
<path d="M221.062 236.836L162.326 236.656C162.216 236.659 162.108 236.625 162.018 236.56C161.929 236.495 161.863 236.402 161.831 236.296L141.424 167.255C141.398 167.18 141.391 167.1 141.403 167.022C141.414 166.944 141.445 166.869 141.491 166.805C141.54 166.743 141.601 166.693 141.671 166.658C141.741 166.623 141.818 166.604 141.896 166.603L200.036 165.174C200.148 165.174 200.256 165.21 200.345 165.277C200.435 165.344 200.5 165.438 200.531 165.545L221.512 236.173C221.533 236.25 221.536 236.33 221.52 236.408C221.505 236.486 221.473 236.56 221.425 236.624C221.378 236.688 221.316 236.74 221.246 236.777C221.175 236.814 221.097 236.834 221.017 236.836H221.062ZM162.709 235.633L220.376 235.801L199.699 166.198L142.594 167.593L162.709 235.633Z" fill="#313B44"/>
<path d="M247.072 203.468C239.355 204.425 230.737 203.052 223.447 205.505C215.809 208.058 207.416 210.196 199.474 207.755C195.739 206.63 189.472 191.802 195.491 190.88C199.462 190.25 207.371 190.047 207.371 190.047L205.042 181.126C205.042 181.126 210.139 186.211 215.899 186.38C221.659 186.548 241.076 185.761 241.076 185.761" fill="white"/>
<path d="M206.989 209.341C204.378 209.357 201.78 208.978 199.283 208.216C196.2 207.248 192.116 198.766 192.465 194.03C192.656 191.296 194.153 190.497 195.379 190.306C198.754 189.777 204.705 189.552 206.629 189.485L204.536 181.193C204.509 181.084 204.519 180.969 204.564 180.865C204.608 180.761 204.686 180.675 204.784 180.62C204.88 180.56 204.994 180.535 205.107 180.549C205.22 180.564 205.324 180.616 205.403 180.698C205.403 180.698 210.42 185.637 215.899 185.795C221.524 185.963 240.851 185.187 241.043 185.187C241.111 185.179 241.18 185.186 241.245 185.207C241.31 185.227 241.37 185.262 241.422 185.307C241.473 185.353 241.513 185.409 241.541 185.472C241.569 185.535 241.583 185.602 241.583 185.671C241.586 185.739 241.575 185.807 241.552 185.871C241.529 185.935 241.493 185.993 241.447 186.044C241.401 186.094 241.346 186.134 241.284 186.163C241.222 186.192 241.155 186.208 241.088 186.211C240.896 186.211 221.58 186.987 215.865 186.818C211.669 186.706 207.866 184.107 205.954 182.566L207.855 189.856C207.875 189.93 207.879 190.008 207.865 190.084C207.852 190.16 207.821 190.232 207.776 190.295C207.726 190.355 207.665 190.404 207.595 190.439C207.525 190.473 207.449 190.493 207.371 190.497C207.293 190.497 199.496 190.711 195.559 191.318C194.299 191.521 193.635 192.443 193.511 194.108C193.185 198.608 197.179 206.483 199.62 207.226C207.36 209.645 215.561 207.597 223.245 204.976C227.88 203.423 233.044 203.378 238.039 203.322C241.044 203.355 244.049 203.216 247.039 202.906C247.172 202.896 247.304 202.937 247.408 203.02C247.513 203.104 247.582 203.224 247.601 203.356C247.611 203.423 247.607 203.49 247.59 203.555C247.573 203.62 247.543 203.681 247.502 203.735C247.461 203.788 247.41 203.833 247.352 203.866C247.294 203.9 247.229 203.921 247.163 203.93C244.142 204.236 241.108 204.379 238.073 204.357C233.156 204.357 228.071 204.447 223.594 205.943C218.194 207.822 212.569 209.341 206.989 209.341Z" fill="#313B44"/>
<path d="M159.019 164.454L162.878 173.611L187.785 172.666L184.32 163.666L159.019 164.454Z" fill="#313B44"/>
<path d="M162.911 174.072C162.813 174.072 162.717 174.043 162.635 173.989C162.554 173.935 162.489 173.858 162.45 173.768L158.591 164.611C158.56 164.536 158.547 164.455 158.555 164.374C158.562 164.294 158.589 164.216 158.634 164.148C158.678 164.08 158.739 164.025 158.81 163.986C158.881 163.947 158.96 163.926 159.041 163.925L184.342 163.137C184.446 163.133 184.548 163.16 184.635 163.217C184.722 163.273 184.789 163.356 184.826 163.452L188.28 172.452C188.315 172.522 188.334 172.599 188.334 172.677C188.334 172.755 188.315 172.833 188.28 172.902C188.236 172.967 188.177 173.021 188.109 173.06C188.041 173.099 187.965 173.122 187.886 173.127L162.911 174.072ZM159.795 164.892L163.226 173.071L187.11 172.16L184.027 164.138L159.795 164.892Z" fill="#313B44"/>
<path d="M172.564 159.717C171.618 159.343 170.57 159.315 169.605 159.639C168.928 159.908 168.333 160.35 167.879 160.921C167.425 161.491 167.128 162.17 167.017 162.89C166.939 163.736 167.078 164.588 167.422 165.365C167.697 166.166 168.151 166.893 168.75 167.491C170.82 169.37 175.894 169.167 176.231 165.106C176.264 164.042 176.007 162.988 175.489 162.057C175.183 161.491 174.766 160.993 174.264 160.591C173.761 160.189 173.183 159.892 172.564 159.717Z" fill="#313B44"/>
<path d="M172.057 169.134C170.727 169.161 169.432 168.705 168.412 167.851C167.755 167.204 167.255 166.415 166.95 165.545C166.583 164.691 166.436 163.759 166.522 162.834C166.641 162.021 166.973 161.254 167.485 160.611C167.997 159.969 168.67 159.474 169.436 159.177C170.513 158.81 171.686 158.838 172.744 159.256C173.421 159.452 174.052 159.781 174.6 160.223C175.149 160.665 175.604 161.212 175.939 161.832C176.493 162.844 176.765 163.987 176.726 165.14C176.688 165.936 176.418 166.704 175.948 167.348C175.478 167.992 174.829 168.484 174.082 168.762C173.436 169.01 172.75 169.136 172.057 169.134ZM170.932 159.909C170.55 159.911 170.17 159.975 169.807 160.1C169.217 160.34 168.699 160.73 168.305 161.231C167.91 161.732 167.653 162.327 167.557 162.957C167.483 163.727 167.611 164.503 167.929 165.207C168.099 165.792 168.394 166.333 168.792 166.793C169.191 167.254 169.684 167.623 170.239 167.875C170.793 168.127 171.396 168.256 172.004 168.254C172.613 168.252 173.215 168.118 173.767 167.862C174.336 167.646 174.827 167.264 175.177 166.768C175.528 166.271 175.722 165.68 175.736 165.072C175.76 164.096 175.519 163.132 175.039 162.282C174.765 161.772 174.389 161.324 173.934 160.966C173.479 160.608 172.955 160.347 172.395 160.201C171.925 160.018 171.426 159.919 170.921 159.909H170.932Z" fill="#313B44"/>
<path d="M37.8676 81.6087L41.0063 128.139C41.2313 131.401 50.3776 133.449 61.4476 132.695C72.5176 131.941 81.3038 128.701 81.0901 125.439L77.9513 78.9087L37.8676 81.6087Z" fill="white"/>
<path d="M76.9051 80.1012L79.9651 125.506C79.9651 126.316 78.5363 127.689 75.1051 128.96C70.6674 130.457 66.0457 131.339 61.3688 131.581C59.8838 131.682 58.3988 131.727 56.9588 131.727C47.4413 131.727 42.2326 129.601 42.1313 128.06L39.0713 82.6549L76.9051 80.1012ZM77.9513 78.9087L37.8676 81.6087L41.0063 128.139C41.1976 130.951 48.0038 132.852 56.9588 132.852C58.3988 132.852 59.9063 132.852 61.4588 132.695C72.5288 131.952 81.3151 128.701 81.1013 125.439L77.9626 78.9087H77.9513Z" fill="#313B44"/>
<path d="M58.3019 86.1885C69.3675 85.4438 78.1596 82.1917 77.9398 78.9247C77.7199 75.6578 68.5713 73.613 57.5058 74.3577C46.4402 75.1024 37.6481 78.3545 37.8679 81.6214C38.0878 84.8884 47.2364 86.9331 58.3019 86.1885Z" fill="#313B44"/>
<path d="M61.9987 75.3086C71.5162 75.3086 76.7362 77.4348 76.8375 78.9761C76.9387 80.5174 70.6612 84.2186 58.2412 85.0511C56.745 85.1524 55.26 85.1974 53.82 85.1974C44.3025 85.1974 39.0937 83.0711 38.9925 81.5299C38.9925 80.7198 40.4212 79.3473 43.8525 78.0761C48.2904 76.5804 52.9119 75.6985 57.5887 75.4548C59.0737 75.3536 60.5587 75.3086 61.9987 75.3086ZM61.9987 74.1836C60.5587 74.1836 59.0512 74.2398 57.4987 74.3411C46.44 75.0836 37.6425 78.3348 37.8562 81.6086C38.0362 84.4211 44.865 86.3224 53.7862 86.3224C55.2375 86.3224 56.7337 86.3224 58.2862 86.1649C69.3562 85.4224 78.1537 82.1711 77.9287 78.9086C77.7375 76.0961 70.9312 74.1836 61.9762 74.1836H61.9987Z" fill="#313B44"/>
<path d="M78.7051 90.125L80.3926 115.044C80.6063 118.306 71.8088 121.569 60.7501 122.311C49.6913 123.054 40.5001 121.006 40.3088 117.744L38.6326 92.825C38.8463 96.0875 48.0038 98.135 59.0738 97.3925C70.1438 96.65 78.9301 93.3875 78.7051 90.125Z" fill="white"/>
<path d="M77.8163 93.545L79.2675 115.123C79.2675 115.921 77.8388 117.305 74.4075 118.565C69.9702 120.065 65.3486 120.951 60.6713 121.198C59.1863 121.288 57.7013 121.344 56.2613 121.344C46.7438 121.344 41.535 119.206 41.4338 117.676L39.9713 96.0875C43.2563 97.9438 49.2525 98.6638 54.5963 98.6638C56.0925 98.6638 57.6338 98.6638 59.1638 98.5063C66.7575 98 74.3288 96.2563 77.8388 93.545H77.8163ZM78.7275 90.17C78.9525 93.4325 70.155 96.6838 59.0963 97.4375C57.555 97.5388 56.0475 97.5838 54.5963 97.5838C45.5963 97.5838 38.8463 95.6825 38.655 92.87L40.2863 117.744C40.4775 120.556 47.2838 122.469 56.2388 122.469C57.69 122.469 59.1863 122.469 60.7388 122.311C71.7975 121.569 80.595 118.306 80.3813 115.044L78.6938 90.125L78.7275 90.17Z" fill="#313B44"/>
<path d="M67.1963 105.177L63.18 105.447L62.91 101.431C62.884 101.051 62.7084 100.697 62.4216 100.446C62.1348 100.195 61.7603 100.068 61.38 100.092L58.5675 100.284C58.3792 100.295 58.1951 100.344 58.0259 100.427C57.8567 100.511 57.7058 100.627 57.5822 100.77C57.4585 100.912 57.3646 101.078 57.3058 101.257C57.2471 101.436 57.2247 101.626 57.24 101.814L57.51 105.83L53.4938 106.1C53.305 106.111 53.1204 106.16 52.9506 106.243C52.7808 106.327 52.6293 106.443 52.5048 106.585C52.3802 106.728 52.2852 106.893 52.2251 107.072C52.1651 107.252 52.1413 107.441 52.155 107.63L52.3463 110.431C52.3562 110.62 52.404 110.806 52.4868 110.976C52.5696 111.147 52.6858 111.299 52.8284 111.424C52.9711 111.549 53.1373 111.644 53.3173 111.703C53.4973 111.762 53.6873 111.785 53.8763 111.77L57.8925 111.5L58.1625 115.516C58.1739 115.705 58.2227 115.89 58.306 116.059C58.3893 116.229 58.5055 116.381 58.6478 116.505C58.7902 116.63 58.9558 116.725 59.1351 116.785C59.3144 116.845 59.5039 116.869 59.6925 116.855L62.4938 116.664C62.8739 116.638 63.2283 116.462 63.4793 116.175C63.7302 115.888 63.8572 115.514 63.8325 115.134L63.5625 111.117L67.5788 110.847C67.959 110.821 68.3133 110.646 68.5643 110.359C68.8152 110.072 68.9422 109.698 68.9175 109.317L68.7263 106.516C68.7003 106.136 68.5246 105.782 68.2379 105.531C67.9511 105.28 67.5765 105.153 67.1963 105.177Z" fill="#EE4937"/>
<path d="M69.3 115.662C69.1509 115.662 69.0078 115.603 68.9023 115.498C68.7968 115.392 68.7375 115.249 68.7375 115.1C68.7375 114.951 68.7968 114.808 68.9023 114.702C69.0078 114.597 69.1509 114.537 69.3 114.537C71.8722 114.38 74.3653 113.588 76.5563 112.231C76.6169 112.188 76.6853 112.158 76.7577 112.141C76.83 112.125 76.9049 112.123 76.978 112.136C77.0511 112.148 77.1211 112.175 77.1838 112.214C77.2466 112.254 77.301 112.306 77.3438 112.366C77.3867 112.427 77.4171 112.495 77.4335 112.568C77.4499 112.64 77.4519 112.715 77.4394 112.788C77.4269 112.861 77.4001 112.931 77.3605 112.994C77.3209 113.056 77.2694 113.111 77.2088 113.154C74.8423 114.651 72.1305 115.515 69.3338 115.662H69.3Z" fill="#A1A1A1"/>
<path d="M178.133 59.2437C176.985 59.2294 175.886 58.7841 175.052 57.9962C174.218 57.2083 173.712 56.1356 173.633 54.9912L173.374 51.1099C173.293 49.916 173.683 48.738 174.462 47.8292C175.24 46.9203 176.344 46.3532 177.536 46.2499L186.041 45.6761C187.248 45.6019 188.436 46.0069 189.346 46.8032C190.256 47.5994 190.815 48.7226 190.901 49.9286L191.16 53.8099C191.237 55.0163 190.833 56.2042 190.036 57.1131C189.239 58.0219 188.114 58.5777 186.908 58.6587L178.403 59.2324L178.133 59.2437ZM186.379 46.8011H186.154L177.649 47.3749C176.739 47.4356 175.891 47.8546 175.29 48.54C174.689 49.2255 174.384 50.1214 174.443 51.0311L174.701 54.9124C174.765 55.8221 175.187 56.6695 175.874 57.2685C176.562 57.8675 177.459 58.1692 178.369 58.1074L186.862 57.5449C187.314 57.5149 187.755 57.3962 188.161 57.1956C188.566 56.995 188.928 56.7164 189.226 56.3758C189.524 56.0351 189.751 55.6392 189.896 55.2105C190.041 54.7818 190.099 54.3288 190.069 53.8774L189.81 50.0074C189.75 49.1379 189.363 48.3234 188.726 47.7284C188.089 47.1333 187.25 46.8019 186.379 46.8011Z" fill="#313B44"/>
<path d="M197.381 57.9158C196.234 57.9016 195.135 57.4563 194.301 56.6684C193.467 55.8805 192.96 54.8077 192.881 53.6633L192.623 49.7821C192.545 48.5745 192.949 47.3854 193.746 46.4747C194.543 45.564 195.668 45.0058 196.875 44.9221L205.369 44.3596C206.563 44.3006 207.733 44.7113 208.629 45.5039C209.525 46.2965 210.075 47.408 210.161 48.6008L210.42 52.4821C210.5 53.6886 210.099 54.8777 209.304 55.7887C208.509 56.6998 207.385 57.2584 206.179 57.3421L197.674 57.9046L197.381 57.9158ZM205.661 45.4733H205.425L196.92 46.0358C196.47 46.0658 196.03 46.1843 195.626 46.3843C195.222 46.5843 194.861 46.8621 194.565 47.2017C194.268 47.5412 194.041 47.936 193.897 48.3633C193.753 48.7906 193.694 49.2422 193.725 49.6921L193.984 53.5733C194.006 54.0259 194.12 54.4693 194.317 54.8771C194.515 55.2848 194.793 55.6487 195.134 55.9468C195.475 56.245 195.873 56.4714 196.303 56.6125C196.734 56.7537 197.188 56.8067 197.64 56.7683L206.145 56.2058C207.044 56.1366 207.881 55.7171 208.474 55.0375C209.067 54.358 209.37 53.4727 209.318 52.5721L209.036 48.6796C208.993 47.814 208.618 46.9983 207.99 46.4015C207.362 45.8046 206.528 45.4723 205.661 45.4733Z" fill="#313B44"/>
<path d="M190.463 51.8972C190.313 51.8972 190.17 51.8379 190.065 51.7324C189.959 51.6269 189.9 51.4839 189.9 51.3347C189.9 51.1855 189.959 51.0424 190.065 50.9369C190.17 50.8314 190.313 50.7722 190.463 50.7722L192.713 50.6147C192.862 50.6042 193.009 50.6535 193.122 50.7516C193.235 50.8497 193.304 50.9886 193.314 51.1378C193.325 51.287 193.276 51.4342 193.177 51.5471C193.079 51.6599 192.94 51.7292 192.791 51.7397L190.541 51.8972H190.463Z" fill="#313B44"/>
<path d="M36.9787 62.2253C36.6806 62.4878 36.4375 62.8068 36.2636 63.1639C36.0896 63.5209 35.9881 63.909 35.9651 64.3055C35.9421 64.702 35.998 65.0992 36.1295 65.474C36.261 65.8488 36.4655 66.1938 36.7312 66.489L46.575 77.5928C47.1164 78.1495 47.8517 78.4759 48.6278 78.5039C49.4039 78.5319 50.1608 78.2593 50.7409 77.743C51.321 77.2267 51.6795 76.5065 51.7418 75.7324C51.804 74.9583 51.5651 74.1901 51.075 73.5878L41.22 62.484C40.6888 61.8924 39.9461 61.5335 39.1524 61.4851C38.3587 61.4367 37.5779 61.7026 36.9787 62.2253Z" fill="white"/>
<path d="M38.9812 61.4712C39.4066 61.471 39.8271 61.5612 40.215 61.7358C40.6029 61.9103 40.9492 62.1652 41.2312 62.4837L51.0862 73.5874C51.5764 74.1898 51.8153 74.958 51.753 75.7321C51.6908 76.5062 51.3323 77.2264 50.7522 77.7427C50.1721 78.259 49.4151 78.5315 48.6391 78.5035C47.863 78.4756 47.1276 78.1492 46.5862 77.5924L36.7425 66.4887C36.3516 66.0562 36.0951 65.5192 36.0042 64.9434C35.9132 64.3676 35.9918 63.7777 36.2304 63.2458C36.4689 62.7139 36.8571 62.2629 37.3475 61.9478C37.838 61.6326 38.4095 61.4671 38.9925 61.4712H38.9812ZM38.9925 60.3462C37.98 60.3456 37.0027 60.718 36.2475 61.3924C35.8371 61.7493 35.503 62.1853 35.2652 62.6744C35.0274 63.1635 34.8909 63.6955 34.8637 64.2387C34.8021 65.3213 35.1699 66.3845 35.8875 67.1974L45.7312 78.2899C46.0922 78.6974 46.5299 79.0297 47.0194 79.2678C47.5089 79.5059 48.0405 79.6451 48.5839 79.6775C49.1273 79.7099 49.6717 79.6348 50.186 79.4566C50.7003 79.2783 51.1744 79.0004 51.5812 78.6387C51.9913 78.2794 52.326 77.8423 52.5658 77.3527C52.8056 76.8631 52.9458 76.3308 52.9782 75.7866C53.0107 75.2424 52.9347 74.6971 52.7548 74.1825C52.5748 73.6679 52.2945 73.1941 51.93 72.7887L42.0862 61.7412C41.6971 61.3019 41.219 60.9503 40.6837 60.7098C40.1484 60.4693 39.5681 60.3454 38.9812 60.3462H38.9925Z" fill="#313B44"/>
<path d="M46.17 68.0298C46.17 68.0298 46.17 69.1548 44.505 70.606C43.7512 71.4069 42.7396 71.9167 41.6475 72.046L46.575 77.5923C47.1164 78.149 47.8517 78.4754 48.6278 78.5034C49.4039 78.5314 50.1608 78.2588 50.7409 77.7425C51.321 77.2262 51.6795 76.506 51.7418 75.7319C51.804 74.9579 51.5651 74.1896 51.075 73.5873L46.17 68.0298Z" fill="#EE4937"/>
<path d="M69.1312 34.37C68.7664 34.2142 68.3744 34.132 67.9777 34.1281C67.5811 34.1241 67.1875 34.1985 66.8197 34.3469C66.4518 34.4953 66.1168 34.7148 65.834 34.9929C65.5511 35.271 65.3259 35.6022 65.1712 35.9675L59.4112 49.625C59.2555 49.9898 59.1733 50.3818 59.1693 50.7784C59.1654 51.1751 59.2397 51.5686 59.3881 51.9365C59.5365 52.3044 59.7561 52.6393 60.0342 52.9222C60.3123 53.2051 60.6434 53.4303 61.0087 53.585C61.3739 53.7381 61.7659 53.817 62.1618 53.817C62.5578 53.817 62.9498 53.7381 63.315 53.585C64.0591 53.2855 64.654 52.7028 64.9687 51.965L70.7737 38.3075C71.0754 37.5673 71.0721 36.7378 70.7643 36C70.4566 35.2623 69.8695 34.6763 69.1312 34.37Z" fill="white"/>
<path d="M67.95 34.1221C68.3377 34.1292 68.7201 34.2133 69.075 34.3696C69.8108 34.6843 70.3919 35.2777 70.6913 36.0198C70.9907 36.7619 70.9839 37.5924 70.6725 38.3296L64.9238 51.9871C64.609 52.7249 64.0142 53.3076 63.27 53.6071C62.9108 53.745 62.5298 53.8174 62.145 53.8208C61.7396 53.8197 61.3384 53.7394 60.9638 53.5846C60.2341 53.2638 59.6611 52.6671 59.3702 51.925C59.0793 51.1829 59.094 50.3558 59.4113 49.6246L65.2163 35.9671C65.4477 35.4211 65.8345 34.9552 66.3285 34.6272C66.8225 34.2992 67.402 34.1235 67.995 34.1221H67.95ZM67.995 32.9971C67.1828 32.9992 66.3889 33.239 65.7113 33.6867C65.0336 34.1345 64.5018 34.7708 64.1813 35.5171L58.2863 49.1971C58.0764 49.7007 57.9682 50.2408 57.9678 50.7864C57.9674 51.3319 58.0748 51.8722 58.2839 52.3761C58.493 52.88 58.7996 53.3376 59.1862 53.7227C59.5727 54.1077 60.0315 54.4125 60.5363 54.6196C61.0494 54.8343 61.6 54.9452 62.1563 54.9458C62.6886 54.9462 63.2158 54.843 63.7088 54.6421C64.7271 54.2196 65.5363 53.4105 65.9588 52.3921L71.7863 38.7683C71.9963 38.2639 72.1047 37.723 72.1053 37.1766C72.1058 36.6302 71.9985 36.0891 71.7895 35.5843C71.5804 35.0795 71.2738 34.6209 70.8871 34.2348C70.5005 33.8488 70.0414 33.5428 69.5363 33.3346C69.0255 33.1109 68.4738 32.9959 67.9163 32.9971H67.995Z" fill="#313B44"/>
<path d="M67.8262 45.1584C66.7993 45.4181 65.7118 45.2731 64.7887 44.7534C63.7426 44.4215 62.8491 43.7274 62.2687 42.7959L59.4112 49.6247C59.2555 49.9895 59.1733 50.3815 59.1693 50.7781C59.1654 51.1748 59.2397 51.5683 59.3881 51.9362C59.5365 52.3041 59.7561 52.639 60.0342 52.9219C60.3123 53.2048 60.6434 53.43 61.0087 53.5847C61.3739 53.7378 61.7659 53.8167 62.1618 53.8167C62.5578 53.8167 62.9498 53.7378 63.315 53.5847C64.0591 53.2852 64.654 52.7025 64.9687 51.9647L67.8262 45.1584Z" fill="#EE4937"/>
<path d="M58.6575 31.051C58.3284 31.2737 57.9585 31.4292 57.5692 31.5084C57.1798 31.5877 56.7786 31.5892 56.3886 31.5129C55.9986 31.4366 55.6276 31.2839 55.2968 31.0637C54.9661 30.8435 54.6821 30.5601 54.4612 30.2297L46.1812 17.8547C45.868 17.3575 45.7063 16.7799 45.7159 16.1923C45.7254 15.6048 45.9059 15.0327 46.2351 14.5459C46.5644 14.0592 47.0282 13.6789 47.57 13.4514C48.1119 13.2238 48.7082 13.159 49.2862 13.2647C49.6741 13.341 50.043 13.4937 50.3713 13.7139C50.6997 13.934 50.9809 14.2173 51.1987 14.5472L59.4787 26.866C59.7012 27.1942 59.8564 27.5632 59.9355 27.9517C60.0147 28.3402 60.0161 28.7405 59.9398 29.1295C59.8634 29.5186 59.7108 29.8887 59.4907 30.2184C59.2706 30.5482 58.9875 30.8312 58.6575 31.051Z" fill="white"/>
<path d="M48.69 13.1973C48.8863 13.1993 49.082 13.2181 49.275 13.2535C49.6658 13.3298 50.0374 13.4835 50.3678 13.7057C50.6982 13.9279 50.9808 14.2141 51.1988 14.5473L59.4788 26.866C59.7815 27.3211 59.9554 27.8497 59.9819 28.3956C60.0084 28.9416 59.8865 29.4845 59.6292 29.9667C59.372 30.449 58.9889 30.8526 58.5207 31.1346C58.0525 31.4166 57.5166 31.5666 56.97 31.5685C56.7791 31.5851 56.5872 31.5851 56.3963 31.5685C55.6074 31.4129 54.9119 30.952 54.4613 30.286L46.1813 17.911C45.7412 17.2422 45.5842 16.4263 45.7444 15.6419C45.9047 14.8576 46.3692 14.1686 47.0363 13.726C47.5219 13.3877 48.0982 13.2035 48.69 13.1973ZM48.69 12.0723C47.9433 12.0822 47.2131 12.294 46.5769 12.6852C45.9407 13.0764 45.4222 13.6324 45.0763 14.2943C44.7303 14.9561 44.5699 15.6993 44.6119 16.4449C44.6539 17.1906 44.8969 17.911 45.315 18.5298L53.5838 30.9048C53.8874 31.3568 54.2772 31.7445 54.7308 32.0456C55.1845 32.3468 55.6931 32.5555 56.2275 32.6598C56.4903 32.7138 56.758 32.7402 57.0263 32.7385C57.7772 32.7369 58.5137 32.5315 59.1572 32.1444C59.8006 31.7573 60.3271 31.2028 60.6803 30.5401C61.0336 29.8775 61.2005 29.1314 61.1633 28.3813C61.126 27.6313 60.886 26.9054 60.4688 26.281L52.1888 13.906C51.887 13.4523 51.4978 13.0634 51.0438 12.762C50.5898 12.4607 50.0803 12.2529 49.545 12.151C49.2815 12.102 49.0143 12.0756 48.7463 12.0723H48.69Z" fill="#313B44"/>
<path d="M55.3388 20.7011C54.2823 20.6341 53.2413 20.9811 52.4363 21.6686C51.4687 22.1956 50.7193 23.0487 50.3213 24.0761L46.1813 17.9111C45.85 17.4135 45.6735 16.829 45.674 16.2313C45.6744 15.6335 45.852 15.0493 46.1841 14.5523C46.5162 14.0553 46.9881 13.6678 47.5402 13.4387C48.0923 13.2095 48.6999 13.1491 49.2863 13.2648C49.6742 13.3411 50.043 13.4938 50.3714 13.714C50.6997 13.9341 50.981 14.2174 51.1988 14.5473L55.3388 20.7011Z" fill="#EE4937"/>
<path d="M35.6625 42.2563L34.9088 44.9226C34.4813 46.4076 37.3613 48.5113 41.3213 49.6363C45.2813 50.7613 48.825 50.4801 49.1963 49.0063L49.95 46.3288L35.6625 42.2563Z" fill="white"/>
<path d="M35.6625 42.2561L50.0062 46.3286L49.2862 49.0061C49.0387 49.8724 47.7112 50.3224 45.9112 50.3224C44.3872 50.2966 42.8736 50.0657 41.4112 49.6361C37.4512 48.5111 34.5712 46.4074 34.9987 44.9224L35.7525 42.2561H35.6625ZM35.7525 41.1311C35.5 41.1218 35.2517 41.1977 35.0476 41.3467C34.8435 41.4957 34.6955 41.709 34.6275 41.9524L33.8625 44.6186C33.6262 45.4624 33.7725 46.8011 35.8425 48.3199C37.4275 49.413 39.1898 50.2237 41.0512 50.7161C42.6152 51.179 44.2353 51.425 45.8662 51.4474C49.2412 51.4474 50.1525 50.1086 50.3662 49.3099L51.12 46.6436C51.2009 46.3565 51.1645 46.0489 51.0187 45.7886C50.9474 45.6586 50.851 45.5439 50.7351 45.4512C50.6193 45.3585 50.4863 45.2897 50.3437 45.2486L35.9662 41.1761C35.8656 41.1598 35.763 41.1598 35.6625 41.1761L35.7525 41.1311Z" fill="#313B44"/>
<path d="M50.0055 46.3393C50.4249 44.8631 47.5526 42.7538 43.5901 41.628C39.6275 40.5022 36.0753 40.7863 35.6559 42.2626C35.2365 43.7388 38.1088 45.8482 42.0713 46.9739C46.0338 48.0997 49.5861 47.8156 50.0055 46.3393Z" fill="white"/>
<path d="M39.0938 40.9399C40.6183 40.9602 42.1326 41.1911 43.5938 41.6262C47.5538 42.7512 50.4225 44.8549 50.0063 46.3287C49.7588 47.1949 48.4313 47.6562 46.6313 47.6562C45.1073 47.6303 43.5937 47.3995 42.1313 46.9699C38.1713 45.8449 35.3025 43.7299 35.7188 42.2562C35.9663 41.3899 37.2938 40.9399 39.0938 40.9399ZM39.0938 39.8149C35.7188 39.8149 34.8075 41.1537 34.5938 41.9524C34.38 42.7512 34.5038 44.1237 36.5738 45.6537C38.1577 46.7469 39.9149 47.5646 41.7713 48.0724C43.3325 48.5304 44.9482 48.7764 46.575 48.8037C49.95 48.8037 50.8613 47.4649 51.075 46.6662C51.2888 45.8674 51.165 44.4837 49.095 42.9649C47.5112 41.8696 45.7486 41.0587 43.8863 40.5687C42.3263 40.1052 40.7098 39.8591 39.0825 39.8374L39.0938 39.8149Z" fill="#313B44"/>
<path d="M37.1475 45.8786C37.0223 45.8792 36.9007 45.8372 36.8025 45.7595C36.7044 45.6818 36.6356 45.5731 36.6075 45.4511C36.5889 45.3794 36.5846 45.3048 36.5949 45.2315C36.6052 45.1582 36.6299 45.0876 36.6676 45.0239C36.7052 44.9601 36.755 44.9044 36.8142 44.86C36.8734 44.8155 36.9408 44.7832 37.0125 44.7648L47.0363 42.2561C47.1072 42.2376 47.1811 42.2335 47.2537 42.2439C47.3262 42.2543 47.396 42.2791 47.4588 42.3168C47.5217 42.3545 47.5764 42.4044 47.6197 42.4635C47.6631 42.5226 47.6942 42.5898 47.7113 42.6611C47.7299 42.7327 47.7341 42.8073 47.7238 42.8807C47.7135 42.954 47.6889 43.0245 47.6512 43.0883C47.6136 43.152 47.5638 43.2077 47.5046 43.2522C47.4454 43.2966 47.378 43.329 47.3063 43.3473L37.2825 45.8223L37.1475 45.8786Z" fill="#313B44"/>
<path d="M74.6775 49.1975L75.33 46.4975C75.69 45.0125 79.2337 44.585 83.205 45.5525C87.1762 46.52 90.1687 48.5225 89.7975 50.0525L89.145 52.7525L74.6775 49.1975Z" fill="white"/>
<path d="M79.1887 45.001C80.5504 45.0172 81.9057 45.1909 83.2274 45.5185C87.2325 46.486 90.1912 48.4885 89.82 50.0185L89.1674 52.7185L74.6774 49.1972L75.33 46.4972C75.5662 45.5522 77.085 45.0347 79.1887 45.0347V45.001ZM79.1887 43.9097C76.3537 43.9097 74.5987 44.731 74.2387 46.2385L73.5862 48.9385C73.5185 49.2278 73.5681 49.5322 73.7241 49.7851C73.8801 50.0381 74.1298 50.219 74.4187 50.2885L88.9087 53.7985H89.1674C89.3781 53.7991 89.5847 53.7407 89.7637 53.6297C89.8898 53.5524 89.9994 53.4511 90.0863 53.3314C90.1731 53.2117 90.2355 53.0761 90.2699 52.9322L90.9224 50.2435C91.5524 47.6335 87.5475 45.406 83.4975 44.4272C82.0874 44.0774 80.6414 43.8924 79.1887 43.876V43.9097Z" fill="#313B44"/>
<path d="M89.1845 52.6841C89.5456 51.1925 86.5927 49.1975 82.589 48.2282C78.5854 47.2589 75.047 47.6822 74.6859 49.1738C74.3247 50.6654 77.2776 52.6603 81.2813 53.6296C85.285 54.599 88.8234 54.1756 89.1845 52.6841Z" fill="#313B44"/>
<path d="M78.5363 47.7012C79.9018 47.7166 81.2608 47.8903 82.5863 48.2187C86.5913 49.1862 89.5388 51.1774 89.1788 52.7187C88.9538 53.6637 87.4351 54.1812 85.3313 54.1812C83.9659 54.165 82.6069 53.9914 81.2813 53.6637C77.2876 52.6962 74.3288 50.7049 74.6888 49.1637C74.9251 48.2187 76.4326 47.7012 78.5363 47.7012ZM78.5363 46.5762C75.7126 46.5762 73.9576 47.3974 73.5976 48.9049C73.3951 49.7599 73.5976 51.0762 75.7238 52.5162C77.3437 53.5725 79.1376 54.3342 81.0226 54.7662C82.4325 55.1167 83.8785 55.3017 85.3313 55.3174C88.1551 55.3174 89.9101 54.4962 90.2813 52.9887C90.4838 52.1337 90.2813 50.8174 88.1551 49.3774C86.5307 48.3295 84.7384 47.5684 82.8563 47.1274C81.4425 46.7768 79.9928 46.5918 78.5363 46.5762Z" fill="#313B44"/>
<path d="M84.9713 54.9124C84.8263 54.9151 84.6856 54.8629 84.5776 54.7661L77.0963 47.6449C77.0436 47.5926 77.0018 47.5304 76.9732 47.4618C76.9446 47.3933 76.9299 47.3197 76.9299 47.2455C76.9299 47.1712 76.9446 47.0977 76.9732 47.0292C77.0018 46.9606 77.0436 46.8984 77.0963 46.8461C77.1476 46.7937 77.2089 46.7521 77.2765 46.7237C77.3441 46.6953 77.4167 46.6807 77.4901 46.6807C77.5634 46.6807 77.636 46.6953 77.7036 46.7237C77.7712 46.7521 77.8325 46.7937 77.8838 46.8461L85.3763 53.9674C85.4566 54.0447 85.512 54.1442 85.5357 54.2531C85.5593 54.362 85.5501 54.4756 85.5091 54.5792C85.4681 54.6829 85.3973 54.772 85.3055 54.8354C85.2138 54.8987 85.1053 54.9333 84.9938 54.9349L84.9713 54.9124Z" fill="#313B44"/>
<path d="M57.9263 78.8864L59.1975 81.3501C59.9063 82.7226 63.4388 82.2951 67.0725 80.4164C70.7063 78.5376 73.125 75.9163 72.4275 74.5326L71.1563 72.0688L57.9263 78.8864Z" fill="white"/>
<path d="M71.19 72.0689L72.4613 74.5326C73.1588 75.8939 70.7625 78.5264 67.1063 80.4164C65.2902 81.4262 63.2733 82.0216 61.2 82.1601C60.1988 82.1601 59.4788 81.8901 59.1975 81.3501L57.9263 78.8864L71.19 72.0689ZM71.19 70.9439C71.0101 70.9431 70.8326 70.9856 70.6725 71.0676L57.42 77.8851C57.2869 77.9529 57.1686 78.0464 57.072 78.1604C56.9754 78.2744 56.9025 78.4064 56.8575 78.5489C56.7697 78.8331 56.798 79.1405 56.9363 79.4039L58.1963 81.8676C58.5053 82.37 58.9538 82.7716 59.4872 83.0233C60.0206 83.275 60.6158 83.366 61.2 83.2851C63.4499 83.148 65.6408 82.51 67.6125 81.4176C69.3387 80.5652 70.9064 79.4238 72.2475 78.0426C73.98 76.1414 73.8675 74.8139 73.4625 74.0264L72.1913 71.5626C72.1248 71.4306 72.033 71.3129 71.921 71.2164C71.809 71.1199 71.6792 71.0464 71.5388 71.0001C71.4231 70.9836 71.3057 70.9836 71.19 71.0001V70.9439Z" fill="#313B44"/>
<path d="M65.8319 77.9457C69.4947 76.0609 71.8948 73.4267 71.1926 72.0621C70.4904 70.6975 66.9518 71.1193 63.289 73.0041C59.6262 74.889 57.2261 77.5232 57.9283 78.8878C58.6305 80.2524 62.1691 79.8306 65.8319 77.9457Z" fill="white"/>
<path d="M69.1875 71.27C70.1888 71.27 70.9088 71.5288 71.19 72.0688C71.8875 73.43 69.4913 76.0625 65.835 77.9413C64.019 78.9511 62.002 79.5466 59.9288 79.685C58.9275 79.685 58.2075 79.4263 57.9263 78.8863C57.2288 77.525 59.625 74.8925 63.2925 73.0025C65.1051 71.9958 67.1185 71.4041 69.1875 71.27ZM69.1875 70.145C66.9385 70.279 64.7478 70.9132 62.775 72.0013C59.0963 73.9025 55.71 77.0188 56.9363 79.4038C57.2625 80.045 58.0613 80.81 59.9288 80.81C62.1796 80.6783 64.3716 80.0399 66.3413 78.9425C70.02 77.0525 73.4175 73.9363 72.1913 71.5513C71.865 70.91 71.0663 70.145 69.1875 70.145Z" fill="#313B44"/>
<path d="M61.1101 80.6971C60.9983 80.7004 60.8882 80.669 60.7951 80.6071C60.6718 80.5246 60.586 80.3968 60.5565 80.2514C60.527 80.106 60.5561 79.9549 60.6376 79.8309L66.2625 71.1458C66.3432 71.0207 66.4703 70.9327 66.6158 70.901C66.7613 70.8694 66.9134 70.8967 67.0388 70.9771C67.1647 71.0599 67.253 71.1889 67.2845 71.3363C67.3161 71.4836 67.2885 71.6375 67.2075 71.7646L61.5826 80.4383C61.531 80.5169 61.4609 80.5815 61.3786 80.6266C61.2962 80.6717 61.204 80.6959 61.1101 80.6971Z" fill="#313B44"/>
<path d="M65.0926 5.32227L61.5263 15.076C60.4576 17.9785 67.5901 23.266 77.4563 26.8885C87.3226 30.511 96.1763 31.0735 97.2451 28.1598L100.811 18.4173L65.0926 5.32227Z" fill="white"/>
<path d="M65.7676 6.71736L99.3713 19.0249L96.1876 27.7099C95.9963 28.2274 94.8151 28.8349 92.0926 28.8349C87.2062 28.5992 82.3913 27.5655 77.8388 25.7749C73.6555 24.3174 69.6922 22.2922 66.0601 19.7561C62.9101 17.4161 62.3926 15.9199 62.5838 15.4024L65.7676 6.71736ZM65.0926 5.26611L61.5263 15.0199C60.4576 17.9224 67.5901 23.2099 77.4563 26.8324C82.1279 28.6662 87.0683 29.7227 92.0813 29.9599C94.8825 29.9599 96.7726 29.3524 97.2338 28.1036L100.8 18.3611L65.0926 5.32236V5.26611Z" fill="#313B44"/>
<path d="M100.817 18.3592C101.884 15.448 94.7508 10.1582 84.8855 6.54408C75.0201 2.92997 66.1581 2.36013 65.0916 5.27131C64.0251 8.1825 71.158 13.4723 81.0233 17.0864C90.8887 20.7005 99.7507 21.2704 100.817 18.3592Z" fill="white"/>
<path d="M70.245 4.53471C75.1301 4.76319 79.945 5.78924 84.4988 7.57221C88.6801 9.03436 92.6428 11.0592 96.2775 13.591C99.4275 15.931 99.945 17.4272 99.7538 17.9447C99.5625 18.4622 98.3813 19.0697 95.6588 19.0697C90.7726 18.8328 85.9579 17.7992 81.405 16.0097C77.2257 14.543 73.2636 12.5184 69.6263 9.99096C66.4763 7.65096 65.9588 6.15471 66.15 5.63721C66.3413 5.11971 67.5225 4.51221 70.245 4.51221V4.53471ZM70.245 3.38721C67.4438 3.38721 65.5538 3.99471 65.0925 5.24346C63.9675 8.15721 71.1563 13.4447 81.0225 17.0672C85.6941 18.9011 90.6345 19.9576 95.6475 20.1947C98.4488 20.1947 100.35 19.5872 100.8 18.3385C101.869 15.4247 94.7363 10.1372 84.87 6.51471C80.1984 4.68084 75.2581 3.62435 70.245 3.38721Z" fill="#313B44"/>
<path d="M65.4862 18.5299C65.4229 18.5406 65.3583 18.5406 65.295 18.5299C65.1554 18.4813 65.0405 18.3797 64.9753 18.2471C64.91 18.1145 64.8996 17.9615 64.9462 17.8212L67.1962 11.3299C67.247 11.1898 67.3514 11.0754 67.4864 11.0122C67.6214 10.9489 67.776 10.9418 67.9162 10.9924C67.9862 11.0151 68.0507 11.0517 68.106 11.1001C68.1613 11.1485 68.2061 11.2078 68.2377 11.2741C68.2693 11.3405 68.287 11.4126 68.2898 11.486C68.2925 11.5594 68.2803 11.6327 68.2537 11.7012L66.0037 18.1924C65.9587 18.2922 65.886 18.377 65.7943 18.4368C65.7026 18.4966 65.5957 18.5289 65.4862 18.5299Z" fill="#A1A1A1"/>
<path d="M68.9288 21.2188C68.8622 21.2346 68.7929 21.2346 68.7263 21.2188C68.657 21.1938 68.5933 21.1552 68.5392 21.1052C68.4851 21.0552 68.4415 20.9948 68.4111 20.9277C68.3807 20.8606 68.364 20.788 68.3621 20.7144C68.3602 20.6407 68.3731 20.5674 68.4 20.4988L70.9313 13.94C70.9563 13.8707 70.9949 13.8071 71.0449 13.753C71.0949 13.6988 71.1553 13.6552 71.2224 13.6248C71.2895 13.5944 71.3621 13.5778 71.4357 13.5759C71.5094 13.574 71.5827 13.5869 71.6513 13.6138C71.721 13.64 71.7849 13.6798 71.8391 13.7308C71.8934 13.7819 71.9369 13.8432 71.9673 13.9112C71.9976 13.9792 72.0142 14.0526 72.0159 14.1271C72.0177 14.2016 72.0046 14.2757 71.9775 14.345L69.4463 20.9038C69.4014 21.002 69.3281 21.0845 69.2359 21.1407C69.1436 21.1969 69.0367 21.2241 68.9288 21.2188Z" fill="#A1A1A1"/>
<path d="M73.2375 23.3222H73.035C72.9662 23.2949 72.9035 23.2544 72.8505 23.2028C72.7974 23.1513 72.7551 23.0898 72.7258 23.0219C72.6966 22.954 72.681 22.881 72.68 22.807C72.679 22.7331 72.6926 22.6596 72.72 22.591L75.24 16.0322C75.2625 15.9582 75.3 15.8896 75.3502 15.8307C75.4005 15.7718 75.4623 15.724 75.5319 15.6901C75.6014 15.6562 75.6772 15.637 75.7546 15.6338C75.8319 15.6306 75.909 15.6433 75.9812 15.6712C76.0534 15.6992 76.119 15.7417 76.174 15.7961C76.229 15.8506 76.2721 15.9158 76.3007 15.9877C76.3294 16.0596 76.3428 16.1366 76.3403 16.214C76.3378 16.2913 76.3194 16.3673 76.2862 16.4372L73.7662 22.996C73.7187 23.0954 73.6436 23.179 73.5498 23.2368C73.4561 23.2947 73.3476 23.3243 73.2375 23.3222Z" fill="#A1A1A1"/>
<path d="M77.6363 25.0437C77.5692 25.0545 77.5009 25.0545 77.4338 25.0437C77.2949 24.9884 77.183 24.881 77.122 24.7444C77.0611 24.6078 77.0559 24.4529 77.1076 24.3125L79.6613 17.6975C79.7143 17.5593 79.8196 17.4476 79.9544 17.3866C80.0891 17.3255 80.2425 17.32 80.3813 17.3712C80.4511 17.3974 80.5149 17.4372 80.5692 17.4883C80.6234 17.5393 80.667 17.6006 80.6973 17.6687C80.7277 17.7367 80.7442 17.8101 80.746 17.8845C80.7477 17.959 80.7347 18.0331 80.7076 18.1025L78.1876 24.6612C78.1475 24.7748 78.0726 24.8728 77.9737 24.9415C77.8748 25.0101 77.7567 25.0459 77.6363 25.0437Z" fill="#A1A1A1"/>
<path d="M82.44 26.6972C82.3729 26.7079 82.3045 26.7079 82.2375 26.6972C82.1677 26.671 82.1039 26.6312 82.0496 26.5801C81.9954 26.5291 81.9518 26.4678 81.9215 26.3997C81.8911 26.3317 81.8746 26.2583 81.8728 26.1839C81.8711 26.1094 81.8841 26.0353 81.9112 25.9659L84.4312 19.4072C84.4578 19.3377 84.4978 19.2742 84.549 19.2202C84.6001 19.1663 84.6614 19.1229 84.7293 19.0926C84.7972 19.0623 84.8704 19.0457 84.9447 19.0437C85.019 19.0417 85.093 19.0543 85.1625 19.0809C85.2319 19.1075 85.2954 19.1475 85.3494 19.1987C85.4034 19.2498 85.4467 19.3111 85.477 19.379C85.5073 19.4469 85.524 19.5201 85.526 19.5944C85.528 19.6687 85.5153 19.7427 85.4887 19.8122L82.9575 26.3709C82.9143 26.4712 82.8418 26.5561 82.7494 26.6144C82.657 26.6726 82.5491 26.7015 82.44 26.6972Z" fill="#A1A1A1"/>
<path d="M87.12 27.9797C87.053 27.9904 86.9846 27.9904 86.9175 27.9797C86.8478 27.9535 86.7839 27.9137 86.7297 27.8627C86.6754 27.8116 86.6319 27.7503 86.6015 27.6823C86.5712 27.6142 86.5547 27.5409 86.5529 27.4664C86.5511 27.3919 86.5642 27.3178 86.5913 27.2485L89.1113 20.6897C89.1666 20.5507 89.274 20.4389 89.4106 20.3779C89.5472 20.317 89.7022 20.3118 89.8425 20.3634C89.9123 20.3896 89.9761 20.4294 90.0304 20.4805C90.0846 20.5315 90.1282 20.5928 90.1585 20.6609C90.1889 20.7289 90.2054 20.8023 90.2072 20.8767C90.2089 20.9512 90.1959 21.0253 90.1688 21.0947L87.6375 27.6534C87.5944 27.7538 87.5218 27.8387 87.4294 27.8969C87.337 27.9552 87.2292 27.984 87.12 27.9797Z" fill="#A1A1A1"/>
<path d="M92.0925 28.3848C92.0254 28.3955 91.9571 28.3955 91.89 28.3848C91.7531 28.3274 91.6438 28.2191 91.585 28.0827C91.5263 27.9464 91.5227 27.7925 91.575 27.6536L94.095 21.0723C94.1212 21.0026 94.1609 20.9387 94.212 20.8845C94.2631 20.8302 94.3244 20.7867 94.3924 20.7563C94.4604 20.726 94.5338 20.7094 94.6083 20.7077C94.6828 20.7059 94.7568 20.719 94.8262 20.7461C94.9652 20.8014 95.0771 20.9088 95.138 21.0454C95.199 21.182 95.2042 21.337 95.1525 21.4773L92.6213 28.0361C92.5771 28.1397 92.5034 28.228 92.4094 28.29C92.3153 28.352 92.2051 28.385 92.0925 28.3848Z" fill="#A1A1A1"/>
<path d="M130.725 159.976C130.626 159.971 130.53 159.944 130.444 159.897L93.2512 138.072C93.1868 138.036 93.1304 137.988 93.0852 137.929C93.04 137.871 93.007 137.804 92.9881 137.733C92.9692 137.661 92.9648 137.587 92.9752 137.514C92.9856 137.441 93.0106 137.371 93.0487 137.307C93.1257 137.182 93.249 137.091 93.3921 137.055C93.5352 137.02 93.6866 137.041 93.8137 137.116L131.017 158.919C131.143 158.996 131.234 159.119 131.27 159.262C131.305 159.405 131.283 159.557 131.209 159.684C131.163 159.772 131.094 159.847 131.008 159.898C130.923 159.95 130.825 159.977 130.725 159.976Z" fill="#313B44"/>
<path d="M205.41 51.0355C205.459 49.8933 204.84 48.939 204.027 48.9041C203.214 48.8692 202.515 49.7668 202.466 50.9089C202.416 52.0511 203.036 53.0054 203.849 53.0403C204.662 53.0752 205.361 52.1776 205.41 51.0355Z" fill="#313B44"/>
<path d="M185.94 53.7274C186.749 53.6419 187.308 52.651 187.188 51.5141C187.068 50.3772 186.314 49.5248 185.505 49.6103C184.696 49.6958 184.137 50.6868 184.257 51.8237C184.377 52.9606 185.131 53.8129 185.94 53.7274Z" fill="#313B44"/>
<path d="M192.33 69.6272C188.976 69.5315 185.675 68.7666 182.621 67.3772C182.489 67.3095 182.388 67.1931 182.34 67.0525C182.291 66.9119 182.3 66.7581 182.363 66.6234C182.395 66.5568 182.44 66.4973 182.496 66.4482C182.551 66.3992 182.616 66.3616 182.686 66.3375C182.756 66.3135 182.83 66.3035 182.904 66.3082C182.978 66.3128 183.05 66.332 183.116 66.3647C183.218 66.3647 193.241 71.1346 199.339 66.3084C199.455 66.2164 199.604 66.1743 199.751 66.1911C199.899 66.208 200.033 66.2825 200.126 66.3984C200.216 66.5178 200.257 66.6671 200.24 66.8157C200.223 66.9642 200.15 67.1007 200.036 67.1972C197.818 68.8594 195.1 69.7164 192.33 69.6272Z" fill="#313B44"/>
<path d="M191.959 52.8535C191.959 52.8535 187.774 59.9298 188.978 61.6398C190.181 63.3498 194.231 62.8435 194.231 62.8435" fill="white"/>
<path d="M192.881 63.4739C191.464 63.4739 189.416 63.2376 188.516 61.9551C187.211 60.0988 190.451 54.2938 191.475 52.5613C191.512 52.4965 191.561 52.4396 191.621 52.394C191.68 52.3485 191.748 52.3152 191.82 52.2961C191.892 52.277 191.967 52.2724 192.041 52.2827C192.115 52.293 192.186 52.3179 192.251 52.356C192.315 52.3941 192.371 52.4446 192.415 52.5046C192.46 52.5646 192.492 52.6328 192.51 52.7053C192.528 52.7779 192.531 52.8532 192.519 52.927C192.508 53.0008 192.482 53.0715 192.442 53.1351C190.519 56.3863 188.82 60.4363 189.439 61.3138C190.26 62.4388 193.129 62.4388 194.164 62.2813C194.31 62.2679 194.457 62.3102 194.573 62.3999C194.69 62.4896 194.769 62.62 194.794 62.7651C194.803 62.8391 194.798 62.9141 194.778 62.986C194.758 63.0579 194.724 63.125 194.678 63.1837C194.632 63.2423 194.575 63.2912 194.51 63.3275C194.444 63.3638 194.373 63.3868 194.299 63.3951C193.828 63.4512 193.355 63.4775 192.881 63.4739Z" fill="#313B44"/>
<path d="M220.444 57.8937C220.366 57.9097 220.285 57.9097 220.207 57.8937L209.644 53.0787C209.577 53.0484 209.516 53.005 209.466 52.9511C209.416 52.8971 209.377 52.8336 209.352 52.7644C209.327 52.6952 209.316 52.6216 209.32 52.5481C209.323 52.4745 209.342 52.4025 209.374 52.3362C209.403 52.268 209.446 52.2065 209.499 52.1552C209.553 52.1039 209.616 52.064 209.685 52.0377C209.755 52.0114 209.828 51.9994 209.903 52.0024C209.977 52.0054 210.049 52.0232 210.116 52.0549L220.669 56.8699C220.737 56.8991 220.798 56.9417 220.85 56.9952C220.901 57.0487 220.941 57.1121 220.967 57.1814C220.993 57.2507 221.005 57.3246 221.003 57.3986C221 57.4727 220.982 57.5454 220.95 57.6124C220.9 57.7016 220.826 57.7752 220.737 57.8249C220.647 57.8745 220.546 57.8984 220.444 57.8937Z" fill="#313B44"/>
<path d="M212.715 58.0847C213.25 56.5724 214.255 55.2713 215.584 54.3722C217.536 52.9671 219.947 52.3522 222.334 52.651C224.584 53.101 225.979 55.5872 226.17 57.781C226.295 59.8266 225.684 61.8495 224.449 63.4847C221.659 67.321 216.821 68.9635 212.501 66.5447" fill="white"/>
<path d="M216.787 68.2324C215.21 68.2292 213.66 67.8184 212.288 67.0399C212.166 66.9626 212.079 66.8417 212.044 66.7022C212.009 66.5626 212.029 66.415 212.1 66.2896C212.17 66.1643 212.286 66.0708 212.424 66.0283C212.561 65.9858 212.71 65.9976 212.839 66.0612C216.641 68.1874 221.254 66.9949 224.089 63.1587C225.254 61.6347 225.83 59.7409 225.709 57.8262C225.54 55.8237 224.314 53.5962 222.334 53.2024C220.06 52.8949 217.756 53.4751 215.899 54.8224C214.676 55.6345 213.745 56.8174 213.244 58.1974C213.195 58.337 213.094 58.4519 212.961 58.5172C212.828 58.5824 212.675 58.5928 212.535 58.5462C212.395 58.4952 212.28 58.3915 212.214 58.257C212.149 58.1225 212.139 57.968 212.186 57.8262C212.755 56.1965 213.836 54.7951 215.269 53.8324C217.344 52.3208 219.925 51.6717 222.469 52.0212C225.011 52.5274 226.552 55.2387 226.766 57.6462C226.93 59.8598 226.277 62.0566 224.933 63.8224C224.024 65.1525 222.81 66.2464 221.394 67.0134C219.977 67.7804 218.398 68.1983 216.787 68.2324Z" fill="#313B44"/>
<path d="M269.111 130.501C269.111 130.501 302.625 188.596 294.39 197.146C286.155 205.696 235.159 208.824 235.159 208.824L226.226 181.059L255.161 178.325L237.746 138.871L269.111 130.501Z" fill="#EE4937"/>
<path d="M226.226 181.621C226.077 181.621 225.934 181.562 225.829 181.456C225.723 181.351 225.664 181.208 225.664 181.058C225.664 180.909 225.723 180.766 225.829 180.661C225.934 180.555 226.077 180.496 226.226 180.496L254.284 177.83L230.074 130.265C230.005 130.132 229.992 129.977 230.037 129.835C230.083 129.692 230.183 129.574 230.316 129.505C230.448 129.437 230.603 129.424 230.745 129.469C230.888 129.514 231.006 129.614 231.075 129.747L255.611 178.122C255.653 178.204 255.674 178.295 255.674 178.387C255.674 178.478 255.653 178.569 255.611 178.651C255.568 178.731 255.505 178.799 255.428 178.848C255.351 178.897 255.263 178.926 255.173 178.932L226.294 181.677L226.226 181.621Z" fill="#313B44"/>
<path d="M235.159 209.375C235.01 209.375 234.866 209.315 234.761 209.21C234.655 209.104 234.596 208.961 234.596 208.812C234.596 208.663 234.655 208.52 234.761 208.414C234.866 208.309 235.01 208.25 235.159 208.25C235.53 208.25 272.396 206.483 283.185 201.601C283.253 201.565 283.327 201.544 283.404 201.538C283.481 201.532 283.558 201.542 283.63 201.567C283.703 201.592 283.77 201.631 283.826 201.683C283.883 201.735 283.929 201.798 283.96 201.868C283.992 201.938 284.008 202.013 284.01 202.09C284.011 202.167 283.996 202.243 283.967 202.314C283.937 202.385 283.894 202.449 283.839 202.503C283.784 202.556 283.718 202.598 283.646 202.625C272.666 207.597 236.734 209.296 235.215 209.375H235.159Z" fill="#313B44"/>
</svg>
