<svg width="140" height="136" viewBox="0 0 140 136" fill="none" xmlns="http://www.w3.org/2000/svg">
<path d="M122.478 61.0669C122.478 61.0669 124.582 57.1536 124.084 56.1311C123.586 55.1086 122.403 52.9191 122.007 51.8003C121.611 50.6815 122.981 46.0723 124.272 45.205C125.08 44.6697 126.37 45.6387 126.215 46.7414C126.06 47.8442 125.503 50.3014 125.503 50.3014C125.503 50.3014 127.564 46.4952 127.644 45.5477C127.724 44.6001 125.717 40.3657 126.07 38.6633C126.252 37.764 128.078 37.3839 128.79 38.3314C129.502 39.2789 130.364 44.3003 130.369 44.3164C130.392 43.9795 130.456 43.6468 130.562 43.326C130.663 42.8549 130.867 42.4106 130.969 41.9342C131.164 40.9787 131.164 39.9935 130.969 39.038C130.872 38.5563 130.728 38.0798 130.605 37.6034C130.549 37.4306 130.536 37.2469 130.567 37.068C130.614 36.9417 130.692 36.8293 130.794 36.7413C130.896 36.6533 131.019 36.5926 131.151 36.5648C131.404 36.5037 131.668 36.5019 131.923 36.5594C132.177 36.617 132.415 36.7324 132.617 36.8967C133.022 37.2261 133.339 37.6511 133.538 38.1333C133.969 39.0548 134.14 40.0769 134.031 41.0884C133.972 41.6237 133.913 42.9781 133.495 43.3528C133.527 43.3207 135.155 41.7789 135.776 42.871C136.188 43.7604 136.403 44.7281 136.408 45.7083C136.408 45.7083 139.48 43.9738 139.619 46.4149C139.759 48.856 136.375 57.0894 135.192 58.1921C134.009 59.2949 132.912 60.2371 132.912 60.2371L130.235 65.9598" fill="white"/>
<path d="M130.305 66.2171C130.268 66.225 130.229 66.225 130.192 66.2171C130.129 66.1868 130.079 66.1331 130.054 66.0673C130.03 66.0014 130.031 65.9285 130.059 65.8637L132.735 60.1357C132.75 60.1016 132.774 60.072 132.805 60.0501C132.805 60.0501 133.913 59.0972 135.075 58.0105C136.236 56.9237 139.571 48.8456 139.416 46.4473C139.426 46.2649 139.388 46.083 139.308 45.919C139.227 45.755 139.106 45.6144 138.956 45.5105C138.297 45.1518 137.023 45.7086 136.584 45.9548C136.544 45.9784 136.499 45.9908 136.453 45.9908C136.407 45.9908 136.362 45.9784 136.322 45.9548C136.281 45.9315 136.248 45.8979 136.224 45.8576C136.201 45.8172 136.188 45.7714 136.188 45.7246C136.179 44.8008 135.976 43.8891 135.594 43.048C135.563 42.9827 135.516 42.9258 135.458 42.882C135.401 42.8382 135.333 42.8089 135.262 42.7964C134.818 42.7375 134.1 43.2354 133.726 43.5887C133.701 43.6161 133.671 43.6381 133.637 43.6533C133.604 43.6686 133.568 43.6767 133.531 43.6773C133.494 43.6779 133.457 43.6709 133.423 43.6567C133.389 43.6425 133.359 43.6215 133.333 43.5949C133.308 43.5683 133.288 43.5367 133.275 43.5022C133.263 43.4676 133.257 43.4308 133.259 43.3941C133.261 43.3573 133.271 43.3214 133.288 43.2886C133.304 43.2557 133.328 43.2267 133.356 43.2032C133.618 42.9516 133.72 41.8649 133.763 41.3992C133.763 41.2814 133.763 41.185 133.79 41.1047C133.896 40.1412 133.735 39.167 133.324 38.2889C133.142 37.8468 132.853 37.4569 132.484 37.154C132.313 37.016 132.114 36.9183 131.901 36.8682C131.688 36.8182 131.466 36.817 131.252 36.8649C131.165 36.8821 131.083 36.9197 131.014 36.9746C130.944 37.0295 130.888 37.1002 130.851 37.1808C130.832 37.3179 130.847 37.4574 130.894 37.5876C130.931 37.7536 130.979 37.9195 131.022 38.0855C131.108 38.4013 131.193 38.7172 131.258 39.0384C131.531 40.2846 131.451 41.5823 131.027 42.7857C130.948 42.9992 130.882 43.2173 130.829 43.4388C130.829 43.503 130.797 43.5887 130.77 43.6904C130.704 43.8974 130.661 44.111 130.642 44.3274V44.3274C130.655 44.3984 130.639 44.4716 130.598 44.5308C130.557 44.59 130.494 44.6305 130.423 44.6433C130.352 44.6561 130.278 44.6401 130.219 44.5989C130.16 44.5578 130.119 44.4948 130.107 44.4238V44.4238C129.887 43.139 129.132 39.2953 128.581 38.5352C128.405 38.3431 128.179 38.2039 127.929 38.133C127.678 38.0621 127.413 38.0623 127.162 38.1337C126.98 38.1527 126.807 38.221 126.66 38.3314C126.514 38.4418 126.401 38.59 126.333 38.76C126.135 39.7182 126.777 41.6508 127.296 43.2032C127.703 44.4291 127.949 45.2054 127.917 45.6122C127.837 46.5865 125.963 50.0769 125.776 50.473C125.745 50.5292 125.695 50.5725 125.635 50.5951C125.576 50.6177 125.509 50.6181 125.449 50.5961C125.411 50.5891 125.374 50.5737 125.341 50.551C125.309 50.5284 125.282 50.499 125.262 50.4649C125.242 50.4308 125.23 50.3928 125.226 50.3536C125.223 50.3143 125.228 50.2747 125.241 50.2375C125.241 50.2107 125.776 47.7803 125.947 46.6989C125.968 46.4585 125.921 46.217 125.811 46.0021C125.702 45.7872 125.533 45.6075 125.326 45.4837C125.198 45.3859 125.044 45.3282 124.883 45.3177C124.722 45.3072 124.561 45.3445 124.421 45.4249C123.174 46.26 121.922 50.7782 122.28 51.7043C122.532 52.4056 123.126 53.5672 123.645 54.5951C123.929 55.1304 124.181 55.6657 124.352 56.0137C124.855 57.0843 123.078 60.5158 122.714 61.185C122.698 61.2162 122.676 61.244 122.649 61.2667C122.623 61.2893 122.592 61.3064 122.558 61.3169C122.525 61.3273 122.49 61.331 122.455 61.3277C122.42 61.3243 122.386 61.314 122.355 61.2974C122.324 61.281 122.296 61.2586 122.273 61.2314C122.25 61.2042 122.233 61.1727 122.223 61.1389C122.212 61.105 122.209 61.0694 122.212 61.0341C122.216 60.9988 122.226 60.9646 122.243 60.9334C123.03 59.4665 124.17 56.8916 123.849 56.2385C123.683 55.8798 123.431 55.382 123.153 54.8359C122.638 53.8774 122.174 52.8929 121.761 51.8863C121.317 50.639 122.789 45.8799 124.127 44.9805C124.352 44.8396 124.614 44.7694 124.879 44.779C125.145 44.7885 125.401 44.8774 125.615 45.0341C125.912 45.2114 126.151 45.4701 126.305 45.7795C126.459 46.0888 126.52 46.4358 126.483 46.7792C126.424 47.1968 126.311 47.8017 126.188 48.3852C126.693 47.4807 127.094 46.5216 127.382 45.5266C127.267 44.7732 127.068 44.0352 126.788 43.3264C126.22 41.6294 125.583 39.7075 125.813 38.6048C125.898 38.3324 126.06 38.09 126.278 37.906C126.496 37.7221 126.762 37.6042 127.045 37.5662C127.396 37.4707 127.767 37.4768 128.115 37.5839C128.462 37.691 128.773 37.8946 129.009 38.1711C129.512 38.8457 130.08 41.3831 130.385 42.9409L130.514 42.5555C130.591 42.3342 130.657 42.1091 130.712 41.881C130.899 40.9607 130.899 40.0122 130.712 39.0919C130.653 38.7814 130.567 38.4763 130.481 38.1711L130.348 37.6679C130.278 37.4462 130.266 37.21 130.315 36.9827C130.383 36.8115 130.493 36.6605 130.635 36.5442C130.778 36.4279 130.948 36.3503 131.129 36.3189C131.422 36.247 131.727 36.2434 132.021 36.3084C132.316 36.3734 132.591 36.5052 132.826 36.6936C133.267 37.0496 133.613 37.5095 133.833 38.032C134.289 38.9975 134.474 40.0689 134.368 41.1315C134.368 41.2065 134.368 41.3028 134.341 41.4152C134.304 41.8167 134.261 42.2182 134.191 42.5715C134.539 42.331 134.957 42.2125 135.38 42.2343C135.534 42.2606 135.679 42.3227 135.805 42.4157C135.93 42.5087 136.032 42.6299 136.102 42.7696C136.491 43.5657 136.711 44.433 136.75 45.3178C137.339 45.0501 138.485 44.6379 139.255 45.0555C139.49 45.1983 139.682 45.4011 139.812 45.6429C139.942 45.8848 140.005 46.1569 139.994 46.4313C140.16 49.0009 136.691 57.2878 135.481 58.4173C134.443 59.3863 133.453 60.2481 133.238 60.4355L130.562 66.1046C130.534 66.1458 130.495 66.1782 130.45 66.1981C130.404 66.218 130.354 66.2246 130.305 66.2171V66.2171Z" fill="#313B44"/>
<path d="M127.56 35.2811L130.737 36.5635L136.92 21.244L133.743 19.9617L127.56 35.2811Z" fill="white"/>
<path d="M130.728 36.8543C130.696 36.8594 130.663 36.8594 130.631 36.8543L127.457 35.5695C127.424 35.5566 127.394 35.5373 127.369 35.5127C127.344 35.4882 127.324 35.459 127.31 35.4266C127.296 35.3943 127.288 35.3596 127.288 35.3244C127.288 35.2892 127.294 35.2543 127.307 35.2216L133.49 19.9005C133.518 19.8354 133.57 19.7836 133.635 19.7559C133.7 19.7291 133.773 19.7291 133.838 19.7559L137.018 21.0086C137.051 21.0216 137.08 21.0409 137.106 21.0654C137.131 21.0899 137.151 21.1192 137.165 21.1515C137.179 21.1838 137.186 21.2186 137.187 21.2537C137.187 21.2889 137.181 21.3239 137.168 21.3566L130.979 36.6777C130.952 36.7427 130.9 36.7946 130.835 36.8222C130.802 36.8412 130.765 36.8522 130.728 36.8543V36.8543ZM127.917 35.1466L130.594 36.2173L136.574 21.394L133.897 20.3234L127.917 35.1466Z" fill="#313B44"/>
<path d="M129.458 30.5326L132.635 31.8149L132.923 31.1001L129.746 29.8178L129.458 30.5326Z" fill="#313B44"/>
<path d="M132.628 32.0896C132.594 32.0947 132.56 32.0947 132.526 32.0896L129.352 30.8048C129.319 30.7919 129.289 30.7725 129.264 30.7479C129.239 30.7233 129.219 30.6939 129.206 30.6614C129.192 30.6289 129.186 30.5941 129.186 30.559C129.186 30.5238 129.193 30.4891 129.207 30.4568L129.491 29.7448C129.519 29.6797 129.571 29.6279 129.636 29.6003C129.669 29.5857 129.704 29.5781 129.74 29.5781C129.776 29.5781 129.812 29.5857 129.844 29.6003L133.019 30.8851C133.052 30.898 133.081 30.9173 133.106 30.942C133.132 30.9666 133.151 30.996 133.165 31.0285C133.178 31.0609 133.185 31.0957 133.185 31.1309C133.185 31.166 133.177 31.2008 133.163 31.233L132.88 31.945C132.852 32.0101 132.8 32.0619 132.735 32.0896C132.7 32.0971 132.663 32.0971 132.628 32.0896ZM129.802 30.3926L132.478 31.4632L132.564 31.2491L129.887 30.1784L129.802 30.3926Z" fill="#313B44"/>
<path d="M133.629 29.6647C133.596 29.6699 133.561 29.6699 133.528 29.6647L131.531 28.8243C131.466 28.7969 131.414 28.7454 131.386 28.6805C131.358 28.6156 131.356 28.5424 131.381 28.4763C131.408 28.4099 131.461 28.3569 131.527 28.3288C131.593 28.3008 131.667 28.2999 131.734 28.3264L133.731 29.1348C133.764 29.1477 133.793 29.167 133.818 29.1916C133.844 29.2163 133.863 29.2457 133.877 29.2781C133.89 29.3106 133.897 29.3454 133.897 29.3806C133.897 29.4157 133.889 29.4505 133.875 29.4827C133.858 29.5346 133.825 29.5799 133.781 29.6124C133.737 29.645 133.684 29.6632 133.629 29.6647Z" fill="#313B44"/>
<path d="M134.165 28.3425C134.131 28.3505 134.096 28.3505 134.063 28.3425L132.58 27.7537C132.514 27.7267 132.461 27.6746 132.434 27.6088C132.406 27.5431 132.406 27.4691 132.433 27.403C132.46 27.337 132.512 27.2844 132.578 27.2568C132.643 27.2292 132.717 27.2288 132.783 27.2558L134.261 27.8554C134.294 27.8684 134.323 27.8877 134.349 27.9122C134.374 27.9367 134.394 27.966 134.408 27.9983C134.422 28.0306 134.429 28.0653 134.43 28.1005C134.43 28.1357 134.424 28.1707 134.411 28.2033C134.386 28.2468 134.351 28.2828 134.307 28.3073C134.264 28.3319 134.214 28.344 134.165 28.3425V28.3425Z" fill="#313B44"/>
<path d="M134.695 27.0193C134.663 27.0243 134.63 27.0243 134.598 27.0193L133.115 26.4198C133.05 26.3924 132.998 26.3409 132.97 26.276C132.942 26.2111 132.941 26.1379 132.965 26.0718C132.995 26.0072 133.048 25.9563 133.113 25.9294C133.179 25.9026 133.253 25.9018 133.319 25.9272L134.796 26.5215C134.831 26.5281 134.865 26.5417 134.895 26.5613C134.925 26.5809 134.951 26.6062 134.971 26.6358C134.991 26.6654 135.005 26.6987 135.012 26.7337C135.019 26.7687 135.02 26.8048 135.013 26.84C135.006 26.8751 134.993 26.9086 134.973 26.9385C134.954 26.9685 134.928 26.9942 134.899 27.0144C134.869 27.0345 134.836 27.0486 134.801 27.0559C134.766 27.0632 134.73 27.0635 134.695 27.0568V27.0193Z" fill="#313B44"/>
<path d="M135.23 25.6929H135.128L133.131 24.8846C133.096 24.8737 133.063 24.8555 133.034 24.8311C133.006 24.8067 132.983 24.7767 132.967 24.7429C132.951 24.7092 132.943 24.6725 132.942 24.6352C132.941 24.5979 132.948 24.5608 132.962 24.5263C132.976 24.4918 132.997 24.4607 133.024 24.4349C133.051 24.4092 133.084 24.3893 133.119 24.3767C133.154 24.364 133.191 24.3589 133.228 24.3615C133.266 24.3642 133.302 24.3746 133.335 24.3921L135.332 25.195C135.364 25.2079 135.394 25.2273 135.419 25.2519C135.444 25.2765 135.464 25.306 135.477 25.3384C135.491 25.3709 135.498 25.4057 135.498 25.4409C135.497 25.476 135.49 25.5107 135.476 25.543C135.455 25.5902 135.421 25.6299 135.377 25.6567C135.333 25.6835 135.281 25.6962 135.23 25.6929V25.6929Z" fill="#313B44"/>
<path d="M135.765 24.3703C135.731 24.3754 135.697 24.3754 135.663 24.3703L134.186 23.7707C134.12 23.7445 134.067 23.6931 134.039 23.6278C134.011 23.5625 134.01 23.4888 134.036 23.4228C134.062 23.3568 134.114 23.3039 134.179 23.2758C134.244 23.2477 134.318 23.2466 134.384 23.2729L135.867 23.8725C135.9 23.8854 135.929 23.9047 135.954 23.9293C135.979 23.9539 135.999 23.9834 136.013 24.0158C136.026 24.0483 136.033 24.0831 136.033 24.1183C136.033 24.1534 136.025 24.1881 136.011 24.2204C135.989 24.2663 135.954 24.3048 135.91 24.3313C135.867 24.3579 135.816 24.3714 135.765 24.3703Z" fill="#313B44"/>
<path d="M136.3 23.0481C136.267 23.056 136.232 23.056 136.199 23.0481L134.716 22.4539C134.65 22.4269 134.597 22.3748 134.57 22.309C134.542 22.2433 134.542 22.1692 134.569 22.1032C134.596 22.0372 134.648 21.9846 134.713 21.957C134.779 21.9294 134.853 21.929 134.919 21.956L136.397 22.5556C136.429 22.5686 136.459 22.5879 136.484 22.6124C136.51 22.6369 136.53 22.6662 136.544 22.6985C136.558 22.7308 136.565 22.7655 136.566 22.8007C136.566 22.8359 136.56 22.8709 136.547 22.9035C136.523 22.948 136.487 22.9851 136.444 23.0106C136.4 23.0361 136.351 23.0491 136.3 23.0481V23.0481Z" fill="#313B44"/>
<path d="M134.242 20.1661L136.391 21.0337L137.259 18.8842L135.109 18.0166L134.242 20.1661Z" fill="white"/>
<path d="M136.381 21.3287C136.349 21.3338 136.316 21.3338 136.284 21.3287L134.143 20.4614C134.078 20.4338 134.026 20.382 133.998 20.3169C133.974 20.2513 133.974 20.1791 133.998 20.1135L134.871 17.9722C134.884 17.9395 134.903 17.9096 134.928 17.8844C134.952 17.8591 134.982 17.839 135.014 17.8251C135.046 17.8111 135.081 17.8037 135.116 17.8032C135.151 17.8028 135.186 17.8092 135.219 17.8223L137.36 18.6895C137.394 18.7024 137.424 18.722 137.45 18.7469C137.476 18.7718 137.496 18.8016 137.51 18.8345C137.524 18.8674 137.531 18.9029 137.531 18.9386C137.531 18.9744 137.524 19.0098 137.51 19.0428L136.643 21.1841C136.619 21.2316 136.581 21.2708 136.534 21.2965C136.487 21.3223 136.434 21.3335 136.381 21.3287V21.3287ZM134.582 20.0492L136.236 20.713L136.905 19.0589L135.251 18.3951L134.582 20.0492Z" fill="#313B44"/>
<path d="M136.873 18.7385L135.481 18.1764L136.536 16.5918L137.216 16.8648L136.873 18.7385Z" fill="white"/>
<path d="M136.873 19.0067C136.84 19.0118 136.805 19.0118 136.772 19.0067L135.38 18.4446C135.343 18.4291 135.31 18.4057 135.283 18.376C135.256 18.3463 135.236 18.311 135.224 18.2727C135.212 18.2344 135.209 18.1939 135.215 18.1543C135.22 18.1146 135.235 18.0766 135.257 18.0431L136.327 16.4371C136.362 16.3855 136.413 16.3473 136.473 16.3288C136.532 16.3103 136.596 16.3126 136.654 16.3354L137.328 16.6084C137.386 16.6319 137.434 16.6745 137.464 16.729C137.494 16.7835 137.505 16.8468 137.494 16.9082L137.152 18.7818C137.141 18.8437 137.109 18.8999 137.061 18.9402C137.013 18.9805 136.952 19.0022 136.889 19.0013L136.873 19.0067ZM135.883 18.0538L136.67 18.3696L136.911 17.0313L136.638 16.9189L135.883 18.0538Z" fill="#313B44"/>
<path d="M139.432 10.4136L136.766 16.6823L137.002 16.7786L139.432 10.4136Z" fill="white"/>
<path d="M137.018 17.0468C136.984 17.0524 136.95 17.0524 136.916 17.0468L136.681 16.9505C136.616 16.9228 136.564 16.871 136.536 16.8059C136.52 16.7735 136.512 16.7377 136.512 16.7015C136.512 16.6653 136.52 16.6296 136.536 16.5972L139.213 10.3338C139.245 10.2771 139.296 10.234 139.357 10.2124C139.419 10.1909 139.486 10.1923 139.546 10.2166C139.606 10.2408 139.656 10.2862 139.685 10.3442C139.714 10.4022 139.721 10.4689 139.705 10.5319L137.275 16.8916C137.263 16.9255 137.245 16.9566 137.221 16.9833C137.197 17.01 137.168 17.0316 137.136 17.0468C137.097 17.0529 137.057 17.0529 137.018 17.0468V17.0468Z" fill="#313B44"/>
<path d="M132.831 37.4316C132.982 37.056 131.518 36.111 129.561 35.3209C127.603 34.5308 125.894 34.1948 125.742 34.5704C125.59 34.946 127.054 35.891 129.012 36.6811C130.969 37.4712 132.679 37.8072 132.831 37.4316Z" fill="white"/>
<path d="M132.36 37.8443C132.083 37.8378 131.807 37.8055 131.536 37.7479C130.633 37.5523 129.749 37.2746 128.897 36.9182C128.265 36.6612 125.123 35.3443 125.481 34.461C125.615 34.1238 126.086 34.0542 127.012 34.2362C127.916 34.4297 128.799 34.7057 129.652 35.0606C130.511 35.4044 131.337 35.8255 132.12 36.3186C132.912 36.8539 133.19 37.2073 133.067 37.5445C132.981 37.7372 132.735 37.8443 132.36 37.8443ZM126.027 34.6805C126.242 34.9642 127.237 35.6709 129.1 36.4203C130.963 37.1698 132.168 37.3572 132.521 37.2983C132.307 37.0145 131.311 36.3079 129.448 35.5585C127.585 34.809 126.381 34.627 126.027 34.6805Z" fill="#313B44"/>
<path d="M124.769 44.3809L126.461 45.0608L129.951 36.4045C129.951 36.4045 129.866 36.094 129.191 35.821C128.517 35.548 128.26 35.7247 128.26 35.7247L124.769 44.3809Z" fill="white"/>
<path d="M126.461 45.3287C126.427 45.3343 126.393 45.3343 126.359 45.3287L124.668 44.6435C124.635 44.6305 124.605 44.6112 124.58 44.5867C124.555 44.5622 124.535 44.5329 124.521 44.5006C124.507 44.4683 124.499 44.4336 124.499 44.3984C124.498 44.3632 124.505 44.3282 124.518 44.2956L128.013 35.6393C128.033 35.5914 128.067 35.5504 128.11 35.5215C128.169 35.4787 128.517 35.2753 129.293 35.5857C130.069 35.8962 130.192 36.2763 130.208 36.3513C130.227 36.4068 130.227 36.467 130.208 36.5226L126.713 45.1789C126.685 45.2439 126.633 45.2957 126.568 45.3234C126.533 45.3336 126.497 45.3354 126.461 45.3287V45.3287ZM125.117 44.2581L126.311 44.7399L129.657 36.453C129.499 36.2897 129.305 36.1667 129.089 36.0943C128.894 36.0021 128.679 35.9581 128.463 35.9658L125.117 44.2581Z" fill="#313B44"/>
<path d="M127.676 45.5581C127.759 45.3525 126.961 44.8368 125.895 44.4064C124.828 43.9759 123.896 43.7936 123.813 43.9993C123.73 44.2049 124.528 44.7205 125.594 45.151C126.661 45.5815 127.593 45.7637 127.676 45.5581Z" fill="white"/>
<path d="M127.382 45.8909C126.727 45.8261 126.087 45.6562 125.487 45.3876C124.673 45.0611 123.345 44.4294 123.56 43.8887C123.688 43.5729 124.143 43.6157 124.529 43.696C125.027 43.8029 125.514 43.9552 125.985 44.151C126.461 44.3363 126.919 44.5639 127.355 44.8309C127.682 45.045 128.046 45.3288 127.917 45.65C127.837 45.8266 127.639 45.8909 127.382 45.8909ZM124.33 44.1992C125.197 44.7369 126.15 45.1225 127.146 45.3395C126.28 44.8018 125.327 44.4162 124.33 44.1992Z" fill="#313B44"/>
<path d="M135.412 51.8433C135.273 51.8446 135.135 51.821 135.005 51.7737C134.806 51.6969 134.626 51.5796 134.475 51.4294C134.324 51.2792 134.205 51.0994 134.127 50.9012C133.873 50.2547 133.831 49.5438 134.009 48.8723C133.774 49.1453 133.517 49.4076 133.238 49.6806C132.941 49.9998 132.575 50.2469 132.168 50.4033C131.935 50.4913 131.682 50.5114 131.439 50.4612C131.195 50.4109 130.971 50.2925 130.792 50.1196C130.326 49.611 130.498 48.8616 130.664 48.3369C131.217 46.4176 132.143 44.626 133.388 43.0639C133.411 43.0368 133.438 43.0144 133.469 42.998C133.5 42.9817 133.534 42.9717 133.569 42.9687C133.604 42.9657 133.639 42.9698 133.672 42.9806C133.706 42.9914 133.737 43.0089 133.763 43.0318C133.79 43.054 133.813 43.0814 133.829 43.1125C133.845 43.1435 133.855 43.1775 133.858 43.2124C133.861 43.2473 133.857 43.2825 133.846 43.3159C133.836 43.3492 133.818 43.38 133.795 43.4065C132.597 44.9183 131.706 46.6495 131.172 48.5029C130.974 49.1292 130.979 49.5254 131.172 49.7556C131.281 49.8503 131.414 49.9134 131.557 49.9379C131.699 49.9624 131.846 49.9475 131.98 49.8947C132.309 49.7621 132.604 49.5572 132.842 49.2952C133.639 48.5627 134.29 47.6852 134.759 46.7095V46.7095C134.773 46.6776 134.794 46.6488 134.82 46.625C134.845 46.6011 134.875 46.5827 134.908 46.5707C134.941 46.5587 134.976 46.5535 135.011 46.5553C135.046 46.557 135.081 46.5658 135.112 46.581C135.177 46.6103 135.227 46.6638 135.252 46.7301C135.277 46.7963 135.275 46.8698 135.246 46.9344V46.9344C134.86 47.7695 134.063 49.5093 134.582 50.6817C134.678 50.9395 134.87 51.1503 135.117 51.2705C135.298 51.3122 135.486 51.3065 135.663 51.254C135.84 51.2014 136.001 51.1038 136.129 50.9708C136.424 50.6575 136.661 50.2952 136.831 49.9001L137.746 48.0264C137.778 47.9634 137.834 47.9156 137.901 47.8936C137.968 47.8715 138.041 47.8769 138.105 47.9087C138.136 47.9235 138.164 47.9446 138.188 47.9705C138.211 47.9963 138.229 48.0266 138.24 48.0595C138.252 48.0924 138.256 48.1272 138.254 48.162C138.252 48.1968 138.243 48.2308 138.228 48.262L137.312 50.1356C137.116 50.5954 136.838 51.0161 136.493 51.3776C136.2 51.6569 135.816 51.8221 135.412 51.8433V51.8433Z" fill="#313B44"/>
<path d="M125.524 50.3013C125.524 50.3013 130.904 52.4426 131.531 55.2638Z" fill="white"/>
<path d="M131.531 55.5315C131.47 55.5328 131.41 55.5126 131.362 55.4745C131.314 55.4364 131.281 55.3827 131.268 55.3227C130.68 52.6461 125.482 50.569 125.428 50.5476C125.395 50.5346 125.365 50.5153 125.34 50.4908C125.315 50.4663 125.295 50.437 125.281 50.4047C125.267 50.3724 125.26 50.3376 125.259 50.3024C125.259 50.2673 125.265 50.2323 125.278 50.1996C125.305 50.1345 125.357 50.0825 125.422 50.0545C125.487 50.0265 125.56 50.0248 125.626 50.0497C125.851 50.1407 131.14 52.266 131.788 55.205C131.796 55.2394 131.797 55.2751 131.791 55.3099C131.785 55.3448 131.772 55.3781 131.753 55.408C131.734 55.4378 131.709 55.4636 131.68 55.4839C131.651 55.5042 131.619 55.5186 131.584 55.5262L131.531 55.5315Z" fill="#313B44"/>
<path d="M40.4712 109.075C40.4712 109.075 33.1586 127.661 34.1008 135.541H89.6733C89.6733 135.541 87.8693 116.639 85.3211 109.846L40.4712 109.075Z" fill="#313B44"/>
<path d="M89.6733 135.809H34.1007C34.0359 135.808 33.9736 135.784 33.9253 135.741C33.8771 135.697 33.8462 135.638 33.8384 135.574C32.8962 127.72 39.9251 109.739 40.2249 108.978C40.2477 108.93 40.2831 108.889 40.3274 108.858C40.3716 108.828 40.4231 108.811 40.4765 108.807L85.3264 109.594C85.3805 109.595 85.433 109.613 85.477 109.644C85.5209 109.676 85.5543 109.72 85.5727 109.771C88.1048 116.5 89.9195 135.322 89.941 135.515C89.9434 135.552 89.9385 135.588 89.9266 135.623C89.9146 135.658 89.8959 135.691 89.8714 135.718C89.8466 135.746 89.8161 135.769 89.782 135.785C89.7479 135.8 89.7108 135.809 89.6733 135.809ZM34.3416 135.274H89.3735C89.1326 132.87 87.4303 116.462 85.1283 110.113L40.6585 109.348C39.9305 111.227 33.6243 127.86 34.3416 135.274Z" fill="#313B44"/>
<path d="M82.9174 111.265C80.6261 96.1898 70.7547 49.5894 70.7547 49.5894C62.2911 52.0465 56.7451 50.0926 56.7451 50.0926C56.7451 50.0926 41.4026 99.0645 38.8437 111.265H82.9174Z" fill="#EE4937"/>
<path d="M122.157 57.491L109.716 78.2564L90.0748 54.1666C87.4303 49.6163 74.8608 49.6163 74.8608 49.6163C74.8608 49.6163 55.4176 48.2993 51.5097 49.5734C51.5097 49.5734 36.1725 54.2629 33.1265 57.6034C30.0804 60.9438 38.635 76.3613 39.0526 92.5283C39.4701 108.695 32.5055 125.012 32.5055 125.012L52.9176 130.82C52.9176 130.82 56.8041 104.686 56.8041 92.1749C56.8041 66.5487 56.7452 50.1034 56.7452 50.1034L70.6263 50.5477C70.6263 50.5477 70.1713 74.9052 69.4646 93.5829C68.5492 117.946 73.849 130.82 73.849 130.82L92.4035 125.927C92.4035 125.927 86.3382 103.888 86.4185 92.2017C86.515 88.7234 86.8458 85.2555 87.4089 81.8217C93.6241 89.4555 104.984 106.554 113.972 102.978C120.835 100.242 133.549 65.7029 133.549 65.7029L122.157 57.491Z" fill="white"/>
<path d="M73.8489 131.071C73.7961 131.071 73.7445 131.055 73.7007 131.025C73.6568 130.996 73.6227 130.954 73.6027 130.905C73.5491 130.776 68.2922 117.698 69.1969 93.555C69.8554 76.1301 70.305 53.4856 70.3532 50.7876L57.0182 50.3593C57.0182 52.6291 57.0717 68.614 57.0717 92.1578C57.0717 104.545 53.2227 130.584 53.1799 130.846C53.1737 130.883 53.1598 130.919 53.139 130.95C53.1183 130.982 53.091 131.008 53.0592 131.029C53.0274 131.049 52.9916 131.062 52.9543 131.068C52.9169 131.073 52.8789 131.071 52.8426 131.06L32.4305 125.252C32.3944 125.241 32.361 125.222 32.3325 125.197C32.304 125.172 32.2809 125.142 32.2648 125.108C32.2487 125.073 32.2399 125.036 32.2389 124.998C32.238 124.96 32.2449 124.923 32.2592 124.888C32.3288 124.727 39.2185 108.448 38.7849 92.5218C38.5761 84.3634 36.3009 76.462 34.4701 70.0701C32.6393 63.6783 31.3384 59.1548 32.9444 57.3882C36.0011 54.0156 50.8191 49.4599 51.4507 49.2672C55.3533 47.9931 74.0952 49.2672 74.8928 49.2993C75.5299 49.2993 87.6336 49.3796 90.3156 53.9835L109.716 77.7896L121.948 57.3507C121.967 57.3188 121.993 57.2914 122.023 57.2702C122.054 57.2489 122.088 57.2344 122.125 57.2276C122.162 57.2193 122.2 57.2193 122.237 57.2277C122.274 57.236 122.309 57.2524 122.339 57.2757L133.726 65.5038C133.772 65.5375 133.807 65.5854 133.824 65.6404C133.842 65.6953 133.841 65.7544 133.822 65.8089C133.287 67.2275 120.974 100.493 114.095 103.239C113.257 103.574 112.363 103.744 111.461 103.742C104.1 103.742 95.7867 93.0036 90.048 85.6268C89.1754 84.4973 88.3456 83.4212 87.5855 82.4791C87.0738 85.6891 86.7769 88.9297 86.6968 92.1792C86.6165 103.721 92.6122 125.637 92.6711 125.857C92.6854 125.89 92.6928 125.925 92.6928 125.961C92.6928 125.997 92.6854 126.033 92.6711 126.066C92.6543 126.096 92.6314 126.123 92.6037 126.144C92.5761 126.165 92.5443 126.18 92.5105 126.189L73.9185 131.071C73.8956 131.076 73.8719 131.076 73.8489 131.071V131.071ZM56.7452 49.84L70.6262 50.2843C70.6612 50.285 70.6956 50.2927 70.7275 50.3068C70.7594 50.321 70.7882 50.3414 70.8121 50.3668C70.8361 50.3923 70.8547 50.4222 70.8669 50.4549C70.8791 50.4876 70.8846 50.5225 70.8832 50.5574C70.8832 50.7983 70.4175 75.129 69.7215 93.5925C68.8864 115.916 73.3296 128.71 74.0042 130.503L92.0501 125.718C91.3703 123.196 86.0544 103.084 86.1294 92.1525C86.2335 88.6894 86.5733 85.2375 87.1465 81.8206C87.1551 81.7698 87.1777 81.7223 87.2118 81.6836C87.2458 81.6448 87.2899 81.6163 87.3392 81.6011C87.3895 81.5883 87.4423 81.59 87.4916 81.6061C87.5409 81.6223 87.5846 81.6521 87.6176 81.6921C88.4795 82.7628 89.4484 83.9994 90.4709 85.3217C96.7824 93.4694 106.311 105.782 113.875 102.768C120.299 100.215 132.194 68.6087 133.228 65.8303L122.237 57.8967L109.962 78.4052C109.939 78.4418 109.908 78.4725 109.87 78.4948C109.833 78.5171 109.791 78.5304 109.748 78.5337C109.706 78.5371 109.663 78.5301 109.624 78.5133C109.585 78.4965 109.55 78.4704 109.523 78.4373L89.8874 54.3475C87.3232 49.9417 74.9999 49.8936 74.8982 49.8936C74.684 49.8936 55.4443 48.5927 51.6328 49.84C51.4722 49.8882 36.3223 54.5456 33.362 57.8057C31.9594 59.3528 33.3031 64.0423 35.0054 69.9791C36.8416 76.4031 39.1275 84.342 39.3416 92.5647C39.7324 107.458 33.8009 122.639 32.8909 124.877L52.6981 130.52C53.1263 127.57 56.5364 103.839 56.5364 92.2167C56.5364 66.8849 56.4828 50.3058 56.4775 50.1452C56.4773 50.1088 56.4849 50.0728 56.4996 50.0396C56.5144 50.0064 56.536 49.9767 56.5631 49.9524C56.5836 49.9217 56.6105 49.8958 56.6419 49.8764C56.6733 49.857 56.7085 49.8446 56.7452 49.84V49.84Z" fill="#313B44"/>
<path d="M40.1554 31.1467C40.0697 32.6885 40.4284 34.2195 40.5247 35.7559C40.6211 37.2923 40.4123 38.9679 39.3898 40.1188C38.2442 41.425 36.2956 41.773 34.5719 41.4304C32.8481 41.0878 31.3599 40.1724 29.861 39.2891C29.786 41.8854 31.3492 44.3747 33.5441 45.7612C37.3609 48.1702 44.8181 47.8169 48.8866 46.2323C51.9968 45.0225 54.6949 42.5171 55.6317 39.3105C56.5418 36.2109 55.7495 32.8544 54.4915 29.878C53.0943 26.5804 50.439 23.5504 46.5579 23.5932C43.1104 23.6093 40.3267 28.0632 40.1554 31.1467Z" fill="white"/>
<path d="M41.3063 47.7479C38.3246 47.7479 35.3802 47.2125 33.4209 45.9706C32.2705 45.2662 31.3177 44.2813 30.6519 43.1081C29.9862 41.9348 29.6293 40.6118 29.6147 39.2629C29.6172 39.2154 29.6317 39.1692 29.657 39.1289C29.6823 39.0886 29.7175 39.0555 29.7593 39.0327C29.799 39.0091 29.8443 38.9967 29.8904 38.9967C29.9366 38.9967 29.9819 39.0091 30.0216 39.0327C31.3974 39.8678 32.9552 40.8207 34.6468 41.174C36.0708 41.4577 38.0087 41.2864 39.1918 39.9481C40.0108 39.0166 40.3695 37.6141 40.2624 35.7779C40.225 35.2426 40.1554 34.643 40.0858 34.0916C39.9328 33.1162 39.8684 32.129 39.8931 31.1419C40.0767 29.291 40.7801 27.5298 41.922 26.0617C43.2657 24.3058 44.9198 23.3261 46.5793 23.3101H46.665C51.483 23.3101 53.9401 27.8122 54.7645 29.734C56.3223 33.4117 56.7078 36.6451 55.9155 39.3699C55.0054 42.4802 52.4251 45.1301 49.0097 46.4631C46.5379 47.3426 43.9298 47.7776 41.3063 47.7479V47.7479ZM30.1554 39.75C30.2525 40.9217 30.6239 42.054 31.2395 43.0556C31.8552 44.0571 32.6978 44.8998 33.6993 45.5155C37.3503 47.8228 44.5879 47.6033 48.801 45.9599C52.0611 44.6911 54.5236 42.1697 55.3855 39.2147C56.1457 36.6398 55.7602 33.5242 54.256 29.9589C53.469 28.1066 51.151 23.7865 46.5686 23.84C43.2282 23.8775 40.5729 28.2404 40.4123 31.1633C40.389 32.1181 40.4517 33.0731 40.5997 34.0167C40.6693 34.552 40.7442 35.1623 40.7817 35.7404C40.9048 37.7211 40.498 39.2575 39.5826 40.2961C38.2496 41.8057 36.0976 42.0091 34.5291 41.6933C32.9704 41.3017 31.4908 40.6443 30.1554 39.75V39.75Z" fill="#313B44"/>
<path d="M45.9262 28.99C45.2753 28.7009 44.6922 28.2785 44.2146 27.7502C43.737 27.2219 43.3754 26.5993 43.1532 25.9226C42.9411 25.2436 42.9014 24.5224 43.0379 23.8243C43.1744 23.1261 43.4826 22.4729 43.9347 21.9237C44.2167 21.5837 44.5742 21.3142 44.9786 21.1368C45.3801 20.987 45.8094 20.9267 46.2366 20.9601C47.1928 21.028 48.107 21.3796 48.8623 21.9699C49.6176 22.5602 50.1796 23.3623 50.4765 24.2738C51.3972 27.3412 49.1274 30.4301 45.9262 28.99Z" fill="#313B44"/>
<path d="M47.5054 29.6216C46.9199 29.6146 46.3429 29.4813 45.8137 29.2308V29.2308C45.1311 28.9273 44.5191 28.485 44.0168 27.932C43.5145 27.379 43.1328 26.7274 42.8962 26.0188C42.6691 25.2914 42.6271 24.5188 42.7738 23.771C42.9206 23.0232 43.2515 22.3238 43.7366 21.7362C44.0419 21.3626 44.4331 21.0687 44.8769 20.8797C45.3133 20.7125 45.7815 20.6449 46.2473 20.6816C47.259 20.7489 48.2272 21.1187 49.0261 21.743C49.8251 22.3673 50.418 23.2172 50.728 24.1826C50.9974 24.9827 51.0358 25.8425 50.8389 26.6634C50.6419 27.4844 50.2176 28.2331 49.6146 28.8239C49.0347 29.3421 48.283 29.6263 47.5054 29.6216ZM46.0118 28.7436C46.5166 29.0199 47.0928 29.1381 47.6656 29.0827C48.2383 29.0273 48.7813 28.801 49.2238 28.4331C49.7499 27.9103 50.1186 27.2503 50.288 26.5281C50.4574 25.806 50.4207 25.0509 50.182 24.3486C49.9043 23.4879 49.3748 22.7304 48.6619 22.1739C47.9489 21.6175 47.0854 21.2879 46.1831 21.2276C45.7958 21.1951 45.4061 21.25 45.0428 21.3882C44.6769 21.5452 44.3538 21.7875 44.1007 22.0948C43.68 22.6111 43.3934 23.2234 43.2664 23.8771C43.1393 24.5309 43.1759 25.2059 43.3726 25.8422C43.5833 26.4813 43.9256 27.0693 44.3774 27.5681C44.8292 28.0669 45.3805 28.4655 45.9957 28.7383L46.0118 28.7436Z" fill="#313B44"/>
<path d="M56.183 2.59302L56.1134 2.6412C55.6798 2.94098 54.1648 4.71827 53.7847 4.73433C37.9551 5.20007 44.3148 27.3199 52.3287 33.5725C55.5139 36.0618 61.0866 38.171 65.1284 37.2074C68.1209 36.4954 70.8671 33.9954 70.9849 30.9173C74.0951 30.671 77.4517 30.3177 79.7589 28.2407C81.0964 26.9116 82.0523 25.2476 82.5266 23.4227C83.9048 18.9934 83.4857 14.1998 81.3596 10.0769C77.5427 3.01057 67.441 -1.34701 59.7215 0.906728C58.4594 1.27574 57.2646 1.84509 56.183 2.59302V2.59302Z" fill="white"/>
<path d="M62.9871 37.7105C59.2397 37.7105 54.8608 35.8743 52.1788 33.7865C46.6916 29.5039 42.0075 18.0424 44.4058 10.7673C45.712 6.78447 48.9561 4.60032 53.7901 4.46114C54.2669 4.0991 54.7095 3.69413 55.1124 3.25129C55.3823 2.95541 55.6721 2.67818 55.9796 2.42153L56.0545 2.37335C57.1567 1.5949 58.3767 0.99845 59.668 0.606763C67.457 -1.66839 77.714 2.67849 81.6165 9.90544C83.7846 14.0942 84.2099 18.9699 82.7996 23.4707C82.3226 25.3532 81.3396 27.0694 79.957 28.4332C77.5534 30.6227 73.9613 30.9653 71.2579 31.1794C70.9956 34.4396 68.0459 36.8111 65.2033 37.4856C64.4757 37.646 63.732 37.7214 62.9871 37.7105V37.7105ZM64.1059 0.531816C62.6576 0.523841 61.2156 0.722119 59.8233 1.12068C58.5871 1.49507 57.4194 2.06627 56.365 2.81232V2.81232L56.3008 2.8605C56.0226 3.09881 55.7581 3.3526 55.5085 3.62067C54.577 4.57355 54.1381 4.99111 53.8222 5.00182C49.2344 5.13565 46.1616 7.19132 44.9304 10.9386C42.6124 18.0157 47.1681 29.1827 52.5214 33.3636C55.653 35.8047 61.1241 37.8925 65.0962 36.9503C67.7997 36.3186 70.6369 34.022 70.7333 30.9064C70.7368 30.8412 70.7636 30.7794 70.8088 30.7323C70.854 30.6852 70.9145 30.6558 70.9795 30.6495C74.2879 30.3871 77.4356 29.9856 79.5983 28.021C80.9035 26.7199 81.8289 25.0875 82.275 23.2994C83.635 18.9378 83.2215 14.2159 81.124 10.157C78.0352 4.4076 70.7868 0.531816 64.1059 0.531816V0.531816Z" fill="#313B44"/>
<path d="M73.8489 26.7686C74.6626 22.0149 82.5908 20.9282 82.1358 26.5385C82.0614 28.4862 81.3033 30.3456 79.9945 31.79C78.624 33.1551 76.4292 33.7815 74.6733 32.9731" fill="white"/>
<path d="M76.3435 33.5994C75.7218 33.6042 75.1064 33.4745 74.5394 33.2193C74.5068 33.2049 74.4774 33.1841 74.453 33.1581C74.4285 33.1322 74.4095 33.1016 74.3971 33.0682C74.3846 33.0347 74.3789 32.9992 74.3804 32.9635C74.3819 32.9279 74.3904 32.8929 74.4056 32.8607C74.42 32.8287 74.4407 32.8 74.4663 32.7761C74.492 32.7523 74.5222 32.7338 74.5552 32.7218C74.5881 32.7099 74.6231 32.7046 74.6581 32.7064C74.6931 32.7082 74.7274 32.7169 74.7589 32.7322C76.3221 33.4495 78.3885 32.9891 79.7803 31.6026C81.29 30.0984 81.7503 28.0052 81.8681 26.517C82.0287 24.5631 81.0865 23.2676 79.3521 23.0481C77.2107 22.7804 74.5341 24.2633 74.1112 26.7954C74.0991 26.8664 74.0593 26.9297 74.0006 26.9713C73.9419 27.013 73.869 27.0296 73.798 27.0175C73.727 27.0055 73.6637 26.9657 73.6221 26.907C73.5804 26.8482 73.5638 26.7754 73.5759 26.7044C74.063 23.8511 77.0394 22.2022 79.4109 22.4967C81.0169 22.6947 82.6229 23.8618 82.3927 26.5384C82.2643 28.1444 81.7718 30.3393 80.1497 31.956C79.1444 32.98 77.7782 33.5698 76.3435 33.5994V33.5994Z" fill="#313B44"/>
<path d="M54.138 26.554C53.426 21.7788 45.5246 20.5154 45.8565 26.1364C45.8953 28.0892 46.6213 29.9657 47.9068 31.4362C49.2451 32.828 51.4239 33.5079 53.2012 32.737" fill="white"/>
<path d="M51.5953 33.3256C50.8677 33.3136 50.1499 33.1569 49.4835 32.8646C48.8172 32.5724 48.2157 32.1504 47.7141 31.6232C46.1081 29.9691 45.6799 27.7367 45.5728 26.1522C45.4175 23.4755 47.0557 22.3406 48.6456 22.1747C51.0225 21.9284 53.9614 23.6522 54.3843 26.5108C54.3896 26.5456 54.388 26.5811 54.3796 26.6153C54.3712 26.6495 54.3561 26.6817 54.3352 26.71C54.3143 26.7384 54.2881 26.7623 54.2579 26.7805C54.2277 26.7987 54.1943 26.8107 54.1595 26.816C54.0894 26.8253 54.0184 26.8071 53.9615 26.7651C53.9046 26.7232 53.8662 26.6608 53.8543 26.5911C53.5064 24.0055 50.8297 22.4905 48.7152 22.71C46.9754 22.892 46.0064 24.1661 46.1242 26.12C46.2098 27.6136 46.622 29.7175 48.0996 31.2485C49.4593 32.6671 51.515 33.1757 53.0942 32.4905C53.1589 32.4659 53.2306 32.4674 53.2942 32.4946C53.3578 32.5218 53.4085 32.5726 53.4355 32.6363C53.4625 32.7 53.4638 32.7717 53.439 32.8363C53.4143 32.901 53.3656 32.9535 53.303 32.983C52.7632 33.2129 52.1819 33.3296 51.5953 33.3256V33.3256Z" fill="#313B44"/>
<path d="M55.0053 94.3051C54.9494 94.3055 54.8949 94.2881 54.8496 94.2554C54.8044 94.2226 54.7708 94.1763 54.7537 94.1231C54.4967 93.4004 48.5278 76.3609 48.0674 73.8181C47.6552 71.5108 52.1199 67.5815 53.5331 66.4038C51.713 65.922 47.0128 64.5836 46.5738 63.5879C46.0974 62.5173 50.9689 53.4809 52.4625 50.74C52.4792 50.7089 52.502 50.6816 52.5296 50.6595C52.5571 50.6375 52.5888 50.6212 52.6228 50.6117C52.6568 50.6022 52.6924 50.5997 52.7274 50.6043C52.7624 50.6088 52.7961 50.6204 52.8265 50.6383C52.8574 50.6545 52.8846 50.6768 52.9066 50.7039C52.9286 50.731 52.9449 50.7622 52.9544 50.7958C52.9639 50.8293 52.9665 50.8645 52.962 50.8991C52.9575 50.9337 52.946 50.967 52.9282 50.997C49.8929 56.5323 46.8629 62.6779 47.0396 63.3791C47.2912 63.9573 50.8511 65.1779 54.1434 66.0183C54.1909 66.0316 54.2339 66.0576 54.2678 66.0934C54.3018 66.1292 54.3254 66.1736 54.3361 66.2217C54.3468 66.2709 54.3435 66.3221 54.3264 66.3694C54.3094 66.4168 54.2793 66.4584 54.2397 66.4894C52.5428 67.8384 48.212 71.7624 48.5653 73.7271C49.0149 76.2271 55.1659 93.7698 55.2248 93.9465C55.2489 94.0132 55.2455 94.0868 55.2154 94.151C55.1853 94.2153 55.1309 94.2649 55.0642 94.2891L55.0053 94.3051Z" fill="#A1A1A1"/>
<path d="M71.0599 94.1877C71.0169 94.1865 70.9748 94.1755 70.9367 94.1556C70.9055 94.1398 70.8777 94.1179 70.8551 94.0911C70.8324 94.0644 70.8153 94.0334 70.8049 94C70.7944 93.9666 70.7907 93.9314 70.794 93.8965C70.7974 93.8616 70.8077 93.8278 70.8243 93.7969C70.9046 93.6363 79.0845 77.7103 79.5502 73.9523C79.5502 72.7103 74.9571 69.9748 72.0556 68.5508C72.0105 68.5287 71.9726 68.4944 71.9461 68.4519C71.9196 68.4093 71.9056 68.3601 71.9057 68.3099C71.9079 68.2596 71.9234 68.2108 71.9507 68.1684C71.978 68.1261 72.016 68.0918 72.0609 68.069C74.0149 67.1482 79.1594 64.3217 79.5288 62.4213C79.8982 60.5209 76.1295 52.9085 74.6466 50.1622C74.6296 50.1313 74.619 50.0974 74.6152 50.0623C74.6114 50.0273 74.6145 49.9918 74.6245 49.958C74.6344 49.9242 74.651 49.8926 74.6731 49.8652C74.6953 49.8378 74.7227 49.815 74.7537 49.7982C74.8164 49.7654 74.8894 49.7582 74.9573 49.7782C75.0252 49.7982 75.0827 49.8437 75.1177 49.9053C75.3372 50.3175 80.5352 59.9909 80.0534 62.523C79.6305 64.7286 74.4271 67.4909 72.7783 68.3153C74.5824 69.2307 80.1123 72.1911 80.0856 73.9844C79.6091 77.8709 71.6434 93.3847 71.3061 94.0432C71.2824 94.0877 71.2469 94.1247 71.2034 94.1502C71.1599 94.1757 71.1103 94.1887 71.0599 94.1877V94.1877Z" fill="#A1A1A1"/>
<path d="M79.3147 70.1299C79.1736 70.13 79.0351 70.0929 78.9129 70.0225C78.7907 69.952 78.6893 69.8506 78.6187 69.7284C78.501 69.5357 78.4903 69.4126 78.3564 68.2777C76.4881 52.4051 72.8372 49.0754 70.1017 49.0754C69.8887 49.0754 69.6844 48.9908 69.5339 48.8402C69.3833 48.6896 69.2987 48.4854 69.2987 48.2724C69.2972 48.1661 69.3171 48.0606 69.3573 47.9621C69.3975 47.8637 69.4571 47.7744 69.5325 47.6994C69.6079 47.6245 69.6977 47.5655 69.7964 47.526C69.8951 47.4865 70.0007 47.4672 70.107 47.4694C77.5267 47.4694 79.3575 62.994 79.9571 68.0903C80.0052 68.5079 80.0534 68.9415 80.0802 69.0753C80.1443 69.2515 80.1452 69.4445 80.0827 69.6213C80.0202 69.798 79.8982 69.9476 79.7376 70.0443C79.6072 70.1114 79.4609 70.141 79.3147 70.1299V70.1299Z" fill="#313B44"/>
<path d="M45.8458 84.9902C45.7404 84.9874 45.6365 84.9639 45.5401 84.9209C45.4438 84.878 45.3568 84.8165 45.2842 84.7399C45.2116 84.6634 45.1549 84.5732 45.1171 84.4747C45.0794 84.3762 45.0614 84.2712 45.0643 84.1658C45.3426 73.4056 46.2955 62.2654 51.3597 53.7323C54.2452 48.8608 56.44 46.4786 58.0674 46.4464C58.3045 46.4394 58.5398 46.4898 58.7532 46.5932C58.9667 46.6967 59.152 46.8502 59.2933 47.0407C59.3979 47.2056 59.4387 47.403 59.4083 47.5958C59.3778 47.7887 59.2781 47.9638 59.1278 48.0885C58.9776 48.2132 58.787 48.2789 58.5918 48.2732C58.3966 48.2675 58.2102 48.191 58.0674 48.0578C57.7998 48.0953 56.2794 48.5931 52.7409 54.5513C47.8694 62.7686 46.9433 73.6626 46.6702 84.2086C46.6675 84.314 46.6439 84.4179 46.601 84.5143C46.5581 84.6107 46.4966 84.6976 46.42 84.7702C46.3434 84.8428 46.2533 84.8996 46.1548 84.9373C46.0563 84.9751 45.9513 84.993 45.8458 84.9902V84.9902Z" fill="#313B44"/>
<path d="M56.7506 50.1041C56.7506 50.1041 61.1349 54.2101 64.1863 54.1405C67.2377 54.0709 70.6102 50.5538 70.6102 50.5538L70.4175 47.2187L69.9678 39.4672L69.5663 32.2241L57.1413 32.085L56.6596 37.9736L56.515 39.8901L56.7506 50.1041Z" fill="white"/>
<path d="M64.1112 54.4133C60.9956 54.4133 56.7504 50.4679 56.5684 50.2966C56.542 50.273 56.5208 50.2441 56.506 50.2119C56.4913 50.1796 56.4834 50.1447 56.4828 50.1092L56.2419 39.938L56.3864 37.9947L56.8682 32.1061C56.8759 32.0398 56.9071 31.9784 56.9563 31.9332C57.0054 31.888 57.0692 31.862 57.1359 31.8599L69.5662 31.9991C69.634 31.999 69.6991 32.0252 69.748 32.0721C69.7969 32.119 69.8258 32.183 69.8285 32.2507L70.8992 50.5803C70.9019 50.6168 70.8965 50.6534 70.8836 50.6876C70.8706 50.7219 70.8504 50.7528 70.8243 50.7784C70.6851 50.9283 67.3178 54.3865 64.1969 54.4508L64.1112 54.4133ZM57.0128 49.9808C57.6177 50.5161 61.4292 53.878 64.1112 53.878H64.1808C66.8307 53.8244 69.8285 50.9765 70.3532 50.4519L69.3093 32.4916L57.3821 32.3577L56.7772 39.9433L57.0128 49.9808Z" fill="#313B44"/>
<path d="M56.5096 39.9161C57.4852 41.6176 58.8733 43.0462 60.546 44.0702C63.2227 45.7993 67.1841 47.7479 70.4335 47.218L69.9839 39.4664C67.6073 39.79 65.1978 39.79 62.8212 39.4664C60.7227 39.2362 58.5707 38.9739 56.6542 38.0264L56.5096 39.9161Z" fill="#313B44"/>
<path d="M69.2879 47.5612C65.9743 47.5612 62.3768 45.5644 60.4015 44.2796C58.6924 43.2458 57.2725 41.7965 56.2741 40.0666C56.2485 40.0229 56.2372 39.9724 56.242 39.922L56.3865 38.0002C56.3912 37.9574 56.4057 37.9163 56.4289 37.8801C56.4521 37.8439 56.4834 37.8135 56.5203 37.7914C56.5589 37.7703 56.6022 37.7593 56.6461 37.7593C56.6901 37.7593 56.7334 37.7703 56.7719 37.7914C58.6991 38.7497 60.9047 38.9906 62.8479 39.21C65.2029 39.5349 67.5914 39.5349 69.9464 39.21C69.9834 39.2047 70.0211 39.2072 70.057 39.2174C70.093 39.2275 70.1264 39.2451 70.1552 39.2689C70.1845 39.2919 70.2084 39.3211 70.225 39.3544C70.2417 39.3878 70.2508 39.4244 70.2515 39.4616L70.7012 47.2132C70.7059 47.2795 70.6854 47.345 70.6436 47.3967C70.6019 47.4484 70.5421 47.4823 70.4764 47.4916C70.0828 47.547 69.6853 47.5703 69.2879 47.5612V47.5612ZM56.7826 39.8631C57.735 41.4942 59.0779 42.8629 60.6906 43.846C62.7944 45.2164 66.7773 47.4113 70.1552 46.9884L69.7376 39.7721C67.4248 40.05 65.0857 40.0284 62.7783 39.7079C60.91 39.4991 58.8008 39.2636 56.8897 38.407L56.7826 39.8631Z" fill="#313B44"/>
<path d="M62.8319 41.2115H64.106C66.9993 41.243 69.7868 40.1255 71.8572 38.1043C73.9276 36.0831 75.1118 33.3232 75.1499 30.43L75.2623 20.0821C75.2623 20.0821 69.1595 18.5939 65.2034 17.1003C58.56 14.5843 56.772 10.9976 56.772 10.9976C56.5623 13.3759 56.0385 15.716 55.2142 17.9568C54.5022 19.5628 52.2485 22.5125 52.2485 22.5125C52.2485 22.5125 52.0557 27.8979 52.029 30.1463C52.0106 31.5825 52.2755 33.0082 52.8087 34.3419C53.3419 35.6756 54.1328 36.8911 55.1361 37.9188C56.1395 38.9466 57.3357 39.7664 58.6562 40.3314C59.9767 40.8964 61.3957 41.1955 62.8319 41.2115V41.2115Z" fill="white"/>
<path d="M64.2131 41.4953H64.0846H62.8159C59.8479 41.4558 57.0169 40.2402 54.9444 38.1154C52.8718 35.9907 51.727 33.1303 51.7613 30.1623C51.7613 27.9354 51.9808 22.5767 51.9808 22.5232C51.9812 22.467 52 22.4125 52.0343 22.368C52.0611 22.368 54.2774 19.4558 54.9679 17.8712C55.7819 15.6506 56.2985 13.3322 56.5043 10.9761C56.4908 10.9052 56.5061 10.8317 56.5468 10.772C56.5874 10.7122 56.6501 10.6711 56.7211 10.6576C56.7921 10.6441 56.8656 10.6594 56.9253 10.7001C56.985 10.7407 57.0262 10.8034 57.0397 10.8744C57.0397 10.9119 58.8758 14.4076 65.3266 16.8434C69.2184 18.3155 75.2944 19.8037 75.3533 19.8144C75.4132 19.8282 75.4663 19.8625 75.5035 19.9114C75.5407 19.9603 75.5595 20.0207 75.5567 20.0821L75.4175 30.43C75.3795 33.377 74.1825 36.1904 72.0855 38.2614C69.9885 40.3323 67.1603 41.4941 64.2131 41.4953V41.4953ZM52.5108 22.6249C52.5108 23.3262 52.3181 28.1067 52.2966 30.1731C52.2667 32.999 53.3602 35.7211 55.3368 37.7409C57.3135 39.7607 60.0114 40.9128 62.8373 40.9439V40.9439H64.106C66.927 40.9711 69.6441 39.8804 71.6633 37.9103C73.6826 35.9402 74.8399 33.2508 74.8822 30.43L74.9946 20.2962C73.8918 20.0232 68.6242 18.6902 65.1071 17.3573C60.1071 15.4676 57.8266 12.989 56.9647 11.8059C56.7182 13.9555 56.2131 16.0675 55.4604 18.096C54.7913 19.6057 52.8641 22.1645 52.5108 22.6249Z" fill="#313B44"/>
<path d="M63.7473 33.3911C63.1337 33.3917 62.5205 33.3559 61.9111 33.284C61.8409 33.2747 61.7772 33.2379 61.7341 33.1817C61.6909 33.1255 61.6718 33.0545 61.6809 32.9842C61.6903 32.914 61.7271 32.8503 61.7833 32.8072C61.8395 32.764 61.9105 32.7449 61.9807 32.754C63.0116 32.8757 64.0525 32.8864 65.0856 32.7861C65.1098 32.7837 65.1328 32.775 65.1525 32.7609C65.1722 32.7468 65.1879 32.7279 65.1981 32.7058C65.7334 31.8493 64.4218 27.5078 63.4797 24.9703C63.4568 24.9028 63.4607 24.8291 63.4905 24.7643C63.5204 24.6996 63.574 24.6488 63.6402 24.6224C63.707 24.5983 63.7806 24.6016 63.8448 24.6318C63.909 24.6619 63.9587 24.7163 63.9829 24.783C64.2398 25.4789 66.4882 31.6298 65.6585 32.9842C65.6019 33.0784 65.524 33.1581 65.431 33.2166C65.338 33.2752 65.2325 33.3111 65.1231 33.3215C64.6661 33.3694 64.2068 33.3926 63.7473 33.3911Z" fill="#313B44"/>
<path d="M59.3489 23.4892C59.3601 22.4663 59.0313 21.6333 58.6145 21.6287C58.1976 21.6242 57.8506 22.4497 57.8393 23.4726C57.8281 24.4955 58.1569 25.3284 58.5737 25.333C58.9906 25.3376 59.3376 24.5121 59.3489 23.4892Z" fill="#313B44"/>
<path d="M69.2977 23.2568C69.3089 22.2338 68.9801 21.4009 68.5633 21.3963C68.1464 21.3917 67.7994 22.2172 67.7881 23.2402C67.7769 24.2631 68.1057 25.096 68.5225 25.1006C68.9394 25.1052 69.2864 24.2797 69.2977 23.2568Z" fill="#313B44"/>
<path d="M63.7525 35.9596C63.5223 35.9596 63.2867 35.9596 63.0566 35.9275C59.1005 35.5742 56.6915 32.3568 56.5898 32.2176C56.5643 32.19 56.5449 32.1573 56.5329 32.1216C56.5209 32.086 56.5166 32.0482 56.5201 32.0108C56.5237 31.9733 56.5351 31.937 56.5537 31.9043C56.5722 31.8716 56.5974 31.8431 56.6277 31.8208C56.658 31.7985 56.6926 31.7828 56.7294 31.7747C56.7661 31.7667 56.8041 31.7665 56.841 31.7741C56.8778 31.7818 56.9126 31.7971 56.9431 31.8191C56.9736 31.8411 56.9992 31.8693 57.018 31.9018C57.0448 31.9339 59.3949 35.0656 63.1101 35.3921C65.6636 35.617 68.2814 34.4874 70.8777 32.0249C70.9023 31.9975 70.9323 31.9755 70.9659 31.9603C70.9994 31.945 71.0357 31.9369 71.0725 31.9363C71.1093 31.9357 71.1459 31.9427 71.1798 31.9569C71.2138 31.9711 71.2445 31.9921 71.27 32.0187C71.2955 32.0453 71.3152 32.0769 71.3279 32.1114C71.3406 32.146 71.3461 32.1828 71.3439 32.2195C71.3418 32.2563 71.3321 32.2922 71.3154 32.325C71.2988 32.3579 71.2755 32.3869 71.2471 32.4104C68.7632 34.7658 66.2471 35.9596 63.7525 35.9596Z" fill="#313B44"/>
<path d="M55.0054 7.75892C56.6114 12.0041 58.8009 16.2653 62.4518 19.0008C64.3182 20.2895 66.3516 21.3179 68.4957 22.0576C71.7077 23.2942 74.8072 23.4494 77.516 25.6817C80.0777 27.7867 81.9114 30.6449 82.7569 33.8509C83.7025 31.3282 84.0763 28.6271 83.8514 25.9424C83.6264 23.2577 82.8083 20.6564 81.456 18.3263C78.9025 13.9955 74.6734 10.9548 70.4978 8.15506C68.2173 6.62402 65.728 5.07157 63.0032 5.11975" fill="white"/>
<path d="M82.7622 34.1181C82.7057 34.1141 82.6519 34.0922 82.6087 34.0557C82.5654 34.0191 82.5348 33.9697 82.5213 33.9147C81.69 30.7639 79.8883 27.9546 77.3715 25.8848C75.5835 24.4126 73.6242 23.8612 71.5257 23.2831C70.5139 22.9993 69.47 22.7103 68.4208 22.3034C66.246 21.547 64.184 20.4989 62.2912 19.1878C58.3512 16.2595 56.1938 11.5915 54.7538 7.84952C54.7282 7.78279 54.7302 7.70864 54.7593 7.64338C54.7885 7.57813 54.8423 7.52711 54.909 7.50155C54.9758 7.47599 55.0499 7.47799 55.1152 7.50711C55.1804 7.53622 55.2314 7.59007 55.257 7.6568C56.6703 11.3292 58.7795 15.9116 62.6124 18.7595C64.4585 20.0442 66.4723 21.0691 68.5974 21.8056C69.6252 22.2017 70.6531 22.4854 71.6541 22.7638C73.7955 23.3634 75.8244 23.9255 77.6927 25.4726C80.0737 27.4315 81.8425 30.0327 82.789 32.9672C83.5579 30.5691 83.8165 28.0366 83.5483 25.5326C83.28 23.0286 82.4907 20.6084 81.2312 18.4276C78.7205 14.145 74.4807 11.115 70.3533 8.34202C67.9657 6.73603 65.6156 5.3067 62.9925 5.35488C62.9572 5.35632 62.9219 5.35061 62.8888 5.33807C62.8558 5.32554 62.8256 5.30644 62.8001 5.28194C62.7746 5.25744 62.7543 5.22803 62.7404 5.19549C62.7266 5.16294 62.7195 5.12793 62.7195 5.09257C62.7188 5.05742 62.725 5.02247 62.7378 4.98972C62.7506 4.95698 62.7697 4.92707 62.7941 4.90172C62.8184 4.87636 62.8476 4.85606 62.8798 4.84196C62.912 4.82786 62.9466 4.82025 62.9818 4.81955C65.7441 4.78208 68.1906 6.24888 70.6531 7.89769C74.8286 10.7028 79.122 13.7863 81.6969 18.1546C83.0638 20.5273 83.8905 23.1722 84.1181 25.901C84.3458 28.6297 83.9687 31.3751 83.0138 33.9415C82.9945 33.9928 82.9601 34.0371 82.9153 34.0686C82.8704 34.1001 82.8171 34.1174 82.7622 34.1181V34.1181Z" fill="#313B44"/>
<path d="M31.6917 105.039C31.6917 105.039 37.8801 111.265 38.5172 113.171C39.1542 115.076 38.833 126.875 37.8855 127.507C36.9379 128.139 30.3266 132.255 28.908 130.826C27.4894 129.397 24.9733 125.617 26.2313 125.772C27.4894 125.928 29.3791 127.507 29.3791 127.507C29.3791 127.507 31.7024 126.308 32.5108 125.018C32.5108 125.018 28.5921 121.361 30.7977 117.111L27.2271 112.908" fill="white"/>
<path d="M29.8234 131.383C29.6233 131.399 29.422 131.375 29.2315 131.311C29.0411 131.248 28.8655 131.146 28.7152 131.013C27.7784 130.071 25.2142 126.731 25.6746 125.778C25.7298 125.676 25.8165 125.595 25.9217 125.547C26.0269 125.498 26.1449 125.486 26.2581 125.51C27.3876 125.649 28.9347 126.811 29.4058 127.186C30.4449 126.644 31.3771 125.918 32.1574 125.044C31.4347 124.279 28.6296 120.949 30.4765 117.148L27.0182 113.08C26.9933 113.055 26.9735 113.026 26.96 112.994C26.9465 112.962 26.9395 112.927 26.9395 112.892C26.9395 112.857 26.9465 112.823 26.96 112.791C26.9735 112.759 26.9933 112.729 27.0182 112.705C27.0726 112.659 27.1427 112.636 27.2137 112.641C27.2847 112.646 27.351 112.679 27.3983 112.732L30.969 116.934C31.0047 116.974 31.0274 117.025 31.034 117.078C31.0407 117.132 31.0311 117.186 31.0064 117.234C28.9187 121.259 32.6124 124.787 32.6606 124.819C32.7066 124.861 32.7362 124.918 32.7441 124.98C32.7519 125.042 32.7375 125.105 32.7034 125.157C31.8683 126.495 29.5718 127.694 29.4915 127.742C29.4449 127.767 29.3918 127.778 29.3393 127.772C29.2867 127.766 29.2372 127.745 29.197 127.71C29.197 127.71 27.3555 126.185 26.1885 126.04C26.1672 126.036 26.1455 126.036 26.1242 126.04C25.9743 126.436 27.6392 129.177 29.09 130.638C30.1017 131.661 35.2141 128.958 37.7302 127.282C38.4796 126.623 38.9079 115.216 38.2655 113.256C37.6606 111.447 31.5685 105.291 31.5097 105.226C31.4593 105.176 31.4309 105.108 31.4309 105.036C31.4309 104.965 31.4593 104.897 31.5097 104.846C31.5601 104.796 31.6284 104.768 31.6997 104.768C31.771 104.768 31.8393 104.796 31.8897 104.846C32.1413 105.103 38.1317 111.152 38.7741 113.08C39.3094 114.75 39.2291 126.929 38.0353 127.726C37.9818 127.774 32.5107 131.383 29.8234 131.383Z" fill="#313B44"/>
<path d="M33.1639 57.5928C33.1639 57.5928 0.192914 83.2886 0.289273 89.0541C0.353513 93.1975 26.6489 116.163 26.6489 116.163L35.0696 106.64L22.0558 90.7779L40.4925 78.2404" fill="white"/>
<path d="M26.6275 116.43C26.5628 116.431 26.5001 116.408 26.4509 116.366C25.3802 115.424 0.0698387 93.2721 0.000245902 89.0644C-0.0425805 86.5858 5.50879 80.4991 16.4937 70.9595C24.6361 63.8932 32.8962 57.4478 32.9765 57.3836C33.0335 57.3401 33.1053 57.3208 33.1765 57.3298C33.2476 57.3388 33.3123 57.3754 33.3566 57.4318C33.3998 57.4879 33.419 57.5588 33.4099 57.6291C33.4009 57.6993 33.3644 57.7631 33.3084 57.8065C33.2281 57.8707 24.9734 64.3054 16.8417 71.3664C3.31394 83.1062 0.508809 87.4637 0.535575 89.0323C0.589108 92.3031 19.1757 109.268 26.6008 115.772L34.6949 106.618L21.847 90.9327C21.8232 90.9039 21.8056 90.8705 21.7955 90.8345C21.7854 90.7986 21.7829 90.7609 21.7882 90.7239C21.7937 90.6869 21.807 90.6515 21.8274 90.6201C21.8477 90.5888 21.8745 90.5621 21.9059 90.5419L40.3427 77.9991C40.4025 77.9601 40.4753 77.9461 40.5453 77.9601C40.6154 77.9741 40.6772 78.015 40.7174 78.0741C40.7553 78.1328 40.7692 78.2039 40.7563 78.2726C40.7433 78.3414 40.7045 78.4025 40.6478 78.4434L22.4466 90.8202L35.2945 106.457C35.336 106.506 35.3588 106.567 35.3588 106.631C35.3588 106.695 35.336 106.757 35.2945 106.805L26.8738 116.323C26.8466 116.362 26.8092 116.393 26.7658 116.412C26.7223 116.43 26.6745 116.437 26.6275 116.43V116.43Z" fill="#313B44"/>
<path d="M85.1497 103.261C84.7446 103.259 84.3402 103.227 83.9398 103.165C83.0908 103.036 82.2891 102.691 81.6112 102.164C81.1765 102.419 80.7025 102.6 80.2086 102.699C75.23 103.77 73.1637 101.254 73.078 101.147C73.0556 101.12 73.039 101.088 73.029 101.055C73.019 101.021 73.0159 100.985 73.0199 100.95C73.0239 100.915 73.0349 100.882 73.0523 100.851C73.0696 100.82 73.0929 100.794 73.1208 100.772C73.1763 100.728 73.2468 100.708 73.317 100.716C73.3872 100.724 73.4514 100.76 73.4956 100.815C73.5705 100.911 75.4656 103.181 80.0962 102.175C80.4694 102.092 80.8296 101.959 81.1668 101.779C78.5491 99.3696 77.623 94.3803 76.9538 90.8043C76.0437 85.9007 75.4281 75.7455 76.0651 72.7637C76.4773 70.8365 77.184 69.5839 78.169 69.0485C78.5677 68.8494 79.006 68.7422 79.4516 68.7348C79.8972 68.7274 80.3388 68.8199 80.7439 69.0057C82.8852 69.7926 84.1647 74.616 85.0854 85.1191C85.6475 91.5109 85.4816 99.1394 82.0608 101.821C82.6395 102.231 83.3075 102.497 84.0094 102.598C85.1686 102.817 86.3661 102.704 87.4638 102.272C88.5616 101.84 89.515 101.107 90.2139 100.157C90.2515 100.096 90.3116 100.053 90.3809 100.037C90.4501 100.021 90.5229 100.033 90.5833 100.071C90.6436 100.108 90.6866 100.169 90.7026 100.238C90.7187 100.307 90.7066 100.38 90.6689 100.44C90.0412 101.317 89.2125 102.031 88.2523 102.522C87.292 103.013 86.2281 103.266 85.1497 103.261V103.261ZM79.4217 69.3108C79.0782 69.306 78.7391 69.3889 78.4367 69.5517C77.5962 70.0121 76.9752 71.1577 76.6005 72.9136C76.017 75.6331 76.5095 85.4671 77.4945 90.7454C78.3135 95.1458 79.3199 99.4981 81.6379 101.522C84.9784 99.0859 85.1176 91.527 84.5608 85.2048C84.0041 78.8825 82.9923 70.4511 80.5673 69.541C80.2024 69.3958 79.8143 69.3178 79.4217 69.3108V69.3108Z" fill="#313B44"/>
<path d="M76.3864 84.7389C76.1803 84.7391 75.9822 84.6595 75.8335 84.5168C75.6848 84.3741 75.5971 84.1793 75.5888 83.9734C75.5138 82.5013 75.4335 81.1094 75.3586 79.739C75.2569 78.0473 75.1605 76.3771 75.0856 74.5891C74.9839 72.2497 75.7333 70.3065 77.1519 69.284C77.6869 68.8975 78.3102 68.6514 78.9649 68.5681C79.6196 68.4849 80.2846 68.5672 80.8993 68.8075C84.8714 70.2797 85.1819 76.2218 85.4068 80.9916C85.4549 81.9499 85.4978 82.8546 85.5727 83.6683C85.5912 83.8812 85.5243 84.0928 85.3867 84.2565C85.2492 84.4201 85.0523 84.5224 84.8393 84.5409C84.6263 84.5593 84.4148 84.4924 84.2511 84.3549C84.0875 84.2173 83.9852 84.0204 83.9667 83.8075C83.8918 82.967 83.8436 82.0516 83.7954 81.0773C83.5813 76.7946 83.3136 71.4413 80.3372 70.3172C79.967 70.1664 79.5647 70.112 79.1678 70.1588C78.7709 70.2056 78.3923 70.3521 78.0674 70.5848C77.0984 71.2968 76.5845 72.7261 76.6648 74.5248C76.7451 76.3236 76.8361 77.967 76.9325 79.6533C77.0128 81.0291 77.0931 82.421 77.1627 83.9038C77.1729 84.116 77.0986 84.3235 76.9561 84.481C76.8137 84.6385 76.6146 84.7332 76.4025 84.7443L76.3864 84.7389Z" fill="#313B44"/>
<path d="M74.9773 102.081C75.2001 101.634 74.8422 101.003 74.178 100.672C73.5137 100.342 72.7946 100.436 72.5719 100.883C72.3491 101.33 72.7069 101.961 73.3712 102.292C74.0354 102.623 74.7545 102.529 74.9773 102.081Z" fill="#313B44"/>
<path d="M91.4011 100.535C91.8448 99.9402 91.8798 99.2159 91.4793 98.9171C91.0788 98.6184 90.3944 98.8584 89.9507 99.4532C89.507 100.048 89.472 100.772 89.8725 101.071C90.273 101.37 90.9574 101.13 91.4011 100.535Z" fill="#313B44"/>
<path d="M46.424 89.5842C48.3931 89.5842 49.9893 87.988 49.9893 86.0189C49.9893 84.0499 48.3931 82.4536 46.424 82.4536C44.4549 82.4536 42.8587 84.0499 42.8587 86.0189C42.8587 87.988 44.4549 89.5842 46.424 89.5842Z" fill="white"/>
<path d="M46.424 89.852C45.6659 89.852 44.9249 89.6272 44.2945 89.206C43.6642 88.7848 43.1729 88.1862 42.8828 87.4858C42.5927 86.7854 42.5168 86.0147 42.6647 85.2712C42.8126 84.5277 43.1777 83.8447 43.7137 83.3087C44.2498 82.7726 44.9327 82.4076 45.6763 82.2597C46.4198 82.1118 47.1905 82.1877 47.8908 82.4778C48.5912 82.7679 49.1898 83.2592 49.611 83.8895C50.0322 84.5198 50.257 85.2609 50.257 86.019C50.2556 87.0351 49.8513 88.0092 49.1328 88.7277C48.4143 89.4463 47.4402 89.8505 46.424 89.852V89.852ZM46.424 82.7214C45.7718 82.7214 45.1343 82.9148 44.592 83.2771C44.0497 83.6395 43.627 84.1545 43.3774 84.757C43.1278 85.3596 43.0625 86.0227 43.1898 86.6623C43.317 87.302 43.6311 87.8896 44.0922 88.3508C44.5534 88.8119 45.141 89.126 45.7807 89.2533C46.4204 89.3805 47.0834 89.3152 47.686 89.0656C48.2885 88.816 48.8036 88.3934 49.1659 87.8511C49.5283 87.3088 49.7217 86.6712 49.7217 86.019C49.7217 85.1444 49.3742 84.3056 48.7558 83.6872C48.1374 83.0688 47.2986 82.7214 46.424 82.7214Z" fill="#313B44"/>
<path d="M54.1006 103.208C54.6003 103.208 55.0053 102.803 55.0053 102.304C55.0053 101.804 54.6003 101.399 54.1006 101.399C53.601 101.399 53.1959 101.804 53.1959 102.304C53.1959 102.803 53.601 103.208 54.1006 103.208Z" fill="white"/>
<path d="M51.8041 115.349C52.3037 115.349 52.7088 114.944 52.7088 114.444C52.7088 113.945 52.3037 113.54 51.8041 113.54C51.3044 113.54 50.8994 113.945 50.8994 114.444C50.8994 114.944 51.3044 115.349 51.8041 115.349Z" fill="white"/>
<path d="M40.4711 116.431C40.4181 116.431 40.3662 116.416 40.3223 116.386C40.2783 116.356 40.2443 116.314 40.2249 116.265C40.1996 116.199 40.2006 116.127 40.2275 116.062C40.2544 115.997 40.3052 115.945 40.3694 115.917C42.6927 114.953 50.3158 111.8 50.8993 111.8C50.9703 111.8 51.0384 111.828 51.0886 111.879C51.1388 111.929 51.167 111.997 51.167 112.068C51.167 112.139 51.1388 112.207 51.0886 112.257C51.0384 112.307 50.9703 112.336 50.8993 112.336C50.364 112.395 44.2934 114.868 40.5728 116.409C40.5407 116.423 40.5061 116.431 40.4711 116.431V116.431Z" fill="#A1A1A1"/>
<path d="M87.3285 118.353C87.3002 118.358 87.2712 118.358 87.2428 118.353L74.2183 113.808C74.1849 113.796 74.1541 113.778 74.1277 113.754C74.1013 113.731 74.0797 113.703 74.0643 113.671C74.0489 113.639 74.0399 113.604 74.0379 113.569C74.0358 113.534 74.0407 113.498 74.0523 113.465C74.0639 113.432 74.082 113.401 74.1055 113.374C74.129 113.348 74.1574 113.327 74.1893 113.311C74.2211 113.296 74.2556 113.287 74.2909 113.285C74.3262 113.283 74.3615 113.287 74.3949 113.299L87.4195 117.849C87.4528 117.86 87.4835 117.878 87.5098 117.901C87.5361 117.924 87.5574 117.952 87.5725 117.983C87.5875 118.015 87.5959 118.049 87.5972 118.084C87.5986 118.119 87.5927 118.154 87.5801 118.187C87.5603 118.237 87.5255 118.28 87.4805 118.309C87.4355 118.339 87.3824 118.354 87.3285 118.353Z" fill="#A1A1A1"/>
<path d="M53.4046 100.857C53.789 100.857 54.1005 100.546 54.1005 100.161C54.1005 99.7769 53.789 99.4653 53.4046 99.4653C53.0203 99.4653 52.7087 99.7769 52.7087 100.161C52.7087 100.546 53.0203 100.857 53.4046 100.857Z" fill="#A1A1A1"/>
<path d="M87.4143 82.1058H87.3714C87.3018 82.094 87.2394 82.0555 87.1974 81.9986C87.1555 81.9417 87.1373 81.8708 87.1466 81.8007C87.1466 81.6936 88.8008 71.0513 90.4228 65.6498C90.4327 65.6146 90.4493 65.5818 90.4719 65.5531C90.4944 65.5244 90.5224 65.5004 90.5542 65.4825C90.586 65.4646 90.621 65.4531 90.6573 65.4488C90.6935 65.4444 90.7303 65.4472 90.7654 65.4571C90.8006 65.4669 90.8334 65.4836 90.8622 65.5061C90.8909 65.5287 90.9148 65.5567 90.9327 65.5885C90.9506 65.6203 90.9621 65.6553 90.9664 65.6915C90.9708 65.7278 90.968 65.7645 90.9581 65.7997C89.3522 71.153 87.7141 81.7739 87.698 81.8596C87.6925 81.9296 87.6597 81.9947 87.6066 82.0408C87.5535 82.0869 87.4844 82.1102 87.4143 82.1058Z" fill="#313B44"/>
<path d="M104.042 88.9202C103.996 88.9203 103.951 88.9073 103.913 88.8827C103.882 88.8664 103.855 88.8441 103.833 88.8172C103.811 88.7903 103.794 88.7592 103.784 88.7258C103.774 88.6924 103.771 88.6574 103.775 88.6227C103.779 88.5881 103.789 88.5545 103.806 88.524L109.497 78.1279C109.513 78.0964 109.535 78.0685 109.563 78.0459C109.59 78.0233 109.622 78.0065 109.656 77.9965C109.69 77.9865 109.725 77.9835 109.761 77.9877C109.796 77.9919 109.83 78.0031 109.861 78.0208C109.891 78.037 109.919 78.0593 109.941 78.0864C109.963 78.1135 109.979 78.1448 109.989 78.1783C109.998 78.2119 110.001 78.247 109.996 78.2816C109.992 78.3162 109.98 78.3495 109.962 78.3795L104.277 88.781C104.254 88.8228 104.219 88.8578 104.178 88.8822C104.137 88.9066 104.09 88.9197 104.042 88.9202Z" fill="#313B44"/>
</svg>
