<svg width="269" height="244" viewBox="0 0 269 244" fill="none" xmlns="http://www.w3.org/2000/svg">
<path d="M256.924 122.326C256.924 122.326 273.799 124.194 265.575 155.829L225.469 151.059C225.469 151.059 243.93 118.591 256.924 122.326Z" fill="white"/>
<path d="M265.541 156.391L225.424 151.621C225.331 151.611 225.243 151.578 225.166 151.525C225.09 151.472 225.027 151.401 224.985 151.318C224.944 151.234 224.922 151.141 224.922 151.048C224.922 150.954 224.944 150.862 224.985 150.778C225.75 149.439 243.773 118.04 257.048 121.775C258.663 122.092 260.199 122.732 261.561 123.656C262.924 124.58 264.087 125.769 264.979 127.153C269.141 133.183 269.535 142.903 266.104 155.975C266.071 156.098 265.997 156.206 265.895 156.281C265.793 156.357 265.668 156.396 265.541 156.391ZM226.391 150.654L265.159 155.266C269.108 139.696 266.745 131.765 264.034 127.85C263.228 126.591 262.175 125.507 260.94 124.664C259.705 123.821 258.312 123.237 256.845 122.945H256.755C245.404 119.604 229.226 145.828 226.391 150.654Z" fill="#313B44"/>
<path d="M222.139 184.089C222.139 184.089 229.901 185.214 237.405 160.621C244.909 136.029 240.173 122.923 256.924 122.371L203.925 115.419C203.925 115.419 192.045 179.645 222.139 184.089Z" fill="white"/>
<path d="M222.296 184.662H222.049C219.379 184.278 216.818 183.341 214.531 181.911C212.243 180.482 210.279 178.591 208.763 176.36C203.25 168.654 200.674 156.02 201.101 138.819C201.302 130.931 202.054 123.067 203.351 115.284C203.376 115.141 203.456 115.014 203.574 114.929C203.692 114.845 203.838 114.811 203.981 114.834L256.969 121.786C257.11 121.803 257.24 121.873 257.331 121.981C257.423 122.09 257.471 122.229 257.464 122.371C257.453 122.511 257.391 122.643 257.289 122.74C257.187 122.838 257.053 122.895 256.913 122.9C245.663 123.305 244.538 129.459 242.288 141.732C241.228 148.163 239.778 154.524 237.945 160.779C231.015 183.481 223.736 184.662 222.296 184.662ZM222.206 183.537C222.375 183.537 229.699 183.954 236.831 160.452C238.658 154.234 240.108 147.911 241.174 141.519C243.12 130.775 244.313 124.194 252.424 122.315L204.353 116.004C203.531 120.92 197.603 158.855 209.651 175.696C211.082 177.806 212.938 179.594 215.1 180.944C217.262 182.295 219.683 183.178 222.206 183.537Z" fill="#313B44"/>
<path d="M226.605 17.0376C226.605 17.0376 240.049 19.2876 236.944 39.1438C233.13 63.4551 214.163 147.144 213.701 165.864C213.24 184.584 222.139 184.089 222.139 184.089L99.0414 171.331C99.0414 171.331 93.259 166.618 105.904 118.456C118.549 70.2951 130.058 29.1538 136.785 25.9251C143.513 22.6963 226.605 17.0376 226.605 17.0376Z" fill="white"/>
<path d="M222.083 184.663C221.784 184.653 221.487 184.62 221.194 184.561L99.0415 171.894C98.9336 171.884 98.8315 171.84 98.749 171.77C98.119 171.264 93.034 165.459 105.409 118.31C119.865 63.2414 130.159 28.4901 136.594 25.4076C143.344 22.2126 223.219 16.7001 226.594 16.4751H226.729C226.864 16.4751 240.679 19.0851 237.518 39.2226C236.112 48.2226 232.748 64.7488 228.844 83.9413C222.15 116.825 214.579 154.096 214.287 165.875C214.05 175.471 216.334 179.78 218.292 181.704C219.123 182.567 220.185 183.172 221.352 183.448L222.218 183.538C222.367 183.538 222.51 183.597 222.616 183.702C222.721 183.808 222.78 183.951 222.78 184.1C222.78 184.249 222.721 184.392 222.616 184.498C222.51 184.603 222.367 184.663 222.218 184.663H222.083ZM99.334 170.791L218.157 183.11C217.932 182.936 217.718 182.748 217.515 182.548C214.41 179.533 212.948 173.908 213.139 165.841C213.432 153.973 221.014 116.645 227.764 83.7163C231.668 64.5913 235.032 47.9751 236.427 39.0539C239.34 20.5251 227.708 17.8138 226.617 17.6001C223.782 17.7913 143.535 23.3601 137.067 26.4314C130.317 29.6264 117.75 75.6839 106.489 118.591C101.404 137.953 98.614 152.611 98.3553 162.174C98.1078 168.361 99.0415 170.33 99.334 170.791Z" fill="#313B44"/>
<path d="M127.166 14.5287C127.166 14.5287 113.228 13.8762 110.044 31.3362C108.255 41.1349 89.1189 120.076 89.1189 120.076L180.975 140.034C202.744 141.035 208.099 39.7062 208.099 39.7062C208.099 39.7062 208.043 17.0599 226.56 17.0599C226.605 17.0374 138.855 12.1099 127.166 14.5287Z" fill="white"/>
<path d="M181.335 140.585H180.998L89.0514 120.605C88.9767 120.593 88.9056 120.565 88.8433 120.522C88.781 120.479 88.7291 120.423 88.6914 120.357C88.6525 120.294 88.6265 120.224 88.6149 120.15C88.6033 120.077 88.6064 120.002 88.6239 119.93C88.8152 119.142 107.749 40.8987 109.538 31.2237C112.654 14.1462 126.041 13.9212 127.166 13.9437C138.99 11.5925 223.073 16.2725 226.65 16.475C226.723 16.4779 226.794 16.495 226.859 16.5254C226.925 16.5559 226.984 16.5989 227.034 16.6522C227.083 16.7055 227.121 16.768 227.146 16.836C227.171 16.904 227.182 16.9763 227.179 17.0487C227.173 17.195 227.112 17.3336 227.007 17.4361C226.903 17.5386 226.763 17.5972 226.616 17.6C224.498 17.5302 222.388 17.8933 220.415 18.6671C218.442 19.4408 216.648 20.6089 215.141 22.1C208.774 28.4675 208.718 39.6162 208.718 39.7287C208.493 43.8462 203.126 140.585 181.335 140.585ZM89.8502 119.626L181.166 139.471C189.649 139.899 196.916 122.799 202.215 90.14C206.22 65.2437 207.593 39.8975 207.604 39.65C207.604 39.2 207.604 27.9612 214.354 21.245C216.184 19.4096 218.436 18.0501 220.913 17.285C201.27 16.25 137.078 13.055 127.358 15.035H127.166C126.615 15.035 113.666 14.63 110.629 31.3812C108.953 40.685 91.5714 112.516 89.8502 119.626Z" fill="#313B44"/>
<path d="M181.02 140.011C181.02 140.011 161.367 137.424 165.822 115.374L78.0715 108.376L85.609 132.474L181.02 140.011Z" fill="white"/>
<path d="M181.02 140.529L85.5415 133.036C85.4315 133.024 85.3273 132.981 85.2414 132.911C85.1556 132.841 85.0918 132.748 85.0577 132.642L77.509 108.534C77.4833 108.446 77.479 108.353 77.4966 108.263C77.5143 108.173 77.5532 108.088 77.6102 108.016C77.6677 107.945 77.742 107.889 77.8265 107.854C77.9109 107.818 78.0029 107.805 78.094 107.814L165.844 114.811C166.002 114.833 166.147 114.913 166.249 115.036C166.295 115.1 166.328 115.173 166.346 115.251C166.363 115.328 166.365 115.408 166.35 115.486C164.966 122.315 165.799 127.861 168.814 132.136C173.246 138.346 180.998 139.449 181.076 139.46C181.226 139.47 181.365 139.54 181.463 139.653C181.561 139.765 181.61 139.913 181.6 140.062C181.589 140.211 181.52 140.35 181.407 140.448C181.294 140.546 181.147 140.595 180.998 140.585L181.02 140.529ZM86.0365 131.9L175.834 138.999C172.695 137.664 169.974 135.507 167.959 132.755C164.843 128.39 163.909 122.709 165.18 115.88L78.859 109.029L86.0365 131.9Z" fill="#313B44"/>
<path d="M196.005 164.154L106.804 156.47C106.73 156.464 106.658 156.444 106.592 156.411C106.526 156.377 106.467 156.331 106.419 156.274C106.371 156.218 106.334 156.152 106.312 156.082C106.289 156.011 106.28 155.937 106.286 155.863C106.291 155.789 106.31 155.716 106.343 155.65C106.376 155.583 106.423 155.525 106.48 155.477C106.537 155.43 106.603 155.394 106.674 155.374C106.746 155.353 106.82 155.347 106.894 155.356L196.106 163.04C196.256 163.048 196.396 163.114 196.496 163.225C196.596 163.336 196.648 163.482 196.641 163.631C196.633 163.78 196.567 163.92 196.456 164.02C196.345 164.12 196.199 164.173 196.05 164.165L196.005 164.154Z" fill="#A1A1A1"/>
<path d="M190.167 151.993L100.954 144.309C100.88 144.302 100.808 144.281 100.743 144.247C100.677 144.212 100.619 144.165 100.571 144.108C100.475 143.993 100.429 143.845 100.442 143.696C100.456 143.547 100.528 143.409 100.643 143.313C100.758 143.217 100.906 143.17 101.055 143.184L190.167 150.868C190.315 150.882 190.452 150.953 190.548 151.067C190.645 151.18 190.693 151.327 190.684 151.475C190.674 151.609 190.616 151.735 190.521 151.83C190.426 151.924 190.3 151.982 190.167 151.993Z" fill="#A1A1A1"/>
<path d="M128.123 99.725L116.153 98.6C116.004 98.5838 115.867 98.5114 115.77 98.3975C115.725 98.3389 115.692 98.272 115.673 98.2006C115.653 98.1291 115.648 98.0546 115.658 97.9812L117.975 79.3062C117.992 79.1609 118.065 79.0279 118.179 78.9355C118.292 78.8431 118.437 78.7985 118.583 78.8112L130.553 79.9362C130.627 79.943 130.699 79.9644 130.764 79.9992C130.83 80.034 130.888 80.0814 130.935 80.1387C131.026 80.2619 131.07 80.4135 131.059 80.5662L128.73 99.23C128.713 99.3753 128.64 99.5083 128.527 99.6007C128.413 99.6931 128.269 99.7377 128.123 99.725ZM116.783 97.475L127.628 98.5212L129.81 80.9712L118.965 79.925L116.783 97.475Z" fill="#A1A1A1"/>
<path d="M129.72 86.8212H129.664L117.705 85.6962C117.63 85.6886 117.558 85.6658 117.492 85.629C117.426 85.5922 117.368 85.5424 117.323 85.4825C117.273 85.4262 117.236 85.3598 117.215 85.288C117.194 85.2161 117.188 85.1404 117.199 85.0662L117.919 79.295C117.936 79.1497 118.009 79.0167 118.122 78.9243C118.236 78.8319 118.381 78.7873 118.526 78.8L130.496 79.925C130.57 79.9318 130.642 79.9532 130.708 79.988C130.774 80.0227 130.832 80.0701 130.879 80.1275C130.97 80.2506 131.014 80.4023 131.003 80.555L130.283 86.315C130.269 86.4542 130.203 86.5832 130.099 86.6768C129.995 86.7705 129.86 86.8219 129.72 86.8212ZM118.391 84.5712L129.236 85.6287L129.81 80.9712L118.965 79.925L118.391 84.5712Z" fill="#A1A1A1"/>
<path d="M145.988 101.457L134.029 100.332C133.878 100.315 133.741 100.238 133.646 100.119C133.597 100.062 133.56 99.9959 133.539 99.9241C133.517 99.8522 133.512 99.7766 133.523 99.7023L137.696 66.1436C137.703 66.0714 137.725 66.0015 137.759 65.9378C137.794 65.8741 137.841 65.818 137.898 65.7728C137.954 65.7277 138.019 65.6944 138.089 65.675C138.159 65.6556 138.232 65.6504 138.304 65.6598L150.274 66.7848C150.423 66.8009 150.56 66.8734 150.656 66.9873C150.703 67.0476 150.736 67.1164 150.756 67.1898C150.775 67.2632 150.779 67.3397 150.769 67.4148L146.606 100.962C146.587 101.109 146.511 101.242 146.396 101.334C146.281 101.426 146.135 101.47 145.988 101.457ZM134.659 99.2073L145.504 100.265L149.531 67.8198L138.686 66.7736L134.659 99.2073Z" fill="#A1A1A1"/>
<path d="M149.284 74.9523L137.325 73.8273C137.171 73.81 137.03 73.7333 136.931 73.6136C136.886 73.5553 136.852 73.4884 136.833 73.4169C136.813 73.3454 136.809 73.2707 136.819 73.1973L137.696 66.1436C137.703 66.0714 137.725 66.0015 137.759 65.9378C137.794 65.8741 137.841 65.818 137.898 65.7728C137.954 65.7277 138.019 65.6944 138.089 65.675C138.159 65.6556 138.232 65.6504 138.304 65.6598L150.274 66.7848C150.423 66.8009 150.56 66.8734 150.656 66.9873C150.703 67.0476 150.736 67.1164 150.756 67.1898C150.775 67.2632 150.779 67.3397 150.769 67.4148L149.891 74.4573C149.874 74.6026 149.801 74.7356 149.688 74.828C149.575 74.9204 149.43 74.965 149.284 74.9523ZM137.944 72.7023L148.789 73.7598L149.531 67.8198L138.686 66.7736L137.944 72.7023Z" fill="#A1A1A1"/>
<path d="M163.864 103.19H163.808L151.838 102.065C151.764 102.057 151.692 102.034 151.627 101.997C151.562 101.961 151.505 101.912 151.458 101.853C151.412 101.795 151.378 101.728 151.359 101.656C151.339 101.584 151.333 101.509 151.343 101.435L159.533 35.4874C159.54 35.4149 159.561 35.3444 159.596 35.2802C159.63 35.216 159.677 35.1592 159.733 35.1132C159.79 35.0671 159.855 35.0328 159.925 35.012C159.995 34.9913 160.068 34.9846 160.14 34.9924L172.11 36.1174C172.26 36.1375 172.397 36.2139 172.493 36.3311C172.539 36.3894 172.572 36.4563 172.591 36.5278C172.611 36.5993 172.615 36.674 172.605 36.7474L164.415 102.706C164.399 102.84 164.333 102.964 164.232 103.053C164.13 103.142 163.999 103.191 163.864 103.19ZM152.524 100.94L163.369 101.997L171.424 37.1637L160.579 36.1062L152.524 100.94Z" fill="#A1A1A1"/>
<path d="M171.042 45.3087L159.072 44.1837C158.997 44.1753 158.926 44.1523 158.861 44.116C158.796 44.0797 158.738 44.0308 158.692 43.9722C158.646 43.9136 158.612 43.8464 158.592 43.7745C158.572 43.7027 158.567 43.6276 158.577 43.5537L159.578 35.4874C159.585 35.4149 159.606 35.3444 159.641 35.2802C159.675 35.216 159.722 35.1592 159.778 35.1132C159.835 35.0671 159.9 35.0328 159.97 35.012C160.04 34.9913 160.113 34.9846 160.185 34.9924L172.155 36.1174C172.305 36.1375 172.442 36.2139 172.538 36.3311C172.584 36.3894 172.617 36.4563 172.636 36.5278C172.656 36.5993 172.66 36.674 172.65 36.7474L171.649 44.8136C171.642 44.8862 171.621 44.9566 171.586 45.0208C171.552 45.0851 171.505 45.1419 171.449 45.1879C171.392 45.2339 171.327 45.2683 171.257 45.289C171.187 45.3098 171.114 45.3164 171.042 45.3087ZM159.702 43.0587L170.547 44.1162L171.413 37.1637L160.568 36.1062L159.702 43.0587Z" fill="#A1A1A1"/>
<path d="M181.729 104.934H181.673L169.714 103.809C169.639 103.802 169.566 103.78 169.5 103.744C169.433 103.708 169.375 103.66 169.327 103.601C169.28 103.542 169.245 103.474 169.225 103.402C169.204 103.329 169.198 103.253 169.208 103.179L171.975 80.9035C171.992 80.7591 172.066 80.6271 172.179 80.5365C172.293 80.4459 172.438 80.4039 172.583 80.4198L184.553 81.5448C184.627 81.5531 184.699 81.5761 184.764 81.6124C184.829 81.6487 184.886 81.6976 184.932 81.7562C184.978 81.8148 185.012 81.882 185.032 81.9539C185.052 82.0257 185.057 82.1008 185.048 82.1748L182.291 104.439C182.273 104.575 182.205 104.7 182.102 104.791C181.999 104.881 181.867 104.932 181.729 104.934ZM170.4 102.684L181.245 103.741L183.866 82.6248L173.021 81.5673L170.4 102.684Z" fill="#A1A1A1"/>
<path d="M183.518 90.511L171.548 89.386C171.397 89.3682 171.259 89.2913 171.165 89.1723C171.076 89.0614 171.031 88.9207 171.041 88.7785L172.02 80.9035C172.037 80.7591 172.111 80.6271 172.224 80.5365C172.338 80.4459 172.483 80.4039 172.628 80.4198L184.598 81.5448C184.672 81.5531 184.743 81.5761 184.809 81.6124C184.874 81.6487 184.931 81.6976 184.977 81.7562C185.023 81.8148 185.057 81.882 185.077 81.9539C185.097 82.0257 185.102 82.1008 185.093 82.1748L184.125 89.9935C184.111 90.1418 184.04 90.2786 183.926 90.3752C183.813 90.4718 183.666 90.5205 183.518 90.511ZM172.189 88.261L183.034 89.3185L183.866 82.5685L173.021 81.511L172.189 88.261Z" fill="#A1A1A1"/>
<path d="M188.58 105.654H188.524L111.045 98.1388C110.971 98.1318 110.899 98.1101 110.834 98.0752C110.768 98.0402 110.71 97.9925 110.663 97.935C110.616 97.8775 110.581 97.8112 110.559 97.7399C110.538 97.6687 110.531 97.594 110.539 97.52C110.545 97.4465 110.565 97.3749 110.599 97.3093C110.632 97.2438 110.679 97.1857 110.736 97.1385C110.792 97.0913 110.858 97.0559 110.928 97.0345C110.999 97.0131 111.073 97.006 111.146 97.0138L188.636 104.529C188.709 104.536 188.779 104.557 188.844 104.592C188.908 104.626 188.965 104.673 189.011 104.729C189.057 104.786 189.091 104.851 189.112 104.921C189.133 104.991 189.139 105.064 189.131 105.136C189.12 105.276 189.058 105.406 188.956 105.501C188.854 105.597 188.72 105.651 188.58 105.654Z" fill="#A1A1A1"/>
<path d="M200.539 48.1773L181.414 46.4448C181.267 46.4305 181.131 46.3588 181.036 46.245C180.941 46.1313 180.895 45.9848 180.908 45.8373C180.913 45.7634 180.934 45.6912 180.967 45.6252C181.001 45.5591 181.047 45.5003 181.104 45.4522C181.16 45.4041 181.226 45.3676 181.296 45.3449C181.367 45.3222 181.441 45.3137 181.515 45.3198L200.64 47.0636C200.714 47.0692 200.785 47.0895 200.851 47.1233C200.916 47.1571 200.975 47.2037 201.022 47.2603C201.069 47.3169 201.104 47.3825 201.126 47.453C201.147 47.5236 201.154 47.5977 201.146 47.6711C201.132 47.8184 201.06 47.9542 200.947 48.0489C200.833 48.1437 200.686 48.1898 200.539 48.1773Z" fill="#A1A1A1"/>
<path d="M200.213 52.8913L181.088 51.1476C181.014 51.1419 180.942 51.1216 180.877 51.0878C180.811 51.0541 180.753 51.0075 180.706 50.9508C180.659 50.8942 180.624 50.8286 180.602 50.7581C180.581 50.6875 180.574 50.6134 180.581 50.5401C180.587 50.4665 180.607 50.3949 180.641 50.3294C180.675 50.2638 180.722 50.2057 180.778 50.1585C180.835 50.1113 180.9 50.076 180.971 50.0545C181.041 50.0331 181.116 50.0261 181.189 50.0338L200.314 51.7663C200.387 51.7719 200.459 51.7922 200.525 51.826C200.59 51.8598 200.648 51.9064 200.695 51.9631C200.743 52.0197 200.778 52.0852 200.799 52.1558C200.821 52.2263 200.828 52.3005 200.82 52.3738C200.814 52.4478 200.794 52.5199 200.761 52.586C200.727 52.6521 200.681 52.7108 200.624 52.7589C200.568 52.807 200.502 52.8435 200.432 52.8662C200.361 52.8889 200.287 52.8975 200.213 52.8913Z" fill="#A1A1A1"/>
<path d="M199.886 57.6049L180.761 55.8612C180.688 55.8545 180.616 55.8334 180.55 55.799C180.484 55.7646 180.426 55.7176 180.379 55.6606C180.283 55.5456 180.236 55.3972 180.25 55.248C180.263 55.0989 180.335 54.9611 180.45 54.8651C180.565 54.7691 180.714 54.7227 180.863 54.7362L199.988 56.4687C200.134 56.4857 200.268 56.5582 200.362 56.6713C200.456 56.7843 200.504 56.9293 200.494 57.0762C200.49 57.1511 200.47 57.2244 200.437 57.2918C200.404 57.3592 200.358 57.4193 200.302 57.4686C200.245 57.5179 200.179 57.5553 200.108 57.5787C200.037 57.6021 199.961 57.611 199.886 57.6049Z" fill="#A1A1A1"/>
<path d="M194.891 61.891L180.469 60.5861C180.395 60.579 180.323 60.5574 180.257 60.5224C180.192 60.4874 180.134 60.4398 180.087 60.3823C180.04 60.3247 180.004 60.2584 179.983 60.1872C179.962 60.116 179.955 60.0412 179.963 59.9673C179.968 59.8938 179.989 59.8221 180.022 59.7566C180.056 59.6911 180.103 59.633 180.159 59.5858C180.216 59.5386 180.282 59.5032 180.352 59.4818C180.423 59.4604 180.497 59.4533 180.57 59.4611L194.993 60.766C195.067 60.7731 195.139 60.7947 195.204 60.8297C195.27 60.8647 195.328 60.9123 195.375 60.9698C195.422 61.0274 195.457 61.0937 195.478 61.1649C195.5 61.2361 195.507 61.3109 195.499 61.3848C195.493 61.4583 195.473 61.53 195.439 61.5955C195.405 61.661 195.359 61.7191 195.302 61.7663C195.246 61.8135 195.18 61.8489 195.109 61.8703C195.039 61.8917 194.965 61.8988 194.891 61.891Z" fill="#A1A1A1"/>
<path d="M85.5415 110.683C88.5189 104.746 92.6005 99.4313 97.5678 95.0228C105.555 88.1265 110.337 83.109 107.828 81.7365C105.319 80.364 97.0165 86.2365 97.0165 86.2365L102.81 61.6665C102.81 61.6665 89.4677 72.3653 85.5415 80.1165C81.6152 87.8678 73.8752 104.203 73.8752 104.203L85.5415 110.683Z" fill="white"/>
<path d="M85.5415 111.279C85.4475 111.278 85.3549 111.255 85.2715 111.211L73.594 104.754C73.4693 104.685 73.3754 104.571 73.3316 104.435C73.2877 104.299 73.2971 104.152 73.3578 104.023C73.4365 103.865 81.154 87.5977 85.0465 79.9252C88.939 72.2527 101.922 61.7339 102.462 61.2952C102.557 61.2274 102.671 61.1909 102.788 61.1909C102.905 61.1909 103.019 61.2274 103.114 61.2952C103.213 61.3559 103.29 61.4463 103.334 61.5533C103.379 61.6603 103.388 61.7787 103.362 61.8914L97.9165 84.9877C100.515 83.2552 105.893 80.0377 108.109 81.2527C108.37 81.3811 108.594 81.5732 108.761 81.811C108.928 82.0489 109.033 82.325 109.065 82.6139C109.29 84.7177 106.062 88.4302 97.9503 95.4389C93.0519 99.8058 89.0214 105.058 86.0703 110.919C86.0382 110.99 85.9916 111.054 85.9335 111.106C85.8754 111.159 85.807 111.198 85.7328 111.223L85.5415 111.279ZM74.6065 104.023L85.3053 109.94C88.3074 104.154 92.3411 98.9654 97.2078 94.6289C99.919 92.2777 108.188 85.1339 107.929 82.7714C107.92 82.6609 107.881 82.5549 107.815 82.4655C107.75 82.3761 107.661 82.3067 107.558 82.2652C105.949 81.3989 100.448 84.5152 97.3428 86.7652C97.2489 86.8301 97.1376 86.8649 97.0235 86.865C96.9094 86.8651 96.798 86.8305 96.704 86.7658C96.61 86.7011 96.538 86.6094 96.4973 86.5028C96.4567 86.3962 96.4494 86.2798 96.4765 86.1689L101.888 63.2302C98.5128 66.1214 89.164 74.2889 86.0478 80.4314C82.5265 87.3164 75.889 101.244 74.584 103.989L74.6065 104.023Z" fill="#313B44"/>
<path d="M84.619 47.4124C83.2133 47.4102 81.8397 46.9913 80.672 46.2087C79.5042 45.426 78.5947 44.3148 78.0583 43.0155C77.5218 41.7161 77.3826 40.2869 77.6583 38.9084C77.9339 37.5299 78.6119 36.2641 79.6067 35.2709C80.6015 34.2777 81.8684 33.6016 83.2473 33.3282C84.6262 33.0548 86.0552 33.1962 87.3537 33.7347C88.6523 34.2731 89.762 35.1845 90.5428 36.3534C91.3236 37.5224 91.7403 38.8966 91.7403 40.3024C91.7373 42.1891 90.9857 43.9975 89.6505 45.3306C88.3154 46.6636 86.5057 47.4124 84.619 47.4124ZM84.619 34.3174C83.4358 34.3196 82.2797 34.6725 81.297 35.3315C80.3143 35.9905 79.5489 36.926 79.0976 38.0198C78.6464 39.1136 78.5294 40.3166 78.7616 41.4769C78.9938 42.6371 79.5648 43.7025 80.4022 44.5384C81.2397 45.3743 82.3061 45.9432 83.4668 46.1732C84.6275 46.4032 85.8303 46.284 86.9232 45.8307C88.0162 45.3774 88.9502 44.6103 89.6074 43.6263C90.2645 42.6423 90.6153 41.4856 90.6153 40.3024C90.6123 38.714 89.9792 37.1917 88.855 36.0697C87.7308 34.9476 86.2074 34.3174 84.619 34.3174Z" fill="#313B44"/>
<path d="M37.5602 68.6973C34.6127 68.5623 31.6652 68.056 28.2452 67.7635C25.0615 67.4935 20.9665 66.301 20.899 63.1173C20.8427 60.3835 24.1277 58.1448 23.4077 55.501C23.1594 54.7936 22.7775 54.1405 22.2827 53.5773C17.736 47.4774 15.725 39.8553 16.6708 32.3064C17.6165 24.7575 21.4455 17.867 27.3565 13.0773C26.4565 13.381 25.5115 12.4923 25.4215 11.5473C25.4217 10.5949 25.7836 9.67807 26.434 8.98229C28.684 6.24854 31.9577 4.68478 35.2877 3.59353C45.919 0.0947851 57.619 0.477285 68.3515 3.59353C76.6202 6.01228 86.5315 12.5935 85.4402 22.5723C85.0465 26.161 82.234 29.6598 78.6902 29.8173C76.8452 40.5048 71.2427 47.8173 64.2002 55.5348C59.4703 60.8701 53.4904 64.9482 46.7965 67.4035C43.8337 68.4419 40.6942 68.8816 37.5602 68.6973Z" fill="white"/>
<path d="M38.8539 69.2825H37.5377C35.7939 69.2038 34.0727 69.0013 32.2502 68.7763C30.9564 68.63 29.6177 68.4725 28.2002 68.3487C23.3289 67.9325 20.3927 65.9863 20.3252 63.1513C20.4316 61.7586 20.9223 60.4229 21.7427 59.2925C22.4852 58.0438 23.1827 56.8625 22.8677 55.67C22.6589 55.0839 22.3422 54.542 21.9339 54.0725L21.8327 53.9262C17.3376 47.8835 15.2766 40.3726 16.0579 32.882C16.8393 25.3913 20.4061 18.4675 26.0514 13.4825L25.9164 13.4038C25.6094 13.2089 25.3492 12.9484 25.1547 12.6411C24.9602 12.3338 24.8361 11.9872 24.7914 11.6262C24.7579 10.5263 25.1626 9.458 25.9164 8.65625C28.4252 5.5175 32.3177 3.97625 35.0402 3.03125C45.1652 -0.34375 57.0227 -0.34375 68.4302 3.03125C77.9027 5.81 86.9814 12.9313 85.9239 22.6063C85.5302 26.1388 82.8752 29.885 79.0277 30.3238C77.0027 41.3825 70.9952 48.7287 64.4814 55.895C59.6994 61.2663 53.6625 65.3708 46.9089 67.8425C44.3265 68.7812 41.6017 69.2683 38.8539 69.2825ZM37.5827 68.1575C40.6387 68.3239 43.6973 67.8842 46.5827 66.8637C53.1663 64.4665 59.0477 60.4644 63.694 55.22C71.479 46.6587 76.3277 39.7625 78.0489 29.795C78.0695 29.6675 78.1332 29.551 78.2295 29.4649C78.3258 29.3789 78.4487 29.3286 78.5777 29.3225C81.9527 29.1763 84.5065 25.7 84.844 22.5725C85.834 13.5725 77.1827 6.8225 68.1602 4.20125C56.9102 0.927501 45.3452 0.916251 35.4339 4.20125C32.8577 5.05625 29.1677 6.51875 26.8389 9.41C26.2701 9.98967 25.9511 10.7691 25.9502 11.5813C25.9738 11.7688 26.0373 11.9491 26.1362 12.1101C26.2352 12.2711 26.3674 12.4092 26.5239 12.515C26.6126 12.5779 26.7139 12.6206 26.8208 12.64C26.9277 12.6594 27.0376 12.6552 27.1427 12.6275C27.2677 12.5844 27.4038 12.5868 27.5273 12.6341C27.6507 12.6814 27.7535 12.7707 27.8177 12.8863C27.8784 13.0032 27.897 13.1375 27.8704 13.2666C27.8438 13.3957 27.7735 13.5116 27.6714 13.595C21.8836 18.2948 18.1351 25.0487 17.2085 32.4466C16.282 39.8444 18.249 47.3142 22.6989 53.2962L22.8114 53.4313C23.3051 54.0164 23.6865 54.6876 23.9364 55.4112C24.3864 57.065 23.5314 58.505 22.6989 59.9112C21.9939 60.866 21.5586 61.9929 21.4389 63.1737C21.5064 66.4362 26.6814 67.1338 28.2677 67.2687C29.8539 67.4037 31.0577 67.55 32.3627 67.7075C34.1627 67.9212 35.8614 68.1237 37.5602 68.2025L37.5827 68.1575Z" fill="#313B44"/>
<path d="M81.4915 45.3989C81.4915 45.3989 89.1077 57.9539 87.3415 60.4289C85.5752 62.9039 80.0627 61.0027 80.0627 61.0027" fill="white"/>
<path d="M84.0452 62.2511C82.6288 62.2285 81.2245 61.9855 79.8828 61.5311C79.7432 61.4825 79.6283 61.3809 79.563 61.2483C79.4978 61.1156 79.4874 60.9626 79.534 60.8224C79.585 60.6819 79.6887 60.5669 79.8232 60.5018C79.9576 60.4367 80.1122 60.4266 80.254 60.4736C81.6715 60.9574 85.6315 61.8461 86.8802 60.1024C87.949 58.6061 84.0902 50.7761 81.0078 45.6911C80.969 45.6277 80.9431 45.5572 80.9318 45.4838C80.9204 45.4103 80.9237 45.3353 80.9415 45.2631C80.9593 45.1909 80.9912 45.123 81.0354 45.0632C81.0796 45.0034 81.1352 44.953 81.199 44.9149C81.2616 44.8764 81.3312 44.8507 81.4038 44.8395C81.4764 44.8283 81.5505 44.8316 81.6217 44.8495C81.693 44.8673 81.76 44.8992 81.8188 44.9432C81.8776 44.9873 81.9269 45.0427 81.964 45.1061C83.269 47.2549 89.6927 58.1111 87.7915 60.7549C87.3317 61.285 86.7517 61.6975 86.1 61.9578C85.4483 62.2181 84.7438 62.3186 84.0452 62.2511Z" fill="#313B44"/>
<path d="M80.389 29.1538C85.3728 33.5526 83.539 42.3838 83.269 48.1663C82.9015 56.2963 82.339 64.4151 81.5815 72.5226C81.109 77.6638 67.7553 77.2588 65.4603 75.6276L66.7653 96.0688L39.1353 84.2788L40.924 67.4038C40.924 67.4038 50.014 67.8201 55.6278 57.5151C61.2415 47.2101 61.3878 24.3726 61.3878 24.3726C61.3878 24.3726 75.5178 24.8563 80.389 29.1538Z" fill="white"/>
<path d="M66.7653 96.6539C66.6912 96.6708 66.6143 96.6708 66.5403 96.6539L38.9103 84.8189C38.8005 84.7682 38.709 84.6848 38.6486 84.58C38.5882 84.4752 38.5617 84.3543 38.5728 84.2339L40.3728 67.4489C40.3896 67.3067 40.4589 67.176 40.5671 67.0823C40.6754 66.9887 40.8147 66.9388 40.9578 66.9426C41.3065 66.9426 49.7665 67.2014 55.1328 57.3464C60.6228 47.2889 60.8253 24.7214 60.8253 24.4626C60.8286 24.3145 60.8891 24.1734 60.994 24.0689C61.0468 24.0127 61.1118 23.9692 61.1839 23.9419C61.2561 23.9146 61.3335 23.9042 61.4103 23.9114C61.9953 23.9114 75.7878 24.4176 80.7603 28.7939C85.114 32.6414 84.529 39.5601 84.0565 45.1176C83.9665 46.2426 83.8765 47.2889 83.8315 48.2564C83.4603 56.3676 82.8865 64.5689 82.144 72.6351C82.054 73.6364 81.469 75.0426 79.2528 76.0101C75.5628 77.7089 68.9365 77.5514 66.079 76.5614L67.3278 96.0576C67.3329 96.1533 67.3139 96.2487 67.2727 96.3352C67.2314 96.4216 67.1691 96.4964 67.0916 96.5526C66.9953 96.6181 66.8817 96.6533 66.7653 96.6539ZM39.7653 83.8964L66.169 95.2139L64.9203 75.6839C64.9131 75.5775 64.9364 75.4713 64.9873 75.3776C65.0382 75.2839 65.1147 75.2067 65.2078 75.1548C65.301 75.1029 65.4069 75.0786 65.5134 75.0846C65.6198 75.0906 65.7224 75.1268 65.8091 75.1889C67.3166 76.3139 74.8765 76.7976 78.814 74.9976C80.1978 74.3564 80.9515 73.5126 81.064 72.4889C81.8065 64.4339 82.3803 56.2551 82.7515 48.1664C82.7515 47.1764 82.8865 46.1076 82.9878 44.9826C83.4265 39.6726 83.989 33.0689 80.0515 29.5926C75.934 25.9589 64.6615 25.1601 61.984 25.0139C61.9278 28.7264 61.354 48.3351 56.1678 57.8414C51.229 66.8414 43.5565 67.9664 41.5428 67.9664L39.7653 83.8964Z" fill="#313B44"/>
<path d="M81.6152 66.4476C81.6152 66.4476 75.169 70.0814 72.064 63.4326L81.6152 66.4476Z" fill="white"/>
<path d="M77.7452 68.0002C77.0583 68.0073 76.3747 67.9048 75.7202 67.6965C74.7812 67.3581 73.9242 66.8255 73.205 66.1334C72.4859 65.4414 71.9207 64.6055 71.5464 63.6802C71.488 63.5425 71.4846 63.3876 71.5369 63.2474C71.5892 63.1071 71.6933 62.9923 71.8277 62.9265C71.894 62.8944 71.9661 62.876 72.0396 62.8723C72.1132 62.8686 72.1867 62.8796 72.2559 62.9048C72.3251 62.9299 72.3886 62.9687 72.4426 63.0188C72.4966 63.0689 72.5399 63.1293 72.5702 63.1965C72.8854 63.9721 73.3596 64.6732 73.9622 65.2545C74.5648 65.8357 75.2824 66.2844 76.0689 66.5715C77.85 66.9976 79.7252 66.7617 81.3452 65.9077C81.475 65.8349 81.6284 65.8165 81.7718 65.8565C81.9152 65.8966 82.0369 65.9919 82.1102 66.1215C82.1801 66.252 82.1969 66.4044 82.1571 66.547C82.1172 66.6895 82.0238 66.8112 81.8964 66.8865C80.6181 67.5755 79.1967 67.9568 77.7452 68.0002Z" fill="#313B44"/>
<path d="M47.9777 49.595C47.9257 49.6053 47.8722 49.6053 47.8202 49.595C47.7497 49.5755 47.6838 49.5423 47.6263 49.4971C47.5688 49.452 47.5209 49.3958 47.4853 49.3319C47.4497 49.2681 47.4271 49.1978 47.419 49.1251C47.4108 49.0525 47.4172 48.9789 47.4377 48.9087C48.5627 44.9375 49.3502 44.8812 49.6877 44.8587C50.3177 44.8587 77.0815 41.4837 91.1327 39.7737C91.206 39.7627 91.2809 39.7665 91.3527 39.7851C91.4245 39.8036 91.4918 39.8364 91.5506 39.8816C91.6094 39.9268 91.6585 39.9833 91.695 40.0479C91.7314 40.1125 91.7545 40.1838 91.7627 40.2575C91.7819 40.4051 91.7417 40.5544 91.651 40.6725C91.5604 40.7906 91.4266 40.8679 91.279 40.8875C89.6477 41.09 52.1627 45.725 49.8677 45.9725C49.276 46.9838 48.8327 48.075 48.5515 49.2125C48.5136 49.332 48.4361 49.435 48.3318 49.5045C48.2275 49.5741 48.1026 49.606 47.9777 49.595Z" fill="#313B44"/>
<path d="M65.6965 50.0114C65.6965 47.9752 64.6728 46.0964 63.6265 44.3864C62.8845 42.9661 61.9283 41.6684 60.7915 40.5389C60.2258 39.9832 59.544 39.5598 58.795 39.2992C58.0461 39.0385 57.2487 38.9471 56.4603 39.0314C55.775 39.1775 55.1283 39.4664 54.5623 39.8793C53.9962 40.2922 53.5236 40.8198 53.1753 41.4277C52.5122 42.6604 52.1281 44.0238 52.0503 45.4214C51.8028 48.4691 52.3606 51.5282 53.6676 54.2924C54.9747 57.0566 56.9852 59.4289 59.4978 61.1714L59.0703 60.6652" fill="white"/>
<path d="M59.4865 61.7789C59.3738 61.7769 59.2643 61.7416 59.1715 61.6777C56.5773 59.8688 54.5021 57.4122 53.152 54.5523C51.802 51.6924 51.2243 48.5289 51.4765 45.3764C51.5704 43.8871 51.9971 42.4378 52.7252 41.1352C53.1115 40.4542 53.6401 39.8645 54.2749 39.4063C54.9098 38.9481 55.636 38.6322 56.404 38.4802C57.2767 38.3747 58.1619 38.4676 58.9937 38.752C59.8255 39.0364 60.5823 39.505 61.2077 40.1227C62.3871 41.2741 63.3847 42.5979 64.1665 44.0489C65.1452 45.7027 66.4165 47.7614 66.3152 50.0227C66.3067 50.17 66.2429 50.3087 66.1365 50.4109C66.0301 50.5131 65.889 50.5713 65.7415 50.5739C65.6676 50.5725 65.5947 50.5565 65.5271 50.5268C65.4594 50.4972 65.3982 50.4545 65.347 50.4013C65.2958 50.348 65.2556 50.2851 65.2287 50.2163C65.2018 50.1475 65.1887 50.0741 65.1902 50.0002C65.1902 48.0539 64.0652 46.1527 63.199 44.6227C62.4871 43.2752 61.5811 42.0395 60.5102 40.9552C60.0062 40.4553 59.3979 40.073 58.7289 39.8357C58.0598 39.5984 57.3466 39.512 56.6402 39.5827C56.0355 39.7166 55.4656 39.976 54.9675 40.3443C54.4694 40.7125 54.0543 41.1812 53.749 41.7202C53.0971 42.8725 52.7126 44.1567 52.624 45.4777C52.4077 48.2526 52.8774 51.0381 53.9918 53.5885C55.1061 56.139 56.8309 58.3762 59.014 60.1027C59.1059 60.0914 59.1991 60.1029 59.2854 60.1363C59.3718 60.1696 59.4486 60.2238 59.509 60.2939L59.9365 60.8002C60.0267 60.9028 60.0764 61.0348 60.0764 61.1714C60.0764 61.3081 60.0267 61.44 59.9365 61.5427C59.8841 61.6134 59.8164 61.6713 59.7385 61.7122C59.6606 61.7531 59.5744 61.7759 59.4865 61.7789Z" fill="#313B44"/>
<path d="M79.3894 41.8898C80.0231 41.8799 80.5163 40.5674 80.491 38.9584C80.4657 37.3494 79.9315 36.0531 79.2979 36.063C78.6642 36.073 78.171 37.3854 78.1963 38.9945C78.2216 40.6035 78.7557 41.8998 79.3894 41.8898Z" fill="#313B44"/>
<path d="M2.74148 227.57C2.74148 227.57 -6.38227 123.901 8.65898 102.695C23.7002 81.4886 60.634 78.0798 77.7227 91.7598C94.8115 105.44 107.805 228.504 107.805 228.504C107.805 228.504 51.2852 263.806 2.74148 227.57Z" fill="#EE4937"/>
<path d="M133.663 78.0991L137.885 76.7127L143.062 92.4781C143.235 93.0053 143.192 93.5798 142.942 94.075C142.691 94.5703 142.254 94.9458 141.727 95.119L141.481 95.1997C140.954 95.3729 140.38 95.3295 139.884 95.0791C139.389 94.8287 139.014 94.3918 138.84 93.8645L133.663 78.0991Z" fill="white"/>
<path d="M140.824 95.8549C140.266 95.8489 139.723 95.669 139.271 95.3404C138.82 95.0118 138.482 94.5507 138.304 94.0212L133.129 78.2712C133.073 78.1342 133.073 77.9806 133.129 77.8437C133.161 77.7769 133.207 77.7175 133.263 77.6691C133.319 77.6207 133.384 77.5844 133.455 77.5624L137.674 76.1674C137.816 76.1243 137.969 76.1377 138.101 76.2048C138.233 76.2719 138.334 76.3875 138.383 76.5274L143.558 92.2774C143.67 92.6097 143.716 92.9611 143.692 93.3112C143.668 93.6612 143.575 94.003 143.418 94.3169C143.261 94.6307 143.043 94.9103 142.778 95.1396C142.512 95.3688 142.204 95.5431 141.87 95.6524L141.623 95.7312C141.364 95.8133 141.095 95.855 140.824 95.8549ZM134.366 78.4399L139.373 93.6724C139.501 94.0579 139.776 94.3773 140.138 94.5612C140.488 94.7302 140.89 94.7623 141.263 94.6512L141.51 94.5724C141.895 94.4441 142.213 94.1681 142.395 93.8053C142.576 93.4424 142.606 93.0223 142.478 92.6374L137.483 77.4049L134.366 78.4399Z" fill="#313B44"/>
<path d="M134.556 62.1927L127.737 64.4321L132.802 79.8555L139.621 77.6161L134.556 62.1927Z" fill="white"/>
<path d="M132.791 80.3973C132.673 80.3988 132.556 80.3625 132.459 80.2938C132.362 80.2251 132.29 80.1274 132.251 80.0148L127.166 64.591C127.11 64.4541 127.11 64.3005 127.166 64.1635C127.199 64.0968 127.244 64.0373 127.3 63.989C127.356 63.9406 127.422 63.9043 127.493 63.8823L134.31 61.6323C134.38 61.6078 134.455 61.5978 134.529 61.6028C134.603 61.6078 134.675 61.6277 134.741 61.6613C134.807 61.6949 134.866 61.7416 134.914 61.7985C134.962 61.8553 134.997 61.9212 135.019 61.9923L140.081 77.416C140.138 77.553 140.138 77.7066 140.081 77.8435C140.049 77.9103 140.004 77.9697 139.948 78.0181C139.891 78.0665 139.826 78.1028 139.755 78.1248L132.938 80.3748L132.791 80.3973ZM128.438 64.771L133.151 79.126L138.889 77.236L134.186 62.9035L128.438 64.771Z" fill="#313B44"/>
<path d="M140.717 89.0933L138.708 89.7532C137.38 90.1894 136.656 91.6197 137.093 92.9479L144.32 114.955C144.756 116.284 146.186 117.007 147.514 116.57L149.524 115.911C150.852 115.474 151.575 114.044 151.139 112.716L143.912 90.7085C143.476 89.3803 142.045 88.6572 140.717 89.0933Z" fill="white"/>
<path d="M146.742 117.241C146.089 117.241 145.453 117.036 144.924 116.654C144.395 116.273 144 115.734 143.794 115.115L136.572 93.1099C136.443 92.7236 136.392 92.3158 136.422 91.9097C136.451 91.5037 136.56 91.1075 136.743 90.7438C136.926 90.38 137.179 90.056 137.487 89.7902C137.796 89.5244 138.154 89.3221 138.54 89.1949L140.543 88.5424C141.322 88.2864 142.17 88.35 142.902 88.7191C143.634 89.0882 144.189 89.7328 144.447 90.5112L151.68 112.527C151.807 112.914 151.856 113.321 151.825 113.727C151.794 114.132 151.683 114.527 151.499 114.89C151.315 115.252 151.062 115.575 150.753 115.839C150.444 116.104 150.087 116.305 149.7 116.431L147.698 117.084C147.39 117.19 147.067 117.244 146.742 117.241ZM141.51 89.5099C141.3 89.5106 141.091 89.5448 140.892 89.6112L138.889 90.2637C138.398 90.4325 137.994 90.7883 137.764 91.2537C137.646 91.4828 137.575 91.7333 137.556 91.9904C137.537 92.2474 137.569 92.5057 137.652 92.7499L144.874 114.766C145.038 115.261 145.393 115.671 145.859 115.905C146.325 116.139 146.865 116.179 147.36 116.015L149.363 115.362C149.858 115.198 150.268 114.844 150.504 114.379C150.74 113.913 150.783 113.373 150.623 112.876L143.389 90.8712C143.261 90.4764 143.011 90.1322 142.676 89.8877C142.341 89.6432 141.937 89.511 141.522 89.5099H141.51Z" fill="#313B44"/>
<path d="M129.844 78.4065C140.363 78.4065 148.89 69.8792 148.89 59.3602C148.89 48.8413 140.363 40.314 129.844 40.314C119.325 40.314 110.798 48.8413 110.798 59.3602C110.798 69.8792 119.325 78.4065 129.844 78.4065Z" fill="white"/>
<path d="M129.833 78.98C124.884 78.9879 120.114 77.1307 116.473 73.7785C112.833 70.4264 110.589 65.8254 110.189 60.8927C109.79 55.9601 111.263 51.0579 114.317 47.1634C117.37 43.2688 121.779 40.668 126.665 39.8791C131.55 39.0902 136.554 40.1713 140.678 42.9069C144.802 45.6425 147.743 49.8317 148.917 54.6395C150.09 59.4473 149.408 64.5206 147.007 68.8482C144.607 73.1758 140.664 76.44 135.964 77.99C133.985 78.6395 131.916 78.9736 129.833 78.98ZM129.833 40.865C126.908 40.8672 124.026 41.5629 121.422 42.895C118.819 44.2271 116.568 46.1576 114.856 48.528C113.143 50.8985 112.017 53.6413 111.569 56.5314C111.122 59.4215 111.367 62.3764 112.283 65.1537C113.346 68.39 115.284 71.2694 117.881 73.4739C120.478 75.6784 123.634 77.1224 127 77.6463C130.366 78.1702 133.811 77.7537 136.955 76.4428C140.099 75.1319 142.82 72.9776 144.817 70.2177C146.814 67.4578 148.01 64.1998 148.271 60.8033C148.533 57.4068 147.851 54.004 146.301 50.9706C144.751 47.9373 142.392 45.3914 139.486 43.614C136.58 41.8366 133.239 40.8969 129.833 40.8987V40.865Z" fill="#313B44"/>
<path d="M129.844 74.8286C138.387 74.8286 145.313 67.903 145.313 59.3599C145.313 50.8167 138.387 43.8911 129.844 43.8911C121.301 43.8911 114.375 50.8167 114.375 59.3599C114.375 67.903 121.301 74.8286 129.844 74.8286Z" fill="white"/>
<path d="M129.855 75.3911C126.901 75.3926 124.003 74.5776 121.483 73.0361C118.962 71.4946 116.917 69.2865 115.572 66.6557C114.227 64.0248 113.636 61.0736 113.863 58.1278C114.09 55.182 115.127 52.3563 116.859 49.9626C118.591 47.5689 120.95 45.7004 123.677 44.5633C126.404 43.4263 129.393 43.065 132.312 43.5193C135.231 43.9736 137.968 45.2258 140.221 47.1377C142.473 49.0496 144.154 51.5468 145.076 54.3536C145.868 56.7608 146.077 59.3212 145.688 61.8249C145.298 64.3286 144.32 66.7043 142.835 68.7572C141.35 70.81 139.399 72.4816 137.143 73.6347C134.887 74.7879 132.389 75.3898 129.855 75.3911ZM129.855 44.4424C126.703 44.4454 123.634 45.4467 121.086 47.3025C118.539 49.1583 116.644 51.7733 115.675 54.7724C114.706 57.7714 114.711 61.0004 115.691 63.9961C116.67 66.9918 118.574 69.6003 121.128 71.4473C123.681 73.2944 126.755 74.2851 129.906 74.2773C133.058 74.2695 136.127 73.2637 138.671 71.4041C141.216 69.5444 143.106 66.9266 144.071 63.9261C145.036 60.9256 145.026 57.6966 144.041 54.7024C143.068 51.7061 141.166 49.0972 138.612 47.2528C136.058 45.4084 132.983 44.4242 129.833 44.4424H129.855Z" fill="#313B44"/>
<path d="M127.167 124.329L127.92 118.704C127.92 118.468 128.303 101.109 129.799 99.77C131.295 98.4313 150.713 84.3463 152.074 86.27C153.435 88.1938 150.792 91.8163 150.792 91.8163C150.792 91.8163 155.348 91.355 154.886 94.0663C154.425 96.7775 151.703 99.5338 151.703 99.5338C151.703 99.5338 154.493 97.4863 154.92 100.445C155.042 101.302 154.934 102.177 154.608 102.979C154.282 103.781 153.749 104.483 153.064 105.013C153.064 105.013 157.17 103.19 156.259 106.599C155.348 110.008 145.358 118.681 145.358 118.681L144.154 126.106L127.167 124.329Z" fill="white"/>
<path d="M144.12 126.691L127.245 124.891H127.178C126.671 124.768 126.671 124.768 127.369 119.683L127.504 118.67C127.504 118.569 127.796 100.985 129.574 99.3764C130.699 98.3302 148.609 85.1677 151.939 85.5502C152.085 85.5579 152.228 85.5982 152.356 85.6683C152.485 85.7384 152.596 85.8364 152.681 85.9552C153.806 87.5414 152.681 89.9152 151.928 91.2314C153.045 91.1946 154.137 91.5667 154.999 92.2777C155.225 92.5358 155.39 92.8424 155.48 93.1739C155.569 93.5054 155.582 93.853 155.516 94.1902C155.18 95.6952 154.511 97.1059 153.559 98.3189C153.817 98.3097 154.074 98.3557 154.313 98.4539C154.675 98.6365 154.982 98.9138 155.2 99.2564C155.418 99.5991 155.539 99.9943 155.55 100.4C155.741 101.654 155.478 102.935 154.808 104.011C155.389 103.921 155.983 104.063 156.461 104.405C156.747 104.722 156.937 105.113 157.008 105.533C157.08 105.954 157.031 106.386 156.866 106.779C155.978 110.154 147.27 117.849 145.943 119.008L144.818 126.23C144.804 126.307 144.776 126.381 144.733 126.447C144.69 126.512 144.634 126.568 144.569 126.612C144.503 126.655 144.43 126.684 144.353 126.698C144.276 126.712 144.196 126.709 144.12 126.691ZM127.841 123.834L143.648 125.51L144.773 118.614C144.789 118.483 144.853 118.363 144.953 118.276C147.698 115.903 154.965 109.153 155.685 106.486C155.843 105.868 155.832 105.361 155.685 105.249C155.28 104.911 154.031 105.249 153.3 105.541C153.174 105.598 153.031 105.605 152.9 105.562C152.768 105.518 152.658 105.426 152.592 105.305C152.519 105.185 152.497 105.042 152.528 104.905C152.56 104.769 152.643 104.65 152.76 104.574C153.36 104.106 153.825 103.489 154.11 102.783C154.394 102.078 154.488 101.31 154.38 100.558C154.313 100.141 154.178 99.6352 153.829 99.4889C153.278 99.2527 152.333 99.8039 152.04 100.018C151.926 100.1 151.785 100.136 151.646 100.119C151.506 100.102 151.378 100.034 151.286 99.9277C151.192 99.8225 151.14 99.6863 151.14 99.5452C151.14 99.404 151.192 99.2679 151.286 99.1627C151.286 99.1627 153.908 96.5189 154.324 93.9989C154.369 93.8334 154.371 93.6593 154.332 93.4924C154.293 93.3255 154.213 93.171 154.099 93.0427C153.401 92.3002 151.455 92.3114 150.836 92.3677C150.727 92.3784 150.617 92.3576 150.52 92.3077C150.422 92.2579 150.341 92.1811 150.285 92.0864C150.224 91.9968 150.192 91.891 150.192 91.7827C150.192 91.6743 150.224 91.5685 150.285 91.4789C150.971 90.5564 152.535 87.8789 151.646 86.5964C149.689 85.9889 132.161 98.4427 130.204 100.209C129.079 101.334 128.505 115.88 128.505 118.726C128.505 118.726 128.449 119.176 128.359 119.851C128.291 120.898 127.965 122.878 127.841 123.834Z" fill="#313B44"/>
<path d="M77.7227 91.7715C77.7227 91.7715 88.6577 98.3865 96.8477 113.54C105.038 128.694 118.043 177.125 118.043 177.125L124.219 118.434L148.125 123.823C148.125 123.823 150.173 209.323 129 218.941C107.828 228.56 53.704 169.036 53.704 169.036L77.7227 91.7715Z" fill="#EE4937"/>
<path d="M33.2739 89.0374L36.0189 80.1499L71.7939 83.6037L73.8527 91.7712C73.8527 91.7712 55.1664 100.659 33.2739 89.0374Z" fill="white"/>
<path d="M56.7302 95.5288C48.4507 95.5127 40.3038 93.4489 33.0152 89.5213C32.9 89.4593 32.8101 89.3591 32.7608 89.2379C32.7115 89.1168 32.706 88.9823 32.7452 88.8575L35.4789 79.97C35.5169 79.8475 35.5957 79.7417 35.7021 79.6701C35.8085 79.5985 35.9361 79.5654 36.0639 79.5763L71.8502 83.0413C71.9655 83.0513 72.0749 83.0966 72.1635 83.1711C72.2521 83.2456 72.3155 83.3456 72.3452 83.4575L74.3927 91.625C74.4256 91.7505 74.4132 91.8837 74.3577 92.001C74.3021 92.1183 74.207 92.2122 74.0889 92.2663C68.5783 94.5011 62.6761 95.6104 56.7302 95.5288ZM33.9489 88.7788C39.9228 91.9792 46.5092 93.872 53.2708 94.3317C60.0323 94.7914 66.8143 93.8074 73.1664 91.445L71.3214 84.1325L36.4464 80.7575L33.9489 88.7788Z" fill="#313B44"/>
<path d="M107.805 215.488C107.7 215.491 107.598 215.459 107.513 215.398C107.142 215.173 71.0065 192.065 58.2828 131.889C58.2662 131.816 58.2641 131.741 58.2766 131.668C58.2892 131.595 58.3161 131.525 58.3558 131.462C58.3956 131.399 58.4474 131.345 58.5082 131.303C58.569 131.26 58.6377 131.23 58.7102 131.214C58.8575 131.187 59.0097 131.217 59.1352 131.299C59.2608 131.38 59.3503 131.507 59.3853 131.653C72.019 191.368 107.76 214.228 108.109 214.453C108.211 214.518 108.289 214.615 108.331 214.729C108.373 214.843 108.378 214.967 108.344 215.083C108.309 215.2 108.239 215.302 108.142 215.375C108.045 215.448 107.927 215.487 107.805 215.488Z" fill="#313B44"/>
<path d="M148.879 37.8163L121.103 35.4538C121.022 35.4504 120.944 35.4282 120.874 35.3892C120.803 35.3501 120.743 35.2952 120.698 35.2288C120.649 35.1635 120.615 35.0886 120.597 35.0091C120.58 34.9296 120.58 34.8472 120.596 34.7676L122.981 24.4738C123.019 24.3309 123.11 24.2079 123.235 24.1303C123.361 24.0528 123.512 24.0267 123.656 24.0576C123.729 24.0735 123.798 24.1037 123.859 24.1463C123.919 24.189 123.971 24.2432 124.011 24.306C124.051 24.3687 124.078 24.4388 124.09 24.512C124.103 24.5852 124.101 24.6602 124.084 24.7326L121.834 34.3963L148.969 36.6463C149.118 36.6463 149.261 36.7056 149.367 36.8111C149.472 36.9166 149.531 37.0596 149.531 37.2088C149.531 37.358 149.472 37.5011 149.367 37.6066C149.261 37.7121 149.118 37.7713 148.969 37.7713L148.879 37.8163Z" fill="#A1A1A1"/>
<path d="M123.218 34.5536C123.131 34.5528 123.045 34.5321 122.967 34.4931C122.889 34.4541 122.821 34.3979 122.768 34.3286C122.677 34.2107 122.637 34.0616 122.656 33.914C122.675 33.7664 122.751 33.6323 122.869 33.5411C125.023 31.8935 127.328 30.4546 129.754 29.2436C130.544 28.7567 131.479 28.5616 132.398 28.6924C133.294 29.0022 134.054 29.6149 134.546 30.4249C134.894 30.9815 135.383 31.4358 135.964 31.7411C136.428 31.8209 136.903 31.8062 137.361 31.698C137.819 31.5897 138.251 31.3901 138.63 31.1111C141.69 29.4911 145.155 27.6574 147.315 24.6986C147.405 24.5793 147.538 24.5004 147.686 24.4793C147.833 24.4582 147.983 24.4966 148.103 24.5861C148.221 24.6758 148.301 24.808 148.324 24.9549C148.347 25.1018 148.312 25.2519 148.226 25.3736C145.909 28.5236 142.32 30.4249 139.159 32.1236C138.648 32.4895 138.063 32.7411 137.446 32.8615C136.829 32.9818 136.193 32.9681 135.581 32.8211C134.79 32.4567 134.122 31.8705 133.658 31.1336C133.185 30.5261 132.746 30.0086 132.139 29.8174C131.475 29.7563 130.81 29.9187 130.249 30.2786C127.867 31.4487 125.606 32.8504 123.499 34.4636C123.415 34.5187 123.318 34.5498 123.218 34.5536Z" fill="#A1A1A1"/>
</svg>
