<svg width="120" height="153" viewBox="0 0 120 153" fill="none" xmlns="http://www.w3.org/2000/svg">
<path d="M101.324 33.6563C98.1393 22.7962 91.0979 13.4731 81.5229 7.43955C71.948 1.40597 60.499 -0.922614 49.328 0.891503C27.9511 4.22312 11.299 22.9501 10.4631 44.576C10.4631 45.1688 10.4275 45.7616 10.4216 46.3544C10.2319 61.406 16.2489 73.6535 27.9392 83.2453C34.3535 88.5035 37.5962 95.149 37.8037 103.359V115.115H75.8386V103.039C76.1647 94.568 79.8876 87.9403 86.5745 82.5042C93.5363 76.6933 98.6432 68.9702 101.264 60.2891C103.886 51.6079 103.906 42.3491 101.324 33.6563Z" fill="white"/>
<path d="M76.1469 115.376H37.5192V103.336C37.3176 95.1612 34.1223 88.658 27.7614 83.4413C15.9052 73.6895 9.97701 61.2048 10.1371 46.3192C10.1371 45.7264 10.1371 45.1336 10.1786 44.5408C11.0204 22.8201 27.8326 3.92115 49.3043 0.577677C72.7916 -3.0622 94.7731 10.8037 101.608 33.5678C104.21 42.3142 104.192 51.631 101.559 60.3677C98.9248 69.1044 93.7899 76.8785 86.7879 82.7299C79.9943 88.249 76.5204 94.8411 76.1647 102.886V115.376H76.1469ZM38.112 114.783H75.5541V103.01C75.8742 94.7107 79.4252 87.9289 86.4026 82.2616C91.6076 78.0113 95.7959 72.6506 98.6608 66.5721C101.526 60.4936 102.995 53.8511 102.96 47.1314C102.996 42.5933 102.352 38.0755 101.051 33.7278C97.9018 22.9268 90.9073 13.6524 81.3881 7.65533C71.8689 1.65829 60.4835 -0.646367 49.3814 1.17642C28.2001 4.4784 11.6013 23.1105 10.7714 44.5764C10.7714 45.1692 10.7358 45.762 10.7299 46.3548C10.5461 61.0507 16.4031 73.3812 28.1408 83.0085C34.5669 88.2845 37.8274 94.8648 38.106 103.057V103.354L38.112 114.783Z" fill="#313B44"/>
<path d="M75.5362 108.755H38.1237V109.348H75.5362V108.755Z" fill="#A1A1A1"/>
<path d="M75.5362 102.767H38.1237V103.359H75.5362V102.767Z" fill="#A1A1A1"/>
<path d="M32.1955 31.0187C32.5097 30.0939 32.818 29.1691 33.144 28.2502C33.3159 27.77 33.5056 27.3017 33.7013 26.8334C33.8028 26.5366 34.0045 26.2844 34.2716 26.12C34.5388 25.9556 34.8548 25.8893 35.1655 25.9323C35.9124 26.0153 36.6535 26.1754 37.4004 26.2939C37.7901 26.3815 38.1869 26.4331 38.586 26.4481C38.885 26.456 39.1777 26.3619 39.416 26.1813C40.2756 25.3632 41.0996 24.5096 41.9058 23.65C42.042 23.4883 42.1365 23.2956 42.181 23.0889C42.2254 22.8822 42.2185 22.6677 42.1607 22.4643C41.971 21.5633 41.7517 20.6859 41.5679 19.7552C41.4816 19.4065 41.4476 19.0468 41.4671 18.6881C41.4774 18.5561 41.5136 18.4275 41.5736 18.3095C41.6336 18.1915 41.7163 18.0865 41.8169 18.0005C43.2 17.1037 44.7083 16.4165 46.2926 15.9612C46.5264 15.8884 46.7776 15.8942 47.0078 15.9777C47.238 16.0612 47.4344 16.2178 47.5672 16.4236C48.16 17.2061 48.7528 17.9708 49.2863 18.7948C49.4634 19.1006 49.7263 19.3478 50.0424 19.5059C50.3584 19.6639 50.7139 19.7258 51.0648 19.6841C52.0548 19.6129 53.0507 19.5951 54.0288 19.5477C54.2107 19.5373 54.3872 19.4827 54.5432 19.3887C54.6992 19.2947 54.8299 19.1641 54.924 19.0082C55.2738 18.4866 55.6117 17.9471 55.9555 17.4254C56.2993 16.9038 56.5483 16.5125 56.8625 16.0738C57 15.8495 57.2113 15.6801 57.4601 15.5946C57.7089 15.5092 57.9797 15.513 58.226 15.6055C59.6013 16.0738 60.9707 16.5599 62.3223 17.0816C62.5807 17.1808 62.7963 17.3673 62.9316 17.6087C63.067 17.8502 63.1135 18.1314 63.0633 18.4036C62.9922 19.1683 62.8203 19.9152 62.6958 20.674C62.6424 21.0297 62.5891 21.3854 62.5594 21.747C62.5298 21.9777 62.5557 22.2122 62.6352 22.4308C62.7146 22.6495 62.8451 22.8459 63.0159 23.0038C63.7391 23.6855 64.4683 24.3554 65.1678 25.0668C65.3692 25.2812 65.625 25.4369 65.9079 25.5173C66.1909 25.5977 66.4903 25.5998 66.7743 25.5233C67.7525 25.3099 68.7247 25.0727 69.7384 24.8593C70.0602 24.7517 70.4111 24.7732 70.7174 24.9191C71.0237 25.0651 71.2614 25.3242 71.3805 25.6418C71.9378 26.8275 72.4752 28.0131 72.993 29.1987C73.0932 29.3589 73.1598 29.5378 73.1886 29.7246C73.2175 29.9114 73.2081 30.102 73.161 30.285C73.1138 30.468 73.03 30.6395 72.9145 30.7891C72.799 30.9387 72.6542 31.0631 72.4891 31.155C71.9852 31.5522 71.4398 31.902 70.924 32.2814C70.5565 32.56 70.1949 32.8742 69.8451 33.1469C69.6949 33.2695 69.5753 33.4256 69.4961 33.6026C69.4168 33.7796 69.38 33.9727 69.3887 34.1665C69.3887 35.1921 69.4242 36.2176 69.4717 37.2432C69.4792 37.5224 69.5591 37.7948 69.7035 38.0338C69.8479 38.2728 70.052 38.4702 70.2957 38.6067C70.8529 38.9446 71.422 39.2647 71.9793 39.6026C72.3297 39.8106 72.6682 40.0382 72.993 40.2843C73.2315 40.435 73.4086 40.6658 73.4923 40.9353C73.5759 41.2048 73.5607 41.4952 73.4494 41.7545C72.991 42.9915 72.5286 44.2246 72.0622 45.4537C71.9825 45.6408 71.881 45.8179 71.7599 45.9813C71.6486 46.18 71.4778 46.339 71.2715 46.4357C71.0653 46.5325 70.8339 46.5622 70.6099 46.5207C69.7206 46.3785 68.8314 46.2243 67.9422 46.0761H67.7406C67.3686 45.9766 66.9752 45.9912 66.6115 46.118C66.2479 46.2449 65.9308 46.4781 65.7014 46.7875C65.1975 47.3803 64.6284 47.9198 64.0889 48.483C63.8384 48.7296 63.6601 49.04 63.5734 49.3806C63.4867 49.7213 63.4948 50.0792 63.5969 50.4155C63.8162 51.2751 64.0237 52.1406 64.1897 53.0121C64.3557 53.8835 64.1897 54.334 63.3538 54.7431C62.1682 55.3359 60.9233 55.8694 59.6902 56.3911C59.5556 56.47 59.4068 56.5215 59.2522 56.5428C59.0976 56.564 58.9404 56.5545 58.7895 56.5149C58.6386 56.4752 58.497 56.4062 58.3728 56.3117C58.2486 56.2172 58.1444 56.0991 58.0659 55.9643C57.5917 55.3715 57.153 54.7312 56.7084 54.1088C55.7539 52.7631 55.5227 52.6445 53.8629 52.7275L51.9362 52.8401C51.631 52.8449 51.3322 52.9281 51.0685 53.0818C50.8048 53.2354 50.5851 53.4544 50.4305 53.7175C50.0392 54.3637 49.6657 55.0217 49.2448 55.656C49.0276 55.9851 48.7795 56.2928 48.5038 56.5749C48.3828 56.72 48.2195 56.8237 48.0367 56.8716C47.8539 56.9194 47.6607 56.9089 47.4842 56.8416L43.5953 55.3892C43.4198 55.3098 43.2529 55.2125 43.0974 55.0988C42.8967 54.9907 42.7357 54.8215 42.6377 54.6158C42.5396 54.4101 42.5096 54.1785 42.552 53.9546C42.6883 53.0713 42.8424 52.1762 42.9788 51.3166C43.0194 51.0475 43.0451 50.7764 43.0559 50.5045C43.0807 50.2858 43.0533 50.0643 42.976 49.8582C42.8988 49.6521 42.7737 49.4673 42.6112 49.3188C41.9058 48.6727 41.2063 48.0146 40.5068 47.3566C40.3096 47.1616 40.0632 47.0238 39.7938 46.958C39.5244 46.8922 39.2421 46.9009 38.9773 46.9831C38.1118 47.1906 37.2404 47.3803 36.3748 47.576H36.2741C35.1418 47.7834 34.7743 47.6352 34.2822 46.5919C33.7368 45.4063 33.2329 44.2206 32.7528 43.035C32.6755 42.8979 32.6264 42.7468 32.6082 42.5905C32.5899 42.4343 32.603 42.2759 32.6466 42.1247C32.6902 41.9735 32.7634 41.8325 32.8621 41.71C32.9607 41.5874 33.0827 41.4856 33.2211 41.4107C33.9147 40.8831 34.6201 40.3733 35.3493 39.9049C35.704 39.7022 35.9914 39.3997 36.1759 39.0351C36.3603 38.6705 36.4336 38.2597 36.3867 37.8538C36.3274 36.9349 36.3037 36.0102 36.2563 35.0854C36.2511 34.892 36.1987 34.7029 36.1036 34.5345C36.0085 34.3661 35.8737 34.2234 35.7109 34.1191C34.9462 33.627 34.1696 33.1469 33.4048 32.6489C32.8613 32.3847 32.4302 31.9347 32.1896 31.3803L32.1955 31.0187ZM61.5754 36.1821C61.577 35.0234 61.349 33.8759 60.9048 32.8058C60.4605 31.7356 59.8086 30.7641 58.9868 29.9473C58.165 29.1305 57.1896 28.4845 56.1168 28.0467C55.044 27.6089 53.8952 27.3879 52.7365 27.3966C50.4399 27.4623 48.2579 28.4144 46.6478 30.0532C45.0376 31.6921 44.1243 33.8906 44.0992 36.188C44.1085 38.4955 45.0264 40.7064 46.6541 42.3419C48.2819 43.9774 50.4884 44.9058 52.7958 44.9261C58.4453 44.932 61.8303 40.0531 61.5754 36.1821Z" fill="white"/>
<path d="M47.8161 57.1205C47.6685 57.1204 47.522 57.0943 47.3834 57.0434L46.346 56.6522C45.3975 56.3024 44.443 55.9467 43.4945 55.5851C43.3226 55.5155 43.1595 55.426 43.0084 55.3183L42.9373 55.2709C42.6905 55.1292 42.4932 54.9149 42.3723 54.6572C42.2514 54.3995 42.2127 54.1108 42.2615 53.8304C42.3267 53.4391 42.386 53.0538 42.4512 52.6448C42.5342 52.1527 42.6112 51.6607 42.6883 51.1686C42.7296 50.9116 42.7553 50.6522 42.7654 50.3921C42.7887 50.2171 42.7696 50.039 42.7097 49.873C42.6499 49.7069 42.5511 49.5576 42.4215 49.4376C41.7991 48.8448 41.1944 48.2994 40.5838 47.7244L40.3111 47.4695C40.1448 47.3144 39.9393 47.2077 39.7168 47.1607C39.4944 47.1137 39.2633 47.1282 39.0484 47.2027C38.4556 47.3509 37.8628 47.4873 37.27 47.6236L36.4697 47.8074H36.3571C35.0588 48.0445 34.5786 47.8074 34.0451 46.6573C33.5708 45.6495 33.0966 44.5588 32.5097 43.1004C32.3228 42.7639 32.2772 42.367 32.3828 41.9969C32.4884 41.6267 32.7366 41.3136 33.0729 41.1264C33.8791 40.5336 34.5608 40.0297 35.2189 39.6088C35.5295 39.4363 35.7814 39.1747 35.942 38.8577C36.1026 38.5407 36.1646 38.1829 36.1199 37.8303C36.0844 37.2375 36.0607 36.6447 36.0369 36.0993C36.0369 35.7495 36.0369 35.3998 35.9895 35.05C35.989 34.9037 35.9512 34.76 35.8796 34.6324C35.808 34.5048 35.7051 34.3975 35.5805 34.3209L34.6379 33.728L33.2685 32.8625C32.6689 32.5619 32.1961 32.0575 31.9347 31.4398C31.9314 31.4083 31.9314 31.3765 31.9347 31.3449V31.0189C31.929 30.9875 31.929 30.9554 31.9347 30.924L32.2133 30.0941C32.4326 29.4479 32.652 28.7958 32.8832 28.1497C33.061 27.6517 33.2566 27.1656 33.476 26.7151C33.606 26.3601 33.8529 26.06 34.1761 25.8639C34.4993 25.6678 34.8796 25.5875 35.2544 25.6361C35.7524 25.6954 36.2563 25.7843 36.7424 25.8673L37.5012 26.0037L37.8035 26.0511C38.0817 26.1147 38.3659 26.1485 38.6513 26.1519C38.8766 26.1576 39.0982 26.0934 39.2856 25.9681C40.1985 25.1026 41.064 24.1897 41.7635 23.4427C41.8671 23.3175 41.9376 23.1684 41.9687 23.0089C41.9998 22.8494 41.9904 22.6847 41.9414 22.5298C41.8584 22.1267 41.7695 21.7295 41.6805 21.3442C41.5679 20.8462 41.4493 20.3423 41.3486 19.8325C41.2569 19.4544 41.2229 19.0647 41.2478 18.6765C41.2613 18.4998 41.3115 18.3279 41.3952 18.1717C41.4789 18.0156 41.5943 17.8786 41.7339 17.7695C43.139 16.8537 44.6737 16.1543 46.2867 15.6946C46.5807 15.6044 46.8962 15.6136 47.1845 15.7208C47.4728 15.828 47.7177 16.0271 47.8814 16.2874L48.4742 17.1174C48.8476 17.6154 49.2271 18.1252 49.5827 18.6469C49.7364 18.889 49.9554 19.0826 50.2146 19.2054C50.4737 19.3282 50.7623 19.375 51.047 19.3404C51.6872 19.293 52.3334 19.2693 52.9796 19.2456L54.0229 19.2041C54.159 19.1971 54.2912 19.156 54.4072 19.0845C54.5232 19.013 54.6194 18.9135 54.6869 18.7951C54.9003 18.4868 55.1018 18.2022 55.2797 17.8584C55.416 17.645 55.5524 17.4257 55.6947 17.2122L55.8429 16.987C56.0918 16.6076 56.3408 16.2222 56.6076 15.8547C56.781 15.5751 57.0453 15.3636 57.3562 15.2556C57.667 15.1477 58.0055 15.1499 58.3149 15.2619C59.9688 15.8547 61.2315 16.2934 62.4172 16.7498C62.7436 16.8722 63.0164 17.1057 63.1877 17.4093C63.359 17.7128 63.4178 18.0671 63.3538 18.4097C63.3005 18.9255 63.2115 19.4412 63.1167 19.9333C63.0693 20.1882 63.0218 20.4431 62.9863 20.698C62.9215 21.045 62.8759 21.3953 62.8499 21.7473C62.825 21.9337 62.8448 22.1234 62.9076 22.3007C62.9705 22.478 63.0747 22.6378 63.2115 22.7669L63.7154 23.2412C64.2667 23.7569 64.8358 24.2845 65.3694 24.8358C65.5358 25.0148 65.7484 25.1444 65.9837 25.2103C66.2191 25.2762 66.468 25.2758 66.7032 25.2093L68.1437 24.8833C68.6417 24.7706 69.1397 24.6521 69.6376 24.5454C70.0304 24.4135 70.4588 24.4378 70.834 24.6133C71.2093 24.7888 71.5027 25.102 71.6532 25.4879C72.2104 26.6736 72.7558 27.8592 73.2716 29.0448C73.3841 29.2352 73.458 29.4458 73.4891 29.6647C73.5202 29.8836 73.5078 30.1065 73.4528 30.3206C73.3977 30.5348 73.3011 30.736 73.1683 30.9127C73.0354 31.0895 72.8691 31.2384 72.6788 31.3509C72.3824 31.588 72.086 31.8073 71.754 32.0267C71.5346 32.1808 71.3212 32.329 71.1078 32.4891C70.7166 32.7736 70.3727 33.0819 70.0407 33.3368C69.9243 33.4312 69.8319 33.5519 69.7711 33.689C69.7103 33.826 69.6828 33.9755 69.691 34.1252V34.7595C69.691 35.5717 69.7266 36.3839 69.7621 37.196C69.7683 37.4238 69.8332 37.646 69.9506 37.8413C70.0679 38.0366 70.2338 38.1982 70.432 38.3105L71.1434 38.7314C71.4694 38.9211 71.7955 39.1108 72.1215 39.3242C72.4779 39.5363 72.8222 39.7678 73.153 40.0178C73.4378 40.2108 73.6482 40.4952 73.7495 40.8239C73.8508 41.1526 73.837 41.5061 73.7103 41.8259C73.2518 43.0629 72.7894 44.2979 72.3231 45.531C72.2438 45.722 72.1423 45.9031 72.0207 46.0704C71.8789 46.3278 71.6609 46.5349 71.3965 46.6634C71.1322 46.7918 70.8346 46.8353 70.5446 46.7878L68.6239 46.4676L67.8118 46.3313H67.6576C67.3403 46.2425 67.0036 46.2516 66.6916 46.3574C66.3796 46.4632 66.1068 46.6607 65.9088 46.9241C65.5531 47.345 65.156 47.7481 64.7766 48.1097C64.6106 48.2698 64.4505 48.4358 64.2845 48.6018C64.0685 48.8129 63.9148 49.0796 63.8406 49.3725C63.7663 49.6654 63.7743 49.973 63.8636 50.2616C64.0711 51.0857 64.2905 51.9749 64.4564 52.876C64.6758 53.9312 64.409 54.4706 63.4605 54.9271C62.3579 55.4547 61.1545 56.0001 59.7851 56.581C59.4508 56.7558 59.0634 56.7998 58.6984 56.7044C58.3335 56.6091 58.0171 56.3812 57.811 56.0653C57.4138 55.5673 57.0403 55.0397 56.6787 54.5299L56.4416 54.1979C55.5464 52.9352 55.3982 52.8641 53.8569 52.9412L52.7721 53.0064L51.9303 53.0538C51.6722 53.0548 51.4189 53.1231 51.1953 53.252C50.9718 53.3809 50.7858 53.566 50.6557 53.7889C50.5253 54.0082 50.3949 54.2276 50.2704 54.4469C50.0096 54.8797 49.7547 55.3124 49.482 55.7392C49.2527 56.0822 48.9928 56.4036 48.7054 56.6996C48.5929 56.8257 48.4562 56.9279 48.3034 57.0002C48.1507 57.0725 47.985 57.1134 47.8161 57.1205V57.1205ZM39.4515 46.5447C39.686 46.5441 39.9183 46.5899 40.135 46.6794C40.3517 46.769 40.5486 46.9005 40.7142 47.0664L40.9869 47.3213C41.5798 47.9141 42.1726 48.4595 42.8187 49.0227C43.0144 49.2005 43.1653 49.4221 43.259 49.6694C43.3528 49.9166 43.3868 50.1825 43.3582 50.4454C43.3465 50.7254 43.3188 51.0045 43.2752 51.2813C43.1981 51.7792 43.1151 52.2713 43.0381 52.7633C42.9729 53.1486 42.9077 53.534 42.8484 53.9489C42.8164 54.1169 42.8396 54.2908 42.9143 54.4446C42.9891 54.5984 43.1115 54.7239 43.2633 54.8026L43.3345 54.85C43.4491 54.934 43.5723 55.0055 43.702 55.0634L46.5535 56.1305L47.5909 56.5158C47.7128 56.5675 47.8485 56.5769 47.9763 56.5425C48.1042 56.5082 48.2168 56.432 48.2963 56.3261C48.5566 56.0548 48.7927 55.7612 49.0018 55.4488C49.2685 55.0338 49.5235 54.607 49.7784 54.1801C49.9029 53.9608 50.0392 53.7355 50.1696 53.5221C50.3498 53.21 50.6091 52.9509 50.9213 52.7708C51.2335 52.5908 51.5877 52.4962 51.9481 52.4966L52.7839 52.4491L53.8747 52.3839C55.6117 52.3009 55.9614 52.4669 56.9751 53.8897L57.2123 54.2276C57.5679 54.7255 57.9355 55.2472 58.3208 55.7333C58.4458 55.9463 58.6499 56.1013 58.8886 56.1645C59.1273 56.2278 59.3813 56.1943 59.5954 56.0712C60.9588 55.4784 62.1563 54.9508 63.253 54.4291C63.9585 54.0853 64.0889 53.8363 63.9229 53.0242C63.7569 52.212 63.5257 51.2457 63.3301 50.4395C63.2197 50.0518 63.2166 49.6413 63.3209 49.252C63.4253 48.8626 63.6334 48.5088 63.9229 48.2283L64.4209 47.7244C64.7943 47.3509 65.1797 46.9597 65.5235 46.5388C65.7856 46.1853 66.1479 45.9189 66.5634 45.7741C66.9788 45.6292 67.4283 45.6127 67.8533 45.7266H67.954L68.7899 45.863L70.7047 46.1831C70.8727 46.215 71.0465 46.1919 71.2003 46.1171C71.3541 46.0423 71.4797 45.9199 71.5584 45.7681C71.6698 45.6249 71.7615 45.4674 71.831 45.2998C72.3013 44.0707 72.7637 42.8396 73.2182 41.6065C73.301 41.4045 73.3102 41.1799 73.2441 40.9718C73.178 40.7637 73.0408 40.5855 72.8566 40.4683C72.5407 40.2314 72.2122 40.0117 71.8725 39.8103L70.9063 39.2175L70.189 38.7966C69.9041 38.6337 69.6656 38.4005 69.4965 38.1192C69.3273 37.838 69.2331 37.5181 69.2227 37.1901C69.1871 36.3779 69.1693 35.5598 69.1515 34.7418V34.1075C69.1426 33.8702 69.1883 33.6341 69.2849 33.4173C69.3815 33.2005 69.5265 33.0087 69.7088 32.8566C70.0467 32.5661 70.4083 32.2638 70.8114 31.9792C71.0248 31.8192 71.2442 31.6651 71.4635 31.5109C71.6828 31.3568 72.0563 31.09 72.3646 30.8588C72.5042 30.7875 72.6271 30.6873 72.7252 30.5649C72.8233 30.4425 72.8943 30.3008 72.9335 30.1489C72.9727 29.9971 72.9793 29.8387 72.9527 29.6841C72.9262 29.5295 72.8672 29.3824 72.7795 29.2523C72.2697 28.0667 71.7243 26.881 71.173 25.6954C71.1256 25.57 71.054 25.4552 70.9622 25.3575C70.8704 25.2598 70.7602 25.1811 70.6379 25.1261C70.5157 25.071 70.3838 25.0406 70.2498 25.0366C70.1158 25.0325 69.9823 25.055 69.857 25.1026L68.3749 25.4346L66.9225 25.7665C66.5897 25.8531 66.2397 25.8487 65.9092 25.7538C65.5786 25.6589 65.2796 25.477 65.0433 25.2271C64.5157 24.6876 63.9525 24.16 63.4072 23.6502L62.9033 23.17C62.7016 22.981 62.5468 22.7475 62.4511 22.4882C62.3554 22.2289 62.3214 21.9509 62.3519 21.6761C62.3519 21.2967 62.4349 20.9233 62.4942 20.5794C62.5535 20.2356 62.5831 20.0637 62.6306 19.8028C62.7195 19.3227 62.8084 18.8188 62.8558 18.3327C62.8951 18.1252 62.8616 17.9106 62.7612 17.7249C62.6608 17.5392 62.4996 17.3938 62.3045 17.313C61.1189 16.8625 59.8681 16.406 58.22 15.8369C58.0325 15.7651 57.8255 15.7626 57.6364 15.83C57.4472 15.8974 57.2884 16.0302 57.1885 16.2045C56.9277 16.5661 56.6846 16.9395 56.4416 17.313L56.24 17.562C56.0978 17.7754 55.9614 17.9888 55.8251 18.2022C55.6176 18.5224 55.416 18.8366 55.2323 19.1507C55.1123 19.3448 54.9473 19.5071 54.7512 19.6237C54.5551 19.7404 54.3337 19.8079 54.1059 19.8206L53.0566 19.8621C52.4164 19.8621 51.7821 19.9095 51.1418 19.957C50.742 19.9971 50.3389 19.9224 49.9799 19.7419C49.6209 19.5613 49.3207 19.2822 49.1144 18.9373C48.7647 18.4275 48.3853 17.9236 48.0177 17.4316C47.8102 17.153 47.6027 16.8803 47.4249 16.5957C47.3274 16.4381 47.1793 16.3183 47.0049 16.2558C46.8304 16.1933 46.6399 16.1919 46.4645 16.2519C44.8859 16.6857 43.3841 17.3616 42.0125 18.2556C41.8872 18.3784 41.8113 18.5429 41.7991 18.718C41.7827 19.0469 41.8147 19.3765 41.8939 19.6961C41.9947 20.2 42.1074 20.698 42.22 21.196C42.3148 21.5912 42.4038 21.9864 42.4868 22.3816C42.5573 22.6308 42.5644 22.8936 42.5075 23.1462C42.4505 23.3989 42.3313 23.6332 42.1607 23.828C41.4197 24.6165 40.5601 25.5176 39.6412 26.3949C39.3479 26.6268 38.9836 26.7503 38.6098 26.7447C38.285 26.7395 37.9615 26.7037 37.6435 26.638L37.353 26.5846L36.5823 26.4542C36.1081 26.3653 35.616 26.2823 35.1359 26.2289C34.8852 26.1878 34.6281 26.2375 34.4108 26.369C34.1934 26.5004 34.0301 26.7051 33.9502 26.9463C33.7665 27.3849 33.5708 27.8651 33.3989 28.3453C33.1737 28.9915 32.9543 29.6376 32.735 30.2838L32.4682 31.0722V31.3094C32.6959 31.7705 33.0716 32.142 33.5353 32.3646C33.9977 32.6669 34.4482 32.9574 34.9047 33.2419L35.8532 33.8348C36.0547 33.9615 36.2218 34.136 36.3397 34.3429C36.4576 34.5497 36.5226 34.7824 36.529 35.0204C36.529 35.3701 36.5645 35.7199 36.5764 36.0697C36.5764 36.6625 36.6298 37.2138 36.6653 37.7888C36.7153 38.2487 36.6297 38.7132 36.4191 39.125C36.2084 39.5369 35.8819 39.8781 35.4797 40.1067C34.8395 40.5217 34.1696 40.996 33.3693 41.6006C33.2559 41.6543 33.1552 41.7314 33.0738 41.8268C32.9923 41.9222 32.932 42.0338 32.8967 42.1541C32.8614 42.2745 32.852 42.401 32.8691 42.5253C32.8862 42.6495 32.9294 42.7688 32.9958 42.8752C33.5886 44.3098 34.051 45.3946 34.5193 46.3965C34.9462 47.2976 35.1655 47.4043 36.1911 47.2146H36.28L37.0803 47.0308C37.6731 46.9004 38.2659 46.764 38.8587 46.6158C39.0521 46.565 39.2516 46.5411 39.4515 46.5447V46.5447ZM52.8314 45.2227C50.4429 45.2102 48.1565 44.253 46.4715 42.5602C44.7866 40.8675 43.8399 38.5767 43.8384 36.1882C43.8354 35.0017 44.0699 33.8267 44.528 32.7322C44.9862 31.6377 45.6587 30.646 46.506 29.8155C47.7554 28.5248 49.3635 27.6389 51.1222 27.2727C52.8808 26.9065 54.7089 27.0768 56.3696 27.7615C58.0303 28.4462 59.4472 29.6139 60.4366 31.1131C61.4261 32.6124 61.9426 34.3742 61.9192 36.1704C61.9507 37.3169 61.7518 38.458 61.3343 39.5261C60.9168 40.5943 60.2892 41.5678 59.4887 42.3891C58.6353 43.2961 57.603 44.0162 56.4571 44.5039C55.3112 44.9917 54.0766 45.2364 52.8314 45.2227V45.2227ZM52.7187 27.6932C50.5272 27.757 48.4454 28.6662 46.9091 30.2304C46.1215 31.0042 45.4953 31.9266 45.0669 32.9443C44.6384 33.9619 44.4163 35.0545 44.4134 36.1586C44.4134 38.3903 45.2971 40.5312 46.8712 42.1131C48.4454 43.6951 50.5819 44.5893 52.8136 44.6003V44.6003C53.9738 44.6088 55.1234 44.3778 56.1903 43.9219C57.2572 43.4659 58.2186 42.7948 59.0144 41.9504C59.7583 41.1867 60.342 40.2819 60.7309 39.2893C61.1198 38.2966 61.3061 37.2362 61.279 36.1704V36.1704C61.2837 35.0498 61.0656 33.9394 60.6374 32.9038C60.2091 31.8682 59.5792 30.9281 58.7843 30.1382C57.9894 29.3482 57.0454 28.7242 56.0071 28.3024C54.9689 27.8807 53.8571 27.6695 52.7365 27.6813L52.7187 27.6932Z" fill="#A1A1A1"/>
<path d="M52.2386 81.8941C51.6458 81.8171 51.4087 81.408 51.3257 80.8508C51.2598 80.361 51.1547 79.8773 51.0115 79.4043C50.93 79.1543 50.759 78.9432 50.5313 78.8115C49.9142 78.5152 49.2808 78.254 48.6343 78.029C48.4521 77.9816 48.2586 78.0071 48.0949 78.1001C47.6384 78.361 47.1997 78.6929 46.7551 78.9478C46.02 79.4162 45.694 79.4043 45.0834 78.7996C44.5676 78.2957 44.1112 77.7326 43.6191 77.205C43.5098 77.1041 43.4425 76.9658 43.4304 76.8175C43.4183 76.6693 43.4624 76.5219 43.5539 76.4047C43.8029 76.0016 44.0341 75.5866 44.3186 75.219C44.5395 74.9564 44.6767 74.6338 44.7126 74.2925C44.7485 73.9513 44.6815 73.6071 44.5202 73.3042C43.7199 71.5258 43.9807 71.757 42.1489 71.4132C41.0641 71.2057 40.9218 71.099 40.8744 70.0023C40.8744 69.3443 40.8744 68.6744 40.91 68.0104C40.8949 67.82 40.9546 67.6313 41.0763 67.4841C41.198 67.337 41.3722 67.2429 41.5621 67.222C42.0482 67.1093 42.5343 67.0263 43.0263 66.9433C43.28 66.9116 43.5206 66.8124 43.7229 66.656C43.9252 66.4995 44.0818 66.2917 44.1764 66.0541C44.3423 65.6629 44.5143 65.2716 44.6743 64.8685C44.7578 64.6702 44.7907 64.4542 44.77 64.24C44.7493 64.0258 44.6757 63.8201 44.5558 63.6414C44.2297 63.1197 43.9214 62.5802 43.6013 62.0467C43.5127 61.9266 43.4726 61.7775 43.4891 61.6291C43.5055 61.4808 43.5774 61.3441 43.6903 61.2464C44.3483 60.6002 45.0122 59.9541 45.7058 59.3435C45.7882 59.2944 45.8806 59.2647 45.976 59.2565C46.0715 59.2483 46.1676 59.2618 46.2571 59.296C46.5716 59.4466 46.873 59.623 47.1582 59.8236C47.4072 59.9837 47.6443 60.1556 47.8874 60.3157C48.059 60.4334 48.257 60.507 48.4638 60.5297C48.6707 60.5525 48.8799 60.5237 49.073 60.4461C49.6243 60.2445 50.1579 60.0074 50.6914 59.7703C50.8532 59.6914 50.9924 59.5728 51.096 59.4256C51.1997 59.2784 51.2644 59.1074 51.2842 58.9285C51.3909 58.3357 51.5391 57.7903 51.6695 57.2153C51.691 57.0907 51.7569 56.9783 51.855 56.8987C51.9531 56.8191 52.0768 56.7778 52.2031 56.7825C53.1101 56.7825 54.023 56.7825 54.9359 56.7825C55.1029 56.7743 55.2664 56.8317 55.3916 56.9425C55.5167 57.0533 55.5936 57.2086 55.6058 57.3753C55.7244 57.9029 55.8548 58.4305 55.9437 58.9641C55.9629 59.1895 56.0463 59.4048 56.1839 59.5844C56.3215 59.764 56.5076 59.9005 56.7203 59.9778C57.2716 60.1971 57.8111 60.458 58.3683 60.6595C58.5464 60.7107 58.7374 60.6916 58.9019 60.6062C59.4413 60.2979 59.9511 59.9422 60.4847 59.628C61.119 59.2545 61.2198 59.2486 61.7652 59.7466C62.2776 60.2056 62.7644 60.6925 63.2235 61.2049C63.3216 61.2884 63.4021 61.3907 63.4604 61.5056C63.5187 61.6205 63.5535 61.7459 63.5629 61.8744C63.5723 62.003 63.556 62.1321 63.515 62.2543C63.4741 62.3764 63.4092 62.4893 63.3243 62.5862C63.016 63.096 62.684 63.5939 62.358 64.0978C62.2872 64.193 62.2437 64.3057 62.2323 64.4237C62.2208 64.5418 62.2417 64.6607 62.2928 64.7677C62.5536 65.3605 62.7907 66.0008 63.0871 66.5936C63.2068 66.7901 63.3946 66.9357 63.6147 67.0026C64.0815 67.1292 64.5544 67.2321 65.0316 67.3109C65.8852 67.4769 66.152 67.7674 66.1757 68.6329C66.1757 69.2257 66.1757 69.8481 66.1757 70.4587C66.1757 71.0693 65.9326 71.3776 65.2687 71.5199C64.8122 71.6147 64.3617 71.6918 63.9052 71.7748C63.6797 71.8007 63.4652 71.8863 63.2839 72.0228C63.1025 72.1593 62.9609 72.3418 62.8737 72.5514C62.6307 73.1442 62.3876 73.6955 62.192 74.2765C62.1647 74.3754 62.1575 74.4788 62.1707 74.5807C62.1839 74.6825 62.2174 74.7806 62.269 74.8693C62.5536 75.3791 62.9034 75.8533 63.1998 76.3572C63.5555 76.9501 63.5495 77.1161 63.0753 77.6437C62.6068 78.1625 62.1121 78.6572 61.5932 79.1257C61.0834 79.5762 60.9411 79.5762 60.3602 79.2324C59.9215 78.9775 59.4947 78.6989 59.0856 78.4084C58.9001 78.2598 58.6759 78.1674 58.4395 78.1422C58.2032 78.117 57.9645 78.16 57.7518 78.2661L56.5662 78.8056C56.3527 78.8994 56.1672 79.047 56.0279 79.2341C55.8887 79.4211 55.8004 79.6412 55.7718 79.8726C55.7185 80.1572 55.677 80.4655 55.6236 80.7381C55.511 81.3606 55.4043 81.989 54.5506 81.9653L52.2386 81.8941ZM53.6673 74.3772C54.4584 74.4514 55.2536 74.2861 55.9496 73.903C56.6134 73.5454 57.192 73.0485 57.6458 72.4463C58.0995 71.8442 58.4177 71.151 58.5784 70.4143C58.7391 69.6777 58.7386 68.915 58.5769 68.1785C58.4152 67.4421 58.0962 66.7493 57.6416 66.1478C57.1871 65.5462 56.6078 65.05 55.9436 64.6933C55.2793 64.3366 54.5458 64.1278 53.7932 64.0812C53.0407 64.0345 52.287 64.1512 51.5838 64.4232C50.8806 64.6952 50.2445 65.1161 49.7192 65.6569C48.4624 66.973 48.2016 68.5499 48.4031 70.2631C48.432 70.623 48.5265 70.9746 48.6817 71.3005C49.7192 73.2865 51.1894 74.5077 53.6673 74.3772Z" fill="white"/>
<path d="M54.5921 82.1784H52.2208C51.9023 82.138 51.6084 81.986 51.3913 81.7494C51.1742 81.5127 51.0481 81.2069 51.0352 80.886C50.972 80.4104 50.8709 79.9406 50.7328 79.4811C50.6714 79.3066 50.5549 79.1568 50.4009 79.0542C49.7934 78.7624 49.17 78.5051 48.5335 78.2836C48.4341 78.2694 48.3327 78.2859 48.243 78.331C47.9348 78.5029 47.6502 78.6986 47.3479 78.8942L46.9151 79.1728C46.0496 79.7241 45.5754 79.6767 44.8699 78.989C44.5557 78.6748 44.2771 78.3369 43.9688 78.0168C43.7851 77.8034 43.5954 77.59 43.376 77.3825C43.2145 77.233 43.1147 77.0285 43.096 76.8092C43.0774 76.5899 43.1413 76.3715 43.2753 76.1969L43.459 75.9005C43.6379 75.5825 43.8358 75.2756 44.0518 74.9816C44.2416 74.7612 44.3593 74.4878 44.389 74.1985C44.4186 73.9091 44.3589 73.6176 44.2178 73.3632L44.0222 72.9186C43.5717 71.9108 43.5717 71.9108 42.5402 71.733L42.0837 71.65C40.9277 71.4306 40.6254 71.235 40.572 69.9664C40.572 69.2847 40.572 68.6207 40.6076 67.939C40.5976 67.6842 40.6824 67.4348 40.8455 67.2388C41.0086 67.0429 41.2385 66.9143 41.4909 66.8778C41.9236 66.7771 42.3623 66.7 42.7951 66.6289L42.967 66.5992C43.172 66.5761 43.367 66.4977 43.5309 66.3724C43.6948 66.2471 43.8216 66.0796 43.8977 65.8878L43.9511 65.7515C44.1052 65.4076 44.2534 65.0579 44.3957 64.7081C44.4629 64.5539 44.4889 64.3849 44.4713 64.2176C44.4536 64.0503 44.3928 63.8905 44.2949 63.7537L43.7495 62.8408L43.3405 62.1531C43.2121 61.9738 43.155 61.7531 43.1802 61.534C43.2054 61.3149 43.3111 61.113 43.4768 60.9675C44.0696 60.3747 44.7869 59.6929 45.4983 59.0586C45.6234 58.97 45.7688 58.9143 45.9211 58.8967C46.0734 58.8791 46.2277 58.9001 46.3697 58.9578C46.6315 59.0765 46.8816 59.2194 47.1167 59.3847L47.3123 59.5092L47.6858 59.7581L48.0415 60.0012C48.1732 60.09 48.3242 60.1461 48.482 60.1646C48.6398 60.1832 48.7997 60.1637 48.9485 60.1079C49.4583 59.9123 49.9563 59.6988 50.5491 59.438C50.6692 59.38 50.7718 59.2914 50.8468 59.1811C50.9217 59.0708 50.9662 58.9426 50.9759 58.8096C51.053 58.4006 51.1537 57.9975 51.2486 57.624L51.3672 57.1142C51.4045 56.9254 51.5068 56.7556 51.6562 56.6344C51.8056 56.5131 51.9928 56.4479 52.1852 56.4502H54.2304H54.924C55.1573 56.4425 55.385 56.522 55.5626 56.6733C55.7402 56.8247 55.855 57.0368 55.8844 57.2683L55.9733 57.6714C56.0682 58.0686 56.1571 58.4717 56.2282 58.8571C56.2389 59.0321 56.3008 59.2001 56.4062 59.3403C56.5116 59.4805 56.6559 59.5866 56.821 59.6455L57.5028 59.936C57.8229 60.0723 58.143 60.2087 58.4631 60.3272C58.5611 60.35 58.664 60.3374 58.7536 60.2917C59.0441 60.1257 59.3464 59.9419 59.6191 59.7581C59.8918 59.5744 60.0874 59.4617 60.3305 59.3194C61.0774 58.8748 61.3205 58.8986 61.9548 59.4677C62.4765 59.9419 62.9744 60.4399 63.4368 60.9497C63.677 61.1671 63.825 61.4681 63.8503 61.7911C63.8757 62.114 63.7765 62.4344 63.5732 62.6866C63.2946 63.1431 62.9804 63.5877 62.7136 64.0382L62.601 64.2042C62.558 64.2589 62.5308 64.3242 62.5225 64.3932C62.5141 64.4622 62.5249 64.5322 62.5535 64.5955C62.6365 64.7812 62.7136 64.965 62.7847 65.1468C62.9626 65.5677 63.1404 66.0005 63.3479 66.4036C63.4257 66.5306 63.5484 66.6238 63.6918 66.6644C64.0308 66.7615 64.3752 66.8387 64.7232 66.8956L65.0849 66.9668C66.0749 67.1624 66.4365 67.5596 66.4661 68.5673C66.4661 69.1602 66.4661 69.753 66.4661 70.4169C66.4824 70.5807 66.4654 70.746 66.4161 70.903C66.3669 71.06 66.2864 71.2055 66.1795 71.3306C66.0727 71.4557 65.9416 71.558 65.7943 71.6312C65.6469 71.7044 65.4863 71.7471 65.322 71.7567C64.9248 71.8397 64.5217 71.9108 64.1364 71.982L63.9704 72.0116C63.7942 72.0283 63.6258 72.0921 63.4829 72.1965C63.3399 72.3008 63.2278 72.4417 63.1582 72.6044C62.8974 73.1972 62.6721 73.7545 62.4824 74.3058C62.4611 74.4174 62.48 74.5329 62.5358 74.6318C62.684 74.8986 62.85 75.1535 63.0159 75.4084C63.1819 75.6633 63.3242 75.8768 63.4665 76.1198C63.8933 76.849 63.8637 77.1394 63.3064 77.756C62.8315 78.2823 62.3289 78.7829 61.8007 79.2558C61.2079 79.7893 60.9233 79.8486 60.2179 79.3981C59.7792 79.1372 59.3464 78.8586 58.9255 78.5563C58.7816 78.4398 58.6069 78.3676 58.4227 78.3487C58.2385 78.3297 58.0527 78.3648 57.8881 78.4496L57.2953 78.6986L56.661 78.9831C56.4928 79.0592 56.3467 79.1771 56.2368 79.3254C56.1268 79.4738 56.0565 79.6477 56.0326 79.8308L55.9615 80.2576C55.9615 80.4058 55.914 80.5541 55.8844 80.7023C55.8014 81.3425 55.6473 82.1784 54.5921 82.1784ZM52.2623 81.5856H54.5446C55.1019 81.5856 55.1967 81.3306 55.3272 80.6074L55.3983 80.1687L55.4694 79.736C55.5102 79.4586 55.6201 79.196 55.789 78.9723C55.9578 78.7485 56.1802 78.5708 56.4357 78.4555L57.0819 78.165L57.6391 77.916C57.8993 77.789 58.1899 77.7372 58.4779 77.7665C58.766 77.7959 59.0401 77.9051 59.2694 78.082C59.6725 78.3725 60.0934 78.6452 60.5202 78.8942C60.947 79.1432 61.0004 79.1787 61.4035 78.823C61.9164 78.3625 62.4051 77.8757 62.8677 77.3647C63.2531 76.9379 63.2471 76.926 62.9507 76.4221C62.8144 76.1909 62.6662 75.9657 62.518 75.7345C62.3698 75.5033 62.1742 75.2069 62.02 74.9283C61.8833 74.6827 61.8471 74.3937 61.9192 74.122C62.1149 73.5292 62.3461 72.9957 62.6128 72.3791C62.7195 72.1245 62.8912 71.9023 63.1107 71.7348C63.3302 71.5673 63.5899 71.4604 63.8637 71.4247L64.0356 71.3891C64.4268 71.3239 64.824 71.2528 65.2212 71.1698C65.7607 71.0572 65.8792 70.9149 65.897 70.3873C65.897 69.7945 65.897 69.1542 65.897 68.6088C65.897 67.8975 65.7132 67.7137 64.99 67.5714L64.6343 67.5003C64.2662 67.4413 63.9019 67.3601 63.5436 67.2572C63.2415 67.1566 62.9893 66.9446 62.8381 66.6644C62.6247 66.2376 62.4409 65.7989 62.2453 65.3662C62.1682 65.1883 62.0971 65.0045 62.02 64.8267C61.9494 64.6739 61.9204 64.5051 61.936 64.3375C61.9516 64.1699 62.0113 64.0094 62.1089 63.8723L62.2216 63.7063C62.5121 63.2676 62.8144 62.823 63.0693 62.3724C63.3242 61.9219 63.3361 61.7144 63.0041 61.3409C62.5494 60.8378 62.0685 60.359 61.5636 59.9063C61.1427 59.521 61.1427 59.521 60.6388 59.8233C60.4016 59.9597 60.1764 60.1079 59.9452 60.2561C59.714 60.4043 59.3524 60.6296 59.05 60.8015C58.9314 60.8661 58.801 60.9062 58.6666 60.9195C58.5322 60.9327 58.3964 60.9188 58.2675 60.8786C57.9355 60.7541 57.6036 60.6118 57.2775 60.4754C57.0522 60.3747 56.8329 60.2798 56.6076 60.1909C56.3485 60.0945 56.1216 59.9272 55.9528 59.7082C55.7841 59.4891 55.6803 59.2271 55.6532 58.9519C55.588 58.5606 55.4991 58.1753 55.4101 57.7663L55.3153 57.3632C55.2501 57.0668 55.1256 56.9956 54.9359 57.0075H54.2482H52.209C52.1789 57.0042 52.1485 57.007 52.1195 57.0158C52.0906 57.0245 52.0637 57.039 52.0404 57.0584C52.0172 57.0777 51.9981 57.1016 51.9843 57.1285C51.9704 57.1554 51.9622 57.1848 51.96 57.215L51.8355 57.7248C51.7406 58.122 51.6458 58.5132 51.5746 58.9104C51.5485 59.1387 51.4638 59.3563 51.3287 59.5422C51.1937 59.7281 51.013 59.876 50.804 59.9715C50.2112 60.2383 49.6954 60.4577 49.1678 60.6533C48.9334 60.7437 48.6807 60.7764 48.431 60.7485C48.1813 60.7207 47.9419 60.6331 47.7332 60.4932C47.6087 60.4162 47.4842 60.3272 47.3657 60.2442L47.004 60.0071L46.8025 59.8708C46.5957 59.7286 46.3776 59.6037 46.1504 59.4973C46.0681 59.4674 45.9778 59.4674 45.8955 59.4973C45.2019 60.0901 44.532 60.7659 43.9036 61.3824C43.8719 61.4077 43.8456 61.4391 43.8263 61.4748C43.8069 61.5104 43.795 61.5496 43.7911 61.59C43.7872 61.6304 43.7915 61.6711 43.8037 61.7098C43.8159 61.7485 43.8358 61.7843 43.8621 61.8152L44.2712 62.5088C44.449 62.8111 44.6269 63.1016 44.8106 63.4099C44.9745 63.6349 45.0762 63.8992 45.1053 64.176C45.1345 64.4529 45.0901 64.7325 44.9766 64.9868C44.8284 65.3424 44.6802 65.6922 44.5261 66.042L44.4727 66.1724C44.3541 66.4532 44.1654 66.6988 43.9245 66.8857C43.6837 67.0725 43.3989 67.1944 43.0974 67.2394H42.9196C42.5046 67.3106 42.0718 67.3817 41.6569 67.4825C41.3367 67.5536 41.2419 67.6663 41.23 67.9923C41.1945 68.6563 41.1708 69.3084 41.1945 69.9605C41.236 70.903 41.2715 70.909 42.226 71.0927L42.6706 71.1698C43.9511 71.401 44.04 71.4721 44.5913 72.7111L44.7869 73.1498C44.9707 73.5011 45.0468 73.8989 45.0057 74.2932C44.9646 74.6876 44.8081 75.0611 44.5557 75.3669C44.3482 75.6396 44.1763 75.9301 43.9629 76.2324L43.7791 76.5407C43.7494 76.569 43.7256 76.603 43.7094 76.6407C43.6932 76.6784 43.6849 76.719 43.6849 76.76C43.6849 76.8011 43.6932 76.8417 43.7094 76.8794C43.7256 76.9171 43.7494 76.9511 43.7791 76.9794C43.9807 77.1869 44.1704 77.4062 44.372 77.6196C44.6565 77.9397 44.9648 78.2658 45.2493 78.5622C45.7532 79.0602 45.9192 79.0779 46.5535 78.6748L46.9803 78.3962C47.2886 78.1947 47.5731 77.9931 47.9111 77.8034C48.1499 77.6714 48.4312 77.6395 48.6936 77.7145C49.3494 77.9449 49.9925 78.2101 50.6202 78.5088C50.92 78.6809 51.1458 78.9574 51.2545 79.2854C51.4024 79.7757 51.5094 80.2773 51.5746 80.7853C51.6991 81.3247 51.871 81.5381 52.2623 81.5856ZM54.0407 74.6733H53.6969C51.3553 74.7919 49.648 73.7367 48.4683 71.4366C48.2995 71.0782 48.1952 70.6929 48.16 70.2984C47.9229 68.2354 48.3675 66.6941 49.5591 65.4491C50.1589 64.8129 50.9027 64.3301 51.728 64.0412C52.5533 63.7524 53.4359 63.666 54.3016 63.7893C55.4599 63.9496 56.5377 64.4726 57.3805 65.2831C58.2233 66.0937 58.7878 67.1503 58.9931 68.3015C59.1985 69.4527 59.0341 70.6393 58.5236 71.6913C58.013 72.7433 57.1826 73.6066 56.1512 74.1576C55.501 74.5297 54.7597 74.7125 54.0111 74.6852L54.0407 74.6733ZM53.6969 74.0805C54.4307 74.155 55.1696 74.0018 55.8133 73.6418C56.73 73.1482 57.4675 72.3778 57.9206 71.4403C58.3737 70.5029 58.5193 69.4464 58.3366 68.4214C58.1539 67.3964 57.6523 66.4552 56.9033 65.732C56.1543 65.0088 55.196 64.5405 54.1652 64.3939C53.3958 64.2877 52.6121 64.3673 51.8798 64.6262C51.1475 64.8851 50.4879 65.3157 49.9563 65.8819C48.8951 66.9845 48.5039 68.3717 48.7173 70.2509C48.7483 70.5728 48.8325 70.8873 48.9663 71.1817C50.0452 73.2862 51.5391 74.2169 53.6495 74.0983L53.6969 74.0805Z" fill="#A1A1A1"/>
<path d="M65.2449 63.2674C65.274 63.1629 65.3137 63.0616 65.3634 62.9651C65.4746 62.797 65.5996 62.6383 65.7369 62.4908C66.0545 62.2181 66.2621 61.8392 66.321 61.4248C66.3799 61.0103 66.2861 60.5885 66.057 60.2381C65.8621 59.9718 65.6059 59.7563 65.3101 59.6098C65.0119 59.4499 64.7029 59.3112 64.3853 59.1948C64.2884 59.16 64.2067 59.0923 64.1547 59.0034C64.1027 58.9146 64.0836 58.8102 64.1007 58.7087C64.1837 58.1159 64.2608 57.523 64.3734 56.9302C64.4034 56.857 64.4492 56.7914 64.5077 56.7381C64.5661 56.6847 64.6357 56.6451 64.7113 56.622C64.9742 56.5645 65.2426 56.5366 65.5116 56.539C65.7934 56.5384 66.0702 56.4643 66.3145 56.3239C66.5589 56.1835 66.7623 55.9818 66.9048 55.7387C67.135 55.479 67.2732 55.1506 67.2979 54.8044C67.3225 54.4582 67.2323 54.1136 67.0411 53.8239C66.5254 52.9406 66.6024 52.8576 67.4264 52.2173C67.7169 51.9862 68.0193 51.7846 68.3275 51.5593C68.359 51.5267 68.3968 51.5007 68.4386 51.483C68.4803 51.4653 68.5252 51.4562 68.5706 51.4562C68.6159 51.4562 68.6608 51.4653 68.7026 51.483C68.7444 51.5007 68.7821 51.5267 68.8136 51.5593C69.1278 51.832 69.4539 52.0869 69.774 52.3596C69.8916 52.4667 70.0334 52.5436 70.1872 52.5839C70.341 52.6241 70.5023 52.6265 70.6573 52.5908C70.8766 52.5493 71.096 52.49 71.3153 52.4426C71.5826 52.3964 71.83 52.2712 72.0254 52.0832C72.2209 51.8951 72.3556 51.6527 72.412 51.3874C72.7855 50.0714 73.0048 50.267 73.9652 50.4211C74.2853 50.4745 74.6054 50.5634 74.9256 50.6227C75.0379 50.6327 75.1426 50.6835 75.2201 50.7653C75.2976 50.8472 75.3426 50.9546 75.3465 51.0673C75.382 51.4941 75.4472 51.9209 75.4769 52.3478C75.4697 52.4673 75.4966 52.5864 75.5543 52.6913C75.612 52.7962 75.6982 52.8826 75.8029 52.9406C77.1545 53.7883 77.0182 53.8002 78.3757 53.154C78.8737 52.9169 79.0338 52.9524 79.3776 53.3615C79.7214 53.7705 79.9704 54.1321 80.255 54.5471C80.3376 54.6332 80.3837 54.7479 80.3837 54.8672C80.3837 54.9866 80.3376 55.1013 80.255 55.1874C79.9348 55.5786 79.6088 55.9699 79.3065 56.373C79.2239 56.4924 79.1881 56.6379 79.2057 56.782C79.2768 57.1436 79.3895 57.4993 79.4902 57.861C79.5332 58.0367 79.6232 58.1975 79.7506 58.3259C79.878 58.4544 80.0381 58.5457 80.2135 58.5901C80.5576 58.6946 80.8895 58.8357 81.2035 59.011C81.2827 59.0653 81.3488 59.1366 81.397 59.2197C81.4452 59.3027 81.4743 59.3955 81.4821 59.4912C81.4505 60.0415 81.3891 60.5896 81.2983 61.1333C81.2795 61.2768 81.2088 61.4085 81.0996 61.5035C80.9904 61.5985 80.8502 61.6503 80.7055 61.649C80.6266 61.6549 80.5473 61.6549 80.4684 61.649C80.032 61.6095 79.5948 61.7154 79.2249 61.9502C78.855 62.185 78.5731 62.5356 78.4232 62.9473C78.3364 63.0994 78.286 63.2695 78.2757 63.4443C78.2654 63.6191 78.2956 63.7939 78.3639 63.9551L78.7551 64.8502C78.8337 64.9816 78.8585 65.1382 78.8242 65.2874C78.79 65.4365 78.6994 65.5667 78.5714 65.6505C78.1505 65.9588 77.7355 66.273 77.3265 66.5872C77.2806 66.6291 77.2268 66.6613 77.1683 66.6819C77.1097 66.7026 77.0476 66.7112 76.9857 66.7074C76.9237 66.7035 76.8632 66.6872 76.8076 66.6594C76.7521 66.6316 76.7028 66.593 76.6625 66.5457C76.3839 66.3026 76.0697 66.0655 75.8207 65.8165C75.7139 65.7057 75.5804 65.624 75.433 65.5794C75.2857 65.5348 75.1293 65.5286 74.9789 65.5616C74.6146 65.6292 74.2559 65.7243 73.9059 65.8462C73.7155 65.9338 73.5593 66.0818 73.4613 66.2671C73.3223 66.5508 73.2149 66.849 73.1412 67.1563C73.1146 67.3483 73.0143 67.5224 72.8617 67.6419C72.709 67.7614 72.5159 67.8168 72.3231 67.7965C71.7777 67.7373 71.2323 67.6187 70.6929 67.5238C70.5792 67.5105 70.4747 67.455 70.4 67.3683C70.3253 67.2815 70.286 67.1699 70.2897 67.0555C70.2897 66.7947 70.2542 66.5398 70.2305 66.2789C70.23 66.1216 70.2141 65.9648 70.183 65.8106C69.9872 65.3724 69.6385 65.0206 69.202 64.8209C68.7656 64.6212 68.2714 64.5874 67.8118 64.7258C67.5272 64.868 67.2605 65.034 66.97 65.1526C66.9066 65.181 66.8379 65.1958 66.7684 65.1958C66.6989 65.1958 66.6302 65.181 66.5669 65.1526C66.012 64.7018 65.5763 64.1217 65.2982 63.4631C65.2735 63.3999 65.2556 63.3344 65.2449 63.2674V63.2674ZM72.8922 62.6746C73.8201 62.6607 74.7059 62.2847 75.3605 61.6268C76.015 60.969 76.3866 60.0813 76.3957 59.1533C76.4068 58.1978 76.0387 57.2769 75.3719 56.5924C74.7052 55.9079 73.7943 55.5156 72.8388 55.5015C71.8853 55.5278 70.9798 55.9256 70.3153 56.61C69.6509 57.2944 69.28 58.2113 69.282 59.1651C69.2976 60.1075 69.6865 61.0051 70.3634 61.6609C71.0403 62.3167 71.9498 62.677 72.8922 62.6628V62.6746Z" fill="white"/>
<path d="M72.3883 68.1054H72.246C71.8547 68.058 71.4635 67.9869 71.0604 67.9157L70.5743 67.8327C70.3961 67.806 70.2333 67.7168 70.1149 67.581C69.9965 67.4453 69.9303 67.2718 69.9281 67.0917L69.8925 66.6234L69.8747 66.1729C69.8838 66.0762 69.8838 65.979 69.8747 65.8824C69.7008 65.5373 69.4149 65.2615 69.0639 65.1C68.7128 64.9385 68.3174 64.9008 67.9422 64.9932L67.6517 65.1473C67.4596 65.2515 67.2617 65.3445 67.0589 65.4259C66.9453 65.4719 66.8222 65.4894 66.7003 65.477C66.5784 65.4646 66.4614 65.4227 66.3594 65.3548C65.769 64.8825 65.3047 64.2716 65.0077 63.5763C64.9857 63.523 64.9698 63.4673 64.9603 63.4103V63.3511C64.9425 63.2931 64.9425 63.2312 64.9603 63.1732L64.9899 63.0962C65.016 62.9971 65.0581 62.903 65.1144 62.8175C65.2335 62.6324 65.3684 62.4578 65.5175 62.2959C65.7887 62.069 65.9669 61.7503 66.0183 61.4004C66.0697 61.0506 65.9906 60.6941 65.7962 60.3989C65.625 60.1826 65.4085 60.0066 65.1619 59.8831C64.972 59.7762 64.7738 59.685 64.5691 59.6104L64.2489 59.4741C64.0921 59.4157 63.9607 59.3043 63.8773 59.1592C63.794 59.0142 63.764 58.8446 63.7925 58.6797L63.834 58.3477C63.9051 57.8735 63.9703 57.3814 64.0652 56.8953C64.1061 56.7673 64.1777 56.6511 64.2738 56.5571C64.3699 56.4631 64.4875 56.394 64.6165 56.3559C64.9025 56.2926 65.195 56.2627 65.4879 56.2669C65.728 56.2747 65.9655 56.2163 66.1746 56.0982C66.3837 55.98 66.5563 55.8067 66.6735 55.5971C66.8713 55.3842 66.9908 55.1103 67.0124 54.8205C67.0339 54.5307 66.9562 54.2422 66.7921 54.0024C66.1993 52.9709 66.3356 52.7219 67.2545 52.0046C67.4264 51.8742 67.6043 51.7497 67.7821 51.6252L68.1674 51.3466C68.2887 51.2446 68.4441 51.1922 68.6024 51.1999C68.7607 51.2076 68.9103 51.2748 69.0211 51.3881L69.5487 51.8268L69.9755 52.1884C70.0604 52.2645 70.1623 52.3192 70.2726 52.3481C70.3829 52.377 70.4985 52.3791 70.6098 52.3544L70.9477 52.2773L71.2679 52.2062C71.4805 52.167 71.6763 52.0646 71.8296 51.9123C71.983 51.7599 72.0868 51.5648 72.1274 51.3525C72.5009 50.0305 72.8744 49.9713 73.7636 50.1313L74.0126 50.1787C74.2023 50.1787 74.392 50.2499 74.6054 50.2973L75.0026 50.3803C75.18 50.4 75.3445 50.4825 75.4663 50.613C75.5881 50.7435 75.6591 50.9133 75.6665 51.0917C75.6665 51.2695 75.7021 51.4474 75.7199 51.6193C75.7377 51.7912 75.7792 52.1232 75.797 52.3781C75.7925 52.4467 75.8081 52.5152 75.8418 52.5751C75.8754 52.6351 75.9258 52.684 75.9867 52.716L76.2179 52.8583C77.1427 53.4511 77.1427 53.4511 78.1386 52.9768L78.2749 52.9116C78.38 52.8331 78.5007 52.7779 78.6288 52.7496C78.7569 52.7213 78.8895 52.7206 79.0179 52.7475C79.1463 52.7744 79.2675 52.8284 79.3735 52.9057C79.4794 52.9831 79.5677 53.0821 79.6325 53.1962C79.8518 53.457 80.0593 53.7356 80.2609 54.0143L80.5158 54.364C80.6391 54.5029 80.7072 54.6822 80.7072 54.8679C80.7072 55.0536 80.6391 55.2329 80.5158 55.3718L80.4743 55.4251C80.166 55.7927 79.8815 56.1662 79.5732 56.5515C79.5417 56.6033 79.5253 56.6628 79.5258 56.7234C79.5791 56.9902 79.6562 57.251 79.7273 57.5119L79.8044 57.7845C79.8349 57.9127 79.9003 58.0299 79.9935 58.1231C80.0866 58.2162 80.2038 58.2817 80.332 58.3122C80.6984 58.4176 81.0507 58.5669 81.3813 58.7568C81.5069 58.8381 81.6113 58.9484 81.6855 59.0783C81.7598 59.2083 81.8018 59.3542 81.8081 59.5037C81.8081 60.055 81.7073 60.5886 81.6243 61.1814C81.6004 61.3999 81.4937 61.6009 81.3261 61.7432C81.1585 61.8854 80.9428 61.958 80.7233 61.9461H80.6521C80.587 61.952 80.5216 61.952 80.4565 61.9461C80.0754 61.9042 79.6915 61.9935 79.3681 62.1994C79.0447 62.4053 78.8013 62.7154 78.678 63.0784C78.6093 63.1914 78.5686 63.3193 78.5593 63.4513C78.55 63.5833 78.5724 63.7156 78.6247 63.8372L78.7314 64.0862L79.0159 64.7323C79.13 64.9287 79.164 65.1613 79.1111 65.3821C79.0581 65.6029 78.9221 65.7948 78.7314 65.918C78.3164 66.2203 77.9074 66.5108 77.4983 66.8427C77.3514 66.9699 77.1613 67.0359 76.9672 67.0271C76.7731 67.0183 76.5898 66.9353 76.455 66.7953L76.1112 66.493C75.9392 66.3507 75.7673 66.2084 75.6073 66.0543C75.5344 65.9729 75.4405 65.9133 75.3359 65.8819C75.2313 65.8505 75.1201 65.8486 75.0144 65.8765L74.8485 65.912C74.5539 65.9671 74.2644 66.0464 73.9829 66.1492C73.859 66.2116 73.7575 66.311 73.6925 66.4337C73.5644 66.697 73.4651 66.9732 73.3961 67.2577C73.3522 67.4938 73.2277 67.7074 73.0439 67.862C72.8601 68.0166 72.6284 68.1026 72.3883 68.1054V68.1054ZM68.3097 64.3351C68.6543 64.3407 68.9938 64.4195 69.3056 64.5663C69.5698 64.6699 69.8084 64.8296 70.0049 65.0342C70.2014 65.2389 70.3511 65.4838 70.4438 65.752C70.4729 65.8844 70.4888 66.0195 70.4913 66.1551L70.5209 66.5938C70.5209 66.742 70.5209 66.8961 70.5565 67.0443C70.592 67.1925 70.6276 67.2399 70.7106 67.2518L71.2027 67.3407C71.5702 67.4059 71.9496 67.4771 72.3231 67.5186C72.4179 67.5186 72.6965 67.56 72.827 67.0977C72.9047 66.7701 73.018 66.4521 73.1649 66.1492C73.293 65.9011 73.5022 65.7044 73.7577 65.5919C74.0672 65.4761 74.3867 65.3888 74.7121 65.3311L74.8781 65.2896C75.0745 65.2459 75.2787 65.2529 75.4716 65.31C75.6645 65.367 75.8397 65.4722 75.9807 65.6156C76.1349 65.7579 76.3009 65.9002 76.4609 66.0365L76.8166 66.3448C76.953 66.4633 77.0063 66.4456 77.1071 66.3448C77.5161 66.0306 77.9311 65.7164 78.352 65.4081C78.5002 65.3014 78.5536 65.2066 78.4468 64.9695C78.3401 64.7323 78.2512 64.5308 78.1623 64.3174L78.0497 64.0684C77.9639 63.8678 77.9251 63.6503 77.9364 63.4324C77.9477 63.2146 78.0088 63.0022 78.1149 62.8116C78.2905 62.3457 78.614 61.9502 79.0359 61.6857C79.4577 61.4213 79.9547 61.3024 80.4506 61.3474C80.4819 61.3533 80.5141 61.3533 80.5454 61.3474H80.658C80.8952 61.3474 80.9604 61.2407 80.9841 61.0865C81.0671 60.4937 81.1382 59.9957 81.1619 59.4741C81.1447 59.3884 81.0961 59.3123 81.0256 59.2607C80.7312 59.0954 80.4189 58.9641 80.0949 58.8694C79.8729 58.8078 79.6711 58.6888 79.5097 58.5244C79.3484 58.3599 79.2333 58.1559 79.176 57.9327L79.1049 57.666C79.0278 57.3874 78.9448 57.1147 78.8915 56.8301C78.859 56.6048 78.9142 56.3757 79.0456 56.1899C79.3361 55.7986 79.6384 55.4192 79.9585 55.0398L80.0059 54.9865C80.0259 54.9698 80.0419 54.9489 80.0529 54.9254C80.0639 54.9018 80.0696 54.8761 80.0696 54.8501C80.0696 54.8241 80.0639 54.7984 80.0529 54.7749C80.0419 54.7513 80.0259 54.7305 80.0059 54.7138L79.7451 54.3581C79.5495 54.0913 79.3538 53.8245 79.1523 53.5696C78.9507 53.3147 78.8796 53.2614 78.5061 53.4392L78.3698 53.5044C77.1427 54.0972 77.0241 54.0972 75.874 53.3562L75.6488 53.208C75.5072 53.1277 75.3893 53.0113 75.307 52.8708C75.2248 52.7303 75.1811 52.5705 75.1804 52.4077C75.1804 52.1647 75.1389 51.9275 75.1093 51.6845C75.0797 51.4414 75.0678 51.3169 75.05 51.1391C75.0322 50.9613 75.05 50.985 74.8662 50.9553C74.6825 50.9257 74.5876 50.902 74.4513 50.8664C74.3149 50.8308 74.0956 50.7893 73.9177 50.7597L73.651 50.7123C72.987 50.5878 72.9574 50.5819 72.6965 51.5067C72.6257 51.8249 72.4625 52.115 72.2273 52.3407C71.9921 52.5664 71.6954 52.7176 71.3746 52.7753L71.0722 52.8464L70.7165 52.9235C70.5179 52.9686 70.3113 52.9652 70.1142 52.9137C69.9171 52.8621 69.7353 52.7638 69.5843 52.6271L69.1574 52.2773L68.618 51.8268C68.5824 51.7912 68.5587 51.7853 68.5587 51.7793C68.5587 51.7734 68.5587 51.7793 68.5053 51.7793L68.1082 52.0698C67.9362 52.1884 67.7702 52.3069 67.6102 52.4314C66.8988 52.9828 66.8988 52.9828 67.296 53.6586C67.5129 53.9968 67.6161 54.3954 67.5905 54.7964C67.5649 55.1974 67.4119 55.5797 67.1537 55.8875C66.9851 56.1712 66.7456 56.4062 66.4588 56.5694C66.1719 56.7325 65.8476 56.8183 65.5175 56.8183C65.2707 56.8152 65.0242 56.839 64.7825 56.8894C64.7336 56.9127 64.691 56.9473 64.658 56.9902C64.575 57.4348 64.5038 57.9209 64.4386 58.3892L64.3971 58.7212C64.3971 58.7864 64.3971 58.8398 64.5098 58.8931L64.8062 59.0176C65.0336 59.102 65.2537 59.2051 65.4642 59.3259C65.8061 59.4978 66.0996 59.7525 66.3179 60.0669C66.5787 60.4722 66.6857 60.9577 66.6194 61.4351C66.553 61.9126 66.3178 62.3505 65.9562 62.6693C65.8281 62.8023 65.713 62.9472 65.6124 63.1021C65.5906 63.1459 65.5727 63.1915 65.5591 63.2384V63.2384C65.5591 63.2384 65.5591 63.274 65.5591 63.2859C65.819 63.8991 66.2263 64.4386 66.7447 64.8568H66.8514C67.0292 64.7857 67.1952 64.6968 67.3671 64.6078L67.6754 64.4418C67.8761 64.3591 68.0929 64.3226 68.3097 64.3351V64.3351ZM72.904 62.9598C72.1327 62.9776 71.3739 62.7634 70.7257 62.345C70.0775 61.9266 69.5699 61.3233 69.2684 60.6131C68.967 59.9029 68.8857 59.1186 69.035 58.3617C69.1843 57.6048 69.5574 56.9102 70.1059 56.3677C70.8278 55.6354 71.805 55.2105 72.8329 55.1821C73.8701 55.193 74.8606 55.6148 75.5874 56.3549C76.3141 57.095 76.7178 58.093 76.7099 59.1302C76.7099 60.1418 76.3097 61.1123 75.5966 61.8298C74.8836 62.5473 73.9156 62.9535 72.904 62.9598V62.9598ZM72.904 62.367C73.7547 62.3576 74.5674 62.0131 75.1656 61.4082C75.7638 60.8033 76.0994 59.9869 76.0993 59.1362C76.1041 58.2566 75.7608 57.4109 75.1445 56.7834C74.5281 56.156 73.6887 55.7977 72.8092 55.7868V55.7868C72.3771 55.7942 71.9507 55.8866 71.5544 56.0588C71.158 56.2309 70.7995 56.4795 70.4992 56.7902C70.1989 57.101 69.9628 57.4678 69.8043 57.8698C69.6458 58.2718 69.568 58.7011 69.5754 59.1332C69.5828 59.5653 69.6752 59.9916 69.8474 60.388C70.0195 60.7843 70.2681 61.1429 70.5788 61.4432C70.8896 61.7435 71.2564 61.9796 71.6585 62.1381C72.0605 62.2966 72.4897 62.3744 72.9218 62.367H72.904Z" fill="#A1A1A1"/>
<path d="M106.564 115.098H7.10766C4.24289 115.098 1.92053 117.42 1.92053 120.285V138.46C1.92053 141.325 4.24289 143.648 7.10766 143.648H106.564C109.429 143.648 111.751 141.325 111.751 138.46V120.285C111.751 117.42 109.429 115.098 106.564 115.098Z" fill="white"/>
<path d="M106.564 143.938H7.10175C5.649 143.938 4.25575 143.361 3.2285 142.334C2.20125 141.306 1.62415 139.913 1.62415 138.46V120.279C1.62415 118.826 2.20125 117.433 3.2285 116.406C4.25575 115.378 5.649 114.801 7.10175 114.801H106.564C108.017 114.801 109.41 115.378 110.437 116.406C111.465 117.433 112.042 118.826 112.042 120.279V138.46C112.042 139.913 111.465 141.306 110.437 142.334C109.41 143.361 108.017 143.938 106.564 143.938ZM7.10175 115.376C5.8067 115.378 4.56515 115.893 3.64941 116.809C2.73368 117.724 2.21853 118.966 2.21696 120.261V138.443C2.21853 139.738 2.73368 140.979 3.64941 141.895C4.56515 142.811 5.8067 143.326 7.10175 143.327H106.564C107.859 143.326 109.101 142.811 110.016 141.895C110.932 140.979 111.447 139.738 111.449 138.443V120.279C111.447 118.984 110.932 117.742 110.016 116.827C109.101 115.911 107.859 115.396 106.564 115.394L7.10175 115.376Z" fill="#313B44"/>
<path d="M13.765 111.95C13.8441 110.848 13.6098 109.746 13.0892 108.772C12.5798 108.126 12.1048 107.453 11.6664 106.757C11.0736 105.47 11.4826 103.947 11.3404 102.53C11.2156 101.344 10.6933 100.234 9.85833 99.3821C9.11731 98.6292 8.16288 98.1194 7.4515 97.3369C6.26587 96.0564 5.95761 94.2543 5.29959 92.6537C4.36242 90.3925 2.73878 88.4827 0.657853 87.1938C1.92648 89.737 -0.960527 92.9738 0.349592 95.4933C0.764562 96.2995 1.53522 96.8804 1.85534 97.7282C2.59043 99.7793 0.148033 101.996 0.930547 104.024C1.3218 105.043 2.40666 105.63 2.91055 106.591C3.59228 107.889 3.05875 109.46 3.1121 110.924C3.18917 112.946 4.42223 114.754 5.88055 116.153C6.78755 117.024 7.80126 117.777 8.78533 118.566C9.97096 119.502 10.4571 120.492 11.4886 118.981C12.9125 116.907 13.7033 114.464 13.765 111.95V111.95Z" fill="#313B44"/>
<path d="M15.0753 113.106C14.7018 111.541 14.4291 109.845 15.0753 108.363C15.7985 106.697 17.5947 105.518 17.8022 103.71C17.9445 102.524 17.3398 101.338 17.5769 100.153C17.8141 98.9671 18.7626 98.1905 19.5569 97.3309C21.3629 95.3375 22.4374 92.7892 22.604 90.1045C23.819 91.5444 24.7993 93.1669 25.5088 94.9122C26.1312 96.6907 26.1431 98.7774 25.0879 100.331C24.7851 100.687 24.5373 101.087 24.3528 101.516C23.9971 102.666 24.9812 103.745 25.491 104.836C25.7922 105.46 25.9177 106.155 25.854 106.845C25.7903 107.536 25.5398 108.196 25.1294 108.754C24.0979 110.041 22.106 110.533 21.6021 112.11C21.4746 112.694 21.4149 113.291 21.4243 113.888C21.3162 114.926 20.8998 115.907 20.2289 116.706C19.558 117.505 18.6632 118.084 17.6599 118.37C16.4387 118.666 16.4743 118.18 16.2431 117.155C15.9289 115.815 15.4072 114.481 15.0753 113.106Z" fill="#313B44"/>
<path d="M11.1862 101.86C10.3207 98.8605 10.0005 95.7245 9.05796 92.7367C8.27722 90.4006 7.32821 88.1242 6.21838 85.9253L9.94125 87.514C11.1269 88.0179 12.4251 88.6107 12.9883 89.7786C13.9724 91.8119 12.2117 94.4144 13.2432 96.424C13.6891 97.0763 14.1804 97.6963 14.7134 98.2795C15.8101 99.8149 15.6441 101.937 15.0394 103.727C14.7845 104.492 13.6523 108.47 12.6682 107.373C12.2651 106.929 12.2295 105.281 12.0754 104.676C11.779 103.716 11.4589 102.797 11.1862 101.86Z" fill="#313B44"/>
<path d="M13.2491 141.75C12.5081 136.842 10.1784 119.543 10.1547 119.372L10.7475 119.289C10.7475 119.466 13.1187 136.759 13.836 141.661L13.2491 141.75Z" fill="#313B44"/>
<path d="M14.0733 146.392H13.4805C13.522 140.565 15.9466 118.305 17.3456 116.781L17.7843 117.178C16.8536 118.186 14.1504 138.407 14.0733 146.392Z" fill="#313B44"/>
<path d="M15.3359 145.278L14.7431 145.248C15.2944 132.686 12.6327 106.294 12.603 106.033L13.1958 105.968C13.2196 106.235 15.8932 132.669 15.3359 145.278Z" fill="#313B44"/>
<path d="M6.84094 127.688H20.7069L19.7347 143.434C19.5687 146.161 17.5472 148.271 15.1166 148.271H12.4312C10.0006 148.271 7.97915 146.161 7.81316 143.434L6.84094 127.688Z" fill="white"/>
<path d="M15.1168 148.573H12.4313C9.84664 148.573 7.6888 146.321 7.50502 143.452L6.53874 127.7C6.53572 127.659 6.54156 127.618 6.55587 127.579C6.57018 127.54 6.59264 127.505 6.62173 127.475C6.64993 127.445 6.68392 127.422 6.72163 127.405C6.75934 127.389 6.79998 127.38 6.84107 127.38H20.707C20.7915 127.382 20.8723 127.416 20.9323 127.475C20.9866 127.538 21.0161 127.618 21.0153 127.7L20.043 143.452C19.8652 146.327 17.7074 148.573 15.1168 148.573ZM7.16712 127.991L8.11562 143.404C8.27568 145.959 10.1727 147.957 12.4313 147.957H15.1168C17.3754 147.957 19.2665 145.959 19.4324 143.404L20.3809 127.991H7.16712Z" fill="#313B44"/>
<path d="M19.3789 132.752H8.15102C8.07288 132.75 7.99837 132.718 7.94311 132.663C7.88785 132.608 7.85613 132.533 7.85461 132.455C7.85461 132.376 7.88584 132.301 7.94143 132.246C7.99702 132.19 8.07241 132.159 8.15102 132.159H19.3789C19.4575 132.159 19.5329 132.19 19.5885 132.246C19.6441 132.301 19.6753 132.376 19.6753 132.455C19.6738 132.533 19.6421 132.608 19.5868 132.663C19.5316 132.718 19.4571 132.75 19.3789 132.752Z" fill="#A1A1A1"/>
<path d="M49.1857 140.304C48.6476 140.829 47.9559 141.167 47.2116 141.27C46.3342 141.27 36.8848 139.528 36.4935 140.82C36.1023 142.112 36.8729 142.764 39.1375 143.826C42.1608 145.254 52.3276 148.604 52.3276 148.604L54.5507 143.375L49.1857 140.304Z" fill="white"/>
<path d="M52.3275 148.871C52.2982 148.876 52.268 148.876 52.2386 148.871C51.8236 148.734 42.0244 145.503 39.0188 144.087C36.7187 143.002 35.7761 142.261 36.2326 140.749C36.5409 139.747 39.6591 139.984 45.3086 140.779C46.2215 140.903 46.9981 141.01 47.1997 141.01C47.8686 140.911 48.4902 140.607 48.9781 140.138C49.0199 140.092 49.0762 140.062 49.1377 140.052C49.1991 140.042 49.2621 140.054 49.316 140.085L54.6514 143.15C54.708 143.184 54.7504 143.238 54.7711 143.301C54.7917 143.364 54.7892 143.432 54.764 143.494L52.5409 148.716C52.5213 148.758 52.4914 148.794 52.4541 148.821C52.4167 148.848 52.3732 148.865 52.3275 148.871V148.871ZM38.183 140.601C37.2878 140.601 36.8136 140.702 36.7543 140.897C36.4342 141.946 36.9499 142.498 39.25 143.583C41.971 144.869 50.6321 147.732 52.1734 148.266L54.2067 143.494L49.2271 140.642C48.6647 141.14 47.9632 141.452 47.2175 141.537C46.9922 141.537 46.3816 141.46 45.2375 141.3C42.9018 140.928 40.5462 140.694 38.183 140.601V140.601Z" fill="#313B44"/>
<path d="M78.5774 145.912C78.5774 145.912 68.4403 149.392 68.0075 150.062C67.5747 150.731 68.3454 151.502 71.0368 151.739C73.7282 151.976 85.2643 151.354 85.2643 151.354C85.2643 151.354 85.4066 148.23 84.6715 146.641C83.9364 145.052 78.5774 145.912 78.5774 145.912Z" fill="white"/>
<path d="M72.9692 152.06C72.1393 152.06 71.4635 152.06 71.013 152.006C69.1634 151.84 68.0489 151.414 67.711 150.767C67.6436 150.631 67.6146 150.479 67.6271 150.328C67.6396 150.176 67.6932 150.031 67.7821 149.908C68.2267 149.22 76.0815 146.481 78.4883 145.657H78.5298C79.1227 145.563 84.1675 144.804 84.956 146.535C85.697 148.165 85.5488 151.242 85.5488 151.372C85.5473 151.44 85.5202 151.504 85.4728 151.553C85.4255 151.601 85.3615 151.63 85.2939 151.633C84.9085 151.645 77.1071 152.06 72.9692 152.06ZM78.6425 146.173C73.9 147.809 68.6121 149.783 68.2267 150.216C68.1913 150.26 68.1696 150.313 68.1644 150.369C68.1591 150.425 68.1705 150.481 68.1971 150.53C68.3631 150.874 69.2049 151.301 71.0604 151.467C73.4909 151.68 83.3257 151.182 85.0212 151.094C85.0212 150.335 85.0212 148.005 84.4639 146.748C84.0015 145.729 80.658 145.859 78.6425 146.203V146.173Z" fill="#313B44"/>
<path d="M104.851 112.904C104.851 112.904 113.15 92.2566 112.255 82.0425C111.36 71.8283 104.709 71.2236 102.397 71.0813C100.085 70.939 87.8134 69.3029 83.3377 74.7864C78.8619 80.2699 80.0179 106.692 80.0179 106.692L104.851 112.904Z" fill="#EE4937"/>
<path d="M90.2557 75.7881L91.3109 92.6893L99.2013 74.395L90.2557 75.7881Z" fill="#313B44"/>
<path d="M91.3111 92.9855H91.2636C91.1969 92.9737 91.1361 92.9398 91.091 92.8893C91.0458 92.8387 91.019 92.7745 91.0147 92.7069L89.9595 75.8058C89.9527 75.7314 89.9747 75.6573 90.0211 75.5988C90.0674 75.5403 90.1345 75.5019 90.2084 75.4916L99.154 74.0984C99.2067 74.0913 99.2603 74.0982 99.3095 74.1183C99.3586 74.1385 99.4016 74.1713 99.4341 74.2134C99.4665 74.2555 99.4873 74.3053 99.4944 74.358C99.5014 74.4107 99.4944 74.4643 99.4741 74.5134L91.5838 92.8076C91.5613 92.8611 91.5233 92.9067 91.4747 92.9384C91.4261 92.9701 91.3691 92.9865 91.3111 92.9855ZM90.5641 76.037L91.5304 91.4501L98.7153 74.7802L90.5641 76.037Z" fill="#313B44"/>
<path d="M79.5081 101.457C72.7335 103.445 66.2908 106.426 60.3898 110.302C56.2401 113.118 48.5039 140.725 48.5039 140.725C48.5039 140.725 49.3694 145.504 54.8944 144.757L79.0042 113.48C79.0042 113.48 84.1854 101.339 79.5081 101.457Z" fill="#313B44"/>
<path d="M53.7384 145.13C52.4504 145.166 51.1904 144.749 50.177 143.954C49.1635 143.158 48.4605 142.033 48.1897 140.773C48.1809 140.73 48.1809 140.685 48.1897 140.642C48.5039 139.51 56.003 112.899 60.1942 110.053C69.1694 103.965 79.3243 101.202 79.4251 101.161C79.4743 101.155 79.5241 101.155 79.5733 101.161C79.899 101.143 80.2238 101.21 80.5157 101.356C80.8077 101.501 81.057 101.72 81.2391 101.991C83.0531 104.659 79.4251 113.254 79.2709 113.598C79.2614 113.621 79.2495 113.643 79.2354 113.663L55.096 144.934C55.0725 144.965 55.0432 144.991 55.0096 145.01C54.976 145.03 54.9388 145.042 54.9004 145.047C54.5155 145.102 54.1272 145.13 53.7384 145.13ZM48.7825 140.731C48.9129 141.324 49.9266 145.059 54.7106 144.478L78.7671 113.331C79.7926 110.907 82.1224 104.309 80.7767 102.323C80.645 102.132 80.4673 101.978 80.26 101.874C80.0527 101.77 79.8226 101.721 79.5911 101.73C78.939 101.914 69.205 104.664 60.5736 110.521C56.6195 113.201 49.2212 139.196 48.7825 140.731V140.731Z" fill="#313B44"/>
<path d="M104.851 112.904C104.851 112.904 85.7088 105.114 80.7944 104.391C80.7944 104.391 73.7754 107.011 70.1652 113.651C66.555 120.29 78.5772 145.912 78.5772 145.912C80.5529 147.078 82.8844 147.489 85.1397 147.068L85.2405 118.571C85.2405 118.571 105.444 119.976 104.851 112.904Z" fill="#313B44"/>
<path d="M83.3909 147.531C81.6361 147.539 79.913 147.063 78.4113 146.155C78.3653 146.126 78.3284 146.085 78.3046 146.037C77.8125 144.987 66.2645 120.208 69.9044 113.509C73.5443 106.81 80.6225 104.142 80.6936 104.113C80.7419 104.098 80.7936 104.098 80.8418 104.113C85.7266 104.83 104.181 112.323 104.963 112.638C105.013 112.661 105.057 112.696 105.089 112.741C105.121 112.786 105.141 112.838 105.147 112.892C105.195 113.42 105.122 113.952 104.936 114.448C104.749 114.943 104.452 115.391 104.068 115.756C100.298 119.573 87.754 119.028 85.5369 118.898L85.4361 147.08C85.4361 147.148 85.4125 147.215 85.3693 147.268C85.3261 147.32 85.2659 147.357 85.199 147.37C84.6025 147.479 83.9972 147.533 83.3909 147.531V147.531ZM78.8085 145.705C80.6388 146.741 82.7662 147.125 84.8433 146.795L84.9441 118.542C84.9446 118.502 84.9533 118.462 84.9696 118.426C84.9859 118.389 85.0095 118.356 85.0389 118.329C85.101 118.274 85.1819 118.247 85.2642 118.251C85.4065 118.251 99.7822 119.212 103.641 115.287C103.943 115.003 104.181 114.658 104.34 114.275C104.498 113.891 104.573 113.479 104.56 113.064C102.64 112.288 85.5073 105.393 80.8477 104.658C80.1126 104.949 73.7695 107.622 70.4439 113.752C67.0292 120.048 78.0793 144.134 78.8085 145.705V145.705Z" fill="#313B44"/>
<path d="M70.604 124.719C70.5345 124.72 70.467 124.696 70.4137 124.651C70.3604 124.606 70.3249 124.544 70.3135 124.476C70.1357 123.474 68.6299 114.629 69.946 113.177C72.7737 110.064 79.7274 104.919 79.7926 104.877C79.8568 104.832 79.9359 104.814 80.0133 104.826C80.0907 104.838 80.1604 104.88 80.2076 104.942C80.2308 104.973 80.2477 105.008 80.2572 105.045C80.2668 105.082 80.2689 105.121 80.2634 105.159C80.2579 105.197 80.2449 105.234 80.2251 105.267C80.2054 105.3 80.1793 105.329 80.1483 105.351C80.0772 105.405 73.1709 110.521 70.3847 113.586C69.5369 114.516 70.2483 120.699 70.8945 124.381C70.9022 124.419 70.9021 124.458 70.8943 124.496C70.8864 124.535 70.871 124.571 70.8488 124.603C70.8267 124.635 70.7984 124.662 70.7655 124.683C70.7326 124.704 70.6958 124.718 70.6574 124.725L70.604 124.719Z" fill="white"/>
<path d="M83.3378 74.7861C83.3378 74.7861 80.0239 81.153 78.0736 84.4253C76.1232 87.6976 71.8787 92.3927 71.8787 92.3927C71.8787 92.3927 56.8686 97.7281 56.7678 98.0185C56.6671 98.309 58.1906 103.354 58.1906 103.354C58.1906 103.354 73.9535 102.222 76.5678 100.983C79.1821 99.7436 84.4641 93.691 84.4641 93.691L83.3378 74.7861Z" fill="#EE4937"/>
<path d="M99.7467 54.3993C99.446 54.2814 99.131 54.2037 98.81 54.1681C97.5414 54.0199 97.5177 54.2926 96.5336 53.4686C95.0444 52.2917 93.2295 51.6005 91.3346 51.4886C87.6829 51.2456 85.0212 53.0774 85.857 57.0848C86.2555 58.6742 86.9825 60.1625 87.9912 61.4538C90.0542 64.3112 92.9708 66.9018 96.4862 67.1685C97.5296 67.2456 99.4918 67.1685 100.245 66.3149C101.31 65.0986 102.047 63.6301 102.385 62.0489C102.724 60.4676 102.652 58.8262 102.177 57.2804C101.982 56.6163 101.66 55.9963 101.229 55.4545C100.83 54.9857 100.32 54.6231 99.7467 54.3993V54.3993Z" fill="white"/>
<path d="M97.1088 67.4884C96.7827 67.4884 96.5456 67.4884 96.4626 67.4884C92.5323 67.192 89.5563 64.1508 87.7542 61.6492C86.7116 60.3297 85.9655 58.8011 85.5667 57.1675C85.1932 55.389 85.4837 53.8714 86.3966 52.8162C87.4222 51.6306 89.1829 51.0734 91.3526 51.2156C93.312 51.3272 95.1885 52.0439 96.7235 53.2668C97.3756 53.8122 97.506 53.8181 98.0454 53.8596C98.2529 53.8596 98.5078 53.8596 98.8457 53.9189C99.1906 53.9604 99.529 54.044 99.8535 54.1678C100.472 54.4055 101.022 54.7924 101.454 55.2942C101.913 55.8636 102.253 56.5185 102.456 57.2208C102.956 58.8179 103.036 60.517 102.687 62.1537C102.338 63.7905 101.572 65.3094 100.464 66.5636C99.7053 67.358 98.0454 67.4884 97.1088 67.4884ZM90.7064 51.761C89.005 51.761 87.6534 52.259 86.8472 53.1838C86.041 54.1086 85.8097 55.4246 86.1477 57.0252C86.5299 58.5755 87.2416 60.0252 88.2344 61.2757C89.9654 63.647 92.805 66.611 96.5338 66.8719C97.8142 66.9726 99.4563 66.777 100.049 66.119C101.083 64.9384 101.795 63.5115 102.116 61.9758C102.438 60.4402 102.359 58.8475 101.887 57.3513C101.706 56.7237 101.404 56.1376 100.998 55.6262C100.629 55.2001 100.161 54.8721 99.6342 54.6717V54.6717C99.3555 54.5653 99.0648 54.4936 98.7687 54.4583C98.4485 54.4228 98.2114 54.4109 98.0158 54.405C97.7017 54.4159 97.3891 54.3585 97.0994 54.2366C96.8097 54.1148 96.55 53.9316 96.3381 53.6995C94.8968 52.5598 93.1396 51.8913 91.3051 51.7847C91.1036 51.7669 90.902 51.761 90.7064 51.761Z" fill="#313B44"/>
<path d="M90.2558 70.2746V75.7878C90.675 76.6757 91.4034 77.3803 92.3047 77.7699C93.2061 78.1594 94.2185 78.2072 95.1524 77.9041C98.7567 76.9852 99.2013 74.3946 99.2013 74.3946L99.0354 64.1923C99.0354 64.1923 96.338 62.7933 97.0554 56.96C94.1084 58.2708 90.8617 58.7604 87.6592 58.3768C87.6592 58.3768 86.5506 64.7555 86.9419 67.5654C87.3332 70.3754 90.2024 70.2331 90.2558 70.2746Z" fill="white"/>
<path d="M93.8542 78.3727C93.0423 78.3641 92.2491 78.1278 91.5647 77.6908C90.8804 77.2538 90.3324 76.6336 89.9831 75.9007C89.9747 75.8636 89.9747 75.8251 89.9831 75.788V70.5416C88.0861 70.3164 86.9182 69.2789 86.687 67.5776C86.3017 64.7557 87.3628 58.5608 87.4043 58.3C87.4174 58.2255 87.4585 58.1589 87.5191 58.1137C87.5797 58.0686 87.6553 58.0482 87.7304 58.0569C90.8605 58.4255 94.0324 57.9528 96.919 56.6875C96.9674 56.6641 97.0212 56.6539 97.0749 56.6582C97.1285 56.6624 97.18 56.6809 97.2241 56.7117C97.2682 56.7425 97.3033 56.7846 97.3257 56.8334C97.3482 56.8823 97.3572 56.9363 97.3518 56.9899C96.67 62.509 99.1302 63.908 99.1717 63.9199C99.2188 63.9457 99.2583 63.9833 99.2864 64.029C99.3145 64.0748 99.3301 64.1271 99.3318 64.1807L99.4978 74.3831C99.4978 74.5491 98.9761 77.2286 95.2236 78.183C94.7771 78.3048 94.3169 78.3685 93.8542 78.3727V78.3727ZM90.5522 75.7228C90.736 76.1141 91.9809 78.4024 95.0754 77.6139C98.4603 76.7543 98.905 74.3712 98.905 74.3416L98.7449 64.3586C98.1521 63.9614 96.2551 62.26 96.7056 57.4463C93.923 58.5739 90.9072 59.0053 87.9201 58.7031C87.7185 59.948 86.9182 65.1174 87.2502 67.5242C87.4518 68.9707 88.4655 69.8125 90.1787 69.9666C90.2716 69.964 90.363 69.991 90.4395 70.0437C90.4748 70.071 90.5033 70.106 90.5228 70.1461C90.5424 70.1862 90.5524 70.2303 90.5522 70.2749V75.7228Z" fill="#313B44"/>
<path d="M96.9131 64.0388C97.0336 63.5409 97.3098 63.0944 97.7015 62.7642C98.0815 62.4789 98.5062 62.2585 98.9583 62.1121C99.1995 62.008 99.4604 61.9574 99.723 61.9639C99.9051 61.992 100.08 62.0543 100.239 62.1477C100.631 62.3367 100.944 62.6579 101.122 63.0547C101.225 63.3887 101.245 63.7426 101.181 64.0862C101.14 64.4637 101.051 64.8344 100.915 65.1889C100.77 65.5398 100.557 65.8584 100.288 66.1262C100.02 66.394 99.7 66.6055 99.3484 66.7484C98.9969 66.8914 98.6204 66.9628 98.241 66.9587C97.8615 66.9545 97.4867 66.8748 97.1384 66.7242" fill="white"/>
<path d="M98.2706 67.2512C97.8406 67.2526 97.4149 67.1658 97.0198 66.9963C96.9841 66.9814 96.9517 66.9596 96.9246 66.9321C96.8975 66.9046 96.8761 66.8719 96.8617 66.836C96.8474 66.8001 96.8403 66.7617 96.841 66.7231C96.8417 66.6844 96.8501 66.6463 96.8656 66.611C96.8811 66.5751 96.9035 66.5426 96.9316 66.5154C96.9597 66.4882 96.9928 66.4668 97.0292 66.4525C97.0656 66.4382 97.1044 66.4312 97.1435 66.4319C97.1826 66.4327 97.2211 66.4411 97.2569 66.4568C97.8924 66.7114 98.6015 66.7114 99.2369 66.4568C99.8704 66.1925 100.375 65.6902 100.642 65.0578C100.767 64.7279 100.849 64.3831 100.885 64.0322C100.943 63.7348 100.929 63.4278 100.843 63.1371C100.688 62.8093 100.424 62.5454 100.097 62.3901C99.9712 62.3143 99.8322 62.264 99.6875 62.2419C99.4732 62.2423 99.2614 62.2867 99.065 62.3723C98.6382 62.4992 98.2369 62.6998 97.8794 62.9651C97.5353 63.2497 97.2938 63.639 97.1917 64.0737C97.1833 64.1119 97.1674 64.1481 97.1449 64.1802C97.1225 64.2122 97.0939 64.2395 97.0608 64.2605C97.0277 64.2814 96.9908 64.2956 96.9523 64.3022C96.9137 64.3088 96.8742 64.3077 96.836 64.299C96.7596 64.2806 96.6933 64.2332 96.6513 64.1668C96.6092 64.1004 96.5947 64.0202 96.6107 63.9433C96.7441 63.3815 97.0561 62.878 97.5 62.5087C97.9042 62.1972 98.3595 61.9584 98.8457 61.8032C99.1275 61.6809 99.434 61.6261 99.7408 61.6432C99.962 61.6733 100.175 61.7457 100.369 61.8566C100.826 62.0752 101.189 62.4522 101.389 62.9177C101.511 63.3009 101.535 63.7084 101.46 64.1033C101.42 64.5098 101.325 64.9088 101.175 65.289C100.938 65.8673 100.534 66.3618 100.015 66.7092C99.4952 67.0566 98.8838 67.2412 98.2588 67.2393L98.2706 67.2512Z" fill="#313B44"/>
<path d="M91.6608 62.0229C91.6608 62.0229 89.7045 64.8092 90.1372 65.3131C90.57 65.817 91.8445 65.5146 91.8445 65.5146" fill="white"/>
<path d="M91.0798 65.9237C90.8653 65.9455 90.6486 65.9214 90.4442 65.8529C90.2397 65.7844 90.0522 65.6732 89.8942 65.5265C89.4021 64.9693 90.4395 63.2324 91.394 61.8748C91.4412 61.8126 91.5104 61.7706 91.5874 61.7574C91.6645 61.7442 91.7437 61.7607 91.809 61.8037C91.841 61.8261 91.8683 61.8547 91.8893 61.8878C91.9102 61.9209 91.9244 61.9577 91.931 61.9963C91.9376 62.0349 91.9365 62.0744 91.9278 62.1126C91.9191 62.1507 91.9028 62.1868 91.8801 62.2186C90.9731 63.505 90.2617 64.8804 90.3506 65.1827C90.5818 65.4376 91.3999 65.3606 91.7556 65.2776C91.8342 65.2595 91.9168 65.2734 91.9852 65.3162C92.0536 65.359 92.1021 65.4272 92.1202 65.5058C92.1383 65.5844 92.1244 65.667 92.0816 65.7354C92.0388 65.8037 91.9706 65.8523 91.892 65.8704C91.6238 65.9158 91.3516 65.9337 91.0798 65.9237Z" fill="#313B44"/>
<path d="M94.9048 62.4712C95.163 62.4553 95.3541 62.1483 95.3317 61.7856C95.3094 61.4229 95.0819 61.1418 94.8238 61.1577C94.5656 61.1736 94.3745 61.4806 94.3968 61.8433C94.4192 62.206 94.6466 62.4872 94.9048 62.4712Z" fill="#313B44"/>
<path d="M90.5398 61.8482C90.5653 61.4857 90.3768 61.1771 90.1188 61.159C89.8608 61.1408 89.6309 61.42 89.6055 61.7826C89.58 62.1451 89.7685 62.4537 90.0265 62.4718C90.2845 62.4899 90.5143 62.2108 90.5398 61.8482Z" fill="#313B44"/>
<path d="M93.125 66.7658L89.5207 66.5405C89.5207 66.5405 89.2361 68.9118 90.9612 68.9473C92.6863 68.9829 93.125 66.7658 93.125 66.7658Z" fill="#313B44"/>
<path d="M91.0206 69.2314H90.9494C90.7241 69.2282 90.5021 69.1774 90.2977 69.0824C90.0934 68.9874 89.9115 68.8503 89.7638 68.6801C89.3341 68.0368 89.151 67.2601 89.248 66.4926C89.2583 66.4177 89.2963 66.3494 89.3544 66.3012C89.4126 66.2529 89.4867 66.2281 89.5622 66.2318L93.1666 66.4571C93.2079 66.4605 93.2481 66.4723 93.2847 66.4916C93.3214 66.511 93.3538 66.5375 93.38 66.5697C93.4052 66.6033 93.4234 66.6415 93.4336 66.6823C93.4438 66.723 93.4457 66.7654 93.4393 66.8068C93.2496 67.6546 92.5382 69.2314 91.0206 69.2314ZM89.7994 66.8602C89.7629 67.3745 89.9007 67.8862 90.1906 68.3126C90.2876 68.4241 90.4081 68.5127 90.5434 68.5721C90.6787 68.6316 90.8254 68.6604 90.9731 68.6564C92.058 68.6564 92.5619 67.6071 92.7516 67.044L89.7994 66.8602Z" fill="#313B44"/>
<path d="M88.0445 64.9873C87.127 64.9928 86.2428 64.6434 85.5767 64.0123C84.9107 63.3812 84.5143 62.5172 84.4704 61.6007C84.4265 60.6841 84.7384 59.7861 85.3411 59.0942C85.9438 58.4023 86.7905 57.9701 87.7044 57.8879C88.6182 57.8056 89.5285 58.0797 90.2451 58.6529C90.9616 59.226 91.4289 60.0539 91.5493 60.9635C91.6698 61.8732 91.434 62.7941 90.8914 63.534C90.3487 64.2739 89.5411 64.7755 88.6373 64.9339C88.4416 64.9682 88.2433 64.9861 88.0445 64.9873V64.9873ZM88.0445 58.4663C87.8717 58.4654 87.6992 58.4792 87.5288 58.5078C86.7616 58.6364 86.0738 59.0563 85.6088 59.6799C85.1438 60.3035 84.9376 61.0825 85.0332 61.8545C85.1288 62.6265 85.5188 63.3317 86.1219 63.823C86.7249 64.3143 87.4944 64.5538 88.2697 64.4914C89.0451 64.429 89.7664 64.0696 90.2831 63.4882C90.7999 62.9068 91.0721 62.1483 91.0431 61.371C91.014 60.5936 90.6859 59.8576 90.1272 59.3164C89.5685 58.7752 88.8223 58.4706 88.0445 58.4663Z" fill="#313B44"/>
<path d="M94.8501 64.7202C94.1718 64.7209 93.5074 64.5276 92.9353 64.1632C92.3633 63.7987 91.9073 63.2783 91.6213 62.6633C91.3352 62.0482 91.231 61.3642 91.3209 60.6919C91.4108 60.0196 91.6911 59.387 92.1287 58.8687C92.5662 58.3505 93.1429 57.9681 93.7906 57.7668C94.4383 57.5654 95.1301 57.5535 95.7844 57.7323C96.4387 57.9112 97.0282 58.2734 97.4834 58.7763C97.9386 59.2792 98.2406 59.9017 98.3536 60.5705V60.5705C98.5139 61.497 98.3008 62.4494 97.7609 63.2192C97.221 63.9891 96.3982 64.5138 95.4725 64.6787C95.2666 64.7102 95.0583 64.724 94.8501 64.7202V64.7202ZM94.8501 58.1993C94.4196 58.2009 93.9947 58.2963 93.6048 58.4787C93.215 58.6612 92.8695 58.9264 92.5925 59.2558C92.3155 59.5853 92.1136 59.9712 92.0008 60.3866C91.888 60.802 91.867 61.237 91.9393 61.6613C91.9737 62.0715 92.0932 62.4701 92.2902 62.8316C92.4871 63.1931 92.7572 63.5096 93.0833 63.7609C93.4093 64.0123 93.7841 64.193 94.1839 64.2915C94.5836 64.39 94.9994 64.4041 95.4049 64.333C95.8104 64.2619 96.1966 64.1072 96.539 63.8786C96.8814 63.6499 97.1724 63.3525 97.3934 63.0053C97.6145 62.658 97.7608 62.2684 97.8231 61.8615C97.8853 61.4546 97.8621 61.0391 97.7549 60.6416C97.6295 59.9643 97.2722 59.3518 96.7442 58.9093C96.2163 58.4669 95.5507 58.2221 94.8619 58.217L94.8501 58.1993Z" fill="#313B44"/>
<path d="M90.2557 70.2747C90.2557 70.2747 93.6822 71.0691 95.7037 69.9131C95.7037 69.9131 93.4688 74.5311 90.2557 74.0628V70.2747Z" fill="#313B44"/>
<path d="M90.73 74.3826C90.5555 74.3824 90.3812 74.3705 90.2083 74.347C90.1387 74.3346 90.0757 74.2981 90.0302 74.2439C89.9847 74.1898 89.9596 74.1214 89.9594 74.0506V70.2744C89.9592 70.2298 89.969 70.1858 89.9882 70.1456C90.0074 70.1053 90.0354 70.0699 90.0701 70.042C90.1049 70.0141 90.1455 69.9944 90.1889 69.9843C90.2323 69.9743 90.2775 69.9741 90.321 69.9839C90.3506 69.9839 93.6585 70.7368 95.5555 69.6579C95.61 69.6257 95.6733 69.6118 95.7362 69.6182C95.7992 69.6246 95.8584 69.651 95.9053 69.6935C95.951 69.7379 95.9818 69.7953 95.9934 69.858C96.0051 69.9206 95.9971 69.9853 95.9705 70.0432C95.8816 70.227 93.8304 74.3826 90.73 74.3826ZM90.5522 73.7898C92.6211 73.9084 94.2691 71.7327 95.0101 70.5353C93.551 70.9049 92.0273 70.9413 90.5522 70.642V73.7898Z" fill="#313B44"/>
<path d="M108.93 73.571C111.734 74.0689 123.086 100.319 119.197 103.318C113.133 107.996 92.0225 103.265 92.0225 103.265L93.7476 95.1257C93.7476 95.1257 107.317 95.4992 107.513 92.7129C107.708 89.9267 99.6164 77.0271 100.701 75.1004C101.786 73.1738 108.93 73.571 108.93 73.571Z" fill="#EE4937"/>
<path d="M102.296 106.004H102.242L95.6503 104.871C95.5842 104.857 95.5246 104.822 95.4806 104.77C95.4367 104.719 95.4109 104.654 95.4072 104.587L95.1938 96.6904C95.192 96.6157 95.2184 96.543 95.2679 96.4869C95.3174 96.4309 95.3862 96.3956 95.4606 96.3881L107.317 95.1669L102.1 77.175C102.078 77.0964 102.088 77.0122 102.128 76.9411C102.168 76.8699 102.235 76.8176 102.314 76.7956C102.392 76.7736 102.476 76.7837 102.547 76.8237C102.619 76.8637 102.671 76.9304 102.693 77.009L108.028 95.3388C108.041 95.3807 108.044 95.425 108.037 95.4682C108.029 95.5114 108.012 95.5523 107.987 95.5878C107.963 95.6235 107.931 95.6536 107.894 95.6761C107.857 95.6986 107.816 95.713 107.773 95.7182L95.8222 96.9513L96.0238 104.326L102.373 105.417C102.451 105.423 102.524 105.46 102.575 105.52C102.627 105.58 102.652 105.658 102.646 105.737C102.639 105.815 102.602 105.888 102.542 105.939C102.482 105.991 102.404 106.016 102.325 106.009L102.296 106.004Z" fill="#313B44"/>
<path d="M95.2058 97.8524C92.9497 97.9883 90.6855 97.877 88.4536 97.5204C86.8026 97.1172 85.1083 96.9181 83.4088 96.9276C81.1647 97.0329 78.957 97.5347 76.8878 98.4096C76.8023 98.4375 76.7263 98.4888 76.6685 98.5578C76.4669 98.8364 76.9412 99.1091 77.2613 99.1151C78.1704 99.1407 79.0781 99.0268 79.9527 98.7771C77.8188 99.5662 75.8009 100.639 73.9534 101.966C73.74 102.115 73.5088 102.358 73.6095 102.595C73.7103 102.832 74.1431 102.791 74.4217 102.66L79.2769 100.443C78.0183 100.944 76.8522 101.651 75.8267 102.536C75.6844 102.666 75.5243 102.838 75.5658 103.028C75.637 103.354 76.1231 103.288 76.4195 103.14C77.896 102.406 79.3062 101.545 80.6344 100.567L77.6348 102.862C77.5992 103.105 77.86 103.312 78.1031 103.324C78.3522 103.308 78.5922 103.224 78.7967 103.081L82.1461 101.148L80.0594 102.613C79.7333 102.838 79.3598 103.205 79.5199 103.573C79.68 103.941 80.3498 103.875 80.7826 103.68C82.4947 102.935 84.284 102.382 86.1179 102.032C86.7612 101.818 87.428 101.682 88.1039 101.629C89.1378 101.756 90.1578 101.978 91.1509 102.293C92.6626 102.63 94.1683 102.98 95.68 103.33" fill="white"/>
<path d="M80.0416 104.16C79.9179 104.163 79.795 104.141 79.68 104.095C79.5895 104.061 79.5068 104.01 79.4365 103.944C79.3663 103.878 79.31 103.798 79.271 103.71C79.2003 103.531 79.2003 103.332 79.271 103.153L78.9508 103.336C78.7031 103.504 78.4139 103.601 78.115 103.615C78.0021 103.613 77.8909 103.587 77.7887 103.539C77.6866 103.491 77.5957 103.422 77.5221 103.336C77.4345 103.238 77.3824 103.112 77.3739 102.981C77.1012 103.129 76.8226 103.271 76.5499 103.408C76.4065 103.484 76.2488 103.531 76.0867 103.544C75.9245 103.557 75.7613 103.537 75.6074 103.485C75.53 103.451 75.4621 103.398 75.4094 103.332C75.3567 103.266 75.3209 103.188 75.305 103.105C75.287 102.991 75.2976 102.875 75.3359 102.766C75.3742 102.658 75.439 102.56 75.5244 102.483L74.5403 102.933C74.2793 103.069 73.9771 103.103 73.6926 103.028C73.621 103.003 73.5554 102.963 73.5003 102.911C73.4451 102.859 73.4015 102.796 73.3724 102.726C73.2302 102.412 73.3724 102.062 73.7993 101.771C75.0653 100.859 76.4127 100.065 77.8245 99.4001H77.3028C77.129 99.3985 76.9582 99.3544 76.8053 99.2718C76.6524 99.1891 76.522 99.0704 76.4254 98.9258C76.385 98.8452 76.3674 98.755 76.3747 98.6651C76.3821 98.5752 76.4139 98.489 76.4669 98.416C76.554 98.3044 76.6713 98.22 76.8048 98.173C78.8955 97.2841 81.1277 96.7742 83.3969 96.6672C84.9066 96.6329 86.4145 96.7902 87.8845 97.1355L88.4774 97.2541C90.6903 97.6014 92.9343 97.7088 95.1702 97.5742C95.2411 97.5741 95.3094 97.601 95.3612 97.6494C95.413 97.6979 95.4443 97.7643 95.4489 97.8351C95.4505 97.907 95.4243 97.9768 95.3757 98.0298C95.3271 98.0829 95.2598 98.115 95.188 98.1196C92.912 98.2503 90.6285 98.137 88.3766 97.7817L87.7838 97.6691C86.3564 97.3337 84.8926 97.1784 83.4266 97.2067C81.2207 97.3119 79.0509 97.8076 77.0183 98.6709L76.9115 98.7243C77.0329 98.8007 77.1715 98.8455 77.3147 98.8547C78.1835 98.8792 79.0511 98.7713 79.8875 98.5346C79.921 98.5237 79.9562 98.5195 79.9913 98.5222C80.0264 98.525 80.0607 98.5346 80.092 98.5505C80.1234 98.5665 80.1513 98.5885 80.1742 98.6153C80.1971 98.642 80.2145 98.673 80.2254 98.7065C80.2363 98.74 80.2405 98.7753 80.2377 98.8104C80.235 98.8455 80.2254 98.8797 80.2094 98.9111C80.1934 98.9424 80.1715 98.9704 80.1447 98.9932C80.1179 99.0161 80.0869 99.0335 80.0535 99.0444C77.9463 99.8305 75.9528 100.893 74.1253 102.204C73.9238 102.352 73.8645 102.471 73.8763 102.5C73.952 102.52 74.0308 102.524 74.1081 102.513C74.1854 102.502 74.2598 102.475 74.3269 102.435L78.0794 100.716C78.441 100.526 78.8145 100.36 79.1939 100.206C79.258 100.187 79.3269 100.192 79.3875 100.221C79.448 100.249 79.4961 100.299 79.5224 100.36C79.5488 100.422 79.5516 100.491 79.5304 100.554C79.5091 100.618 79.4653 100.671 79.4073 100.704L78.3165 101.202C77.4939 101.631 76.7239 102.154 76.0223 102.761C75.8386 102.921 75.8445 102.981 75.8445 102.987C76.0058 103.026 76.176 103 76.3187 102.915C77.7732 102.188 79.1617 101.335 80.4684 100.366C80.5261 100.332 80.5943 100.321 80.66 100.334C80.7256 100.347 80.7841 100.384 80.8244 100.437C80.8647 100.491 80.8839 100.557 80.8784 100.624C80.8729 100.691 80.843 100.753 80.7945 100.799L77.9312 102.993C77.9804 103.037 78.0429 103.064 78.109 103.07C78.307 103.054 78.4964 102.982 78.6544 102.862L81.9979 100.935C82.0572 100.9 82.128 100.888 82.1955 100.904C82.263 100.919 82.3218 100.96 82.3595 101.018C82.3968 101.077 82.4102 101.148 82.397 101.216C82.3838 101.285 82.3449 101.345 82.2884 101.386L80.2017 102.85C79.9349 103.04 79.68 103.307 79.7571 103.485C79.7782 103.531 79.8165 103.567 79.8638 103.585C80.1364 103.632 80.4166 103.583 80.6581 103.449C82.3968 102.694 84.2141 102.136 86.0765 101.783C86.2958 101.736 86.5033 101.676 86.7167 101.617C87.1722 101.466 87.6478 101.384 88.1276 101.374C88.8652 101.433 89.5934 101.579 90.2973 101.807C90.6174 101.89 90.9257 101.979 91.2221 102.044C92.7338 102.388 94.2454 102.732 95.7512 103.087C95.7861 103.095 95.8192 103.11 95.8483 103.13C95.8775 103.151 95.9022 103.177 95.921 103.208C95.9398 103.238 95.9523 103.272 95.9578 103.307C95.9632 103.343 95.9615 103.379 95.9527 103.413C95.9358 103.483 95.8921 103.543 95.8311 103.581C95.7701 103.619 95.6966 103.631 95.6267 103.615C94.1209 103.259 92.6152 102.915 91.1035 102.572C90.7953 102.506 90.4811 102.418 90.155 102.329C89.492 102.111 88.8054 101.974 88.1098 101.92C87.6862 101.93 87.2666 102.004 86.8649 102.139C86.6396 102.204 86.4144 102.263 86.1832 102.311C84.3594 102.658 82.5799 103.207 80.8775 103.947C80.6154 104.072 80.3315 104.144 80.0416 104.16V104.16Z" fill="#313B44"/>
<path d="M86.1889 78.0767C86.1889 78.0767 83.705 88.2138 81.4464 95.4165Z" fill="white"/>
<path d="M81.4703 95.6886H81.3873C81.3193 95.6667 81.2626 95.6191 81.2294 95.5559C81.1961 95.4928 81.189 95.4191 81.2095 95.3507C83.4207 88.2369 85.9046 78.1235 85.952 78.0227C85.9702 77.9541 86.0144 77.8952 86.0753 77.8587C86.1362 77.8222 86.2089 77.8108 86.278 77.8271C86.313 77.8347 86.346 77.8493 86.3752 77.87C86.4044 77.8907 86.4291 77.917 86.4479 77.9474C86.4667 77.9778 86.4792 78.0117 86.4846 78.047C86.4901 78.0824 86.4884 78.1185 86.4796 78.1531C86.4499 78.2539 83.9661 88.3792 81.7371 95.5107C81.7156 95.5638 81.6787 95.6091 81.6311 95.6408C81.5835 95.6725 81.5275 95.6892 81.4703 95.6886V95.6886Z" fill="#313B44"/>
<path d="M56.3883 107.646L56.5187 109.062L88.4536 113.734L88.1276 112.246L56.3883 107.646Z" fill="white"/>
<path d="M88.4536 114.03H88.4062L56.4713 109.365C56.406 109.354 56.346 109.322 56.3009 109.274C56.2557 109.226 56.2281 109.164 56.2223 109.098L56.0919 107.681C56.0872 107.636 56.0933 107.59 56.1098 107.548C56.1263 107.506 56.1527 107.468 56.1867 107.438C56.2176 107.406 56.256 107.382 56.2984 107.368C56.3409 107.355 56.3861 107.352 56.4298 107.361L88.175 111.955C88.2341 111.965 88.289 111.992 88.3324 112.033C88.3758 112.074 88.4056 112.128 88.418 112.186L88.7441 113.674C88.7526 113.722 88.75 113.77 88.7366 113.817C88.7233 113.863 88.6995 113.906 88.667 113.941C88.6392 113.969 88.606 113.992 88.5694 114.007C88.5327 114.022 88.4933 114.03 88.4536 114.03V114.03ZM56.7914 108.807L88.0742 113.378L87.8845 112.506L56.7143 107.995L56.7914 108.807Z" fill="#313B44"/>
<path d="M56.3883 107.67C56.3883 107.67 63.6562 101.44 63.8993 101.493C64.1423 101.546 96.8064 105.465 96.8064 105.465L88.1276 112.27L56.3883 107.67Z" fill="white"/>
<path d="M88.1275 112.543H88.086L56.3467 107.948C56.2896 107.941 56.236 107.917 56.1928 107.879C56.1495 107.841 56.1185 107.791 56.1037 107.735C56.0881 107.68 56.0882 107.623 56.1039 107.568C56.1196 107.514 56.1504 107.465 56.1926 107.427C63.5791 101.09 63.7866 101.149 63.9466 101.184C64.3616 101.256 85.6318 103.805 96.8182 105.144C96.8756 105.153 96.9294 105.178 96.9734 105.215C97.0174 105.253 97.0499 105.302 97.0671 105.358C97.0819 105.415 97.0797 105.475 97.0607 105.531C97.0418 105.587 97.0069 105.636 96.9604 105.672L88.3113 112.478C88.2589 112.519 88.1943 112.542 88.1275 112.543V112.543ZM57.0759 107.445L88.0445 111.932L96.0594 105.648C89.5384 104.866 65.7606 102.02 63.9407 101.777C63.3538 102.133 59.6487 105.251 57.0759 107.445Z" fill="#313B44"/>
<path d="M88.4536 113.734L96.9309 106.858L96.8064 105.441L88.1276 112.246L88.4536 113.734Z" fill="white"/>
<path d="M88.4538 114.031C88.4205 114.037 88.3863 114.037 88.353 114.031C88.3052 114.013 88.2627 113.984 88.2295 113.946C88.1963 113.907 88.1735 113.861 88.1633 113.811L87.8373 112.323C87.8254 112.269 87.8291 112.212 87.848 112.16C87.8668 112.107 87.9001 112.061 87.944 112.027L96.6227 105.227C96.6638 105.194 96.7133 105.172 96.7659 105.164C96.8185 105.157 96.8721 105.163 96.921 105.184C96.9699 105.205 97.0122 105.239 97.0432 105.282C97.0742 105.325 97.0929 105.376 97.097 105.429L97.2274 106.846C97.2327 106.895 97.2257 106.944 97.2071 106.99C97.1884 107.035 97.1587 107.075 97.1207 107.107L88.6375 113.983C88.583 114.018 88.5185 114.035 88.4538 114.031V114.031ZM88.4538 112.365L88.6316 113.201L96.6168 106.727L96.5516 106.01L88.4538 112.365Z" fill="#313B44"/>
<path d="M56.3883 107.646L50.2527 87.0811L83.9127 92.8195L88.1276 112.246L56.3883 107.646Z" fill="white"/>
<path d="M88.1275 112.542H88.086L56.3467 107.948C56.2902 107.939 56.2373 107.914 56.1943 107.877C56.1512 107.839 56.1198 107.79 56.1037 107.735L49.968 87.1759C49.9538 87.1272 49.9517 87.0758 49.962 87.0262C49.9724 86.9765 49.9948 86.9302 50.0273 86.8913C50.0609 86.8536 50.1036 86.825 50.1513 86.8084C50.1991 86.7918 50.2502 86.7877 50.3 86.7965L83.9659 92.5349C84.0243 92.5447 84.0783 92.5721 84.1207 92.6134C84.1631 92.6547 84.1918 92.708 84.2031 92.7661L88.418 112.187C88.4292 112.234 88.4286 112.283 88.4161 112.329C88.4037 112.376 88.3799 112.418 88.3468 112.453C88.3179 112.482 88.2837 112.505 88.246 112.52C88.2084 112.535 88.1681 112.543 88.1275 112.542V112.542ZM56.6194 107.379L87.7481 111.89L83.6695 93.0803L50.6735 87.4545L56.6194 107.379Z" fill="#313B44"/>
<path d="M102.604 90.4307L96.0833 89.7608C96.0444 89.7569 96.0066 89.7454 95.9721 89.7269C95.9377 89.7084 95.9072 89.6833 95.8824 89.653C95.8576 89.6228 95.8391 89.5879 95.8278 89.5504C95.8165 89.513 95.8126 89.4737 95.8165 89.4348C95.8204 89.3958 95.832 89.358 95.8504 89.3236C95.8689 89.2891 95.894 89.2586 95.9243 89.2338C95.9546 89.2091 95.9894 89.1905 96.0269 89.1792C96.0643 89.1679 96.1037 89.1641 96.1426 89.168L102.664 89.8379C102.703 89.8416 102.74 89.853 102.775 89.8714C102.81 89.8898 102.84 89.9149 102.865 89.9453C102.89 89.9756 102.908 90.0105 102.92 90.048C102.931 90.0856 102.934 90.125 102.93 90.1639C102.92 90.2415 102.88 90.3122 102.82 90.3617C102.759 90.4112 102.682 90.4359 102.604 90.4307V90.4307Z" fill="#313B44"/>
<path d="M96.9309 38.6841C96.8615 38.685 96.7939 38.661 96.7406 38.6164C96.6873 38.5718 96.6518 38.5096 96.6405 38.4411C92.5263 14.2365 69.7563 6.92114 69.531 6.85C69.4562 6.82547 69.3939 6.77273 69.3574 6.70299C69.3209 6.63324 69.313 6.55199 69.3354 6.47652C69.3587 6.40215 69.4103 6.33992 69.4791 6.30331C69.5478 6.2667 69.6283 6.25865 69.703 6.2809C69.9401 6.35203 93.0539 13.78 97.2273 38.3403C97.2395 38.4179 97.2209 38.4973 97.1755 38.5615C97.1301 38.6256 97.0616 38.6696 96.9843 38.6841H96.9309Z" fill="#313B44"/>
<path d="M98.0217 44.4693C97.9476 44.471 97.8756 44.4444 97.8205 44.3948C97.7654 44.3452 97.7313 44.2764 97.7253 44.2025C97.6127 43.0643 97.4763 41.4459 97.4763 41.4459L98.0691 41.3926C98.0691 41.3926 98.2114 43.005 98.3181 44.1432C98.3265 44.221 98.3037 44.2989 98.2549 44.36C98.206 44.4211 98.135 44.4603 98.0573 44.4693H98.0217Z" fill="#313B44"/>
</svg>
