<svg width="355" height="278" viewBox="0 0 355 278" fill="none" xmlns="http://www.w3.org/2000/svg">
<path d="M332.651 141.53H270.574C270.425 141.53 270.281 141.471 270.176 141.365C270.071 141.26 270.011 141.116 270.011 140.967C270.011 140.818 270.071 140.675 270.176 140.57C270.281 140.464 270.425 140.405 270.574 140.405H332.651C332.8 140.405 332.943 140.464 333.049 140.57C333.154 140.675 333.214 140.818 333.214 140.967C333.214 141.116 333.154 141.26 333.049 141.365C332.943 141.471 332.8 141.53 332.651 141.53Z" fill="#A1A1A1"/>
<path d="M286.403 158.169C286.253 158.169 286.11 158.109 286.005 158.004C285.899 157.898 285.84 157.755 285.84 157.606V141.451C285.84 141.302 285.899 141.159 286.005 141.053C286.11 140.948 286.253 140.889 286.403 140.889C286.552 140.889 286.695 140.948 286.8 141.053C286.906 141.159 286.965 141.302 286.965 141.451V157.606C286.965 157.755 286.906 157.898 286.8 158.004C286.695 158.109 286.552 158.169 286.403 158.169Z" fill="#A1A1A1"/>
<path d="M315.709 141.53C315.56 141.53 315.416 141.471 315.311 141.365C315.206 141.26 315.146 141.117 315.146 140.967V127.67C315.146 127.521 315.206 127.378 315.311 127.272C315.416 127.167 315.56 127.107 315.709 127.107C315.858 127.107 316.001 127.167 316.107 127.272C316.212 127.378 316.271 127.521 316.271 127.67V140.979C316.268 141.126 316.208 141.266 316.103 141.369C315.997 141.472 315.856 141.53 315.709 141.53Z" fill="#A1A1A1"/>
<path d="M66.8925 100.355H9.8775C9.72832 100.355 9.58524 100.296 9.47975 100.19C9.37427 100.085 9.315 99.9417 9.315 99.7925C9.31788 99.6442 9.37807 99.5028 9.48294 99.3979C9.58781 99.293 9.72922 99.2329 9.8775 99.23H66.8925C67.0417 99.23 67.1848 99.2892 67.2902 99.3947C67.3957 99.5002 67.455 99.6433 67.455 99.7925C67.455 99.9417 67.3957 100.085 67.2902 100.19C67.1848 100.296 67.0417 100.355 66.8925 100.355Z" fill="#A1A1A1"/>
<path d="M353.565 254.03H0.5625C0.413316 254.03 0.270241 253.971 0.164752 253.865C0.0592628 253.76 0 253.616 0 253.467C0 253.318 0.0592628 253.175 0.164752 253.07C0.270241 252.964 0.413316 252.905 0.5625 252.905H353.565C353.714 252.905 353.857 252.964 353.963 253.07C354.068 253.175 354.128 253.318 354.128 253.467C354.128 253.616 354.068 253.76 353.963 253.865C353.857 253.971 353.714 254.03 353.565 254.03Z" fill="#A1A1A1"/>
<path d="M246.06 1.0625H108.067C102.5 1.0625 97.9875 5.57547 97.9875 11.1425V266.416C97.9875 271.983 102.5 276.496 108.067 276.496H246.06C251.627 276.496 256.14 271.983 256.14 266.416V11.1425C256.14 5.57547 251.627 1.0625 246.06 1.0625Z" fill="white"/>
<path d="M246.06 277.059H108.067C105.245 277.053 102.54 275.928 100.545 273.931C98.5498 271.934 97.428 269.228 97.425 266.405V11.1425C97.428 8.32085 98.5502 5.61562 100.545 3.62041C102.541 1.6252 105.246 0.502978 108.067 0.5H246.06C248.882 0.502978 251.587 1.6252 253.582 3.62041C255.577 5.61562 256.7 8.32085 256.702 11.1425V266.405C256.7 269.228 255.578 271.934 253.583 273.931C251.588 275.928 248.883 277.053 246.06 277.059ZM108.067 1.625C105.544 1.62798 103.125 2.63167 101.341 4.4159C99.5566 6.20013 98.553 8.61922 98.55 11.1425V266.405C98.553 268.929 99.5563 271.35 101.34 273.136C103.124 274.922 105.543 275.928 108.067 275.934H246.06C248.584 275.928 251.003 274.922 252.787 273.136C254.571 271.35 255.575 268.929 255.577 266.405V11.1425C255.575 8.61922 254.571 6.20013 252.787 4.4159C251.002 2.63167 248.583 1.62798 246.06 1.625H108.067Z" fill="#313B44"/>
<path d="M248.153 29.5811H106.616V243.927H248.153V29.5811Z" fill="#EE4937"/>
<path d="M190.305 267.71H167.096C165.73 267.71 164.419 267.167 163.453 266.201C162.487 265.234 161.944 263.924 161.944 262.557V256.651C161.944 255.285 162.487 253.974 163.453 253.008C164.419 252.041 165.73 251.499 167.096 251.499H190.305C191.672 251.499 192.982 252.041 193.948 253.008C194.915 253.974 195.457 255.285 195.457 256.651V262.557C195.457 263.924 194.915 265.234 193.948 266.201C192.982 267.167 191.672 267.71 190.305 267.71ZM167.096 252.624C166.029 252.627 165.006 253.052 164.252 253.806C163.497 254.561 163.072 255.584 163.069 256.651V262.557C163.069 263.625 163.493 264.65 164.248 265.405C165.004 266.16 166.028 266.585 167.096 266.585H190.305C191.373 266.585 192.398 266.16 193.153 265.405C193.908 264.65 194.332 263.625 194.332 262.557V256.651C194.332 255.583 193.908 254.558 193.153 253.803C192.398 253.048 191.373 252.624 190.305 252.624H167.096Z" fill="#A1A1A1"/>
<path d="M188.854 15.7661H148.556C148.408 15.7632 148.267 15.703 148.162 15.5982C148.057 15.4933 147.997 15.3519 147.994 15.2036C147.994 15.0544 148.053 14.9114 148.159 14.8059C148.264 14.7004 148.407 14.6411 148.556 14.6411H188.854C189.003 14.6411 189.146 14.7004 189.252 14.8059C189.357 14.9114 189.416 15.0544 189.416 15.2036C189.416 15.3528 189.357 15.4959 189.252 15.6014C189.146 15.7069 189.003 15.7661 188.854 15.7661Z" fill="#A1A1A1"/>
<path d="M199.913 15.7661H194.513C194.363 15.7661 194.22 15.7069 194.115 15.6014C194.009 15.4959 193.95 15.3528 193.95 15.2036C193.95 15.0544 194.009 14.9114 194.115 14.8059C194.22 14.7004 194.363 14.6411 194.513 14.6411H199.913C200.062 14.6411 200.205 14.7004 200.31 14.8059C200.416 14.9114 200.475 15.0544 200.475 15.2036C200.475 15.3528 200.416 15.4959 200.31 15.6014C200.205 15.7069 200.062 15.7661 199.913 15.7661Z" fill="#A1A1A1"/>
<path d="M237.094 48.2563C240.188 48.2563 242.696 45.7479 242.696 42.6538C242.696 39.5596 240.188 37.0513 237.094 37.0513C234 37.0513 231.491 39.5596 231.491 42.6538C231.491 45.7479 234 48.2563 237.094 48.2563Z" fill="white"/>
<path d="M237.094 65.4799C240.188 65.4799 242.696 62.9716 242.696 59.8774C242.696 56.7832 240.188 54.2749 237.094 54.2749C234 54.2749 231.491 56.7832 231.491 59.8774C231.491 62.9716 234 65.4799 237.094 65.4799Z" fill="white"/>
<path d="M237.094 82.6923C240.188 82.6923 242.696 80.184 242.696 77.0898C242.696 73.9956 240.188 71.4873 237.094 71.4873C234 71.4873 231.491 73.9956 231.491 77.0898C231.491 80.184 234 82.6923 237.094 82.6923Z" fill="white"/>
<path d="M123.244 37.9624H113.119C112.97 37.9624 112.827 37.9031 112.721 37.7977C112.616 37.6922 112.556 37.5491 112.556 37.3999C112.556 37.2507 112.616 37.1076 112.721 37.0022C112.827 36.8967 112.97 36.8374 113.119 36.8374H123.244C123.393 36.8374 123.536 36.8967 123.642 37.0022C123.747 37.1076 123.806 37.2507 123.806 37.3999C123.803 37.5482 123.743 37.6896 123.638 37.7945C123.533 37.8993 123.392 37.9595 123.244 37.9624Z" fill="white"/>
<path d="M115.324 41.765C115.245 41.7641 115.167 41.7466 115.095 41.7137C115.024 41.6807 114.96 41.6331 114.908 41.5738L111.532 37.8838C111.442 37.7811 111.393 37.6491 111.393 37.5125C111.393 37.3759 111.442 37.2439 111.532 37.1413L114.908 33.1588C114.953 33.1004 115.01 33.052 115.076 33.0167C115.141 32.9814 115.213 32.96 115.287 32.9536C115.36 32.9473 115.435 32.9563 115.505 32.9799C115.575 33.0036 115.64 33.0415 115.695 33.0913C115.752 33.1379 115.799 33.1956 115.833 33.2607C115.868 33.3259 115.889 33.3973 115.895 33.4708C115.901 33.5442 115.893 33.6181 115.87 33.6882C115.847 33.7583 115.811 33.8231 115.762 33.8788L112.702 37.49L115.751 40.865C115.854 40.9702 115.912 41.1115 115.912 41.2588C115.912 41.406 115.854 41.5474 115.751 41.6525C115.691 41.6986 115.622 41.7323 115.549 41.7516C115.475 41.7709 115.399 41.7755 115.324 41.765Z" fill="white"/>
<path d="M222.93 208.546H133.999C128.817 208.546 124.616 212.747 124.616 217.929V220.28C124.616 225.462 128.817 229.663 133.999 229.663H222.93C228.112 229.663 232.313 225.462 232.313 220.28V217.929C232.313 212.747 228.112 208.546 222.93 208.546Z" fill="white"/>
<path d="M167.91 220.034C167.91 220.807 167.63 221.417 167.072 221.862C166.517 222.307 165.744 222.53 164.752 222.53C163.838 222.53 163.029 222.358 162.326 222.014V220.327C162.904 220.584 163.392 220.766 163.791 220.872C164.193 220.977 164.56 221.03 164.892 221.03C165.291 221.03 165.595 220.954 165.806 220.801C166.021 220.649 166.129 220.422 166.129 220.122C166.129 219.954 166.082 219.805 165.988 219.676C165.894 219.543 165.755 219.417 165.572 219.295C165.392 219.174 165.023 218.981 164.464 218.715C163.941 218.469 163.548 218.233 163.287 218.006C163.025 217.78 162.816 217.516 162.66 217.215C162.504 216.915 162.425 216.563 162.425 216.161C162.425 215.403 162.681 214.807 163.193 214.374C163.709 213.94 164.42 213.723 165.326 213.723C165.771 213.723 166.195 213.776 166.597 213.881C167.004 213.987 167.427 214.135 167.869 214.327L167.283 215.739C166.826 215.551 166.447 215.42 166.146 215.346C165.849 215.272 165.556 215.235 165.267 215.235C164.923 215.235 164.66 215.315 164.476 215.475C164.293 215.635 164.201 215.844 164.201 216.102C164.201 216.262 164.238 216.403 164.312 216.524C164.386 216.641 164.504 216.756 164.664 216.87C164.828 216.979 165.213 217.178 165.818 217.467C166.619 217.85 167.168 218.235 167.464 218.622C167.761 219.004 167.91 219.475 167.91 220.034ZM172.035 217.01C171.656 217.01 171.359 217.131 171.144 217.374C170.929 217.612 170.806 217.952 170.775 218.393H173.283C173.275 217.952 173.16 217.612 172.937 217.374C172.714 217.131 172.414 217.01 172.035 217.01ZM172.287 222.53C171.232 222.53 170.408 222.239 169.814 221.657C169.22 221.075 168.923 220.25 168.923 219.184C168.923 218.086 169.197 217.239 169.744 216.641C170.295 216.04 171.054 215.739 172.023 215.739C172.949 215.739 173.67 216.002 174.185 216.53C174.701 217.057 174.959 217.786 174.959 218.715V219.583H170.734C170.754 220.09 170.904 220.487 171.185 220.772C171.466 221.057 171.861 221.2 172.369 221.2C172.763 221.2 173.136 221.159 173.488 221.077C173.839 220.995 174.207 220.864 174.589 220.684V222.067C174.277 222.223 173.943 222.338 173.588 222.413C173.232 222.491 172.798 222.53 172.287 222.53ZM182.459 222.413H180.672V218.586C180.672 218.114 180.588 217.76 180.42 217.526C180.252 217.288 179.984 217.168 179.617 217.168C179.117 217.168 178.755 217.336 178.533 217.672C178.31 218.004 178.199 218.557 178.199 219.331V222.413H176.412V215.862H177.777L178.017 216.7H178.117C178.316 216.383 178.589 216.145 178.937 215.985C179.289 215.821 179.687 215.739 180.132 215.739C180.894 215.739 181.472 215.946 181.867 216.36C182.261 216.77 182.459 217.364 182.459 218.141V222.413ZM186.373 222.53C185.603 222.53 184.998 222.231 184.556 221.633C184.119 221.036 183.9 220.208 183.9 219.149C183.9 218.075 184.123 217.239 184.568 216.641C185.017 216.04 185.634 215.739 186.42 215.739C187.244 215.739 187.873 216.059 188.306 216.7H188.365C188.275 216.211 188.23 215.776 188.23 215.393V213.295H190.023V222.413H188.652L188.306 221.563H188.23C187.824 222.208 187.205 222.53 186.373 222.53ZM187 221.106C187.457 221.106 187.791 220.973 188.002 220.708C188.216 220.442 188.334 219.991 188.353 219.354V219.161C188.353 218.458 188.244 217.954 188.025 217.649C187.81 217.344 187.459 217.192 186.97 217.192C186.572 217.192 186.261 217.362 186.039 217.702C185.82 218.038 185.711 218.528 185.711 219.172C185.711 219.817 185.822 220.301 186.045 220.625C186.267 220.946 186.586 221.106 187 221.106Z" fill="#A1A1A1"/>
<path d="M53.3138 199.726C53.4661 197.511 52.9945 195.297 51.9525 193.336C51.0975 191.907 49.7925 190.782 49.0838 189.275C47.8688 186.687 48.7238 183.65 48.4313 180.77C48.1832 178.38 47.1276 176.146 45.4388 174.436C43.9425 172.929 42.0638 171.894 40.6013 170.319C38.2613 167.742 37.5863 164.109 36.2588 160.891C34.3758 156.339 31.1093 152.494 26.9213 149.9C29.475 155.03 23.67 161.544 26.3025 166.629C27.135 168.237 28.7213 169.407 29.34 171.129C30.8138 175.28 25.8525 179.701 27.4388 183.796C28.215 185.832 30.4088 187.014 31.4213 188.949C32.7938 191.57 31.7138 194.731 31.8263 197.679C31.9838 201.74 34.4588 205.385 37.4513 208.197C39.285 209.952 41.3213 211.471 43.3013 213.057C45.6638 214.947 46.6763 216.939 48.7463 213.901C51.6078 209.717 53.1944 204.793 53.3138 199.726Z" fill="#313B44"/>
<path d="M55.9012 202.055C55.1362 198.905 54.5962 195.496 55.9012 192.526C57.3412 189.151 60.9637 186.789 61.3912 183.166C61.6612 180.781 60.4575 178.374 60.93 176.022C61.4025 173.671 63.3262 172.074 64.9125 170.397C68.5504 166.387 70.713 161.256 71.0437 155.851C73.4869 158.751 75.4608 162.015 76.8937 165.526C78.1425 169.104 78.165 173.311 76.0387 176.439C75.4347 177.17 74.9384 177.985 74.565 178.857C73.845 181.175 75.8362 183.357 76.815 185.54C77.4196 186.795 77.671 188.191 77.5422 189.579C77.4134 190.966 76.9092 192.292 76.0837 193.415C74.0137 196.002 69.9975 197.015 68.9737 200.165C68.7213 201.344 68.6043 202.548 68.625 203.754C68.3986 205.836 67.5577 207.803 66.2094 209.406C64.8611 211.009 63.0664 212.174 61.0537 212.754C58.59 213.339 58.6462 212.371 58.1962 210.301C57.6337 207.511 56.565 204.822 55.9012 202.055Z" fill="#313B44"/>
<path d="M48.0712 179.431C46.3275 173.379 45.6187 167.056 43.785 161.049C42.217 156.346 40.303 151.766 38.0587 147.346L45.5625 150.53C47.97 151.542 50.5687 152.78 51.6937 155.03C53.6737 159.114 50.13 164.356 52.2 168.406C52.9312 169.812 54.2475 170.836 55.17 172.13C57.42 175.235 57.0375 179.487 55.8225 183.099C55.305 184.64 53.0325 192.661 51.0075 190.434C50.1862 189.545 50.1187 186.226 49.7812 185C49.2525 183.155 48.6112 181.31 48.0712 179.431Z" fill="#313B44"/>
<path d="M52.245 259.655C50.76 249.778 46.08 214.97 46.035 214.655L47.16 214.509C47.16 214.858 51.885 249.665 53.37 259.509L52.245 259.655Z" fill="#313B44"/>
<path d="M53.8425 269.049H52.7175C52.8075 256.55 57.8925 212.304 60.4913 209.424L61.3238 210.189C59.085 212.664 53.9325 255.594 53.8425 269.049Z" fill="#313B44"/>
<path d="M56.385 266.81L55.26 266.754C56.385 241.464 51.0075 188.341 50.9512 187.813L52.0762 187.7C52.1887 188.229 57.4987 241.43 56.385 266.81Z" fill="#313B44"/>
<path d="M39.3187 235.906H67.23L65.2725 264.155C65.1128 266.511 64.0644 268.718 62.3393 270.33C60.6142 271.943 58.3412 272.84 55.98 272.84H50.58C48.2176 272.84 45.9432 271.943 44.2163 270.331C42.4894 268.719 41.4387 266.512 41.2762 264.155L39.3187 235.906Z" fill="white"/>
<path d="M55.98 273.425H50.58C48.0735 273.417 45.6625 272.462 43.8306 270.751C41.9987 269.04 40.8813 266.7 40.7025 264.2L38.745 235.951C38.7384 235.871 38.749 235.79 38.7762 235.715C38.8033 235.639 38.8464 235.57 38.9025 235.512C38.9542 235.453 39.0184 235.407 39.0904 235.375C39.1624 235.344 39.2404 235.33 39.3188 235.332H67.23C67.3099 235.331 67.3892 235.346 67.4628 235.377C67.5364 235.408 67.6027 235.454 67.6575 235.512C67.7099 235.572 67.7498 235.642 67.7749 235.717C67.8 235.792 67.8098 235.872 67.8038 235.951L65.8575 264.155C65.687 266.662 64.5735 269.012 62.7411 270.732C60.9086 272.451 58.493 273.414 55.98 273.425ZM39.9488 236.491L41.85 264.155C42.0117 266.361 43.001 268.426 44.6198 269.934C46.2386 271.442 48.3675 272.283 50.58 272.289H55.98C58.1914 272.283 60.3189 271.442 61.9359 269.933C63.5529 268.425 64.5398 266.361 64.6988 264.155L66.6113 236.525L39.9488 236.491Z" fill="#313B44"/>
<path d="M55.1813 100.355C55.0321 100.355 54.889 100.296 54.7835 100.19C54.678 100.085 54.6188 99.9419 54.6188 99.7927V88.7114C54.6188 88.5622 54.678 88.4192 54.7835 88.3137C54.889 88.2082 55.0321 88.1489 55.1813 88.1489C55.3305 88.1489 55.4735 88.2082 55.579 88.3137C55.6845 88.4192 55.7438 88.5622 55.7438 88.7114V99.7927C55.7438 99.9419 55.6845 100.085 55.579 100.19C55.4735 100.296 55.3305 100.355 55.1813 100.355Z" fill="#A1A1A1"/>
<path d="M25.4025 119.367C25.2533 119.367 25.1102 119.308 25.0047 119.203C24.8992 119.097 24.84 118.954 24.84 118.805V99.7925C24.84 99.6433 24.8992 99.5002 25.0047 99.3947C25.1102 99.2892 25.2533 99.23 25.4025 99.23C25.5517 99.23 25.6947 99.2892 25.8002 99.3947C25.9057 99.5002 25.965 99.6433 25.965 99.7925V118.805C25.965 118.954 25.9057 119.097 25.8002 119.203C25.6947 119.308 25.5517 119.367 25.4025 119.367Z" fill="#A1A1A1"/>
<path d="M322.099 46.5127H274.376C274.227 46.5127 274.084 46.4534 273.978 46.3479C273.873 46.2425 273.814 46.0994 273.814 45.9502C273.814 45.801 273.873 45.6579 273.978 45.5524C274.084 45.447 274.227 45.3877 274.376 45.3877H322.099C322.248 45.3877 322.391 45.447 322.496 45.5524C322.602 45.6579 322.661 45.801 322.661 45.9502C322.661 46.0994 322.602 46.2425 322.496 46.3479C322.391 46.4534 322.248 46.5127 322.099 46.5127Z" fill="#A1A1A1"/>
<path d="M291.634 46.5123C291.484 46.5123 291.341 46.4531 291.236 46.3476C291.13 46.2421 291.071 46.099 291.071 45.9498V35.1836C291.071 35.0344 291.13 34.8913 291.236 34.7858C291.341 34.6804 291.484 34.6211 291.634 34.6211C291.783 34.6211 291.926 34.6804 292.031 34.7858C292.137 34.8913 292.196 35.0344 292.196 35.1836V45.9048C292.202 45.9824 292.192 46.0604 292.167 46.1339C292.142 46.2075 292.101 46.2749 292.048 46.332C291.995 46.3891 291.931 46.4346 291.86 46.4656C291.789 46.4967 291.711 46.5126 291.634 46.5123Z" fill="#A1A1A1"/>
<path d="M14.9512 99.7251C14.802 99.7251 14.659 99.6658 14.5535 99.5603C14.448 99.4548 14.3887 99.3118 14.3887 99.1626V89.0376C14.3887 88.8884 14.448 88.7453 14.5535 88.6399C14.659 88.5344 14.802 88.4751 14.9512 88.4751C15.1004 88.4751 15.2435 88.5344 15.349 88.6399C15.4545 88.7453 15.5137 88.8884 15.5137 89.0376V99.1626C15.5137 99.3118 15.4545 99.4548 15.349 99.5603C15.2435 99.6658 15.1004 99.7251 14.9512 99.7251Z" fill="#A1A1A1"/>
<path d="M301.826 53.9036C301.677 53.9036 301.534 53.8443 301.428 53.7388C301.323 53.6333 301.264 53.4903 301.264 53.3411V46.1636C301.264 46.0144 301.323 45.8713 301.428 45.7658C301.534 45.6603 301.677 45.6011 301.826 45.6011C301.975 45.6011 302.118 45.6603 302.224 45.7658C302.329 45.8713 302.389 46.0144 302.389 46.1636V53.3411C302.386 53.4894 302.326 53.6308 302.221 53.7356C302.116 53.8405 301.974 53.9007 301.826 53.9036Z" fill="#A1A1A1"/>
<path d="M212.365 70.4714L127.745 71.4087L130.431 182.017L215.051 181.08L212.365 70.4714Z" fill="white"/>
<path d="M130.342 182.284C130.285 182.264 130.235 182.227 130.199 182.179C130.163 182.13 130.143 182.072 130.142 182.013L127.45 71.4081C127.449 71.3313 127.478 71.2573 127.532 71.2024C127.586 71.1475 127.66 71.1163 127.738 71.1156L212.357 70.1743C212.396 70.173 212.435 70.1793 212.472 70.1929C212.509 70.2065 212.542 70.2271 212.571 70.2535C212.6 70.2799 212.623 70.3115 212.639 70.3467C212.656 70.3818 212.665 70.4197 212.666 70.4581L215.372 181.074C215.377 181.15 215.352 181.225 215.301 181.282C215.275 181.31 215.243 181.332 215.208 181.347C215.172 181.362 215.134 181.37 215.095 181.37L130.471 182.309C130.427 182.311 130.382 182.302 130.342 182.284ZM128.053 71.6893L130.725 181.717L214.782 180.791L212.109 70.7684L128.053 71.6893Z" fill="#313B44"/>
<path d="M210.244 69.2761L125.624 70.2134L128.311 180.822L212.931 179.885L210.244 69.2761Z" fill="white"/>
<path d="M128.223 181.09C128.165 181.072 128.115 181.036 128.079 180.988C128.043 180.941 128.022 180.884 128.02 180.824L125.331 70.2145C125.329 70.1762 125.335 70.1381 125.349 70.1024C125.363 70.0668 125.384 70.0343 125.411 70.007C125.438 69.9797 125.47 69.958 125.506 69.9434C125.541 69.9288 125.58 69.9215 125.619 69.9219L210.227 68.9768C210.266 68.9757 210.304 68.9823 210.341 68.9963C210.377 69.0102 210.411 69.0313 210.439 69.0581C210.467 69.0849 210.489 69.117 210.504 69.1524C210.52 69.1878 210.528 69.2258 210.528 69.2641L213.219 179.869C213.221 179.907 213.215 179.945 213.201 179.981C213.187 180.016 213.166 180.049 213.139 180.076C213.112 180.103 213.08 180.125 213.044 180.14C213.009 180.154 212.97 180.162 212.931 180.161L128.323 181.106L128.223 181.09ZM125.926 70.4992L128.613 180.502L212.67 179.575L209.964 69.5413L125.926 70.4992Z" fill="#313B44"/>
<path d="M208.382 67.0882L123.791 67.8438L126.232 178.411L210.822 177.655L208.382 67.0882Z" fill="white"/>
<path d="M126.476 178.541C126.419 178.521 126.37 178.485 126.334 178.438C126.298 178.391 126.277 178.334 126.273 178.276L123.582 67.6712C123.58 67.5943 123.61 67.5203 123.664 67.4654C123.718 67.4105 123.792 67.3793 123.87 67.3786L208.495 66.4392C208.572 66.4353 208.648 66.4615 208.707 66.5123C208.763 66.5684 208.795 66.643 208.798 66.7211L211.489 177.325C211.491 177.402 211.461 177.476 211.407 177.531C211.353 177.586 211.279 177.617 211.201 177.618L126.571 178.574C126.537 178.569 126.505 178.558 126.476 178.541ZM124.177 67.9558L126.856 177.98L210.914 177.054L208.213 67.0217L124.177 67.9558Z" fill="#313B44"/>
<path d="M158.981 76.9618L135.783 77.1689L136.392 104.737L159.59 104.53L158.981 76.9618Z" fill="white"/>
<path d="M159.111 76.7398L159.788 104.302L136.578 104.557L135.907 76.9965L159.116 76.7418L159.111 76.7398ZM159.305 76.1944C159.24 76.1722 159.172 76.1612 159.103 76.1619L135.894 76.4166C135.816 76.4171 135.739 76.4327 135.667 76.4628C135.596 76.4928 135.531 76.5366 135.477 76.5916C135.426 76.6486 135.387 76.7151 135.362 76.7875C135.337 76.8598 135.327 76.9365 135.332 77.013L136.004 104.592C136.007 104.71 136.048 104.825 136.12 104.921C136.192 105.017 136.292 105.089 136.406 105.128C136.471 105.15 136.539 105.161 136.607 105.161L159.817 104.906C159.973 104.905 160.122 104.842 160.23 104.732C160.338 104.623 160.397 104.475 160.393 104.321L159.704 76.7236C159.701 76.6044 159.661 76.4884 159.589 76.3914C159.518 76.2944 159.418 76.2211 159.303 76.1816L159.305 76.1944Z" fill="#A1A1A1"/>
<path d="M168.539 80.9892C168.461 80.9768 168.39 80.9342 168.343 80.8708C168.295 80.8075 168.275 80.7285 168.287 80.6513C168.299 80.5742 168.341 80.5051 168.405 80.4593C168.469 80.4136 168.549 80.3948 168.627 80.4073L185.915 80.2377C185.953 80.237 185.992 80.2438 186.028 80.2578C186.065 80.2717 186.098 80.2926 186.126 80.3191C186.155 80.3456 186.177 80.3773 186.193 80.4123C186.209 80.4473 186.218 80.485 186.219 80.5232C186.22 80.5614 186.214 80.5994 186.2 80.635C186.187 80.6705 186.166 80.703 186.139 80.7305C186.113 80.758 186.081 80.78 186.045 80.7953C186.01 80.8106 185.972 80.8188 185.933 80.8195L168.634 81.0219L168.539 80.9892Z" fill="#A1A1A1"/>
<path d="M168.689 87.4688C168.632 87.4483 168.582 87.4115 168.546 87.3632C168.511 87.3148 168.49 87.2572 168.488 87.1978C168.487 87.1595 168.493 87.1214 168.507 87.0857C168.52 87.0501 168.541 87.0176 168.568 86.9903C168.595 86.963 168.628 86.9414 168.663 86.9267C168.699 86.9121 168.738 86.9048 168.777 86.9052L193.525 86.6292C193.603 86.6285 193.678 86.6584 193.735 86.7123C193.791 86.7661 193.824 86.8396 193.826 86.9165C193.828 86.9928 193.799 87.0665 193.746 87.1216C193.694 87.1767 193.62 87.2088 193.543 87.211L168.789 87.4851C168.755 87.4853 168.721 87.4798 168.689 87.4688Z" fill="#A1A1A1"/>
<path d="M168.838 93.9503C168.782 93.9291 168.732 93.8922 168.697 93.844C168.661 93.7958 168.641 93.7385 168.638 93.6793C168.636 93.6024 168.665 93.5284 168.72 93.4735C168.774 93.4187 168.848 93.3874 168.926 93.3867L180.093 93.2587C180.172 93.2581 180.247 93.288 180.304 93.3418C180.36 93.3957 180.393 93.4692 180.395 93.5461C180.396 93.5843 180.39 93.6225 180.376 93.6581C180.362 93.6938 180.341 93.7262 180.315 93.7536C180.288 93.7809 180.255 93.8025 180.22 93.8171C180.184 93.8317 180.145 93.8391 180.106 93.8386L168.939 93.9666C168.905 93.9673 168.87 93.9618 168.838 93.9503Z" fill="#A1A1A1"/>
<path d="M184.39 93.7573C184.332 93.7382 184.282 93.7018 184.246 93.6531C184.21 93.6045 184.19 93.5461 184.19 93.4863C184.188 93.4094 184.217 93.3354 184.271 93.2805C184.325 93.2256 184.4 93.1944 184.478 93.1937L195.643 93.0712C195.72 93.0727 195.794 93.1035 195.848 93.1571C195.903 93.2108 195.935 93.2831 195.936 93.3586C195.938 93.4341 195.91 93.5069 195.857 93.5615C195.805 93.6161 195.733 93.6483 195.656 93.6511L184.491 93.7736C184.456 93.7738 184.422 93.7683 184.39 93.7573Z" fill="#A1A1A1"/>
<path d="M169.005 100.399C168.926 100.387 168.855 100.344 168.808 100.281C168.761 100.218 168.741 100.139 168.752 100.062C168.764 99.9843 168.806 99.9153 168.87 99.8695C168.934 99.8237 169.014 99.805 169.092 99.8175L186.38 99.6478C186.458 99.6472 186.534 99.6771 186.59 99.7309C186.646 99.7848 186.679 99.8583 186.681 99.9352C186.683 99.9731 186.677 100.011 186.664 100.047C186.65 100.082 186.63 100.114 186.603 100.142C186.577 100.169 186.545 100.191 186.51 100.206C186.475 100.221 186.437 100.229 186.398 100.23L169.111 100.399L169.005 100.399Z" fill="#A1A1A1"/>
<path d="M147.855 113.13C147.797 113.111 147.746 113.075 147.71 113.026C147.673 112.978 147.654 112.919 147.655 112.859C147.653 112.782 147.682 112.708 147.736 112.653C147.791 112.598 147.865 112.567 147.943 112.566L165.018 112.378C165.094 112.38 165.168 112.411 165.223 112.464C165.277 112.518 165.309 112.59 165.311 112.666C165.312 112.741 165.284 112.814 165.232 112.869C165.179 112.923 165.107 112.955 165.031 112.958L147.956 113.146L147.855 113.13Z" fill="#A1A1A1"/>
<path d="M144.611 120.01L136.948 120.095L137.094 126.128L144.757 126.043L144.611 120.01Z" fill="white"/>
<path d="M137.007 126.396C136.966 126.39 136.926 126.376 136.89 126.355C136.835 126.3 136.802 126.228 136.797 126.152L136.651 120.114C136.65 120.037 136.679 119.963 136.733 119.909C136.787 119.854 136.861 119.822 136.94 119.822L144.635 119.723C144.713 119.719 144.789 119.745 144.847 119.796C144.902 119.851 144.935 119.923 144.94 119.999L145.088 126.031C145.089 126.108 145.06 126.182 145.006 126.237C144.952 126.292 144.877 126.323 144.799 126.324L137.134 126.409C137.091 126.414 137.048 126.41 137.007 126.396ZM137.26 120.361L137.395 125.813L144.47 125.739L144.337 120.281L137.26 120.361Z" fill="#A1A1A1"/>
<path d="M144.181 109.143L136.518 109.228L136.665 115.261L144.327 115.176L144.181 109.143Z" fill="white"/>
<path d="M136.573 115.532C136.517 115.511 136.467 115.474 136.432 115.426C136.396 115.377 136.376 115.32 136.373 115.261L136.225 109.229C136.223 109.152 136.253 109.078 136.307 109.023C136.361 108.968 136.435 108.937 136.513 108.936L144.179 108.851C144.257 108.851 144.333 108.881 144.389 108.934C144.445 108.988 144.478 109.062 144.48 109.139L144.628 115.171C144.629 115.248 144.6 115.322 144.546 115.377C144.492 115.431 144.417 115.463 144.339 115.463L136.696 115.556C136.654 115.557 136.612 115.549 136.573 115.532ZM136.826 109.497L136.959 114.955L144.036 114.875L143.901 109.423L136.826 109.497Z" fill="#A1A1A1"/>
<path d="M148.098 123.26C148.041 123.239 147.992 123.202 147.957 123.154C147.921 123.106 147.9 123.048 147.897 122.989C147.896 122.912 147.925 122.838 147.979 122.783C148.033 122.729 148.108 122.697 148.186 122.697L165.262 122.503C165.34 122.503 165.416 122.533 165.473 122.587C165.529 122.64 165.562 122.714 165.563 122.791C165.565 122.829 165.559 122.867 165.545 122.903C165.531 122.938 165.51 122.971 165.483 122.998C165.456 123.026 165.424 123.047 165.388 123.062C165.353 123.076 165.314 123.084 165.275 123.083L148.198 123.277C148.164 123.277 148.13 123.272 148.098 123.26Z" fill="#A1A1A1"/>
<path d="M180.164 109.485L172.501 109.57L172.648 115.603L180.311 115.518L180.164 109.485Z" fill="white"/>
<path d="M172.557 115.873C172.5 115.854 172.449 115.817 172.414 115.769C172.378 115.72 172.358 115.662 172.357 115.602L172.209 109.57C172.205 109.532 172.209 109.494 172.222 109.458C172.234 109.423 172.254 109.39 172.28 109.362C172.306 109.334 172.337 109.311 172.373 109.295C172.408 109.28 172.447 109.273 172.486 109.274L180.135 109.183C180.213 109.183 180.289 109.212 180.345 109.266C180.401 109.32 180.434 109.394 180.436 109.471L180.583 115.503C180.585 115.541 180.579 115.579 180.565 115.615C180.551 115.65 180.53 115.683 180.504 115.71C180.477 115.738 180.444 115.759 180.408 115.774C180.373 115.788 180.334 115.796 180.295 115.795L172.635 115.882L172.557 115.873ZM172.81 109.839L172.945 115.291L180.016 115.209L179.881 109.757L172.81 109.839Z" fill="#A1A1A1"/>
<path d="M183.65 112.732C183.591 112.714 183.54 112.678 183.504 112.629C183.468 112.58 183.449 112.521 183.449 112.461C183.448 112.384 183.477 112.31 183.531 112.255C183.585 112.201 183.659 112.169 183.737 112.169L200.812 111.981C200.889 111.982 200.963 112.013 201.017 112.067C201.072 112.121 201.103 112.193 201.105 112.268C201.107 112.344 201.078 112.417 201.026 112.471C200.974 112.526 200.902 112.558 200.825 112.561L183.75 112.749L183.65 112.732Z" fill="#A1A1A1"/>
<path d="M180.407 119.614L172.745 119.699L172.891 125.732L180.554 125.647L180.407 119.614Z" fill="white"/>
<path d="M172.802 125.998C172.744 125.978 172.694 125.942 172.658 125.893C172.622 125.845 172.602 125.787 172.601 125.727L172.457 119.684C172.456 119.607 172.485 119.533 172.539 119.478C172.593 119.424 172.667 119.392 172.746 119.392L180.396 119.314C180.474 119.315 180.549 119.345 180.605 119.399C180.661 119.452 180.694 119.525 180.697 119.601L180.845 125.633C180.85 125.71 180.824 125.784 180.773 125.841C180.719 125.896 180.646 125.928 180.568 125.93L172.902 126.015C172.868 126.015 172.834 126.01 172.802 125.998ZM173.055 119.963L173.19 125.416L180.259 125.34L180.133 119.878L173.055 119.963Z" fill="#A1A1A1"/>
<path d="M183.894 122.856C183.836 122.837 183.786 122.8 183.75 122.752C183.714 122.703 183.694 122.645 183.694 122.585C183.694 122.508 183.724 122.435 183.777 122.381C183.831 122.326 183.905 122.294 183.982 122.292L201.057 122.104C201.134 122.106 201.207 122.137 201.262 122.19C201.317 122.244 201.348 122.316 201.35 122.392C201.351 122.467 201.323 122.54 201.271 122.595C201.219 122.649 201.146 122.682 201.07 122.684L183.995 122.872C183.961 122.873 183.927 122.867 183.894 122.856Z" fill="#A1A1A1"/>
<path d="M201.335 133.603L137.299 134.312L137.762 153.381L201.798 152.671L201.335 133.603Z" fill="white"/>
<path d="M137.67 153.653C137.629 153.64 137.591 153.617 137.562 153.585C137.533 153.559 137.51 153.528 137.494 153.493C137.479 153.458 137.47 153.42 137.47 153.382L137.004 134.317C137 134.239 137.026 134.162 137.077 134.103C137.104 134.077 137.136 134.056 137.171 134.042C137.206 134.027 137.243 134.02 137.281 134.02L201.333 133.301C201.372 133.3 201.41 133.306 201.447 133.32C201.483 133.334 201.516 133.355 201.545 133.382C201.573 133.409 201.595 133.441 201.61 133.476C201.626 133.512 201.634 133.55 201.634 133.588L202.095 152.664C202.1 152.741 202.075 152.815 202.024 152.872C201.999 152.901 201.967 152.924 201.931 152.939C201.896 152.955 201.857 152.962 201.818 152.961L137.774 153.658C137.74 153.663 137.704 153.661 137.67 153.653ZM137.594 134.618L138.045 153.109L201.505 152.382L201.053 133.896L137.594 134.618Z" fill="#A1A1A1"/>
<path d="M137.307 138.682C137.229 138.668 137.158 138.625 137.112 138.562C137.065 138.498 137.046 138.419 137.058 138.342C137.071 138.265 137.114 138.197 137.178 138.151C137.242 138.106 137.322 138.088 137.4 138.102L201.432 137.387C201.47 137.387 201.509 137.393 201.545 137.407C201.582 137.421 201.615 137.442 201.643 137.469C201.671 137.495 201.694 137.527 201.71 137.562C201.726 137.597 201.735 137.635 201.736 137.673C201.737 137.711 201.731 137.749 201.717 137.785C201.704 137.82 201.683 137.853 201.656 137.88C201.63 137.908 201.598 137.93 201.562 137.945C201.527 137.96 201.489 137.968 201.45 137.969L137.408 138.698L137.307 138.682Z" fill="#A1A1A1"/>
<path d="M155.405 153.453C155.348 153.434 155.298 153.399 155.262 153.351C155.226 153.304 155.205 153.247 155.203 153.188L154.739 134.117C154.737 134.078 154.743 134.04 154.756 134.003C154.77 133.967 154.791 133.934 154.817 133.906C154.844 133.878 154.877 133.855 154.913 133.84C154.949 133.825 154.987 133.816 155.027 133.816C155.066 133.816 155.105 133.823 155.142 133.838C155.179 133.853 155.212 133.875 155.24 133.902C155.268 133.93 155.29 133.962 155.306 133.998C155.321 134.034 155.328 134.073 155.328 134.112L155.794 153.177C155.795 153.254 155.766 153.328 155.712 153.383C155.658 153.438 155.584 153.469 155.505 153.47C155.471 153.473 155.436 153.467 155.405 153.453Z" fill="#A1A1A1"/>
<path d="M176.285 170.145C176.207 170.132 176.137 170.089 176.09 170.025C176.044 169.961 176.024 169.882 176.037 169.805C176.049 169.728 176.092 169.66 176.156 169.615C176.221 169.57 176.301 169.552 176.379 169.565L202.212 169.277C202.289 169.278 202.362 169.309 202.417 169.363C202.472 169.417 202.503 169.489 202.505 169.564C202.507 169.64 202.478 169.713 202.426 169.767C202.374 169.822 202.302 169.854 202.225 169.857L176.392 170.145L176.285 170.145Z" fill="#A1A1A1"/>
<path d="M137.817 159.581C137.738 159.568 137.668 159.524 137.621 159.461C137.575 159.397 137.556 159.318 137.568 159.241C137.58 159.164 137.623 159.096 137.687 159.051C137.752 159.005 137.832 158.988 137.91 159.001L201.963 158.312C202.002 158.312 202.041 158.319 202.077 158.333C202.114 158.347 202.147 158.367 202.175 158.394C202.203 158.42 202.226 158.452 202.242 158.487C202.258 158.522 202.267 158.56 202.268 158.598C202.269 158.636 202.263 158.674 202.249 158.71C202.235 158.745 202.215 158.778 202.188 158.805C202.161 158.833 202.13 158.855 202.094 158.87C202.059 158.885 202.021 158.894 201.982 158.894L137.917 159.597L137.817 159.581Z" fill="#A1A1A1"/>
<path d="M151.373 86.3429C151.604 84.6534 154.446 84.2054 154.353 86.1997C154.355 86.9001 154.105 87.5753 153.647 88.1054C153.414 88.3589 153.109 88.5379 152.77 88.6196C152.432 88.7014 152.075 88.6823 151.745 88.5649" fill="white"/>
<path d="M144.27 86.4271C143.957 84.7399 141.096 84.3549 141.287 86.3428C141.323 87.0344 141.608 87.694 142.089 88.2047C142.334 88.4533 142.648 88.6257 142.991 88.7001C143.333 88.7745 143.689 88.7475 144.014 88.6225" fill="white"/>
<path d="M144.849 94.8723C145.159 95.3951 145.611 95.8238 146.153 96.11C146.695 96.3961 147.305 96.5283 147.916 96.4916C148.543 96.5009 149.159 96.3504 149.706 96.0547C150.252 95.759 150.71 95.3282 151.034 94.8042L150.578 88.3049L144.995 88.3661L144.849 94.8723Z" fill="white"/>
<path d="M147.71 91.5727L148.169 91.5654C148.686 91.5608 149.195 91.4559 149.668 91.2568C150.142 91.0577 150.569 90.7683 150.926 90.4052C151.283 90.042 151.563 89.6122 151.75 89.1404C151.937 88.6685 152.027 88.1639 152.015 87.6553L151.864 81.524C150.729 80.4696 149.227 79.8849 147.676 79.8933C146.125 79.9017 144.646 80.5026 143.55 81.5691L143.682 87.7368C143.694 88.2458 143.807 88.7488 144.016 89.2171C144.225 89.6853 144.525 90.1097 144.899 90.4659C145.273 90.8221 145.714 91.1032 146.196 91.2931C146.679 91.483 147.193 91.5781 147.71 91.5727Z" fill="white"/>
<path d="M148.029 98.1965L146.947 97.4014L147.99 96.5853L149.067 97.3784L148.029 98.1965Z" fill="white"/>
<path d="M149.029 102.263L148.439 104.447L147.919 104.452L147.224 102.278L147.646 97.9113L147.66 97.7629L147.667 97.6677L148.363 97.6623L148.374 97.7578L148.399 97.9013L148.398 97.9068L149.029 102.263Z" fill="white"/>
<path d="M143.568 86.8692C143.623 84.9843 143.436 82.6057 143.874 82.2605C144.311 81.9153 144.505 82.4779 144.963 82.0724C145.422 81.667 145.197 81.5405 145.197 81.5405C145.926 81.2854 146.694 81.1508 147.471 81.1421C148.168 81.2596 149.777 81.7036 150.652 81.0865C150.652 81.0865 151.853 82.498 151.918 83.3099C151.982 84.1217 151.819 86.337 151.987 86.3029C152.155 86.2689 153.069 84.5207 153.292 83.6914C153.485 82.906 153.405 82.0765 153.065 81.3342C152.725 80.5919 152.145 79.9791 151.417 79.5926C151.417 79.5926 151.508 78.62 149.159 78.056C146.809 77.492 144.345 78.3148 143.619 79.0443C142.709 80.143 142.162 81.4914 142.05 82.9119C142.044 83.9997 142.428 84.1195 142.428 84.1195L143.568 86.8692Z" fill="white"/>
<path d="M192.638 79.168C192.311 79.0546 192.027 78.8457 191.822 78.5695C191.618 78.2933 191.504 77.963 191.495 77.6234L191.311 69.9379C191.309 69.8999 191.315 69.862 191.328 69.8265C191.341 69.791 191.362 69.7586 191.388 69.7311C191.414 69.7036 191.446 69.6817 191.481 69.6667C191.517 69.6516 191.555 69.6437 191.593 69.6434C191.672 69.6442 191.748 69.6747 191.805 69.7285C191.862 69.7824 191.896 69.8554 191.9 69.9326L192.085 77.6182C192.1 77.896 192.224 78.1584 192.432 78.3502C192.639 78.5419 192.912 78.648 193.195 78.6461C193.477 78.6442 193.747 78.5345 193.946 78.34C194.146 78.1455 194.26 77.8814 194.264 77.6035L193.986 66.4878C193.972 65.9565 193.744 65.4496 193.354 65.0777C192.963 64.7058 192.441 64.4991 191.901 64.5027C191.633 64.5046 191.368 64.5587 191.122 64.6621C190.876 64.7654 190.654 64.9159 190.469 65.1047C190.284 65.2936 190.139 65.5172 190.043 65.7627C189.946 66.0081 189.9 66.2704 189.908 66.5346L189.918 66.9603C189.919 67.0372 189.89 67.1112 189.836 67.1661C189.782 67.221 189.707 67.2522 189.629 67.2529C189.59 67.254 189.552 67.2474 189.515 67.2334C189.479 67.2195 189.446 67.1984 189.417 67.1716C189.389 67.1448 189.367 67.1127 189.352 67.0773C189.336 67.0419 189.328 67.0039 189.328 66.9656L189.319 66.5399C189.306 66.0285 189.448 65.5269 189.727 65.0985C190.005 64.6701 190.407 64.334 190.882 64.1328C191.357 63.9315 191.884 63.8741 192.396 63.9677C192.909 64.0614 193.383 64.3019 193.76 64.659C194.011 64.8963 194.212 65.1797 194.352 65.4927C194.492 65.8058 194.568 66.1422 194.575 66.4826L194.854 77.5982C194.858 77.8635 194.798 78.1252 194.678 78.3615C194.558 78.5977 194.382 78.8017 194.165 78.9563C193.948 79.111 193.696 79.2119 193.43 79.2506C193.163 79.2893 192.891 79.2647 192.634 79.1789L192.638 79.168Z" fill="#313B44"/>
<path fill-rule="evenodd" clip-rule="evenodd" d="M147.157 79.352C146.837 79.4823 146.672 79.6612 146.479 80.0878L146.355 80.3614L146.04 80.4481C144.897 80.763 143.716 80.5181 142.498 79.7133C142.083 79.4395 142.033 79.4255 141.928 79.5537C141.673 79.8651 141.724 80.1192 142.099 80.3986C142.973 81.0494 144.347 81.4078 145.906 81.3919L146.439 81.3866L146.497 81.5219C146.656 81.8906 146.646 82.3251 146.473 82.6105C146.4 82.7318 144.749 82.8106 143.987 82.7292C142.672 82.5885 141.794 82.2199 141.002 81.4755C140.665 81.1588 140.535 81.1349 140.332 81.3527C140.055 81.6493 140.171 81.8231 141.075 82.4702C142.476 83.4719 144.403 83.8646 146.167 83.5076C146.448 83.4506 146.486 83.4743 146.571 83.7593C146.705 84.21 146.52 84.6379 146.162 84.7066C144.568 85.0125 142.262 84.8759 141.267 84.4167C141.226 84.3975 141.098 84.3436 140.984 84.2967C140.58 84.1304 139.74 83.5994 139.583 83.4105C139.48 83.2874 139.119 83.4052 139.027 83.5915C138.91 83.8306 139.024 83.9706 139.707 84.4265C141.444 85.5862 143.785 85.994 146.057 85.5327C146.357 85.4718 146.387 85.4717 146.476 85.5307C146.839 85.7686 146.828 86.7098 146.462 86.7138C146.424 86.7142 146.377 86.7295 146.358 86.7478C146.272 86.8302 145.369 87.1395 144.898 87.2479C143.038 87.6758 140.672 87.1275 138.918 85.8621C138.666 85.6804 138.408 85.7514 138.303 86.031C138.235 86.2122 138.3 86.3033 138.714 86.611C141.209 88.4648 143.702 88.833 146.121 87.7055C146.457 87.5491 146.452 87.5478 146.653 87.8583C146.972 88.3495 146.852 88.6311 146.091 89.1783C143.422 91.0984 140.976 90.8883 138.644 88.5389C138.236 88.1282 138.162 88.0928 138.027 88.2463C137.901 88.3909 137.932 88.4928 138.219 88.8667C140.123 91.3518 142.909 91.8688 145.89 90.2904C146.548 89.9421 146.482 89.9557 146.517 90.1615C146.562 90.4277 146.488 90.5579 146.064 90.9501C142.697 94.0719 140.333 94.12 138.191 91.1105C138.072 90.9435 137.827 90.9363 137.678 91.0956C137.341 91.457 138.803 93.1958 139.888 93.7245C140.033 93.7954 140.178 93.8673 140.211 93.8843C140.669 94.1232 141.925 94.1651 142.629 93.9648C143.693 93.6623 144.883 92.9678 146.073 91.9562C146.445 91.6398 146.61 91.6535 146.471 91.9892C146.413 92.1304 145.359 93.2092 144.701 93.8016C141.838 96.3792 139.986 96.367 138.413 93.76C138.248 93.4875 138.149 93.3604 138.089 93.3456C137.716 93.2532 137.543 93.5909 137.751 94.0086C139.201 96.9259 141.246 97.3084 144.204 95.2157C144.354 95.1095 144.329 95.1719 144.099 95.4793C141.695 98.692 139.84 99.1019 138.417 96.7347C138.194 96.3627 138.19 96.3586 138.036 96.3485C137.687 96.3257 137.623 96.5661 137.863 96.9989C139.027 99.1003 140.536 99.5331 142.375 98.2935C142.657 98.1032 142.647 98.1804 142.338 98.5791C140.963 100.353 139.724 100.333 138.506 98.5177C138.17 98.0176 138.127 97.9767 137.979 98.0169C137.548 98.1344 137.667 98.5303 138.433 99.528C139.54 100.97 140.837 101.122 142.025 99.951C142.233 99.746 142.254 99.7907 142.09 100.088C140.99 102.074 139.772 102.133 138.461 100.264C138.198 99.8899 138.162 99.8527 138.056 99.8539C137.656 99.8582 137.766 100.307 138.401 101.259C140.093 103.795 142.042 102.593 143.499 98.1152C143.979 96.6405 144.463 95.814 146.047 93.7666C146.56 93.1042 146.6 93.0737 146.67 93.2875C146.864 93.88 147.778 94.2777 148.38 94.0319C148.665 93.9156 149.151 93.4572 149.148 93.308C149.147 93.2943 149.174 93.238 149.208 93.1826L149.269 93.0821L149.348 93.1773C149.391 93.2297 149.634 93.5202 149.889 93.8228C151.347 95.5589 152.082 96.6702 152.433 97.6704C153.845 101.687 155.685 103.312 157.181 101.862C157.746 101.315 158.436 100.071 158.328 99.7963C158.206 99.4856 158.016 99.56 157.72 100.035C156.526 101.948 155.264 101.921 154.067 99.9569C153.879 99.6483 153.906 99.6255 154.181 99.8591C155.624 101.083 156.83 100.753 158.034 98.806C158.44 98.1503 158.459 97.9848 158.147 97.825C157.943 97.7206 157.906 97.7533 157.54 98.3675C156.491 100.13 155.176 100.161 153.749 98.4585C153.418 98.0632 153.403 97.9855 153.696 98.1703C155.57 99.3567 157.027 98.928 158.094 96.8759C158.317 96.4473 158.333 96.3191 158.182 96.1995C157.971 96.034 157.8 96.1012 157.646 96.4108C156.76 98.1815 155.544 98.5386 153.972 97.4892C153.394 97.1029 152.027 95.728 151.674 95.1763L151.596 95.0556L151.747 95.1466C151.831 95.1966 151.924 95.2585 151.956 95.2841C152.079 95.3843 152.562 95.6632 152.939 95.8518C155.239 96.9996 157.013 96.2914 158.113 93.7866C158.277 93.4132 158.169 93.1104 157.873 93.1136C157.707 93.1154 157.618 93.2098 157.399 93.6206C155.968 96.3054 153.926 96.2183 150.699 93.3347C149.59 92.3437 149.233 91.9504 149.274 91.7636C149.305 91.6225 149.346 91.6344 149.631 91.8676C152.038 93.834 154.28 94.4431 155.919 93.5756C157.024 92.9907 158.377 91.2759 158.051 90.8744C157.838 90.6127 157.657 90.7141 157.244 91.3253C155.435 94.0057 152.846 93.7822 149.355 90.6443C149.208 90.5123 149.134 90.3177 149.162 90.1383C149.192 89.945 149.194 89.9453 149.785 90.2421C152.828 91.77 155.716 91.1552 157.43 88.6145C157.665 88.2649 157.692 88.1351 157.553 88.0191C157.404 87.894 157.328 87.9281 157.038 88.2519C155.033 90.4909 152.838 90.9459 150.365 89.6351C148.94 88.88 148.588 88.4551 148.9 87.8646C149.078 87.5283 149.096 87.5209 149.403 87.654C151.945 88.7544 154.446 88.3202 156.863 86.3588C157.194 86.0902 157.248 85.9978 157.174 85.8252C157.056 85.5481 156.794 85.4828 156.551 85.6698C155.061 86.8176 152.958 87.4566 151.259 87.2781C150.649 87.2139 149.296 86.8546 149.159 86.7203C149.139 86.7007 149.09 86.6851 149.051 86.6855C148.795 86.6883 148.658 86.149 148.814 85.748C148.925 85.4617 149.009 85.4257 149.4 85.4977C151.658 85.913 153.964 85.4615 155.682 84.268C156.06 84.005 156.363 83.7332 156.385 83.6374C156.457 83.3203 155.939 83.0357 155.73 83.2773C155.55 83.4836 154.456 84.1936 154.312 84.1963C154.295 84.1966 154.24 84.2199 154.189 84.2481C153.33 84.7261 151.08 84.9362 149.425 84.693C149.229 84.6642 149.058 84.6405 149.044 84.6402C148.866 84.6372 148.724 83.9455 148.84 83.6463C148.926 83.4251 148.95 83.4153 149.236 83.4803C149.324 83.5001 149.66 83.5298 149.984 83.5462C151.964 83.6464 153.392 83.1366 154.867 81.8039C155.119 81.5761 155.135 81.3745 154.916 81.1823C154.691 80.9847 154.567 81.013 154.255 81.3337C153.155 82.4624 151.46 82.8914 149.069 82.6464L148.855 82.6244L148.779 82.4275C148.631 82.0403 148.631 81.8288 148.777 81.4866L148.831 81.3605L149.358 81.3543C151.036 81.3348 152.603 80.8401 153.3 80.1097C153.467 79.9337 153.443 79.6617 153.239 79.4304C153.131 79.3088 153.061 79.3226 152.799 79.5171C151.581 80.421 150.296 80.7264 149.097 80.3969C148.839 80.3258 148.839 80.3263 148.673 79.9633C148.427 79.4251 147.699 79.1315 147.157 79.352Z" fill="#313B44"/>
</svg>
