<svg width="400" height="400" viewBox="0 0 400 400" fill="none" xmlns="http://www.w3.org/2000/svg">
<path fill-rule="evenodd" clip-rule="evenodd" d="M163.943 34.669C162.952 34.8444 161.512 35.2532 160.742 35.5783C159.971 35.9034 158.172 36.3 156.742 36.4609C155.311 36.6206 153.691 36.9759 153.141 37.2496C152.59 37.5244 150.937 37.8674 149.467 38.0115C147.995 38.1567 146.038 38.541 145.115 38.8661C144.194 39.1923 143.014 39.4582 142.495 39.4582C141.382 39.4582 139.771 41.6903 139.323 43.8531C139.164 44.6195 138.803 45.6104 138.523 46.0528C137.044 48.3865 136.997 54.3409 138.444 56.1641C138.664 56.4423 140.174 59.3123 141.801 62.5442C143.427 65.7761 145.033 68.7221 145.367 69.0919C147.139 71.0502 146.42 74.7335 143.914 76.5399C140.878 78.7273 139.139 80.3327 139.139 80.9471C139.139 81.2711 134.851 85.886 129.609 91.2015C124.368 96.518 118.12 102.892 115.726 105.367C110.652 110.613 110.143 110.795 107.426 108.341C106.495 107.501 105.105 106.394 104.334 105.882C103.564 105.369 100.684 102.735 97.9335 100.026C91.2283 93.4235 89.7235 93.0727 79.7306 95.7785C78.8503 96.0164 77.1198 96.4108 75.8842 96.6554C72.6791 97.2888 71.4323 98.9098 70.8905 103.151C70.7419 104.315 70.3822 105.74 70.0906 106.317C69.1768 108.126 68.4004 114.081 68.9456 115.099C69.4349 116.015 72.793 117.574 75.93 118.344C76.9198 118.586 77.913 118.926 78.1353 119.098C78.3587 119.27 79.439 119.63 80.536 119.898C81.6331 120.167 83.0284 120.636 83.6361 120.941C84.245 121.246 85.5051 121.652 86.4368 121.843C90.8798 122.752 93.4571 123.629 94.7183 124.658L96.0902 125.777L94.2089 127.87C93.1744 129.021 91.5512 130.555 90.6005 131.281C88.4645 132.912 85.2046 139.314 84.0864 144.073C83.9311 144.733 83.5836 145.633 83.3122 146.073C83.0418 146.513 82.6944 147.593 82.5402 148.474C82.386 149.354 82.1023 150.264 81.9101 150.497C81.718 150.729 81.2991 151.9 80.9784 153.097C80.1897 156.051 79.3954 158.183 78.381 160.076C77.913 160.949 77.5242 161.936 77.5164 162.269C77.5097 162.602 77.1555 163.595 76.7299 164.476C76.3054 165.356 75.9512 166.507 75.9434 167.032C75.9367 167.558 75.5859 168.729 75.167 169.632C74.2722 171.558 72.7305 176.281 72.7271 177.105C72.726 177.42 72.4713 178.163 72.1618 178.757C71.8513 179.351 71.3083 180.832 70.9553 182.048C70.0348 185.213 66.8677 186.15 62.8113 184.455C62.0516 184.138 60.5077 183.871 59.3794 183.861C58.251 183.852 56.6077 183.561 55.7274 183.217C54.8471 182.872 53.0473 182.413 51.7268 182.196C50.4064 181.978 48.2458 181.477 46.9264 181.079C40.4313 179.126 35.9526 179.277 32.4336 181.567C30.9433 182.537 29.2731 183.613 28.7235 183.955C25.8748 185.737 25.6446 186.214 25.2737 191.115C25.0849 193.626 24.9654 196.04 25.009 196.48C25.0525 196.92 25.2737 200.341 25.5005 204.081C25.8625 210.056 26.5004 214.56 27.4567 217.883C27.7717 218.981 31.799 219.146 37.1245 218.279C41.5228 217.563 49.9483 217.106 60.0955 217.032L70.4649 216.957L71.3742 218.098C71.8747 218.726 72.8567 221.049 73.5561 223.261C74.2565 225.475 74.9659 227.464 75.1335 227.684C75.2999 227.904 75.6273 228.988 75.8596 230.093C76.092 231.198 76.5623 232.638 76.9042 233.294C77.246 233.949 77.5275 234.756 77.5298 235.085C77.532 235.415 77.8984 236.284 78.3453 237.017C78.791 237.749 79.5239 239.548 79.9741 241.018C80.4232 242.485 81.127 244.587 81.537 245.687C81.9481 246.786 82.4922 248.497 82.7469 249.488C83.0016 250.478 83.3535 251.467 83.5289 251.687C83.7043 251.908 84.0316 252.717 84.2551 253.488C84.4796 254.258 85.3085 256.412 86.0972 258.273C88.2187 263.281 88.0065 265.89 85.4772 265.89C84.8762 265.89 83.8763 266.084 83.2574 266.323C82.6374 266.561 79.8434 267.011 77.046 267.324C65.1908 268.647 65.7282 268.112 65.7282 278.605C65.7282 288.885 65.3114 288.247 75.0653 292.869C76.2395 293.425 77.7297 294.327 78.3777 294.872C81.7236 297.687 87.2658 296.034 95.3015 289.822C99.6651 286.449 100.46 286.633 106.419 292.394C108.336 294.248 110.6 296.245 111.448 296.834C112.297 297.422 115.858 300.703 119.364 304.124C122.87 307.546 126.457 310.806 127.337 311.369C131.273 313.886 131.94 315.446 130.282 318.25C128.83 320.704 127.41 322.86 126.692 323.698C126.316 324.137 125.256 325.938 124.336 327.699C123.418 329.458 122.356 331.259 121.975 331.699C121.35 332.423 120.45 333.744 119.34 335.565C119.118 335.93 118.368 337.037 117.676 338.025C114.874 342.019 114.922 343.094 118.11 347.709C119.325 349.464 120.574 351.465 120.887 352.153C121.199 352.841 121.642 353.519 121.87 353.661C122.099 353.802 123.092 355.129 124.077 356.61C126.977 360.97 127.045 361.01 132.549 361.515C135.183 361.757 138.089 362.122 139.006 362.324C139.923 362.526 143.974 362.809 148.008 362.952C157.089 363.273 156.249 363.829 157.766 356.502C158.084 354.962 158.547 353.207 158.793 352.601C159.039 351.996 159.473 350.375 159.759 349.001C160.418 345.826 161.419 341.815 162.129 339.5C162.432 338.509 162.789 337.043 162.922 336.24C163.055 335.437 163.532 334.312 163.982 333.739L164.801 332.699H171.728C176.017 332.699 179.853 332.918 181.801 333.273C183.53 333.588 187.807 334.053 191.305 334.306C194.804 334.558 198.06 334.914 198.54 335.096C199.02 335.28 201.109 335.547 203.181 335.691C205.253 335.836 208.32 336.126 209.995 336.339C213.461 336.776 217.821 336.273 220.75 335.098C224.439 333.618 226.631 333.015 229.551 332.677C233.337 332.238 233.545 332.456 233.571 336.876C233.591 340.477 234.868 349.8 235.406 350.272C235.596 350.439 236.833 350.978 238.152 351.467C239.473 351.958 241.502 352.796 242.662 353.33C243.822 353.865 244.999 354.301 245.278 354.301C245.557 354.301 246.486 354.659 247.343 355.097C251.576 357.254 255.964 357.033 257.278 354.594C257.673 353.86 258.527 352.639 259.175 351.881C259.824 351.122 260.354 350.346 260.354 350.155C260.356 349.965 260.962 348.974 261.704 347.955C264.712 343.818 264.745 343.226 262.156 339.7C261.672 339.04 260.146 336.249 258.766 333.499C257.385 330.749 256.009 328.143 255.706 327.709C254.337 325.748 255.085 323.408 257.369 322.495C258.242 322.146 259.315 321.71 259.756 321.523C260.196 321.338 263.526 320.23 267.157 319.062C270.788 317.895 274.027 316.811 274.358 316.652C281.146 313.405 285.354 313.671 287.658 317.49C288.542 318.956 289.672 320.193 298.209 329.036C301.042 331.972 303.932 335.212 304.629 336.236C305.327 337.262 307.667 339.947 309.83 342.204C314.515 347.094 315.263 347.325 318.072 344.752C319.003 343.9 320.755 342.548 321.964 341.748C323.174 340.948 325.244 339.401 326.565 338.309C327.885 337.218 329.153 336.32 329.383 336.313C330.667 336.272 337.485 328.848 337.307 327.684C335.574 316.29 335.277 315.372 332.883 313.99C331.842 313.388 329.74 311.688 328.212 310.21C326.682 308.733 324.455 306.842 323.261 306.009C322.067 305.177 319.575 303.103 317.724 301.402C315.871 299.701 313.863 298.001 313.26 297.626C308.001 294.352 307.547 292.26 311.192 288.092C311.576 287.653 312.74 285.672 313.778 283.692C314.816 281.712 315.856 279.969 316.09 279.821C316.525 279.545 316.844 278.977 319.321 274.091C321.093 270.596 322.127 268.818 322.892 267.958C323.218 267.59 324.165 266.029 324.996 264.489C326.349 261.981 327.116 260.744 329.635 257.005C330.037 256.409 330.365 255.736 330.365 255.51C330.365 254.929 333.872 248.651 334.735 247.687C335.491 246.842 336.156 245.665 337.587 242.632C338.069 241.612 338.874 240.299 339.376 239.715C340.504 238.402 340.931 234.881 340.764 228.284C340.7 225.754 340.629 221.434 340.607 218.683L340.567 213.683L346.363 213.838C349.551 213.923 352.702 214.158 353.364 214.358C354.027 214.559 356.549 215.086 358.969 215.53C361.39 215.973 364.27 216.514 365.37 216.729C372.185 218.069 373.225 217.68 373.779 213.58C373.921 212.537 374.195 211.143 374.39 210.482C374.699 209.432 376.005 202.957 377.574 194.68C378.353 190.578 377.796 189.174 373.835 185.23L370.571 181.983L367.971 181.76C366.54 181.639 359.52 181.672 352.369 181.834C337.849 182.165 338.368 182.257 338.364 179.328C338.363 178.201 338.183 176.197 337.964 174.877C337.745 173.557 337.454 170.407 337.314 167.876C337.141 164.714 336.766 162.353 336.114 160.324C335.593 158.701 335.166 157.118 335.166 156.807C335.166 156.497 334.831 155.754 334.42 155.159C334.01 154.562 332.995 152.994 332.167 151.674C331.338 150.354 330.459 148.976 330.212 148.613C326.26 142.774 324.25 139.649 323.176 137.672C322.46 136.351 321.55 134.911 321.153 134.471C320.758 134.031 319.96 132.774 319.38 131.678C318.802 130.581 318.005 129.321 317.611 128.878C317.215 128.434 316.47 127.35 315.954 126.47C315.438 125.59 314.614 124.379 314.122 123.779C313.632 123.179 312.758 121.738 312.181 120.578C311.054 118.308 310.51 117.421 308.4 114.411C306.869 112.229 306.268 109.169 307.219 108.396C307.518 108.153 309.005 107.297 310.524 106.495C312.043 105.694 313.954 104.508 314.771 103.861C315.588 103.214 317.046 102.323 318.011 101.88C319.862 101.032 320.618 100.591 322.564 99.2282C323.225 98.7646 325.115 97.6273 326.765 96.6979C334.69 92.2371 335.646 90.3245 332.774 84.6773C332.38 83.8997 331.497 81.5928 330.813 79.5495C328.55 72.7829 328.31 72.5238 322.592 70.6804C320.377 69.9666 318.114 69.1466 317.564 68.8584C317.013 68.5713 315.886 68.2093 315.059 68.054C314.231 67.8987 312.889 67.4318 312.074 67.0173C311.26 66.6017 310.118 66.2621 309.537 66.2621C308.957 66.2621 307.96 66.08 307.322 65.8577C304.904 65.0165 302.832 66.1157 301.269 69.0684C300.514 70.495 299.612 71.9786 299.264 72.3651C298.515 73.1985 297.752 74.4821 297.185 75.8629C296.958 76.4137 296.523 77.313 296.217 77.8638C295.29 79.5283 292.012 85.9966 291.554 87.0646C288.862 93.3386 287.279 94.2558 283.438 91.7701C282.294 91.0294 278.894 89.2062 275.88 87.7182C272.867 86.2301 269.741 84.4874 268.933 83.8461C268.126 83.2038 266.541 82.2229 265.411 81.6643C264.281 81.1057 263.086 80.498 262.756 80.3126C262.426 80.1271 261.078 79.4557 259.76 78.82C258.443 78.1844 256.373 77.0393 255.16 76.2763C251.81 74.1682 251.625 74.0632 247.622 72.0434C242.503 69.4605 242.167 68.5199 244.887 64.4076C247.818 59.9803 247.828 58.5738 244.968 52.9724C243.404 49.9103 242.251 49.4556 235.767 49.3439C229.426 49.2344 228.891 49.8165 228.173 57.6075C227.627 63.5251 225.338 65.0612 217.072 65.0623C215.905 65.0623 213.599 65.3136 211.949 65.622C210.299 65.9303 206.068 66.3045 202.547 66.4531C199.027 66.6017 194.976 66.9905 193.546 67.3156C189.838 68.1601 178.165 68.2551 177.359 67.4474C176.8 66.8899 176.396 65.422 174.747 57.984C174.348 56.1809 173.84 54.1108 173.618 53.3835C173.397 52.6552 173.111 51.1872 172.982 50.1192C172.853 49.0523 172.482 47.342 172.158 46.3187C171.563 44.4385 170.637 40.7563 169.931 37.4585C169.293 34.479 168.119 33.9328 163.943 34.669ZM166.417 45.0585C166.568 47.8089 166.885 51.3202 167.123 52.8596C167.704 56.6155 168.113 77.1019 167.623 77.8045C166.948 78.7709 165.697 77.6738 154.355 66.1716C139.866 51.4766 140.03 52.1446 149.678 47.209C153.013 45.5031 157.542 43.166 159.741 42.0143C162.31 40.6714 164.172 39.9453 164.943 39.99L166.143 40.0581L166.417 45.0585ZM148.066 43.2096C148.307 43.8386 147.63 44.6586 146.869 44.6586C146.589 44.6586 145.782 45.0093 145.077 45.4383C143.672 46.293 143.139 46.1958 143.139 45.0842C143.139 44.1458 144.014 43.4353 145.643 43.0487C147.575 42.5896 147.835 42.6075 148.066 43.2096ZM242.057 54.2192C244.225 56.7953 243.561 61.2617 240.393 65.4198C239.149 67.0519 234.449 66.6643 232.251 64.7484C230.977 63.6368 231.448 54.2795 232.823 53.4081C234.357 52.4351 241.051 53.0227 242.057 54.2192ZM172.775 67.8675C172.997 69.2494 173.442 70.7531 173.762 71.21C174.082 71.6669 174.342 72.4958 174.342 73.0522C174.341 73.6085 174.65 75.5591 175.028 77.3867C175.773 80.9773 175.574 81.6029 173.758 81.366C172.748 81.2342 172.448 79.907 171.927 73.2633C171.366 66.1213 171.924 62.58 172.775 67.8675ZM152.832 70.3621C154.115 71.7373 157.681 75.4138 160.757 78.5318C165.826 83.6707 166.291 84.2595 165.725 84.8259C164.827 85.7241 160.933 88.2656 160.455 88.2656C159.956 88.2656 157.941 85.4135 157.941 84.7063C157.941 84.4226 157.582 83.7333 157.142 83.1736C156.701 82.6139 156.342 81.8486 156.342 81.4722C156.342 81.0957 155.981 80.4623 155.541 80.0634C155.101 79.6657 154.741 79.0323 154.741 78.6558C154.741 78.2793 154.392 77.5275 153.966 76.9857C153.539 76.4438 153.073 75.5322 152.93 74.9614C152.786 74.3894 152.324 73.6107 151.904 73.2309C151.484 72.85 151.14 72.1383 151.14 71.6501C151.14 71.1608 150.871 70.5363 150.54 70.2626C149.943 69.7666 149.688 67.8619 150.22 67.8619C150.373 67.8619 151.549 68.9868 152.832 70.3621ZM239.201 71.8546C241.044 72.8086 242.648 73.7303 242.761 73.9023C243.342 74.7715 253.562 80.2634 254.599 80.2634C254.75 80.2634 255.624 80.8801 256.544 81.6341C257.463 82.3871 260.528 84.1969 263.354 85.6559C266.18 87.1149 268.99 88.727 269.597 89.2375C270.203 89.748 273.33 91.4673 276.543 93.0582C283.089 96.299 283.559 96.6487 283.559 98.2719C283.559 99.7946 283.181 99.97 279.173 100.305C277.295 100.463 274.227 100.793 272.357 101.039C270.031 101.346 259.103 101.452 237.752 101.378L206.548 101.267L206.424 99.9834C206.324 98.9568 206.613 98.3591 207.869 96.9839C208.732 96.0387 209.695 94.7663 210.01 94.1563C210.324 93.5453 212.914 90.5926 215.765 87.5942C218.618 84.5957 221.427 81.3146 222.009 80.3025C222.592 79.2915 224.62 76.9332 226.515 75.063C228.41 73.1929 230.057 71.3597 230.174 70.9888C230.735 69.2248 234.892 69.6247 239.201 71.8546ZM308.857 72.1897C309.459 72.5874 311.082 74.0029 312.463 75.3367C313.844 76.6706 315.839 78.3095 316.896 78.9798C317.953 79.6501 320.696 82.0151 322.991 84.2349C329.116 90.1569 328.949 91.1367 321.442 93.2615C320.384 93.5609 319.303 93.9787 319.041 94.1898C318.778 94.401 317.754 94.7618 316.764 94.9909C315.773 95.2199 313.104 96.051 310.833 96.8375C308.562 97.6229 306.074 98.2663 305.306 98.2663C304.538 98.2663 303.579 98.4429 303.177 98.6585C300.912 99.8706 301.548 88.3002 304.443 75.663C305.524 70.9396 306.18 70.4246 308.857 72.1897ZM195.933 73.6465C196.467 74.2889 196.212 74.386 192.746 74.8586C191.757 74.9927 190.586 75.3367 190.146 75.6205C189.706 75.9054 188.562 76.2617 187.603 76.4126C186.646 76.5634 185.385 76.9298 184.803 77.2281C181.259 79.0412 178.766 77.9084 179.959 75.0262C180.653 73.3527 194.684 72.1406 195.933 73.6465ZM221.429 73.7258C221.569 74.09 221.429 74.7916 221.117 75.2842C218.738 79.039 217.134 81.08 213.86 84.5186C211.792 86.6893 209.668 89.0956 209.14 89.8653C207.925 91.636 204.999 95.1875 203.041 97.2665C202.213 98.1468 200.325 100.397 198.848 102.267C197.37 104.137 195.078 106.771 193.753 108.121C192.429 109.469 190.579 111.63 189.642 112.921C188.703 114.213 186.571 116.709 184.901 118.469C183.23 120.23 181.092 122.839 180.148 124.27C179.205 125.7 177.327 127.95 175.976 129.271L173.519 131.672L170.123 131.812C168.255 131.89 166.28 131.841 165.735 131.705L164.743 131.456V125.735C164.743 121.934 164.936 119.353 165.319 118.042C165.635 116.956 166.099 114.547 166.349 112.685C166.599 110.824 166.943 109.023 167.114 108.685C167.285 108.345 167.65 106.627 167.923 104.868C168.197 103.107 168.599 101.078 168.816 100.36C169.033 99.6416 169.456 97.5704 169.758 95.7594C171.178 87.2289 172.076 85.8436 177.176 84.3254C178.809 83.8394 180.955 83.1613 181.945 82.8206C182.934 82.4787 184.735 81.9492 185.945 81.6453C187.155 81.3403 188.506 80.918 188.946 80.7069C189.386 80.4969 192.716 79.3998 196.347 78.2715C199.978 77.1421 203.488 76.0316 204.148 75.8026C204.808 75.5736 206.382 75.1569 207.647 74.8742C208.912 74.5927 210.172 74.1771 210.448 73.9515C211.741 72.8879 221.035 72.698 221.429 73.7258ZM319.964 74.0755C320.294 74.3514 321.375 74.7056 322.364 74.8653C324.525 75.2116 324.99 75.5512 325.994 77.5208C326.744 78.9898 327.069 81.6654 326.464 81.3973C325.661 81.0398 318.764 75.749 318.764 75.4898C318.764 75.3256 318.296 74.9781 317.723 74.7178C316.903 74.3436 316.779 74.1269 317.137 73.6945C317.637 73.0935 319.007 73.2778 319.964 74.0755ZM151.393 80.1036C151.941 80.2511 152.728 81.2867 153.592 82.9982C154.333 84.465 155.209 85.9989 155.54 86.4066C155.934 86.8926 156.142 88.0254 156.142 89.6899C156.142 92.4504 156.016 92.6359 153.166 94.0938C152.383 94.4948 151.291 95.2176 150.74 95.7002C150.191 96.1817 148.326 97.319 146.598 98.2261C144.871 99.1321 142.979 100.246 142.397 100.7C141.211 101.626 137.99 103.748 136.358 104.681C135.768 105.018 134.822 105.649 134.258 106.081C133.023 107.027 132.22 107.586 130.071 108.998C129.174 109.586 127.472 110.708 126.288 111.491C125.105 112.274 123.25 113.34 122.167 113.861C121.084 114.381 119.91 115.095 119.558 115.446C116.905 118.099 111.504 119.253 111.215 117.228C110.92 115.162 113.809 111.257 116.971 109.448C118.099 108.802 119.524 107.551 120.136 106.667C120.748 105.784 122.111 104.442 123.163 103.686C124.217 102.929 125.833 101.311 126.756 100.088C127.679 98.8663 128.559 97.8664 128.713 97.8664C129.389 97.8664 132.499 94.7853 133.907 92.7219C135.442 90.4708 144.984 80.5472 146.002 80.1416C146.738 79.8478 150.347 79.8232 151.393 80.1036ZM298.984 84.7086C298.625 85.9207 298.361 88.308 298.361 90.3513C298.361 92.408 298.135 94.4312 297.824 95.1785C297.528 95.8868 297.164 97.1235 297.013 97.9267C296.863 98.7289 296.508 99.579 296.224 99.8136C295.583 100.346 290.046 100.73 289.757 100.262C288.771 98.6674 295.686 84.1109 297.861 83.1982C298.576 82.8988 299.176 82.4307 299.192 82.1592C299.216 81.795 299.275 81.7894 299.417 82.1357C299.522 82.3949 299.329 83.5534 298.984 84.7086ZM165.938 92.0606C166.56 92.8102 166.346 101.094 165.682 101.911C165.434 102.217 165.025 104.036 164.774 105.955C164.521 107.873 164.075 110.127 163.779 110.964C163.484 111.802 163.117 113.653 162.965 115.077C162.812 116.503 162.442 118.479 162.142 119.469C161.843 120.46 161.482 122.259 161.342 123.469C161.202 124.68 160.845 126.48 160.548 127.471C160.251 128.461 159.891 129.991 159.747 130.871C159.234 134.014 157.986 135.169 151.799 138.229C145.687 141.252 144.867 141.845 143.268 144.399C142.691 145.32 142.022 146.206 141.78 146.367C140.805 147.017 134.148 146.686 131.834 145.873C130.582 145.433 129.148 145.072 128.647 145.071C128.147 145.07 127.251 144.814 126.657 144.504C126.062 144.194 124.286 143.74 122.71 143.495C121.133 143.251 119.527 142.882 119.14 142.674C118.754 142.468 117.56 142.114 116.486 141.888C114.461 141.462 111.843 140.741 107.734 139.476C106.414 139.07 104.388 138.525 103.232 138.265C102.077 138.005 101.031 137.629 100.908 137.432C100.787 137.234 100.179 137.072 99.559 137.072C96.7806 137.072 96.9415 133.396 99.8058 131.464C100.778 130.808 101.674 130.271 101.795 130.271C101.918 130.271 102.58 129.798 103.267 129.22C103.953 128.643 105.831 127.546 107.439 126.782C109.048 126.019 110.852 125.005 111.45 124.532C113.249 123.104 115.084 121.87 115.419 121.864C115.593 121.861 116.78 120.888 118.057 119.703C119.334 118.518 120.954 117.333 121.657 117.069C123.695 116.306 125.999 115.014 127.889 113.571C128.853 112.836 130.251 111.981 130.996 111.67C131.74 111.359 134.912 109.413 138.044 107.348C141.176 105.281 144.721 103.091 145.921 102.482C147.121 101.874 148.785 100.855 149.621 100.22C150.457 99.5857 151.849 98.5278 152.713 97.8698C153.578 97.2118 155.086 96.2476 156.065 95.7271C157.043 95.2076 158.459 94.3127 159.211 93.7385C161.972 91.6327 164.964 90.8864 165.938 92.0606ZM95.9327 103.092C98.6831 105.736 101.654 108.375 102.534 108.959C105.205 110.728 107.534 113.151 107.534 114.16C107.534 115.176 101.695 121.445 100.697 121.501C98.3066 121.635 94.7988 121.32 93.9542 120.897C93.3923 120.614 92.3019 120.265 91.5322 120.12C90.7625 119.975 89.232 119.52 88.1316 119.11C85.1007 117.981 83.5624 117.456 80.9304 116.657C76.9544 115.449 73.8476 114.299 73.2723 113.822C72.5417 113.215 72.5607 108.77 73.3069 105.893C73.6253 104.669 73.9772 103.218 74.09 102.667C74.6564 99.9041 79.0737 98.3289 86.3318 98.3021L90.9323 98.2865L95.9327 103.092ZM310.083 102.467C310.039 102.687 309.431 102.984 308.731 103.127C308.031 103.27 307.331 103.594 307.175 103.845C307.019 104.098 306.277 104.641 305.527 105.051C301.295 107.364 301.013 107.475 300.683 106.968C299.745 105.53 300.805 104.57 305.362 102.734C307.409 101.908 310.225 101.75 310.083 102.467ZM290.087 107.056C290.915 107.833 289.778 110.282 287.094 113.507C285.553 115.355 284.012 117.409 283.671 118.069C283.329 118.729 282.069 120.28 280.87 121.515C279.672 122.751 278.392 124.223 278.026 124.786C277.658 125.35 275.953 127.489 274.236 129.541C272.519 131.592 270.777 133.677 270.365 134.172C268.549 136.357 266.168 135.699 253.93 129.623C247.893 126.625 242.324 123.701 241.553 123.122C240.057 121.999 236.574 120.269 235.813 120.271C235.559 120.271 231.572 118.405 226.951 116.124C222.331 113.843 217.501 111.482 216.221 110.879C213.872 109.772 212.824 108.493 213.283 107.295C213.643 106.358 289.092 106.122 290.087 107.056ZM207.949 110.639C210.039 111.749 212.199 112.85 212.749 113.083C213.299 113.316 218.969 116.092 225.351 119.251C231.732 122.41 238.258 125.491 239.854 126.097C245.28 128.157 255.716 133.637 256.227 134.696C257.159 136.628 257.057 138.006 255.955 138.315C252.936 139.162 248.916 139.917 245.553 140.267C243.463 140.485 241.123 140.829 240.353 141.031C239.583 141.233 236.887 141.615 234.363 141.88C231.838 142.144 229.342 142.525 228.815 142.725C228.289 142.925 225.709 143.263 223.082 143.479C220.454 143.693 217.952 144.057 217.52 144.289C217.089 144.519 214.636 144.891 212.069 145.113C209.502 145.337 206.309 145.762 204.974 146.06C203.64 146.358 201.107 146.721 199.348 146.867C197.587 147.013 195.13 147.389 193.888 147.703C192.305 148.103 189.23 148.274 183.592 148.274H175.553L174.456 146.573C172.289 143.214 173.054 134.671 175.522 134.671C175.724 134.671 177.297 133.009 179.018 130.978C180.737 128.946 182.436 126.99 182.791 126.63C183.148 126.27 184.228 124.917 185.192 123.622C186.156 122.329 187.894 120.31 189.052 119.137C190.212 117.963 191.448 116.434 191.801 115.736C192.155 115.039 193.322 113.613 194.395 112.567C195.469 111.521 196.347 110.484 196.347 110.261C196.347 107.579 202.571 107.781 207.949 110.639ZM295.794 115.169C296.525 117.38 297.428 183.207 296.739 184.012C296.388 184.422 294.38 183.408 293.561 182.408C291.465 179.849 290.36 178.308 290.36 177.946C290.36 177.507 286.631 170.101 286.021 169.329C285.824 169.079 285.433 168.156 285.153 167.276C284.873 166.396 284.534 165.586 284.401 165.475C284.268 165.366 282.823 162.575 281.189 159.275C275.018 146.801 274.241 145.261 273.893 144.819C272.197 142.661 273.676 134.953 276.287 132.342C277.105 131.524 278.267 130.014 278.869 128.987C279.471 127.959 281.422 125.545 283.205 123.621C284.987 121.698 286.92 119.391 287.502 118.496C288.083 117.601 288.704 116.806 288.881 116.728C289.057 116.651 289.843 115.896 290.625 115.05C291.94 113.629 292.655 113.268 294.43 113.123C294.902 113.084 295.306 113.69 295.794 115.169ZM305.293 117.39C305.694 117.753 306.475 119.003 307.026 120.168C307.578 121.333 308.424 122.778 308.907 123.379C310.491 125.347 315.046 132.45 315.355 133.433C315.521 133.963 316.401 135.429 317.31 136.69C318.22 137.951 319.684 140.178 320.563 141.637C322.222 144.385 322.781 145.208 324.208 147.009C324.672 147.594 325.842 149.573 326.808 151.406C327.775 153.238 328.923 155.123 329.362 155.593C331.008 157.359 330.755 161.91 328.908 163.794C326.942 165.797 325.565 167.691 325.565 168.388C325.565 168.687 325.159 169.298 324.665 169.747C324.17 170.195 323.489 170.904 323.153 171.322C322.816 171.738 322.084 172.439 321.526 172.879C320.969 173.318 319.993 174.577 319.356 175.677C318.719 176.778 316.493 179.381 314.407 181.463L310.616 185.25L308.099 185.41C303.41 185.708 303.624 185.961 302.552 178.878C301.936 174.814 301.622 117.542 302.21 116.591C302.525 116.08 304.371 116.56 305.293 117.39ZM166.471 135.444C167.207 135.725 167.722 136.545 168.543 138.744C169.144 140.355 170.065 142.575 170.59 143.679C171.114 144.781 171.543 145.957 171.543 146.289C171.543 146.622 171.811 147.277 172.137 147.744C173.054 149.052 173.115 155.961 172.218 156.858C171.847 157.229 171.543 157.75 171.543 158.019C171.543 158.287 171.195 159.189 170.769 160.024C170.343 160.859 169.798 162.46 169.558 163.582C169.317 164.704 168.918 165.865 168.67 166.165C168.421 166.463 168.201 167.495 168.181 168.458C168.114 171.517 169.206 171.347 169.705 168.221C169.841 167.371 170.125 166.676 170.336 166.676C170.856 166.676 172.52 163.084 173.558 159.723C175.199 154.41 177.095 153.263 186.545 151.858C189.186 151.467 191.706 151.035 192.147 150.899C192.587 150.763 195.016 150.396 197.547 150.086C200.077 149.774 203.768 149.253 205.748 148.928C211.267 148.024 215.362 147.477 219.75 147.057C221.95 146.846 224.92 146.411 226.35 146.092C227.782 145.772 231.002 145.314 233.51 145.075C236.017 144.835 238.358 144.488 238.711 144.302C239.064 144.117 241.423 143.765 243.953 143.519C246.484 143.274 249.905 142.791 251.555 142.443C254.635 141.795 266.145 141.498 267.8 142.023C268.258 142.168 269.318 143.319 270.155 144.58C270.992 145.842 271.984 147.326 272.36 147.881C272.737 148.436 273.184 149.327 273.355 149.863C273.525 150.399 274.71 152.756 275.989 155.098C277.267 157.442 278.431 159.827 278.575 160.4C278.719 160.973 279.089 161.651 279.397 161.907C279.706 162.164 279.959 162.576 279.96 162.824C279.962 163.072 280.593 164.445 281.364 165.875C282.134 167.307 283.312 169.646 283.98 171.077C285.179 173.642 286.92 177.118 289.224 181.54C290.718 184.409 290.758 188.163 289.302 188.884C288.831 189.119 288.201 189.507 287.902 189.746C287.604 189.985 286.309 190.308 285.026 190.463C283.529 190.644 282.41 191.027 281.904 191.533C281.264 192.173 280.794 192.274 279.408 192.066C275.855 191.533 274.34 192.83 273.539 197.09C273.272 198.514 272.815 200.49 272.526 201.48C272.236 202.471 271.886 204.182 271.747 205.281C270.772 212.995 268.58 215.544 260.755 218.063C258.377 218.829 254.143 220.871 253.123 221.743C252.776 222.04 252.305 222.284 252.079 222.284C251.709 222.284 247.488 224.173 245.953 225.025C243.953 226.136 241.641 227.087 240.94 227.085C240.256 227.084 236.307 228.941 231.352 231.592C229.671 232.491 226.105 233.886 225.484 233.886C225.199 233.886 222.77 234.966 220.087 236.285C217.403 237.606 214.987 238.686 214.716 238.686C214.226 238.686 212.208 239.591 206.948 242.17C201.603 244.791 197.264 244.367 196.621 241.158C196.083 238.478 194.287 236.9 190.902 236.131C185.422 234.888 183.729 233.786 182.553 230.699C182.005 229.262 180.906 226.374 180.109 224.284C179.313 222.193 178.393 219.673 178.066 218.683C177.739 217.692 177.302 216.523 177.094 216.083C176.887 215.642 176.464 214.293 176.154 213.082C175.845 211.872 175.047 208.992 174.382 206.682C173.717 204.371 173.165 201.941 173.155 201.28C173.146 200.62 172.87 199.565 172.542 198.937C172.214 198.308 171.685 196.868 171.366 195.736C170.364 192.179 169.522 189.721 168.881 188.479C168.27 187.298 168.008 184.178 167.826 175.91C167.74 172.016 166.927 170.219 166.669 173.353C166.532 175.008 165.304 175.641 164.124 174.662C163.533 174.171 157.941 164.505 157.941 163.972C157.939 163.198 151.138 150.248 149.861 148.589C146.388 144.076 147.416 142.28 155.141 139.362C157.231 138.572 159.932 137.438 161.142 136.843C162.352 136.247 163.792 135.621 164.343 135.45C164.892 135.28 165.376 135.125 165.416 135.106C165.458 135.087 165.931 135.24 166.471 135.444ZM104.134 141.626C106.335 142.236 109.394 143.012 110.935 143.348C112.475 143.684 113.961 144.142 114.236 144.366C114.512 144.589 115.772 145.008 117.037 145.296C122.543 146.553 127.139 147.789 131.138 149.09C132.347 149.483 134.41 150.039 135.72 150.322C139.239 151.084 139.544 151.539 139.511 155.974C139.474 160.823 139.403 160.952 135.704 162.933C131.397 165.239 124.372 168.676 123.965 168.676C123.783 168.676 123.435 168.917 123.19 169.211C122.945 169.506 122.064 169.951 121.232 170.201C120.398 170.45 119.004 171.307 118.134 172.105C116.025 174.036 114.531 175.077 113.867 175.077C113.568 175.077 112.696 175.409 111.929 175.816C111.163 176.223 109.788 176.673 108.875 176.815C106.273 177.221 98.6708 181.67 97.9994 183.178C97.9268 183.343 97.5592 183.478 97.1839 183.478C96.8085 183.478 95.7964 183.838 94.9328 184.278C94.0693 184.719 92.9778 185.078 92.5075 185.078C91.5389 185.078 87.9405 186.863 87.3306 187.647C85.9542 189.413 79.6982 192.029 76.4394 192.203L73.1472 192.379L72.7126 191.233C72.2333 189.975 72.507 187.728 73.2902 186.479C73.5661 186.039 74.29 184.058 74.9 182.078C75.51 180.098 76.4405 177.187 76.969 175.61C77.4974 174.033 77.9308 172.431 77.9308 172.051C77.9308 171.671 78.5743 170.021 79.3619 168.383C80.8902 165.206 81.737 162.595 82.3693 159.11C82.586 157.919 83.0239 156.479 83.3434 155.909C83.663 155.341 84.3779 153.449 84.9332 151.708C86.2849 147.46 88.832 141.83 89.8687 140.793C90.8664 139.794 99.3121 140.288 104.134 141.626ZM146.433 149.374C146.771 149.758 147.535 151.044 148.13 152.229C148.724 153.416 149.889 155.395 150.718 156.63C151.548 157.864 152.864 160.136 153.644 161.675C154.424 163.215 155.349 165.015 155.699 165.675C156.049 166.336 156.337 167.576 156.338 168.432C156.341 169.416 156.584 170.166 157.002 170.471C157.385 170.752 157.536 171.162 157.361 171.446C157.137 171.806 156.852 171.717 156.284 171.107C155.858 170.65 155.102 170.276 154.603 170.276C153.395 170.276 151.835 169.077 147.749 165.01L144.34 161.616V156.395C144.34 148.966 144.778 147.495 146.433 149.374ZM147.037 167.876C148.69 169.197 150.22 170.276 150.434 170.276C150.965 170.276 154.756 173.321 155.439 174.295C155.74 174.726 156.164 175.077 156.38 175.077C158.16 175.077 164.743 183.47 164.743 185.74C164.743 186.038 165.102 186.953 165.543 187.774C165.983 188.595 166.345 189.54 166.346 189.873C166.348 190.206 166.986 192.279 167.764 194.48C168.541 196.68 169.445 199.328 169.771 200.363C170.097 201.399 170.523 202.345 170.716 202.464C170.909 202.584 171.186 203.626 171.331 204.781C171.475 205.937 171.844 207.692 172.152 208.681C175.906 220.79 176.904 223.848 177.41 224.796C178.071 226.034 178.301 234.521 177.688 235.061C175.761 236.759 157.593 237.769 154.382 236.358C153.369 235.912 152.271 235.435 151.94 235.298C151.611 235.16 150.621 234.607 149.74 234.069C148.86 233.531 147.509 232.809 146.74 232.465C145.97 232.12 144.619 231.498 143.739 231.083C142.86 230.666 141.15 230.044 139.939 229.699C138.729 229.352 136.838 228.639 135.738 228.113C133.202 226.899 132.13 226.462 130.138 225.828C129.257 225.547 128.268 225.116 127.937 224.869C127.607 224.622 125.987 223.745 124.336 222.921C122.686 222.096 121.066 221.272 120.736 221.089C120.406 220.904 118.516 220.259 116.535 219.652C114.556 219.044 111.991 217.952 110.837 217.222C109.683 216.492 108.152 215.626 107.436 215.297C106.72 214.968 105.864 214.53 105.535 214.322C104.115 213.432 101.63 212.393 100.333 212.146C98.8596 211.865 98.1424 211.568 93.933 209.493C89.213 207.165 85.3432 205.041 84.531 204.329C83.3099 203.26 81.88 202.451 80.2891 201.929C74.6162 200.07 76.2283 196.693 84.7589 192.564C86.8636 191.545 89.4744 190.008 90.5592 189.148C93.0013 187.211 95.6914 185.841 99.3333 184.681C104.228 183.12 107.368 181.468 111.578 178.237C112.325 177.665 113.795 176.964 114.846 176.682C115.896 176.399 116.853 176.013 116.97 175.823C117.087 175.633 117.584 175.477 118.076 175.477C118.814 175.477 122.659 173.663 128.795 170.419C129.377 170.112 130.084 169.581 130.367 169.241C131.809 167.503 137.346 165.583 141.084 165.522L144.03 165.475L147.037 167.876ZM331.462 168.777C332.04 169.51 332.434 181.96 331.926 183.42C331.532 184.55 329.586 185.878 328.324 185.878C327.908 185.878 327.904 185.978 328.306 186.379C328.684 186.755 331.268 186.865 338.762 186.821C350.55 186.752 351.709 187.176 345.968 189.464C344.758 189.946 342.818 190.777 341.658 191.31C340.498 191.843 339.283 192.279 338.956 192.279C338.63 192.279 337.692 192.639 336.871 193.079C336.049 193.519 335.011 193.879 334.561 193.879C334.111 193.879 333.388 194.123 332.955 194.42C332.049 195.041 328.331 195.557 327.694 195.152C327.46 195.002 327.137 193.115 326.977 190.959C326.653 186.573 326.134 186.09 325.207 189.311C324.661 191.209 325.048 200.148 325.844 204.045L326.082 205.21L326.523 203.845C327.387 201.176 335.36 202.792 338.887 206.351C339.612 207.083 340.423 207.482 341.187 207.482C341.836 207.482 342.367 207.661 342.367 207.882C342.367 208.475 339.204 208.355 337.367 207.693C336.486 207.376 334.596 207.101 333.166 207.082C331.735 207.063 329.888 206.805 329.061 206.51C327.419 205.924 327.088 206.101 327.423 207.381C327.583 207.992 328.17 208.347 329.579 208.685C331.99 209.264 335.155 211.227 335.199 212.174C335.225 212.719 335.211 219.256 335.168 226.784C335.165 227.399 331.662 227.077 330.72 226.374C330.194 225.983 329.315 225.435 328.766 225.158C328.215 224.881 326.718 223.67 325.438 222.468C324.156 221.266 322.987 220.279 322.837 220.273C322.687 220.269 321.484 218.934 320.164 217.308C318.844 215.683 317.301 214.076 316.736 213.738C315.685 213.109 314.463 208.731 314.969 207.41C315.085 207.107 315.227 202.364 315.284 196.87C315.372 188.449 315.492 186.69 316.051 185.678C316.415 185.018 316.901 183.983 317.129 183.378C317.357 182.774 317.725 182.278 317.947 182.278C318.415 182.278 320.363 178.591 320.363 177.705C320.363 177.375 321.432 176.064 322.736 174.791C324.04 173.518 325.23 171.982 325.38 171.376C325.529 170.772 325.8 170.276 325.982 170.276C326.163 170.276 326.422 169.927 326.557 169.501C326.892 168.445 330.752 167.876 331.462 168.777ZM43.3147 186.46C44.2006 186.936 45.7121 187.854 46.674 188.502C48.7619 189.908 50.9471 191.19 53.9265 192.755C58.6599 195.243 61.1277 197.32 61.1277 198.816C61.1277 199.786 58.6275 202.279 57.6478 202.287C56.6893 202.295 55.6749 202.962 56.0491 203.336C56.2133 203.5 57.288 203.4 58.4376 203.111C59.5872 202.823 62.0929 202.506 64.0066 202.406L67.4843 202.225L68.3222 203.869C69.8058 206.776 69.3656 211.757 67.529 212.85C66.1516 213.668 43.8967 214.206 42.6723 213.449C41.5764 212.772 45.1178 209.081 46.8639 209.081C47.1689 209.081 47.8481 208.747 48.372 208.34C48.8971 207.932 50.002 207.378 50.8264 207.109C51.652 206.839 52.3268 206.473 52.3268 206.294C52.3268 206.114 53.0563 205.676 53.9478 205.32C55.8089 204.575 55.6972 203.698 53.7802 204.005C51.986 204.292 48.6357 205.509 47.895 206.142C47.5476 206.438 47.1029 206.682 46.9063 206.682C46.7108 206.682 44.1983 207.842 41.3239 209.26C36.2163 211.782 33.2044 212.59 32.3889 211.661C31.894 211.096 32.5062 203.89 33.2413 201.641C33.5932 200.563 34.1585 198.51 34.497 197.08C36.3079 189.427 37.2061 186.156 37.6563 185.563C38.1914 184.859 41.2278 185.341 43.3147 186.46ZM61.2148 186.068C61.9365 186.393 63.314 186.856 64.2747 187.096C67.5167 187.91 69.1008 192.329 67.0788 194.916C66.556 195.584 61.6416 195.306 60.816 194.562C60.4373 194.221 59.633 193.819 59.0275 193.667C58.4231 193.516 57.9271 193.261 57.9271 193.101C57.9271 192.94 56.8021 192.066 55.4269 191.16C51.4297 188.524 50.1896 187.07 50.9247 185.883C51.3303 185.227 59.6754 185.378 61.2148 186.068ZM366.933 185.979C368.217 190.627 368.798 196.624 368.688 204.081L368.571 212.082L366.17 211.952C363.841 211.826 357.444 209.689 353.889 207.848C353.076 207.426 352.202 207.082 351.95 207.082C351.696 207.082 350.922 206.821 350.228 206.503C348.846 205.867 344.86 204.44 342.967 203.9C342.307 203.712 341.054 203.182 340.182 202.719C339.31 202.258 338.349 201.88 338.044 201.88C337.739 201.88 337.012 201.631 336.428 201.326C335.844 201.02 334.853 200.566 334.225 200.315C333.241 199.923 333.121 199.711 333.357 198.772C333.778 197.095 334.141 196.845 337.879 195.659C339.798 195.05 341.637 194.423 341.967 194.267C344.021 193.287 352.592 190.077 356.813 188.706C357.387 188.519 358.288 188.135 358.814 187.852C362.227 186.013 366.661 184.99 366.933 185.979ZM32.4012 190.28C32.2995 192.754 31.7331 195.566 30.4808 199.813C29.9379 201.653 29.2854 199.565 28.8654 194.649C28.3269 188.338 28.7827 186.915 31.2673 187.156L32.5241 187.279L32.4012 190.28ZM312.073 195.88C312.419 203.716 312.055 205.692 310.023 206.995C308.431 208.016 308.349 208.082 305.762 210.348C302.404 213.292 297.593 217.898 293.827 221.778C289.639 226.09 287.831 226.346 286.974 222.745C286.578 221.082 285.171 217.46 284.149 215.475C283.306 213.842 282.071 210.323 279.62 202.584C277.703 196.53 277.937 193.62 280.374 193.231C281.255 193.089 282.073 192.818 282.191 192.627C282.309 192.436 283.236 192.279 284.25 192.279C285.265 192.279 288 191.839 290.328 191.302C298.938 189.313 302.832 188.744 307.362 188.813L311.763 188.879L312.073 195.88ZM373.924 192.829C373.863 195.492 373.465 197.303 372.967 197.189C372.397 197.059 371.948 191 372.462 190.375C373.253 189.413 373.975 190.625 373.924 192.829ZM277.466 204.382C277.936 205.537 278.447 207.021 278.601 207.682C278.755 208.342 279.213 209.509 279.62 210.276C280.026 211.043 280.358 211.985 280.358 212.368C280.358 212.752 281.075 214.865 281.95 217.062C284.646 223.827 282.485 224.569 276.939 218.783L273.583 215.283L273.588 211.282C273.59 208.818 273.814 206.667 274.169 205.681C274.486 204.802 274.748 203.781 274.751 203.414C274.758 202.775 275.272 202.38 276.184 202.313C276.419 202.295 276.996 203.226 277.466 204.382ZM79.7306 206.501C80.831 206.898 83.0117 207.914 84.5768 208.759C86.1419 209.602 88.7527 210.744 90.3771 211.296C92.0025 211.846 95.7629 213.492 98.7334 214.952C101.704 216.411 104.495 217.747 104.934 217.92C106.365 218.483 113.76 220.683 114.22 220.683C114.467 220.683 114.729 220.842 114.803 221.034C114.939 221.394 125.899 227.137 127.337 227.603C127.777 227.745 128.407 228.035 128.738 228.246C129.067 228.458 130.507 229.207 131.937 229.909C133.369 230.611 135.576 231.704 136.845 232.336C138.113 232.968 139.461 233.486 139.839 233.486C140.218 233.486 141.43 233.917 142.534 234.445C143.637 234.974 145.8 235.808 147.34 236.3C148.88 236.791 151.529 237.979 153.227 238.94C154.924 239.9 156.428 240.686 156.567 240.686C158.539 240.686 162.742 250.605 162.742 255.258C162.742 257.87 162.15 258.442 158.787 259.08C157.628 259.3 156.47 259.609 156.215 259.767C155.96 259.924 154.399 260.364 152.746 260.745C145.397 262.436 140.817 263.883 139.539 264.921C138.897 265.442 135.411 266.49 132.137 267.146C129.753 267.623 126.876 268.397 124.136 269.299C123.037 269.661 121.147 270.231 119.936 270.566C118.726 270.901 117.532 271.342 117.281 271.544C117.031 271.747 115.591 272.169 114.081 272.481C110.763 273.168 106.324 274.454 105.204 275.054C104.755 275.294 102.68 275.491 100.593 275.491H96.8018L95.7282 273.59C94.7183 271.804 94.2871 270.572 92.9622 265.69C92.4807 263.914 91.8428 262.219 90.1 258.089C89.8218 257.429 89.4621 256.361 89.3012 255.715C89.1404 255.069 88.7672 254.079 88.4723 253.515C88.1774 252.95 87.9361 252.235 87.9338 251.927C87.9327 251.617 87.5004 250.447 86.9731 249.326C86.4458 248.204 85.7263 246.59 85.3733 245.739C84.7231 244.17 82.7312 234.961 82.7312 233.527C82.7312 233.098 82.3056 232.238 81.7861 231.616C80.2322 229.758 78.4347 226.241 77.7297 223.684C77.3656 222.363 76.8114 220.717 76.4986 220.023C76.1858 219.329 75.93 218.362 75.93 217.872C75.93 217.046 74.9145 214.389 73.0891 210.438C70.876 205.647 73.336 204.189 79.7306 206.501ZM314.835 216.858C317.62 219.595 320.679 222.223 321.631 222.697C322.63 223.194 325.863 226.041 329.265 229.418C336.305 236.407 336.376 236.598 333.346 240.628C332.346 241.958 330.61 244.902 329.491 247.167C328.37 249.434 326.699 252.368 325.776 253.688C324.853 255.008 323.318 257.684 322.365 259.636C321.413 261.588 320.218 263.677 319.71 264.28C318.849 265.304 316.417 269.467 315.607 271.307C315.409 271.756 314.943 272.376 314.571 272.684C314.199 272.993 313.261 274.505 312.484 276.047C311.709 277.588 310.598 279.563 310.018 280.434C309.438 281.307 308.656 282.486 308.283 283.056C307.908 283.626 306.618 286.103 305.417 288.56C303.348 292.791 302.432 293.894 300.988 293.894C300.143 293.894 300.139 283.026 300.979 269.69C301.312 264.41 301.669 253.608 301.773 245.687C301.896 236.279 302.161 229.897 302.536 227.284C302.852 225.084 303.235 221.858 303.389 220.117C303.706 216.519 307.171 211.901 309.567 211.883C309.68 211.883 312.051 214.121 314.835 216.858ZM273.474 220.423C274.51 221.38 276.254 222.682 277.35 223.315C283.067 226.622 284.554 229.914 282.394 234.486C280.992 237.453 280.358 239.109 280.358 239.811C280.358 240.194 280.107 240.867 279.8 241.306C279.492 241.744 278.335 243.9 277.227 246.095C276.119 248.291 274.749 250.708 274.185 251.465C273.619 252.224 273.157 253.158 273.157 253.542C273.157 253.926 272.997 254.34 272.802 254.46C272.606 254.582 272.322 255.177 272.172 255.784C271.855 257.056 256.584 287.938 255.452 289.593C254.264 291.332 253.498 291.132 248.708 287.836C245.034 285.31 241.966 283.436 239.353 282.122C238.253 281.569 236.222 280.198 234.84 279.076C233.458 277.954 230.398 276.029 228.04 274.799C225.68 273.569 223.159 272.051 222.436 271.426C221.714 270.802 220.941 270.29 220.719 270.29C220.498 270.29 219.559 269.738 218.633 269.065C216.489 267.503 212.334 264.782 210.122 263.489C205.609 260.854 201.386 251.735 203.249 248.645C203.916 247.537 214.493 242.294 216.074 242.288C216.252 242.287 218.509 241.228 221.089 239.933C223.668 238.639 227.033 237.101 228.566 236.514C230.097 235.929 231.892 235.209 232.552 234.914C234.363 234.109 243.254 229.89 244.048 229.461C244.43 229.254 244.98 229.084 245.269 229.084C245.56 229.084 247.408 228.298 249.376 227.337C251.345 226.375 254.394 225.076 256.155 224.45C259.134 223.39 266.478 219.835 267.337 219.036C268.487 217.966 271.568 218.662 273.474 220.423ZM296.778 225.984C296.986 232.133 296.624 268.198 296.347 268.925C295.638 270.791 293.776 272.213 288.572 274.865C285.718 276.32 282.928 277.937 282.371 278.46C280.785 279.947 269.241 285.385 266.957 285.72C265.856 285.881 264.737 286.301 264.469 286.653C264.025 287.235 263.981 287.233 263.968 286.625C263.962 286.259 264.154 285.894 264.395 285.813C264.636 285.733 264.935 284.42 265.057 282.896C265.206 281.028 265.637 279.404 266.379 277.908C268.201 274.234 269.458 271.252 269.758 269.889C269.913 269.181 270.637 267.495 271.366 266.145C272.096 264.794 274.062 260.9 275.735 257.489C277.409 254.078 278.951 251.017 279.162 250.688C279.374 250.358 279.796 249.547 280.101 248.887C281.061 246.81 285.988 236.913 286.375 236.285C286.579 235.956 287.464 234.137 288.344 232.244C290.398 227.819 292.751 225.485 295.152 225.485C296.164 225.485 296.767 225.67 296.778 225.984ZM193.375 239.755C193.919 240.343 194.476 241.288 194.61 241.855C194.744 242.423 195.07 243.157 195.335 243.486C195.599 243.817 196.054 244.716 196.347 245.487C196.64 246.257 197.094 247.157 197.359 247.487C197.623 247.818 197.968 248.628 198.124 249.288C198.4 250.45 198.825 251.531 200.325 254.888C201.279 257.025 201.664 258.893 201.351 259.88C200.983 261.036 191.643 261.063 186.441 259.922C184.519 259.501 181.145 259.029 178.944 258.875C176.744 258.722 174.224 258.349 173.344 258.049C172.463 257.747 171.294 257.497 170.743 257.492C168.436 257.473 166.849 256.712 166.341 255.382C166.071 254.67 165.6 253.521 165.296 252.827C164.992 252.134 164.742 251.324 164.739 251.027C164.738 250.73 164.392 249.964 163.971 249.325C163.455 248.543 163.113 247.066 162.925 244.821C162.603 240.957 162.913 240.286 165.014 240.286C165.77 240.286 167.143 240.098 168.066 239.869C170.429 239.28 177.783 238.81 185.665 238.743L192.384 238.686L193.375 239.755ZM166.563 263.263C167.448 264.615 168.995 267.473 169.554 268.79C169.811 269.395 170.169 269.89 170.349 269.89C170.947 269.89 172.813 273.674 172.819 274.9C172.823 276.082 171.675 278.491 170.342 280.091C169.977 280.531 169.352 281.791 168.954 282.892C167.852 285.951 165.157 291.412 164.157 292.617C163.239 293.723 163.088 293.992 160.8 298.596C160.062 300.08 159.293 301.565 159.092 301.895C158.89 302.224 158.454 303.125 158.124 303.895C157.793 304.665 157.353 305.566 157.145 305.895C156.937 306.225 155.847 308.385 154.722 310.696C153.597 313.006 152.508 315.166 152.301 315.496C152.093 315.827 151.637 316.727 151.287 317.497C148.585 323.427 146.774 322.769 135.315 311.697C130.989 307.515 127.243 304.023 126.993 303.936C125.98 303.58 119.206 297.368 110.154 288.493C108.807 287.173 106.672 285.384 105.408 284.518C101.982 282.17 101.915 279.973 105.241 279.05C106.173 278.791 107.705 278.335 108.648 278.036C109.591 277.736 110.851 277.486 111.449 277.479C112.047 277.471 113.435 277.023 114.536 276.483C115.636 275.941 116.759 275.496 117.031 275.495C117.499 275.491 122.521 274.046 128.337 272.241C129.768 271.797 131.658 271.25 132.538 271.025C133.418 270.801 135.669 270.179 137.539 269.643C139.409 269.108 141.929 268.396 143.139 268.06C144.349 267.725 146.15 267.179 147.14 266.846C148.131 266.513 149.852 266.014 150.966 265.736C152.08 265.458 153.214 265.091 153.486 264.923C156.68 262.949 165.614 261.816 166.563 263.263ZM184.345 262.663C191.758 263.657 194.19 264.066 194.624 264.392C195.385 264.964 194.432 266.562 192.994 267.123C190.488 268.101 188.901 268.77 186.837 269.719C185.677 270.253 184.506 270.697 184.236 270.704C183.966 270.711 183.025 271.066 182.145 271.49C181.151 271.971 179.675 272.269 178.248 272.277L175.952 272.29L174.484 269.99C173.678 268.725 172.693 267.213 172.298 266.629C171.42 265.336 170.978 263.698 171.288 262.89C171.556 262.191 179.757 262.049 184.345 262.663ZM209.26 268.293C209.822 268.734 211.871 269.926 213.815 270.942C215.759 271.958 217.709 273.113 218.149 273.509C218.59 273.904 220.3 274.988 221.95 275.916C223.6 276.844 225.783 278.296 226.8 279.143C227.817 279.988 229.636 281.199 230.841 281.834C232.048 282.468 234.276 283.794 235.794 284.781C237.311 285.769 239.811 287.241 241.35 288.054C246.869 290.97 248.428 294.328 245.261 296.48C244.439 297.037 243.445 297.494 243.051 297.494C242.656 297.494 241.309 297.854 240.057 298.294C238.804 298.734 237.414 299.101 236.967 299.107C236.519 299.115 235.432 299.469 234.553 299.895C233.672 300.319 232.659 300.674 232.3 300.681C231.943 300.688 230.952 300.994 230.101 301.36C229.248 301.726 227.471 302.255 226.15 302.536C223.816 303.032 221.641 303.668 217.949 304.932C216.96 305.272 215.437 305.726 214.566 305.943C213.693 306.16 212.794 306.488 212.565 306.673C212.336 306.857 211.097 307.225 209.811 307.488C208.525 307.752 206.865 308.222 206.123 308.532C205.381 308.842 204.284 309.096 203.687 309.096C203.089 309.096 201.868 309.447 200.973 309.877C200.079 310.306 198.627 310.841 197.747 311.065C196.867 311.29 194.346 312.104 192.147 312.877C189.946 313.649 187.732 314.285 187.225 314.289C186.719 314.293 185.813 314.551 185.211 314.863C184.61 315.173 183.404 315.544 182.531 315.687C181.659 315.829 180.135 316.269 179.144 316.665C175.833 317.987 170.953 319.505 170.023 319.501C169.517 319.499 168.617 319.742 168.023 320.042C167.428 320.341 166.165 320.705 165.214 320.851C164.263 320.997 163.094 321.364 162.613 321.668C161.416 322.427 158.788 322.778 157.342 322.372C154.655 321.617 155.496 318.885 163.085 303.736C166.747 296.425 169.923 290.075 170.143 289.625C177.039 275.514 178.321 274.13 185.998 272.487C186.739 272.328 187.795 271.971 188.346 271.692C188.896 271.415 190.876 270.589 192.746 269.856C194.617 269.124 196.597 268.293 197.147 268.009C198.924 267.095 208.008 267.306 209.26 268.293ZM91.1501 269.499C91.5925 269.737 92.1835 270.829 92.5499 272.092C92.8996 273.293 93.3375 274.37 93.5241 274.485C93.7106 274.6 93.9765 275.369 94.1162 276.193C94.3899 277.815 96.4845 281.492 97.1336 281.492C97.3537 281.492 97.528 282.437 97.5201 283.592C97.5067 285.827 96.9292 286.599 94.7507 287.288C94.21 287.459 92.1634 288.691 90.2005 290.026L86.6324 292.454L82.4654 292.409C80.173 292.384 78.0805 292.184 77.8146 291.963C77.5476 291.743 76.0697 290.907 74.5302 290.105C72.9897 289.303 71.1329 288.018 70.4034 287.248L69.0785 285.849L69.2036 278.837C69.3578 270.248 68.711 270.973 77.5298 269.498C80.3014 269.035 90.2832 269.036 91.1501 269.499ZM295.067 289.667C295.125 296.253 295.028 301.787 294.851 301.964C294.139 302.676 287.678 302.435 285.289 301.608C281.232 300.203 275.959 298.796 270.557 297.676C265.919 296.714 265.168 296.159 265.168 293.694C265.168 291.807 265.392 291.405 266.851 290.655C267.453 290.345 269.884 289.111 272.252 287.911C274.62 286.71 277.33 285.141 278.272 284.422C279.215 283.704 280.829 282.706 281.857 282.204C284.116 281.102 284.525 280.894 288.131 279.024C290.4 277.847 291.355 277.57 292.96 277.623L294.961 277.691L295.067 289.667ZM308.332 298.078C308.954 298.4 311.15 300.226 313.213 302.136C315.276 304.045 317.904 306.215 319.052 306.956C321.207 308.348 322.173 309.574 321.827 310.475C321.571 311.142 316.294 310.864 314.563 310.092C313.903 309.798 312.823 309.428 312.162 309.27C311.502 309.111 310.295 308.648 309.478 308.239C308.662 307.83 307.582 307.485 307.078 307.473C306.574 307.459 305.171 306.964 303.961 306.372L301.762 305.295L301.905 303.494C302.258 299.05 305.283 296.502 308.332 298.078ZM268.157 300.033C268.817 300.394 269.64 300.69 269.987 300.693C270.333 300.694 272.12 301.145 273.958 301.695C275.796 302.244 277.852 302.696 278.528 302.697C279.205 302.699 280.236 302.949 280.82 303.253C281.404 303.558 282.502 304.013 283.262 304.263C285.674 305.06 285.811 309.096 283.426 309.096C283.162 309.096 282.275 309.456 281.454 309.896C280.633 310.336 279.728 310.696 279.444 310.696C279.159 310.696 278.214 311.066 277.343 311.519C275.385 312.536 273.172 313.377 270.557 314.096C268.095 314.773 264.184 316.142 262.496 316.918C261.802 317.237 260.902 317.498 260.495 317.499C260.089 317.5 259.241 317.771 258.612 318.098C257.983 318.426 256.543 318.956 255.411 319.274C252.967 319.962 249.892 320.962 247.954 321.697C245.897 322.478 242.828 323.485 240.553 324.126C239.452 324.435 238.121 324.916 237.594 325.193C237.051 325.479 235.228 325.698 233.393 325.698H230.151L230.025 324.147C229.884 322.432 242.902 308.601 247.954 305.096C249.164 304.257 250.965 302.727 251.955 301.695C252.944 300.662 254.115 299.656 254.555 299.457C255.96 298.822 266.78 299.282 268.157 300.033ZM243.144 304.12C242.82 304.974 222.821 325.252 219.303 328.296C215.781 331.343 217.567 331.084 200.989 330.95C189.477 330.857 185.427 330.688 182.945 330.199C181.185 329.851 177.927 329.455 175.705 329.319C173.484 329.182 170.514 328.747 169.104 328.35L166.542 327.629L166.422 326.01C166.271 323.989 167.485 322.87 170.271 322.467C171.302 322.317 172.504 321.998 172.944 321.757C173.384 321.515 174.644 321.11 175.744 320.857C177.737 320.398 178.753 320.07 182.545 318.656C183.645 318.246 185.175 317.8 185.945 317.663C187.395 317.406 191.214 316.316 194.346 315.265C198.557 313.85 206.47 311.561 208.927 311.046C210.015 310.817 211.271 310.376 211.717 310.063C212.163 309.752 212.899 309.496 213.353 309.496C213.808 309.496 214.893 309.123 215.765 308.667C216.637 308.212 218.969 307.392 220.95 306.847C226.045 305.444 231.146 303.928 232.552 303.399C234.041 302.84 241.905 302.383 242.841 302.802C243.392 303.049 243.452 303.31 243.144 304.12ZM297.083 310.013C297.557 310.518 298.159 311.543 298.42 312.293C298.682 313.044 299.495 314.718 300.228 316.015C300.962 317.312 301.567 318.491 301.574 318.635C301.581 318.779 302.029 319.797 302.571 320.897C303.128 322.031 303.556 323.611 303.558 324.544C303.56 325.579 303.859 326.567 304.361 327.207C305.97 329.253 304.999 330.62 303.211 328.829C302.588 328.207 301.379 327.047 300.521 326.252C294.432 320.608 288.359 313.882 288.359 312.781C288.359 309.988 295.061 307.861 297.083 310.013ZM306.404 311.066C307.811 311.262 309.773 311.702 310.763 312.047C311.752 312.391 314.273 313.115 316.363 313.655C331.237 317.498 332.964 319.428 327.133 325.698C326.316 326.578 325.013 328.289 324.239 329.498C323.465 330.708 322.306 332.262 321.664 332.952C321.021 333.641 320.008 335.035 319.414 336.051C316.313 341.341 314.965 340.901 311.606 333.499C311.357 332.949 310.645 331.572 310.025 330.438C309.405 329.305 308.388 326.965 307.764 325.238C307.141 323.51 306.3 321.471 305.896 320.703C305.492 319.937 305.162 319.196 305.162 319.059C305.162 318.92 304.442 317.498 303.561 315.897C302.681 314.295 301.962 312.665 301.962 312.273C301.962 310.966 302.43 310.263 303.15 310.492C303.532 310.614 304.997 310.872 306.404 311.066ZM141.456 322.866C145.123 326.618 145.036 328.443 141.148 329.296C140.514 329.436 139.78 329.808 139.517 330.124C139.256 330.44 138.867 330.698 138.655 330.698C138.164 330.698 129.806 334.779 129.537 335.15C129.139 335.697 125.198 336.2 124.759 335.761C123.927 334.93 125.01 332.258 127.302 329.485C127.763 328.928 128.855 327.063 129.729 325.34C130.763 323.303 131.989 321.606 133.24 320.482L135.162 318.754L136.866 319.335C138.039 319.734 139.472 320.837 141.456 322.866ZM333.366 325.898C333.784 327.216 333.22 328.206 331.314 329.492C328.284 331.536 328.349 330.675 331.545 326.398C332.672 324.889 333.015 324.795 333.366 325.898ZM250.254 326.645C250.749 327.271 251.714 328.845 252.399 330.142C253.085 331.438 253.874 332.769 254.153 333.099C254.432 333.429 254.792 334.129 254.953 334.655C255.113 335.181 255.755 336.441 256.38 337.456C257.004 338.47 257.863 340.042 258.29 340.948C258.716 341.855 259.265 342.721 259.51 342.872C260.113 343.245 260.071 343.729 259.374 344.426C259.053 344.746 258.468 345.534 258.073 346.179C253.64 353.403 253.272 353.638 249.354 351.711C248.255 351.169 247.079 350.721 246.743 350.714C246.407 350.708 245.777 350.458 245.342 350.161C244.909 349.864 244.014 349.492 243.354 349.335C241.644 348.927 238.046 347.124 237.836 346.569C237.738 346.312 237.834 342.41 238.049 337.899C238.492 328.616 238.627 328.277 242.153 327.677C243.033 327.528 244.094 327.226 244.512 327.006C245.105 326.694 247.643 325.899 249.154 325.552C249.264 325.526 249.759 326.018 250.254 326.645ZM159.522 331.363C160.013 331.806 159.406 338.914 158.708 340.899C158.287 342.099 157.941 343.438 157.941 343.876C157.941 344.955 156.389 348.824 155.812 349.18C154.835 349.785 153.566 346.132 152.931 340.883C152.772 339.572 152.414 337.78 152.136 336.9C151.291 334.236 151.066 331.87 151.598 331.229C152.044 330.693 158.908 330.809 159.522 331.363ZM148.386 333.899C148.784 335.329 149.313 338.03 149.561 339.9C149.809 341.77 150.244 344.02 150.529 344.901C150.814 345.781 151.112 348.931 151.194 351.902L151.34 357.302L150.34 357.419C149.228 357.549 124.069 345.225 123.125 344.087C121.863 342.566 126.595 339.256 134.938 335.824C135.598 335.552 137.184 334.742 138.461 334.024C139.737 333.306 141.447 332.534 142.261 332.309C143.074 332.083 144.009 331.717 144.34 331.495C146.138 330.283 147.627 331.166 148.386 333.899ZM126.337 350.318C126.337 350.499 126.743 350.769 127.238 350.917C128.206 351.207 135.349 354.516 136.338 355.134C136.669 355.339 137.388 355.706 137.939 355.948C138.488 356.189 139.209 356.549 139.539 356.747C139.869 356.946 140.716 357.406 141.422 357.77C143.624 358.91 142.53 359.186 136.994 358.887C130.532 358.539 130.058 358.304 127.244 354.047C126.974 353.637 126.296 352.615 125.737 351.774C125.18 350.933 124.822 350.086 124.943 349.891C125.198 349.48 126.337 349.827 126.337 350.318Z" fill="#313B44"/>
</svg>
