<svg width="127" height="40" viewBox="0 0 127 40" fill="none" xmlns="http://www.w3.org/2000/svg">
<path fill-rule="evenodd" clip-rule="evenodd" d="M49.6933 14.4876C49.5287 14.5019 49.3069 14.5447 49.2005 14.5826C49.094 14.6202 48.8583 14.6861 48.6768 14.7283C48.3397 14.8072 47.3034 15.2214 47.1763 15.3282C47.1374 15.3608 47.0107 15.4372 46.8945 15.4979C46.7659 15.5652 46.6491 15.6584 46.5954 15.7368L46.5073 15.8651V20.2659V24.6667L46.6011 24.8019C46.6638 24.8923 46.764 24.9699 46.9023 25.0355C47.0164 25.0896 47.1285 25.1564 47.1516 25.184C47.1746 25.2115 47.2608 25.2624 47.3432 25.2971C47.4255 25.3318 47.66 25.4367 47.8638 25.5303C48.0738 25.6264 48.3716 25.7303 48.5503 25.7692C48.724 25.807 48.9928 25.8783 49.1477 25.9279C49.7195 26.1104 51.0627 26.1197 51.5768 25.9443C51.693 25.9048 51.9623 25.8325 52.1752 25.7835C52.3909 25.7338 52.6874 25.635 52.8442 25.5604C52.999 25.4868 53.2288 25.3795 53.3547 25.3221C53.4804 25.2647 53.6152 25.1922 53.6538 25.1609C53.6927 25.1293 53.8114 25.0606 53.9178 25.0078C54.2852 24.8261 54.3226 24.6776 54.2978 23.5024C54.2797 22.6283 54.248 22.5265 53.9407 22.352C53.6046 22.1613 53.0047 22.2589 52.8765 22.5253C52.8475 22.585 52.7979 22.6813 52.7658 22.7391C52.7229 22.8167 52.7024 22.9738 52.6879 23.3367C52.6663 23.8765 52.6279 23.9905 52.4462 24.0554C52.394 24.0742 52.2899 24.1208 52.2149 24.1595C51.2215 24.6709 48.7413 24.5307 48.1796 23.9314L48.0915 23.8376L48.0806 20.4671C48.067 16.302 48.043 16.5539 48.4677 16.405C48.5514 16.3758 48.7622 16.3022 48.9362 16.2417C49.5562 16.0263 51.0008 15.9929 51.6296 16.1792C52.5698 16.458 52.6849 16.5535 52.6872 17.0582C52.6908 17.8038 52.9599 18.2008 53.4618 18.2008C54.1037 18.2008 54.2763 17.9455 54.2981 16.9631C54.3226 15.8703 54.2826 15.7191 53.917 15.5198C53.811 15.462 53.661 15.372 53.5835 15.3196C53.5059 15.2675 53.3775 15.2019 53.2977 15.1739C53.218 15.1459 53.0121 15.0568 52.8399 14.9758C52.668 14.8949 52.3689 14.792 52.1752 14.7475C51.9817 14.7027 51.7283 14.6326 51.6121 14.5916C51.2629 14.4686 50.4265 14.4232 49.6933 14.4876ZM60.4425 14.4869C60.3037 14.5014 60.0422 14.5609 59.8616 14.619C59.6808 14.6772 59.4588 14.742 59.368 14.763C59.2771 14.784 59.0236 14.8852 58.8046 14.988C58.5858 15.0906 58.3562 15.1945 58.2947 15.2189C58.233 15.2433 58.1743 15.2849 58.1642 15.3114C58.154 15.3379 58.052 15.4065 57.9375 15.4641C57.4777 15.6952 57.4912 15.6216 57.4912 17.899V19.7528L57.5894 19.8258C57.6435 19.8659 57.8019 19.9337 57.9415 19.9765C58.0811 20.0192 58.425 20.1237 58.7057 20.2089C58.9865 20.2939 59.3192 20.4059 59.445 20.4577C59.5709 20.5094 59.8208 20.5836 60.0004 20.6225C60.1799 20.6614 60.4017 20.7314 60.4932 20.7783C60.5846 20.8252 60.7944 20.8887 60.9589 20.9194C61.1235 20.9499 61.3622 21.0203 61.4895 21.0759C61.6167 21.1314 61.8623 21.2083 62.0351 21.247C62.9409 21.4493 63.3251 21.6556 63.3716 21.9638C63.4252 22.3196 63.3752 23.7863 63.3059 23.8916C62.9582 24.4196 60.784 24.6625 59.6394 24.301C58.8314 24.0458 58.7613 23.9774 58.729 23.412C58.6635 22.2702 57.7257 21.9184 57.2162 22.8443C57.1431 22.9774 57.1391 23.0266 57.1391 23.8113V24.6381L57.2728 24.8004C57.3499 24.8942 57.4722 24.9916 57.5624 25.0313C57.6481 25.0692 57.778 25.1468 57.8511 25.204C57.9242 25.2612 58.0237 25.3192 58.0721 25.3331C58.1204 25.3469 58.3264 25.4344 58.5298 25.5276C58.7389 25.6235 59.06 25.7349 59.2691 25.7843C59.4723 25.8323 59.7416 25.9048 59.8675 25.9454C60.3861 26.1123 61.7626 26.1126 62.2438 25.9456C62.36 25.9052 62.6371 25.8281 62.86 25.774C63.0826 25.72 63.3511 25.6321 63.4565 25.5789C63.5619 25.5257 63.7737 25.4294 63.9275 25.3648C64.0811 25.3005 64.2338 25.2233 64.2668 25.1934C64.2999 25.1638 64.4205 25.0938 64.5352 25.0383C64.6497 24.9825 64.7908 24.8869 64.8489 24.8259L64.9545 24.7147L64.9653 22.7282C64.9786 20.2686 65.0861 20.5668 64.08 20.2703C63.8118 20.1912 63.5437 20.1017 63.4842 20.071C63.4246 20.0403 63.2269 19.9847 63.045 19.9477C62.8629 19.9107 62.6152 19.834 62.4943 19.7772C62.3735 19.7202 62.1203 19.6422 61.9314 19.6035C61.7428 19.5648 61.4811 19.4864 61.3497 19.429C61.2183 19.3716 60.9936 19.3066 60.8501 19.2847C60.7065 19.2627 60.502 19.2086 60.3956 19.1645C60.2891 19.1203 60.0356 19.0341 59.8322 18.9727C59.0853 18.7471 59.1147 18.799 59.0995 17.6751C59.0843 16.5564 59.0815 16.5632 59.6387 16.3176C60.1979 16.0709 61.4109 15.9778 61.9798 16.1376C62.3296 16.236 62.7248 16.4267 62.8779 16.5712L63.0266 16.7114L63.0448 17.083C63.0953 18.1152 63.9518 18.4449 64.523 17.6522C64.6254 17.5098 64.6284 17.4945 64.6465 16.9854C64.6848 15.9115 64.6322 15.7326 64.2053 15.4815C64.0836 15.41 63.9753 15.3375 63.9647 15.3205C63.9311 15.2662 63.0245 14.8473 62.8063 14.7851C62.6906 14.7521 62.4489 14.6779 62.2692 14.6202C61.7899 14.4663 61.111 14.4167 60.4425 14.4869ZM68.0479 14.4884C67.8496 14.5469 67.5214 14.9363 67.4935 15.1463C67.4622 15.3804 67.5372 15.7126 67.6213 15.7126C67.6409 15.7126 67.717 15.7667 67.7907 15.8329C67.9751 15.9988 68.1124 16.0276 68.7216 16.0278C69.339 16.0282 69.4463 16.065 69.5113 16.2978C69.5743 16.5234 69.5622 24.1286 69.4987 24.28C69.4114 24.488 69.3231 24.509 68.5382 24.509C67.7396 24.509 67.6766 24.521 67.4402 24.7195C67.0655 25.0341 67.0778 25.5107 67.4705 25.8932L67.6504 26.0686H70.3812H73.1119L73.2678 25.8932C73.6512 25.4628 73.6508 25.0301 73.267 24.6823L73.0952 24.5265L72.2826 24.5149C71.3746 24.5016 71.3201 24.4878 71.217 24.2422C71.1446 24.0693 71.1443 16.4681 71.2168 16.2955C71.3222 16.0446 71.379 16.028 72.1354 16.028C72.88 16.028 73.087 15.9921 73.2437 15.8363C73.293 15.7873 73.3713 15.7183 73.418 15.683C73.647 15.5099 73.5557 14.9733 73.2418 14.6474L73.0695 14.4684L70.6139 14.4621C69.186 14.4585 68.1119 14.4695 68.0479 14.4884ZM86.1969 14.4876C86.0304 14.5023 85.7453 14.5616 85.5632 14.6192C85.3813 14.6768 85.1374 14.743 85.0212 14.7664C84.905 14.7899 84.7229 14.8486 84.6165 14.897C84.5098 14.9451 84.3581 15.0143 84.2794 15.0502C84.2006 15.0862 84.0669 15.1398 83.9826 15.1695C83.8981 15.1991 83.7764 15.2635 83.7118 15.3125C83.6471 15.3615 83.5086 15.4405 83.4036 15.4885C83.2036 15.5797 83.0113 15.7645 82.9788 15.8972C82.9685 15.9401 82.9642 17.931 82.9695 20.321L82.9795 24.6667L83.0823 24.8007C83.1434 24.8801 83.2726 24.9785 83.3992 25.0418C83.5168 25.1009 83.6765 25.1922 83.7538 25.2445C83.8313 25.2971 83.9581 25.3602 84.0356 25.385C84.1129 25.4096 84.2872 25.4851 84.4228 25.5528C84.5584 25.6203 84.8514 25.7198 85.074 25.774C85.2966 25.8281 85.5729 25.9048 85.6878 25.9443C86.2148 26.1266 87.5375 26.1113 88.1721 25.9157C88.3561 25.8592 88.6332 25.7849 88.7882 25.7509C88.9431 25.7168 89.1733 25.638 89.3 25.5755C89.4266 25.5131 89.6317 25.4208 89.7557 25.3705C89.8799 25.3204 90.0142 25.2485 90.0543 25.2111C90.0945 25.1735 90.2309 25.0959 90.3577 25.0387C90.7463 24.8633 90.7818 24.784 90.8027 24.0456C90.8221 23.363 90.7738 22.7114 90.6971 22.6222C90.6696 22.59 90.6369 22.5356 90.6246 22.5009C90.5666 22.3383 90.0497 22.196 89.7647 22.2641C89.3695 22.3585 89.2293 22.6218 89.1957 23.3329C89.1674 23.9265 89.1587 23.944 88.8195 24.1044C87.7479 24.6108 85.9413 24.6116 84.9342 24.1063C84.5199 23.8986 84.5651 24.3305 84.5527 20.4663C84.5406 16.7825 84.5436 16.6902 84.6746 16.5693C85.2677 16.0221 87.3764 15.8829 88.5242 16.315C89.1477 16.5499 89.1929 16.6002 89.1932 17.0584C89.194 17.9657 89.5907 18.3623 90.2865 18.1516C90.7026 18.0256 90.815 17.7121 90.8093 16.6937C90.8042 15.8262 90.7573 15.6945 90.39 15.5152C90.2835 15.463 90.1443 15.3825 90.0805 15.336C89.9018 15.2052 88.9367 14.8057 88.6598 14.7477C88.5238 14.7193 88.2918 14.6556 88.1444 14.6064C87.7264 14.4667 86.9598 14.4198 86.1969 14.4876ZM111.518 14.5094C111.09 14.7229 111.043 16.0701 111.454 16.3363C111.671 16.4763 112.911 16.5018 113.167 16.3714C113.593 16.1548 113.636 14.8461 113.226 14.5422C113.087 14.4388 111.712 14.4123 111.518 14.5094ZM121.154 14.6514C120.85 14.935 120.862 14.8734 120.842 16.2223C120.82 17.7424 120.829 17.7249 120.113 17.6154C119.483 17.5193 118.569 17.5862 117.92 17.7754C117.794 17.8122 117.564 17.8768 117.41 17.919C117.255 17.9611 117.096 18.0246 117.058 18.0599C117.019 18.0952 116.883 18.1724 116.757 18.2315C116.559 18.3238 116.515 18.3625 116.44 18.5065L116.354 18.6739L116.345 21.7929L116.337 24.9121L116.416 25.0694C116.502 25.2424 116.568 25.291 117.168 25.6235C117.213 25.6485 117.555 25.7576 117.928 25.8657L118.606 26.0627L119.381 26.0631L120.156 26.0636L120.832 25.8667C121.589 25.6466 122.134 25.381 122.315 25.1445L122.409 25.0227V20.0434V15.0641L122.274 14.8816C122.047 14.5731 121.897 14.4859 121.59 14.4859H121.332L121.154 14.6514ZM95.9875 17.6093C95.8424 17.6261 95.5967 17.6732 95.4419 17.7142C95.2869 17.7552 95.0256 17.8242 94.861 17.8673C94.4297 17.9806 93.7586 18.3394 93.6942 18.4908C93.6287 18.6453 93.6226 25.0463 93.6879 25.1592C93.8467 25.4342 95.3464 25.9895 96.1107 26.0564C96.5065 26.0911 97.3679 26.0676 97.5781 26.0162C98.1968 25.8657 98.8454 25.6489 99.066 25.5194C99.2026 25.439 99.3663 25.3427 99.4299 25.3055C99.6988 25.148 99.684 25.3509 99.684 21.8013V18.635L99.5818 18.4746C99.5043 18.3528 99.4303 18.291 99.2744 18.2176C99.1616 18.1644 99.0136 18.0845 98.9453 18.0401C98.8773 17.9956 98.671 17.9205 98.487 17.8732C98.303 17.8257 98.0339 17.7546 97.8886 17.7153C97.4025 17.5834 96.6018 17.5388 95.9875 17.6093ZM102.656 17.7239C102.236 18.0059 102.138 18.3644 102.353 18.8316C102.393 18.9182 102.458 19.1233 102.498 19.2873C102.621 19.7886 102.715 20.1336 102.802 20.4087C102.848 20.5533 102.917 20.8307 102.956 21.0252C102.995 21.2199 103.061 21.4541 103.102 21.546C103.143 21.6379 103.206 21.881 103.244 22.086C103.322 22.52 103.325 22.5312 103.436 22.8148C103.483 22.9336 103.547 23.186 103.578 23.3756C103.61 23.5653 103.674 23.8126 103.721 23.9253C103.768 24.038 103.868 24.3692 103.943 24.6612C104.171 25.5482 104.348 25.8953 104.638 26.023C104.802 26.0951 106.229 26.1069 106.38 26.0373C106.589 25.9414 106.909 25.2395 107.025 24.6244C107.056 24.4575 107.121 24.2251 107.168 24.1082C107.216 23.9913 107.288 23.7064 107.328 23.4751C107.369 23.2345 107.439 22.9721 107.49 22.8619C107.54 22.7559 107.611 22.5034 107.649 22.3011C107.687 22.0988 107.772 21.7733 107.837 21.5782C107.903 21.3829 107.972 21.1148 107.991 20.9823C108.009 20.85 108.082 20.5603 108.152 20.3386C108.292 19.8956 108.341 19.7238 108.444 19.3047C108.482 19.1506 108.557 18.9063 108.609 18.7618C108.759 18.3507 108.727 18.1064 108.498 17.899C107.812 17.2789 107.268 17.5967 107.059 18.7397C107.028 18.9107 106.964 19.1531 106.917 19.2784C106.869 19.4036 106.775 19.7318 106.706 20.0077C106.638 20.2835 106.543 20.6164 106.495 20.7472C106.448 20.878 106.383 21.1352 106.352 21.3189C106.321 21.5025 106.242 21.7883 106.178 21.954C106.113 22.1197 106.035 22.4035 106.005 22.5848C105.975 22.766 105.895 23.0722 105.828 23.2648C105.76 23.4576 105.704 23.6513 105.704 23.6952C105.704 23.8916 105.611 24.0191 105.486 23.9955C105.316 23.9633 105.29 23.931 105.21 23.6551C105.17 23.5176 105.106 23.3182 105.066 23.2122C105.027 23.1063 104.964 22.8323 104.926 22.6033C104.884 22.3459 104.818 22.0974 104.754 21.9523C104.696 21.8194 104.619 21.5397 104.577 21.3088C104.537 21.0843 104.464 20.8143 104.416 20.7091C104.367 20.6038 104.303 20.3788 104.272 20.2091C104.241 20.0394 104.155 19.7112 104.081 19.4799C104.006 19.2486 103.904 18.88 103.855 18.6604C103.76 18.2393 103.725 18.1535 103.53 17.8614C103.332 17.5639 102.978 17.5084 102.656 17.7239ZM112.05 17.6808C111.768 17.8168 111.621 18.0427 111.581 18.4008C111.525 18.8955 111.553 25.34 111.612 25.4716C111.868 26.0503 112.451 26.2303 112.861 25.8573C113.175 25.5715 113.15 25.9319 113.15 21.7637V18.0546L112.944 17.8656C112.65 17.5952 112.354 17.534 112.05 17.6808ZM97.547 19.2719C98.1336 19.3947 98.1034 19.2524 98.0918 21.8368C98.0825 23.9038 98.0802 23.9699 98.0102 24.1023C97.7561 24.5845 95.6958 24.5921 95.3393 24.1122C95.2296 23.9644 95.2051 19.7682 95.3129 19.5676C95.4244 19.36 95.5967 19.2929 96.2516 19.2023C96.4541 19.1744 97.2971 19.2196 97.547 19.2719ZM120.244 19.2698C120.5 19.3232 120.7 19.4395 120.782 19.5819C120.829 19.6628 120.867 23.4898 120.824 23.8363C120.776 24.2283 120.397 24.4243 119.614 24.4632C118.77 24.5048 118.212 24.3591 118.052 24.0546L117.955 23.8702V21.8051C117.955 19.5343 117.948 19.6107 118.172 19.4031C118.388 19.2023 119.561 19.1268 120.244 19.2698Z" fill="#FF7D62"/>
<path fill-rule="evenodd" clip-rule="evenodd" d="M49.3231 14.4156C49.2263 14.4301 48.9887 14.4902 48.795 14.5493C48.6015 14.6084 48.34 14.6877 48.2141 14.7255C47.896 14.821 47.1939 15.1421 47.0876 15.2405C47.0393 15.2853 46.8975 15.3744 46.7725 15.4386C46.5769 15.5389 46.5317 15.5813 46.4464 15.7439L46.3473 15.9327L46.3566 20.2997L46.3659 24.6666L46.4421 24.8069C46.5218 24.9528 46.576 24.9961 46.843 25.1255C46.9311 25.1683 47.0241 25.2285 47.0498 25.2594C47.165 25.3975 48.0373 25.7731 48.6015 25.9276C48.7853 25.9779 49.0151 26.0431 49.1118 26.0723C49.5799 26.214 51.4043 26.1697 51.8931 26.0048C52.0287 25.9592 52.2583 25.8934 52.4036 25.8587C52.7108 25.7855 53.54 25.4144 53.6763 25.289C53.7276 25.2419 53.8689 25.1536 53.9902 25.0927C54.3657 24.9042 54.409 24.7669 54.4065 23.773C54.4037 22.6495 54.3676 22.5065 54.0259 22.2693C53.7354 22.0676 53.4334 22.0451 53.1076 22.201C52.6985 22.3967 52.6218 22.5601 52.591 23.3005C52.5646 23.9391 52.6142 23.8707 52.0272 24.0758C51.3095 24.3264 50.3323 24.4141 49.552 24.2982C49.2031 24.2465 48.3436 23.9624 48.261 23.8716C48.1995 23.8039 48.1966 23.6422 48.1966 20.2656V16.7307L48.2745 16.6531C48.3438 16.5841 48.7063 16.4535 49.288 16.2878C49.9709 16.0936 50.993 16.1432 51.8756 16.4134C52.561 16.6234 52.5794 16.638 52.5798 16.9691C52.5811 17.9551 52.8149 18.2781 53.5301 18.2823C54.2109 18.2861 54.3685 18.0487 54.3983 16.9742C54.4297 15.8364 54.3697 15.6103 53.991 15.4396C53.8826 15.3906 53.7538 15.3099 53.7046 15.26C53.6554 15.2102 53.5128 15.1242 53.3877 15.0693C53.2627 15.0142 53.0496 14.9162 52.914 14.8517C52.7786 14.7871 52.5251 14.7001 52.3508 14.6582C52.1766 14.6164 51.9611 14.5539 51.872 14.5192C51.5465 14.3922 49.9234 14.3264 49.3231 14.4156ZM60.0957 14.4137C59.999 14.429 59.752 14.499 59.5469 14.5689C59.342 14.6389 59.1564 14.6961 59.1344 14.6961C59.047 14.6961 58.1535 15.1498 58.0626 15.2403C58.0094 15.2933 57.8905 15.3719 57.7986 15.4148C57.3747 15.6131 57.3869 15.5428 57.3747 17.8018L57.3641 19.7334L57.4566 19.8427C57.588 19.9983 57.9422 20.1502 58.5996 20.3329C58.8028 20.3895 59.0721 20.4773 59.198 20.5284C59.3239 20.5795 59.5539 20.6435 59.7092 20.6704C60.0034 20.7217 60.1071 20.7532 60.3422 20.864C60.4197 20.9004 60.6257 20.9559 60.7999 20.9873C60.9888 21.0213 61.2011 21.0876 61.3255 21.1511C61.4404 21.2097 61.67 21.2861 61.836 21.3208C62.3432 21.4269 63.1452 21.7371 63.2322 21.8607C63.2855 21.9362 63.3051 23.2774 63.2586 23.6619C63.2365 23.8459 63.2333 23.8504 63.0565 23.9326C62.0162 24.4173 60.6428 24.4894 59.5326 24.1178C58.8689 23.8958 58.9008 23.934 58.8683 23.3257C58.8457 22.905 58.7825 22.7336 58.5635 22.497C58.1296 22.0283 57.166 22.2796 57.0614 22.8886C56.9989 23.253 57.027 24.621 57.1003 24.7827C57.1628 24.9204 57.4896 25.1749 57.6043 25.1749C57.6229 25.1749 57.6674 25.207 57.7033 25.2466C57.8537 25.4121 58.608 25.7441 59.2235 25.9159C59.4322 25.9741 59.6821 26.0469 59.7789 26.0776C59.9242 26.1236 60.1483 26.1337 61.064 26.1348L62.1729 26.1358L62.5073 26.0263C62.6913 25.9659 62.9633 25.8841 63.112 25.8444C63.2608 25.8046 63.5501 25.693 63.7554 25.5963C63.9606 25.4993 64.1399 25.42 64.154 25.42C64.168 25.4198 64.2588 25.3605 64.3555 25.2882C64.4523 25.2157 64.598 25.1271 64.6794 25.0912C65.0492 24.9274 65.042 24.9749 65.042 22.6968C65.042 20.2254 65.0858 20.4103 64.461 20.2334C64.248 20.1731 63.9392 20.0793 63.7745 20.025C63.6099 19.9706 63.3406 19.8989 63.1761 19.8659C63.0115 19.8326 62.7819 19.7605 62.6657 19.7056C62.5495 19.6508 62.2944 19.5736 62.0988 19.5345C61.9032 19.4952 61.6734 19.4256 61.5882 19.3799C61.5031 19.3341 61.2989 19.2689 61.1343 19.2348C60.9698 19.201 60.7066 19.1207 60.5494 19.0561C60.3921 18.9916 60.0911 18.8923 59.8805 18.8351C59.1593 18.64 59.19 18.6993 59.205 17.5285C59.2168 16.6216 59.2242 16.5896 59.4384 16.5364C59.4901 16.5236 59.5801 16.4929 59.6382 16.4683C59.8813 16.3648 59.9506 16.3415 60.217 16.2738C60.9569 16.0856 61.7845 16.1688 62.5776 16.5112C62.833 16.6213 62.8655 16.6792 62.9 17.085C62.946 17.626 62.9728 17.6965 63.2229 17.9328C63.6331 18.3204 63.9969 18.3185 64.4677 17.9267C64.7007 17.7329 64.7252 17.6117 64.7252 16.6579C64.7252 15.7182 64.7024 15.6375 64.3822 15.4497C64.2837 15.3919 64.1502 15.3031 64.0858 15.2525C63.879 15.0905 63.2046 14.7655 62.8594 14.6612C62.6754 14.6059 62.4298 14.5253 62.3136 14.4822C62.0848 14.3977 60.5021 14.3487 60.0957 14.4137ZM67.9428 14.4101C67.8218 14.448 67.5092 14.751 67.453 14.8849C67.3791 15.0607 67.3822 15.5653 67.4579 15.6728C67.7341 16.0656 67.9251 16.1425 68.6701 16.1606L69.2879 16.1756L69.3652 16.2878L69.4426 16.4001V20.2767V24.1531L69.3543 24.2577L69.266 24.3622L68.4637 24.3741C67.5531 24.3878 67.5878 24.3784 67.2739 24.7018C66.8677 25.1202 67.0248 25.8738 67.5669 26.1072C67.7367 26.1804 73.0622 26.1798 73.2024 26.1066C73.4996 25.9516 73.6454 25.6741 73.6468 25.2609C73.6481 24.8893 73.488 24.6225 73.1291 24.399C73.1249 24.3964 72.7419 24.3847 72.2779 24.3727L71.4342 24.3512L71.3538 24.2322L71.2733 24.113V20.2713V16.4296L71.3599 16.3028L71.4465 16.1758L72.2137 16.1602C73.0907 16.1423 73.0964 16.1409 73.386 15.8606C73.7689 15.4899 73.7478 14.9568 73.334 14.556L73.1714 14.3983L70.5942 14.3926C69.1766 14.3895 67.9836 14.3975 67.9428 14.4101ZM85.803 14.4183C85.6716 14.4362 85.506 14.4749 85.4349 14.5045C85.3639 14.5342 85.1524 14.597 84.9651 14.6443C84.7779 14.6914 84.4921 14.7913 84.3299 14.8662C84.1677 14.941 83.9639 15.0321 83.8768 15.0683C83.79 15.1046 83.6493 15.1869 83.5644 15.2512C83.4795 15.3155 83.3426 15.3971 83.2601 15.4322C82.8422 15.6106 82.8579 15.4228 82.8579 20.2683C82.8579 25.1322 82.8361 24.8632 83.2474 25.0872C83.3536 25.145 83.4909 25.2289 83.5528 25.2735C83.7366 25.4064 84.5832 25.7941 84.7919 25.8412C84.8983 25.8654 85.1598 25.9413 85.3728 26.0101L85.7599 26.1352L86.8689 26.1343C87.7924 26.1335 88.0074 26.124 88.154 26.0767C88.2507 26.0456 88.5201 25.9668 88.7524 25.9016C89.2156 25.7716 89.9841 25.4388 90.1782 25.284C90.246 25.23 90.3727 25.1541 90.4598 25.1154C90.844 24.9446 90.8822 24.8208 90.8822 23.7515C90.8822 22.5258 90.8467 22.414 90.3871 22.1976C90.0371 22.0327 89.784 22.0573 89.4459 22.2893C89.1635 22.4829 89.1286 22.5769 89.0908 23.2511C89.0528 23.9319 89.0963 23.8756 88.4356 24.101C87.5024 24.4196 86.1674 24.4311 85.3696 24.1279C85.2164 24.0697 85.0494 24.0121 84.9985 23.9999C84.9476 23.9877 84.8525 23.9334 84.7872 23.8792L84.6687 23.7808L84.658 20.4212C84.652 18.5735 84.6567 16.9828 84.6683 16.8861C84.6951 16.6615 84.779 16.6018 85.3024 16.4344C86.3928 16.0858 87.3587 16.0858 88.4389 16.4344C89.0897 16.6445 89.0549 16.5944 89.1043 17.3872C89.1506 18.125 89.6459 18.4583 90.3768 18.243C90.7872 18.1221 90.8613 17.9179 90.8763 16.8665C90.8902 15.8766 90.8723 15.7611 90.6744 15.5735C90.4577 15.3683 89.4374 14.8285 89.0555 14.7171C88.9662 14.691 88.7744 14.6351 88.6293 14.5926C88.4839 14.5504 88.286 14.4913 88.1891 14.4612C87.9795 14.3962 86.1997 14.3643 85.803 14.4183ZM111.399 14.437C111.052 14.5834 110.944 15.9775 111.252 16.3413C111.542 16.684 113.287 16.6405 113.487 16.2853C113.743 15.8311 113.656 14.6692 113.35 14.4625C113.215 14.3712 111.605 14.3502 111.399 14.437ZM121.246 14.4286C120.815 14.6303 120.765 14.8006 120.74 16.1802L120.718 17.3314L120.613 17.4164C120.513 17.4969 120.492 17.5001 120.225 17.4744C119.273 17.3825 118.292 17.4696 117.673 17.7007C117.489 17.7694 117.276 17.8401 117.199 17.8575C117.121 17.875 117.007 17.9284 116.944 17.9761C116.881 18.0239 116.73 18.1141 116.609 18.1765C116.215 18.3797 116.247 18.0508 116.247 21.8279C116.247 25.6932 116.157 25.194 116.938 25.6593C117.813 26.1812 119.878 26.3328 121.029 25.9596C121.966 25.6556 122.402 25.3858 122.495 25.0521C122.559 24.821 122.529 15.0567 122.464 14.9415C122.354 14.7482 122.139 14.4946 122.047 14.4511C121.904 14.3828 121.376 14.368 121.246 14.4286ZM51.0129 14.4845C51.2385 14.5035 51.4884 14.5483 51.6115 14.5916C51.7277 14.6326 51.9812 14.7026 52.1747 14.7474C52.3683 14.792 52.6674 14.8948 52.8394 14.9757C53.0115 15.0567 53.2175 15.1458 53.2971 15.1738C53.377 15.2018 53.5054 15.2674 53.5829 15.3195C53.6604 15.3719 53.8104 15.4619 53.9164 15.5197C54.2821 15.7191 54.322 15.8702 54.2975 16.963C54.2757 17.9454 54.1032 18.2007 53.4612 18.2007C52.9594 18.2007 52.6903 17.8037 52.6867 17.0581C52.6843 16.5534 52.5692 16.458 51.6291 16.1791C51.0002 15.9928 49.5556 16.0263 48.9357 16.2416C48.7616 16.3021 48.5508 16.3757 48.4672 16.405C48.0424 16.5538 48.0665 16.3019 48.08 20.467L48.091 23.8375L48.1791 23.9313C48.7407 24.5306 51.221 24.6708 52.2144 24.1595C52.2894 24.1208 52.3935 24.0741 52.4457 24.0554C52.6273 23.9904 52.6658 23.8764 52.6873 23.3367C52.7019 22.9737 52.7224 22.8166 52.7652 22.7391C52.7974 22.6812 52.847 22.5849 52.8759 22.5252C53.0041 22.2588 53.604 22.1612 53.9401 22.3519C54.2474 22.5265 54.2791 22.6282 54.2973 23.5023C54.322 24.6776 54.2846 24.826 53.9173 25.0077C53.8108 25.0605 53.6921 25.1292 53.6533 25.1608C53.6146 25.1921 53.4798 25.2647 53.3542 25.3221C53.2283 25.3795 52.9984 25.4867 52.8436 25.5603C52.6869 25.6349 52.3903 25.7338 52.1747 25.7834C51.9617 25.8324 51.6924 25.9047 51.5762 25.9443C51.0621 26.1196 49.7189 26.1104 49.1471 25.9279C48.9923 25.8782 48.7234 25.807 48.5498 25.7691C48.3711 25.7302 48.0732 25.6263 47.8633 25.5302C47.6594 25.4367 47.425 25.3317 47.3426 25.297C47.2602 25.2623 47.174 25.2115 47.151 25.1839C47.128 25.1564 47.0158 25.0895 46.9018 25.0355C46.7634 24.9699 46.6633 24.8923 46.6006 24.8018L46.5068 24.6666V20.2658V15.865L46.5948 15.7367C46.6485 15.6583 46.7653 15.5651 46.8939 15.4978C47.0101 15.4371 47.1369 15.3608 47.1757 15.3282C47.3029 15.2213 48.3392 14.8071 48.6763 14.7282C48.8577 14.686 49.0935 14.6202 49.1999 14.5825C49.525 14.4669 50.304 14.4248 51.0129 14.4845ZM61.6174 14.4839C61.7993 14.5016 62.0855 14.5613 62.2686 14.6202C62.4484 14.6778 62.69 14.752 62.8058 14.785C63.024 14.8473 63.9306 15.2661 63.9641 15.3204C63.9747 15.3374 64.0831 15.41 64.2047 15.4814C64.6316 15.7325 64.6842 15.9115 64.646 16.9853C64.5947 18.4253 63.1144 18.5155 63.0442 17.0829L63.0261 16.7113L62.8774 16.5711C62.2866 16.0137 60.6223 15.8835 59.6382 16.3175C59.081 16.5631 59.0837 16.5564 59.0989 17.675C59.1141 18.7989 59.0848 18.747 59.8317 18.9726C60.0351 19.034 60.2886 19.1202 60.395 19.1644C60.5015 19.2086 60.7059 19.2626 60.8496 19.2847C60.993 19.3065 61.2178 19.3715 61.3491 19.4289C61.4805 19.4863 61.7422 19.5648 61.9309 19.6034C62.1197 19.6421 62.373 19.7202 62.4938 19.7771C62.6146 19.8339 62.8624 19.9107 63.0445 19.9477C63.2263 19.9847 63.424 20.0402 63.4836 20.0709C63.5432 20.1016 63.8112 20.1912 64.0795 20.2702C65.0856 20.5667 64.978 20.2685 64.9647 22.7281L64.954 24.7146L64.8483 24.8258C64.7903 24.8868 64.6492 24.9825 64.5347 25.0382C64.42 25.0937 64.2994 25.1637 64.2662 25.1934C64.2332 25.2232 64.0805 25.3004 63.927 25.3647C63.7732 25.4293 63.5613 25.5256 63.4559 25.5788C63.3505 25.632 63.0821 25.7199 62.8594 25.7739C62.6366 25.828 62.3594 25.9051 62.2433 25.9455C61.7621 26.1125 60.3855 26.1123 59.867 25.9453C59.7411 25.9047 59.4717 25.8322 59.2685 25.7842C59.0594 25.7348 58.7384 25.6234 58.5292 25.5275C58.3258 25.4343 58.1199 25.3469 58.0715 25.333C58.0231 25.3191 57.9237 25.2611 57.8506 25.2039C57.7775 25.1467 57.6476 25.0691 57.5618 25.0313C57.4716 24.9915 57.3493 24.8942 57.2722 24.8004L57.1385 24.638V23.8112C57.1385 22.8833 57.1408 22.8734 57.4268 22.5546C57.6814 22.271 58.156 22.2651 58.4181 22.5422C58.645 22.7822 58.7014 22.9403 58.7284 23.4119C58.7607 23.9774 58.8309 24.0457 59.6388 24.301C60.7835 24.6624 62.9576 24.4196 63.3053 23.8916C63.3746 23.7862 63.4247 22.3196 63.371 21.9638C63.3245 21.6555 62.9403 21.4492 62.0346 21.2469C61.8618 21.2083 61.6161 21.1313 61.489 21.0758C61.3616 21.0203 61.1229 20.9498 60.9584 20.9193C60.7938 20.8886 60.5841 20.8251 60.4926 20.7782C60.4011 20.7314 60.1794 20.6613 59.9998 20.6224C59.8203 20.5835 59.5704 20.5093 59.4445 20.4576C59.3186 20.4059 58.9859 20.2938 58.7052 20.2088C58.4245 20.1237 58.0806 20.0192 57.941 19.9765C57.8014 19.9336 57.6429 19.8659 57.5889 19.8257L57.4906 19.7527V17.899C57.4906 15.6215 57.4771 15.6951 57.937 15.464C58.0514 15.4064 58.1535 15.3378 58.1636 15.3113C58.1737 15.2848 58.2325 15.2432 58.2941 15.2188C58.3556 15.1944 58.5852 15.0905 58.8041 14.9879C59.0231 14.8851 59.2766 14.784 59.3674 14.7629C59.4582 14.7419 59.6802 14.6771 59.861 14.6189C60.3441 14.4635 60.9341 14.4181 61.6174 14.4839ZM73.2413 14.6473C73.5552 14.9732 73.6464 15.5098 73.4175 15.6829C73.3708 15.7182 73.2924 15.7872 73.2432 15.8362C73.0865 15.992 72.8794 16.0279 72.1349 16.0279C71.3785 16.0279 71.3216 16.0446 71.2162 16.2954C71.1438 16.4681 71.144 24.0692 71.2165 24.2421C71.3195 24.4877 71.374 24.5016 72.2821 24.5148L73.0947 24.5264L73.2664 24.6822C73.6502 25.03 73.6506 25.4627 73.2673 25.8932L73.1114 26.0685H70.3806H67.6499L67.4699 25.8932C67.0772 25.5107 67.065 25.034 67.4397 24.7194C67.6761 24.5209 67.739 24.5089 68.5377 24.5089C69.3226 24.5089 69.4109 24.4879 69.4981 24.2799C69.5617 24.1285 69.5737 16.5234 69.5108 16.2977C69.4457 16.065 69.3384 16.0282 68.721 16.0277C68.1118 16.0275 67.9745 15.9987 67.7901 15.8328C67.7164 15.7666 67.6404 15.7125 67.6207 15.7125C67.5366 15.7125 67.4617 15.3803 67.4929 15.1463C67.5208 14.9362 67.8491 14.5468 68.0474 14.4883C68.1114 14.4694 69.1855 14.4585 70.6134 14.462L73.0689 14.4683L73.2413 14.6473ZM87.522 14.485C87.7286 14.5035 87.9875 14.5541 88.1439 14.6063C88.2913 14.6555 88.5232 14.7192 88.6593 14.7476C88.9362 14.8056 89.9013 15.2051 90.08 15.3359C90.1438 15.3824 90.283 15.4629 90.3894 15.5151C90.7568 15.6945 90.8036 15.8261 90.8087 16.6937C90.8144 17.712 90.702 18.0256 90.2859 18.1515C89.5901 18.3622 89.1935 17.9656 89.1926 17.0583C89.1924 16.6001 89.1472 16.5498 88.5236 16.315C87.3758 15.8829 85.2671 16.0221 84.674 16.5692C84.5431 16.6901 84.5401 16.7824 84.5521 20.4662C84.5646 24.3304 84.5194 23.8985 84.9336 24.1063C85.9408 24.6115 87.7474 24.6107 88.8189 24.1044C89.1582 23.9439 89.1668 23.9265 89.1951 23.3329C89.2287 22.6217 89.369 22.3585 89.7642 22.264C90.0491 22.1959 90.566 22.3383 90.6241 22.5008C90.6363 22.5355 90.6691 22.59 90.6965 22.6221C90.7732 22.7113 90.8216 23.3629 90.8022 24.0455C90.7813 24.784 90.7458 24.8632 90.3571 25.0386C90.2304 25.0958 90.0939 25.1734 90.0538 25.211C90.0136 25.2485 89.8793 25.3204 89.7551 25.3704C89.6311 25.4207 89.426 25.513 89.2995 25.5754C89.1727 25.6379 88.9425 25.7167 88.7877 25.7508C88.6326 25.7849 88.3555 25.8591 88.1715 25.9157C87.537 26.1112 86.2143 26.1266 85.6873 25.9443C85.5724 25.9047 85.2961 25.828 85.0734 25.7739C84.8508 25.7197 84.5578 25.6202 84.4222 25.5527C84.2866 25.485 84.1124 25.4095 84.035 25.3849C83.9575 25.3601 83.8308 25.297 83.7533 25.2445C83.676 25.1921 83.5163 25.1009 83.3986 25.0418C83.2721 24.9785 83.1428 24.8801 83.0818 24.8006L82.9789 24.6666L82.969 20.3209C82.9637 17.9309 82.9679 15.9401 82.9783 15.8972C83.0108 15.7645 83.203 15.5796 83.4031 15.4884C83.508 15.4404 83.6466 15.3614 83.7112 15.3124C83.7759 15.2634 83.8975 15.199 83.982 15.1694C84.0663 15.1398 84.2 15.0861 84.2788 15.0502C84.3576 15.0142 84.5093 14.945 84.6159 14.8969C84.7224 14.8485 84.9045 14.7899 85.0206 14.7663C85.1368 14.743 85.3808 14.6767 85.5626 14.6191C86.0428 14.4671 86.769 14.4173 87.522 14.485ZM113.226 14.5422C113.436 14.698 113.465 14.7997 113.477 15.4146C113.495 16.3825 113.409 16.4577 112.304 16.4413C111.248 16.4258 111.176 16.3558 111.2 15.3652C111.215 14.7831 111.271 14.6326 111.518 14.5094C111.712 14.4122 113.087 14.4387 113.226 14.5422ZM121.994 14.5924C122.074 14.6509 122.2 14.781 122.274 14.8815L122.408 15.0641V20.0433V25.0226L122.315 25.1444C122.134 25.3809 121.588 25.6465 120.832 25.8667L120.155 26.0635L119.38 26.0631L118.606 26.0626L117.928 25.8656C117.555 25.7575 117.213 25.6484 117.168 25.6234C116.567 25.2909 116.501 25.2424 116.415 25.0693L116.337 24.912L116.345 21.7928L116.353 18.6738L116.44 18.5064C116.514 18.3624 116.559 18.3237 116.756 18.2314C116.883 18.1723 117.018 18.0952 117.057 18.0598C117.096 18.0245 117.254 17.961 117.409 17.9189C117.564 17.8767 117.794 17.8121 117.919 17.7753C118.568 17.5861 119.483 17.5192 120.112 17.6153C120.828 17.7249 120.819 17.7423 120.842 16.2222C120.861 14.8733 120.849 14.9349 121.154 14.6513L121.331 14.4858H121.59C121.823 14.4858 121.863 14.4965 121.994 14.5924ZM96.0222 17.4635C95.5647 17.5011 95.3271 17.5543 94.904 17.7139C94.7055 17.789 94.513 17.8502 94.4765 17.8502C94.4397 17.8502 94.325 17.9076 94.2215 17.9776C94.1178 18.0478 93.9687 18.1341 93.8901 18.1692C93.5352 18.3281 93.5526 18.129 93.5648 21.8996C93.5747 24.9534 93.5794 25.1665 93.6379 25.2554C93.7477 25.4222 94.3428 25.7542 94.7371 25.8686C94.8727 25.9079 95.0719 25.972 95.1799 26.0111C95.563 26.1499 96.9098 26.2103 97.6265 26.1209C98.4389 26.0195 99.5648 25.5056 99.7198 25.1656C99.8235 24.9381 99.8256 18.6873 99.7219 18.4602C99.6623 18.3294 99.4902 18.1656 99.4123 18.1656C99.3951 18.1656 99.2724 18.0947 99.1398 18.0079C99.0071 17.9213 98.8713 17.8502 98.8381 17.8502C98.805 17.8502 98.6121 17.7884 98.4095 17.7127C97.7961 17.4833 96.9071 17.3905 96.0222 17.4635ZM102.676 17.5329C102.152 17.8088 102.025 18.3122 102.287 19.0729C102.345 19.2395 102.416 19.4939 102.445 19.6381C102.475 19.7824 102.578 20.1764 102.674 20.5137C102.77 20.851 102.873 21.236 102.903 21.3691C102.933 21.5024 102.998 21.6988 103.047 21.8056C103.096 21.9131 103.161 22.1574 103.191 22.3521C103.222 22.5469 103.29 22.8057 103.345 22.9319C103.4 23.0591 103.475 23.3465 103.516 23.5825C103.557 23.815 103.628 24.1067 103.675 24.2307C103.722 24.3548 103.792 24.6061 103.832 24.7892C104.002 25.5674 104.259 26.0338 104.564 26.1179C104.778 26.1772 106.311 26.168 106.458 26.1068C106.724 25.996 106.96 25.5473 107.093 24.9017C107.139 24.6744 107.21 24.3926 107.251 24.2755C107.292 24.1586 107.354 23.8907 107.39 23.6804C107.428 23.4525 107.498 23.1993 107.562 23.0536C107.621 22.9193 107.695 22.6594 107.726 22.4762C107.758 22.2931 107.822 22.0451 107.869 21.9251C107.917 21.805 107.997 21.5211 108.048 21.2943C108.099 21.0674 108.2 20.6925 108.274 20.4612C108.347 20.2299 108.433 19.902 108.465 19.7326C108.497 19.5631 108.568 19.3025 108.623 19.1535C108.992 18.1578 108.613 17.3989 107.784 17.4738C107.428 17.506 107.129 17.8466 107.021 18.3437C106.989 18.4867 106.895 18.8183 106.81 19.0805C106.725 19.3427 106.615 19.7506 106.565 19.9872C106.515 20.2238 106.445 20.4902 106.409 20.5793C106.374 20.6685 106.327 20.8598 106.304 21.0043C106.252 21.3458 106.169 21.6601 106.108 21.7535C106.057 21.833 105.979 22.1406 105.918 22.5113C105.897 22.6367 105.847 22.8053 105.807 22.886C105.766 22.9668 105.711 23.1403 105.684 23.2715C105.594 23.7061 105.618 23.6701 105.457 23.6071C105.312 23.5505 105.303 23.5349 105.226 23.1947C105.213 23.1369 105.157 22.987 105.103 22.8619C105.049 22.7365 104.994 22.5315 104.981 22.4062C104.95 22.1063 104.906 21.9364 104.804 21.7186C104.758 21.6198 104.687 21.3552 104.646 21.1305C104.606 20.9059 104.535 20.6218 104.489 20.4992C104.442 20.3766 104.363 20.0772 104.313 19.8335C104.262 19.59 104.197 19.3242 104.168 19.2426C104.138 19.161 104.052 18.8587 103.975 18.5708C103.826 18.0089 103.559 17.556 103.341 17.4952C103.164 17.4458 102.802 17.4662 102.676 17.5329ZM112.023 17.531C111.873 17.5997 111.571 17.9234 111.512 18.0779C111.463 18.2055 111.464 25.4163 111.513 25.5441C111.798 26.2902 112.842 26.3667 113.193 25.6671C113.287 25.4787 113.289 18.1406 113.195 17.9692C112.963 17.5476 112.425 17.3462 112.023 17.531ZM97.2594 17.6067C97.4599 17.6271 97.7429 17.6759 97.888 17.7152C98.0334 17.7545 98.3025 17.8256 98.4864 17.8731C98.6704 17.9204 98.8768 17.9955 98.9448 18.0401C99.013 18.0844 99.1611 18.1643 99.2739 18.2175C99.4298 18.2909 99.5037 18.3527 99.5812 18.4745L99.6835 18.6349V21.8012C99.6835 25.3509 99.6982 25.148 99.4294 25.3054C99.3658 25.3427 99.2021 25.439 99.0654 25.5193C98.8449 25.6488 98.1962 25.8656 97.5775 26.0162C97.3673 26.0675 96.506 26.091 96.1101 26.0563C95.3459 25.9895 93.8462 25.4341 93.6873 25.1591C93.6221 25.0462 93.6282 18.6452 93.6937 18.4907C93.7581 18.3393 94.4292 17.9806 94.8605 17.8672C95.025 17.8241 95.2863 17.7551 95.4414 17.7141C95.957 17.5777 96.5978 17.5398 97.2594 17.6067ZM103.301 17.6422C103.369 17.6658 103.452 17.7459 103.53 17.8613C103.724 18.1534 103.759 18.2392 103.854 18.6604C103.904 18.8799 104.005 19.2485 104.08 19.4798C104.155 19.7111 104.241 20.0393 104.272 20.209C104.302 20.3787 104.367 20.6037 104.415 20.7091C104.464 20.8142 104.536 21.0842 104.577 21.3088C104.618 21.5397 104.695 21.8193 104.754 21.9522C104.818 22.0973 104.883 22.3458 104.926 22.6032C104.963 22.8322 105.026 23.1062 105.066 23.2122C105.105 23.3181 105.17 23.5175 105.209 23.655C105.289 23.9309 105.315 23.9633 105.485 23.9954C105.61 24.019 105.703 23.8916 105.704 23.6952C105.704 23.6512 105.759 23.4576 105.827 23.2647C105.895 23.0721 105.974 22.766 106.004 22.5847C106.034 22.4035 106.112 22.1196 106.177 21.9539C106.242 21.7882 106.32 21.5024 106.352 21.3189C106.383 21.1351 106.447 20.8779 106.495 20.7471C106.542 20.6163 106.637 20.2835 106.706 20.0076C106.774 19.7317 106.869 19.4035 106.916 19.2784C106.963 19.153 107.028 18.9106 107.059 18.7396C107.268 17.5966 107.811 17.2789 108.497 17.899C108.727 18.1063 108.758 18.3506 108.609 18.7617C108.556 18.9062 108.482 19.1505 108.444 19.3046C108.34 19.7237 108.292 19.8955 108.152 20.3386C108.081 20.5602 108.009 20.85 107.99 20.9822C107.971 21.1147 107.902 21.3828 107.837 21.5781C107.771 21.7733 107.687 22.0988 107.649 22.3011C107.611 22.5033 107.539 22.7559 107.49 22.8619C107.438 22.972 107.369 23.2345 107.327 23.475C107.287 23.7063 107.216 23.9912 107.168 24.1081C107.12 24.2251 107.055 24.4574 107.024 24.6244C106.908 25.2394 106.588 25.9413 106.38 26.0372C106.229 26.1068 104.801 26.095 104.638 26.0229C104.348 25.8953 104.171 25.5481 103.943 24.6612C103.867 24.3691 103.768 24.0379 103.721 23.9252C103.674 23.8125 103.61 23.5652 103.578 23.3756C103.546 23.1859 103.482 22.9336 103.436 22.8148C103.324 22.5311 103.322 22.5199 103.243 22.0859C103.206 21.8809 103.142 21.6378 103.101 21.546C103.06 21.4541 102.995 21.2198 102.956 21.0251C102.917 20.8306 102.847 20.5533 102.801 20.4086C102.714 20.1335 102.621 19.7885 102.498 19.2872C102.458 19.1232 102.392 18.9182 102.352 18.8315C102.216 18.5359 102.221 18.1351 102.362 17.9751C102.649 17.6496 102.982 17.5316 103.301 17.6422ZM112.609 17.641C112.682 17.6609 112.828 17.7589 112.944 17.8655L113.149 18.0546V21.7636C113.149 25.9319 113.175 25.5714 112.86 25.8572C112.45 26.2302 111.867 26.0502 111.611 25.4716C111.553 25.3399 111.524 18.8955 111.58 18.4007C111.645 17.8226 112.087 17.4965 112.609 17.641ZM96.251 19.2022C95.5962 19.2929 95.4238 19.36 95.3123 19.5675C95.2046 19.7681 95.2291 23.9643 95.3387 24.1121C95.6953 24.592 97.7556 24.5844 98.0097 24.1023C98.0796 23.9698 98.0819 23.9038 98.0912 21.8368C98.1028 19.2523 98.133 19.3946 97.5465 19.2718C97.2966 19.2195 96.4536 19.1743 96.251 19.2022ZM118.852 19.2161C117.907 19.3293 117.955 19.193 117.955 21.805V23.8701L118.051 24.0545C118.211 24.359 118.769 24.5047 119.613 24.4631C120.397 24.4242 120.775 24.2282 120.824 23.8363C120.866 23.4897 120.828 19.6627 120.782 19.5818C120.609 19.2824 119.715 19.1129 118.852 19.2161ZM97.3678 19.3383C97.6299 19.3936 97.9015 19.5347 97.9681 19.6501C98.0471 19.7876 98.0471 23.7923 97.9679 23.9481C97.7047 24.4669 95.7479 24.4677 95.397 23.9494L95.3151 23.8281L95.3254 21.7766C95.3368 19.5294 95.3229 19.6655 95.5569 19.5092C95.8799 19.2935 96.7611 19.2102 97.3678 19.3383ZM120.229 19.3692C120.328 19.4012 120.482 19.4912 120.572 19.5702L120.736 19.7136V21.7821V23.8506L120.626 23.9881C120.24 24.4736 118.42 24.4572 118.139 23.9658L118.059 23.8255L118.069 21.7754L118.078 19.7252L118.157 19.6144C118.373 19.3139 119.604 19.1684 120.229 19.3692ZM76.9762 19.8455C76.5069 19.9876 76.4163 20.2269 76.4144 21.3304C76.4118 22.8095 76.4815 22.8793 77.9622 22.8791C79.0898 22.8791 79.124 22.8719 79.3329 22.5938C79.5469 22.3088 79.5465 22.3122 79.5465 21.3374C79.5465 20.4103 79.5365 20.3369 79.3868 20.1495C79.2237 19.9458 79.1496 19.8888 78.9979 19.8507C78.8257 19.8076 77.1161 19.8032 76.9762 19.8455Z" fill="#FF7D62"/>
<path fill-rule="evenodd" clip-rule="evenodd" d="M17.0483 3.4669C16.9452 3.48444 16.7955 3.52532 16.7155 3.55783C16.6353 3.59034 16.4481 3.63 16.2994 3.64609C16.1506 3.66206 15.9822 3.69759 15.925 3.72496C15.8678 3.75244 15.6958 3.78674 15.5429 3.80115C15.3899 3.81567 15.1864 3.8541 15.0904 3.88661C14.9946 3.91923 14.8719 3.94582 14.8179 3.94582C14.7022 3.94582 14.5347 4.16903 14.4881 4.38531C14.4716 4.46195 14.4341 4.56104 14.4049 4.60528C14.2511 4.83865 14.2462 5.43409 14.3967 5.61641C14.4195 5.64423 14.5766 5.93123 14.7458 6.25442C14.9149 6.57761 15.0818 6.87221 15.1166 6.90919C15.3008 7.10502 15.2261 7.47335 14.9656 7.65399C14.6498 7.87273 14.4689 8.03327 14.4689 8.09471C14.4689 8.12711 14.0231 8.5886 13.478 9.12015C12.9329 9.6518 12.2833 10.2892 12.0343 10.5367C11.5066 11.0613 11.4537 11.0795 11.1711 10.8341C11.0744 10.7501 10.9297 10.6394 10.8496 10.5882C10.7695 10.5369 10.47 10.2735 10.184 10.0026C9.48676 9.34235 9.33028 9.30727 8.29112 9.57785C8.19958 9.60164 8.01963 9.64108 7.89114 9.66554C7.55784 9.72888 7.4282 9.89098 7.37185 10.3151C7.3564 10.4315 7.31899 10.574 7.28867 10.6317C7.19364 10.8126 7.1129 11.4081 7.1696 11.5099C7.22048 11.6015 7.56969 11.7574 7.8959 11.8344C7.99883 11.8586 8.10211 11.8926 8.12523 11.9098C8.14846 11.927 8.2608 11.963 8.37488 11.9898C8.48896 12.0167 8.63406 12.0636 8.69726 12.0941C8.76057 12.1246 8.89162 12.1652 8.9885 12.1843C9.45052 12.2752 9.71853 12.3629 9.84969 12.4658L9.99235 12.5777L9.79671 12.787C9.68914 12.9021 9.52034 13.0555 9.42148 13.1281C9.19936 13.2912 8.86037 13.9314 8.74408 14.4073C8.72793 14.4733 8.6918 14.5633 8.66357 14.6073C8.63546 14.6513 8.59933 14.7593 8.58329 14.8474C8.56726 14.9354 8.53776 15.0264 8.51777 15.0497C8.49779 15.0729 8.45423 15.19 8.42089 15.3097C8.33887 15.6051 8.25627 15.8183 8.15079 16.0076C8.10211 16.0949 8.06168 16.1936 8.06087 16.2269C8.06017 16.2602 8.02335 16.3595 7.97908 16.4476C7.93494 16.5356 7.89811 16.6507 7.8973 16.7032C7.8966 16.7558 7.86012 16.8729 7.81656 16.9632C7.72351 17.1558 7.56319 17.6281 7.56284 17.7105C7.56272 17.742 7.53624 17.8163 7.50406 17.8757C7.47176 17.9351 7.4153 18.0832 7.37859 18.2049C7.28286 18.5213 6.95352 18.615 6.5317 18.4455C6.4527 18.4138 6.29215 18.3871 6.17481 18.3861C6.05748 18.3852 5.88659 18.3561 5.79505 18.3217C5.7035 18.2872 5.51635 18.2413 5.37904 18.2196C5.24172 18.1978 5.01704 18.1477 4.87984 18.1079C4.20442 17.9126 3.73869 17.9277 3.37274 18.1567C3.21777 18.2537 3.04409 18.3613 2.98694 18.3955C2.6907 18.5737 2.66677 18.6214 2.6282 19.1115C2.60856 19.3626 2.59613 19.604 2.60066 19.648C2.60519 19.692 2.6282 20.0341 2.65178 20.4081C2.68942 21.0056 2.75575 21.456 2.8552 21.7883C2.88796 21.8981 3.30676 21.9146 3.86055 21.8279C4.31792 21.7563 5.19409 21.7106 6.24928 21.7032L7.32759 21.6957L7.42215 21.8098C7.4742 21.8726 7.57631 22.1049 7.64904 22.3261C7.72188 22.5475 7.79565 22.7464 7.81307 22.7684C7.83038 22.7904 7.86442 22.8988 7.88859 23.0093C7.91275 23.1198 7.96166 23.2638 7.99721 23.3294C8.03276 23.3949 8.06203 23.4756 8.06226 23.5085C8.0625 23.5415 8.1006 23.6284 8.14707 23.7017C8.19342 23.7749 8.26963 23.9548 8.31645 24.1018C8.36315 24.2485 8.43634 24.4587 8.47897 24.5687C8.52172 24.6787 8.5783 24.8497 8.60479 24.9488C8.63127 25.0478 8.66787 25.1467 8.68611 25.1687C8.70435 25.1908 8.73838 25.2717 8.76162 25.3488C8.78497 25.4258 8.87117 25.6412 8.95319 25.8273C9.1738 26.3281 9.15172 26.589 8.88871 26.589C8.82621 26.589 8.72224 26.6084 8.65788 26.6323C8.5934 26.6561 8.30286 26.7011 8.01196 26.7324C6.77914 26.8647 6.83502 26.8112 6.83502 27.8605C6.83502 28.8885 6.79169 28.8248 7.80599 29.2869C7.92808 29.3426 8.08306 29.4327 8.15044 29.4872C8.49837 29.7687 9.0747 29.6034 9.91033 28.9822C10.3641 28.6449 10.4468 28.6633 11.0665 29.2394C11.2658 29.4248 11.5012 29.6245 11.5894 29.6834C11.6777 29.7422 12.048 30.0703 12.4126 30.4124C12.7771 30.7546 13.1501 31.0806 13.2417 31.1369C13.651 31.3886 13.7203 31.5446 13.5479 31.825C13.3969 32.0704 13.2492 32.286 13.1746 32.3698C13.1355 32.4137 13.0253 32.5938 12.9296 32.7699C12.8341 32.9458 12.7237 33.1259 12.6841 33.1699C12.6191 33.2423 12.5255 33.3744 12.4101 33.5565C12.387 33.593 12.3091 33.7037 12.237 33.8025C11.9457 34.202 11.9507 34.3094 12.2822 34.7709C12.4085 34.9464 12.5384 35.1465 12.5709 35.2153C12.6034 35.2841 12.6494 35.3519 12.6731 35.3661C12.6969 35.3802 12.8002 35.5129 12.9027 35.661C13.2043 36.097 13.2114 36.101 13.7836 36.1515C14.0576 36.1757 14.3597 36.2122 14.4551 36.2324C14.5505 36.2526 14.9717 36.2809 15.3912 36.2952C16.3356 36.3273 16.2482 36.3829 16.406 35.6502C16.4391 35.4962 16.4872 35.3207 16.5127 35.2601C16.5383 35.1996 16.5835 35.0375 16.6132 34.9001C16.6818 34.5826 16.7859 34.1815 16.8596 33.95C16.8912 33.8509 16.9283 33.7043 16.9421 33.624C16.9559 33.5437 17.0055 33.4312 17.0524 33.3739L17.1375 33.2699H17.8579C18.3039 33.2699 18.7028 33.2918 18.9053 33.3273C19.0851 33.3588 19.53 33.4053 19.8937 33.4306C20.2575 33.4558 20.5961 33.4914 20.646 33.5096C20.696 33.528 20.9132 33.5547 21.1286 33.5691C21.3441 33.5836 21.663 33.6126 21.8373 33.6339C22.1976 33.6776 22.651 33.6273 22.9556 33.5098C23.3392 33.3619 23.5672 33.3015 23.8708 33.2677C24.2646 33.2238 24.2862 33.2456 24.2888 33.6876C24.2909 34.0477 24.4237 34.98 24.4797 35.0272C24.4995 35.044 24.6281 35.0978 24.7653 35.1467C24.9026 35.1958 25.1137 35.2796 25.2342 35.333C25.3548 35.3865 25.4773 35.4302 25.5063 35.4302C25.5352 35.4302 25.6319 35.4659 25.721 35.5097C26.1612 35.7254 26.6175 35.7033 26.7541 35.4594C26.7952 35.386 26.884 35.2639 26.9514 35.1881C27.0189 35.1122 27.0741 35.0346 27.0741 35.0155C27.0742 34.9965 27.1373 34.8974 27.2144 34.7955C27.5272 34.3818 27.5306 34.3226 27.2614 33.97C27.211 33.904 27.0523 33.6249 26.9089 33.3499C26.7653 33.0749 26.6221 32.8143 26.5907 32.7709C26.4484 32.5748 26.5261 32.3408 26.7636 32.2495C26.8544 32.2146 26.966 32.171 27.0118 32.1523C27.0576 32.1338 27.4039 32.0231 27.7814 31.9062C28.159 31.7895 28.4959 31.6811 28.5303 31.6652C29.2361 31.3405 29.6738 31.3671 29.9133 31.749C30.0053 31.8956 30.1228 32.0193 31.0105 32.9036C31.3052 33.1972 31.6057 33.5212 31.6782 33.6236C31.7507 33.7262 31.9941 33.9947 32.219 34.2204C32.7062 34.7094 32.7839 34.7325 33.0761 34.4752C33.1729 34.39 33.355 34.2548 33.4808 34.1748C33.6066 34.0948 33.8219 33.9401 33.9592 33.8309C34.0965 33.7218 34.2284 33.632 34.2523 33.6313C34.3858 33.6272 35.0948 32.8848 35.0763 32.7684C34.896 31.629 34.8653 31.5372 34.6163 31.399C34.508 31.3388 34.2894 31.1688 34.1305 31.021C33.9714 30.8733 33.7398 30.6843 33.6157 30.6009C33.4915 30.5177 33.2323 30.3103 33.0398 30.1402C32.8472 29.9701 32.6384 29.8001 32.5756 29.7626C32.0288 29.4352 31.9816 29.226 32.3606 28.8092C32.4005 28.7653 32.5216 28.5672 32.6295 28.3692C32.7374 28.1712 32.8456 27.9969 32.87 27.9821C32.9152 27.9545 32.9484 27.8977 33.206 27.4091C33.3902 27.0596 33.4978 26.8818 33.5773 26.7958C33.6112 26.759 33.7097 26.603 33.7961 26.4489C33.9368 26.1981 34.0165 26.0744 34.2785 25.7005C34.3203 25.6409 34.3544 25.5736 34.3544 25.551C34.3544 25.4929 34.7191 24.8651 34.8088 24.7687C34.8874 24.6842 34.9566 24.5665 35.1054 24.2632C35.1556 24.1612 35.2392 24.0299 35.2915 23.9715C35.4087 23.8402 35.4532 23.4881 35.4358 22.8284C35.4292 22.5754 35.4217 22.1434 35.4195 21.8683L35.4153 21.3683L36.018 21.3838C36.3496 21.3923 36.6772 21.4158 36.7461 21.4358C36.815 21.4559 37.0773 21.5086 37.3289 21.553C37.5807 21.5973 37.8802 21.6514 37.9946 21.6729C38.7032 21.8069 38.8114 21.768 38.869 21.358C38.8838 21.2537 38.9122 21.1143 38.9326 21.0482C38.9646 20.9432 39.1004 20.2957 39.2636 19.468C39.3446 19.0578 39.2868 18.9174 38.8748 18.523L38.5354 18.1983L38.265 18.176C38.1162 18.1639 37.3862 18.1672 36.6426 18.1834C35.1327 18.2165 35.1866 18.2257 35.1862 17.9328C35.1861 17.8201 35.1674 17.6197 35.1446 17.4877C35.1219 17.3557 35.0916 17.0407 35.077 16.7876C35.059 16.4714 35.02 16.2353 34.9523 16.0324C34.898 15.8701 34.8536 15.7118 34.8536 15.6807C34.8536 15.6497 34.8188 15.5754 34.776 15.5159C34.7334 15.4562 34.6279 15.2994 34.5418 15.1674C34.4556 15.0354 34.3642 14.8976 34.3385 14.8613C33.9275 14.2774 33.7185 13.9649 33.6069 13.7672C33.5324 13.6351 33.4377 13.4911 33.3965 13.4471C33.3554 13.4031 33.2724 13.2774 33.2121 13.1678C33.152 13.0581 33.0691 12.9321 33.0281 12.8878C32.987 12.8434 32.9095 12.735 32.8558 12.647C32.8022 12.559 32.7164 12.4379 32.6653 12.3779C32.6143 12.3179 32.5235 12.1738 32.4635 12.0578C32.3463 11.8308 32.2897 11.7421 32.0703 11.4411C31.9111 11.2229 31.8486 10.9169 31.9475 10.8396C31.9786 10.8153 32.1332 10.7297 32.2911 10.6495C32.4491 10.5694 32.6479 10.4508 32.7328 10.3861C32.8177 10.3214 32.9693 10.2323 33.0697 10.188C33.2622 10.1032 33.3408 10.0591 33.5432 9.92282C33.6119 9.87646 33.8084 9.76273 33.98 9.66979C34.8041 9.22371 34.9036 9.03245 34.6049 8.46773C34.5639 8.38997 34.4721 8.15928 34.401 7.95495C34.1657 7.27829 34.1407 7.25238 33.5461 7.06804C33.3158 6.99666 33.0804 6.91466 33.0232 6.88584C32.966 6.85713 32.8487 6.82093 32.7628 6.8054C32.6767 6.78987 32.5371 6.74318 32.4524 6.70173C32.3677 6.66017 32.2489 6.62621 32.1885 6.62621C32.1282 6.62621 32.0245 6.608 31.9582 6.58577C31.7068 6.50165 31.4913 6.61158 31.3287 6.90684C31.2502 7.0495 31.1565 7.19786 31.1202 7.23651C31.0424 7.31985 30.963 7.44821 30.904 7.58629C30.8804 7.64137 30.8352 7.7313 30.8034 7.78638C30.707 7.95283 30.3661 8.59966 30.3185 8.70646C30.0385 9.33386 29.8739 9.42558 29.4745 9.17701C29.3556 9.10294 29.0019 8.92062 28.6885 8.77182C28.3752 8.62301 28.0501 8.44874 27.9661 8.38461C27.8823 8.32038 27.7174 8.22229 27.5999 8.16643C27.4824 8.11057 27.3581 8.0498 27.3238 8.03126C27.2894 8.01271 27.1493 7.94557 27.0123 7.882C26.8753 7.81844 26.66 7.70393 26.5339 7.62763C26.1856 7.41682 26.1663 7.40632 25.75 7.20434C25.2177 6.94605 25.1828 6.85199 25.4657 6.44076C25.7704 5.99803 25.7714 5.85738 25.474 5.29724C25.3114 4.99103 25.1915 4.94556 24.5172 4.93439C23.8578 4.92344 23.8022 4.98165 23.7275 5.76075C23.6708 6.35251 23.4328 6.50612 22.5732 6.50623C22.4518 6.50623 22.212 6.53136 22.0404 6.5622C21.8689 6.59303 21.4289 6.63046 21.0627 6.64531C20.6967 6.66017 20.2754 6.69905 20.1267 6.73156C19.7412 6.81602 18.5273 6.82551 18.4434 6.74474C18.3853 6.68899 18.3433 6.5422 18.1718 5.7984C18.1303 5.61809 18.0775 5.41108 18.0545 5.33835C18.0315 5.26552 18.0017 5.11872 17.9882 5.01192C17.9749 4.90523 17.9363 4.7342 17.9026 4.63187C17.8407 4.44385 17.7444 4.07563 17.671 3.74585C17.6046 3.4479 17.4825 3.39328 17.0483 3.4669ZM17.3056 4.50585C17.3213 4.78089 17.3543 5.13202 17.379 5.28596C17.4394 5.66155 17.482 7.71019 17.431 7.78045C17.3608 7.87709 17.2307 7.76738 16.0513 6.61716C14.5445 5.14766 14.5616 5.21446 15.5649 4.7209C15.9117 4.55031 16.3826 4.3166 16.6114 4.20143C16.8784 4.06714 17.0721 3.99453 17.1523 3.999L17.277 4.00581L17.3056 4.50585ZM15.3973 4.32096C15.4223 4.38386 15.3519 4.46586 15.2728 4.46586C15.2437 4.46586 15.1598 4.50093 15.0865 4.54383C14.9403 4.6293 14.8849 4.61958 14.8849 4.50842C14.8849 4.41458 14.9759 4.34353 15.1453 4.30487C15.3463 4.25896 15.3732 4.26075 15.3973 4.32096ZM25.1713 5.42192C25.3968 5.67953 25.3278 6.12617 24.9983 6.54198C24.8689 6.70519 24.3801 6.66643 24.1516 6.47484C24.0191 6.36368 24.0681 5.42795 24.2111 5.34081C24.3706 5.24351 25.0667 5.30227 25.1713 5.42192ZM17.9667 6.78675C17.9899 6.92494 18.0361 7.07531 18.0693 7.121C18.1027 7.16669 18.1297 7.24958 18.1297 7.30522C18.1296 7.36085 18.1617 7.55591 18.2011 7.73867C18.2786 8.09773 18.2578 8.16029 18.069 8.1366C17.964 8.12342 17.9327 7.9907 17.8786 7.32633C17.8203 6.61213 17.8782 6.258 17.9667 6.78675ZM15.8928 7.03621C16.0263 7.17373 16.3971 7.54138 16.717 7.85318C17.2442 8.36707 17.2925 8.42595 17.2336 8.48259C17.1402 8.57241 16.7353 8.82656 16.6856 8.82656C16.6337 8.82656 16.4242 8.54135 16.4242 8.47063C16.4242 8.44226 16.3868 8.37333 16.341 8.31736C16.2953 8.26139 16.2579 8.18486 16.2579 8.14722C16.2579 8.10957 16.2203 8.04623 16.1746 8.00634C16.1288 7.96657 16.0914 7.90323 16.0914 7.86558C16.0914 7.82793 16.0551 7.75275 16.0108 7.69857C15.9664 7.64439 15.9179 7.55323 15.9031 7.49614C15.8881 7.43894 15.8401 7.36107 15.7964 7.32309C15.7527 7.285 15.717 7.21383 15.717 7.16501C15.717 7.11608 15.689 7.05363 15.6546 7.02626C15.5924 6.97666 15.5659 6.78619 15.6212 6.78619C15.6371 6.78619 15.7595 6.89868 15.8928 7.03621ZM24.8743 7.18546C25.066 7.28086 25.2327 7.37303 25.2446 7.39023C25.305 7.47715 26.3677 8.02634 26.4755 8.02634C26.4912 8.02634 26.5822 8.08801 26.6778 8.16342C26.7734 8.23871 27.0921 8.41969 27.386 8.56559C27.6799 8.71149 27.9721 8.8727 28.0351 8.92375C28.0982 8.9748 28.4234 9.14673 28.7575 9.30582C29.4382 9.6299 29.4871 9.66487 29.4871 9.82719C29.4871 9.97946 29.4478 9.997 29.031 10.0305C28.8357 10.0463 28.5167 10.0793 28.3222 10.1039C28.0803 10.1346 26.9439 10.1452 24.7237 10.1378L21.4787 10.1267L21.4659 9.99834C21.4555 9.89568 21.4855 9.83591 21.6162 9.69839C21.7059 9.60387 21.806 9.47663 21.8388 9.41563C21.8714 9.35453 22.1408 9.05926 22.4373 8.75942C22.7339 8.45957 23.026 8.13146 23.0866 8.03025C23.1472 7.92915 23.3581 7.69332 23.5551 7.5063C23.7522 7.31929 23.9235 7.13597 23.9357 7.09888C23.994 6.92248 24.4263 6.96247 24.8743 7.18546ZM32.1178 7.21897C32.1804 7.25874 32.3492 7.40029 32.4928 7.53367C32.6364 7.66706 32.8439 7.83095 32.9538 7.89798C33.0637 7.96501 33.349 8.20151 33.5876 8.42349C34.2246 9.01569 34.2071 9.11367 33.4265 9.32615C33.3165 9.35609 33.2041 9.39787 33.1768 9.41899C33.1495 9.4401 33.043 9.47618 32.9401 9.49909C32.837 9.52199 32.5595 9.6051 32.3233 9.68375C32.0871 9.76229 31.8284 9.82664 31.7486 9.82664C31.6687 9.82664 31.569 9.84429 31.5272 9.86585C31.2916 9.98706 31.3578 8.83002 31.6588 7.5663C31.7712 7.09396 31.8394 7.04246 32.1178 7.21897ZM20.3749 7.36465C20.4304 7.42889 20.4039 7.43861 20.0436 7.48586C19.9406 7.49927 19.8189 7.53368 19.7731 7.56205C19.7273 7.59054 19.6084 7.62618 19.5087 7.64126C19.4091 7.65634 19.2781 7.69298 19.2176 7.72281C18.849 7.90412 18.5898 7.79084 18.7138 7.50262C18.786 7.33527 20.245 7.21406 20.3749 7.36465ZM23.0263 7.37258C23.0408 7.409 23.0263 7.47916 22.9937 7.52842C22.7464 7.9039 22.5796 8.108 22.2391 8.45186C22.0241 8.66893 21.8032 8.90956 21.7483 8.98654C21.622 9.1636 21.3177 9.51875 21.1141 9.72665C21.028 9.81468 20.8317 10.0397 20.6781 10.2267C20.5244 10.4137 20.286 10.6771 20.1482 10.8121C20.0106 10.9469 19.8182 11.163 19.7207 11.2921C19.6231 11.4213 19.4014 11.6709 19.2277 11.8469C19.054 12.023 18.8316 12.2839 18.7335 12.427C18.6354 12.57 18.4401 12.795 18.2996 12.9271L18.0441 13.1672L17.691 13.1812C17.4967 13.189 17.2913 13.1841 17.2346 13.1705L17.1315 13.1456V12.5735C17.1315 12.1934 17.1516 11.9353 17.1914 11.8042C17.2243 11.6956 17.2725 11.4547 17.2985 11.2685C17.3245 11.0824 17.3603 10.9023 17.3781 10.8685C17.3959 10.8345 17.4337 10.6627 17.4622 10.4868C17.4907 10.3107 17.5325 10.1078 17.555 10.036C17.5776 9.96416 17.6216 9.75704 17.653 9.57595C17.8006 8.72289 17.894 8.58436 18.4243 8.43254C18.5942 8.38394 18.8174 8.31613 18.9203 8.28206C19.0232 8.24787 19.2105 8.19492 19.3363 8.16453C19.4621 8.13403 19.6026 8.09181 19.6483 8.07069C19.6941 8.04969 20.0404 7.93998 20.418 7.82715C20.7955 7.71421 21.1606 7.60316 21.2292 7.58026C21.2979 7.55736 21.4616 7.51569 21.5931 7.48742C21.7246 7.45927 21.8556 7.41771 21.8843 7.39515C22.0188 7.28879 22.9853 7.2698 23.0263 7.37258ZM33.2728 7.40755C33.3072 7.43514 33.4195 7.47056 33.5224 7.48653C33.7471 7.52116 33.7954 7.55512 33.8999 7.75208C33.9778 7.89898 34.0116 8.16654 33.9488 8.13973C33.8652 8.10398 33.148 7.5749 33.148 7.54898C33.148 7.53256 33.0993 7.49781 33.0397 7.47179C32.9545 7.43436 32.9416 7.41269 32.9789 7.36945C33.0308 7.30935 33.1733 7.32778 33.2728 7.40755ZM15.7432 8.01036C15.8003 8.02511 15.882 8.12867 15.972 8.29982C16.049 8.4465 16.1401 8.59989 16.1744 8.64066C16.2155 8.68926 16.2371 8.80254 16.2371 8.969C16.2371 9.24504 16.2239 9.26359 15.9276 9.40938C15.8461 9.44948 15.7326 9.52176 15.6754 9.57003C15.6182 9.61818 15.4243 9.7319 15.2446 9.82261C15.065 9.91321 14.8683 10.0246 14.8078 10.07C14.6844 10.1626 14.3495 10.3748 14.1798 10.4681C14.1184 10.5018 14.02 10.5649 13.9614 10.6081C13.833 10.7027 13.7495 10.7586 13.526 10.8998C13.4327 10.9586 13.2557 11.0708 13.1326 11.1491C13.0096 11.2274 12.8167 11.334 12.704 11.3861C12.5915 11.4381 12.4694 11.5095 12.4328 11.5446C12.1569 11.8099 11.5952 11.9253 11.5652 11.7228C11.5345 11.5162 11.835 11.1257 12.1637 10.9448C12.2811 10.8802 12.4292 10.7551 12.4928 10.6667C12.5565 10.5784 12.6982 10.4442 12.8077 10.3686C12.9172 10.2929 13.0853 10.1311 13.1813 10.0088C13.2772 9.88663 13.3688 9.78664 13.3848 9.78664C13.4551 9.78664 13.7785 9.47853 13.9249 9.27219C14.0845 9.04709 15.0767 8.05472 15.1827 8.01416C15.2591 7.98478 15.6345 7.98232 15.7432 8.01036ZM31.0912 8.47086C31.0538 8.59207 31.0264 8.8308 31.0264 9.03513C31.0264 9.2408 31.0029 9.44312 30.9705 9.51785C30.9397 9.58868 30.9018 9.71235 30.8861 9.79267C30.8706 9.87289 30.8336 9.9579 30.8041 9.98136C30.7374 10.0347 30.1617 10.073 30.1316 10.0262C30.0291 9.86674 30.7481 8.41109 30.9743 8.31982C31.0487 8.28988 31.111 8.24307 31.1128 8.21592C31.1152 8.1795 31.1214 8.17894 31.1361 8.21358C31.1471 8.23949 31.127 8.35534 31.0912 8.47086ZM17.2558 9.20606C17.3205 9.28102 17.2982 10.1094 17.2292 10.1911C17.2034 10.2217 17.1609 10.4036 17.1347 10.5955C17.1085 10.7873 17.062 11.0127 17.0312 11.0964C17.0005 11.1802 16.9624 11.3653 16.9466 11.5077C16.9307 11.6503 16.8923 11.8479 16.861 11.9469C16.8299 12.046 16.7924 12.2259 16.7778 12.3469C16.7633 12.468 16.7261 12.648 16.6952 12.7471C16.6643 12.8461 16.6269 12.9991 16.6119 13.0871C16.5586 13.4014 16.4289 13.5169 15.7855 13.8229C15.1499 14.1252 15.0647 14.1845 14.8983 14.4399C14.8383 14.532 14.7688 14.6206 14.7436 14.6367C14.6423 14.7017 13.95 14.6686 13.7093 14.5873C13.5792 14.5433 13.43 14.5072 13.3779 14.5071C13.3259 14.507 13.2327 14.4814 13.1709 14.4504C13.1091 14.4194 12.9244 14.374 12.7605 14.3495C12.5966 14.3251 12.4295 14.2882 12.3893 14.2674C12.3491 14.2468 12.2249 14.2114 12.1133 14.1888C11.9027 14.1462 11.6305 14.0741 11.2032 13.9476C11.0659 13.907 10.8553 13.8525 10.735 13.8265C10.6149 13.8005 10.5062 13.7629 10.4934 13.7432C10.4807 13.7234 10.4175 13.7072 10.3531 13.7072C10.0641 13.7072 10.0809 13.3396 10.3787 13.1464C10.4798 13.0808 10.573 13.0271 10.5856 13.0271C10.5984 13.0271 10.6672 12.9798 10.7386 12.922C10.81 12.8643 11.0053 12.7546 11.1725 12.6782C11.3398 12.6019 11.5274 12.5005 11.5896 12.4532C11.7766 12.3104 11.9675 12.187 12.0024 12.1864C12.0205 12.1861 12.1439 12.0888 12.2766 11.9703C12.4094 11.8518 12.5779 11.7333 12.6511 11.7069C12.863 11.6306 13.1025 11.5014 13.2991 11.3571C13.3993 11.2836 13.5447 11.1981 13.6221 11.167C13.6995 11.1359 14.0294 10.9413 14.3551 10.7348C14.6808 10.5281 15.0494 10.3091 15.1742 10.2483C15.299 10.1874 15.4721 10.0855 15.559 10.022C15.6459 9.95857 15.7906 9.85278 15.8805 9.78698C15.9704 9.72118 16.1273 9.62477 16.229 9.57271C16.3308 9.52076 16.478 9.43127 16.5562 9.37385C16.8434 9.16327 17.1545 9.08864 17.2558 9.20606ZM9.97597 10.3092C10.262 10.5736 10.5709 10.8375 10.6624 10.8959C10.9402 11.0728 11.1824 11.3151 11.1824 11.416C11.1824 11.5176 10.5752 12.1445 10.4714 12.1501C10.2228 12.1635 9.85805 12.132 9.77023 12.0897C9.71179 12.0614 9.59841 12.0265 9.51836 12.012C9.43832 11.9975 9.27917 11.952 9.16474 11.911C8.84956 11.7981 8.68959 11.7456 8.41589 11.6657C8.00243 11.5449 7.67936 11.4299 7.61953 11.3822C7.54355 11.3215 7.54553 10.877 7.62313 10.5893C7.65624 10.4669 7.69284 10.3218 7.70457 10.2667C7.76347 9.99041 8.22281 9.83289 8.97758 9.83021L9.45598 9.82865L9.97597 10.3092ZM32.2453 10.2467C32.2407 10.2687 32.1775 10.2984 32.1047 10.3127C32.0319 10.327 31.9591 10.3594 31.9429 10.3845C31.9267 10.4098 31.8495 10.4641 31.7715 10.5051C31.3314 10.7364 31.3021 10.7475 31.2678 10.6968C31.1703 10.553 31.2805 10.457 31.7544 10.2734C31.9672 10.1908 32.2601 10.175 32.2453 10.2467ZM30.166 10.7056C30.2521 10.7833 30.1338 11.0282 29.8546 11.3507C29.6944 11.5355 29.5342 11.7409 29.4987 11.8069C29.4631 11.8729 29.3321 12.028 29.2074 12.1515C29.0829 12.2751 28.9498 12.4223 28.9117 12.4786C28.8734 12.535 28.6962 12.7489 28.5176 12.9541C28.3391 13.1592 28.1579 13.3677 28.1151 13.4172C27.9262 13.6357 27.6786 13.5699 26.406 12.9623C25.7782 12.6625 25.199 12.3701 25.1189 12.3122C24.9633 12.1999 24.6011 12.0269 24.522 12.0271C24.4956 12.0271 24.081 11.8405 23.6005 11.6124C23.12 11.3843 22.6178 11.1482 22.4847 11.0879C22.2404 10.9772 22.1314 10.8493 22.1791 10.7295C22.2166 10.6358 30.0625 10.6122 30.166 10.7056ZM21.6244 11.0639C21.8418 11.1749 22.0665 11.285 22.1236 11.3083C22.1808 11.3316 22.7705 11.6092 23.434 11.9251C24.0976 12.241 24.7763 12.5491 24.9422 12.6097C25.5064 12.8157 26.5917 13.3637 26.6448 13.4696C26.7418 13.6628 26.7311 13.8006 26.6166 13.8315C26.3027 13.9162 25.8846 13.9917 25.5349 14.0267C25.3175 14.0485 25.0742 14.0829 24.9941 14.1031C24.9141 14.1233 24.6337 14.1615 24.3712 14.188C24.1086 14.2144 23.8491 14.2525 23.7943 14.2725C23.7396 14.2925 23.4713 14.3263 23.1981 14.3479C22.9249 14.3693 22.6646 14.4057 22.6198 14.4289C22.5749 14.4519 22.3198 14.4891 22.0529 14.5113C21.7859 14.5337 21.4539 14.5762 21.3151 14.606C21.1763 14.6358 20.913 14.6721 20.73 14.6867C20.5469 14.7013 20.2915 14.7389 20.1623 14.7703C19.9977 14.8103 19.6778 14.8274 19.0916 14.8274H18.2557L18.1416 14.6573C17.9162 14.3214 17.9958 13.4671 18.2524 13.4671C18.2734 13.4671 18.437 13.3009 18.6159 13.0978C18.7947 12.8946 18.9714 12.699 19.0083 12.663C19.0454 12.627 19.1577 12.4917 19.258 12.3622C19.3583 12.2329 19.5389 12.031 19.6594 11.9137C19.78 11.7963 19.9086 11.6434 19.9453 11.5736C19.9821 11.5039 20.1034 11.3613 20.215 11.2567C20.3267 11.1521 20.418 11.0484 20.418 11.0261C20.418 10.7579 21.0652 10.7781 21.6244 11.0639ZM30.7594 11.5169C30.8354 11.738 30.9293 18.3207 30.8577 18.4012C30.8212 18.4422 30.6123 18.3408 30.5272 18.2408C30.3092 17.9849 30.1943 17.8308 30.1943 17.7946C30.1943 17.7507 29.8065 17.0101 29.7431 16.9329C29.7227 16.9079 29.682 16.8156 29.6528 16.7276C29.6237 16.6396 29.5885 16.5586 29.5747 16.5476C29.5608 16.5366 29.4105 16.2575 29.2407 15.9275C28.5989 14.6801 28.5181 14.5261 28.4819 14.4819C28.3056 14.2661 28.4594 13.4953 28.7309 13.2342C28.8159 13.1524 28.9368 13.0014 28.9994 12.8987C29.062 12.7959 29.2648 12.5545 29.4502 12.3621C29.6355 12.1698 29.8366 11.9391 29.8972 11.8496C29.9576 11.7601 30.0222 11.6806 30.0405 11.6728C30.0589 11.6651 30.1405 11.5896 30.2219 11.505C30.3586 11.3629 30.4329 11.3268 30.6175 11.3123C30.6667 11.3084 30.7086 11.369 30.7594 11.5169ZM31.7472 11.739C31.7889 11.7753 31.8701 11.9003 31.9274 12.0168C31.9848 12.1333 32.0728 12.2778 32.123 12.3379C32.2877 12.5347 32.7614 13.245 32.7936 13.3433C32.8108 13.3963 32.9023 13.5429 32.9969 13.669C33.0914 13.7951 33.2437 14.0178 33.3352 14.1637C33.5077 14.4385 33.5658 14.5208 33.7141 14.7009C33.7624 14.7594 33.8841 14.9573 33.9846 15.1406C34.085 15.3238 34.2045 15.5123 34.2501 15.5593C34.4212 15.7359 34.395 16.191 34.2028 16.3794C33.9985 16.5797 33.8553 16.7691 33.8553 16.8388C33.8553 16.8687 33.8131 16.9298 33.7616 16.9748C33.7102 17.0195 33.6394 17.0904 33.6044 17.1322C33.5694 17.1738 33.4933 17.2439 33.4353 17.2879C33.3773 17.3318 33.2758 17.4577 33.2096 17.5677C33.1434 17.6778 32.9118 17.9381 32.6949 18.1463L32.3008 18.525L32.039 18.541C31.5513 18.5708 31.5736 18.5961 31.4621 17.8878C31.3981 17.4814 31.3655 11.7542 31.4266 11.6591C31.4593 11.6081 31.6514 11.656 31.7472 11.739ZM17.3112 13.5444C17.3877 13.5725 17.4413 13.6545 17.5267 13.8744C17.5892 14.0355 17.6849 14.2575 17.7395 14.3679C17.794 14.4781 17.8386 14.5957 17.8386 14.6289C17.8386 14.6622 17.8665 14.7277 17.9004 14.7744C17.9958 14.9052 18.0021 15.5961 17.9088 15.6858C17.8702 15.7229 17.8386 15.775 17.8386 15.8019C17.8386 15.8287 17.8025 15.9189 17.7581 16.0024C17.7138 16.0859 17.6571 16.246 17.6322 16.3582C17.6072 16.4704 17.5656 16.5865 17.5398 16.6165C17.514 16.6463 17.4911 16.7495 17.489 16.8458C17.4821 17.1517 17.5956 17.1347 17.6475 16.8221C17.6617 16.7371 17.6912 16.6676 17.7131 16.6676C17.7672 16.6676 17.9403 16.3084 18.0482 15.9723C18.2188 15.441 18.416 15.3263 19.3987 15.1859C19.6733 15.1468 19.9354 15.1035 19.9812 15.0899C20.0269 15.0763 20.2796 15.0396 20.5427 15.0086C20.8059 14.9774 21.1897 14.9253 21.3956 14.8928C21.9695 14.8024 22.3953 14.7477 22.8517 14.7057C23.0804 14.6846 23.3893 14.6411 23.538 14.6092C23.6868 14.5772 24.0218 14.5314 24.2826 14.5075C24.5432 14.4835 24.7866 14.4488 24.8233 14.4302C24.8601 14.4117 25.1054 14.3765 25.3685 14.3519C25.6317 14.3274 25.9874 14.2791 26.159 14.2443C26.4793 14.1795 27.6762 14.1498 27.8483 14.2023C27.896 14.2168 28.0062 14.3319 28.0932 14.458C28.1802 14.5842 28.2834 14.7326 28.3226 14.7881C28.3617 14.8436 28.4082 14.9327 28.426 14.9863C28.4436 15.04 28.5669 15.2756 28.6999 15.5098C28.8328 15.7442 28.9538 15.9827 28.9688 16.04C28.9838 16.0973 29.0223 16.1651 29.0543 16.1907C29.0864 16.2164 29.1128 16.2576 29.1129 16.2824C29.113 16.3073 29.1786 16.4445 29.2588 16.5875C29.339 16.7307 29.4614 16.9646 29.5309 17.1077C29.6555 17.3642 29.8366 17.7119 30.0762 18.154C30.2315 18.4409 30.2357 18.8163 30.0843 18.8884C30.0353 18.9119 29.9698 18.9507 29.9387 18.9746C29.9077 18.9985 29.7731 19.0308 29.6396 19.0463C29.4839 19.0644 29.3676 19.1027 29.315 19.1533C29.2485 19.2173 29.1995 19.2274 29.0554 19.2066C28.6859 19.1533 28.5284 19.283 28.4451 19.709C28.4174 19.8514 28.3698 20.049 28.3398 20.148C28.3097 20.2471 28.2732 20.4182 28.2588 20.5281C28.1574 21.2995 27.9294 21.5544 27.1158 21.8063C26.8684 21.8829 26.4281 22.0871 26.3221 22.1743C26.2859 22.204 26.237 22.2284 26.2135 22.2284C26.175 22.2284 25.7361 22.4173 25.5765 22.5025C25.3685 22.6136 25.1281 22.7087 25.0552 22.7085C24.984 22.7084 24.5733 22.8941 24.0581 23.1592C23.8833 23.2491 23.5125 23.3886 23.4479 23.3886C23.4182 23.3886 23.1657 23.4966 22.8866 23.6285C22.6076 23.7606 22.3563 23.8686 22.3282 23.8686C22.2772 23.8686 22.0674 23.9591 21.5203 24.217C20.9646 24.4791 20.5134 24.4367 20.4464 24.1158C20.3906 23.8478 20.2038 23.69 19.8518 23.6131C19.2819 23.4888 19.1058 23.3786 18.9836 23.0699C18.9266 22.9262 18.8122 22.6374 18.7294 22.4284C18.6466 22.2193 18.551 21.9673 18.5169 21.8683C18.4829 21.7692 18.4375 21.6523 18.4159 21.6083C18.3944 21.5642 18.3503 21.4293 18.3182 21.3082C18.286 21.1872 18.203 20.8992 18.1338 20.6682C18.0647 20.4372 18.0073 20.1941 18.0062 20.128C18.0053 20.062 17.9766 19.9566 17.9425 19.8937C17.9084 19.8308 17.8534 19.6868 17.8203 19.5736C17.716 19.2179 17.6285 18.9721 17.5618 18.8479C17.4982 18.7298 17.471 18.4178 17.4521 17.591C17.4432 17.2016 17.3586 17.0219 17.3318 17.3353C17.3176 17.5008 17.1898 17.5641 17.0671 17.4662C17.0057 17.4171 16.4242 16.4505 16.4242 16.3972C16.424 16.3198 15.7167 15.0248 15.5839 14.8589C15.2228 14.4076 15.3296 14.228 16.133 13.9362C16.3503 13.8572 16.6312 13.7438 16.757 13.6843C16.8829 13.6247 17.0326 13.5621 17.0899 13.545C17.147 13.528 17.1973 13.5125 17.2015 13.5106C17.2058 13.5087 17.2551 13.524 17.3112 13.5444ZM10.8288 14.1626C11.0576 14.2236 11.3758 14.3012 11.536 14.3348C11.6962 14.3684 11.8508 14.4142 11.8793 14.4366C11.908 14.4589 12.0391 14.5008 12.1706 14.5296C12.7432 14.6553 13.2211 14.7789 13.6369 14.909C13.7627 14.9483 13.9772 15.0039 14.1134 15.0322C14.4794 15.1084 14.5111 15.1539 14.5076 15.5974C14.5038 16.0823 14.4965 16.0952 14.1118 16.2933C13.6638 16.5239 12.9334 16.8676 12.8911 16.8676C12.8721 16.8676 12.8359 16.8917 12.8104 16.9211C12.785 16.9506 12.6933 16.9951 12.6068 17.0201C12.5201 17.045 12.3752 17.1307 12.2847 17.2105C12.0653 17.4036 11.91 17.5077 11.841 17.5077C11.8099 17.5077 11.7191 17.5409 11.6394 17.5816C11.5597 17.6223 11.4167 17.6673 11.3218 17.6815C11.0513 17.7221 10.2607 18.167 10.1909 18.3178C10.1833 18.3343 10.1451 18.3478 10.1061 18.3478C10.067 18.3478 9.96179 18.3838 9.87199 18.4278C9.78219 18.4719 9.66869 18.5078 9.61978 18.5078C9.51906 18.5078 9.14487 18.6863 9.08144 18.7647C8.93832 18.9413 8.28775 19.2029 7.94888 19.2203L7.60652 19.2379L7.56133 19.1233C7.51149 18.9975 7.53995 18.7728 7.62139 18.6479C7.65008 18.6039 7.72536 18.4058 7.78879 18.2078C7.85222 18.0098 7.949 17.7187 8.00394 17.561C8.05889 17.4033 8.10397 17.2431 8.10397 17.2051C8.10397 17.1671 8.17088 17.0021 8.25278 16.8383C8.41171 16.5206 8.49977 16.2595 8.56552 15.911C8.58806 15.7919 8.6336 15.6479 8.66682 15.5909C8.70005 15.5341 8.7744 15.3449 8.83214 15.1708C8.9727 14.746 9.23758 14.183 9.34538 14.0793C9.44912 13.9794 10.3274 14.0288 10.8288 14.1626ZM15.2274 14.9374C15.2626 14.9758 15.3421 15.1044 15.4039 15.2229C15.4657 15.3416 15.5868 15.5395 15.673 15.663C15.7594 15.7864 15.8962 16.0136 15.9773 16.1675C16.0584 16.3216 16.1546 16.5015 16.1911 16.5675C16.2274 16.6336 16.2574 16.7576 16.2575 16.8432C16.2577 16.9416 16.2831 17.0166 16.3265 17.0471C16.3664 17.0752 16.382 17.1162 16.3638 17.1446C16.3406 17.1806 16.3109 17.1717 16.2518 17.1107C16.2076 17.065 16.1289 17.0276 16.0771 17.0276C15.9514 17.0276 15.7892 16.9077 15.3643 16.501L15.0098 16.1616V15.6395C15.0098 14.8966 15.0554 14.7495 15.2274 14.9374ZM15.2903 16.7876C15.4622 16.9197 15.6212 17.0276 15.6435 17.0276C15.6987 17.0276 16.093 17.3321 16.164 17.4295C16.1952 17.4726 16.2394 17.5077 16.2618 17.5077C16.447 17.5077 17.1315 18.347 17.1315 18.574C17.1315 18.6038 17.1689 18.6953 17.2146 18.7774C17.2604 18.8595 17.2981 18.954 17.2982 18.9873C17.2984 19.0206 17.3647 19.2279 17.4456 19.448C17.5265 19.668 17.6204 19.9328 17.6544 20.0363C17.6883 20.1399 17.7325 20.2345 17.7526 20.2465C17.7727 20.2584 17.8015 20.3626 17.8165 20.4781C17.8315 20.5937 17.87 20.7692 17.9019 20.8681C18.2924 22.079 18.3961 22.3848 18.4487 22.4796C18.5175 22.6034 18.5413 23.4521 18.4777 23.5061C18.2773 23.6759 16.388 23.7769 16.0541 23.6358C15.9487 23.5912 15.8345 23.5435 15.8001 23.5298C15.7659 23.516 15.6629 23.4607 15.5714 23.4069C15.4799 23.3531 15.3394 23.2809 15.2594 23.2465C15.1793 23.2121 15.0389 23.1498 14.9473 23.1083C14.8559 23.0666 14.678 23.0044 14.5521 22.9699C14.4263 22.9352 14.2297 22.8639 14.1153 22.8113C13.8516 22.6899 13.7401 22.6462 13.5329 22.5828C13.4414 22.5547 13.3385 22.5116 13.3041 22.4869C13.2698 22.4622 13.1013 22.3745 12.9296 22.2921C12.7581 22.2096 12.5896 22.1272 12.5552 22.1089C12.5209 22.0904 12.3244 22.0259 12.1184 21.9652C11.9126 21.9044 11.6458 21.7952 11.5258 21.7222C11.4058 21.6492 11.2467 21.5626 11.1722 21.5297C11.0977 21.4968 11.0087 21.453 10.9745 21.4322C10.8268 21.3432 10.5684 21.2393 10.4336 21.2146C10.2803 21.1865 10.2058 21.1568 9.76802 20.9493C9.27719 20.7166 8.87477 20.5041 8.79031 20.4329C8.66334 20.326 8.51464 20.2451 8.34921 20.1929C7.75929 20.007 7.92692 19.6693 8.81401 19.2564C9.03288 19.1545 9.30438 19.0008 9.41718 18.9148C9.67113 18.7211 9.95087 18.5841 10.3296 18.4681C10.8385 18.312 11.1651 18.1468 11.603 17.8237C11.6806 17.7665 11.8334 17.6964 11.9428 17.6682C12.052 17.6399 12.1514 17.6013 12.1636 17.5823C12.1758 17.5633 12.2275 17.5477 12.2786 17.5477C12.3554 17.5477 12.7553 17.3663 13.3933 17.0419C13.4538 17.0112 13.5273 16.9581 13.5567 16.9241C13.7067 16.7503 14.2825 16.5583 14.6712 16.5522L14.9775 16.5476L15.2903 16.7876ZM34.4685 16.8777C34.5286 16.951 34.5696 18.196 34.5167 18.342C34.4757 18.455 34.2734 18.5878 34.1422 18.5878C34.0989 18.5878 34.0985 18.5978 34.1403 18.6379C34.1796 18.6755 34.4483 18.6865 35.2276 18.6821C36.4534 18.6752 36.5739 18.7176 35.9769 18.9464C35.8511 18.9946 35.6494 19.0777 35.5287 19.131C35.4081 19.1843 35.2817 19.2279 35.2478 19.2279C35.2139 19.2279 35.1163 19.2639 35.0309 19.3079C34.9455 19.3519 34.8375 19.3879 34.7908 19.3879C34.744 19.3879 34.6688 19.4123 34.6237 19.442C34.5295 19.5041 34.1429 19.5557 34.0767 19.5152C34.0523 19.5002 34.0187 19.3115 34.0021 19.0959C33.9684 18.6573 33.9144 18.609 33.8181 18.9311C33.7613 19.1209 33.8015 20.0148 33.8843 20.4045L33.909 20.521L33.9549 20.3845C34.0447 20.1176 34.8739 20.2792 35.2406 20.6351C35.316 20.7083 35.4003 20.7482 35.4798 20.7482C35.5473 20.7482 35.6025 20.7662 35.6025 20.7882C35.6025 20.8475 35.2736 20.8355 35.0825 20.7693C34.991 20.7376 34.7944 20.7101 34.6457 20.7082C34.4969 20.7063 34.3048 20.6805 34.2188 20.651C34.0481 20.5924 34.0136 20.6101 34.0484 20.7381C34.0651 20.7992 34.1262 20.8347 34.2727 20.8685C34.5234 20.9264 34.8525 21.1227 34.8571 21.2174C34.8598 21.2719 34.8583 21.9256 34.8539 22.6784C34.8535 22.7399 34.4893 22.7077 34.3913 22.6374C34.3367 22.5983 34.2452 22.5435 34.1881 22.5158C34.1308 22.4881 33.9751 22.367 33.842 22.2468C33.7088 22.1266 33.5871 22.0279 33.5716 22.0273C33.556 22.0269 33.4309 21.8934 33.2936 21.7308C33.1564 21.5683 32.9959 21.4076 32.9371 21.3738C32.8278 21.3109 32.7007 20.8731 32.7534 20.741C32.7654 20.7107 32.7802 20.2364 32.7861 19.687C32.7953 18.8449 32.8077 18.669 32.8659 18.5678C32.9038 18.5018 32.9543 18.3983 32.978 18.3378C33.0017 18.2774 33.04 18.2278 33.0631 18.2278C33.1118 18.2278 33.3144 17.8591 33.3144 17.7705C33.3144 17.7375 33.4254 17.6064 33.5611 17.4791C33.6967 17.3518 33.8204 17.1982 33.836 17.1376C33.8515 17.0772 33.8797 17.0276 33.8986 17.0276C33.9174 17.0276 33.9444 16.9927 33.9584 16.9501C33.9933 16.8445 34.3946 16.7876 34.4685 16.8777ZM4.50426 18.646C4.59638 18.6936 4.75357 18.7854 4.85359 18.8502C5.07072 18.9908 5.29795 19.119 5.60778 19.2755C6.1 19.5243 6.35662 19.732 6.35662 19.8816C6.35662 19.9786 6.09663 20.2279 5.99475 20.2287C5.89507 20.2295 5.78959 20.2962 5.82851 20.3336C5.84558 20.35 5.95734 20.34 6.07688 20.3111C6.19642 20.2823 6.457 20.2506 6.656 20.2406L7.01764 20.2225L7.10477 20.3869C7.25905 20.6776 7.21328 21.1757 7.02229 21.285C6.87905 21.3668 4.56479 21.4206 4.43746 21.3449C4.3235 21.2773 4.69176 20.9081 4.87334 20.9081C4.90505 20.9081 4.97569 20.8747 5.03017 20.834C5.08477 20.7932 5.19967 20.7378 5.2854 20.7109C5.37125 20.6839 5.44142 20.6473 5.44142 20.6294C5.44142 20.6114 5.51728 20.5676 5.60999 20.532C5.80353 20.4575 5.79191 20.3698 5.59256 20.4005C5.40599 20.4292 5.05759 20.5509 4.98057 20.6142C4.94444 20.6438 4.8982 20.6682 4.87775 20.6682C4.85742 20.6682 4.59615 20.7843 4.29724 20.926C3.7661 21.1782 3.4529 21.259 3.3681 21.1661C3.31663 21.1096 3.3803 20.389 3.45674 20.1641C3.49333 20.0563 3.55211 19.851 3.58731 19.708C3.77563 18.9427 3.86903 18.6156 3.91585 18.5563C3.97149 18.4859 4.28725 18.5341 4.50426 18.646ZM6.36569 18.6068C6.44073 18.6393 6.58397 18.6856 6.68388 18.7096C7.02101 18.791 7.18574 19.2329 6.97547 19.4916C6.9211 19.5584 6.41006 19.5306 6.32421 19.4562C6.28483 19.4221 6.20119 19.3819 6.13822 19.3667C6.07537 19.3516 6.02379 19.3261 6.02379 19.3101C6.02379 19.294 5.90681 19.2066 5.7638 19.116C5.34813 18.8524 5.21918 18.707 5.29562 18.5883C5.33779 18.5227 6.2056 18.5378 6.36569 18.6068ZM38.1571 18.5979C38.2906 19.0627 38.351 19.6624 38.3396 20.4081L38.3274 21.2082L38.0778 21.1953C37.8355 21.1826 37.1703 20.9689 36.8007 20.7848C36.7161 20.7426 36.6253 20.7082 36.599 20.7082C36.5726 20.7082 36.4921 20.6821 36.42 20.6503C36.2763 20.5867 35.8618 20.444 35.6649 20.39C35.5962 20.3712 35.466 20.3182 35.3753 20.2719C35.2846 20.2258 35.1846 20.188 35.1529 20.188C35.1212 20.188 35.0457 20.1631 34.9849 20.1326C34.9242 20.102 34.8211 20.0566 34.7558 20.0315C34.6535 19.9923 34.641 19.9711 34.6656 19.8772C34.7094 19.7095 34.7471 19.6845 35.1358 19.5659C35.3353 19.505 35.5266 19.4423 35.5609 19.4267C35.7745 19.3287 36.6658 19.0078 37.1047 18.8706C37.1644 18.8519 37.2581 18.8135 37.3128 18.7852C37.6677 18.6013 38.1288 18.499 38.1571 18.5979ZM3.36937 19.028C3.3588 19.2754 3.2999 19.5566 3.16968 19.9813C3.11322 20.1653 3.04537 19.9565 3.00169 19.4649C2.94569 18.8338 2.99309 18.6915 3.25146 18.7156L3.38215 18.7279L3.36937 19.028ZM32.4522 19.588C32.4883 20.3716 32.4504 20.5692 32.2391 20.6995C32.0735 20.8016 32.0649 20.8082 31.796 21.0348C31.4468 21.3292 30.9464 21.7898 30.5548 22.1778C30.1194 22.609 29.9313 22.6346 29.8422 22.2745C29.8011 22.1082 29.6547 21.746 29.5484 21.5475C29.4608 21.3842 29.3323 21.0323 29.0774 20.2584C28.8781 19.653 28.9025 19.362 29.1559 19.3231C29.2475 19.3089 29.3326 19.2818 29.3449 19.2627C29.3571 19.2436 29.4535 19.2279 29.559 19.2279C29.6645 19.2279 29.9489 19.1839 30.191 19.1302C31.0863 18.9313 31.4913 18.8744 31.9623 18.8813L32.42 18.8879L32.4522 19.588ZM38.8841 19.2829C38.8777 19.5492 38.8364 19.7303 38.7846 19.7189C38.7253 19.7059 38.6786 19.1 38.732 19.0375C38.8143 18.9413 38.8893 19.0625 38.8841 19.2829ZM28.8535 20.4382C28.9024 20.5537 28.9555 20.7021 28.9715 20.7682C28.9875 20.8342 29.0352 20.9509 29.0774 21.0276C29.1197 21.1043 29.1542 21.1985 29.1542 21.2368C29.1542 21.2752 29.2288 21.4865 29.3198 21.7062C29.6001 22.3827 29.3754 22.4569 28.7986 21.8783L28.4496 21.5283L28.4502 21.1282C28.4505 20.8818 28.4737 20.6667 28.5106 20.5681C28.5436 20.4802 28.5708 20.3781 28.5712 20.3414C28.5719 20.2775 28.6253 20.238 28.7202 20.2313C28.7446 20.2295 28.8046 20.3226 28.8535 20.4382ZM8.29112 20.6501C8.40555 20.6898 8.63232 20.7914 8.79508 20.8759C8.95783 20.9602 9.22933 21.0744 9.39824 21.1296C9.56727 21.1846 9.95831 21.3492 10.2672 21.4952C10.5761 21.6411 10.8663 21.7747 10.912 21.792C11.0608 21.8483 11.8298 22.0683 11.8777 22.0683C11.9034 22.0683 11.9306 22.0842 11.9382 22.1034C11.9524 22.1394 13.0922 22.7137 13.2417 22.7603C13.2875 22.7745 13.353 22.8035 13.3874 22.8246C13.4216 22.8458 13.5714 22.9207 13.7201 22.9909C13.8689 23.0611 14.0984 23.1704 14.2304 23.2336C14.3623 23.2968 14.5025 23.3486 14.5418 23.3486C14.5811 23.3486 14.7072 23.3917 14.822 23.4445C14.9367 23.4974 15.1617 23.5808 15.3217 23.63C15.4819 23.6791 15.7574 23.7979 15.934 23.894C16.1104 23.99 16.2668 24.0686 16.2813 24.0686C16.4864 24.0686 16.9234 25.0605 16.9234 25.5258C16.9234 25.787 16.8618 25.8442 16.5122 25.908C16.3916 25.93 16.2712 25.9609 16.2447 25.9767C16.2181 25.9924 16.0558 26.0364 15.8839 26.0745C15.1197 26.2436 14.6434 26.3883 14.5105 26.4921C14.4438 26.5442 14.0813 26.649 13.7409 26.7146C13.493 26.7623 13.1937 26.8397 12.9088 26.9299C12.7945 26.9661 12.598 27.0231 12.472 27.0566C12.3462 27.0901 12.222 27.1342 12.196 27.1544C12.17 27.1747 12.0202 27.2169 11.8632 27.2481C11.5182 27.3168 11.0566 27.4454 10.9401 27.5054C10.8934 27.5294 10.6776 27.5491 10.4606 27.5491H10.0663L9.95471 27.359C9.84969 27.1804 9.80484 27.0572 9.66706 26.569C9.61699 26.3914 9.55066 26.2219 9.36943 25.8089C9.3405 25.7429 9.3031 25.6361 9.28637 25.5715C9.26964 25.5069 9.23084 25.4079 9.20017 25.3515C9.1695 25.295 9.14441 25.2235 9.14417 25.1927C9.14406 25.1617 9.0991 25.0447 9.04427 24.9326C8.98943 24.8204 8.91462 24.659 8.87791 24.5739C8.8103 24.417 8.60316 23.4961 8.60316 23.3527C8.60316 23.3098 8.5589 23.2238 8.50488 23.1616C8.34328 22.9758 8.15636 22.6241 8.08306 22.3684C8.04519 22.2363 7.98756 22.0717 7.95504 22.0023C7.92251 21.9329 7.8959 21.8362 7.8959 21.7872C7.8959 21.7046 7.7903 21.4389 7.60048 21.0438C7.37034 20.5647 7.62615 20.4189 8.29112 20.6501ZM32.7394 21.6858C33.029 21.9595 33.3471 22.2223 33.4462 22.2697C33.5501 22.3194 33.8863 22.6041 34.24 22.9418C34.9721 23.6407 34.9795 23.6598 34.6644 24.0628C34.5604 24.1958 34.3799 24.4902 34.2635 24.7167C34.147 24.9434 33.9732 25.2368 33.8772 25.3688C33.7813 25.5008 33.6216 25.7684 33.5225 25.9636C33.4234 26.1588 33.2993 26.3677 33.2464 26.428C33.1568 26.5304 32.9039 26.9467 32.8197 27.1307C32.7991 27.1756 32.7507 27.2376 32.712 27.2684C32.6733 27.2993 32.5757 27.4505 32.495 27.6047C32.4144 27.7588 32.2989 27.9563 32.2385 28.0434C32.1782 28.1307 32.0969 28.2486 32.0581 28.3056C32.0192 28.3626 31.885 28.6103 31.7601 28.856C31.5449 29.2791 31.4497 29.3894 31.2995 29.3894C31.2116 29.3894 31.2112 28.3026 31.2985 26.969C31.3332 26.441 31.3703 25.3608 31.3811 24.5687C31.3939 23.6279 31.4215 22.9897 31.4605 22.7284C31.4934 22.5084 31.5332 22.1858 31.5492 22.0117C31.5821 21.6519 31.9425 21.1901 32.1917 21.1883C32.2034 21.1883 32.4499 21.4121 32.7394 21.6858ZM28.4384 22.0423C28.5461 22.138 28.7274 22.2682 28.8414 22.3315C29.436 22.6622 29.5906 22.9914 29.3659 23.4486C29.2201 23.7453 29.1542 23.9109 29.1542 23.9811C29.1542 24.0194 29.1281 24.0867 29.0961 24.1306C29.0642 24.1744 28.9438 24.39 28.8286 24.6095C28.7134 24.8291 28.5709 25.0708 28.5123 25.1465C28.4535 25.2224 28.4054 25.3158 28.4054 25.3542C28.4054 25.3926 28.3888 25.434 28.3684 25.446C28.3481 25.4582 28.3186 25.5177 28.3029 25.5784C28.27 25.7057 26.682 28.7938 26.5643 28.9593C26.4407 29.1332 26.3611 29.1132 25.863 28.7836C25.4809 28.531 25.1619 28.3436 24.8901 28.2122C24.7757 28.1569 24.5645 28.0198 24.4208 27.9076C24.2771 27.7954 23.9589 27.6029 23.7137 27.4799C23.4683 27.3569 23.2061 27.2051 23.1309 27.1427C23.0559 27.0802 22.9755 27.029 22.9524 27.029C22.9294 27.029 22.8318 26.9738 22.7355 26.9065C22.5126 26.7503 22.0804 26.4782 21.8504 26.3489C21.3812 26.0854 20.942 25.1736 21.1357 24.8645C21.205 24.7537 22.305 24.2294 22.4693 24.2288C22.4879 24.2287 22.7226 24.1228 22.9908 23.9933C23.2591 23.8639 23.609 23.7101 23.7684 23.6514C23.9277 23.5929 24.1142 23.5209 24.1829 23.4915C24.3712 23.4109 25.2958 22.989 25.3784 22.9461C25.4181 22.9254 25.4753 22.9084 25.5054 22.9084C25.5356 22.9084 25.7277 22.8298 25.9324 22.7337C26.1371 22.6375 26.4543 22.5076 26.6374 22.445C26.9472 22.339 27.7108 21.9835 27.8001 21.9036C27.9198 21.7966 28.2402 21.8662 28.4384 22.0423ZM30.8617 22.5984C30.8833 23.2133 30.8457 26.8198 30.8169 26.8925C30.7431 27.0791 30.5496 27.2213 30.0083 27.4865C29.7116 27.632 29.4214 27.7937 29.3636 27.846C29.1986 27.9947 27.9982 28.5385 27.7606 28.5721C27.6462 28.5881 27.5298 28.6301 27.5019 28.6653C27.4558 28.7235 27.4512 28.7233 27.4499 28.6625C27.4492 28.6259 27.4692 28.5894 27.4943 28.5813C27.5193 28.5733 27.5504 28.442 27.563 28.2896C27.5786 28.1028 27.6234 27.9404 27.7006 27.7908C27.8901 27.4234 28.0207 27.1252 28.0519 26.9889C28.068 26.9181 28.1433 26.7495 28.2192 26.6145C28.295 26.4794 28.4995 26.09 28.6735 25.7489C28.8475 25.4078 29.0079 25.1017 29.0298 25.0688C29.0519 25.0358 29.0958 24.9547 29.1275 24.8887C29.2273 24.681 29.7396 23.6913 29.7799 23.6285C29.8011 23.5956 29.8932 23.4137 29.9846 23.2245C30.1983 22.7819 30.4429 22.5485 30.6926 22.5485C30.7978 22.5485 30.8606 22.567 30.8617 22.5984ZM20.109 23.9755C20.1655 24.0343 20.2234 24.1288 20.2373 24.1855C20.2513 24.2423 20.2852 24.3157 20.3127 24.3486C20.3401 24.3817 20.3875 24.4716 20.418 24.5487C20.4484 24.6257 20.4957 24.7157 20.5232 24.7487C20.5506 24.7818 20.5865 24.8628 20.6028 24.9288C20.6315 25.045 20.6756 25.1531 20.8317 25.4888C20.9309 25.7025 20.9708 25.8893 20.9383 25.988C20.9001 26.1036 19.9288 26.1063 19.3879 25.9922C19.1879 25.9501 18.8371 25.9029 18.6082 25.8875C18.3795 25.8722 18.1174 25.8349 18.0259 25.8049C17.9343 25.7747 17.8127 25.7497 17.7554 25.7492C17.5155 25.7473 17.3505 25.6712 17.2977 25.5382C17.2696 25.467 17.2206 25.3521 17.189 25.2827C17.1574 25.2134 17.1314 25.1324 17.1311 25.1027C17.131 25.073 17.095 24.9964 17.0512 24.9325C16.9975 24.8543 16.962 24.7066 16.9425 24.4821C16.909 24.0957 16.9412 24.0286 17.1597 24.0286C17.2383 24.0286 17.3811 24.0098 17.4771 23.9869C17.7228 23.928 18.4875 23.881 19.3071 23.8743L20.0059 23.8686L20.109 23.9755ZM17.3207 26.3263C17.4128 26.4615 17.5736 26.7473 17.6318 26.879C17.6585 26.9396 17.6957 26.989 17.7144 26.989C17.7767 26.989 17.9707 27.3674 17.9713 27.49C17.9717 27.6082 17.8523 27.8491 17.7137 28.0091C17.6757 28.0531 17.6108 28.1791 17.5694 28.2892C17.4548 28.5951 17.1746 29.1412 17.0706 29.2617C16.9751 29.3723 16.9594 29.3992 16.7215 29.8596C16.6447 30.008 16.5648 30.1565 16.5439 30.1895C16.5228 30.2224 16.4775 30.3125 16.4432 30.3895C16.4088 30.4665 16.363 30.5566 16.3414 30.5895C16.3198 30.6225 16.2064 30.8385 16.0894 31.0696C15.9724 31.3006 15.8592 31.5166 15.8377 31.5496C15.8161 31.5827 15.7687 31.6727 15.7322 31.7497C15.4513 32.3427 15.263 32.2769 14.0713 31.1697C13.6214 30.7515 13.2319 30.4023 13.2059 30.3936C13.1005 30.358 12.3962 29.7368 11.4548 28.8493C11.3147 28.7173 11.0927 28.5384 10.9613 28.4518C10.605 28.217 10.5981 27.9973 10.9439 27.905C11.0408 27.8791 11.2002 27.8335 11.2982 27.8036C11.3963 27.7736 11.5273 27.7486 11.5895 27.7479C11.6516 27.7471 11.796 27.7023 11.9105 27.6483C12.0249 27.5941 12.1416 27.5496 12.17 27.5495C12.2187 27.5491 12.7409 27.4046 13.3457 27.2241C13.4945 27.1797 13.691 27.125 13.7826 27.1025C13.874 27.0801 14.1081 27.0179 14.3026 26.9644C14.497 26.9108 14.7591 26.8396 14.8849 26.8061C15.0107 26.7725 15.198 26.7179 15.3009 26.6846C15.404 26.6513 15.583 26.6014 15.6988 26.5736C15.8147 26.5458 15.9326 26.5091 15.9609 26.4924C16.2931 26.295 17.2221 26.1816 17.3207 26.3263ZM19.1699 26.2664C19.9407 26.3657 20.1936 26.4066 20.2388 26.4392C20.318 26.4964 20.2189 26.6562 20.0693 26.7123C19.8087 26.8101 19.6437 26.877 19.429 26.9719C19.3084 27.0253 19.1867 27.0697 19.1586 27.0704C19.1304 27.0712 19.0326 27.1066 18.9411 27.149C18.8378 27.1971 18.6842 27.2269 18.5359 27.2277L18.2971 27.229L18.1445 26.999C18.0606 26.8725 17.9583 26.7213 17.9171 26.6629C17.8258 26.5336 17.7798 26.3698 17.8121 26.289C17.84 26.2191 18.6928 26.2049 19.1699 26.2664ZM21.7608 26.8293C21.8192 26.8734 22.0323 26.9926 22.2344 27.0942C22.4366 27.1958 22.6394 27.3113 22.6852 27.3509C22.731 27.3904 22.9088 27.4988 23.0804 27.5916C23.252 27.6844 23.479 27.8296 23.5847 27.9143C23.6905 27.9988 23.8797 28.1199 24.005 28.1834C24.1305 28.2468 24.3621 28.3795 24.52 28.4781C24.6778 28.5769 24.9378 28.7241 25.0979 28.8054C25.6717 29.097 25.8338 29.4328 25.5045 29.648C25.4191 29.7037 25.3157 29.7494 25.2747 29.7494C25.2337 29.7494 25.0936 29.7854 24.9633 29.8294C24.8331 29.8734 24.6885 29.9101 24.642 29.9107C24.5954 29.9115 24.4824 29.9469 24.3909 29.9895C24.2994 30.0319 24.194 30.0674 24.1567 30.0681C24.1196 30.0688 24.0165 30.0994 23.928 30.136C23.8394 30.1726 23.6545 30.2255 23.5172 30.2536C23.2744 30.3032 23.0482 30.3668 22.6644 30.4932C22.5615 30.5272 22.4031 30.5727 22.3125 30.5943C22.2218 30.616 22.1283 30.6488 22.1044 30.6673C22.0806 30.6857 21.9518 30.7225 21.8181 30.7488C21.6844 30.7752 21.5117 30.8222 21.4346 30.8532C21.3575 30.8842 21.2434 30.9096 21.1812 30.9096C21.1191 30.9096 20.9921 30.9447 20.899 30.9877C20.8061 31.0306 20.6551 31.0841 20.5635 31.1065C20.472 31.129 20.2099 31.2104 19.9812 31.2877C19.7523 31.3649 19.5221 31.4285 19.4694 31.4289C19.4168 31.4293 19.3226 31.4551 19.26 31.4863C19.1975 31.5173 19.072 31.5544 18.9813 31.5687C18.8905 31.5829 18.7321 31.6269 18.629 31.6665C18.2847 31.7987 17.7773 31.9505 17.6806 31.9501C17.628 31.9499 17.5344 31.9742 17.4726 32.0042C17.4107 32.0341 17.2794 32.0705 17.1805 32.0851C17.0816 32.0997 16.96 32.1364 16.91 32.1668C16.7855 32.2427 16.5123 32.2778 16.3618 32.2372C16.0824 32.1617 16.1699 31.8885 16.9591 30.3736C17.3399 29.6425 17.6702 29.0075 17.693 28.9625C18.4102 27.5514 18.5434 27.413 19.3418 27.2487C19.4189 27.2328 19.5287 27.1971 19.586 27.1692C19.6431 27.1415 19.8491 27.0589 20.0436 26.9856C20.238 26.9124 20.444 26.8293 20.5012 26.8009C20.686 26.7095 21.6306 26.7306 21.7608 26.8293ZM9.47863 26.9499C9.52464 26.9737 9.58609 27.0829 9.6242 27.2092C9.66056 27.3293 9.7061 27.437 9.7255 27.4485C9.7449 27.46 9.77255 27.5369 9.78707 27.6193C9.81553 27.7816 10.0334 28.1492 10.1009 28.1492C10.1237 28.1492 10.1419 28.2437 10.141 28.3592C10.1397 28.5827 10.0796 28.6599 9.85306 28.7288C9.79683 28.7459 9.584 28.8691 9.37989 29.0026L9.00883 29.2454L8.57551 29.2409C8.33713 29.2384 8.11954 29.2184 8.09189 29.1963C8.06412 29.1743 7.91043 29.0907 7.75034 29.0105C7.59014 28.9303 7.39706 28.8018 7.3212 28.7248L7.18342 28.5849L7.19643 27.8837C7.21246 27.0248 7.1452 27.0973 8.06226 26.9498C8.35049 26.9035 9.38848 26.9036 9.47863 26.9499ZM30.6838 28.9667C30.6898 29.6253 30.6797 30.1787 30.6613 30.1964C30.5873 30.2676 29.9154 30.2435 29.667 30.1608C29.2451 30.0203 28.6967 29.8796 28.1351 29.7676C27.6527 29.6714 27.5746 29.6159 27.5746 29.3694C27.5746 29.1807 27.5979 29.1405 27.7496 29.0655C27.8122 29.0346 28.065 28.9111 28.3113 28.7911C28.5576 28.671 28.8393 28.5141 28.9373 28.4422C29.0354 28.3704 29.2031 28.2706 29.3101 28.2204C29.545 28.1102 29.5876 28.0894 29.9626 27.9024C30.1985 27.7847 30.2978 27.757 30.4647 27.7623L30.6727 27.7691L30.6838 28.9667ZM32.0632 29.8078C32.1279 29.84 32.3563 30.0226 32.5707 30.2136C32.7853 30.4045 33.0585 30.6215 33.178 30.6956C33.4021 30.8348 33.5026 30.9574 33.4665 31.0476C33.4399 31.1142 32.8911 31.0864 32.7112 31.0092C32.6425 30.9799 32.5302 30.9428 32.4615 30.927C32.3929 30.9111 32.2673 30.8648 32.1824 30.8239C32.0976 30.783 31.9852 30.7485 31.9328 30.7473C31.8804 30.7459 31.7345 30.6964 31.6087 30.6372L31.38 30.5295L31.3948 30.3494C31.4316 29.905 31.7462 29.6502 32.0632 29.8078ZM27.8854 30.0033C27.9541 30.0394 28.0397 30.069 28.0757 30.0693C28.1117 30.0694 28.2976 30.1145 28.4887 30.1695C28.6798 30.2244 28.8937 30.2696 28.9639 30.2697C29.0343 30.2699 29.1416 30.2949 29.2022 30.3253C29.263 30.3558 29.3772 30.4013 29.4562 30.4263C29.707 30.506 29.7213 30.9096 29.4732 30.9096C29.4458 30.9096 29.3536 30.9456 29.2682 30.9896C29.1828 31.0336 29.0887 31.0696 29.0592 31.0696C29.0296 31.0696 28.9313 31.1067 28.8407 31.1519C28.637 31.2536 28.4069 31.3377 28.1351 31.4096C27.879 31.4773 27.4723 31.6142 27.2968 31.6918C27.2246 31.7237 27.131 31.7498 27.0887 31.7499C27.0464 31.75 26.9582 31.7771 26.8928 31.8098C26.8274 31.8426 26.6777 31.8956 26.56 31.9274C26.3058 31.9962 25.9861 32.0962 25.7845 32.1697C25.5707 32.2478 25.2515 32.3485 25.0149 32.4126C24.9005 32.4436 24.762 32.4916 24.7072 32.5193C24.6507 32.5479 24.4612 32.5698 24.2704 32.5698H23.9332L23.9201 32.4147C23.9055 32.2432 25.2592 30.8601 25.7845 30.5096C25.9104 30.4257 26.0976 30.2727 26.2006 30.1695C26.3035 30.0662 26.4252 29.9656 26.471 29.9457C26.617 29.8822 27.7423 29.9282 27.8854 30.0033ZM25.2843 30.412C25.2506 30.4974 23.171 32.5252 22.8052 32.8296C22.4389 33.1343 22.6247 33.1084 20.9007 33.095C19.7035 33.0857 19.2824 33.0688 19.0243 33.0199C18.8413 32.9851 18.5025 32.9455 18.2715 32.9319C18.0405 32.9182 17.7316 32.8747 17.585 32.835L17.3186 32.7629L17.3061 32.601C17.2904 32.3989 17.4167 32.287 17.7064 32.2467C17.8135 32.2317 17.9385 32.1998 17.9843 32.1757C18.0301 32.1515 18.1611 32.111 18.2755 32.0857C18.4828 32.0398 18.5884 32.007 18.9827 31.8656C19.0971 31.8246 19.2563 31.78 19.3363 31.7663C19.4871 31.7406 19.8842 31.6316 20.2099 31.5265C20.6478 31.385 21.4706 31.1561 21.7262 31.1046C21.8393 31.0817 21.9699 31.0376 22.0163 31.0063C22.0626 30.9752 22.1392 30.9496 22.1865 30.9496C22.2337 30.9496 22.3466 30.9123 22.4373 30.8667C22.5279 30.8212 22.7705 30.7392 22.9764 30.6847C23.5063 30.5444 24.0367 30.3928 24.1829 30.3399C24.3377 30.284 25.1555 30.2383 25.2528 30.2802C25.3101 30.3049 25.3164 30.331 25.2843 30.412ZM30.8934 31.0013C30.9427 31.0518 31.0053 31.1544 31.0325 31.2293C31.0597 31.3044 31.1443 31.4718 31.2205 31.6015C31.2968 31.7313 31.3598 31.8491 31.3605 31.8635C31.3612 31.8779 31.4077 31.9797 31.4641 32.0897C31.5221 32.2031 31.5665 32.3611 31.5668 32.4544C31.567 32.5579 31.598 32.6567 31.6503 32.7207C31.8176 32.9253 31.7166 33.062 31.5307 32.8829C31.4659 32.8207 31.3401 32.7047 31.2509 32.6252C30.6178 32.0608 29.9863 31.3882 29.9863 31.2781C29.9863 30.9988 30.6832 30.7861 30.8934 31.0013ZM31.8627 31.1067C32.009 31.1262 32.213 31.1702 32.316 31.2047C32.4189 31.2391 32.681 31.3115 32.8983 31.3655C34.4451 31.7498 34.6247 31.9428 34.0184 32.5698C33.9333 32.6578 33.7979 32.8289 33.7174 32.9498C33.6369 33.0708 33.5164 33.2262 33.4496 33.2952C33.3828 33.3641 33.2774 33.5035 33.2156 33.6051C32.8931 34.1341 32.753 34.0901 32.4037 33.3499C32.3778 33.2949 32.3038 33.1572 32.2393 33.0438C32.1748 32.9305 32.069 32.6965 32.0042 32.5238C31.9393 32.351 31.8519 32.1471 31.8099 32.0703C31.7679 31.9937 31.7336 31.9196 31.7336 31.9059C31.7336 31.892 31.6587 31.7498 31.5671 31.5897C31.4756 31.4295 31.4008 31.2665 31.4008 31.2273C31.4008 31.0966 31.4494 31.0263 31.5244 31.0492C31.5641 31.0614 31.7164 31.0872 31.8627 31.1067ZM14.7099 32.2866C15.0913 32.6618 15.0822 32.8443 14.6779 32.9296C14.6119 32.9436 14.5356 32.9808 14.5083 33.0124C14.4811 33.044 14.4407 33.0698 14.4186 33.0698C14.3676 33.0698 13.4984 33.4779 13.4704 33.515C13.4291 33.5698 13.0192 33.62 12.9736 33.5761C12.8871 33.493 12.9997 33.2258 13.2381 32.9485C13.2859 32.8928 13.3996 32.7063 13.4904 32.534C13.598 32.3303 13.7254 32.1606 13.8555 32.0482L14.0553 31.8754L14.2326 31.9335C14.3546 31.9735 14.5035 32.0837 14.7099 32.2866ZM34.6665 32.5898C34.7099 32.7216 34.6513 32.8206 34.4531 32.9492C34.138 33.1536 34.1448 33.0675 34.4771 32.6398C34.5943 32.4889 34.63 32.4795 34.6665 32.5898ZM26.0237 32.6645C26.0752 32.7271 26.1756 32.8845 26.2468 33.0142C26.3181 33.1438 26.4001 33.2769 26.4292 33.3099C26.4582 33.3429 26.4956 33.4129 26.5124 33.4655C26.529 33.5181 26.5958 33.6442 26.6607 33.7456C26.7257 33.847 26.815 34.0042 26.8594 34.0948C26.9036 34.1855 26.9608 34.2721 26.9862 34.2872C27.049 34.3245 27.0445 34.3729 26.9721 34.4426C26.9387 34.4746 26.8778 34.5534 26.8368 34.6179C26.3759 35.3403 26.3375 35.3638 25.9301 35.1711C25.8158 35.1169 25.6936 35.0721 25.6586 35.0714C25.6236 35.0708 25.5581 35.0459 25.5129 35.0161C25.4679 34.9864 25.3748 34.9492 25.3062 34.9335C25.1284 34.8927 24.7542 34.7124 24.7324 34.6569C24.7222 34.6312 24.7321 34.2411 24.7546 33.7899C24.8006 32.8616 24.8146 32.8277 25.1813 32.7677C25.2728 32.7528 25.3832 32.7226 25.4266 32.7006C25.4883 32.6694 25.7523 32.5899 25.9093 32.5552C25.9208 32.5526 25.9723 32.6018 26.0237 32.6645ZM16.5886 33.1363C16.6396 33.1806 16.5765 33.8914 16.5039 34.0899C16.4601 34.2099 16.4242 34.3438 16.4242 34.3876C16.4242 34.4955 16.2627 34.8824 16.2028 34.918C16.1011 34.9785 15.9692 34.6132 15.9032 34.0883C15.8867 33.9572 15.8494 33.778 15.8205 33.69C15.7326 33.4236 15.7093 33.187 15.7646 33.1229C15.8109 33.0693 16.5247 33.0809 16.5886 33.1363ZM15.4306 33.3899C15.472 33.5329 15.5269 33.803 15.5527 33.99C15.5785 34.177 15.6238 34.402 15.6534 34.4901C15.683 34.5781 15.7141 34.8931 15.7225 35.1902L15.7378 35.7302L15.6338 35.742C15.5181 35.7549 12.9019 34.5225 12.8037 34.4087C12.6724 34.2566 13.1645 33.9256 14.0321 33.5824C14.1008 33.5552 14.2656 33.4742 14.3984 33.4024C14.5312 33.3306 14.7089 33.2534 14.7936 33.2309C14.8782 33.2084 14.9754 33.1717 15.0098 33.1495C15.1967 33.0283 15.3516 33.1166 15.4306 33.3899ZM13.1377 35.0318C13.1377 35.0499 13.1799 35.0769 13.2313 35.0917C13.3321 35.1207 14.0749 35.4516 14.1777 35.5134C14.2121 35.5339 14.2869 35.5706 14.3442 35.5948C14.4013 35.6189 14.4762 35.6549 14.5105 35.6747C14.5449 35.6946 14.633 35.7406 14.7064 35.777C14.9354 35.891 14.8216 35.9186 14.2459 35.8887C13.5739 35.8539 13.5247 35.8304 13.232 35.4047C13.2039 35.3637 13.1334 35.2615 13.0753 35.1775C13.0174 35.0933 12.9802 35.0086 12.9927 34.9891C13.0192 34.948 13.1377 34.9827 13.1377 35.0318Z" fill="white"/>
</svg>
